<svg id="text" xmlns="http://www.w3.org/2000/svg" xmlns:xlink="http://www.w3.org/1999/xlink" viewBox="0 0 144 108">
  <defs>
    <symbol id="rnn-bg" data-name="rnn-bg" viewBox="0 0 49.5 49.5">
      <rect x="0.75" y="0.75" width="48" height="48" rx="6" ry="6" fill="#fff" fill-opacity="0.8" stroke="#666" stroke-width="1.5"/>
    </symbol>
    <symbol id="rnn-a" data-name="rnn-a" viewBox="0 0 49.5 49.5">
      <use id="rnn-bg-3" data-name="rnn-bg" width="49.5" height="49.5" xlink:href="#rnn-bg"/>
      <path d="M29.77,31.75l-1.93-4.94H21.6l-1.91,4.94H17.86L24,16.14h1.52l6.11,15.61H29.77Zm-2.5-6.57-1.81-4.82q-0.35-.91-0.72-2.24a20.34,20.34,0,0,1-.67,2.24l-1.83,4.82h5Z" fill="#666"/>
    </symbol>
    <symbol id="op-1" data-name="op-1" viewBox="0 0 50.5 27.5">
      <g>
        <g opacity="0.1">
          <rect x="1.75" y="2.75" width="48" height="24" rx="12" ry="12"/>
          <rect x="1.75" y="2.75" width="48" height="24" rx="12" ry="12" fill="none" stroke="#000" stroke-miterlimit="10" stroke-width="1.5"/>
        </g>
        <g>
          <rect x="0.75" y="0.75" width="48" height="24" rx="12" ry="12" fill="#d8c2f2"/>
          <rect x="0.75" y="0.75" width="48" height="24" rx="12" ry="12" fill="none" stroke="#666" stroke-miterlimit="10" stroke-width="1.5"/>
        </g>
      </g>
      <g>
        <path d="M20,12a4.69,4.69,0,0,1-1,3.25,3.78,3.78,0,0,1-3,1.16,3.81,3.81,0,0,1-3-1.15A4.72,4.72,0,0,1,12,12a4.64,4.64,0,0,1,1-3.26,3.85,3.85,0,0,1,3-1.14,3.78,3.78,0,0,1,3,1.15A4.68,4.68,0,0,1,20,12Zm-6.54,0a3.84,3.84,0,0,0,.64,2.4,2.25,2.25,0,0,0,1.89.82,2.25,2.25,0,0,0,1.88-.81A3.85,3.85,0,0,0,18.5,12a3.86,3.86,0,0,0-.63-2.39A2.23,2.23,0,0,0,16,8.77a2.27,2.27,0,0,0-1.9.81A3.8,3.8,0,0,0,13.45,12Z" fill="#666"/>
        <path d="M25,16.39a2.27,2.27,0,0,1-1.91-.88H23q0.08,0.82.08,1v2.65H21.68V9.79H22.8q0,0.18.19,0.87h0.07a2.16,2.16,0,0,1,1.93-1,2.25,2.25,0,0,1,1.89.88A4,4,0,0,1,27.56,13a4,4,0,0,1-.69,2.48A2.27,2.27,0,0,1,25,16.39ZM24.64,10.8a1.43,1.43,0,0,0-1.2.48,2.49,2.49,0,0,0-.38,1.54V13a3,3,0,0,0,.38,1.71,1.39,1.39,0,0,0,1.22.53,1.24,1.24,0,0,0,1.1-.59A3,3,0,0,0,26.15,13a2.92,2.92,0,0,0-.38-1.65A1.28,1.28,0,0,0,24.64,10.8Z" fill="#666"/>
        <path d="M35.86,16.27H34.49V10.74q0-1,0-1.57l-0.33.31-1.32,1.08L32.2,9.69l2.52-2h1.15v8.57Z" fill="#666"/>
      </g>
    </symbol>
    <symbol id="op-2" data-name="op-2" viewBox="0 0 50.5 27.5">
      <g>
        <g opacity="0.1">
          <rect x="1.75" y="2.75" width="48" height="24" rx="12" ry="12"/>
          <rect x="1.75" y="2.75" width="48" height="24" rx="12" ry="12" fill="none" stroke="#000" stroke-miterlimit="10" stroke-width="1.5"/>
        </g>
        <g>
          <rect x="0.75" y="0.75" width="48" height="24" rx="12" ry="12" fill="#d8c2f2"/>
          <rect x="0.75" y="0.75" width="48" height="24" rx="12" ry="12" fill="none" stroke="#666" stroke-miterlimit="10" stroke-width="1.5"/>
        </g>
      </g>
      <g>
        <path d="M20,12a4.69,4.69,0,0,1-1,3.25,3.78,3.78,0,0,1-3,1.16,3.81,3.81,0,0,1-3-1.15A4.72,4.72,0,0,1,12,12a4.64,4.64,0,0,1,1-3.26,3.85,3.85,0,0,1,3-1.14,3.78,3.78,0,0,1,3,1.15A4.68,4.68,0,0,1,20,12Zm-6.54,0a3.84,3.84,0,0,0,.64,2.4,2.25,2.25,0,0,0,1.89.82,2.25,2.25,0,0,0,1.88-.81A3.85,3.85,0,0,0,18.5,12a3.86,3.86,0,0,0-.63-2.39A2.23,2.23,0,0,0,16,8.77a2.27,2.27,0,0,0-1.9.81A3.8,3.8,0,0,0,13.45,12Z" fill="#666"/>
        <path d="M25,16.39a2.27,2.27,0,0,1-1.91-.88H23q0.08,0.82.08,1v2.65H21.68V9.79H22.8q0,0.18.19,0.87h0.07a2.16,2.16,0,0,1,1.93-1,2.25,2.25,0,0,1,1.89.88A4,4,0,0,1,27.56,13a4,4,0,0,1-.69,2.48A2.27,2.27,0,0,1,25,16.39ZM24.64,10.8a1.43,1.43,0,0,0-1.2.48,2.49,2.49,0,0,0-.38,1.54V13a3,3,0,0,0,.38,1.71,1.39,1.39,0,0,0,1.22.53,1.24,1.24,0,0,0,1.1-.59A3,3,0,0,0,26.15,13a2.92,2.92,0,0,0-.38-1.65A1.28,1.28,0,0,0,24.64,10.8Z" fill="#666"/>
        <path d="M37.63,16.27H31.82v-1L34,13a18.79,18.79,0,0,0,1.3-1.42,3.39,3.39,0,0,0,.47-0.79A2.12,2.12,0,0,0,35.94,10a1.21,1.21,0,0,0-.35-0.91,1.34,1.34,0,0,0-1-.33,2.57,2.57,0,0,0-1,.18,4.46,4.46,0,0,0-1.06.66l-0.74-.91a4.8,4.8,0,0,1,1.39-.86,4.07,4.07,0,0,1,1.44-.25,2.82,2.82,0,0,1,1.92.62,2.11,2.11,0,0,1,.72,1.68,3,3,0,0,1-.21,1.1,4.48,4.48,0,0,1-.64,1.08A14.6,14.6,0,0,1,35,13.56L33.56,15v0.06h4.07v1.21Z" fill="#666"/>
      </g>
    </symbol>
    <symbol id="op-3" data-name="op-3" viewBox="0 0 50.5 27.5">
      <g>
        <g opacity="0.1">
          <rect x="1.75" y="2.75" width="48" height="24" rx="12" ry="12"/>
          <rect x="1.75" y="2.75" width="48" height="24" rx="12" ry="12" fill="none" stroke="#000" stroke-miterlimit="10" stroke-width="1.5"/>
        </g>
        <g>
          <rect x="0.75" y="0.75" width="48" height="24" rx="12" ry="12" fill="#d8c2f2"/>
          <rect x="0.75" y="0.75" width="48" height="24" rx="12" ry="12" fill="none" stroke="#666" stroke-miterlimit="10" stroke-width="1.5"/>
        </g>
      </g>
      <g>
        <path d="M20,12a4.69,4.69,0,0,1-1,3.25,3.78,3.78,0,0,1-3,1.16,3.81,3.81,0,0,1-3-1.15A4.72,4.72,0,0,1,12,12a4.64,4.64,0,0,1,1-3.26,3.85,3.85,0,0,1,3-1.14,3.78,3.78,0,0,1,3,1.15A4.68,4.68,0,0,1,20,12ZM13.5,12a3.84,3.84,0,0,0,.64,2.4,2.25,2.25,0,0,0,1.89.82,2.25,2.25,0,0,0,1.88-.81A3.85,3.85,0,0,0,18.55,12a3.86,3.86,0,0,0-.63-2.39A2.23,2.23,0,0,0,16,8.77a2.27,2.27,0,0,0-1.9.81A3.8,3.8,0,0,0,13.5,12Z" fill="#666"/>
        <path d="M25,16.39a2.27,2.27,0,0,1-1.91-.88H23q0.08,0.82.08,1v2.65H21.74V9.79h1.11q0,0.18.19,0.87h0.07a2.16,2.16,0,0,1,1.93-1,2.25,2.25,0,0,1,1.89.88A4,4,0,0,1,27.61,13a4,4,0,0,1-.69,2.48A2.27,2.27,0,0,1,25,16.39ZM24.69,10.8a1.43,1.43,0,0,0-1.2.48,2.49,2.49,0,0,0-.38,1.54V13a3,3,0,0,0,.38,1.71,1.39,1.39,0,0,0,1.22.53,1.24,1.24,0,0,0,1.1-.59A3,3,0,0,0,26.2,13a2.92,2.92,0,0,0-.38-1.65A1.28,1.28,0,0,0,24.69,10.8Z" fill="#666"/>
        <path d="M37.36,9.67A2,2,0,0,1,36.88,11a2.39,2.39,0,0,1-1.34.73v0a2.59,2.59,0,0,1,1.55.64,1.84,1.84,0,0,1,.52,1.36,2.26,2.26,0,0,1-.87,1.91,4,4,0,0,1-2.48.67,5.59,5.59,0,0,1-2.4-.46V14.7a5.49,5.49,0,0,0,1.15.42,5,5,0,0,0,1.17.15,2.47,2.47,0,0,0,1.49-.37,1.34,1.34,0,0,0,.49-1.14,1.09,1.09,0,0,0-.54-1,3.48,3.48,0,0,0-1.71-.32H33.16V11.3h0.76Q36,11.3,36,9.88A1,1,0,0,0,35.6,9a1.61,1.61,0,0,0-1.05-.3,3.19,3.19,0,0,0-.94.14,4.44,4.44,0,0,0-1.07.54l-0.67-1a4.49,4.49,0,0,1,2.74-.87,3.26,3.26,0,0,1,2,.56A1.83,1.83,0,0,1,37.36,9.67Z" fill="#666"/>
      </g>
    </symbol>
  </defs>
  <title>rnn</title>
  <g>
    <g id="_Group_" data-name="&lt;Group&gt;">
      <rect x="-0.01" y="68.09" width="144.02" height="39.19" rx="5" ry="5" fill="#f0f0f5"/>
      <g opacity="0.1">
        <rect x="-0.01" y="68.09" width="144.02" height="39.19" rx="5" ry="5" fill="none" stroke="#667780"/>
      </g>
    </g>
    <use id="rnn-a-3" data-name="rnn-a" width="49.5" height="49.5" transform="translate(6.62 74.21) scale(0.54)" xlink:href="#rnn-a"/>
    <use width="49.5" height="49.5" transform="translate(59.97 74.21) scale(0.54)" xlink:href="#rnn-a"/>
    <use id="rnn-a-8" data-name="rnn-a" width="49.5" height="49.5" transform="translate(111.4 74.21) scale(0.54)" xlink:href="#rnn-a"/>
    <g>
      <line x1="33.16" y1="87.96" x2="52.72" y2="87.96" fill="none" stroke="#666" stroke-miterlimit="10"/>
      <path d="M56.34,88a18.13,18.13,0,0,0-5.13,2.85l1-2.85-1-2.85A18.12,18.12,0,0,0,56.34,88Z" fill="#666"/>
    </g>
    <g>
      <line x1="86.09" y1="87.96" x2="105.65" y2="87.96" fill="none" stroke="#666" stroke-miterlimit="10"/>
      <path d="M109.27,88a18.13,18.13,0,0,0-5.13,2.85l1-2.85-1-2.85A18.12,18.12,0,0,0,109.27,88Z" fill="#666"/>
    </g>
  </g>
  <g>
    <path d="M85.57,12.85H45.1" fill="none" stroke="#666" stroke-miterlimit="10" stroke-width="0.5"/>
    <g opacity="0.9">
      <path d="M31,50.56h2.29c1.26,0,2.29-1.8,2.29-4V16.85a4,4,0,0,1,4-4H52" fill="none" stroke="#666" stroke-miterlimit="10" stroke-width="0.5"/>
    </g>
    <g opacity="0.2">
      <path d="M31,36.42h2.29c1.26,0,2.29-1.8,2.29-4V16.85a4,4,0,0,1,4-4H52" fill="none" stroke="#666" stroke-miterlimit="10" stroke-width="0.5"/>
    </g>
    <g opacity="0.4">
      <path d="M31,22.28h2.3c1.26,0,2.3-1.8,2.3-4V16.85a4,4,0,0,1,4-4H52" fill="none" stroke="#666" stroke-miterlimit="10" stroke-width="0.5"/>
    </g>
    <g opacity="0.2">
      <path d="M64,50.56H61.57c-1.34,0-2.43-1.8-2.43-4V16.85a4,4,0,0,0-4-4H44.31" fill="none" stroke="#666" stroke-miterlimit="10" stroke-width="0.5"/>
    </g>
    <g opacity="0.9">
      <path d="M64,36.42H61.57c-1.34,0-2.43-1.8-2.43-4V16.85a4,4,0,0,0-4-4H44.31" fill="none" stroke="#666" stroke-miterlimit="10" stroke-width="0.5"/>
    </g>
    <g opacity="0.2">
      <path d="M64,22.28H61.57c-1.34,0-2.43-1.8-2.43-4V16.85a4,4,0,0,0-4-4H42.74" fill="none" stroke="#666" stroke-miterlimit="10" stroke-width="0.5"/>
    </g>
    <g opacity="0.2">
      <path d="M83.36,50.56h2c1.13,0,2-1.8,2-4V12.13a4,4,0,0,1,4-4h12.38" fill="none" stroke="#666" stroke-miterlimit="10" stroke-width="0.5"/>
    </g>
    <g opacity="0.9">
      <path d="M83.36,36.42h2c1.13,0,2-1.8,2-4V12.13a4,4,0,0,1,4-4h12.38" fill="none" stroke="#666" stroke-miterlimit="10" stroke-width="0.5"/>
    </g>
    <g opacity="0.2">
      <path d="M83.36,22.28h2c1.13,0,2-1.8,2-4V12.13a4,4,0,0,1,4-4h12.38" fill="none" stroke="#666" stroke-miterlimit="10" stroke-width="0.5"/>
    </g>
    <g opacity="0.9">
      <path d="M116.48,51.35h-6.2a4,4,0,0,1-4-4V16.85a4,4,0,0,0-4-4h-13" fill="none" stroke="#666" stroke-miterlimit="10" stroke-width="0.5"/>
    </g>
    <g opacity="0.2">
      <path d="M116.48,37.21h-6.2a4,4,0,0,1-4-4V16.85a4,4,0,0,0-4-4h-13" fill="none" stroke="#666" stroke-miterlimit="10" stroke-width="0.5"/>
    </g>
    <g opacity="0.2">
      <path d="M116.48,22.67h-6.2a4,4,0,0,1-4-4V16.85a4,4,0,0,0-4-4h-13" fill="none" stroke="#666" stroke-miterlimit="10" stroke-width="0.5"/>
    </g>
    <g opacity="0.9">
      <path d="M116.17,50.17h-2.58c-1.42,0-2.58-1.8-2.58-4v-34a4,4,0,0,0-4-4H94.7" fill="none" stroke="#666" stroke-miterlimit="10" stroke-width="0.5"/>
    </g>
    <g opacity="0.2">
      <path d="M116.17,36h-2.58c-1.42,0-2.58-1.8-2.58-4V12.13a4,4,0,0,0-4-4H94.7" fill="none" stroke="#666" stroke-miterlimit="10" stroke-width="0.5"/>
    </g>
    <g opacity="0.2">
      <path d="M116.17,21.49h-2.58c-1.42,0-2.58-1.8-2.58-4V12.13a4,4,0,0,0-4-4H94.7" fill="none" stroke="#666" stroke-miterlimit="10" stroke-width="0.5"/>
    </g>
    <g opacity="0.9">
      <path d="M135.21,50.56h2c1.13,0,2-1.8,2-4V8.13" fill="none" stroke="#666" stroke-miterlimit="10" stroke-width="0.5"/>
    </g>
    <g opacity="0.2">
      <path d="M135.21,36.42h2c1.13,0,2-1.8,2-4V8.13" fill="none" stroke="#666" stroke-miterlimit="10" stroke-width="0.5"/>
    </g>
    <g opacity="0.2">
      <path d="M135.21,22.28h2c1.13,0,2-1.8,2-4V8.13" fill="none" stroke="#666" stroke-miterlimit="10" stroke-width="0.5"/>
    </g>
    <g opacity="0.9">
      <use width="50.5" height="27.5" transform="translate(12 45.85) scale(0.39)" xlink:href="#op-1"/>
    </g>
    <g opacity="0.2">
      <use width="50.5" height="27.5" transform="translate(12 31.71) scale(0.39)" xlink:href="#op-2"/>
    </g>
    <g opacity="0.4">
      <use width="50.5" height="27.5" transform="translate(12 17.56) scale(0.39)" xlink:href="#op-3"/>
    </g>
    <g opacity="0.2">
      <use width="50.5" height="27.5" transform="translate(63.86 45.85) scale(0.39)" xlink:href="#op-1"/>
    </g>
    <g opacity="0.9">
      <use id="op-2-5" data-name="op-2" width="50.5" height="27.5" transform="translate(63.86 31.71) scale(0.39)" xlink:href="#op-2"/>
    </g>
    <g opacity="0.2">
      <use width="50.5" height="27.5" transform="translate(63.86 17.56) scale(0.39)" xlink:href="#op-3"/>
    </g>
    <g opacity="0.9">
      <use width="50.5" height="27.5" transform="translate(115.71 45.85) scale(0.39)" xlink:href="#op-1"/>
    </g>
    <g opacity="0.2">
      <use width="50.5" height="27.5" transform="translate(115.71 31.71) scale(0.39)" xlink:href="#op-2"/>
    </g>
    <g opacity="0.2">
      <use width="50.5" height="27.5" transform="translate(115.71 17.56) scale(0.39)" xlink:href="#op-3"/>
    </g>
    <g>
      <line x1="21.43" y1="71.78" x2="21.43" y2="62.04" fill="none" stroke="#666" stroke-miterlimit="10"/>
      <path d="M21.43,58.42a18.13,18.13,0,0,0,2.85,5.13l-2.85-1-2.85,1A18.12,18.12,0,0,0,21.43,58.42Z" fill="#666"/>
    </g>
    <g>
      <line x1="73.29" y1="71.78" x2="73.29" y2="62.04" fill="none" stroke="#666" stroke-miterlimit="10"/>
      <path d="M73.29,58.42a18.13,18.13,0,0,0,2.85,5.13l-2.85-1-2.85,1A18.12,18.12,0,0,0,73.29,58.42Z" fill="#666"/>
    </g>
    <g>
      <line x1="125.14" y1="71.78" x2="125.14" y2="62.04" fill="none" stroke="#666" stroke-miterlimit="10"/>
      <path d="M125.14,58.42A18.13,18.13,0,0,0,128,63.55l-2.85-1-2.85,1A18.12,18.12,0,0,0,125.14,58.42Z" fill="#666"/>
    </g>
  </g>
</svg>
