<svg id="background" xmlns="http://www.w3.org/2000/svg" xmlns:xlink="http://www.w3.org/1999/xlink" viewBox="0 0 984 294">
  <defs>
    <symbol id="rnn-bg" data-name="rnn-bg" viewBox="0 0 49.5 49.5">
      <rect x="0.75" y="0.75" width="48" height="48" rx="6" ry="6" fill="#fff" fill-opacity="0.8" stroke="#666" stroke-width="1.5"/>
    </symbol>
    <symbol id="rnn-s" data-name="rnn-s" viewBox="0 0 49.5 49.5">
      <use id="rnn-bg-3" data-name="rnn-bg" width="49.5" height="49.5" xlink:href="#rnn-bg"/>
      <path d="M29.68,27.61a3.81,3.81,0,0,1-1.49,3.2,6.46,6.46,0,0,1-4,1.15,10.1,10.1,0,0,1-4.25-.71V29.51a11.16,11.16,0,0,0,2.08.64,10.92,10.92,0,0,0,2.23.23,4.49,4.49,0,0,0,2.72-.69,2.25,2.25,0,0,0,.92-1.91,2.45,2.45,0,0,0-.32-1.32,3,3,0,0,0-1.08-1,15.14,15.14,0,0,0-2.31-1A7.38,7.38,0,0,1,21,22.68a4.06,4.06,0,0,1-.93-2.77A3.45,3.45,0,0,1,21.45,17,5.61,5.61,0,0,1,25,16a10.54,10.54,0,0,1,4.26.85l-0.56,1.57A9.63,9.63,0,0,0,25,17.6a3.62,3.62,0,0,0-2.24.62,2,2,0,0,0-.81,1.71,2.62,2.62,0,0,0,.3,1.32,2.8,2.8,0,0,0,1,.95,12.47,12.47,0,0,0,2.16,1A8.56,8.56,0,0,1,28.76,25,3.68,3.68,0,0,1,29.68,27.61Z" fill="#5b5b5b"/>
    </symbol>
    <symbol id="op-bg" data-name="op-bg" viewBox="0 0 24 24">
      <circle cx="12" cy="12" r="11.25" fill="#e0cef5" stroke="#000" stroke-miterlimit="10" stroke-opacity="0.5" stroke-width="1.5"/>
    </symbol>
    <symbol id="op-sum_2" data-name="op-sum 2" viewBox="0 0 24 24">
      <use width="24" height="24" xlink:href="#op-bg"/>
      <path d="M9.88,9.08a1.77,1.77,0,0,1,.69-1.47,3,3,0,0,1,1.89-.54,4.84,4.84,0,0,1,1.87.38v1.1a5.22,5.22,0,0,0-1.88-.4,1.57,1.57,0,0,0-.93.25,0.78,0.78,0,0,0-.35.67q0,0.74,1.51,1.26a4.6,4.6,0,0,1,2.22,1.44A3.75,3.75,0,0,1,15.64,14v0.27a4.23,4.23,0,0,1-.4,1.87,3,3,0,0,1-1.15,1.28,3.29,3.29,0,0,1-1.74.45,3.08,3.08,0,0,1-2.42-1A3.86,3.86,0,0,1,9,14.22V14.13a3.42,3.42,0,0,1,.64-2A2.76,2.76,0,0,1,11.29,11v0a2.36,2.36,0,0,1-1-.75A1.76,1.76,0,0,1,9.88,9.08Zm0.42,5.2a3,3,0,0,0,.55,1.89,1.8,1.8,0,0,0,1.49.69,1.79,1.79,0,0,0,1.48-.69,3.23,3.23,0,0,0,.55-2,2.67,2.67,0,0,0-.58-1.67,2.35,2.35,0,0,0-1.43-.92,1.81,1.81,0,0,0-1.49.7A3.19,3.19,0,0,0,10.3,14.28Z" fill="#666"/>
    </symbol>
    <symbol id="op-sum" data-name="op-sum" viewBox="0 0 24 24">
      <use id="op-bg-5" data-name="op-bg" width="24" height="24" xlink:href="#op-bg"/>
      <path d="M7.88,12.5V11.18h3.41V7.75h1.34v3.43H16V12.5H12.62v3.42H11.29V12.5H7.88Z" fill="#666"/>
    </symbol>
  </defs>
  <title>rnn</title>
  <rect x="787" y="70" width="132" height="156" rx="10" ry="10" fill="#f0f0f5"/>
  <path d="M893,94.5H880.5a10,10,0,0,0-10,10v28a10,10,0,0,1-10,10h-1.83" fill="none" stroke="#8359b2" stroke-miterlimit="10" stroke-width="1.5"/>
  <g>
    <line x1="835" y1="238" x2="835" y2="175.43" fill="none" stroke="#666" stroke-miterlimit="10" stroke-width="1.5"/>
    <path d="M835,170a27.2,27.2,0,0,0,4.28,7.69L835,176.14l-4.28,1.55A27.18,27.18,0,0,0,835,170Z" fill="#666"/>
  </g>
  <g>
    <path d="M895,94.5h32a10.16,10.16,0,0,1,10.11,10l0.29,27.5a10.42,10.42,0,0,0,10.1,10.21l8.57,0.18" fill="none" stroke="#666" stroke-miterlimit="10" stroke-width="1.5"/>
    <path d="M961.5,142.5a27.2,27.2,0,0,0-7.78,4.12l1.64-4.25-1.46-4.31A27.18,27.18,0,0,0,961.5,142.5Z" fill="#666"/>
  </g>
  <g>
    <path d="M895,94.5h32a10,10,0,0,0,10-10V57.43" fill="none" stroke="#666" stroke-miterlimit="10" stroke-width="1.5"/>
    <path d="M937,52a27.2,27.2,0,0,0,4.28,7.69L937,58.14l-4.28,1.55A27.18,27.18,0,0,0,937,52Z" fill="#666"/>
  </g>
  <g id="_Group_" data-name="&lt;Group&gt;">
    <g opacity="0.1">
      <rect x="812" y="120" width="48" height="48" rx="6" ry="6" opacity="0.8"/>
      <rect x="812" y="120" width="48" height="48" rx="6" ry="6" fill="none" stroke="#000" stroke-width="1.5"/>
      <rect x="812" y="120" width="48" height="48" rx="6" ry="6" fill="none" stroke="#000" stroke-width="1.5"/>
      <rect x="812" y="120" width="48" height="48" rx="6" ry="6" fill="none" stroke="#000" stroke-width="1.5"/>
      <path d="M840.93,146.86a3.81,3.81,0,0,1-1.49,3.2,6.46,6.46,0,0,1-4,1.15,10.1,10.1,0,0,1-4.25-.71v-1.74a11.16,11.16,0,0,0,2.08.64,10.92,10.92,0,0,0,2.23.23,4.49,4.49,0,0,0,2.72-.69,2.25,2.25,0,0,0,.92-1.91,2.45,2.45,0,0,0-.32-1.32,3,3,0,0,0-1.08-1,15.14,15.14,0,0,0-2.31-1,7.38,7.38,0,0,1-3.1-1.84,4.06,4.06,0,0,1-.93-2.77,3.45,3.45,0,0,1,1.35-2.86,5.61,5.61,0,0,1,3.57-1.06,10.54,10.54,0,0,1,4.26.85L840,137.66a9.63,9.63,0,0,0-3.74-.81,3.62,3.62,0,0,0-2.24.62,2,2,0,0,0-.81,1.71,2.62,2.62,0,0,0,.3,1.32,2.8,2.8,0,0,0,1,.95,12.47,12.47,0,0,0,2.16,1,8.56,8.56,0,0,1,3.37,1.87A3.68,3.68,0,0,1,840.93,146.86Z"/>
    </g>
    <use width="49.5" height="49.5" transform="translate(810.25 117.25)" xlink:href="#rnn-s"/>
  </g>
  <g>
    <g opacity="0.1">
      <circle cx="836.75" cy="197.25" r="11.25"/>
      <circle cx="836.75" cy="197.25" r="11.25" fill="none" stroke="#000" stroke-miterlimit="10" stroke-width="1.5" opacity="0.5"/>
      <path d="M834.63,194.33a1.77,1.77,0,0,1,.69-1.47,3,3,0,0,1,1.89-.54,4.84,4.84,0,0,1,1.87.38v1.1a5.22,5.22,0,0,0-1.88-.4,1.57,1.57,0,0,0-.93.25,0.78,0.78,0,0,0-.35.67q0,0.74,1.51,1.26a4.6,4.6,0,0,1,2.22,1.44,3.75,3.75,0,0,1,.74,2.26v0.27a4.23,4.23,0,0,1-.4,1.87,3,3,0,0,1-1.15,1.28,3.29,3.29,0,0,1-1.74.45,3.08,3.08,0,0,1-2.42-1,3.86,3.86,0,0,1-.9-2.66v-0.09a3.42,3.42,0,0,1,.64-2,2.76,2.76,0,0,1,1.63-1.14v0a2.36,2.36,0,0,1-1-.75A1.76,1.76,0,0,1,834.63,194.33Zm0.42,5.2a3,3,0,0,0,.55,1.89,1.94,1.94,0,0,0,3,0,3.23,3.23,0,0,0,.55-2,2.67,2.67,0,0,0-.58-1.67,2.35,2.35,0,0,0-1.43-.92,1.81,1.81,0,0,0-1.49.7A3.19,3.19,0,0,0,835.05,199.53Z"/>
    </g>
    <use width="24" height="24" transform="translate(823.75 183.25)" xlink:href="#op-sum_2"/>
  </g>
  <g id="_Group_2" data-name="&lt;Group&gt;">
    <g opacity="0.1">
      <circle cx="894.75" cy="96.39" r="11.25"/>
      <circle cx="894.75" cy="96.39" r="11.25" fill="none" stroke="#000" stroke-miterlimit="10" stroke-width="1.5" opacity="0.5"/>
      <path d="M890.63,96.88V95.57H894V92.14h1.34v3.43h3.41v1.31h-3.41v3.42H894V96.88h-3.41Z"/>
    </g>
    <use width="24" height="24" transform="translate(881.75 82.39)" xlink:href="#op-sum"/>
  </g>
  <g opacity="0.6">
    <text transform="translate(60 22.88)" font-size="13" font-family="Open Sans">For every time step the RNN can <tspan x="0" y="20">do multiple computation steps.</tspan></text>
  </g>
  <g opacity="0.6">
    <text transform="translate(330.67 22.88)" font-size="13" font-family="Open Sans">The output is a weighted combination <tspan x="0" y="20">of the computation step outputs.</tspan></text>
  </g>
  <g opacity="0.6">
    <text transform="translate(634.67 22.88)" font-size="13" font-family="Open Sans">The process is repeated for <tspan x="0" y="20">each time step.</tspan></text>
  </g>
  <g id="_Group_3" data-name="&lt;Group&gt;">
    <rect x="463" y="70" width="275.67" height="156" rx="10" ry="10" fill="#f0f0f5"/>
  </g>
  <path d="M702.33,94h-74.5a10,10,0,0,0-10,10v28.5a10,10,0,0,1-10,10h-1.17" fill="none" stroke="#8359b2" stroke-miterlimit="10" stroke-width="1.5"/>
  <g opacity="0.4">
    <path d="M714.33,98h-14.5a10,10,0,0,0-10,10v24.5a10,10,0,0,1-10,10h-1.5" fill="none" stroke="#8359b2" stroke-miterlimit="10" stroke-width="1.5"/>
  </g>
  <g opacity="0.4">
    <path d="M534.33,142.5l2-.34a10.22,10.22,0,0,0,10-10.16V100.5a10.07,10.07,0,0,1,10-10l146-.47" fill="none" stroke="#8359b2" stroke-miterlimit="10" stroke-width="1.5"/>
  </g>
  <g>
    <line x1="510.33" y1="238" x2="510.33" y2="175.43" fill="none" stroke="#666" stroke-miterlimit="10" stroke-width="1.5"/>
    <path d="M510.33,170a27.2,27.2,0,0,0,4.28,7.69l-4.28-1.55-4.28,1.55A27.18,27.18,0,0,0,510.33,170Z" fill="#666"/>
  </g>
  <g>
    <path d="M510.33,238V224a10,10,0,0,1,10-10h51.5a10,10,0,0,0,10-10V175.43" fill="none" stroke="#666" stroke-miterlimit="10" stroke-width="1.5"/>
    <path d="M581.83,170a27.2,27.2,0,0,0,4.28,7.69l-4.28-1.55-4.28,1.55A27.18,27.18,0,0,0,581.83,170Z" fill="#666"/>
  </g>
  <g>
    <path d="M533.83,214h110.5a10,10,0,0,0,10-10V175.43" fill="none" stroke="#666" stroke-miterlimit="10" stroke-width="1.5"/>
    <path d="M654.33,170a27.2,27.2,0,0,0,4.28,7.69l-4.28-1.55-4.28,1.55A27.18,27.18,0,0,0,654.33,170Z" fill="#666"/>
  </g>
  <g>
    <line x1="534.33" y1="142.5" x2="550.9" y2="142.5" fill="none" stroke="#666" stroke-miterlimit="10" stroke-width="1.5"/>
    <path d="M556.33,142.5a27.2,27.2,0,0,0-7.69,4.28l1.55-4.28-1.55-4.28A27.17,27.17,0,0,0,556.33,142.5Z" fill="#666"/>
  </g>
  <g>
    <line x1="606.33" y1="142.5" x2="622.9" y2="142.5" fill="none" stroke="#666" stroke-miterlimit="10" stroke-width="1.5"/>
    <path d="M628.33,142.5a27.2,27.2,0,0,0-7.69,4.28l1.55-4.28-1.55-4.28A27.17,27.17,0,0,0,628.33,142.5Z" fill="#666"/>
  </g>
  <g>
    <path d="M714.33,94.5h32.5a9.9,9.9,0,0,1,9.9,10l-0.29,28a9.9,9.9,0,0,0,9.9,10H801.4" fill="none" stroke="#666" stroke-miterlimit="10" stroke-width="1.5"/>
    <path d="M806.83,142.5a27.2,27.2,0,0,0-7.69,4.28l1.55-4.28-1.55-4.28A27.17,27.17,0,0,0,806.83,142.5Z" fill="#666"/>
  </g>
  <g>
    <path d="M714.33,94.5h32.5a10,10,0,0,0,10-10V57.43" fill="none" stroke="#666" stroke-miterlimit="10" stroke-width="1.5"/>
    <path d="M756.83,52a27.2,27.2,0,0,0,4.28,7.69l-4.28-1.55-4.28,1.55A27.18,27.18,0,0,0,756.83,52Z" fill="#666"/>
  </g>
  <g>
    <g opacity="0.1">
      <circle cx="512.08" cy="197.25" r="11.25"/>
      <circle cx="512.08" cy="197.25" r="11.25" fill="none" stroke="#000" stroke-miterlimit="10" stroke-width="1.5" opacity="0.5"/>
      <path d="M510,194.33a1.77,1.77,0,0,1,.69-1.47,3,3,0,0,1,1.89-.54,4.84,4.84,0,0,1,1.87.38v1.1a5.22,5.22,0,0,0-1.88-.4,1.57,1.57,0,0,0-.93.25,0.78,0.78,0,0,0-.35.67q0,0.74,1.51,1.26A4.6,4.6,0,0,1,515,197a3.75,3.75,0,0,1,.74,2.26v0.27a4.23,4.23,0,0,1-.4,1.87,3,3,0,0,1-1.15,1.28,3.29,3.29,0,0,1-1.74.45,3.08,3.08,0,0,1-2.42-1,3.86,3.86,0,0,1-.9-2.66v-0.09a3.42,3.42,0,0,1,.64-2,2.76,2.76,0,0,1,1.63-1.14v0a2.36,2.36,0,0,1-1-.75A1.76,1.76,0,0,1,510,194.33Zm0.42,5.2a3,3,0,0,0,.55,1.89,1.94,1.94,0,0,0,3,0,3.23,3.23,0,0,0,.55-2,2.67,2.67,0,0,0-.58-1.67,2.35,2.35,0,0,0-1.43-.92,1.81,1.81,0,0,0-1.49.7A3.19,3.19,0,0,0,510.39,199.53Z"/>
    </g>
    <use width="24" height="24" transform="translate(499.08 183.25)" xlink:href="#op-sum_2"/>
  </g>
  <g id="_Group_4" data-name="&lt;Group&gt;">
    <g opacity="0.1">
      <rect x="487.33" y="120" width="48" height="48" rx="6" ry="6" opacity="0.8"/>
      <rect x="487.33" y="120" width="48" height="48" rx="6" ry="6" fill="none" stroke="#000" stroke-width="1.5"/>
      <rect x="487.33" y="120" width="48" height="48" rx="6" ry="6" fill="none" stroke="#000" stroke-width="1.5"/>
      <rect x="487.33" y="120" width="48" height="48" rx="6" ry="6" fill="none" stroke="#000" stroke-width="1.5"/>
      <path d="M516.27,146.86a3.81,3.81,0,0,1-1.49,3.2,6.46,6.46,0,0,1-4,1.15,10.1,10.1,0,0,1-4.25-.71v-1.74a11.16,11.16,0,0,0,2.08.64,10.92,10.92,0,0,0,2.23.23,4.49,4.49,0,0,0,2.72-.69,2.25,2.25,0,0,0,.92-1.91,2.45,2.45,0,0,0-.32-1.32,3,3,0,0,0-1.08-1,15.14,15.14,0,0,0-2.31-1,7.38,7.38,0,0,1-3.1-1.84,4.06,4.06,0,0,1-.93-2.77A3.45,3.45,0,0,1,508,136.3a5.61,5.61,0,0,1,3.57-1.06,10.54,10.54,0,0,1,4.26.85l-0.56,1.57a9.63,9.63,0,0,0-3.74-.81,3.62,3.62,0,0,0-2.24.62,2,2,0,0,0-.81,1.71,2.62,2.62,0,0,0,.3,1.32,2.8,2.8,0,0,0,1,.95,12.47,12.47,0,0,0,2.16,1,8.56,8.56,0,0,1,3.37,1.87A3.68,3.68,0,0,1,516.27,146.86Z"/>
    </g>
    <use width="49.5" height="49.5" transform="translate(485.58 117.25)" xlink:href="#rnn-s"/>
  </g>
  <g id="_Group_5" data-name="&lt;Group&gt;">
    <g opacity="0.1">
      <rect x="559.33" y="120" width="48" height="48" rx="6" ry="6" opacity="0.8"/>
      <rect x="559.33" y="120" width="48" height="48" rx="6" ry="6" fill="none" stroke="#000" stroke-width="1.5"/>
      <rect x="559.33" y="120" width="48" height="48" rx="6" ry="6" fill="none" stroke="#000" stroke-width="1.5"/>
      <rect x="559.33" y="120" width="48" height="48" rx="6" ry="6" fill="none" stroke="#000" stroke-width="1.5"/>
      <path d="M588.27,146.86a3.81,3.81,0,0,1-1.49,3.2,6.46,6.46,0,0,1-4,1.15,10.1,10.1,0,0,1-4.25-.71v-1.74a11.16,11.16,0,0,0,2.08.64,10.92,10.92,0,0,0,2.23.23,4.49,4.49,0,0,0,2.72-.69,2.25,2.25,0,0,0,.92-1.91,2.45,2.45,0,0,0-.32-1.32,3,3,0,0,0-1.08-1,15.14,15.14,0,0,0-2.31-1,7.38,7.38,0,0,1-3.1-1.84,4.06,4.06,0,0,1-.93-2.77A3.45,3.45,0,0,1,580,136.3a5.61,5.61,0,0,1,3.57-1.06,10.54,10.54,0,0,1,4.26.85l-0.56,1.57a9.63,9.63,0,0,0-3.74-.81,3.62,3.62,0,0,0-2.24.62,2,2,0,0,0-.81,1.71,2.62,2.62,0,0,0,.3,1.32,2.8,2.8,0,0,0,1,.95,12.47,12.47,0,0,0,2.16,1,8.56,8.56,0,0,1,3.37,1.87A3.68,3.68,0,0,1,588.27,146.86Z"/>
    </g>
    <use width="49.5" height="49.5" transform="translate(557.58 117.25)" xlink:href="#rnn-s"/>
  </g>
  <g id="_Group_6" data-name="&lt;Group&gt;">
    <g opacity="0.1">
      <rect x="631.33" y="120" width="48" height="48" rx="6" ry="6" opacity="0.8"/>
      <rect x="631.33" y="120" width="48" height="48" rx="6" ry="6" fill="none" stroke="#000" stroke-width="1.5"/>
      <rect x="631.33" y="120" width="48" height="48" rx="6" ry="6" fill="none" stroke="#000" stroke-width="1.5"/>
      <rect x="631.33" y="120" width="48" height="48" rx="6" ry="6" fill="none" stroke="#000" stroke-width="1.5"/>
      <path d="M660.27,146.86a3.81,3.81,0,0,1-1.49,3.2,6.46,6.46,0,0,1-4,1.15,10.1,10.1,0,0,1-4.25-.71v-1.74a11.16,11.16,0,0,0,2.08.64,10.92,10.92,0,0,0,2.23.23,4.49,4.49,0,0,0,2.72-.69,2.25,2.25,0,0,0,.92-1.91,2.45,2.45,0,0,0-.32-1.32,3,3,0,0,0-1.08-1,15.14,15.14,0,0,0-2.31-1,7.38,7.38,0,0,1-3.1-1.84,4.06,4.06,0,0,1-.93-2.77A3.45,3.45,0,0,1,652,136.3a5.61,5.61,0,0,1,3.57-1.06,10.54,10.54,0,0,1,4.26.85l-0.56,1.57a9.63,9.63,0,0,0-3.74-.81,3.62,3.62,0,0,0-2.24.62,2,2,0,0,0-.81,1.71,2.62,2.62,0,0,0,.3,1.32,2.8,2.8,0,0,0,1,.95,12.47,12.47,0,0,0,2.16,1,8.56,8.56,0,0,1,3.37,1.87A3.68,3.68,0,0,1,660.27,146.86Z"/>
    </g>
    <use width="49.5" height="49.5" transform="translate(629.58 117.25)" xlink:href="#rnn-s"/>
  </g>
  <g id="_Group_7" data-name="&lt;Group&gt;">
    <g opacity="0.1">
      <circle cx="714.58" cy="96.39" r="11.25"/>
      <circle cx="714.58" cy="96.39" r="11.25" fill="none" stroke="#000" stroke-miterlimit="10" stroke-width="1.5" opacity="0.5"/>
      <path d="M710.46,96.88V95.57h3.41V92.14h1.34v3.43h3.41v1.31h-3.41v3.42h-1.34V96.88h-3.41Z"/>
    </g>
    <use width="24" height="24" transform="translate(701.58 82.39)" xlink:href="#op-sum"/>
  </g>
  <g id="_Group_8" data-name="&lt;Group&gt;">
    <rect x="61" y="70" width="348" height="156" rx="10" ry="10" fill="#f0f0f5"/>
  </g>
  <g opacity="0.2">
    <path d="M132.67,142.5h1.83a10,10,0,0,0,10-10v-34a10,10,0,0,1,10-10H384" fill="none" stroke="#8359b2" stroke-miterlimit="10" stroke-width="1.5"/>
  </g>
  <g opacity="0.5">
    <path d="M205,142.5h1.5a10,10,0,0,0,10-10v-30a10,10,0,0,1,10-10H384" fill="none" stroke="#8359b2" stroke-miterlimit="10" stroke-width="1.5"/>
  </g>
  <path d="M384,96.5H298.5a10,10,0,0,0-10,10v26a10,10,0,0,1-10,10h-1.17" fill="none" stroke="#8359b2" stroke-miterlimit="10" stroke-width="1.5"/>
  <g opacity="0.2">
    <path d="M384,100.5H370.5a10,10,0,0,0-10,10v22a10,10,0,0,1-10,10h-1.17" fill="none" stroke="#8359b2" stroke-miterlimit="10" stroke-width="1.5"/>
  </g>
  <g>
    <line x1="109" y1="238" x2="109" y2="175.43" fill="none" stroke="#666" stroke-miterlimit="10" stroke-width="1.5"/>
    <path d="M109,170a27.2,27.2,0,0,0,4.28,7.69L109,176.14l-4.28,1.55A27.18,27.18,0,0,0,109,170Z" fill="#666"/>
  </g>
  <g>
    <path d="M133,214H243.5a10,10,0,0,0,10-10V175.43" fill="none" stroke="#666" stroke-miterlimit="10" stroke-width="1.5"/>
    <path d="M253.5,170a27.2,27.2,0,0,0,4.28,7.69l-4.28-1.55-4.28,1.55A27.18,27.18,0,0,0,253.5,170Z" fill="#666"/>
  </g>
  <g>
    <path d="M109,238V224a10,10,0,0,1,10-10H315.5a10,10,0,0,0,10-10V175.43" fill="none" stroke="#666" stroke-miterlimit="10" stroke-width="1.5"/>
    <path d="M325.5,170a27.2,27.2,0,0,0,4.28,7.69l-4.28-1.55-4.28,1.55A27.18,27.18,0,0,0,325.5,170Z" fill="#666"/>
  </g>
  <g>
    <line x1="133" y1="142.5" x2="149.57" y2="142.5" fill="none" stroke="#666" stroke-miterlimit="10" stroke-width="1.5"/>
    <path d="M155,142.5a27.2,27.2,0,0,0-7.69,4.28l1.55-4.28-1.55-4.28A27.18,27.18,0,0,0,155,142.5Z" fill="#666"/>
  </g>
  <g>
    <line x1="205" y1="142.5" x2="221.57" y2="142.5" fill="none" stroke="#666" stroke-miterlimit="10" stroke-width="1.5"/>
    <path d="M227,142.5a27.2,27.2,0,0,0-7.69,4.28l1.55-4.28-1.55-4.28A27.18,27.18,0,0,0,227,142.5Z" fill="#666"/>
  </g>
  <g>
    <line x1="277" y1="142.5" x2="293.57" y2="142.5" fill="none" stroke="#666" stroke-miterlimit="10" stroke-width="1.5"/>
    <path d="M299,142.5a27.2,27.2,0,0,0-7.69,4.28l1.55-4.28-1.55-4.28A27.18,27.18,0,0,0,299,142.5Z" fill="#666"/>
  </g>
  <g>
    <path d="M385,94.5h32.5a9.9,9.9,0,0,1,9.9,10l-0.29,28a9.9,9.9,0,0,0,9.9,10h36.74" fill="none" stroke="#666" stroke-miterlimit="10" stroke-width="1.5"/>
    <path d="M479.17,142.5a27.2,27.2,0,0,0-7.69,4.28L473,142.5l-1.55-4.28A27.18,27.18,0,0,0,479.17,142.5Z" fill="#666"/>
  </g>
  <g>
    <path d="M382,94.5h35.5a10,10,0,0,0,10-10V57.43" fill="none" stroke="#666" stroke-miterlimit="10" stroke-width="1.5"/>
    <path d="M427.5,52a27.2,27.2,0,0,0,4.28,7.69l-4.28-1.55-4.28,1.55A27.18,27.18,0,0,0,427.5,52Z" fill="#666"/>
  </g>
  <g>
    <path d="M133,214h38.5a10,10,0,0,0,10-10V175.43" fill="none" stroke="#666" stroke-miterlimit="10" stroke-width="1.5"/>
    <path d="M181.5,170a27.2,27.2,0,0,0,4.28,7.69l-4.28-1.55-4.28,1.55A27.18,27.18,0,0,0,181.5,170Z" fill="#666"/>
  </g>
  <g id="_Group_9" data-name="&lt;Group&gt;">
    <g opacity="0.1">
      <rect x="86" y="120" width="48" height="48" rx="6" ry="6" opacity="0.8"/>
      <rect x="86" y="120" width="48" height="48" rx="6" ry="6" fill="none" stroke="#000" stroke-width="1.5"/>
      <rect x="86" y="120" width="48" height="48" rx="6" ry="6" fill="none" stroke="#000" stroke-width="1.5"/>
      <rect x="86" y="120" width="48" height="48" rx="6" ry="6" fill="none" stroke="#000" stroke-width="1.5"/>
      <path d="M114.93,146.86a3.81,3.81,0,0,1-1.49,3.2,6.46,6.46,0,0,1-4,1.15,10.1,10.1,0,0,1-4.25-.71v-1.74a11.16,11.16,0,0,0,2.08.64,10.92,10.92,0,0,0,2.23.23,4.49,4.49,0,0,0,2.72-.69,2.25,2.25,0,0,0,.92-1.91,2.45,2.45,0,0,0-.32-1.32,3,3,0,0,0-1.08-1,15.14,15.14,0,0,0-2.31-1,7.38,7.38,0,0,1-3.1-1.84,4.06,4.06,0,0,1-.93-2.77,3.45,3.45,0,0,1,1.35-2.86,5.61,5.61,0,0,1,3.57-1.06,10.54,10.54,0,0,1,4.26.85L114,137.66a9.63,9.63,0,0,0-3.74-.81,3.62,3.62,0,0,0-2.24.62,2,2,0,0,0-.81,1.71,2.62,2.62,0,0,0,.3,1.32,2.8,2.8,0,0,0,1,.95,12.47,12.47,0,0,0,2.16,1,8.56,8.56,0,0,1,3.37,1.87A3.68,3.68,0,0,1,114.93,146.86Z"/>
    </g>
    <use width="49.5" height="49.5" transform="translate(84.25 117.25)" xlink:href="#rnn-s"/>
  </g>
  <g id="_Group_10" data-name="&lt;Group&gt;">
    <g opacity="0.1">
      <rect x="158" y="120" width="48" height="48" rx="6" ry="6" opacity="0.8"/>
      <rect x="158" y="120" width="48" height="48" rx="6" ry="6" fill="none" stroke="#000" stroke-width="1.5"/>
      <rect x="158" y="120" width="48" height="48" rx="6" ry="6" fill="none" stroke="#000" stroke-width="1.5"/>
      <rect x="158" y="120" width="48" height="48" rx="6" ry="6" fill="none" stroke="#000" stroke-width="1.5"/>
      <path d="M186.93,146.86a3.81,3.81,0,0,1-1.49,3.2,6.46,6.46,0,0,1-4,1.15,10.1,10.1,0,0,1-4.25-.71v-1.74a11.16,11.16,0,0,0,2.08.64,10.92,10.92,0,0,0,2.23.23,4.49,4.49,0,0,0,2.72-.69,2.25,2.25,0,0,0,.92-1.91,2.45,2.45,0,0,0-.32-1.32,3,3,0,0,0-1.08-1,15.14,15.14,0,0,0-2.31-1,7.38,7.38,0,0,1-3.1-1.84,4.06,4.06,0,0,1-.93-2.77,3.45,3.45,0,0,1,1.35-2.86,5.61,5.61,0,0,1,3.57-1.06,10.54,10.54,0,0,1,4.26.85L186,137.66a9.63,9.63,0,0,0-3.74-.81,3.62,3.62,0,0,0-2.24.62,2,2,0,0,0-.81,1.71,2.62,2.62,0,0,0,.3,1.32,2.8,2.8,0,0,0,1,.95,12.47,12.47,0,0,0,2.16,1,8.56,8.56,0,0,1,3.37,1.87A3.68,3.68,0,0,1,186.93,146.86Z"/>
    </g>
    <use width="49.5" height="49.5" transform="translate(156.25 117.25)" xlink:href="#rnn-s"/>
  </g>
  <g id="_Group_11" data-name="&lt;Group&gt;">
    <g opacity="0.1">
      <rect x="230" y="120" width="48" height="48" rx="6" ry="6" opacity="0.8"/>
      <rect x="230" y="120" width="48" height="48" rx="6" ry="6" fill="none" stroke="#000" stroke-width="1.5"/>
      <rect x="230" y="120" width="48" height="48" rx="6" ry="6" fill="none" stroke="#000" stroke-width="1.5"/>
      <rect x="230" y="120" width="48" height="48" rx="6" ry="6" fill="none" stroke="#000" stroke-width="1.5"/>
      <path d="M258.93,146.86a3.81,3.81,0,0,1-1.49,3.2,6.46,6.46,0,0,1-4,1.15,10.1,10.1,0,0,1-4.25-.71v-1.74a11.16,11.16,0,0,0,2.08.64,10.92,10.92,0,0,0,2.23.23,4.49,4.49,0,0,0,2.72-.69,2.25,2.25,0,0,0,.92-1.91,2.45,2.45,0,0,0-.32-1.32,3,3,0,0,0-1.08-1,15.14,15.14,0,0,0-2.31-1,7.38,7.38,0,0,1-3.1-1.84,4.06,4.06,0,0,1-.93-2.77,3.45,3.45,0,0,1,1.35-2.86,5.61,5.61,0,0,1,3.57-1.06,10.54,10.54,0,0,1,4.26.85L258,137.66a9.63,9.63,0,0,0-3.74-.81,3.62,3.62,0,0,0-2.24.62,2,2,0,0,0-.81,1.71,2.62,2.62,0,0,0,.3,1.32,2.8,2.8,0,0,0,1,.95,12.47,12.47,0,0,0,2.16,1,8.56,8.56,0,0,1,3.37,1.87A3.68,3.68,0,0,1,258.93,146.86Z"/>
    </g>
    <use width="49.5" height="49.5" transform="translate(228.25 117.25)" xlink:href="#rnn-s"/>
  </g>
  <g id="_Group_12" data-name="&lt;Group&gt;">
    <g opacity="0.1">
      <rect x="302" y="120" width="48" height="48" rx="6" ry="6" opacity="0.8"/>
      <rect x="302" y="120" width="48" height="48" rx="6" ry="6" fill="none" stroke="#000" stroke-width="1.5"/>
      <rect x="302" y="120" width="48" height="48" rx="6" ry="6" fill="none" stroke="#000" stroke-width="1.5"/>
      <rect x="302" y="120" width="48" height="48" rx="6" ry="6" fill="none" stroke="#000" stroke-width="1.5"/>
      <path d="M330.93,146.86a3.81,3.81,0,0,1-1.49,3.2,6.46,6.46,0,0,1-4,1.15,10.1,10.1,0,0,1-4.25-.71v-1.74a11.16,11.16,0,0,0,2.08.64,10.92,10.92,0,0,0,2.23.23,4.49,4.49,0,0,0,2.72-.69,2.25,2.25,0,0,0,.92-1.91,2.45,2.45,0,0,0-.32-1.32,3,3,0,0,0-1.08-1,15.14,15.14,0,0,0-2.31-1,7.38,7.38,0,0,1-3.1-1.84,4.06,4.06,0,0,1-.93-2.77,3.45,3.45,0,0,1,1.35-2.86,5.61,5.61,0,0,1,3.57-1.06,10.54,10.54,0,0,1,4.26.85L330,137.66a9.63,9.63,0,0,0-3.74-.81,3.62,3.62,0,0,0-2.24.62,2,2,0,0,0-.81,1.71,2.62,2.62,0,0,0,.3,1.32,2.8,2.8,0,0,0,1,.95,12.47,12.47,0,0,0,2.16,1,8.56,8.56,0,0,1,3.37,1.87A3.68,3.68,0,0,1,330.93,146.86Z"/>
    </g>
    <use width="49.5" height="49.5" transform="translate(300.25 117.25)" xlink:href="#rnn-s"/>
  </g>
  <g id="_Group_13" data-name="&lt;Group&gt;">
    <g opacity="0.1">
      <circle cx="110.75" cy="197.25" r="11.25"/>
      <circle cx="110.75" cy="197.25" r="11.25" fill="none" stroke="#000" stroke-miterlimit="10" stroke-width="1.5" opacity="0.5"/>
      <path d="M108.63,194.33a1.77,1.77,0,0,1,.69-1.47,3,3,0,0,1,1.89-.54,4.84,4.84,0,0,1,1.87.38v1.1a5.22,5.22,0,0,0-1.88-.4,1.57,1.57,0,0,0-.93.25,0.78,0.78,0,0,0-.35.67q0,0.74,1.51,1.26a4.6,4.6,0,0,1,2.22,1.44,3.75,3.75,0,0,1,.74,2.26v0.27a4.23,4.23,0,0,1-.4,1.87,3,3,0,0,1-1.15,1.28,3.29,3.29,0,0,1-1.74.45,3.08,3.08,0,0,1-2.42-1,3.86,3.86,0,0,1-.9-2.66v-0.09a3.42,3.42,0,0,1,.64-2,2.76,2.76,0,0,1,1.63-1.14v0a2.36,2.36,0,0,1-1-.75A1.76,1.76,0,0,1,108.63,194.33Zm0.42,5.2a3,3,0,0,0,.55,1.89,1.94,1.94,0,0,0,3,0,3.23,3.23,0,0,0,.55-2,2.67,2.67,0,0,0-.58-1.67,2.35,2.35,0,0,0-1.43-.92,1.81,1.81,0,0,0-1.49.7A3.19,3.19,0,0,0,109.05,199.53Z"/>
    </g>
    <use width="24" height="24" transform="translate(97.75 183.25)" xlink:href="#op-sum_2"/>
  </g>
  <g id="_Group_14" data-name="&lt;Group&gt;">
    <g opacity="0.1">
      <circle cx="384.75" cy="96.39" r="11.25"/>
      <circle cx="384.75" cy="96.39" r="11.25" fill="none" stroke="#000" stroke-miterlimit="10" stroke-width="1.5" opacity="0.5"/>
      <path d="M380.63,96.88V95.57H384V92.14h1.34v3.43h3.41v1.31h-3.41v3.42H384V96.88h-3.41Z"/>
    </g>
    <use width="24" height="24" transform="translate(371.75 82.39)" xlink:href="#op-sum"/>
  </g>
  <g opacity="0.6">
    <text transform="translate(61 258.14)" font-size="13" font-family="Open Sans">A special bit is set to denote <tspan x="0" y="20">the first computation step.</tspan></text>
  </g>
  <g opacity="0.6">
    <g>
      <line x1="103" y1="55" x2="103" y2="56" fill="none" stroke="#000" stroke-miterlimit="10" stroke-width="0.5"/>
      <line x1="103" y1="58.03" x2="103" y2="117.98" fill="none" stroke="#000" stroke-miterlimit="10" stroke-width="0.5" stroke-dasharray="2.03 2.03"/>
      <line x1="103" y1="119" x2="103" y2="120" fill="none" stroke="#000" stroke-miterlimit="10" stroke-width="0.5"/>
    </g>
  </g>
  <g opacity="0.6">
    <g>
      <line x1="100" y1="202" x2="99.29" y2="202.71" fill="none" stroke="#000" stroke-miterlimit="10" stroke-width="0.5"/>
      <line x1="97.79" y1="204.21" x2="80.46" y2="221.54" fill="none" stroke="#000" stroke-miterlimit="10" stroke-width="0.5" stroke-dasharray="2.13 2.13"/>
      <polyline points="79.71 222.29 79 223 79 224" fill="none" stroke="#000" stroke-miterlimit="10" stroke-width="0.5"/>
      <line x1="79" y1="225.78" x2="79" y2="239.11" fill="none" stroke="#000" stroke-miterlimit="10" stroke-width="0.5" stroke-dasharray="1.78 1.78"/>
      <line x1="79" y1="240" x2="79" y2="241" fill="none" stroke="#000" stroke-miterlimit="10" stroke-width="0.5"/>
    </g>
  </g>
  <g opacity="0.6">
    <g>
      <line x1="383" y1="55" x2="383" y2="56" fill="none" stroke="#000" stroke-miterlimit="10" stroke-width="0.5"/>
      <line x1="383" y1="58" x2="383" y2="77" fill="none" stroke="#000" stroke-miterlimit="10" stroke-width="0.5" stroke-dasharray="2 2"/>
      <line x1="383" y1="78" x2="383" y2="79" fill="none" stroke="#000" stroke-miterlimit="10" stroke-width="0.5"/>
    </g>
  </g>
  <g opacity="0.6">
    <g>
      <line x1="642" y1="55" x2="642" y2="56" fill="none" stroke="#000" stroke-miterlimit="10" stroke-width="0.5"/>
      <line x1="642" y1="58" x2="642" y2="73" fill="none" stroke="#000" stroke-miterlimit="10" stroke-width="0.5" stroke-dasharray="2 2"/>
      <line x1="642" y1="74" x2="642" y2="75" fill="none" stroke="#000" stroke-miterlimit="10" stroke-width="0.5"/>
    </g>
  </g>
</svg>
