<svg id="text" xmlns="http://www.w3.org/2000/svg" xmlns:xlink="http://www.w3.org/1999/xlink" viewBox="0 0 144 108">
  <defs>
    <symbol id="rnn-bg" data-name="rnn-bg" viewBox="0 0 49.5 49.5">
      <rect x="0.75" y="0.75" width="48" height="48" rx="6" ry="6" fill="#fff" fill-opacity="0.8" stroke="#666" stroke-width="1.5"/>
    </symbol>
    <symbol id="rnn-a" data-name="rnn-a" viewBox="0 0 49.5 49.5">
      <use id="rnn-bg-3" data-name="rnn-bg" width="49.5" height="49.5" xlink:href="#rnn-bg"/>
      <path d="M29.77,31.75l-1.93-4.94H21.6l-1.91,4.94H17.86L24,16.14h1.52l6.11,15.61H29.77Zm-2.5-6.57-1.81-4.82q-0.35-.91-0.72-2.24a20.34,20.34,0,0,1-.67,2.24l-1.83,4.82h5Z" fill="#666"/>
    </symbol>
    <symbol id="rnn-b" data-name="rnn-b" viewBox="0 0 49.5 49.5">
      <use id="rnn-bg-12" data-name="rnn-bg" width="49.5" height="49.5" xlink:href="#rnn-bg"/>
      <path d="M19.83,16.21h4.39a8.29,8.29,0,0,1,4.48.92,3.27,3.27,0,0,1,1.38,2.92,3.38,3.38,0,0,1-.77,2.28,3.72,3.72,0,0,1-2.25,1.16v0.11q3.54,0.6,3.54,3.72a4,4,0,0,1-1.41,3.25,6,6,0,0,1-3.94,1.17H19.83V16.21Zm1.81,6.66h3a4.85,4.85,0,0,0,2.75-.6,2.32,2.32,0,0,0,.84-2,2,2,0,0,0-.94-1.89,5.84,5.84,0,0,0-3-.58H21.64v5.09Zm0,1.53v5.82h3.24a4.62,4.62,0,0,0,2.83-.73,2.69,2.69,0,0,0,1-2.28,2.42,2.42,0,0,0-1-2.13,5.2,5.2,0,0,0-3-.68H21.64Z" fill="#666"/>
    </symbol>
  </defs>
  <title>rnn</title>
  <g>
    <g id="_Group_" data-name="&lt;Group&gt;">
      <rect x="-0.01" y="68.04" width="144.02" height="39.19" rx="5" ry="5" fill="#f0f0f5"/>
      <g opacity="0.1">
        <rect x="-0.01" y="68.04" width="144.02" height="39.19" rx="5" ry="5" fill="none" stroke="#667780"/>
      </g>
    </g>
    <use id="rnn-a-3" data-name="rnn-a" width="49.5" height="49.5" transform="translate(6.62 74.17) scale(0.54)" xlink:href="#rnn-a"/>
    <use width="49.5" height="49.5" transform="translate(59.97 74.17) scale(0.54)" xlink:href="#rnn-a"/>
    <use id="rnn-a-8" data-name="rnn-a" width="49.5" height="49.5" transform="translate(111.4 74.17) scale(0.54)" xlink:href="#rnn-a"/>
    <g>
      <line x1="33.16" y1="87.91" x2="53.7" y2="87.91" fill="none" stroke="#666" stroke-miterlimit="10"/>
      <path d="M57.32,87.91a18.13,18.13,0,0,0-5.13,2.85l1-2.85-1-2.85A18.12,18.12,0,0,0,57.32,87.91Z" fill="#666"/>
    </g>
    <g>
      <line x1="86.09" y1="87.91" x2="105.65" y2="87.91" fill="none" stroke="#666" stroke-miterlimit="10"/>
      <path d="M109.27,87.91a18.13,18.13,0,0,0-5.13,2.85l1-2.85-1-2.85A18.12,18.12,0,0,0,109.27,87.91Z" fill="#666"/>
    </g>
  </g>
  <g id="_Group_2" data-name="&lt;Group&gt;">
    <rect x="-0.01" y="-0.01" width="144.02" height="39.19" rx="5" ry="5" fill="#f0f0f5"/>
    <g opacity="0.1">
      <rect x="-0.01" y="-0.01" width="144.02" height="39.19" rx="5" ry="5" fill="none" stroke="#667780"/>
    </g>
  </g>
  <use id="rnn-b-3" data-name="rnn-b" width="49.5" height="49.5" transform="translate(6.08 5.62) scale(0.54)" xlink:href="#rnn-b"/>
  <use id="rnn-b-6" data-name="rnn-b" width="49.5" height="49.5" transform="translate(58.59 5.62) scale(0.54)" xlink:href="#rnn-b"/>
  <use id="rnn-b-9" data-name="rnn-b" width="49.5" height="49.5" transform="translate(111.09 5.62) scale(0.54)" xlink:href="#rnn-b"/>
  <g>
    <line x1="33.16" y1="19.86" x2="51.74" y2="19.86" fill="none" stroke="#666" stroke-miterlimit="10"/>
    <path d="M55.36,19.86a18.13,18.13,0,0,0-5.13,2.85l1-2.85-1-2.85A18.12,18.12,0,0,0,55.36,19.86Z" fill="#666"/>
  </g>
  <g>
    <line x1="86.09" y1="19.86" x2="105.65" y2="19.86" fill="none" stroke="#666" stroke-miterlimit="10"/>
    <path d="M109.27,19.86a18.13,18.13,0,0,0-5.13,2.85l1-2.85-1-2.85A18.12,18.12,0,0,0,109.27,19.86Z" fill="#666"/>
  </g>
  <g id="paths">
    <path id="edge0" d="M125.5,74V66.49C125.5,43,75.68,62,75.68,31.8" fill="none" stroke="#8359b2" stroke-miterlimit="10" stroke-width="1.5" opacity="0.5"/>
    <path id="edge3" d="M72.75,74V31.5" fill="none" stroke="#8359b2" stroke-miterlimit="10" stroke-width="1.5"/>
    <path id="edge6" d="M20,74V66.49C20,43,69.82,61,69.82,31.8" fill="none" stroke="#8359b2" stroke-miterlimit="10" stroke-width="1.5" opacity="0.5"/>
  </g>
</svg>
