<svg id="text" xmlns="http://www.w3.org/2000/svg" xmlns:xlink="http://www.w3.org/1999/xlink" viewBox="0 0 144 108">
  <defs>
    <symbol id="rnn-bg" data-name="rnn-bg" viewBox="0 0 49.5 49.5">
      <rect x="0.75" y="0.75" width="48" height="48" rx="6" ry="6" fill="#fff" fill-opacity="0.8" stroke="#666" stroke-width="1.5"/>
    </symbol>
    <symbol id="rnn-s" data-name="rnn-s" viewBox="0 0 49.5 49.5">
      <use id="rnn-bg-3" data-name="rnn-bg" width="49.5" height="49.5" xlink:href="#rnn-bg"/>
      <path d="M29.68,27.61a3.81,3.81,0,0,1-1.49,3.2,6.46,6.46,0,0,1-4,1.15,10.1,10.1,0,0,1-4.25-.71V29.51a11.16,11.16,0,0,0,2.08.64,10.92,10.92,0,0,0,2.23.23,4.49,4.49,0,0,0,2.72-.69,2.25,2.25,0,0,0,.92-1.91,2.45,2.45,0,0,0-.32-1.32,3,3,0,0,0-1.08-1,15.14,15.14,0,0,0-2.31-1A7.38,7.38,0,0,1,21,22.68a4.06,4.06,0,0,1-.93-2.77A3.45,3.45,0,0,1,21.45,17,5.61,5.61,0,0,1,25,16a10.54,10.54,0,0,1,4.26.85l-0.56,1.57A9.63,9.63,0,0,0,25,17.6a3.62,3.62,0,0,0-2.24.62,2,2,0,0,0-.81,1.71,2.62,2.62,0,0,0,.3,1.32,2.8,2.8,0,0,0,1,.95,12.47,12.47,0,0,0,2.16,1A8.56,8.56,0,0,1,28.76,25,3.68,3.68,0,0,1,29.68,27.61Z" fill="#5b5b5b"/>
    </symbol>
  </defs>
  <title>rnn</title>
  <g>
    <g id="_Group_" data-name="&lt;Group&gt;">
      <rect x="0.4" y="37" width="88.31" height="33.08" rx="5" ry="5" fill="#f0f0f5"/>
      <g opacity="0.1">
        <rect x="0.4" y="37" width="88.31" height="33.08" rx="5" ry="5" fill="none" stroke="#667780"/>
      </g>
    </g>
    <g>
      <line x1="28.51" y1="53.77" x2="52.95" y2="53.77" fill="none" stroke="#666" stroke-miterlimit="10"/>
      <path d="M56.57,53.77a18.13,18.13,0,0,0-5.13,2.85l1-2.85-1-2.85A18.12,18.12,0,0,0,56.57,53.77Z" fill="#666"/>
    </g>
    <use id="rnn-s-3" data-name="rnn-s" width="49.5" height="49.5" transform="translate(6.43 42.05) scale(0.46)" xlink:href="#rnn-s"/>
    <use id="rnn-s-6" data-name="rnn-s" width="49.5" height="49.5" transform="translate(60.71 42.05) scale(0.46)" xlink:href="#rnn-s"/>
  </g>
  <g>
    <g id="_Group_2" data-name="&lt;Group&gt;">
      <rect x="0.6" y="74.92" width="143.4" height="33.08" rx="5" ry="5" fill="#f0f0f5"/>
      <g opacity="0.1">
        <rect x="0.6" y="74.92" width="143.4" height="33.08" rx="5" ry="5" fill="none" stroke="#667780"/>
      </g>
    </g>
    <g>
      <line x1="28.51" y1="91.69" x2="52.95" y2="91.69" fill="none" stroke="#666" stroke-miterlimit="10"/>
      <path d="M56.57,91.69a18.13,18.13,0,0,0-5.13,2.85l1-2.85-1-2.85A18.12,18.12,0,0,0,56.57,91.69Z" fill="#666"/>
    </g>
    <g>
      <line x1="84.59" y1="91.69" x2="109.41" y2="91.69" fill="none" stroke="#666" stroke-miterlimit="10"/>
      <path d="M113,91.69a18.13,18.13,0,0,0-5.13,2.85l1-2.85-1-2.85A18.12,18.12,0,0,0,113,91.69Z" fill="#666"/>
    </g>
    <use id="rnn-s-9" data-name="rnn-s" width="49.5" height="49.5" transform="translate(6.43 79.96) scale(0.46)" xlink:href="#rnn-s"/>
    <use id="rnn-s-12" data-name="rnn-s" width="49.5" height="49.5" transform="translate(61.39 79.96) scale(0.46)" xlink:href="#rnn-s"/>
    <use id="rnn-s-15" data-name="rnn-s" width="49.5" height="49.5" transform="translate(116.34 79.96) scale(0.46)" xlink:href="#rnn-s"/>
  </g>
  <g>
    <g id="_Group_3" data-name="&lt;Group&gt;">
      <rect x="0.16" width="35.61" height="33.08" rx="5" ry="5" fill="#f0f0f5"/>
      <g opacity="0.1">
        <rect x="0.16" width="35.61" height="33.08" rx="5" ry="5" fill="none" stroke="#667780"/>
      </g>
    </g>
    <use id="rnn-s-18" data-name="rnn-s" width="49.5" height="49.5" transform="translate(6.43 5.05) scale(0.46)" xlink:href="#rnn-s"/>
  </g>
</svg>
