<?xml version="1.0" encoding="utf-8"?>
<!-- Generator: Adobe Illustrator 19.1.0, SVG Export Plug-In . SVG Version: 6.00 Build 0)  -->
<svg version="1.1" id="Layer_1" xmlns="http://www.w3.org/2000/svg" xmlns:xlink="http://www.w3.org/1999/xlink" x="0px" y="0px"
	 viewBox="-324 377 550 811" style="enable-background:new -324 377 550 811;" xml:space="preserve">
<style type="text/css">
	.st0{fill:#FFFFFF;}
	.st1{fill:none;stroke:#919191;stroke-miterlimit:10;}
	.st2{fill:none;stroke:#919191;stroke-miterlimit:10;stroke-dasharray:1.9974,1.9974;}
	.st3{fill:none;stroke:#000000;stroke-miterlimit:10;}
	.st4{fill:#FFFFFF;stroke:#808080;stroke-miterlimit:10;}
	.st5{opacity:0.5;fill:#FFFFFF;stroke:#808080;stroke-miterlimit:10;}
	.st6{opacity:0.2;fill:#0080F7;}
	.st7{opacity:0.8;fill:#0080F7;}
	.st8{opacity:0.1;fill:#0080F7;}
	.st9{opacity:0.4;fill:#0080F7;}
	.st10{opacity:0.1;fill:#CE00F7;}
	.st11{opacity:0.5;fill:#0080F7;}
	.st12{opacity:0.2;fill:#CE00F7;}
	.st13{fill:#0080F7;}
	.st14{opacity:0.3;fill:#0080F7;}
	.st15{opacity:0.25;fill:#0080F7;}
	.st16{fill:#717171;}
	.st17{font-family:'Helvetica';}
	.st18{font-size:11px;}
	.st19{fill:none;}
	.st20{font-family:'Helvetica-LightOblique';}
	.st21{fill:#FFFFFF;stroke:#C4C4C4;stroke-miterlimit:10;}
	.st22{opacity:0.5;}
	.st23{opacity:0.5;fill:#FFFFFF;stroke:#000000;stroke-miterlimit:10;}
	.st24{opacity:0.7;fill:#0080F7;}
	.st25{font-family:'Helvetica-Bold';}
	.st26{fill:url(#SVGID_1_);}
	.st27{fill:#596673;}
</style>
<g>
	<line class="st0" x1="72" y1="379" x2="72" y2="1150"/>
	<g>
		<line class="st1" x1="72" y1="379" x2="72" y2="380"/>
		<line class="st2" x1="72" y1="382" x2="72" y2="1148"/>
		<line class="st1" x1="72" y1="1149" x2="72" y2="1150"/>
	</g>
</g>
<g>
	<g>
		<line class="st3" x1="-217.5" y1="435" x2="-217.5" y2="472"/>
		<g>
			<polygon points="-221.6,468.6 -220.9,467.9 -217.5,471.5 -214.1,467.9 -213.4,468.6 -217.5,473 			"/>
		</g>
	</g>
</g>
<g>
	<path class="st4" d="M188.5,923h-86.8c-3.3,0-6-2.7-6-6v-22c0-3.3,2.7-6,6-6h86.8c3.3,0,6,2.7,6,6v22
		C194.5,920.3,191.8,923,188.5,923z"/>
	<g>
		<line class="st5" x1="128.7" y1="889" x2="128.7" y2="923"/>
		<line class="st5" x1="161.6" y1="889" x2="161.6" y2="923"/>
	</g>
	<path class="st6" d="M119.3,918.9h-13.7c-3.3,0-6-2.7-6-6v-13.7c0-3.3,2.7-6,6-6h13.7c3.3,0,6,2.7,6,6v13.7
		C125.3,916.2,122.6,918.9,119.3,918.9z"/>
	<path class="st7" d="M152.2,918.9h-13.7c-3.3,0-6-2.7-6-6v-13.7c0-3.3,2.7-6,6-6h13.7c3.3,0,6,2.7,6,6v13.7
		C158.2,916.2,155.5,918.9,152.2,918.9z"/>
	<path class="st8" d="M185,918.9h-13.7c-3.3,0-6-2.7-6-6v-13.7c0-3.3,2.7-6,6-6H185c3.3,0,6,2.7,6,6v13.7
		C191,916.2,188.3,918.9,185,918.9z"/>
</g>
<g>
	<g>
		<path class="st4" d="M-142.1,997.4H-294c-3.3,0-6-2.7-6-6v-22c0-3.3,2.7-6,6-6h151.9c3.3,0,6,2.7,6,6v22
			C-136.1,994.7-138.8,997.4-142.1,997.4z"/>
		<g>
			<line class="st5" x1="-267.2" y1="963.4" x2="-267.2" y2="997.4"/>
			<line class="st5" x1="-234.3" y1="963.4" x2="-234.3" y2="997.4"/>
			<line class="st5" x1="-201.4" y1="963.4" x2="-201.4" y2="997.4"/>
			<line class="st5" x1="-168.4" y1="963.4" x2="-168.4" y2="997.4"/>
		</g>
	</g>
	<path class="st8" d="M-276.7,993.3h-13.7c-3.3,0-6-2.7-6-6v-13.7c0-3.3,2.7-6,6-6h13.7c3.3,0,6,2.7,6,6v13.7
		C-270.7,990.6-273.4,993.3-276.7,993.3z"/>
	<path class="st6" d="M-243.9,993.3h-13.7c-3.3,0-6-2.7-6-6v-13.7c0-3.3,2.7-6,6-6h13.7c3.3,0,6,2.7,6,6v13.7
		C-237.9,990.6-240.6,993.3-243.9,993.3z"/>
	<path class="st7" d="M-211.1,993.3h-13.7c-3.3,0-6-2.7-6-6v-13.7c0-3.3,2.7-6,6-6h13.7c3.3,0,6,2.7,6,6v13.7
		C-205.1,990.6-207.8,993.3-211.1,993.3z"/>
	<path class="st9" d="M-178.2,993.3h-13.7c-3.3,0-6-2.7-6-6v-13.7c0-3.3,2.7-6,6-6h13.7c3.3,0,6,2.7,6,6v13.7
		C-172.2,990.6-174.9,993.3-178.2,993.3z"/>
	<path class="st8" d="M-145.4,993.3h-13.7c-3.3,0-6-2.7-6-6v-13.7c0-3.3,2.7-6,6-6h13.7c3.3,0,6,2.7,6,6v13.7
		C-139.4,990.6-142.1,993.3-145.4,993.3z"/>
</g>
<g>
	<g>
		<path class="st4" d="M-142.1,575.6H-294c-3.3,0-6-2.7-6-6v-22c0-3.3,2.7-6,6-6h151.9c3.3,0,6,2.7,6,6v22
			C-136.1,572.9-138.8,575.6-142.1,575.6z"/>
		<g>
			<line class="st5" x1="-267.2" y1="541.6" x2="-267.2" y2="575.6"/>
			<line class="st5" x1="-234.3" y1="541.6" x2="-234.3" y2="575.6"/>
			<line class="st5" x1="-201.4" y1="541.6" x2="-201.4" y2="575.6"/>
			<line class="st5" x1="-168.4" y1="541.6" x2="-168.4" y2="575.6"/>
		</g>
	</g>
	<path class="st10" d="M-276.7,571.5h-13.7c-3.3,0-6-2.7-6-6v-13.7c0-3.3,2.7-6,6-6h13.7c3.3,0,6,2.7,6,6v13.7
		C-270.7,568.8-273.4,571.5-276.7,571.5z"/>
	<path class="st7" d="M-243.9,571.5h-13.7c-3.3,0-6-2.7-6-6v-13.7c0-3.3,2.7-6,6-6h13.7c3.3,0,6,2.7,6,6v13.7
		C-237.9,568.8-240.6,571.5-243.9,571.5z"/>
	<path class="st11" d="M-211.1,571.5h-13.7c-3.3,0-6-2.7-6-6v-13.7c0-3.3,2.7-6,6-6h13.7c3.3,0,6,2.7,6,6v13.7
		C-205.1,568.8-207.8,571.5-211.1,571.5z"/>
	<path class="st12" d="M-178.2,571.5h-13.7c-3.3,0-6-2.7-6-6v-13.7c0-3.3,2.7-6,6-6h13.7c3.3,0,6,2.7,6,6v13.7
		C-172.2,568.8-174.9,571.5-178.2,571.5z"/>
	<path class="st9" d="M-145.4,571.5h-13.7c-3.3,0-6-2.7-6-6v-13.7c0-3.3,2.7-6,6-6h13.7c3.3,0,6,2.7,6,6v13.7
		C-139.4,568.8-142.1,571.5-145.4,571.5z"/>
</g>
<g>
	<g>
		<path class="st4" d="M-142.1,716.2H-294c-3.3,0-6-2.7-6-6v-22c0-3.3,2.7-6,6-6h151.9c3.3,0,6,2.7,6,6v22
			C-136.1,713.5-138.8,716.2-142.1,716.2z"/>
		<g>
			<line class="st5" x1="-267.2" y1="682.2" x2="-267.2" y2="716.2"/>
			<line class="st5" x1="-234.3" y1="682.2" x2="-234.3" y2="716.2"/>
			<line class="st5" x1="-201.4" y1="682.2" x2="-201.4" y2="716.2"/>
			<line class="st5" x1="-168.4" y1="682.2" x2="-168.4" y2="716.2"/>
		</g>
	</g>
	<path class="st8" d="M-276.7,712.1h-13.7c-3.3,0-6-2.7-6-6v-13.7c0-3.3,2.7-6,6-6h13.7c3.3,0,6,2.7,6,6v13.7
		C-270.7,709.4-273.4,712.1-276.7,712.1z"/>
	<path class="st13" d="M-243.9,712.1h-13.7c-3.3,0-6-2.7-6-6v-13.7c0-3.3,2.7-6,6-6h13.7c3.3,0,6,2.7,6,6v13.7
		C-237.9,709.4-240.6,712.1-243.9,712.1z"/>
	<path class="st14" d="M-211.1,712.1h-13.7c-3.3,0-6-2.7-6-6v-13.7c0-3.3,2.7-6,6-6h13.7c3.3,0,6,2.7,6,6v13.7
		C-205.1,709.4-207.8,712.1-211.1,712.1z"/>
	<path class="st8" d="M-178.2,712.1h-13.7c-3.3,0-6-2.7-6-6v-13.7c0-3.3,2.7-6,6-6h13.7c3.3,0,6,2.7,6,6v13.7
		C-172.2,709.4-174.9,712.1-178.2,712.1z"/>
	<path class="st8" d="M-145.4,712.1h-13.7c-3.3,0-6-2.7-6-6v-13.7c0-3.3,2.7-6,6-6h13.7c3.3,0,6,2.7,6,6v13.7
		C-139.4,709.4-142.1,712.1-145.4,712.1z"/>
</g>
<g>
	<g>
		<path class="st4" d="M44.9,716.2H-107c-3.3,0-6-2.7-6-6v-22c0-3.3,2.7-6,6-6H44.9c3.3,0,6,2.7,6,6v22
			C50.9,713.5,48.2,716.2,44.9,716.2z"/>
		<g>
			<line class="st5" x1="-80.2" y1="682.2" x2="-80.2" y2="716.2"/>
			<line class="st5" x1="-47.3" y1="682.2" x2="-47.3" y2="716.2"/>
			<line class="st5" x1="-14.4" y1="682.2" x2="-14.4" y2="716.2"/>
			<line class="st5" x1="18.6" y1="682.2" x2="18.6" y2="716.2"/>
		</g>
	</g>
	<path class="st8" d="M-89.7,712.1h-13.7c-3.3,0-6-2.7-6-6v-13.7c0-3.3,2.7-6,6-6h13.7c3.3,0,6,2.7,6,6v13.7
		C-83.7,709.4-86.4,712.1-89.7,712.1z"/>
	<path class="st8" d="M-56.9,712.1h-13.7c-3.3,0-6-2.7-6-6v-13.7c0-3.3,2.7-6,6-6h13.7c3.3,0,6,2.7,6,6v13.7
		C-50.9,709.4-53.6,712.1-56.9,712.1z"/>
	<path class="st8" d="M-24.1,712.1h-13.7c-3.3,0-6-2.7-6-6v-13.7c0-3.3,2.7-6,6-6h13.7c3.3,0,6,2.7,6,6v13.7
		C-18.1,709.4-20.8,712.1-24.1,712.1z"/>
	<path class="st14" d="M8.8,712.1H-4.9c-3.3,0-6-2.7-6-6v-13.7c0-3.3,2.7-6,6-6H8.8c3.3,0,6,2.7,6,6v13.7
		C14.8,709.4,12.1,712.1,8.8,712.1z"/>
	<path class="st13" d="M41.6,712.1H27.9c-3.3,0-6-2.7-6-6v-13.7c0-3.3,2.7-6,6-6h13.7c3.3,0,6,2.7,6,6v13.7
		C47.6,709.4,44.9,712.1,41.6,712.1z"/>
</g>
<g>
	<g>
		<path class="st4" d="M-142.1,856.8H-294c-3.3,0-6-2.7-6-6v-22c0-3.3,2.7-6,6-6h151.9c3.3,0,6,2.7,6,6v22
			C-136.1,854.1-138.8,856.8-142.1,856.8z"/>
		<g>
			<line class="st5" x1="-267.2" y1="822.8" x2="-267.2" y2="856.8"/>
			<line class="st5" x1="-234.3" y1="822.8" x2="-234.3" y2="856.8"/>
			<line class="st5" x1="-201.4" y1="822.8" x2="-201.4" y2="856.8"/>
			<line class="st5" x1="-168.4" y1="822.8" x2="-168.4" y2="856.8"/>
		</g>
	</g>
	<path class="st8" d="M-276.7,852.7h-13.7c-3.3,0-6-2.7-6-6v-13.7c0-3.3,2.7-6,6-6h13.7c3.3,0,6,2.7,6,6v13.7
		C-270.7,850-273.4,852.7-276.7,852.7z"/>
	<path class="st7" d="M-243.9,852.7h-13.7c-3.3,0-6-2.7-6-6v-13.7c0-3.3,2.7-6,6-6h13.7c3.3,0,6,2.7,6,6v13.7
		C-237.9,850-240.6,852.7-243.9,852.7z"/>
	<path class="st15" d="M-211.1,852.7h-13.7c-3.3,0-6-2.7-6-6v-13.7c0-3.3,2.7-6,6-6h13.7c3.3,0,6,2.7,6,6v13.7
		C-205.1,850-207.8,852.7-211.1,852.7z"/>
	<path class="st8" d="M-178.2,852.7h-13.7c-3.3,0-6-2.7-6-6v-13.7c0-3.3,2.7-6,6-6h13.7c3.3,0,6,2.7,6,6v13.7
		C-172.2,850-174.9,852.7-178.2,852.7z"/>
	<path class="st14" d="M-145.4,852.7h-13.7c-3.3,0-6-2.7-6-6v-13.7c0-3.3,2.7-6,6-6h13.7c3.3,0,6,2.7,6,6v13.7
		C-139.4,850-142.1,852.7-145.4,852.7z"/>
</g>
<g>
	<g>
		<path class="st4" d="M-142.1,1138H-294c-3.3,0-6-2.7-6-6v-22c0-3.3,2.7-6,6-6h151.9c3.3,0,6,2.7,6,6v22
			C-136.1,1135.3-138.8,1138-142.1,1138z"/>
		<g>
			<line class="st5" x1="-267.2" y1="1104" x2="-267.2" y2="1138"/>
			<line class="st5" x1="-234.3" y1="1104" x2="-234.3" y2="1138"/>
			<line class="st5" x1="-201.4" y1="1104" x2="-201.4" y2="1138"/>
			<line class="st5" x1="-168.4" y1="1104" x2="-168.4" y2="1138"/>
		</g>
	</g>
	<path class="st8" d="M-276.7,1133.9h-13.7c-3.3,0-6-2.7-6-6v-13.7c0-3.3,2.7-6,6-6h13.7c3.3,0,6,2.7,6,6v13.7
		C-270.7,1131.2-273.4,1133.9-276.7,1133.9z"/>
	<path class="st8" d="M-243.9,1133.9h-13.7c-3.3,0-6-2.7-6-6v-13.7c0-3.3,2.7-6,6-6h13.7c3.3,0,6,2.7,6,6v13.7
		C-237.9,1131.2-240.6,1133.9-243.9,1133.9z"/>
	<path class="st13" d="M-211.1,1133.9h-13.7c-3.3,0-6-2.7-6-6v-13.7c0-3.3,2.7-6,6-6h13.7c3.3,0,6,2.7,6,6v13.7
		C-205.1,1131.2-207.8,1133.9-211.1,1133.9z"/>
	<path class="st14" d="M-178.2,1133.9h-13.7c-3.3,0-6-2.7-6-6v-13.7c0-3.3,2.7-6,6-6h13.7c3.3,0,6,2.7,6,6v13.7
		C-172.2,1131.2-174.9,1133.9-178.2,1133.9z"/>
	<path class="st8" d="M-145.4,1133.9h-13.7c-3.3,0-6-2.7-6-6v-13.7c0-3.3,2.7-6,6-6h13.7c3.3,0,6,2.7,6,6v13.7
		C-139.4,1131.2-142.1,1133.9-145.4,1133.9z"/>
</g>
<g>
	<text transform="matrix(1 0 0 1 -235.5 386.0002)" class="st16 st17 st18">memory</text>
</g>
<g>
	<rect x="-115.7" y="544.5" class="st19" width="136.7" height="51.5"/>
	<text transform="matrix(1 0 0 1 -115.7305 553.9397)"><tspan x="0" y="0" class="st16 st20 st18">Blue shows high similarity, </tspan><tspan x="0" y="15" class="st16 st20 st18">pink high dissimilarity.</tspan></text>
</g>
<g>
	<rect x="-207.7" y="506.5" class="st19" width="102.7" height="51.5"/>
	<text transform="matrix(1 0 0 1 -207.73 515.9397)" class="st16 st20 st18">(or cosine similarity)</text>
</g>
<g>
	<text transform="matrix(1 0 0 1 96.8506 742.1335)" class="st16 st17 st18">interpolation amount</text>
</g>
<g>
	<text transform="matrix(1 0 0 1 96.8506 877.9998)" class="st16 st17 st18">shift filter</text>
</g>
<g>
	<text transform="matrix(1 0 0 1 87.5 386.9998)" class="st16 st20 st18">RNN controller</text>
</g>
<g>
	<text transform="matrix(1 0 0 1 -47.6016 386.9998)" class="st16 st20 st18">attention mechanism</text>
</g>
<path class="st21" d="M-141.1,434h-154.3c-3.3,0-6-2.7-6-6v-22c0-3.3,2.7-6,6-6h154.3c3.3,0,6,2.7,6,6v22
	C-135.1,431.3-137.8,434-141.1,434z"/>
<g class="st22">
	<line class="st23" x1="-265.5" y1="401" x2="-265.5" y2="435"/>
	<line class="st23" x1="-232.5" y1="401" x2="-232.5" y2="435"/>
	<line class="st23" x1="-199.5" y1="401" x2="-199.5" y2="435"/>
	<line class="st23" x1="-166.5" y1="401" x2="-166.5" y2="435"/>
</g>
<g>
	<g>
		<line class="st3" x1="-276.8" y1="422.6" x2="-287.5" y2="410.2"/>
		<g>
			<polygon points="-282.3,410 -282.4,411 -287.3,410.5 -287.5,415.4 -288.5,415.4 -288.2,409.4 			"/>
		</g>
	</g>
</g>
<g>
	<g>
		<line class="st3" x1="-255.9" y1="417" x2="-242.2" y2="417"/>
		<g>
			<polygon points="-245.5,421.1 -246.1,420.4 -242.5,417 -246.2,413.6 -245.5,412.9 -241.1,417 			"/>
		</g>
	</g>
</g>
<g>
	<g>
		<line class="st3" x1="-224.5" y1="413.6" x2="-211.5" y2="418"/>
		<g>
			<polygon points="-215.9,420.8 -216.4,419.9 -211.9,417.9 -214.2,413.6 -213.3,413.1 -210.5,418.4 			"/>
		</g>
	</g>
</g>
<g>
	<g>
		<line class="st3" x1="-175.8" y1="412.8" x2="-188.2" y2="418.7"/>
		<g>
			<polygon points="-187,413.6 -186.1,414 -187.9,418.6 -183.2,420 -183.5,421 -189.2,419.2 			"/>
		</g>
	</g>
</g>
<g>
	<g>
		<line class="st3" x1="-152" y1="423" x2="-147.4" y2="410"/>
		<g>
			<polygon points="-144.6,414.5 -145.5,414.9 -147.5,410.4 -151.9,412.7 -152.3,411.8 -147,409 			"/>
		</g>
	</g>
</g>
<g>
	<g>
		<line class="st3" x1="-217.5" y1="626" x2="-217.5" y2="677"/>
		<g>
			<polygon points="-221.6,673.6 -220.9,672.9 -217.5,676.5 -214.1,672.9 -213.4,673.6 -217.5,678 			"/>
		</g>
	</g>
</g>
<g>
	<g>
		<line class="st3" x1="-217.5" y1="576" x2="-217.5" y2="611"/>
		<g>
			<polygon points="-221.6,607.6 -220.9,606.9 -217.5,610.5 -214.1,606.9 -213.4,607.6 -217.5,612 			"/>
		</g>
	</g>
</g>
<g>
	<g>
		<line class="st3" x1="-217.5" y1="912" x2="-217.5" y2="959"/>
		<g>
			<polygon points="-221.6,955.6 -220.9,954.9 -217.5,958.5 -214.1,954.9 -213.4,955.6 -217.5,960 			"/>
		</g>
	</g>
</g>
<g>
	<g>
		<line class="st3" x1="-217.5" y1="858" x2="-217.5" y2="896"/>
		<g>
			<polygon points="-221.6,892.6 -220.9,891.9 -217.5,895.5 -214.1,891.9 -213.4,892.6 -217.5,897 			"/>
		</g>
	</g>
</g>
<g>
	<g>
		<line class="st3" x1="-217.5" y1="999" x2="-217.5" y2="1037"/>
		<g>
			<polygon points="-221.6,1033.6 -220.9,1032.9 -217.5,1036.5 -214.1,1032.9 -213.4,1033.6 -217.5,1038 			"/>
		</g>
	</g>
</g>
<g>
	<g>
		<line class="st3" x1="-217.5" y1="1052" x2="-217.5" y2="1100"/>
		<g>
			<polygon points="-221.6,1096.6 -220.9,1095.9 -217.5,1099.5 -214.1,1095.9 -213.4,1096.6 -217.5,1101 			"/>
		</g>
	</g>
</g>
<g>
	<g>
		<line class="st3" x1="-217.5" y1="780" x2="-217.5" y2="818"/>
		<g>
			<polygon points="-221.6,814.6 -220.9,813.9 -217.5,817.5 -214.1,813.9 -213.4,814.6 -217.5,819 			"/>
		</g>
	</g>
</g>
<g>
	<g>
		<line class="st3" x1="-217.5" y1="717" x2="-217.5" y2="755"/>
		<g>
			<polygon points="-221.6,751.6 -220.9,750.9 -217.5,754.5 -214.1,750.9 -213.4,751.6 -217.5,756 			"/>
		</g>
	</g>
</g>
<g>
	<g>
		<line class="st3" x1="-217.5" y1="488" x2="-217.5" y2="536"/>
		<g>
			<polygon points="-221.6,532.6 -220.9,531.9 -217.5,535.5 -214.1,531.9 -213.4,532.6 -217.5,537 			"/>
		</g>
	</g>
</g>
<g>
	<text transform="matrix(1 0 0 1 96.8506 457.9998)" class="st16 st17 st18">query vector</text>
</g>
<g>
	<path class="st21" d="M124.8,505h-23c-3.3,0-6-2.7-6-6v-22c0-3.3,2.7-6,6-6h23c3.3,0,6,2.7,6,6v22C130.8,502.3,128.1,505,124.8,505
		z"/>
	<g>
		<g>
			<line class="st3" x1="105.6" y1="488" x2="119.4" y2="488"/>
			<g>
				<polygon points="116,492.1 115.4,491.4 119,488 115.4,484.6 116,483.9 120.4,488 				"/>
			</g>
		</g>
	</g>
</g>
<g>
	<path class="st21" d="M124.8,789h-23c-3.3,0-6-2.7-6-6v-22c0-3.3,2.7-6,6-6h23c3.3,0,6,2.7,6,6v22C130.8,786.3,128.1,789,124.8,789
		z"/>
	<path class="st24" d="M120.1,784.9h-13.7c-3.3,0-6-2.7-6-6v-13.7c0-3.3,2.7-6,6-6h13.7c3.3,0,6,2.7,6,6v13.7
		C126.1,782.2,123.4,784.9,120.1,784.9z"/>
</g>
<g>
	<text transform="matrix(1 0 0 1 -94.904 673.1333)" class="st16 st17 st18">attention from previous step</text>
</g>
<g>
	<text transform="matrix(1 0 0 1 -287.5 1160.9998)" class="st25 st18">new attention distribution</text>
</g>
<g>
	<line class="st0" x1="96" y1="488" x2="-174" y2="488"/>
	<g>
		<line class="st3" x1="96" y1="488" x2="-172.9" y2="488"/>
		<g>
			<polygon points="-169.6,483.9 -168.9,484.6 -172.5,488 -168.9,491.4 -169.6,492.1 -174,488 			"/>
		</g>
	</g>
</g>
<g>
	<line class="st0" x1="95" y1="909" x2="-173" y2="909"/>
	<g>
		<line class="st3" x1="95" y1="909" x2="-171.9" y2="909"/>
		<g>
			<polygon points="-168.6,904.9 -167.9,905.6 -171.5,909 -167.9,912.4 -168.6,913.1 -173,909 			"/>
		</g>
	</g>
</g>
<g>
	<line class="st0" x1="95" y1="774" x2="-173" y2="774"/>
	<g>
		<line class="st3" x1="95" y1="774" x2="-171.9" y2="774"/>
		<g>
			<polygon points="-168.6,769.9 -167.9,770.6 -171.5,774 -167.9,777.4 -168.6,778.1 -173,774 			"/>
		</g>
	</g>
</g>
<g>
	<g>
		<path class="st3" d="M-31,718v17.8c0,16.1-13.1,29.2-29.2,29.2h-111.7"/>
		<g>
			<polygon points="-168.6,760.9 -167.9,761.6 -171.5,765 -167.9,768.4 -168.6,769.1 -173,765 			"/>
		</g>
	</g>
</g>
<g>
	<g>
		<line class="st0" x1="-29.7" y1="613.5" x2="-29.7" y2="656.3"/>
		<g>
			<line class="st3" x1="-29.7" y1="613.5" x2="-29.7" y2="655.2"/>
			<g>
				<polygon points="-33.8,651.9 -33.1,651.2 -29.7,654.8 -26.3,651.2 -25.6,651.9 -29.7,656.3 				"/>
			</g>
		</g>
	</g>
	
		<linearGradient id="SVGID_1_" gradientUnits="userSpaceOnUse" x1="-2263.8674" y1="3243.8479" x2="-2231.6631" y2="3243.8479" gradientTransform="matrix(4.489700e-11 1 -1 4.489700e-11 3213.5979 2876.0979)">
		<stop  offset="0" style="stop-color:#FFFFFF"/>
		<stop  offset="1" style="stop-color:#FFFFFF;stop-opacity:0"/>
	</linearGradient>
	<rect x="-39.1" y="612.2" class="st26" width="17.6" height="32.2"/>
</g>
<g>
	<rect x="-117.5" y="823.4" class="st19" width="106.5" height="54.6"/>
	<text transform="matrix(1 0 0 1 -117.5 832.8479)"><tspan x="0" y="0" class="st16 st20 st18">Strong values from </tspan><tspan x="0" y="15" class="st16 st20 st18">previous attention </tspan><tspan x="0" y="30" class="st16 st20 st18">show up faintly</tspan></text>
</g>
<path class="st27" d="M-190.5,922h-55c-6.3,0-11.5-5.2-11.5-11.5l0,0c0-6.3,5.2-11.5,11.5-11.5h55c6.3,0,11.5,5.2,11.5,11.5l0,0
	C-179,916.8-184.2,922-190.5,922z"/>
<path class="st27" d="M-190.5,1064h-55c-6.3,0-11.5-5.2-11.5-11.5l0,0c0-6.3,5.2-11.5,11.5-11.5h55c6.3,0,11.5,5.2,11.5,11.5l0,0
	C-179,1058.8-184.2,1064-190.5,1064z"/>
<path class="st27" d="M-190.5,782h-55c-6.3,0-11.5-5.2-11.5-11.5l0,0c0-6.3,5.2-11.5,11.5-11.5h55c6.3,0,11.5,5.2,11.5,11.5l0,0
	C-179,776.8-184.2,782-190.5,782z"/>
<path class="st27" d="M-190.5,638h-55c-6.3,0-11.5-5.2-11.5-11.5l0,0c0-6.3,5.2-11.5,11.5-11.5h55c6.3,0,11.5,5.2,11.5,11.5l0,0
	C-179,632.8-184.2,638-190.5,638z"/>
<path class="st27" d="M-190.5,500h-55c-6.3,0-11.5-5.2-11.5-11.5v0c0-6.3,5.2-11.5,11.5-11.5h55c6.3,0,11.5,5.2,11.5,11.5v0
	C-179,494.8-184.2,500-190.5,500z"/>
<g>
	<text transform="matrix(1 0 0 1 -242.1845 773.9998)" class="st0 st17 st18">interpolate</text>
</g>
<g>
	<text transform="matrix(1 0 0 1 -238.2072 913.9998)" class="st0 st17 st18">convolve</text>
</g>
<g>
	<text transform="matrix(1 0 0 1 -236.3757 1055.9998)" class="st0 st17 st18">sharpen</text>
</g>
<g>
	<text transform="matrix(1 0 0 1 -235.7553 629.9998)" class="st0 st17 st18">softmax</text>
</g>
<g>
	<text transform="matrix(1 0 0 1 -244.0189 491.9993)" class="st0 st17 st18">dot product</text>
</g>
</svg>
