<?xml version="1.0" encoding="utf-8"?>
<!-- Generator: Adobe Illustrator 19.1.0, SVG Export Plug-In . SVG Version: 6.00 Build 0)  -->
<svg version="1.1" id="Layer_1" xmlns="http://www.w3.org/2000/svg" xmlns:xlink="http://www.w3.org/1999/xlink" x="0px" y="0px"
	 viewBox="-324 312 550 248" style="enable-background:new -324 312 550 248;" xml:space="preserve">
<style type="text/css">
	.st0{fill:#E5DCF7;stroke:#000000;stroke-miterlimit:10;}
	.st1{opacity:0.1;fill:none;stroke:#0080F7;stroke-width:2;stroke-miterlimit:10;}
	.st2{opacity:0.4;fill:none;stroke:#0080F7;stroke-width:2;stroke-miterlimit:10;}
	.st3{opacity:0.8;}
	.st4{fill:none;stroke:#0080F7;stroke-width:2;stroke-miterlimit:10;}
	.st5{fill:#0080F7;}
	.st6{opacity:0.2;fill:none;stroke:#0080F7;stroke-width:2;stroke-miterlimit:10;}
	.st7{fill:#717171;}
	.st8{font-family:'Helvetica';}
	.st9{font-size:12px;}
	.st10{fill:#FFFFFF;stroke:#808080;stroke-miterlimit:10;}
	.st11{opacity:0.5;fill:#FFFFFF;stroke:#808080;stroke-miterlimit:10;}
	.st12{opacity:0.1;fill:#0080F7;}
	.st13{opacity:0.2;fill:#0080F7;}
	.st14{opacity:0.8;fill:#0080F7;}
	.st15{opacity:0.4;fill:#0080F7;}
	.st16{fill:none;stroke:#000000;stroke-miterlimit:10;}
</style>
<symbol  id="rnn-bg" viewBox="-22 -22 44 44">
	<path class="st0" d="M15.5-21.5h-31c-3.3,0-6,2.7-6,6v31c0,3.3,2.7,6,6,6h31c3.3,0,6-2.7,6-6v-31C21.5-18.8,18.8-21.5,15.5-21.5z"
		/>
</symbol>
<g id="g31779" transform="matrix(0.68670848,0,0,0.68670848,-1154.4151,1835.3332)">
	<path id="path24182" class="st1" d="M1554.4-2137.6v97.7
		c-0.8,34.9-144.8,24.4-144.8,101.1"/>
	<path id="path24184" class="st1" d="M1508.9-2137.6v97.7
		c-0.8,34.9-99.4,24.4-99.4,101.1"/>
	<path id="path24186" class="st2" d="M1459.2-2137.6v97.7
		c-0.8,34.9-49.7,24.4-49.7,101.1"/>
	<g id="path24249" class="st3">
		<g>
			<line class="st4" x1="1409.6" y1="-2136.6" x2="1409.5" y2="-1940.3"/>
			<g>
				<polygon class="st5" points="1403.6,-1945.1 1404.7,-1946.1 1409.5,-1940.9 1414.4,-1946.1 1415.5,-1945.1 1409.5,-1938.7
					"/>
			</g>
		</g>
	</g>
	<path id="path24260" class="st1" d="M1266.4-2137.6v97.7
		c0.8,34.9,143.8,24.4,143.8,101.1"/>
	<path id="path24262" class="st6" d="M1313.9-2137.6v97.7
		c0.8,34.9,96.2,24.4,96.2,101.1"/>
	<path id="path24264" class="st1" d="M1362.6-2137.6v97.7
		c0.8,34.9,47.6,24.4,47.6,101.1"/>
</g>
<text transform="matrix(1 0 0 1 -155 524.9996)" class="st7 st8 st9">read result</text>
<path class="st10" d="M-176.5,539.5h-21c-3.3,0-6-2.7-6-6v-21c0-3.3,2.7-6,6-6h21c3.3,0,6,2.7,6,6v21
	C-170.5,536.8-173.2,539.5-176.5,539.5z"/>
<g>
	<g>
		<path class="st10" d="M-78.1,367.5H-296c-3.3,0-6-2.7-6-6v-22c0-3.3,2.7-6,6-6h217.9c3.3,0,6,2.7,6,6v22
			C-72.1,364.8-74.8,367.5-78.1,367.5z"/>
		<g>
			<line class="st11" x1="-269.1" y1="333.5" x2="-269.1" y2="367.5"/>
			<line class="st11" x1="-236.1" y1="333.5" x2="-236.1" y2="367.5"/>
			<line class="st11" x1="-203.2" y1="333.5" x2="-203.2" y2="367.5"/>
			<line class="st11" x1="-170.3" y1="333.5" x2="-170.3" y2="367.5"/>
			<line class="st11" x1="-137.4" y1="333.5" x2="-137.4" y2="367.5"/>
			<line class="st11" x1="-104.4" y1="333.5" x2="-104.4" y2="367.5"/>
		</g>
	</g>
	<path class="st12" d="M-278.4,363.3h-13.7c-3.3,0-6-2.7-6-6v-13.7c0-3.3,2.7-6,6-6h13.7c3.3,0,6,2.7,6,6v13.7
		C-272.4,360.6-275.1,363.3-278.4,363.3z"/>
	<path class="st13" d="M-245.6,363.3h-13.7c-3.3,0-6-2.7-6-6v-13.7c0-3.3,2.7-6,6-6h13.7c3.3,0,6,2.7,6,6v13.7
		C-239.6,360.6-242.3,363.3-245.6,363.3z"/>
	<path class="st12" d="M-212.7,363.3h-13.7c-3.3,0-6-2.7-6-6v-13.7c0-3.3,2.7-6,6-6h13.7c3.3,0,6,2.7,6,6v13.7
		C-206.7,360.6-209.4,363.3-212.7,363.3z"/>
	<path class="st14" d="M-179.9,363.3h-13.7c-3.3,0-6-2.7-6-6v-13.7c0-3.3,2.7-6,6-6h13.7c3.3,0,6,2.7,6,6v13.7
		C-173.9,360.6-176.6,363.3-179.9,363.3z"/>
	<path class="st15" d="M-147.1,363.3h-13.7c-3.3,0-6-2.7-6-6v-13.7c0-3.3,2.7-6,6-6h13.7c3.3,0,6,2.7,6,6v13.7
		C-141.1,360.6-143.8,363.3-147.1,363.3z"/>
	<path class="st12" d="M-114.2,363.3h-13.7c-3.3,0-6-2.7-6-6v-13.7c0-3.3,2.7-6,6-6h13.7c3.3,0,6,2.7,6,6v13.7
		C-108.2,360.6-110.9,363.3-114.2,363.3z"/>
	<path class="st12" d="M-81.4,363.3h-13.7c-3.3,0-6-2.7-6-6v-13.7c0-3.3,2.7-6,6-6h13.7c3.3,0,6,2.7,6,6v13.7
		C-75.4,360.6-78.1,363.3-81.4,363.3z"/>
</g>
<g>
	<g>
		<line class="st16" x1="-197.4" y1="519.9" x2="-177.4" y2="524.8"/>
		<g>
			<polygon points="-181.5,528 -182,527.1 -177.7,524.7 -180.5,520.6 -179.6,520 -176.3,525.1 			"/>
		</g>
	</g>
</g>
<g>
	<g>
		<path class="st10" d="M-78.1,434.7H-296c-3.3,0-6-2.7-6-6v-22c0-3.3,2.7-6,6-6h217.9c3.3,0,6,2.7,6,6v22
			C-72.1,432-74.8,434.7-78.1,434.7z"/>
		<g>
			<line class="st11" x1="-269.1" y1="400.7" x2="-269.1" y2="434.7"/>
			<line class="st11" x1="-236.1" y1="400.7" x2="-236.1" y2="434.7"/>
			<line class="st11" x1="-203.2" y1="400.7" x2="-203.2" y2="434.7"/>
			<line class="st11" x1="-170.3" y1="400.7" x2="-170.3" y2="434.7"/>
			<line class="st11" x1="-137.4" y1="400.7" x2="-137.4" y2="434.7"/>
			<line class="st11" x1="-104.4" y1="400.7" x2="-104.4" y2="434.7"/>
		</g>
	</g>
	<g>
		<g>
			<line class="st16" x1="-283.1" y1="421.7" x2="-286.7" y2="414.3"/>
			<g>
				<polygon points="-281.6,415.5 -281.9,416.4 -286.5,414.7 -287.9,419.4 -288.9,419.1 -287.2,413.3 				"/>
			</g>
		</g>
	</g>
	<g>
		<g>
			<line class="st16" x1="-248.7" y1="414.3" x2="-255.2" y2="420"/>
			<g>
				<polygon points="-255.5,414.8 -254.5,414.9 -254.9,419.8 -250,419.9 -250,420.9 -256,420.7 				"/>
			</g>
		</g>
	</g>
	<g>
		<g>
			<line class="st16" x1="-214.9" y1="425.3" x2="-223.8" y2="410.7"/>
			<g>
				<polygon points="-218.6,411.3 -218.9,412.3 -223.6,411 -224.6,415.8 -225.6,415.6 -224.4,409.7 				"/>
			</g>
		</g>
	</g>
	<g>
		<g>
			<line class="st16" x1="-198" y1="417.5" x2="-177" y2="417.5"/>
			<g>
				<polygon points="-180.4,421.6 -181.1,420.9 -177.5,417.5 -181.1,414.1 -180.4,413.4 -176,417.5 				"/>
			</g>
		</g>
	</g>
	<g>
		<g>
			<line class="st16" x1="-158.4" y1="412.5" x2="-150.5" y2="421.7"/>
			<g>
				<polygon points="-155.8,421.8 -155.7,420.9 -150.8,421.4 -150.6,416.5 -149.6,416.5 -149.8,422.5 				"/>
			</g>
		</g>
	</g>
	<g>
		<g>
			<line class="st16" x1="-116.9" y1="412" x2="-125.2" y2="422.2"/>
			<g>
				<polygon points="-126.3,417 -125.3,416.9 -125,421.9 -120.1,421.2 -119.9,422.2 -125.9,423 				"/>
			</g>
		</g>
	</g>
	<g>
		<g>
			<line class="st16" x1="-93.3" y1="422.5" x2="-84.7" y2="413.3"/>
			<g>
				<polygon points="-84,418.5 -85,418.5 -85,413.6 -89.9,413.9 -90,412.9 -84,412.5 				"/>
			</g>
		</g>
	</g>
</g>
</svg>
