<?xml version="1.0" encoding="utf-8"?>
<!-- Generator: Adobe Illustrator 19.1.0, SVG Export Plug-In . SVG Version: 6.00 Build 0)  -->
<svg version="1.1" id="Layer_1" xmlns="http://www.w3.org/2000/svg" xmlns:xlink="http://www.w3.org/1999/xlink" x="0px" y="0px"
	 viewBox="-324 342 550 317" style="enable-background:new -324 342 550 317;" xml:space="preserve">
<style type="text/css">
	.st0{fill:#596673;}
	.st1{fill:#FFFFFF;}
	.st2{fill:#050505;}
	.st3{fill:#E5DCF7;stroke:#000000;stroke-miterlimit:10;}
	.st4{fill:#E5DCF7;}
	.st5{fill:none;stroke:#000000;stroke-width:2;stroke-miterlimit:10;}
	.st6{fill:none;}
	.st7{fill:#717171;}
	.st8{font-family:'Helvetica-LightOblique';}
	.st9{font-size:11px;}
	.st10{fill:none;stroke:#000000;stroke-miterlimit:10;}
	.st11{opacity:0.1;}
	.st12{fill:none;stroke:#6300F7;stroke-width:2;stroke-miterlimit:10;}
	.st13{fill:#6300F7;}
	.st14{opacity:0.4;}
</style>
<symbol  id="op-bg" viewBox="-11.2 -11.2 22.5 22.5">
	<path class="st0" d="M11.2,0c0-6.2-5-11.2-11.2-11.2S-11.2-6.2-11.2,0s5,11.2,11.2,11.2S11.2,6.2,11.2,0z"/>
</symbol>
<symbol  id="op-sum" viewBox="-11.2 -11.2 22.5 22.5">
	<use xlink:href="#op-bg"  width="22.5" height="22.5" x="-11.2" y="-11.2" style="overflow:visible;"/>
	<g>
		<text transform="matrix(1 0 0 -1 -5.1719 -2.75)" class="st1" style="font-family:'Helvetica'; font-size:16px;">+</text>
	</g>
</symbol>
<symbol  id="rnn-a" viewBox="-22 -22 44 44">
	<use xlink:href="#rnn-bg"  width="44" height="44" x="-22" y="-22" style="overflow:visible;"/>
	<text transform="matrix(1 0 0 -1 -7.1372 -6.6533)" class="st2" style="font-family:'Helvetica'; font-size:21.7741px;">A</text>
</symbol>
<symbol  id="rnn-b" viewBox="-22 -22 44 44">
	<use xlink:href="#rnn-bg"  width="44" height="44" x="-22" y="-22" style="overflow:visible;"/>
	<text transform="matrix(1 0 0 -1 -7.1372 -6.6533)" class="st2" style="font-family:'Helvetica'; font-size:21.7741px;">B</text>
</symbol>
<symbol  id="rnn-bg" viewBox="-22 -22 44 44">
	<path class="st3" d="M15.5-21.5h-31c-3.3,0-6,2.7-6,6v31c0,3.3,2.7,6,6,6h31c3.3,0,6-2.7,6-6v-31C21.5-18.8,18.8-21.5,15.5-21.5z"
		/>
</symbol>
<symbol  id="rnn-module-bg" viewBox="-162 -34.1 324.1 68.2">
	<path class="st4" d="M152-34.1H-152c-5.5,0-10,4.5-10,10v48.2c0,5.5,4.5,10,10,10H152c5.5,0,10-4.5,10-10v-48.2
		C162-29.6,157.5-34.1,152-34.1z"/>
</symbol>
<use xlink:href="#rnn-module-bg"  width="324.1" height="68.2" x="-162" y="-34.1" transform="matrix(1 0 0 -1 -86.0469 398.3415)" style="overflow:visible;"/>
<g>
	<g>
		<line class="st5" x1="-106" y1="399" x2="-72" y2="399"/>
		<g>
			<polygon points="-75.5,402.7 -76.1,401.9 -72.5,398.6 -76.1,395.2 -75.5,394.5 -71.1,398.6 			"/>
		</g>
	</g>
</g>
<g>
	<g>
		<line class="st5" x1="-191" y1="399" x2="-157" y2="399"/>
		<g>
			<polygon points="-160.5,402.7 -161.1,401.9 -157.5,398.6 -161.1,395.2 -160.5,394.5 -156.1,398.6 			"/>
		</g>
	</g>
</g>
<g>
	<g>
		<line class="st5" x1="-20" y1="399" x2="14" y2="399"/>
		<g>
			<polygon points="10.5,402.7 9.9,401.9 13.5,398.6 9.9,395.2 10.5,394.5 14.9,398.6 			"/>
		</g>
	</g>
</g>
<use xlink:href="#rnn-b"  width="44" height="44" x="-22" y="-22" transform="matrix(1 0 0 -1 43.2581 397.9997)" style="overflow:visible;"/>
<use xlink:href="#rnn-b"  width="44" height="44" x="-22" y="-22" transform="matrix(1 0 0 -1 -41.7419 397.9997)" style="overflow:visible;"/>
<use xlink:href="#rnn-b"  width="44" height="44" x="-22" y="-22" transform="matrix(1 0 0 -1 -126.7419 397.9997)" style="overflow:visible;"/>
<use xlink:href="#rnn-b"  width="44" height="44" x="-22" y="-22" transform="matrix(1 0 0 -1 -211.7419 397.9997)" style="overflow:visible;"/>
<use xlink:href="#rnn-module-bg"  width="324.1" height="68.2" id="XMLID_2_" x="-162" y="-34.1" transform="matrix(1 0 0 -1 -129.0469 576.3415)" style="overflow:visible;"/>
<g>
	<g>
		<line class="st5" x1="-149" y1="577" x2="-115" y2="577"/>
		<g>
			<polygon points="-118.5,580.7 -119.1,579.9 -115.5,576.6 -119.1,573.2 -118.5,572.5 -114.1,576.6 			"/>
		</g>
	</g>
</g>
<g>
	<g>
		<line class="st5" x1="-232" y1="576" x2="-198" y2="576"/>
		<g>
			<polygon points="-201.5,579.7 -202.1,578.9 -198.5,575.6 -202.1,572.2 -201.5,571.5 -197.1,575.6 			"/>
		</g>
	</g>
</g>
<g>
	<g>
		<line class="st5" x1="-71" y1="577" x2="-37" y2="577"/>
		<g>
			<polygon points="-40.5,580.7 -41.1,579.9 -37.5,576.6 -41.1,573.2 -40.5,572.5 -36.1,576.6 			"/>
		</g>
	</g>
</g>
<use xlink:href="#rnn-a"  width="44" height="44" x="-22" y="-22" transform="matrix(1 0 0 -1 -9.7419 575.9997)" style="overflow:visible;"/>
<use xlink:href="#rnn-a"  width="44" height="44" x="-22" y="-22" transform="matrix(1 0 0 -1 -89.7419 575.9997)" style="overflow:visible;"/>
<use xlink:href="#rnn-a"  width="44" height="44" x="-22" y="-22" transform="matrix(1 0 0 -1 -169.7419 575.9997)" style="overflow:visible;"/>
<use xlink:href="#rnn-a"  width="44" height="44" x="-22" y="-22" transform="matrix(1 0 0 -1 -249.7419 575.9997)" style="overflow:visible;"/>
<g>
	<rect x="-321.7" y="446.5" class="st6" width="77.7" height="51.5"/>
	<text transform="matrix(1 0 0 1 -321.73 455.9395)"><tspan x="0" y="0" class="st7 st8 st9">weighted sum </tspan><tspan x="0" y="15" class="st7 st8 st9">of the outputs</tspan></text>
</g>
<g>
	<rect x="64.3" y="446.5" class="st6" width="120.7" height="43.5"/>
	<text transform="matrix(1 0 0 1 64.2695 455.9395)"><tspan x="0" y="0" class="st7 st8 st9">The same RNN A is </tspan><tspan x="0" y="15" class="st7 st8 st9">used at each step of B</tspan></text>
</g>
<g>
	<g>
		<line class="st10" x1="-213.5" y1="451" x2="-213.5" y2="426"/>
		<g>
			<polygon points="-209.4,429.4 -210.1,430.1 -213.5,426.5 -216.9,430.1 -217.6,429.4 -213.5,425 			"/>
		</g>
	</g>
</g>
<g>
	<g>
		<line class="st10" x1="-128.5" y1="451" x2="-128.5" y2="426"/>
		<g>
			<polygon points="-124.4,429.4 -125.1,430.1 -128.5,426.5 -131.9,430.1 -132.6,429.4 -128.5,425 			"/>
		</g>
	</g>
</g>
<g>
	<g>
		<line class="st10" x1="-44.5" y1="451" x2="-44.5" y2="426"/>
		<g>
			<polygon points="-40.4,429.4 -41.1,430.1 -44.5,426.5 -47.9,430.1 -48.6,429.4 -44.5,425 			"/>
		</g>
	</g>
</g>
<g>
	<g>
		<line class="st10" x1="40.5" y1="451" x2="40.5" y2="426"/>
		<g>
			<polygon points="44.6,429.4 43.9,430.1 40.5,426.5 37.1,430.1 36.4,429.4 40.5,425 			"/>
		</g>
	</g>
</g>
<g id="path24184_4_" class="st11">
	<g>
		<path class="st12" d="M-122.4,464.5c1.7,51.5,121.7,44.5,122.2,68.4V557"/>
		<g>
			<polygon class="st13" points="-126.3,468.1 -125.5,468.7 -122.4,464.9 -118.8,468.3 -118.1,467.6 -122.5,463.4 			"/>
		</g>
	</g>
</g>
<g id="path24186_4_" class="st11">
	<g>
		<path class="st12" d="M-126.7,464.5c0.6,51.5,41.9,44.5,42.3,68.4V557"/>
		<g>
			<polygon class="st13" points="-130.6,467.9 -129.9,468.6 -126.6,464.9 -123.2,468.4 -122.5,467.7 -126.7,463.4 			"/>
		</g>
	</g>
</g>
<g id="path24262_1_" class="st14">
	<g>
		<path class="st12" d="M-254.1,557v-24.1c0.6-23.8,118.4-16.9,120.1-68.4"/>
		<g>
			<polygon class="st13" points="-130.2,468.1 -131,468.7 -134.1,464.9 -137.7,468.3 -138.4,467.6 -134,463.4 			"/>
		</g>
	</g>
</g>
<g id="path24264_1_" class="st11">
	<g>
		<path class="st12" d="M-170.7,557v-24.1c0.4-23.8,40.6-16.9,41.1-68.4"/>
		<g>
			<polygon class="st13" points="-125.6,467.9 -126.3,468.6 -129.6,464.9 -133.1,468.4 -133.8,467.7 -129.6,463.4 			"/>
		</g>
	</g>
</g>
<use xlink:href="#op-sum"  width="22.5" height="22.5" id="XMLID_8_" x="-11.2" y="-11.2" transform="matrix(1 0 0 -1 -128.5018 459.9997)" style="overflow:visible;"/>
<use xlink:href="#op-sum"  width="22.5" height="22.5" id="XMLID_10_" x="-11.2" y="-11.2" transform="matrix(1 0 0 -1 -45 459.9997)" style="overflow:visible;"/>
<use xlink:href="#op-sum"  width="22.5" height="22.5" id="XMLID_11_" x="-11.2" y="-11.2" transform="matrix(1 0 0 -1 40 459.9997)" style="overflow:visible;"/>
<use xlink:href="#op-sum"  width="22.5" height="22.5" id="XMLID_9_" x="-11.2" y="-11.2" transform="matrix(1 0 0 -1 -214 459.9997)" style="overflow:visible;"/>
</svg>
