<svg id="images" xmlns="http://www.w3.org/2000/svg" xmlns:xlink="http://www.w3.org/1999/xlink" width="984" height="240" viewBox="0 0 984 240">
  <defs>
    <symbol id="rnn-bg" data-name="rnn-bg" viewBox="0 0 49.5 49.5">
      <rect x="0.75" y="0.75" width="48" height="48" rx="6" ry="6" fill="#fff" fill-opacity="0.8" stroke="#666" stroke-width="1.5"/>
    </symbol>
    <symbol id="rnn-b" data-name="rnn-b" viewBox="0 0 49.5 49.5">
      <use id="rnn-bg-3" data-name="rnn-bg" width="49.5" height="49.5" xlink:href="#rnn-bg"/>
      <path d="M19.83,16.21h4.39a8.29,8.29,0,0,1,4.48.92,3.27,3.27,0,0,1,1.38,2.92,3.38,3.38,0,0,1-.77,2.28,3.72,3.72,0,0,1-2.25,1.16v0.11q3.54,0.6,3.54,3.72a4,4,0,0,1-1.41,3.25,6,6,0,0,1-3.94,1.17H19.83V16.21Zm1.81,6.66h3a4.85,4.85,0,0,0,2.75-.6,2.32,2.32,0,0,0,.84-2,2,2,0,0,0-.94-1.89,5.84,5.84,0,0,0-3-.58H21.64v5.09Zm0,1.53v5.82h3.24a4.62,4.62,0,0,0,2.83-.73,2.69,2.69,0,0,0,1-2.28,2.42,2.42,0,0,0-1-2.13,5.2,5.2,0,0,0-3-.68H21.64Z" fill="#666"/>
    </symbol>
    <symbol id="rnn-a" data-name="rnn-a" viewBox="0 0 49.5 49.5">
      <use id="rnn-bg-48" data-name="rnn-bg" width="49.5" height="49.5" xlink:href="#rnn-bg"/>
      <path d="M29.77,31.75l-1.93-4.94H21.6l-1.91,4.94H17.86L24,16.14h1.52l6.11,15.61H29.77Zm-2.5-6.57-1.81-4.82q-0.35-.91-0.72-2.24a20.34,20.34,0,0,1-.67,2.24l-1.83,4.82h5Z" fill="#666"/>
    </symbol>
  </defs>
  <title>rnn</title>
  <g id="_Group_" data-name="&lt;Group&gt;">
    <rect x="44.82" y="143.56" width="889.21" height="60.16" rx="10" ry="10" fill="#f0f0f5"/>
    <g opacity="0.1">
      <rect x="44.82" y="143.56" width="889.21" height="60.16" rx="10" ry="10" fill="none" stroke="#231f20"/>
    </g>
  </g>
  <g id="_Group_2" data-name="&lt;Group&gt;">
    <rect x="20.86" y="35.56" width="949.14" height="60.16" rx="10" ry="10" fill="#f0f0f5"/>
    <g opacity="0.1">
      <rect x="20.86" y="35.56" width="949.14" height="60.16" rx="10" ry="10" fill="none" stroke="#231f20"/>
    </g>
  </g>
  <g>
    <line x1="66.56" y1="64.53" x2="90.43" y2="64.53" fill="none" stroke="#666" stroke-miterlimit="10" stroke-width="1.5"/>
    <path d="M95.87,64.53a27.2,27.2,0,0,0-7.69,4.28l1.55-4.28-1.55-4.28A27.18,27.18,0,0,0,95.87,64.53Z" fill="#666"/>
  </g>
  <g>
    <line x1="50.86" y1="48" x2="50.86" y2="29.43" fill="none" stroke="#666" stroke-miterlimit="10" stroke-width="1.5"/>
    <path d="M50.86,24a27.2,27.2,0,0,0,4.28,7.69l-4.28-1.55-4.28,1.55A27.18,27.18,0,0,0,50.86,24Z" fill="#666"/>
  </g>
  <g>
    <line x1="114.72" y1="48" x2="114.72" y2="29.43" fill="none" stroke="#666" stroke-miterlimit="10" stroke-width="1.5"/>
    <path d="M114.72,24A27.2,27.2,0,0,0,119,31.69l-4.28-1.55-4.28,1.55A27.18,27.18,0,0,0,114.72,24Z" fill="#666"/>
  </g>
  <g>
    <line x1="178.57" y1="48" x2="178.57" y2="29.43" fill="none" stroke="#666" stroke-miterlimit="10" stroke-width="1.5"/>
    <path d="M178.57,24a27.2,27.2,0,0,0,4.28,7.69l-4.28-1.55-4.28,1.55A27.17,27.17,0,0,0,178.57,24Z" fill="#666"/>
  </g>
  <g>
    <line x1="242.43" y1="48" x2="242.43" y2="29.43" fill="none" stroke="#666" stroke-miterlimit="10" stroke-width="1.5"/>
    <path d="M242.43,24a27.2,27.2,0,0,0,4.28,7.69l-4.28-1.55-4.28,1.55A27.17,27.17,0,0,0,242.43,24Z" fill="#666"/>
  </g>
  <g>
    <line x1="306.29" y1="48" x2="306.29" y2="29.43" fill="none" stroke="#666" stroke-miterlimit="10" stroke-width="1.5"/>
    <path d="M306.29,24a27.2,27.2,0,0,0,4.28,7.69l-4.28-1.55L302,31.69A27.18,27.18,0,0,0,306.29,24Z" fill="#666"/>
  </g>
  <g>
    <line x1="370.14" y1="48" x2="370.14" y2="29.43" fill="none" stroke="#666" stroke-miterlimit="10" stroke-width="1.5"/>
    <path d="M370.14,24a27.2,27.2,0,0,0,4.28,7.69l-4.28-1.55-4.28,1.55A27.18,27.18,0,0,0,370.14,24Z" fill="#666"/>
  </g>
  <g>
    <line x1="434" y1="48" x2="434" y2="29.43" fill="none" stroke="#666" stroke-miterlimit="10" stroke-width="1.5"/>
    <path d="M434,24a27.2,27.2,0,0,0,4.28,7.69L434,30.14l-4.28,1.55A27.18,27.18,0,0,0,434,24Z" fill="#666"/>
  </g>
  <g>
    <line x1="497.86" y1="48" x2="497.86" y2="29.43" fill="none" stroke="#666" stroke-miterlimit="10" stroke-width="1.5"/>
    <path d="M497.86,24a27.2,27.2,0,0,0,4.28,7.69l-4.28-1.55-4.28,1.55A27.18,27.18,0,0,0,497.86,24Z" fill="#666"/>
  </g>
  <g>
    <line x1="561.72" y1="48" x2="561.72" y2="29.43" fill="none" stroke="#666" stroke-miterlimit="10" stroke-width="1.5"/>
    <path d="M561.72,24A27.2,27.2,0,0,0,566,31.69l-4.28-1.55-4.28,1.55A27.18,27.18,0,0,0,561.72,24Z" fill="#666"/>
  </g>
  <g>
    <line x1="625.57" y1="48" x2="625.57" y2="29.43" fill="none" stroke="#666" stroke-miterlimit="10" stroke-width="1.5"/>
    <path d="M625.57,24a27.2,27.2,0,0,0,4.28,7.69l-4.28-1.55-4.28,1.55A27.17,27.17,0,0,0,625.57,24Z" fill="#666"/>
  </g>
  <g>
    <line x1="689.43" y1="48" x2="689.43" y2="29.43" fill="none" stroke="#666" stroke-miterlimit="10" stroke-width="1.5"/>
    <path d="M689.43,24a27.2,27.2,0,0,0,4.28,7.69l-4.28-1.55-4.28,1.55A27.17,27.17,0,0,0,689.43,24Z" fill="#666"/>
  </g>
  <g>
    <line x1="753.29" y1="48" x2="753.29" y2="29.43" fill="none" stroke="#666" stroke-miterlimit="10" stroke-width="1.5"/>
    <path d="M753.29,24a27.2,27.2,0,0,0,4.28,7.69l-4.28-1.55L749,31.69A27.18,27.18,0,0,0,753.29,24Z" fill="#666"/>
  </g>
  <g>
    <line x1="817.14" y1="48" x2="817.14" y2="29.43" fill="none" stroke="#666" stroke-miterlimit="10" stroke-width="1.5"/>
    <path d="M817.14,24a27.2,27.2,0,0,0,4.28,7.69l-4.28-1.55-4.28,1.55A27.18,27.18,0,0,0,817.14,24Z" fill="#666"/>
  </g>
  <g>
    <line x1="881" y1="48" x2="881" y2="29.43" fill="none" stroke="#666" stroke-miterlimit="10" stroke-width="1.5"/>
    <path d="M881,24a27.2,27.2,0,0,0,4.28,7.69L881,30.14l-4.28,1.55A27.18,27.18,0,0,0,881,24Z" fill="#666"/>
  </g>
  <g>
    <line x1="944.86" y1="48" x2="944.86" y2="29.43" fill="none" stroke="#666" stroke-miterlimit="10" stroke-width="1.5"/>
    <path d="M944.86,24a27.2,27.2,0,0,0,4.28,7.69l-4.28-1.55-4.28,1.55A27.18,27.18,0,0,0,944.86,24Z" fill="#666"/>
  </g>
  <g>
    <line x1="72.86" y1="216" x2="72.86" y2="197.43" fill="none" stroke="#666" stroke-miterlimit="10" stroke-width="1.5"/>
    <path d="M72.86,192a27.2,27.2,0,0,0,4.28,7.69l-4.28-1.55-4.28,1.55A27.18,27.18,0,0,0,72.86,192Z" fill="#666"/>
  </g>
  <g>
    <line x1="136.72" y1="216" x2="136.72" y2="197.43" fill="none" stroke="#666" stroke-miterlimit="10" stroke-width="1.5"/>
    <path d="M136.72,192a27.2,27.2,0,0,0,4.28,7.69l-4.28-1.55-4.28,1.55A27.18,27.18,0,0,0,136.72,192Z" fill="#666"/>
  </g>
  <g>
    <line x1="200.57" y1="216" x2="200.57" y2="197.43" fill="none" stroke="#666" stroke-miterlimit="10" stroke-width="1.5"/>
    <path d="M200.57,192a27.2,27.2,0,0,0,4.28,7.69l-4.28-1.55-4.28,1.55A27.17,27.17,0,0,0,200.57,192Z" fill="#666"/>
  </g>
  <g>
    <line x1="264.43" y1="216" x2="264.43" y2="197.43" fill="none" stroke="#666" stroke-miterlimit="10" stroke-width="1.5"/>
    <path d="M264.43,192a27.2,27.2,0,0,0,4.28,7.69l-4.28-1.55-4.28,1.55A27.17,27.17,0,0,0,264.43,192Z" fill="#666"/>
  </g>
  <g>
    <line x1="328.29" y1="216" x2="328.29" y2="197.43" fill="none" stroke="#666" stroke-miterlimit="10" stroke-width="1.5"/>
    <path d="M328.29,192a27.2,27.2,0,0,0,4.28,7.69l-4.28-1.55L324,199.69A27.18,27.18,0,0,0,328.29,192Z" fill="#666"/>
  </g>
  <g>
    <line x1="392.14" y1="216" x2="392.14" y2="197.43" fill="none" stroke="#666" stroke-miterlimit="10" stroke-width="1.5"/>
    <path d="M392.14,192a27.2,27.2,0,0,0,4.28,7.69l-4.28-1.55-4.28,1.55A27.18,27.18,0,0,0,392.14,192Z" fill="#666"/>
  </g>
  <g>
    <line x1="456" y1="216" x2="456" y2="197.43" fill="none" stroke="#666" stroke-miterlimit="10" stroke-width="1.5"/>
    <path d="M456,192a27.2,27.2,0,0,0,4.28,7.69L456,198.14l-4.28,1.55A27.18,27.18,0,0,0,456,192Z" fill="#666"/>
  </g>
  <g>
    <line x1="519.86" y1="216" x2="519.86" y2="197.43" fill="none" stroke="#666" stroke-miterlimit="10" stroke-width="1.5"/>
    <path d="M519.86,192a27.2,27.2,0,0,0,4.28,7.69l-4.28-1.55-4.28,1.55A27.18,27.18,0,0,0,519.86,192Z" fill="#666"/>
  </g>
  <g>
    <line x1="583.72" y1="216" x2="583.72" y2="197.43" fill="none" stroke="#666" stroke-miterlimit="10" stroke-width="1.5"/>
    <path d="M583.72,192a27.2,27.2,0,0,0,4.28,7.69l-4.28-1.55-4.28,1.55A27.18,27.18,0,0,0,583.72,192Z" fill="#666"/>
  </g>
  <g>
    <line x1="647.57" y1="216" x2="647.57" y2="197.43" fill="none" stroke="#666" stroke-miterlimit="10" stroke-width="1.5"/>
    <path d="M647.57,192a27.2,27.2,0,0,0,4.28,7.69l-4.28-1.55-4.28,1.55A27.17,27.17,0,0,0,647.57,192Z" fill="#666"/>
  </g>
  <g>
    <line x1="711.43" y1="216" x2="711.43" y2="197.43" fill="none" stroke="#666" stroke-miterlimit="10" stroke-width="1.5"/>
    <path d="M711.43,192a27.2,27.2,0,0,0,4.28,7.69l-4.28-1.55-4.28,1.55A27.17,27.17,0,0,0,711.43,192Z" fill="#666"/>
  </g>
  <g>
    <line x1="775.29" y1="216" x2="775.29" y2="197.43" fill="none" stroke="#666" stroke-miterlimit="10" stroke-width="1.5"/>
    <path d="M775.29,192a27.2,27.2,0,0,0,4.28,7.69l-4.28-1.55L771,199.69A27.18,27.18,0,0,0,775.29,192Z" fill="#666"/>
  </g>
  <g>
    <line x1="839.14" y1="216" x2="839.14" y2="197.43" fill="none" stroke="#666" stroke-miterlimit="10" stroke-width="1.5"/>
    <path d="M839.14,192a27.2,27.2,0,0,0,4.28,7.69l-4.28-1.55-4.28,1.55A27.18,27.18,0,0,0,839.14,192Z" fill="#666"/>
  </g>
  <g>
    <line x1="903" y1="216" x2="903" y2="197.43" fill="none" stroke="#666" stroke-miterlimit="10" stroke-width="1.5"/>
    <path d="M903,192a27.2,27.2,0,0,0,4.28,7.69L903,198.14l-4.28,1.55A27.18,27.18,0,0,0,903,192Z" fill="#666"/>
  </g>
  <g>
    <line x1="130.77" y1="64.53" x2="153.98" y2="64.53" fill="none" stroke="#666" stroke-miterlimit="10" stroke-width="1.5"/>
    <path d="M159.41,64.53a27.2,27.2,0,0,0-7.69,4.28l1.55-4.28-1.55-4.28A27.18,27.18,0,0,0,159.41,64.53Z" fill="#666"/>
  </g>
  <g>
    <line x1="194.32" y1="64.53" x2="218.19" y2="64.53" fill="none" stroke="#666" stroke-miterlimit="10" stroke-width="1.5"/>
    <path d="M223.62,64.53a27.2,27.2,0,0,0-7.69,4.28l1.55-4.28-1.55-4.28A27.18,27.18,0,0,0,223.62,64.53Z" fill="#666"/>
  </g>
  <g>
    <line x1="258.19" y1="64.53" x2="282.06" y2="64.53" fill="none" stroke="#666" stroke-miterlimit="10" stroke-width="1.5"/>
    <path d="M287.49,64.53a27.2,27.2,0,0,0-7.69,4.28l1.55-4.28-1.55-4.28A27.18,27.18,0,0,0,287.49,64.53Z" fill="#666"/>
  </g>
  <g>
    <line x1="322.4" y1="64.53" x2="345.61" y2="64.53" fill="none" stroke="#666" stroke-miterlimit="10" stroke-width="1.5"/>
    <path d="M351,64.53a27.2,27.2,0,0,0-7.69,4.28l1.55-4.28-1.55-4.28A27.18,27.18,0,0,0,351,64.53Z" fill="#666"/>
  </g>
  <g>
    <line x1="385.94" y1="64.53" x2="409.81" y2="64.53" fill="none" stroke="#666" stroke-miterlimit="10" stroke-width="1.5"/>
    <path d="M415.25,64.53a27.2,27.2,0,0,0-7.69,4.28l1.55-4.28-1.55-4.28A27.18,27.18,0,0,0,415.25,64.53Z" fill="#666"/>
  </g>
  <g>
    <line x1="449.82" y1="64.53" x2="473.69" y2="64.53" fill="none" stroke="#666" stroke-miterlimit="10" stroke-width="1.5"/>
    <path d="M479.12,64.53a27.2,27.2,0,0,0-7.69,4.28L473,64.53l-1.55-4.28A27.17,27.17,0,0,0,479.12,64.53Z" fill="#666"/>
  </g>
  <g>
    <line x1="514.03" y1="64.53" x2="537.23" y2="64.53" fill="none" stroke="#666" stroke-miterlimit="10" stroke-width="1.5"/>
    <path d="M542.67,64.53A27.2,27.2,0,0,0,535,68.81l1.55-4.28L535,60.25A27.18,27.18,0,0,0,542.67,64.53Z" fill="#666"/>
  </g>
  <g>
    <line x1="577.57" y1="64.53" x2="601.44" y2="64.53" fill="none" stroke="#666" stroke-miterlimit="10" stroke-width="1.5"/>
    <path d="M606.87,64.53a27.2,27.2,0,0,0-7.69,4.28l1.55-4.28-1.55-4.28A27.18,27.18,0,0,0,606.87,64.53Z" fill="#666"/>
  </g>
  <g>
    <line x1="641.45" y1="64.53" x2="665.32" y2="64.53" fill="none" stroke="#666" stroke-miterlimit="10" stroke-width="1.5"/>
    <path d="M670.75,64.53a27.2,27.2,0,0,0-7.69,4.28l1.55-4.28-1.55-4.28A27.18,27.18,0,0,0,670.75,64.53Z" fill="#666"/>
  </g>
  <g>
    <line x1="705.66" y1="64.53" x2="728.86" y2="64.53" fill="none" stroke="#666" stroke-miterlimit="10" stroke-width="1.5"/>
    <path d="M734.29,64.53a27.2,27.2,0,0,0-7.69,4.28l1.55-4.28-1.55-4.28A27.18,27.18,0,0,0,734.29,64.53Z" fill="#666"/>
  </g>
  <g>
    <line x1="769.2" y1="64.53" x2="793.07" y2="64.53" fill="none" stroke="#666" stroke-miterlimit="10" stroke-width="1.5"/>
    <path d="M798.5,64.53a27.2,27.2,0,0,0-7.69,4.28l1.55-4.28-1.55-4.28A27.17,27.17,0,0,0,798.5,64.53Z" fill="#666"/>
  </g>
  <g>
    <line x1="833.08" y1="64.53" x2="856.95" y2="64.53" fill="none" stroke="#666" stroke-miterlimit="10" stroke-width="1.5"/>
    <path d="M862.38,64.53a27.2,27.2,0,0,0-7.69,4.28l1.55-4.28-1.55-4.28A27.18,27.18,0,0,0,862.38,64.53Z" fill="#666"/>
  </g>
  <g>
    <line x1="897.28" y1="64.53" x2="920.49" y2="64.53" fill="none" stroke="#666" stroke-miterlimit="10" stroke-width="1.5"/>
    <path d="M925.92,64.53a27.2,27.2,0,0,0-7.69,4.28l1.55-4.28-1.55-4.28A27.18,27.18,0,0,0,925.92,64.53Z" fill="#666"/>
  </g>
  <g id="_Group_3" data-name="&lt;Group&gt;">
    <g opacity="0.1">
      <rect x="34.32" y="50.57" width="31.91" height="31.91" rx="6" ry="6" opacity="0.8"/>
      <rect x="34.32" y="50.57" width="31.91" height="31.91" rx="6" ry="6" fill="none" stroke="#000" stroke-width="1.5"/>
      <rect x="34.32" y="50.57" width="31.91" height="31.91" rx="6" ry="6" fill="none" stroke="#000" stroke-width="1.5"/>
      <rect x="34.32" y="50.57" width="31.91" height="31.91" rx="6" ry="6" fill="none" stroke="#000" stroke-width="1.5"/>
      <path d="M47,60.85h2.92a5.51,5.51,0,0,1,3,.61,2.17,2.17,0,0,1,.92,1.94,2.25,2.25,0,0,1-.51,1.52,2.47,2.47,0,0,1-1.49.77v0.07q2.35,0.4,2.35,2.47a2.65,2.65,0,0,1-.94,2.16,4,4,0,0,1-2.62.78H47V60.85Zm1.2,4.42h2a3.22,3.22,0,0,0,1.83-.4,1.54,1.54,0,0,0,.56-1.35A1.36,1.36,0,0,0,52,62.27a3.88,3.88,0,0,0-2-.38H48.21v3.38Zm0,1v3.87h2.16a3.07,3.07,0,0,0,1.88-.48,1.79,1.79,0,0,0,.63-1.52,1.61,1.61,0,0,0-.65-1.41,3.46,3.46,0,0,0-2-.45H48.21Z"/>
    </g>
    <use width="49.5" height="49.5" transform="translate(32.82 48.07) scale(0.66)" xlink:href="#rnn-b"/>
  </g>
  <g>
    <g opacity="0.1">
      <rect x="98.2" y="50.57" width="31.91" height="31.91" rx="6" ry="6" opacity="0.8"/>
      <rect x="98.2" y="50.57" width="31.91" height="31.91" rx="6" ry="6" fill="none" stroke="#000" stroke-width="1.5"/>
      <rect x="98.2" y="50.57" width="31.91" height="31.91" rx="6" ry="6" fill="none" stroke="#000" stroke-width="1.5"/>
      <rect x="98.2" y="50.57" width="31.91" height="31.91" rx="6" ry="6" fill="none" stroke="#000" stroke-width="1.5"/>
      <path d="M110.88,60.85h2.92a5.51,5.51,0,0,1,3,.61,2.17,2.17,0,0,1,.92,1.94,2.25,2.25,0,0,1-.51,1.52,2.47,2.47,0,0,1-1.49.77v0.07q2.35,0.4,2.35,2.47a2.65,2.65,0,0,1-.94,2.16,4,4,0,0,1-2.62.78h-3.6V60.85Zm1.2,4.42h2a3.22,3.22,0,0,0,1.83-.4,1.54,1.54,0,0,0,.56-1.35,1.36,1.36,0,0,0-.62-1.25,3.88,3.88,0,0,0-2-.38h-1.77v3.38Zm0,1v3.87h2.16a3.07,3.07,0,0,0,1.88-.48,1.79,1.79,0,0,0,.63-1.52,1.61,1.61,0,0,0-.65-1.41,3.46,3.46,0,0,0-2-.45h-2.06Z"/>
    </g>
    <use width="49.5" height="49.5" transform="translate(96.7 48.07) scale(0.66)" xlink:href="#rnn-b"/>
  </g>
  <g>
    <g opacity="0.1">
      <rect x="162.08" y="50.57" width="31.91" height="31.91" rx="6" ry="6" opacity="0.8"/>
      <rect x="162.08" y="50.57" width="31.91" height="31.91" rx="6" ry="6" fill="none" stroke="#000" stroke-width="1.5"/>
      <rect x="162.08" y="50.57" width="31.91" height="31.91" rx="6" ry="6" fill="none" stroke="#000" stroke-width="1.5"/>
      <rect x="162.08" y="50.57" width="31.91" height="31.91" rx="6" ry="6" fill="none" stroke="#000" stroke-width="1.5"/>
      <path d="M174.76,60.85h2.92a5.51,5.51,0,0,1,3,.61,2.17,2.17,0,0,1,.92,1.94,2.25,2.25,0,0,1-.51,1.52,2.47,2.47,0,0,1-1.49.77v0.07q2.35,0.4,2.35,2.47A2.65,2.65,0,0,1,181,70.4a4,4,0,0,1-2.62.78h-3.6V60.85Zm1.2,4.42h2a3.22,3.22,0,0,0,1.83-.4,1.54,1.54,0,0,0,.56-1.35,1.36,1.36,0,0,0-.62-1.25,3.88,3.88,0,0,0-2-.38H176v3.38Zm0,1v3.87h2.16a3.07,3.07,0,0,0,1.88-.48,1.79,1.79,0,0,0,.63-1.52,1.61,1.61,0,0,0-.65-1.41,3.46,3.46,0,0,0-2-.45H176Z"/>
    </g>
    <use width="49.5" height="49.5" transform="translate(160.58 48.07) scale(0.66)" xlink:href="#rnn-b"/>
  </g>
  <g id="_Group_4" data-name="&lt;Group&gt;">
    <g opacity="0.1">
      <rect x="225.95" y="50.57" width="31.91" height="31.91" rx="6" ry="6" opacity="0.8"/>
      <rect x="225.95" y="50.57" width="31.91" height="31.91" rx="6" ry="6" fill="none" stroke="#000" stroke-width="1.5"/>
      <rect x="225.95" y="50.57" width="31.91" height="31.91" rx="6" ry="6" fill="none" stroke="#000" stroke-width="1.5"/>
      <rect x="225.95" y="50.57" width="31.91" height="31.91" rx="6" ry="6" fill="none" stroke="#000" stroke-width="1.5"/>
      <path d="M238.64,60.85h2.92a5.51,5.51,0,0,1,3,.61,2.17,2.17,0,0,1,.92,1.94,2.25,2.25,0,0,1-.51,1.52,2.47,2.47,0,0,1-1.49.77v0.07q2.35,0.4,2.35,2.47a2.65,2.65,0,0,1-.94,2.16,4,4,0,0,1-2.62.78h-3.6V60.85Zm1.2,4.42h2a3.22,3.22,0,0,0,1.83-.4,1.54,1.54,0,0,0,.56-1.35,1.36,1.36,0,0,0-.62-1.25,3.88,3.88,0,0,0-2-.38h-1.77v3.38Zm0,1v3.87H242a3.07,3.07,0,0,0,1.88-.48,1.79,1.79,0,0,0,.63-1.52,1.61,1.61,0,0,0-.65-1.41,3.46,3.46,0,0,0-2-.45h-2.06Z"/>
    </g>
    <use width="49.5" height="49.5" transform="translate(224.45 48.07) scale(0.66)" xlink:href="#rnn-b"/>
  </g>
  <g>
    <g opacity="0.1">
      <rect x="289.83" y="50.57" width="31.91" height="31.91" rx="6" ry="6" opacity="0.8"/>
      <rect x="289.83" y="50.57" width="31.91" height="31.91" rx="6" ry="6" fill="none" stroke="#000" stroke-width="1.5"/>
      <rect x="289.83" y="50.57" width="31.91" height="31.91" rx="6" ry="6" fill="none" stroke="#000" stroke-width="1.5"/>
      <rect x="289.83" y="50.57" width="31.91" height="31.91" rx="6" ry="6" fill="none" stroke="#000" stroke-width="1.5"/>
      <path d="M302.51,60.85h2.92a5.51,5.51,0,0,1,3,.61,2.17,2.17,0,0,1,.92,1.94,2.25,2.25,0,0,1-.51,1.52,2.47,2.47,0,0,1-1.49.77v0.07q2.35,0.4,2.35,2.47a2.65,2.65,0,0,1-.94,2.16,4,4,0,0,1-2.62.78h-3.6V60.85Zm1.2,4.42h2a3.22,3.22,0,0,0,1.83-.4,1.54,1.54,0,0,0,.56-1.35,1.36,1.36,0,0,0-.62-1.25,3.88,3.88,0,0,0-2-.38h-1.77v3.38Zm0,1v3.87h2.16a3.07,3.07,0,0,0,1.88-.48,1.79,1.79,0,0,0,.63-1.52,1.61,1.61,0,0,0-.65-1.41,3.46,3.46,0,0,0-2-.45h-2.06Z"/>
    </g>
    <use width="49.5" height="49.5" transform="translate(288.33 48.07) scale(0.66)" xlink:href="#rnn-b"/>
  </g>
  <g>
    <g opacity="0.1">
      <rect x="353.7" y="50.57" width="31.91" height="31.91" rx="6" ry="6" opacity="0.8"/>
      <rect x="353.7" y="50.57" width="31.91" height="31.91" rx="6" ry="6" fill="none" stroke="#000" stroke-width="1.5"/>
      <rect x="353.7" y="50.57" width="31.91" height="31.91" rx="6" ry="6" fill="none" stroke="#000" stroke-width="1.5"/>
      <rect x="353.7" y="50.57" width="31.91" height="31.91" rx="6" ry="6" fill="none" stroke="#000" stroke-width="1.5"/>
      <path d="M366.39,60.85h2.92a5.51,5.51,0,0,1,3,.61,2.17,2.17,0,0,1,.92,1.94,2.25,2.25,0,0,1-.51,1.52,2.47,2.47,0,0,1-1.49.77v0.07q2.35,0.4,2.35,2.47a2.65,2.65,0,0,1-.94,2.16,4,4,0,0,1-2.62.78h-3.6V60.85Zm1.2,4.42h2a3.22,3.22,0,0,0,1.83-.4,1.54,1.54,0,0,0,.56-1.35,1.36,1.36,0,0,0-.62-1.25,3.88,3.88,0,0,0-2-.38h-1.77v3.38Zm0,1v3.87h2.16a3.07,3.07,0,0,0,1.88-.48,1.79,1.79,0,0,0,.63-1.52,1.61,1.61,0,0,0-.65-1.41,3.46,3.46,0,0,0-2-.45h-2.06Z"/>
    </g>
    <use width="49.5" height="49.5" transform="translate(352.2 48.07) scale(0.66)" xlink:href="#rnn-b"/>
  </g>
  <g id="_Group_5" data-name="&lt;Group&gt;">
    <g opacity="0.1">
      <rect x="417.58" y="50.57" width="31.91" height="31.91" rx="6" ry="6" opacity="0.8"/>
      <rect x="417.58" y="50.57" width="31.91" height="31.91" rx="6" ry="6" fill="none" stroke="#000" stroke-width="1.5"/>
      <rect x="417.58" y="50.57" width="31.91" height="31.91" rx="6" ry="6" fill="none" stroke="#000" stroke-width="1.5"/>
      <rect x="417.58" y="50.57" width="31.91" height="31.91" rx="6" ry="6" fill="none" stroke="#000" stroke-width="1.5"/>
      <path d="M430.26,60.85h2.92a5.51,5.51,0,0,1,3,.61,2.17,2.17,0,0,1,.92,1.94,2.25,2.25,0,0,1-.51,1.52,2.47,2.47,0,0,1-1.49.77v0.07q2.35,0.4,2.35,2.47a2.65,2.65,0,0,1-.94,2.16,4,4,0,0,1-2.62.78h-3.6V60.85Zm1.2,4.42h2a3.22,3.22,0,0,0,1.83-.4,1.54,1.54,0,0,0,.56-1.35,1.36,1.36,0,0,0-.62-1.25,3.88,3.88,0,0,0-2-.38h-1.77v3.38Zm0,1v3.87h2.16a3.07,3.07,0,0,0,1.88-.48,1.79,1.79,0,0,0,.63-1.52,1.61,1.61,0,0,0-.65-1.41,3.46,3.46,0,0,0-2-.45h-2.06Z"/>
    </g>
    <use width="49.5" height="49.5" transform="translate(416.08 48.07) scale(0.66)" xlink:href="#rnn-b"/>
  </g>
  <g>
    <g opacity="0.1">
      <rect x="481.46" y="50.57" width="31.91" height="31.91" rx="6" ry="6" opacity="0.8"/>
      <rect x="481.46" y="50.57" width="31.91" height="31.91" rx="6" ry="6" fill="none" stroke="#000" stroke-width="1.5"/>
      <rect x="481.46" y="50.57" width="31.91" height="31.91" rx="6" ry="6" fill="none" stroke="#000" stroke-width="1.5"/>
      <rect x="481.46" y="50.57" width="31.91" height="31.91" rx="6" ry="6" fill="none" stroke="#000" stroke-width="1.5"/>
      <path d="M494.14,60.85h2.92a5.51,5.51,0,0,1,3,.61,2.17,2.17,0,0,1,.92,1.94,2.25,2.25,0,0,1-.51,1.52,2.47,2.47,0,0,1-1.49.77v0.07q2.35,0.4,2.35,2.47a2.65,2.65,0,0,1-.94,2.16,4,4,0,0,1-2.62.78h-3.6V60.85Zm1.2,4.42h2a3.22,3.22,0,0,0,1.83-.4,1.54,1.54,0,0,0,.56-1.35,1.36,1.36,0,0,0-.62-1.25,3.88,3.88,0,0,0-2-.38h-1.77v3.38Zm0,1v3.87h2.16a3.07,3.07,0,0,0,1.88-.48,1.79,1.79,0,0,0,.63-1.52,1.61,1.61,0,0,0-.65-1.41,3.46,3.46,0,0,0-2-.45h-2.06Z"/>
    </g>
    <use width="49.5" height="49.5" transform="translate(479.96 48.07) scale(0.66)" xlink:href="#rnn-b"/>
  </g>
  <g>
    <g opacity="0.1">
      <rect x="545.33" y="50.57" width="31.91" height="31.91" rx="6" ry="6" opacity="0.8"/>
      <rect x="545.33" y="50.57" width="31.91" height="31.91" rx="6" ry="6" fill="none" stroke="#000" stroke-width="1.5"/>
      <rect x="545.33" y="50.57" width="31.91" height="31.91" rx="6" ry="6" fill="none" stroke="#000" stroke-width="1.5"/>
      <rect x="545.33" y="50.57" width="31.91" height="31.91" rx="6" ry="6" fill="none" stroke="#000" stroke-width="1.5"/>
      <path d="M558,60.85h2.92a5.51,5.51,0,0,1,3,.61,2.17,2.17,0,0,1,.92,1.94,2.25,2.25,0,0,1-.51,1.52,2.47,2.47,0,0,1-1.49.77v0.07q2.35,0.4,2.35,2.47a2.65,2.65,0,0,1-.94,2.16,4,4,0,0,1-2.62.78H558V60.85Zm1.2,4.42h2a3.22,3.22,0,0,0,1.83-.4,1.54,1.54,0,0,0,.56-1.35,1.36,1.36,0,0,0-.62-1.25,3.88,3.88,0,0,0-2-.38h-1.77v3.38Zm0,1v3.87h2.16a3.07,3.07,0,0,0,1.88-.48,1.79,1.79,0,0,0,.63-1.52,1.61,1.61,0,0,0-.65-1.41,3.46,3.46,0,0,0-2-.45h-2.06Z"/>
    </g>
    <use width="49.5" height="49.5" transform="translate(543.83 48.07) scale(0.66)" xlink:href="#rnn-b"/>
  </g>
  <g id="_Group_6" data-name="&lt;Group&gt;">
    <g opacity="0.1">
      <rect x="609.21" y="50.57" width="31.91" height="31.91" rx="6" ry="6" opacity="0.8"/>
      <rect x="609.21" y="50.57" width="31.91" height="31.91" rx="6" ry="6" fill="none" stroke="#000" stroke-width="1.5"/>
      <rect x="609.21" y="50.57" width="31.91" height="31.91" rx="6" ry="6" fill="none" stroke="#000" stroke-width="1.5"/>
      <rect x="609.21" y="50.57" width="31.91" height="31.91" rx="6" ry="6" fill="none" stroke="#000" stroke-width="1.5"/>
      <path d="M621.89,60.85h2.92a5.51,5.51,0,0,1,3,.61,2.17,2.17,0,0,1,.92,1.94,2.25,2.25,0,0,1-.51,1.52,2.47,2.47,0,0,1-1.49.77v0.07q2.35,0.4,2.35,2.47a2.65,2.65,0,0,1-.94,2.16,4,4,0,0,1-2.62.78h-3.6V60.85Zm1.2,4.42h2a3.22,3.22,0,0,0,1.83-.4,1.54,1.54,0,0,0,.56-1.35,1.36,1.36,0,0,0-.62-1.25,3.88,3.88,0,0,0-2-.38h-1.77v3.38Zm0,1v3.87h2.16a3.07,3.07,0,0,0,1.88-.48,1.79,1.79,0,0,0,.63-1.52,1.61,1.61,0,0,0-.65-1.41,3.46,3.46,0,0,0-2-.45h-2.06Z"/>
    </g>
    <use width="49.5" height="49.5" transform="translate(607.71 48.07) scale(0.66)" xlink:href="#rnn-b"/>
  </g>
  <g>
    <g opacity="0.1">
      <rect x="673.08" y="50.57" width="31.91" height="31.91" rx="6" ry="6" opacity="0.8"/>
      <rect x="673.08" y="50.57" width="31.91" height="31.91" rx="6" ry="6" fill="none" stroke="#000" stroke-width="1.5"/>
      <rect x="673.08" y="50.57" width="31.91" height="31.91" rx="6" ry="6" fill="none" stroke="#000" stroke-width="1.5"/>
      <rect x="673.08" y="50.57" width="31.91" height="31.91" rx="6" ry="6" fill="none" stroke="#000" stroke-width="1.5"/>
      <path d="M685.77,60.85h2.92a5.51,5.51,0,0,1,3,.61,2.17,2.17,0,0,1,.92,1.94,2.25,2.25,0,0,1-.51,1.52,2.47,2.47,0,0,1-1.49.77v0.07q2.35,0.4,2.35,2.47A2.65,2.65,0,0,1,692,70.4a4,4,0,0,1-2.62.78h-3.6V60.85Zm1.2,4.42h2a3.22,3.22,0,0,0,1.83-.4,1.54,1.54,0,0,0,.56-1.35,1.36,1.36,0,0,0-.62-1.25,3.88,3.88,0,0,0-2-.38H687v3.38Zm0,1v3.87h2.16a3.07,3.07,0,0,0,1.88-.48,1.79,1.79,0,0,0,.63-1.52,1.61,1.61,0,0,0-.65-1.41,3.46,3.46,0,0,0-2-.45H687Z"/>
    </g>
    <use width="49.5" height="49.5" transform="translate(671.59 48.07) scale(0.66)" xlink:href="#rnn-b"/>
  </g>
  <g>
    <g opacity="0.1">
      <rect x="736.96" y="50.57" width="31.91" height="31.91" rx="6" ry="6" opacity="0.8"/>
      <rect x="736.96" y="50.57" width="31.91" height="31.91" rx="6" ry="6" fill="none" stroke="#000" stroke-width="1.5"/>
      <rect x="736.96" y="50.57" width="31.91" height="31.91" rx="6" ry="6" fill="none" stroke="#000" stroke-width="1.5"/>
      <rect x="736.96" y="50.57" width="31.91" height="31.91" rx="6" ry="6" fill="none" stroke="#000" stroke-width="1.5"/>
      <path d="M749.64,60.85h2.92a5.51,5.51,0,0,1,3,.61,2.17,2.17,0,0,1,.92,1.94,2.25,2.25,0,0,1-.51,1.52,2.47,2.47,0,0,1-1.49.77v0.07q2.35,0.4,2.35,2.47a2.65,2.65,0,0,1-.94,2.16,4,4,0,0,1-2.62.78h-3.6V60.85Zm1.2,4.42h2a3.22,3.22,0,0,0,1.83-.4,1.54,1.54,0,0,0,.56-1.35,1.36,1.36,0,0,0-.62-1.25,3.88,3.88,0,0,0-2-.38h-1.77v3.38Zm0,1v3.87H753a3.07,3.07,0,0,0,1.88-.48,1.79,1.79,0,0,0,.63-1.52,1.61,1.61,0,0,0-.65-1.41,3.46,3.46,0,0,0-2-.45h-2.06Z"/>
    </g>
    <use width="49.5" height="49.5" transform="translate(735.46 48.07) scale(0.66)" xlink:href="#rnn-b"/>
  </g>
  <g id="_Group_7" data-name="&lt;Group&gt;">
    <g opacity="0.1">
      <rect x="800.84" y="50.57" width="31.91" height="31.91" rx="6" ry="6" opacity="0.8"/>
      <rect x="800.84" y="50.57" width="31.91" height="31.91" rx="6" ry="6" fill="none" stroke="#000" stroke-width="1.5"/>
      <rect x="800.84" y="50.57" width="31.91" height="31.91" rx="6" ry="6" fill="none" stroke="#000" stroke-width="1.5"/>
      <rect x="800.84" y="50.57" width="31.91" height="31.91" rx="6" ry="6" fill="none" stroke="#000" stroke-width="1.5"/>
      <path d="M813.52,60.85h2.92a5.51,5.51,0,0,1,3,.61,2.17,2.17,0,0,1,.92,1.94,2.25,2.25,0,0,1-.51,1.52,2.47,2.47,0,0,1-1.49.77v0.07q2.35,0.4,2.35,2.47a2.65,2.65,0,0,1-.94,2.16,4,4,0,0,1-2.62.78h-3.6V60.85Zm1.2,4.42h2a3.22,3.22,0,0,0,1.83-.4,1.54,1.54,0,0,0,.56-1.35,1.36,1.36,0,0,0-.62-1.25,3.88,3.88,0,0,0-2-.38h-1.77v3.38Zm0,1v3.87h2.16a3.07,3.07,0,0,0,1.88-.48,1.79,1.79,0,0,0,.63-1.52,1.61,1.61,0,0,0-.65-1.41,3.46,3.46,0,0,0-2-.45h-2.06Z"/>
    </g>
    <use width="49.5" height="49.5" transform="translate(799.34 48.07) scale(0.66)" xlink:href="#rnn-b"/>
  </g>
  <g>
    <g opacity="0.1">
      <rect x="864.71" y="50.57" width="31.91" height="31.91" rx="6" ry="6" opacity="0.8"/>
      <rect x="864.71" y="50.57" width="31.91" height="31.91" rx="6" ry="6" fill="none" stroke="#000" stroke-width="1.5"/>
      <rect x="864.71" y="50.57" width="31.91" height="31.91" rx="6" ry="6" fill="none" stroke="#000" stroke-width="1.5"/>
      <rect x="864.71" y="50.57" width="31.91" height="31.91" rx="6" ry="6" fill="none" stroke="#000" stroke-width="1.5"/>
      <path d="M877.4,60.85h2.92a5.51,5.51,0,0,1,3,.61,2.17,2.17,0,0,1,.92,1.94,2.25,2.25,0,0,1-.51,1.52,2.47,2.47,0,0,1-1.49.77v0.07q2.35,0.4,2.35,2.47a2.65,2.65,0,0,1-.94,2.16,4,4,0,0,1-2.62.78h-3.6V60.85Zm1.2,4.42h2a3.22,3.22,0,0,0,1.83-.4,1.54,1.54,0,0,0,.56-1.35,1.36,1.36,0,0,0-.62-1.25,3.88,3.88,0,0,0-2-.38H878.6v3.38Zm0,1v3.87h2.16a3.07,3.07,0,0,0,1.88-.48,1.79,1.79,0,0,0,.63-1.52,1.61,1.61,0,0,0-.65-1.41,3.46,3.46,0,0,0-2-.45H878.6Z"/>
    </g>
    <use width="49.5" height="49.5" transform="translate(863.21 48.07) scale(0.66)" xlink:href="#rnn-b"/>
  </g>
  <g>
    <g opacity="0.1">
      <rect x="928.59" y="50.57" width="31.91" height="31.91" rx="6" ry="6" opacity="0.8"/>
      <rect x="928.59" y="50.57" width="31.91" height="31.91" rx="6" ry="6" fill="none" stroke="#000" stroke-width="1.5"/>
      <rect x="928.59" y="50.57" width="31.91" height="31.91" rx="6" ry="6" fill="none" stroke="#000" stroke-width="1.5"/>
      <rect x="928.59" y="50.57" width="31.91" height="31.91" rx="6" ry="6" fill="none" stroke="#000" stroke-width="1.5"/>
      <path d="M941.27,60.85h2.92a5.51,5.51,0,0,1,3,.61,2.17,2.17,0,0,1,.92,1.94,2.25,2.25,0,0,1-.51,1.52,2.47,2.47,0,0,1-1.49.77v0.07q2.35,0.4,2.35,2.47a2.65,2.65,0,0,1-.94,2.16,4,4,0,0,1-2.62.78h-3.6V60.85Zm1.2,4.42h2a3.22,3.22,0,0,0,1.83-.4,1.54,1.54,0,0,0,.56-1.35,1.36,1.36,0,0,0-.62-1.25,3.88,3.88,0,0,0-2-.38h-1.77v3.38Zm0,1v3.87h2.16a3.07,3.07,0,0,0,1.88-.48,1.79,1.79,0,0,0,.63-1.52,1.61,1.61,0,0,0-.65-1.41,3.46,3.46,0,0,0-2-.45h-2.06Z"/>
    </g>
    <use width="49.5" height="49.5" transform="translate(927.09 48.07) scale(0.66)" xlink:href="#rnn-b"/>
  </g>
  <g>
    <g>
      <line x1="89.99" y1="172.09" x2="113.86" y2="172.09" fill="none" stroke="#666" stroke-miterlimit="10" stroke-width="1.5"/>
      <path d="M119.3,172.09a27.2,27.2,0,0,0-7.69,4.28l1.55-4.28-1.55-4.28A27.18,27.18,0,0,0,119.3,172.09Z" fill="#666"/>
    </g>
    <g>
      <line x1="153.87" y1="172.09" x2="177.75" y2="172.09" fill="none" stroke="#666" stroke-miterlimit="10" stroke-width="1.5"/>
      <path d="M183.18,172.09a27.2,27.2,0,0,0-7.69,4.28l1.55-4.28-1.55-4.28A27.17,27.17,0,0,0,183.18,172.09Z" fill="#666"/>
    </g>
    <g>
      <line x1="217.76" y1="172.09" x2="241.63" y2="172.09" fill="none" stroke="#666" stroke-miterlimit="10" stroke-width="1.5"/>
      <path d="M247.06,172.09a27.2,27.2,0,0,0-7.69,4.28l1.55-4.28-1.55-4.28A27.18,27.18,0,0,0,247.06,172.09Z" fill="#666"/>
    </g>
    <g>
      <line x1="281.64" y1="172.09" x2="305.51" y2="172.09" fill="none" stroke="#666" stroke-miterlimit="10" stroke-width="1.5"/>
      <path d="M310.94,172.09a27.2,27.2,0,0,0-7.69,4.28l1.55-4.28-1.55-4.28A27.18,27.18,0,0,0,310.94,172.09Z" fill="#666"/>
    </g>
    <g>
      <line x1="345.52" y1="172.09" x2="369.39" y2="172.09" fill="none" stroke="#666" stroke-miterlimit="10" stroke-width="1.5"/>
      <path d="M374.82,172.09a27.2,27.2,0,0,0-7.69,4.28l1.55-4.28-1.55-4.28A27.17,27.17,0,0,0,374.82,172.09Z" fill="#666"/>
    </g>
    <g>
      <line x1="409.4" y1="172.09" x2="433.27" y2="172.09" fill="none" stroke="#666" stroke-miterlimit="10" stroke-width="1.5"/>
      <path d="M438.7,172.09a27.2,27.2,0,0,0-7.69,4.28l1.55-4.28L431,167.81A27.18,27.18,0,0,0,438.7,172.09Z" fill="#666"/>
    </g>
    <g>
      <line x1="473.28" y1="172.09" x2="497.15" y2="172.09" fill="none" stroke="#666" stroke-miterlimit="10" stroke-width="1.5"/>
      <path d="M502.58,172.09a27.2,27.2,0,0,0-7.69,4.28l1.55-4.28-1.55-4.28A27.18,27.18,0,0,0,502.58,172.09Z" fill="#666"/>
    </g>
    <g>
      <line x1="537.16" y1="172.09" x2="561.03" y2="172.09" fill="none" stroke="#666" stroke-miterlimit="10" stroke-width="1.5"/>
      <path d="M566.46,172.09a27.2,27.2,0,0,0-7.69,4.28l1.55-4.28-1.55-4.28A27.17,27.17,0,0,0,566.46,172.09Z" fill="#666"/>
    </g>
    <g>
      <line x1="601.04" y1="172.09" x2="624.91" y2="172.09" fill="none" stroke="#666" stroke-miterlimit="10" stroke-width="1.5"/>
      <path d="M630.34,172.09a27.2,27.2,0,0,0-7.69,4.28l1.55-4.28-1.55-4.28A27.18,27.18,0,0,0,630.34,172.09Z" fill="#666"/>
    </g>
    <g>
      <line x1="664.92" y1="172.09" x2="688.79" y2="172.09" fill="none" stroke="#666" stroke-miterlimit="10" stroke-width="1.5"/>
      <path d="M694.22,172.09a27.2,27.2,0,0,0-7.69,4.28l1.55-4.28-1.55-4.28A27.18,27.18,0,0,0,694.22,172.09Z" fill="#666"/>
    </g>
    <g>
      <line x1="728.8" y1="172.09" x2="752.67" y2="172.09" fill="none" stroke="#666" stroke-miterlimit="10" stroke-width="1.5"/>
      <path d="M758.11,172.09a27.2,27.2,0,0,0-7.69,4.28l1.55-4.28-1.55-4.28A27.17,27.17,0,0,0,758.11,172.09Z" fill="#666"/>
    </g>
    <g>
      <line x1="792.68" y1="172.09" x2="816.56" y2="172.09" fill="none" stroke="#666" stroke-miterlimit="10" stroke-width="1.5"/>
      <path d="M822,172.09a27.2,27.2,0,0,0-7.69,4.28l1.55-4.28-1.55-4.28A27.18,27.18,0,0,0,822,172.09Z" fill="#666"/>
    </g>
    <g>
      <line x1="856.56" y1="172.09" x2="880.44" y2="172.09" fill="none" stroke="#666" stroke-miterlimit="10" stroke-width="1.5"/>
      <path d="M885.87,172.09a27.2,27.2,0,0,0-7.69,4.28l1.55-4.28-1.55-4.28A27.18,27.18,0,0,0,885.87,172.09Z" fill="#666"/>
    </g>
    <g>
      <g opacity="0.1">
        <rect x="57.75" y="158.14" width="31.91" height="31.91" rx="6" ry="6" opacity="0.8"/>
        <rect x="57.75" y="158.14" width="31.91" height="31.91" rx="6" ry="6" fill="none" stroke="#000" stroke-width="1.5"/>
        <path d="M77,178.74l-1.29-3.29H71.61l-1.27,3.29H69.12l4.08-10.37h1l4.06,10.37H77Zm-1.66-4.37-1.2-3.2q-0.23-.61-0.48-1.49a13.52,13.52,0,0,1-.45,1.49L72,174.38h3.34Z"/>
      </g>
      <use width="49.5" height="49.5" transform="translate(56.25 155.64) scale(0.66)" xlink:href="#rnn-a"/>
    </g>
    <g>
      <g opacity="0.1">
        <rect x="121.63" y="158.14" width="31.91" height="31.91" rx="6" ry="6" opacity="0.8"/>
        <rect x="121.63" y="158.14" width="31.91" height="31.91" rx="6" ry="6" fill="none" stroke="#000" stroke-width="1.5"/>
        <path d="M140.92,178.74l-1.29-3.29h-4.14l-1.27,3.29H133l4.08-10.37h1l4.06,10.37h-1.24Zm-1.66-4.37-1.2-3.2q-0.23-.61-0.48-1.49a13.52,13.52,0,0,1-.45,1.49l-1.22,3.2h3.34Z"/>
      </g>
      <use width="49.5" height="49.5" transform="translate(120.13 155.64) scale(0.66)" xlink:href="#rnn-a"/>
    </g>
    <g id="_Group_8" data-name="&lt;Group&gt;">
      <g opacity="0.1">
        <rect x="185.51" y="158.14" width="31.91" height="31.91" rx="6" ry="6" opacity="0.8"/>
        <rect x="185.51" y="158.14" width="31.91" height="31.91" rx="6" ry="6" fill="none" stroke="#000" stroke-width="1.5"/>
        <path d="M204.8,178.74l-1.29-3.29h-4.14l-1.27,3.29h-1.22L201,168.37h1L206,178.74H204.8Zm-1.66-4.37-1.2-3.2q-0.23-.61-0.48-1.49a13.52,13.52,0,0,1-.45,1.49l-1.22,3.2h3.34Z"/>
      </g>
      <use width="49.5" height="49.5" transform="translate(184.01 155.64) scale(0.66)" xlink:href="#rnn-a"/>
    </g>
    <g id="_Group_9" data-name="&lt;Group&gt;">
      <g opacity="0.1">
        <rect x="249.39" y="158.14" width="31.91" height="31.91" rx="6" ry="6" opacity="0.8"/>
        <rect x="249.39" y="158.14" width="31.91" height="31.91" rx="6" ry="6" fill="none" stroke="#000" stroke-width="1.5"/>
        <path d="M268.68,178.74l-1.29-3.29h-4.14L262,178.74h-1.22l4.08-10.37h1l4.06,10.37h-1.24ZM267,174.38l-1.2-3.2q-0.23-.61-0.48-1.49a13.52,13.52,0,0,1-.45,1.49l-1.22,3.2H267Z"/>
      </g>
      <use width="49.5" height="49.5" transform="translate(247.9 155.64) scale(0.66)" xlink:href="#rnn-a"/>
    </g>
    <g>
      <g opacity="0.1">
        <rect x="313.28" y="158.14" width="31.91" height="31.91" rx="6" ry="6" opacity="0.8"/>
        <rect x="313.28" y="158.14" width="31.91" height="31.91" rx="6" ry="6" fill="none" stroke="#000" stroke-width="1.5"/>
        <path d="M332.56,178.74l-1.29-3.29h-4.14l-1.27,3.29h-1.22l4.08-10.37h1l4.06,10.37h-1.24Zm-1.66-4.37-1.2-3.2q-0.23-.61-0.48-1.49a13.52,13.52,0,0,1-.45,1.49l-1.22,3.2h3.34Z"/>
      </g>
      <use width="49.5" height="49.5" transform="translate(311.78 155.64) scale(0.66)" xlink:href="#rnn-a"/>
    </g>
    <g id="_Group_10" data-name="&lt;Group&gt;">
      <g opacity="0.1">
        <rect x="377.16" y="158.14" width="31.91" height="31.91" rx="6" ry="6" opacity="0.8"/>
        <rect x="377.16" y="158.14" width="31.91" height="31.91" rx="6" ry="6" fill="none" stroke="#000" stroke-width="1.5"/>
        <path d="M396.44,178.74l-1.29-3.29H391l-1.27,3.29h-1.22l4.08-10.37h1l4.06,10.37h-1.24Zm-1.66-4.37-1.2-3.2q-0.23-.61-0.48-1.49a13.52,13.52,0,0,1-.45,1.49l-1.22,3.2h3.34Z"/>
      </g>
      <use width="49.5" height="49.5" transform="translate(375.66 155.64) scale(0.66)" xlink:href="#rnn-a"/>
    </g>
    <g id="_Group_11" data-name="&lt;Group&gt;">
      <g opacity="0.1">
        <rect x="441.04" y="158.14" width="31.91" height="31.91" rx="6" ry="6" opacity="0.8"/>
        <rect x="441.04" y="158.14" width="31.91" height="31.91" rx="6" ry="6" fill="none" stroke="#000" stroke-width="1.5"/>
        <path d="M460.33,178.74L459,175.46H454.9l-1.27,3.29h-1.22l4.08-10.37h1l4.06,10.37h-1.24Zm-1.66-4.37-1.2-3.2q-0.23-.61-0.48-1.49a13.52,13.52,0,0,1-.45,1.49l-1.22,3.2h3.34Z"/>
      </g>
      <use width="49.5" height="49.5" transform="translate(439.54 155.64) scale(0.66)" xlink:href="#rnn-a"/>
    </g>
    <g>
      <g opacity="0.1">
        <rect x="504.92" y="158.14" width="31.91" height="31.91" rx="6" ry="6" opacity="0.8"/>
        <rect x="504.92" y="158.14" width="31.91" height="31.91" rx="6" ry="6" fill="none" stroke="#000" stroke-width="1.5"/>
        <path d="M524.21,178.74l-1.29-3.29h-4.14l-1.27,3.29h-1.22l4.08-10.37h1l4.06,10.37h-1.24Zm-1.66-4.37-1.2-3.2q-0.23-.61-0.48-1.49a13.52,13.52,0,0,1-.45,1.49l-1.22,3.2h3.34Z"/>
      </g>
      <use width="49.5" height="49.5" transform="translate(503.42 155.64) scale(0.66)" xlink:href="#rnn-a"/>
    </g>
    <g id="_Group_12" data-name="&lt;Group&gt;">
      <g opacity="0.1">
        <rect x="568.8" y="158.14" width="31.91" height="31.91" rx="6" ry="6" opacity="0.8"/>
        <rect x="568.8" y="158.14" width="31.91" height="31.91" rx="6" ry="6" fill="none" stroke="#000" stroke-width="1.5"/>
        <path d="M588.09,178.74l-1.29-3.29h-4.14l-1.27,3.29h-1.22l4.08-10.37h1l4.06,10.37h-1.24Zm-1.66-4.37-1.2-3.2q-0.23-.61-0.48-1.49a13.52,13.52,0,0,1-.45,1.49l-1.22,3.2h3.34Z"/>
      </g>
      <use width="49.5" height="49.5" transform="translate(567.3 155.64) scale(0.66)" xlink:href="#rnn-a"/>
    </g>
    <g id="_Group_13" data-name="&lt;Group&gt;">
      <g opacity="0.1">
        <rect x="632.68" y="158.14" width="31.91" height="31.91" rx="6" ry="6" opacity="0.8"/>
        <rect x="632.68" y="158.14" width="31.91" height="31.91" rx="6" ry="6" fill="none" stroke="#000" stroke-width="1.5"/>
        <path d="M652,178.74l-1.29-3.29h-4.14l-1.27,3.29h-1.22l4.08-10.37h1l4.06,10.37H652Zm-1.66-4.37-1.2-3.2q-0.23-.61-0.48-1.49a13.52,13.52,0,0,1-.45,1.49l-1.22,3.2h3.34Z"/>
      </g>
      <use width="49.5" height="49.5" transform="translate(631.18 155.64) scale(0.66)" xlink:href="#rnn-a"/>
    </g>
    <g>
      <g opacity="0.1">
        <rect x="696.56" y="158.14" width="31.91" height="31.91" rx="6" ry="6" opacity="0.8"/>
        <rect x="696.56" y="158.14" width="31.91" height="31.91" rx="6" ry="6" fill="none" stroke="#000" stroke-width="1.5"/>
        <path d="M715.85,178.74l-1.29-3.29h-4.14l-1.27,3.29h-1.22L712,168.37h1l4.06,10.37h-1.24Zm-1.66-4.37-1.2-3.2q-0.23-.61-0.48-1.49a13.52,13.52,0,0,1-.45,1.49l-1.22,3.2h3.34Z"/>
      </g>
      <use width="49.5" height="49.5" transform="translate(695.06 155.64) scale(0.66)" xlink:href="#rnn-a"/>
    </g>
    <g id="_Group_14" data-name="&lt;Group&gt;">
      <g opacity="0.1">
        <rect x="760.44" y="158.14" width="31.91" height="31.91" rx="6" ry="6" opacity="0.8"/>
        <rect x="760.44" y="158.14" width="31.91" height="31.91" rx="6" ry="6" fill="none" stroke="#000" stroke-width="1.5"/>
        <path d="M779.73,178.74l-1.29-3.29H774.3L773,178.74h-1.22l4.08-10.37h1L781,178.74h-1.24Zm-1.66-4.37-1.2-3.2q-0.23-.61-0.48-1.49a13.52,13.52,0,0,1-.45,1.49l-1.22,3.2h3.34Z"/>
      </g>
      <use width="49.5" height="49.5" transform="translate(758.94 155.64) scale(0.66)" xlink:href="#rnn-a"/>
    </g>
    <g id="_Group_15" data-name="&lt;Group&gt;">
      <g opacity="0.1">
        <rect x="824.32" y="158.14" width="31.91" height="31.91" rx="6" ry="6" opacity="0.8"/>
        <rect x="824.32" y="158.14" width="31.91" height="31.91" rx="6" ry="6" fill="none" stroke="#000" stroke-width="1.5"/>
        <path d="M843.61,178.74l-1.29-3.29h-4.14l-1.27,3.29H835.7l4.08-10.37h1l4.06,10.37h-1.24ZM842,174.38l-1.2-3.2q-0.23-.61-0.48-1.49a13.52,13.52,0,0,1-.45,1.49l-1.22,3.2H842Z"/>
      </g>
      <use width="49.5" height="49.5" transform="translate(822.82 155.64) scale(0.66)" xlink:href="#rnn-a"/>
    </g>
    <g>
      <g opacity="0.1">
        <rect x="888.2" y="158.14" width="31.91" height="31.91" rx="6" ry="6" opacity="0.8"/>
        <rect x="888.2" y="158.14" width="31.91" height="31.91" rx="6" ry="6" fill="none" stroke="#000" stroke-width="1.5"/>
        <path d="M907.49,178.74l-1.29-3.29h-4.14l-1.27,3.29h-1.22l4.08-10.37h1l4.06,10.37h-1.24Zm-1.66-4.37-1.2-3.2q-0.23-.61-0.48-1.49a13.52,13.52,0,0,1-.45,1.49l-1.22,3.2h3.34Z"/>
      </g>
      <use width="49.5" height="49.5" transform="translate(886.71 155.64) scale(0.66)" xlink:href="#rnn-a"/>
    </g>
  </g>
  <text transform="translate(62.25 227.86)" opacity="0.6" font-size="13" font-family="Myriad Pro">the</text>
  <text transform="translate(107.27 227.86)" opacity="0.6" font-size="13" font-family="Myriad Pro">a<tspan x="6.27" y="0">g</tspan><tspan x="13.46" y="0">r</tspan><tspan x="17.58" y="0">eeme</tspan><tspan x="47.96" y="0">n</tspan><tspan x="55.12" y="0">t</tspan></text>
  <text transform="translate(192.19 227.86)" opacity="0.6" font-size="13" font-family="Myriad Pro">on</text>
  <text transform="translate(254.61 227.86)" opacity="0.6" font-size="13" font-family="Myriad Pro">the</text>
  <text transform="translate(303 227.86)" opacity="0.6" font-size="13" font-family="Myriad Pro">E<tspan x="6.3" y="0">u</tspan><tspan x="13.47" y="0">r</tspan><tspan x="17.59" y="0">opean</tspan></text>
  <text transform="translate(366.58 227.86)" opacity="0.6" font-size="13" font-family="Myriad Pro">E<tspan x="6.34" y="0">c</tspan><tspan x="12.09" y="0">onomic</tspan></text>
  <text transform="translate(443.84 227.86)" opacity="0.6" font-size="13" font-family="Myriad Pro">A<tspan x="7.92" y="0">r</tspan><tspan x="12.04" y="0">ea</tspan></text>
  <text transform="translate(509.75 227.86)" opacity="0.6" font-size="13" font-family="Myriad Pro">w<tspan x="9.52" y="0">as</tspan></text>
  <text transform="translate(566.71 227.86)" opacity="0.6" font-size="13" font-family="Myriad Pro">si<tspan x="8.19" y="0">g</tspan><tspan x="15.38" y="0">ned</tspan></text>
  <text transform="translate(642.91 227.86)" opacity="0.6" font-size="13" font-family="Myriad Pro">in</text>
  <text transform="translate(693.84 227.86)" opacity="0.6" font-size="13" font-family="Myriad Pro">A<tspan x="7.8" y="0">ugust</tspan></text>
  <text transform="translate(804.2 18) scale(0.91 1)" opacity="0.6" font-size="13" font-family="Myriad Pro">1992</text>
  <text transform="translate(763.57 228.89) scale(0.91 1)" opacity="0.6" font-size="13" font-family="Myriad Pro">1992</text>
  <text transform="translate(838.76 227.86)" opacity="0.6" font-size="13" font-family="Myriad Pro">.</text>
  <text transform="translate(887.25 227.86)" opacity="0.6" font-size="13" font-family="Myriad Pro">&lt;end&gt;</text>
  <text transform="translate(878.86 18.31)" opacity="0.6" font-size="13" font-family="Myriad Pro">.</text>
  <text transform="translate(926.82 18.31)" opacity="0.6" font-size="13" font-family="Myriad Pro">&lt;end&gt;</text>
  <line x1="70.85" y1="157.06" x2="47.49" y2="80.72" fill="none" stroke="#7b56af" stroke-width="2"/>
  <line x1="133.01" y1="157.06" x2="49.46" y2="80.72" fill="none" stroke="#7b56af" stroke-width="1.5" opacity="0.15"/>
  <line x1="134" y1="157.06" x2="110.65" y2="80.72" fill="none" stroke="#7b56af" stroke-width="2"/>
  <line x1="201.76" y1="157.06" x2="178.41" y2="80.72" fill="none" stroke="#7b56af" stroke-width="2"/>
  <line x1="262.94" y1="157.06" x2="239.59" y2="80.72" fill="none" stroke="#7b56af" stroke-width="2"/>
  <line x1="329.39" y1="157.06" x2="435.31" y2="80.72" fill="none" stroke="#7b56af" stroke-width="2"/>
  <line x1="393.86" y1="157.06" x2="370.5" y2="80.72" fill="none" stroke="#7b56af" stroke-width="2"/>
  <line x1="329.06" y1="157.06" x2="370.5" y2="80.72" fill="none" stroke="#7b56af" stroke-width="1.5" opacity="0.1"/>
  <line x1="522.14" y1="157.06" x2="498.79" y2="80.72" fill="none" stroke="#7b56af" stroke-width="2"/>
  <line x1="586.61" y1="157.06" x2="563.26" y2="80.72" fill="none" stroke="#7b56af" stroke-width="2" opacity="0.7"/>
  <line x1="584.97" y1="157.06" x2="500.43" y2="80.72" fill="none" stroke="#7b56af" stroke-width="1.5" opacity="0.15"/>
  <line x1="455.37" y1="157.06" x2="306.69" y2="80.72" fill="none" stroke="#7b56af" stroke-width="2"/>
  <line x1="397.15" y1="157.06" x2="306.69" y2="80.72" fill="none" stroke="#7b56af" stroke-width="1.5" opacity="0.1"/>
  <line x1="456.36" y1="157.06" x2="241.56" y2="80.72" fill="none" stroke="#7b56af" stroke-width="1.5" opacity="0.1"/>
  <line x1="907" y1="157.06" x2="944.82" y2="80.72" fill="none" stroke="#7b56af" stroke-width="2"/>
  <line x1="841.87" y1="157.06" x2="879.7" y2="80.72" fill="none" stroke="#7b56af" stroke-width="2"/>
  <line x1="780.03" y1="157.06" x2="817.86" y2="80.72" fill="none" stroke="#7b56af" stroke-width="2"/>
  <line x1="718.19" y1="157.06" x2="756.02" y2="80.72" fill="none" stroke="#7b56af" stroke-width="2"/>
  <line x1="526.09" y1="157.06" x2="563.92" y2="80.72" fill="none" stroke="#7b56af" stroke-width="1.8" opacity="0.5"/>
  <line x1="587.93" y1="157.06" x2="625.76" y2="80.72" fill="none" stroke="#7b56af" stroke-width="2"/>
  <line x1="652.4" y1="157.06" x2="690.23" y2="80.72" fill="none" stroke="#7b56af" stroke-width="2"/>
  <text transform="translate(50.83 18.31)" opacity="0.6" font-size="13" font-family="Myriad Pro">l<tspan x="3.15" y="0" letter-spacing="-1">’</tspan></text>
  <text transform="translate(100.2 18.31)" opacity="0.6" font-size="13" font-family="Myriad Pro">a<tspan x="6.27" y="0">cc</tspan><tspan x="17.76" y="0">o</tspan><tspan x="24.89" y="0">r</tspan><tspan x="29.02" y="0">d</tspan></text>
  <text transform="translate(172.93 18.31)" opacity="0.6" font-size="13" font-family="Myriad Pro">sur</text>
  <text transform="translate(239.85 18.31)" opacity="0.6" font-size="13" font-family="Myriad Pro">la</text>
  <text transform="translate(295.6 18.31)" opacity="0.6" font-size="13" font-family="Myriad Pro">z<tspan x="5.47" y="0">one</tspan></text>
  <text transform="translate(336.35 18.31)" opacity="0.6" font-size="13" font-family="Myriad Pro">é<tspan x="6.51" y="0">c</tspan><tspan x="12.26" y="0">onomique</tspan></text>
  <text transform="translate(414.85 18.31)" opacity="0.6" font-size="13" font-family="Myriad Pro">eu<tspan x="13.68" y="0">r</tspan><tspan x="17.8" y="0">opéenne</tspan></text>
  <text transform="translate(495.65 18.31)" opacity="0.6" font-size="13" font-family="Myriad Pro">a</text>
  <text transform="translate(554.17 18.31)" opacity="0.6" font-size="13" font-family="Myriad Pro">é<tspan x="6.51" y="0">t</tspan><tspan x="10.74" y="0">é</tspan></text>
  <text transform="translate(612.29 18.31)" opacity="0.6" font-size="13" font-family="Myriad Pro">si<tspan x="8.19" y="0">g</tspan><tspan x="15.38" y="0">né</tspan></text>
  <text transform="translate(682.98 18.31)" opacity="0.6" font-size="13" font-family="Myriad Pro">en</text>
  <text transform="translate(741.44 18.31)" opacity="0.6" font-size="13" font-family="Myriad Pro">août</text>
  <line x1="584.64" y1="157.06" x2="49.46" y2="80.72" fill="none" stroke="#7b56af" opacity="0.05"/>
  <line x1="880.35" y1="77.72" x2="522.47" y2="154.72" fill="none" stroke="#7b56af" opacity="0.07"/>
  <line x1="878.71" y1="77.72" x2="585.63" y2="153.72" fill="none" stroke="#7b56af" opacity="0.07"/>
  <line x1="880.68" y1="77.72" x2="653.72" y2="153.72" fill="none" stroke="#7b56af" opacity="0.03"/>
  <line x1="905.35" y1="157.06" x2="177.09" y2="80.72" fill="none" stroke="#7b56af" opacity="0.05"/>
</svg>
