<svg id="background" xmlns="http://www.w3.org/2000/svg" xmlns:xlink="http://www.w3.org/1999/xlink" width="984" height="222" viewBox="0 0 984 222">
  <defs>
    <symbol id="rnn-bg" data-name="rnn-bg" viewBox="0 0 49.5 49.5">
      <rect x="0.75" y="0.75" width="48" height="48" rx="6" ry="6" fill="#fff" stroke="#666" stroke-width="1.5"/>
    </symbol>
    <symbol id="rnn-a" data-name="rnn-a" viewBox="0 0 49.5 49.5">
      <use id="rnn-bg-3" data-name="rnn-bg" width="49.5" height="49.5" xlink:href="#rnn-bg"/>
      <text transform="translate(18.08 31.75)" font-size="21.77" fill="#515151" font-family="Helvetica" letter-spacing="-1">A</text>
    </symbol>
    <symbol id="op-1" data-name="op-1" viewBox="0 0 50.5 27.5">
      <g>
        <g opacity="0.1">
          <rect x="1.75" y="2.75" width="48" height="24" rx="12" ry="12"/>
          <rect x="1.75" y="2.75" width="48" height="24" rx="12" ry="12" fill="none" stroke="#000" stroke-miterlimit="10" stroke-width="1.5"/>
        </g>
        <g>
          <rect x="0.75" y="0.75" width="48" height="24" rx="12" ry="12" fill="#fff"/>
          <rect x="0.75" y="0.75" width="48" height="24" rx="12" ry="12" fill="none" stroke="#666" stroke-miterlimit="10" stroke-width="1.5"/>
        </g>
      </g>
      <text transform="translate(11.36 16.27)" font-size="12" fill="#666" font-family="Open Sans">Op 1</text>
    </symbol>
    <symbol id="op-2" data-name="op-2" viewBox="0 0 50.5 27.5">
      <g>
        <g opacity="0.1">
          <rect x="1.75" y="2.75" width="48" height="24" rx="12" ry="12"/>
          <rect x="1.75" y="2.75" width="48" height="24" rx="12" ry="12" fill="none" stroke="#000" stroke-miterlimit="10" stroke-width="1.5"/>
        </g>
        <g>
          <rect x="0.75" y="0.75" width="48" height="24" rx="12" ry="12" fill="#fff"/>
          <rect x="0.75" y="0.75" width="48" height="24" rx="12" ry="12" fill="none" stroke="#666" stroke-miterlimit="10" stroke-width="1.5"/>
        </g>
      </g>
      <text transform="translate(11.36 16.27)" font-size="12" fill="#666" font-family="Open Sans">Op 2</text>
    </symbol>
    <symbol id="op-3" data-name="op-3" viewBox="0 0 50.5 27.5">
      <g>
        <g opacity="0.1">
          <rect x="1.75" y="2.75" width="48" height="24" rx="12" ry="12"/>
          <rect x="1.75" y="2.75" width="48" height="24" rx="12" ry="12" fill="none" stroke="#000" stroke-miterlimit="10" stroke-width="1.5"/>
        </g>
        <g>
          <rect x="0.75" y="0.75" width="48" height="24" rx="12" ry="12" fill="#fff"/>
          <rect x="0.75" y="0.75" width="48" height="24" rx="12" ry="12" fill="none" stroke="#666" stroke-miterlimit="10" stroke-width="1.5"/>
        </g>
      </g>
      <text transform="translate(11.41 16.27)" font-size="12" fill="#666" font-family="Open Sans">Op 3</text>
    </symbol>
  </defs>
  <title>rnn</title>
  <g id="_Group_" data-name="&lt;Group&gt;">
    <rect x="168" y="138" width="468" height="72" rx="10" ry="10" opacity="0.04"/>
    <g opacity="0.1">
      <rect x="168" y="138" width="468" height="72" rx="10" ry="10" fill="none" stroke="#231f20"/>
    </g>
  </g>
  <g>
    <g opacity="0.1">
      <rect x="181" y="152" width="48" height="48" rx="6" ry="6" stroke="#000" stroke-width="1.5"/>
      <path d="M204.55,167.38h2.39L212.61,183h-2.32l-1.63-4.68h-6.13L200.84,183h-2.17Zm3.51,9.22-2.4-6.9-2.5,6.9h4.9Z"/>
    </g>
    <use width="49.5" height="49.5" transform="translate(179.25 149.25)" xlink:href="#rnn-a"/>
  </g>
  <g>
    <g opacity="0.1">
      <rect x="313" y="152" width="48" height="48" rx="6" ry="6" stroke="#000" stroke-width="1.5"/>
      <path d="M336.55,167.38h2.39L344.61,183h-2.32l-1.63-4.68h-6.13L332.84,183h-2.17Zm3.51,9.22-2.4-6.9-2.5,6.9h4.9Z"/>
    </g>
    <use width="49.5" height="49.5" transform="translate(311.25 149.25)" xlink:href="#rnn-a"/>
  </g>
  <g>
    <g opacity="0.1">
      <rect x="445" y="152" width="48" height="48" rx="6" ry="6" stroke="#000" stroke-width="1.5"/>
      <path d="M468.55,167.38h2.39L476.61,183h-2.32l-1.63-4.68h-6.13L464.84,183h-2.17Zm3.51,9.22-2.4-6.9-2.5,6.9h4.9Z"/>
    </g>
    <use width="49.5" height="49.5" transform="translate(443.25 149.25)" xlink:href="#rnn-a"/>
  </g>
  <g id="_Group_2" data-name="&lt;Group&gt;">
    <g opacity="0.1">
      <rect x="577" y="152" width="48" height="48" rx="6" ry="6" stroke="#000" stroke-width="1.5"/>
      <path d="M600.55,167.38h2.39L608.61,183h-2.32l-1.63-4.68h-6.13L596.84,183h-2.17Zm3.51,9.22-2.41-6.9-2.5,6.9h4.9Z"/>
    </g>
    <use width="49.5" height="49.5" transform="translate(575.25 149.25)" xlink:href="#rnn-a"/>
  </g>
  <use width="50.5" height="27.5" transform="translate(180 89.25)" xlink:href="#op-1"/>
  <use width="50.5" height="27.5" transform="translate(180 53.25)" xlink:href="#op-2"/>
  <use width="50.5" height="27.5" transform="translate(180 17.25)" xlink:href="#op-3"/>
  <use width="50.5" height="27.5" transform="translate(312 89.25)" xlink:href="#op-1"/>
  <use width="50.5" height="27.5" transform="translate(312 53.25)" xlink:href="#op-2"/>
  <use width="50.5" height="27.5" transform="translate(312 17.25)" xlink:href="#op-3"/>
  <use width="50.5" height="27.5" transform="translate(444 89.25)" xlink:href="#op-1"/>
  <use width="50.5" height="27.5" transform="translate(444 53.25)" xlink:href="#op-2"/>
  <use width="50.5" height="27.5" transform="translate(444 17.25)" xlink:href="#op-3"/>
  <use width="50.5" height="27.5" transform="translate(576 89.25)" xlink:href="#op-1"/>
  <use width="50.5" height="27.5" transform="translate(576 53.25)" xlink:href="#op-2"/>
  <use width="50.5" height="27.5" transform="translate(576 17.25)" xlink:href="#op-3"/>
  <g>
    <g>
      <line x1="204" y1="150" x2="204" y2="125.43" fill="none" stroke="#8c8c8c" stroke-miterlimit="10" stroke-width="1.5"/>
      <path d="M204,120a27.2,27.2,0,0,0,4.28,7.69L204,126.14l-4.28,1.55A27.17,27.17,0,0,0,204,120Z" fill="#8c8c8c"/>
    </g>
    <g>
      <line x1="336" y1="150" x2="336" y2="125.43" fill="none" stroke="#8c8c8c" stroke-miterlimit="10" stroke-width="1.5"/>
      <path d="M336,120a27.2,27.2,0,0,0,4.28,7.69L336,126.14l-4.28,1.55A27.17,27.17,0,0,0,336,120Z" fill="#8c8c8c"/>
    </g>
    <g>
      <line x1="468" y1="150" x2="468" y2="125.43" fill="none" stroke="#8c8c8c" stroke-miterlimit="10" stroke-width="1.5"/>
      <path d="M468,120a27.2,27.2,0,0,0,4.28,7.69L468,126.14l-4.28,1.55A27.17,27.17,0,0,0,468,120Z" fill="#8c8c8c"/>
    </g>
    <g>
      <line x1="600" y1="150" x2="600" y2="125.43" fill="none" stroke="#8c8c8c" stroke-miterlimit="10" stroke-width="1.5"/>
      <path d="M600,120a27.2,27.2,0,0,0,4.28,7.69L600,126.14l-4.28,1.55A27.17,27.17,0,0,0,600,120Z" fill="#8c8c8c"/>
    </g>
    <g>
      <line x1="228" y1="174.5" x2="300.57" y2="174.5" fill="none" stroke="#8c8c8c" stroke-miterlimit="10" stroke-width="1.5"/>
      <path d="M306,174.5a27.2,27.2,0,0,0-7.69,4.28l1.55-4.28-1.55-4.28A27.18,27.18,0,0,0,306,174.5Z" fill="#8c8c8c"/>
    </g>
    <g>
      <line x1="360" y1="174.5" x2="432.57" y2="174.5" fill="none" stroke="#8c8c8c" stroke-miterlimit="10" stroke-width="1.5"/>
      <path d="M438,174.5a27.2,27.2,0,0,0-7.69,4.28l1.55-4.28-1.55-4.28A27.18,27.18,0,0,0,438,174.5Z" fill="#8c8c8c"/>
    </g>
    <g>
      <line x1="492" y1="174.5" x2="564.57" y2="174.5" fill="none" stroke="#8c8c8c" stroke-miterlimit="10" stroke-width="1.5"/>
      <path d="M570,174.5a27.2,27.2,0,0,0-7.69,4.28l1.55-4.28-1.55-4.28A27.18,27.18,0,0,0,570,174.5Z" fill="#8c8c8c"/>
    </g>
  </g>
</svg>
