<svg id="edges" xmlns="http://www.w3.org/2000/svg" xmlns:xlink="http://www.w3.org/1999/xlink" width="984" height="756" viewBox="0 0 984 756">
  <defs>
    <symbol id="array-5" data-name="array-5" viewBox="0 0 181 37">
      <rect x="0.5" y="0.5" width="180" height="36" rx="6" ry="6" fill="#fff" stroke="#8c8c8c" stroke-miterlimit="10"/>
      <line x1="36.25" y1="36.5" x2="36.25" y2="0.5" fill="none" stroke="#8c8c8c" stroke-miterlimit="10"/>
      <line x1="72.25" y1="36.5" x2="72.25" y2="0.5" fill="none" stroke="#8c8c8c" stroke-miterlimit="10"/>
      <line x1="108.25" y1="36.5" x2="108.25" y2="0.5" fill="none" stroke="#8c8c8c" stroke-miterlimit="10"/>
      <line x1="144.25" y1="36.5" x2="144.25" y2="0.5" fill="none" stroke="#8c8c8c" stroke-miterlimit="10"/>
    </symbol>
    <symbol id="array-1" data-name="array-1" viewBox="0 0 37 37">
      <rect x="0.5" y="0.5" width="36" height="36" rx="6" ry="6" fill="#fff" stroke="#8c8c8c" stroke-miterlimit="10"/>
    </symbol>
    <symbol id="array-3" data-name="array-3" viewBox="0 0 108.5 37">
      <rect x="0.5" y="0.5" width="107.5" height="36" rx="6" ry="6" fill="#fff" stroke="#8c8c8c" stroke-miterlimit="10"/>
      <line x1="36" y1="36.5" x2="36" y2="0.5" fill="none" stroke="#8c8c8c" stroke-miterlimit="10"/>
      <line x1="72" y1="36.5" x2="72" y2="0.5" fill="none" stroke="#8c8c8c" stroke-miterlimit="10"/>
    </symbol>
    <symbol id="array-negative-value" data-name="array-negative-value" viewBox="0 0 36 36">
      <rect width="36" height="36" fill="#0080f7" opacity="0"/>
      <rect x="4.42" y="4.42" width="27.17" height="27.17" rx="6" ry="6" fill="#ff2bb6" opacity="0.8"/>
    </symbol>
    <symbol id="array-positive-value" data-name="array-positive-value" viewBox="0 0 36 36">
      <rect width="36" height="36" fill="#0080f7" opacity="0"/>
      <rect x="4.42" y="4.42" width="27.17" height="27.17" rx="6" ry="6" fill="#0080f7" opacity="0.8"/>
    </symbol>
    <symbol id="array-vector" data-name="array-vector" viewBox="0 0 36 36">
      <rect width="36" height="36" fill="#0080f7" opacity="0"/>
      <g>
        <line x1="18" y1="24" x2="18" y2="13.08" fill="none" stroke="#8c8c8c" stroke-miterlimit="10"/>
        <polygon points="22.09 16.4 21.36 17.08 18 13.47 14.64 17.08 13.91 16.4 18 12 22.09 16.4" fill="#8c8c8c"/>
      </g>
    </symbol>
  </defs>
  <title>rnn</title>
  <g>
    <line x1="815.5" x2="816" y2="771" fill="#fff"/>
    <g>
      <line x1="815.5" x2="815.5" y2="1" fill="none" stroke="#919191" stroke-miterlimit="10" stroke-width="1.5"/>
      <line x1="815.5" y1="3" x2="816" y2="769" fill="none" stroke="#919191" stroke-miterlimit="10" stroke-width="1.5" stroke-dasharray="2 2"/>
    </g>
  </g>
  <g>
    <line x1="426" y1="60" x2="426" y2="94.86" fill="none" stroke="#8c8c8c" stroke-miterlimit="10" stroke-width="1.5"/>
    <polygon points="421.71 91.38 422.48 90.67 426 94.46 429.52 90.67 430.29 91.38 426 96 421.71 91.38" fill="#8c8c8c"/>
  </g>
  <g>
    <line x1="827.5" y1="108" x2="468.64" y2="108" fill="none" stroke="#8c8c8c" stroke-miterlimit="10" stroke-width="1.5"/>
    <polygon points="472.12 103.71 472.83 104.47 469.04 108 472.83 111.52 472.12 112.29 467.5 108 472.12 103.71" fill="#8c8c8c"/>
  </g>
  <g>
    <line x1="827.5" y1="378" x2="468.64" y2="378" fill="none" stroke="#8c8c8c" stroke-miterlimit="10" stroke-width="1.5"/>
    <polygon points="472.12 373.71 472.83 374.48 469.04 378 472.83 381.52 472.12 382.29 467.5 378 472.12 373.71" fill="#8c8c8c"/>
  </g>
  <g>
    <line x1="827.5" y1="504" x2="468.64" y2="504" fill="none" stroke="#8c8c8c" stroke-miterlimit="10" stroke-width="1.5"/>
    <polygon points="472.12 499.71 472.83 500.48 469.04 504 472.83 507.52 472.12 508.29 467.5 504 472.12 499.71" fill="#8c8c8c"/>
  </g>
  <g>
    <line x1="426" y1="119.82" x2="426" y2="154.68" fill="none" stroke="#8c8c8c" stroke-miterlimit="10" stroke-width="1.5"/>
    <polygon points="421.71 151.21 422.48 150.49 426 154.28 429.52 150.49 430.29 151.21 426 155.82 421.71 151.21" fill="#8c8c8c"/>
  </g>
  <g>
    <line x1="426" y1="191.82" x2="426" y2="226.68" fill="none" stroke="#8c8c8c" stroke-miterlimit="10" stroke-width="1.5"/>
    <polygon points="421.71 223.21 422.48 222.49 426 226.28 429.52 222.49 430.29 223.21 426 227.82 421.71 223.21" fill="#8c8c8c"/>
  </g>
  <g>
    <line x1="426" y1="252" x2="426" y2="286.86" fill="none" stroke="#8c8c8c" stroke-miterlimit="10" stroke-width="1.5"/>
    <polygon points="421.71 283.38 422.48 282.67 426 286.46 429.52 282.67 430.29 283.38 426 288 421.71 283.38" fill="#8c8c8c"/>
  </g>
  <g>
    <g opacity="0">
      <g>
        <line x1="665.75" y1="216" x2="665.75" y2="263.21" fill="none" stroke="#8c8c8c" stroke-miterlimit="10" stroke-width="1.5"/>
        <polygon points="661.46 259.74 662.23 259.02 665.75 262.81 669.27 259.02 670.04 259.74 665.75 264.35 661.46 259.74" fill="#8c8c8c"/>
      </g>
    </g>
    <g opacity="0.17">
      <g>
        <line x1="665.75" y1="221" x2="665.75" y2="263.21" fill="none" stroke="#8c8c8c" stroke-miterlimit="10" stroke-width="1.5"/>
        <polygon points="661.46 259.74 662.23 259.02 665.75 262.81 669.27 259.02 670.04 259.74 665.75 264.35 661.46 259.74" fill="#8c8c8c"/>
      </g>
    </g>
    <g opacity="0.33">
      <g>
        <line x1="665.75" y1="226" x2="665.75" y2="263.21" fill="none" stroke="#8c8c8c" stroke-miterlimit="10" stroke-width="1.5"/>
        <polygon points="661.46 259.74 662.23 259.02 665.75 262.81 669.27 259.02 670.04 259.74 665.75 264.35 661.46 259.74" fill="#8c8c8c"/>
      </g>
    </g>
    <g opacity="0.5">
      <g>
        <line x1="665.75" y1="231" x2="665.75" y2="263.21" fill="none" stroke="#8c8c8c" stroke-miterlimit="10" stroke-width="1.5"/>
        <polygon points="661.46 259.74 662.23 259.02 665.75 262.81 669.27 259.02 670.04 259.74 665.75 264.35 661.46 259.74" fill="#8c8c8c"/>
      </g>
    </g>
    <g opacity="0.67">
      <g>
        <line x1="665.75" y1="236" x2="665.75" y2="263.21" fill="none" stroke="#8c8c8c" stroke-miterlimit="10" stroke-width="1.5"/>
        <polygon points="661.46 259.74 662.23 259.02 665.75 262.81 669.27 259.02 670.04 259.74 665.75 264.35 661.46 259.74" fill="#8c8c8c"/>
      </g>
    </g>
    <g opacity="0.83">
      <g>
        <line x1="665.75" y1="241" x2="665.75" y2="263.21" fill="none" stroke="#8c8c8c" stroke-miterlimit="10" stroke-width="1.5"/>
        <polygon points="661.46 259.74 662.23 259.02 665.75 262.81 669.27 259.02 670.04 259.74 665.75 264.35 661.46 259.74" fill="#8c8c8c"/>
      </g>
    </g>
    <g>
      <line x1="665.75" y1="246" x2="665.75" y2="263.21" fill="none" stroke="#8c8c8c" stroke-miterlimit="10" stroke-width="1.5"/>
      <polygon points="661.46 259.74 662.23 259.02 665.75 262.81 669.27 259.02 670.04 259.74 665.75 264.35 661.46 259.74" fill="#8c8c8c"/>
    </g>
  </g>
  <g>
    <line x1="426" y1="323.82" x2="426" y2="358.68" fill="none" stroke="#8c8c8c" stroke-miterlimit="10" stroke-width="1.5"/>
    <polygon points="421.71 355.2 422.48 354.49 426 358.28 429.52 354.49 430.29 355.2 426 359.82 421.71 355.2" fill="#8c8c8c"/>
  </g>
  <g>
    <line x1="426" y1="383.82" x2="426" y2="418.68" fill="none" stroke="#8c8c8c" stroke-miterlimit="10" stroke-width="1.5"/>
    <polygon points="421.71 415.2 422.48 414.49 426 418.28 429.52 414.49 430.29 415.2 426 419.82 421.71 415.2" fill="#8c8c8c"/>
  </g>
  <g>
    <line x1="426" y1="456" x2="426" y2="490.86" fill="none" stroke="#8c8c8c" stroke-miterlimit="10" stroke-width="1.5"/>
    <polygon points="421.71 487.38 422.48 486.67 426 490.46 429.52 486.67 430.29 487.38 426 492 421.71 487.38" fill="#8c8c8c"/>
  </g>
  <g>
    <line x1="426" y1="515.82" x2="426" y2="550.68" fill="none" stroke="#8c8c8c" stroke-miterlimit="10" stroke-width="1.5"/>
    <polygon points="421.71 547.21 422.48 546.49 426 550.28 429.52 546.49 430.29 547.21 426 551.82 421.71 547.21" fill="#8c8c8c"/>
  </g>
  <g>
    <line x1="426" y1="588.82" x2="426" y2="623.68" fill="none" stroke="#8c8c8c" stroke-miterlimit="10" stroke-width="1.5"/>
    <polygon points="421.71 620.21 422.48 619.49 426 623.28 429.52 619.49 430.29 620.21 426 624.82 421.71 620.21" fill="#8c8c8c"/>
  </g>
  <g>
    <line x1="426" y1="647.82" x2="426" y2="682.68" fill="none" stroke="#8c8c8c" stroke-miterlimit="10" stroke-width="1.5"/>
    <polygon points="421.71 679.21 422.48 678.49 426 682.28 429.52 678.49 430.29 679.21 426 683.82 421.71 679.21" fill="#8c8c8c"/>
  </g>
  <g>
    <path d="M665.75,324v32a10,10,0,0,1-10,10H468.64" fill="none" stroke="#8c8c8c" stroke-miterlimit="10" stroke-width="1.5"/>
    <polygon points="472.12 361.71 472.83 362.48 469.04 366 472.83 369.52 472.12 370.29 467.5 366 472.12 361.71" fill="#8c8c8c"/>
  </g>
  <use id="array-5-3" data-name="array-5" width="181" height="37" transform="translate(335.25 287)" xlink:href="#array-5"/>
  <use width="181" height="37" transform="translate(575 288)" xlink:href="#array-5"/>
  <use width="181" height="37" transform="translate(335.25 419)" xlink:href="#array-5"/>
  <use width="181" height="37" transform="translate(335.25 552)" xlink:href="#array-5"/>
  <use width="181" height="37" transform="translate(335.25 683)" xlink:href="#array-5"/>
  <use width="37" height="37" transform="translate(827.5 354)" xlink:href="#array-1"/>
  <use id="array-3-3" data-name="array-3" width="108.5" height="37" transform="translate(827.5 485)" xlink:href="#array-3"/>
  <use width="181" height="37" transform="translate(335.25 155)" xlink:href="#array-5"/>
  <g id="dot">
    <use width="36" height="36" transform="translate(336 155.25)" xlink:href="#array-negative-value"/>
    <use width="36" height="36" transform="translate(372 155)" xlink:href="#array-positive-value"/>
    <use width="36" height="36" transform="translate(408 155)" xlink:href="#array-positive-value"/>
    <use width="36" height="36" transform="translate(444 155)" xlink:href="#array-positive-value"/>
    <use width="36" height="36" transform="translate(480 155)" xlink:href="#array-positive-value"/>
  </g>
  <use width="181" height="37" transform="translate(335.25 24)" xlink:href="#array-5"/>
  <g id="_Group_" data-name="&lt;Group&gt;">
    <path d="M467.5,108a12,12,0,0,1-12,12h-60a12,12,0,1,1,0-24h60a12,12,0,0,1,12,12h0Z" fill="#798294"/>
  </g>
  <g id="_Group_2" data-name="&lt;Group&gt;">
    <path d="M468,240a12,12,0,0,1-12,12H396a12,12,0,1,1,0-24h60a12,12,0,0,1,12,12h0Z" fill="#798294"/>
  </g>
  <g id="softmax">
    <use width="36" height="36" transform="translate(336 288)" xlink:href="#array-positive-value"/>
    <use width="36" height="36" transform="translate(372 288)" xlink:href="#array-positive-value"/>
    <use width="36" height="36" transform="translate(408 288)" xlink:href="#array-positive-value"/>
    <use width="36" height="36" transform="translate(444 288)" xlink:href="#array-positive-value"/>
    <use id="array-positive-value-19" data-name="array-positive-value" width="36" height="36" transform="translate(480 288)" xlink:href="#array-positive-value"/>
  </g>
  <g id="shift">
    <use width="36" height="36" transform="translate(828 486)" xlink:href="#array-positive-value"/>
    <use width="36" height="36" transform="translate(864 486)" xlink:href="#array-positive-value"/>
    <use width="36" height="36" transform="translate(900 486)" xlink:href="#array-positive-value"/>
  </g>
  <use id="interpolate-amount" width="36" height="36" transform="translate(828 354)" xlink:href="#array-positive-value"/>
  <g id="previous">
    <use width="36" height="36" transform="translate(575.75 288)" xlink:href="#array-positive-value"/>
    <use width="36" height="36" transform="translate(611.75 288)" xlink:href="#array-positive-value"/>
    <use width="36" height="36" transform="translate(647.75 288)" xlink:href="#array-positive-value"/>
    <use width="36" height="36" transform="translate(683.75 288)" xlink:href="#array-positive-value"/>
    <use width="36" height="36" transform="translate(719.75 288)" xlink:href="#array-positive-value"/>
  </g>
  <g id="_Group_3" data-name="&lt;Group&gt;">
    <path d="M468,372a12,12,0,0,1-12,12H396a12,12,0,1,1,0-24h60a12,12,0,0,1,12,12h0Z" fill="#798294"/>
  </g>
  <g id="interpolate">
    <use width="36" height="36" transform="translate(336 419)" xlink:href="#array-positive-value"/>
    <use width="36" height="36" transform="translate(372 419)" xlink:href="#array-positive-value"/>
    <use width="36" height="36" transform="translate(408 419)" xlink:href="#array-positive-value"/>
    <use width="36" height="36" transform="translate(444 419)" xlink:href="#array-positive-value"/>
    <use width="36" height="36" transform="translate(480 419)" xlink:href="#array-positive-value"/>
  </g>
  <g id="_Group_4" data-name="&lt;Group&gt;">
    <path d="M468,504a12,12,0,0,1-12,12H396a12,12,0,1,1,0-24h60a12,12,0,0,1,12,12h0Z" fill="#798294"/>
  </g>
  <g id="convolve">
    <use width="36" height="36" transform="translate(335.5 553)" xlink:href="#array-positive-value"/>
    <use width="36" height="36" transform="translate(372 553)" xlink:href="#array-positive-value"/>
    <use width="36" height="36" transform="translate(408 553)" xlink:href="#array-positive-value"/>
    <use width="36" height="36" transform="translate(444 553)" xlink:href="#array-positive-value"/>
    <use width="36" height="36" transform="translate(480 553)" xlink:href="#array-positive-value"/>
  </g>
  <g id="_Group_5" data-name="&lt;Group&gt;">
    <path d="M468,636a12,12,0,0,1-12,12H396a12,12,0,1,1,0-24h60a12,12,0,0,1,12,12h0Z" fill="#798294"/>
  </g>
  <g id="new-attention">
    <use width="36" height="36" transform="translate(336 683)" xlink:href="#array-positive-value"/>
    <use width="36" height="36" transform="translate(372 683)" xlink:href="#array-positive-value"/>
    <use width="36" height="36" transform="translate(408 683)" xlink:href="#array-positive-value"/>
    <use width="36" height="36" transform="translate(444 683)" xlink:href="#array-positive-value"/>
    <use width="36" height="36" transform="translate(480 683)" xlink:href="#array-positive-value"/>
  </g>
  <use width="37" height="37" transform="translate(827.5 89)" xlink:href="#array-1"/>
  <text transform="translate(168 93.12)" font-size="12" fill="#666" font-family="Open Sans">First, the controller gives <tspan x="0" y="18">a query vector and each </tspan><tspan x="0" y="36">memory entry is scored </tspan><tspan x="0" y="54">for similarity with the </tspan><tspan x="0" y="72">query.</tspan></text>
  <text transform="translate(169.5 224.12)" font-size="12" fill="#666" font-family="Open Sans">The scores are then <tspan x="0" y="18">converted into a </tspan><tspan x="0" y="36">distribution using </tspan><tspan x="0" y="54">softmax.</tspan></text>
  <text transform="translate(169.5 357.12)" font-size="12" fill="#666" font-family="Open Sans">Next, we interpolate the <tspan x="0" y="18">attention from the </tspan><tspan x="0" y="36">previous time step. </tspan></text>
  <text transform="translate(169.5 489.12)" font-size="12" fill="#666" font-family="Open Sans">We convolve the <tspan x="0" y="18">attention with a shift </tspan><tspan x="0" y="36">filter — this allows the </tspan><tspan x="0" y="54">controller to move its </tspan><tspan x="0" y="72">focus.</tspan></text>
  <text transform="translate(169.5 622.12)" font-size="12" fill="#666" font-family="Open Sans">Finally, we sharpen the <tspan x="0" y="18">attention distribution. </tspan><tspan x="0" y="36">This final attention </tspan><tspan x="0" y="54">distribution is fed to the </tspan><tspan x="0" y="72">read or write operation.</tspan></text>
  <text transform="translate(397.79 375)" font-size="11" fill="#fff" font-family="Open Sans">interpolate</text>
  <text transform="translate(403.37 507)" font-size="11" fill="#fff" font-family="Open Sans">convolve</text>
  <text transform="translate(404.86 639)" font-size="11" fill="#fff" font-family="Open Sans">sharpen</text>
  <text transform="translate(405.19 243)" font-size="11" fill="#fff" font-family="Open Sans">softmax</text>
  <text transform="translate(395.69 111.17)" font-size="11" fill="#fff" font-family="Open Sans">dot product</text>
  <use id="query" width="36" height="36" transform="translate(828 90)" xlink:href="#array-vector"/>
  <g id="memory">
    <use width="36" height="36" transform="translate(336 24)" xlink:href="#array-vector"/>
    <use width="36" height="36" transform="translate(372 24)" xlink:href="#array-vector"/>
    <use width="36" height="36" transform="translate(408 24)" xlink:href="#array-vector"/>
    <use width="36" height="36" transform="translate(444 24)" xlink:href="#array-vector"/>
    <use width="36" height="36" transform="translate(480 24)" xlink:href="#array-vector"/>
  </g>
  <text transform="translate(528.38 42)" font-size="12" fill="#666" font-family="Open Sans">memory</text>
  <text transform="translate(527.5 168.77)" font-size="12" fill="#666" font-family="Open Sans">Blue shows high similarity, <tspan x="0" y="18">pink high dissimilarity.</tspan></text>
  <text transform="translate(827.5 342)" font-size="12" fill="#666" font-family="Open Sans">interpolation amount</text>
  <text transform="translate(827.5 474)" font-size="12" fill="#666" font-family="Open Sans">shift filter</text>
  <text transform="translate(827.5 12)" font-size="12" fill="#666" font-family="Open Sans">RNN controller</text>
  <text transform="translate(684.32 12)" font-size="12" fill="#666" font-family="Open Sans">attention mechanism</text>
  <text transform="translate(827.5 78)" font-size="12" fill="#666" font-family="Open Sans">query vector</text>
  <text transform="translate(586.11 282)" font-size="12" fill="#666" font-family="Open Sans">attention from previous step</text>
  <text transform="translate(359.23 738)" font-size="11" font-family="Open Sans">new attention distribution</text>
  <text transform="translate(529 430.28)" font-size="12" fill="#666" font-family="Open Sans">Strong values from previous <tspan x="0" y="18">attention show up faintly</tspan></text>
  <circle id="query-hover" cx="845.37" cy="107.44" r="87.04" fill="#fff" fill-opacity="0"/>
  <circle id="interpolate-hover" cx="845.37" cy="369.04" r="41.37" fill="#fff" fill-opacity="0"/>
  <rect id="shift-hover" x="798" y="462" width="168" height="84" fill="#fff" fill-opacity="0"/>
</svg>
