<svg id="background" xmlns="http://www.w3.org/2000/svg" xmlns:xlink="http://www.w3.org/1999/xlink" width="984" height="222" viewBox="0 0 984 222">
  <defs>
    <symbol id="rnn-bg" data-name="rnn-bg" viewBox="0 0 49.5 49.5">
      <rect x="0.75" y="0.75" width="48" height="48" rx="6" ry="6" fill="#fff" stroke="#666" stroke-width="1.5"/>
    </symbol>
    <symbol id="rnn-a" data-name="rnn-a" viewBox="0 0 49.5 49.5">
      <use id="rnn-bg-3" data-name="rnn-bg" width="49.5" height="49.5" xlink:href="#rnn-bg"/>
      <path d="M29.77,31.75l-1.93-4.94H21.6l-1.91,4.94H17.86L24,16.14h1.52l6.11,15.61H29.77Zm-2.5-6.57-1.81-4.82q-0.35-.91-0.72-2.24a20.34,20.34,0,0,1-.67,2.24l-1.83,4.82h5Z" fill="#666"/>
    </symbol>
    <symbol id="op-1" data-name="op-1" viewBox="0 0 50.5 27.5">
      <g>
        <g opacity="0.1">
          <rect x="1.75" y="2.75" width="48" height="24" rx="12" ry="12"/>
          <rect x="1.75" y="2.75" width="48" height="24" rx="12" ry="12" fill="none" stroke="#000" stroke-miterlimit="10" stroke-width="1.5"/>
        </g>
        <g>
          <rect x="0.75" y="0.75" width="48" height="24" rx="12" ry="12" fill="#fff"/>
          <rect x="0.75" y="0.75" width="48" height="24" rx="12" ry="12" fill="none" stroke="#666" stroke-miterlimit="10" stroke-width="1.5"/>
        </g>
      </g>
      <g>
        <path d="M20,12a4.69,4.69,0,0,1-1,3.25,3.78,3.78,0,0,1-3,1.16,3.81,3.81,0,0,1-3-1.15A4.72,4.72,0,0,1,12,12a4.64,4.64,0,0,1,1-3.26,3.85,3.85,0,0,1,3-1.14,3.78,3.78,0,0,1,3,1.15A4.68,4.68,0,0,1,20,12Zm-6.54,0a3.84,3.84,0,0,0,.64,2.4,2.25,2.25,0,0,0,1.89.82,2.25,2.25,0,0,0,1.88-.81A3.85,3.85,0,0,0,18.5,12a3.86,3.86,0,0,0-.63-2.39A2.23,2.23,0,0,0,16,8.77a2.27,2.27,0,0,0-1.9.81A3.8,3.8,0,0,0,13.45,12Z" fill="#666"/>
        <path d="M25,16.39a2.27,2.27,0,0,1-1.91-.88H23q0.08,0.82.08,1v2.65H21.68V9.79H22.8q0,0.18.19,0.87h0.07a2.16,2.16,0,0,1,1.93-1,2.25,2.25,0,0,1,1.89.88A4,4,0,0,1,27.56,13a4,4,0,0,1-.69,2.48A2.27,2.27,0,0,1,25,16.39ZM24.64,10.8a1.43,1.43,0,0,0-1.2.48,2.49,2.49,0,0,0-.38,1.54V13a3,3,0,0,0,.38,1.71,1.39,1.39,0,0,0,1.22.53,1.24,1.24,0,0,0,1.1-.59A3,3,0,0,0,26.15,13a2.92,2.92,0,0,0-.38-1.65A1.28,1.28,0,0,0,24.64,10.8Z" fill="#666"/>
        <path d="M35.86,16.27H34.49V10.74q0-1,0-1.57l-0.33.31-1.32,1.08L32.2,9.69l2.52-2h1.15v8.57Z" fill="#666"/>
      </g>
    </symbol>
    <symbol id="op-2" data-name="op-2" viewBox="0 0 50.5 27.5">
      <g>
        <g opacity="0.1">
          <rect x="1.75" y="2.75" width="48" height="24" rx="12" ry="12"/>
          <rect x="1.75" y="2.75" width="48" height="24" rx="12" ry="12" fill="none" stroke="#000" stroke-miterlimit="10" stroke-width="1.5"/>
        </g>
        <g>
          <rect x="0.75" y="0.75" width="48" height="24" rx="12" ry="12" fill="#fff"/>
          <rect x="0.75" y="0.75" width="48" height="24" rx="12" ry="12" fill="none" stroke="#666" stroke-miterlimit="10" stroke-width="1.5"/>
        </g>
      </g>
      <g>
        <path d="M20,12a4.69,4.69,0,0,1-1,3.25,3.78,3.78,0,0,1-3,1.16,3.81,3.81,0,0,1-3-1.15A4.72,4.72,0,0,1,12,12a4.64,4.64,0,0,1,1-3.26,3.85,3.85,0,0,1,3-1.14,3.78,3.78,0,0,1,3,1.15A4.68,4.68,0,0,1,20,12Zm-6.54,0a3.84,3.84,0,0,0,.64,2.4,2.25,2.25,0,0,0,1.89.82,2.25,2.25,0,0,0,1.88-.81A3.85,3.85,0,0,0,18.5,12a3.86,3.86,0,0,0-.63-2.39A2.23,2.23,0,0,0,16,8.77a2.27,2.27,0,0,0-1.9.81A3.8,3.8,0,0,0,13.45,12Z" fill="#666"/>
        <path d="M25,16.39a2.27,2.27,0,0,1-1.91-.88H23q0.08,0.82.08,1v2.65H21.68V9.79H22.8q0,0.18.19,0.87h0.07a2.16,2.16,0,0,1,1.93-1,2.25,2.25,0,0,1,1.89.88A4,4,0,0,1,27.56,13a4,4,0,0,1-.69,2.48A2.27,2.27,0,0,1,25,16.39ZM24.64,10.8a1.43,1.43,0,0,0-1.2.48,2.49,2.49,0,0,0-.38,1.54V13a3,3,0,0,0,.38,1.71,1.39,1.39,0,0,0,1.22.53,1.24,1.24,0,0,0,1.1-.59A3,3,0,0,0,26.15,13a2.92,2.92,0,0,0-.38-1.65A1.28,1.28,0,0,0,24.64,10.8Z" fill="#666"/>
        <path d="M37.63,16.27H31.82v-1L34,13a18.79,18.79,0,0,0,1.3-1.42,3.39,3.39,0,0,0,.47-0.79A2.12,2.12,0,0,0,35.94,10a1.21,1.21,0,0,0-.35-0.91,1.34,1.34,0,0,0-1-.33,2.57,2.57,0,0,0-1,.18,4.46,4.46,0,0,0-1.06.66l-0.74-.91a4.8,4.8,0,0,1,1.39-.86,4.07,4.07,0,0,1,1.44-.25,2.82,2.82,0,0,1,1.92.62,2.11,2.11,0,0,1,.72,1.68,3,3,0,0,1-.21,1.1,4.48,4.48,0,0,1-.64,1.08A14.6,14.6,0,0,1,35,13.56L33.56,15v0.06h4.07v1.21Z" fill="#666"/>
      </g>
    </symbol>
    <symbol id="op-3" data-name="op-3" viewBox="0 0 50.5 27.5">
      <g>
        <g opacity="0.1">
          <rect x="1.75" y="2.75" width="48" height="24" rx="12" ry="12"/>
          <rect x="1.75" y="2.75" width="48" height="24" rx="12" ry="12" fill="none" stroke="#000" stroke-miterlimit="10" stroke-width="1.5"/>
        </g>
        <g>
          <rect x="0.75" y="0.75" width="48" height="24" rx="12" ry="12" fill="#fff"/>
          <rect x="0.75" y="0.75" width="48" height="24" rx="12" ry="12" fill="none" stroke="#666" stroke-miterlimit="10" stroke-width="1.5"/>
        </g>
      </g>
      <g>
        <path d="M20,12a4.69,4.69,0,0,1-1,3.25,3.78,3.78,0,0,1-3,1.16,3.81,3.81,0,0,1-3-1.15A4.72,4.72,0,0,1,12,12a4.64,4.64,0,0,1,1-3.26,3.85,3.85,0,0,1,3-1.14,3.78,3.78,0,0,1,3,1.15A4.68,4.68,0,0,1,20,12ZM13.5,12a3.84,3.84,0,0,0,.64,2.4,2.25,2.25,0,0,0,1.89.82,2.25,2.25,0,0,0,1.88-.81A3.85,3.85,0,0,0,18.55,12a3.86,3.86,0,0,0-.63-2.39A2.23,2.23,0,0,0,16,8.77a2.27,2.27,0,0,0-1.9.81A3.8,3.8,0,0,0,13.5,12Z" fill="#666"/>
        <path d="M25,16.39a2.27,2.27,0,0,1-1.91-.88H23q0.08,0.82.08,1v2.65H21.74V9.79h1.11q0,0.18.19,0.87h0.07a2.16,2.16,0,0,1,1.93-1,2.25,2.25,0,0,1,1.89.88A4,4,0,0,1,27.61,13a4,4,0,0,1-.69,2.48A2.27,2.27,0,0,1,25,16.39ZM24.69,10.8a1.43,1.43,0,0,0-1.2.48,2.49,2.49,0,0,0-.38,1.54V13a3,3,0,0,0,.38,1.71,1.39,1.39,0,0,0,1.22.53,1.24,1.24,0,0,0,1.1-.59A3,3,0,0,0,26.2,13a2.92,2.92,0,0,0-.38-1.65A1.28,1.28,0,0,0,24.69,10.8Z" fill="#666"/>
        <path d="M37.36,9.67A2,2,0,0,1,36.88,11a2.39,2.39,0,0,1-1.34.73v0a2.59,2.59,0,0,1,1.55.64,1.84,1.84,0,0,1,.52,1.36,2.26,2.26,0,0,1-.87,1.91,4,4,0,0,1-2.48.67,5.59,5.59,0,0,1-2.4-.46V14.7a5.49,5.49,0,0,0,1.15.42,5,5,0,0,0,1.17.15,2.47,2.47,0,0,0,1.49-.37,1.34,1.34,0,0,0,.49-1.14,1.09,1.09,0,0,0-.54-1,3.48,3.48,0,0,0-1.71-.32H33.16V11.3h0.76Q36,11.3,36,9.88A1,1,0,0,0,35.6,9a1.61,1.61,0,0,0-1.05-.3,3.19,3.19,0,0,0-.94.14,4.44,4.44,0,0,0-1.07.54l-0.67-1a4.49,4.49,0,0,1,2.74-.87,3.26,3.26,0,0,1,2,.56A1.83,1.83,0,0,1,37.36,9.67Z" fill="#666"/>
      </g>
    </symbol>
  </defs>
  <title>rnn</title>
  <g id="_Group_" data-name="&lt;Group&gt;">
    <rect x="168" y="138" width="468" height="72" rx="10" ry="10" opacity="0.04"/>
    <g opacity="0.1">
      <rect x="168" y="138" width="468" height="72" rx="10" ry="10" fill="none" stroke="#231f20"/>
    </g>
  </g>
  <g>
    <g opacity="0.1">
      <rect x="181" y="152" width="48" height="48" rx="6" ry="6" stroke="#000" stroke-width="1.5"/>
      <path d="M210,183l-1.93-4.94h-6.23L199.94,183h-1.83l6.14-15.61h1.52L211.89,183H210Zm-2.5-6.57-1.81-4.82q-0.35-.91-0.72-2.24a20.34,20.34,0,0,1-.67,2.24l-1.83,4.82h5Z"/>
    </g>
    <use width="49.5" height="49.5" transform="translate(179.25 149.25)" xlink:href="#rnn-a"/>
  </g>
  <g>
    <g opacity="0.1">
      <rect x="313" y="152" width="48" height="48" rx="6" ry="6" stroke="#000" stroke-width="1.5"/>
      <path d="M342,183l-1.93-4.94h-6.23L331.94,183h-1.83l6.14-15.61h1.52L343.89,183H342Zm-2.5-6.57-1.81-4.82q-0.35-.91-0.72-2.24a20.34,20.34,0,0,1-.67,2.24l-1.83,4.82h5Z"/>
    </g>
    <use width="49.5" height="49.5" transform="translate(311.25 149.25)" xlink:href="#rnn-a"/>
  </g>
  <g>
    <g opacity="0.1">
      <rect x="445" y="152" width="48" height="48" rx="6" ry="6" stroke="#000" stroke-width="1.5"/>
      <path d="M474,183l-1.93-4.94h-6.23L463.94,183h-1.83l6.14-15.61h1.52L475.89,183H474Zm-2.5-6.57-1.81-4.82q-0.35-.91-0.72-2.24a20.34,20.34,0,0,1-.67,2.24l-1.83,4.82h5Z"/>
    </g>
    <use width="49.5" height="49.5" transform="translate(443.25 149.25)" xlink:href="#rnn-a"/>
  </g>
  <g id="_Group_2" data-name="&lt;Group&gt;">
    <g opacity="0.1">
      <rect x="577" y="152" width="48" height="48" rx="6" ry="6" stroke="#000" stroke-width="1.5"/>
      <path d="M606,183l-1.93-4.94h-6.23L595.94,183h-1.83l6.14-15.61h1.52L607.89,183H606Zm-2.5-6.57-1.81-4.82q-0.35-.91-0.72-2.24a20.34,20.34,0,0,1-.67,2.24l-1.83,4.82h5Z"/>
    </g>
    <use width="49.5" height="49.5" transform="translate(575.25 149.25)" xlink:href="#rnn-a"/>
  </g>
  <g opacity="0.9">
    <use width="50.5" height="27.5" transform="translate(180 90)" xlink:href="#op-1"/>
  </g>
  <g opacity="0.2">
    <use width="50.5" height="27.5" transform="translate(180 54)" xlink:href="#op-2"/>
  </g>
  <g opacity="0.4">
    <use width="50.5" height="27.5" transform="translate(180 18)" xlink:href="#op-3"/>
  </g>
  <g opacity="0.2">
    <use width="50.5" height="27.5" transform="translate(312 90)" xlink:href="#op-1"/>
  </g>
  <g opacity="0.9">
    <use id="op-2-5" data-name="op-2" width="50.5" height="27.5" transform="translate(312 54)" xlink:href="#op-2"/>
  </g>
  <g opacity="0.2">
    <use width="50.5" height="27.5" transform="translate(312 18)" xlink:href="#op-3"/>
  </g>
  <g opacity="0.9">
    <use id="op-1-7" data-name="op-1" width="50.5" height="27.5" transform="translate(444 90)" xlink:href="#op-1"/>
  </g>
  <g opacity="0.2">
    <use width="50.5" height="27.5" transform="translate(444 54)" xlink:href="#op-2"/>
  </g>
  <g opacity="0.2">
    <use width="50.5" height="27.5" transform="translate(444 18)" xlink:href="#op-3"/>
  </g>
  <g opacity="0.2">
    <use width="50.5" height="27.5" transform="translate(576 90)" xlink:href="#op-1"/>
  </g>
  <g opacity="0.2">
    <use width="50.5" height="27.5" transform="translate(576 54)" xlink:href="#op-2"/>
  </g>
  <g opacity="0.9">
    <use id="op-3-9" data-name="op-3" width="50.5" height="27.5" transform="translate(576 18)" xlink:href="#op-3"/>
  </g>
  <g>
    <g>
      <line x1="204" y1="150" x2="204" y2="125.43" fill="none" stroke="#666" stroke-miterlimit="10" stroke-width="1.5"/>
      <path d="M204,120a27.2,27.2,0,0,0,4.28,7.69L204,126.14l-4.28,1.55A27.17,27.17,0,0,0,204,120Z" fill="#666"/>
    </g>
    <g>
      <line x1="336" y1="150" x2="336" y2="125.43" fill="none" stroke="#666" stroke-miterlimit="10" stroke-width="1.5"/>
      <path d="M336,120a27.2,27.2,0,0,0,4.28,7.69L336,126.14l-4.28,1.55A27.17,27.17,0,0,0,336,120Z" fill="#666"/>
    </g>
    <g>
      <line x1="468" y1="150" x2="468" y2="125.43" fill="none" stroke="#666" stroke-miterlimit="10" stroke-width="1.5"/>
      <path d="M468,120a27.2,27.2,0,0,0,4.28,7.69L468,126.14l-4.28,1.55A27.17,27.17,0,0,0,468,120Z" fill="#666"/>
    </g>
    <g>
      <line x1="600" y1="150" x2="600" y2="125.43" fill="none" stroke="#666" stroke-miterlimit="10" stroke-width="1.5"/>
      <path d="M600,120a27.2,27.2,0,0,0,4.28,7.69L600,126.14l-4.28,1.55A27.17,27.17,0,0,0,600,120Z" fill="#666"/>
    </g>
    <g>
      <line x1="228" y1="174.5" x2="300.57" y2="174.5" fill="none" stroke="#666" stroke-miterlimit="10" stroke-width="1.5"/>
      <path d="M306,174.5a27.2,27.2,0,0,0-7.69,4.28l1.55-4.28-1.55-4.28A27.18,27.18,0,0,0,306,174.5Z" fill="#666"/>
    </g>
    <g>
      <line x1="360" y1="174.5" x2="432.57" y2="174.5" fill="none" stroke="#666" stroke-miterlimit="10" stroke-width="1.5"/>
      <path d="M438,174.5a27.2,27.2,0,0,0-7.69,4.28l1.55-4.28-1.55-4.28A27.18,27.18,0,0,0,438,174.5Z" fill="#666"/>
    </g>
    <g>
      <line x1="492" y1="174.5" x2="564.57" y2="174.5" fill="none" stroke="#666" stroke-miterlimit="10" stroke-width="1.5"/>
      <path d="M570,174.5a27.2,27.2,0,0,0-7.69,4.28l1.55-4.28-1.55-4.28A27.18,27.18,0,0,0,570,174.5Z" fill="#666"/>
    </g>
  </g>
</svg>
