<svg id="edges" xmlns="http://www.w3.org/2000/svg" xmlns:xlink="http://www.w3.org/1999/xlink" width="984" height="744" viewBox="0 0 984 744">
  <defs>
    <symbol id="array-5" data-name="array-5" viewBox="0 0 181 37">
      <rect x="0.5" y="0.5" width="180" height="36" rx="6" ry="6" fill="#fff" stroke="#8c8c8c" stroke-miterlimit="10"/>
      <line x1="36.25" y1="36.5" x2="36.25" y2="0.5" fill="none" stroke="#8c8c8c" stroke-miterlimit="10"/>
      <line x1="72.25" y1="36.5" x2="72.25" y2="0.5" fill="none" stroke="#8c8c8c" stroke-miterlimit="10"/>
      <line x1="108.25" y1="36.5" x2="108.25" y2="0.5" fill="none" stroke="#8c8c8c" stroke-miterlimit="10"/>
      <line x1="144.25" y1="36.5" x2="144.25" y2="0.5" fill="none" stroke="#8c8c8c" stroke-miterlimit="10"/>
    </symbol>
    <symbol id="array-1" data-name="array-1" viewBox="0 0 37 37">
      <rect x="0.5" y="0.5" width="36" height="36" rx="6" ry="6" fill="#fff" stroke="#8c8c8c" stroke-miterlimit="10"/>
    </symbol>
    <symbol id="array-3" data-name="array-3" viewBox="0 0 108.5 37">
      <rect x="0.5" y="0.5" width="107.5" height="36" rx="6" ry="6" fill="#fff" stroke="#8c8c8c" stroke-miterlimit="10"/>
      <line x1="36" y1="36.5" x2="36" y2="0.5" fill="none" stroke="#8c8c8c" stroke-miterlimit="10"/>
      <line x1="72" y1="36.5" x2="72" y2="0.5" fill="none" stroke="#8c8c8c" stroke-miterlimit="10"/>
    </symbol>
    <symbol id="array-negative-value" data-name="array-negative-value" viewBox="0 0 36 36">
      <rect width="36" height="36" fill="#0080f7" opacity="0"/>
      <rect x="4.42" y="4.42" width="27.17" height="27.17" rx="6" ry="6" fill="#ff2bb6" opacity="0.8"/>
    </symbol>
    <symbol id="array-positive-value" data-name="array-positive-value" viewBox="0 0 36 36">
      <rect width="36" height="36" fill="#0080f7" opacity="0"/>
      <rect x="4.42" y="4.42" width="27.17" height="27.17" rx="6" ry="6" fill="#0080f7" opacity="0.8"/>
    </symbol>
    <symbol id="array-vector" data-name="array-vector" viewBox="0 0 36 36">
      <rect width="36" height="36" fill="#0080f7" opacity="0"/>
      <g>
        <line x1="18" y1="24" x2="18" y2="13.08" fill="none" stroke="#8c8c8c" stroke-miterlimit="10"/>
        <polygon points="22.09 16.4 21.36 17.08 18 13.47 14.64 17.08 13.91 16.4 18 12 22.09 16.4" fill="#8c8c8c"/>
      </g>
    </symbol>
  </defs>
  <title>rnn</title>
  <g>
    <line x1="815.5" x2="816" y2="741" fill="#fff"/>
    <g>
      <line x1="815.5" x2="815.5" y2="1" fill="none" stroke="#919191" stroke-miterlimit="10" stroke-width="1.5"/>
      <line x1="815.5" y1="3" x2="816" y2="739" fill="none" stroke="#919191" stroke-miterlimit="10" stroke-width="1.5" stroke-dasharray="2 2"/>
      <line x1="816" y1="740" x2="816" y2="741" fill="none" stroke="#919191" stroke-miterlimit="10" stroke-width="1.5"/>
    </g>
  </g>
  <g>
    <line x1="426" y1="48" x2="426" y2="82.86" fill="none" stroke="#8c8c8c" stroke-miterlimit="10" stroke-width="1.5"/>
    <polygon points="421.71 79.38 422.48 78.67 426 82.46 429.52 78.67 430.29 79.38 426 84 421.71 79.38" fill="#8c8c8c"/>
  </g>
  <g>
    <line x1="827.5" y1="96" x2="468.64" y2="96" fill="none" stroke="#8c8c8c" stroke-miterlimit="10" stroke-width="1.5"/>
    <polygon points="472.12 91.71 472.83 92.47 469.04 96 472.83 99.52 472.12 100.29 467.5 96 472.12 91.71" fill="#8c8c8c"/>
  </g>
  <g>
    <line x1="827.5" y1="366" x2="468.64" y2="366" fill="none" stroke="#8c8c8c" stroke-miterlimit="10" stroke-width="1.5"/>
    <polygon points="472.12 361.71 472.83 362.48 469.04 366 472.83 369.52 472.12 370.29 467.5 366 472.12 361.71" fill="#8c8c8c"/>
  </g>
  <g>
    <line x1="827.5" y1="492" x2="468.64" y2="492" fill="none" stroke="#8c8c8c" stroke-miterlimit="10" stroke-width="1.5"/>
    <polygon points="472.12 487.71 472.83 488.48 469.04 492 472.83 495.52 472.12 496.29 467.5 492 472.12 487.71" fill="#8c8c8c"/>
  </g>
  <g>
    <line x1="426" y1="107.82" x2="426" y2="142.68" fill="none" stroke="#8c8c8c" stroke-miterlimit="10" stroke-width="1.5"/>
    <polygon points="421.71 139.21 422.48 138.49 426 142.28 429.52 138.49 430.29 139.21 426 143.82 421.71 139.21" fill="#8c8c8c"/>
  </g>
  <g>
    <line x1="426" y1="179.82" x2="426" y2="214.68" fill="none" stroke="#8c8c8c" stroke-miterlimit="10" stroke-width="1.5"/>
    <polygon points="421.71 211.21 422.48 210.49 426 214.28 429.52 210.49 430.29 211.21 426 215.82 421.71 211.21" fill="#8c8c8c"/>
  </g>
  <g>
    <line x1="426" y1="240" x2="426" y2="274.86" fill="none" stroke="#8c8c8c" stroke-miterlimit="10" stroke-width="1.5"/>
    <polygon points="421.71 271.38 422.48 270.67 426 274.46 429.52 270.67 430.29 271.38 426 276 421.71 271.38" fill="#8c8c8c"/>
  </g>
  <g>
    <g opacity="0">
      <g>
        <line x1="665.75" y1="204" x2="665.75" y2="251.21" fill="none" stroke="#8c8c8c" stroke-miterlimit="10" stroke-width="1.5"/>
        <polygon points="661.46 247.74 662.23 247.02 665.75 250.81 669.27 247.02 670.04 247.74 665.75 252.35 661.46 247.74" fill="#8c8c8c"/>
      </g>
    </g>
    <g opacity="0.17">
      <g>
        <line x1="665.75" y1="209" x2="665.75" y2="251.21" fill="none" stroke="#8c8c8c" stroke-miterlimit="10" stroke-width="1.5"/>
        <polygon points="661.46 247.74 662.23 247.02 665.75 250.81 669.27 247.02 670.04 247.74 665.75 252.35 661.46 247.74" fill="#8c8c8c"/>
      </g>
    </g>
    <g opacity="0.33">
      <g>
        <line x1="665.75" y1="214" x2="665.75" y2="251.21" fill="none" stroke="#8c8c8c" stroke-miterlimit="10" stroke-width="1.5"/>
        <polygon points="661.46 247.74 662.23 247.02 665.75 250.81 669.27 247.02 670.04 247.74 665.75 252.35 661.46 247.74" fill="#8c8c8c"/>
      </g>
    </g>
    <g opacity="0.5">
      <g>
        <line x1="665.75" y1="219" x2="665.75" y2="251.21" fill="none" stroke="#8c8c8c" stroke-miterlimit="10" stroke-width="1.5"/>
        <polygon points="661.46 247.74 662.23 247.02 665.75 250.81 669.27 247.02 670.04 247.74 665.75 252.35 661.46 247.74" fill="#8c8c8c"/>
      </g>
    </g>
    <g opacity="0.67">
      <g>
        <line x1="665.75" y1="224" x2="665.75" y2="251.21" fill="none" stroke="#8c8c8c" stroke-miterlimit="10" stroke-width="1.5"/>
        <polygon points="661.46 247.74 662.23 247.02 665.75 250.81 669.27 247.02 670.04 247.74 665.75 252.35 661.46 247.74" fill="#8c8c8c"/>
      </g>
    </g>
    <g opacity="0.83">
      <g>
        <line x1="665.75" y1="229" x2="665.75" y2="251.21" fill="none" stroke="#8c8c8c" stroke-miterlimit="10" stroke-width="1.5"/>
        <polygon points="661.46 247.74 662.23 247.02 665.75 250.81 669.27 247.02 670.04 247.74 665.75 252.35 661.46 247.74" fill="#8c8c8c"/>
      </g>
    </g>
    <g>
      <line x1="665.75" y1="234" x2="665.75" y2="251.21" fill="none" stroke="#8c8c8c" stroke-miterlimit="10" stroke-width="1.5"/>
      <polygon points="661.46 247.74 662.23 247.02 665.75 250.81 669.27 247.02 670.04 247.74 665.75 252.35 661.46 247.74" fill="#8c8c8c"/>
    </g>
  </g>
  <g>
    <line x1="426" y1="311.82" x2="426" y2="346.68" fill="none" stroke="#8c8c8c" stroke-miterlimit="10" stroke-width="1.5"/>
    <polygon points="421.71 343.2 422.48 342.49 426 346.28 429.52 342.49 430.29 343.2 426 347.82 421.71 343.2" fill="#8c8c8c"/>
  </g>
  <g>
    <line x1="426" y1="371.82" x2="426" y2="406.68" fill="none" stroke="#8c8c8c" stroke-miterlimit="10" stroke-width="1.5"/>
    <polygon points="421.71 403.2 422.48 402.49 426 406.28 429.52 402.49 430.29 403.2 426 407.82 421.71 403.2" fill="#8c8c8c"/>
  </g>
  <g>
    <line x1="426" y1="444" x2="426" y2="478.86" fill="none" stroke="#8c8c8c" stroke-miterlimit="10" stroke-width="1.5"/>
    <polygon points="421.71 475.38 422.48 474.67 426 478.46 429.52 474.67 430.29 475.38 426 480 421.71 475.38" fill="#8c8c8c"/>
  </g>
  <g>
    <line x1="426" y1="503.82" x2="426" y2="538.68" fill="none" stroke="#8c8c8c" stroke-miterlimit="10" stroke-width="1.5"/>
    <polygon points="421.71 535.21 422.48 534.49 426 538.28 429.52 534.49 430.29 535.21 426 539.82 421.71 535.21" fill="#8c8c8c"/>
  </g>
  <g>
    <line x1="426" y1="576.82" x2="426" y2="611.68" fill="none" stroke="#8c8c8c" stroke-miterlimit="10" stroke-width="1.5"/>
    <polygon points="421.71 608.21 422.48 607.49 426 611.28 429.52 607.49 430.29 608.21 426 612.82 421.71 608.21" fill="#8c8c8c"/>
  </g>
  <g>
    <line x1="426" y1="635.82" x2="426" y2="670.68" fill="none" stroke="#8c8c8c" stroke-miterlimit="10" stroke-width="1.5"/>
    <polygon points="421.71 667.21 422.48 666.49 426 670.28 429.52 666.49 430.29 667.21 426 671.82 421.71 667.21" fill="#8c8c8c"/>
  </g>
  <g>
    <path d="M665.75,312v32a10,10,0,0,1-10,10H468.64" fill="none" stroke="#8c8c8c" stroke-miterlimit="10" stroke-width="1.5"/>
    <polygon points="472.12 349.71 472.83 350.48 469.04 354 472.83 357.52 472.12 358.29 467.5 354 472.12 349.71" fill="#8c8c8c"/>
  </g>
  <use id="array-5-3" data-name="array-5" width="181" height="37" transform="translate(335.25 275)" xlink:href="#array-5"/>
  <use width="181" height="37" transform="translate(575 276)" xlink:href="#array-5"/>
  <use width="181" height="37" transform="translate(335.25 407)" xlink:href="#array-5"/>
  <use width="181" height="37" transform="translate(335.25 540)" xlink:href="#array-5"/>
  <use width="181" height="37" transform="translate(335.25 671)" xlink:href="#array-5"/>
  <use width="37" height="37" transform="translate(827.5 342)" xlink:href="#array-1"/>
  <use id="array-3-3" data-name="array-3" width="108.5" height="37" transform="translate(827.5 473)" xlink:href="#array-3"/>
  <use width="181" height="37" transform="translate(335.25 143)" xlink:href="#array-5"/>
  <g id="dot">
    <use width="36" height="36" transform="translate(336 143.25)" xlink:href="#array-negative-value"/>
    <use width="36" height="36" transform="translate(372 143)" xlink:href="#array-positive-value"/>
    <use width="36" height="36" transform="translate(408 143)" xlink:href="#array-positive-value"/>
    <use width="36" height="36" transform="translate(444 143)" xlink:href="#array-positive-value"/>
    <use width="36" height="36" transform="translate(480 143)" xlink:href="#array-positive-value"/>
  </g>
  <use width="181" height="37" transform="translate(335.25 12)" xlink:href="#array-5"/>
  <g id="_Group_" data-name="&lt;Group&gt;">
    <g>
      <path d="M467.5,96a12,12,0,0,1-12,12h-60a12,12,0,1,1,0-24h60a12,12,0,0,1,12,12h0Z" fill="#fff"/>
      <path d="M468.33,96.5a12,12,0,0,1-12,12H394.67a12,12,0,0,1-12-12v-1a12,12,0,0,1,12-12h61.66a12,12,0,0,1,12,12v1Zm-84-.5a11.79,11.79,0,0,0,12,11.5h58.34a11.51,11.51,0,1,0,0-23H396.33A11.79,11.79,0,0,0,384.33,96Z" fill="#666"/>
    </g>
  </g>
  <g id="_Group_2" data-name="&lt;Group&gt;">
    <g>
      <path d="M468,228a12,12,0,0,1-12,12H396a12,12,0,1,1,0-24h60a12,12,0,0,1,12,12h0Z" fill="#fff"/>
      <path d="M468.83,228.5a12,12,0,0,1-12,12H395.17a12,12,0,0,1-12-12v-1a12,12,0,0,1,12-12h61.66a12,12,0,0,1,12,12v1Zm-84-.5a11.79,11.79,0,0,0,12,11.5h58.34a11.51,11.51,0,1,0,0-23H396.83A11.79,11.79,0,0,0,384.83,228Z" fill="#666"/>
    </g>
  </g>
  <g id="softmax">
    <use width="36" height="36" transform="translate(336 276)" xlink:href="#array-positive-value"/>
    <use width="36" height="36" transform="translate(372 276)" xlink:href="#array-positive-value"/>
    <use width="36" height="36" transform="translate(408 276)" xlink:href="#array-positive-value"/>
    <use width="36" height="36" transform="translate(444 276)" xlink:href="#array-positive-value"/>
    <use id="array-positive-value-19" data-name="array-positive-value" width="36" height="36" transform="translate(480 276)" xlink:href="#array-positive-value"/>
  </g>
  <g id="shift">
    <use width="36" height="36" transform="translate(828 474)" xlink:href="#array-positive-value"/>
    <use width="36" height="36" transform="translate(864 474)" xlink:href="#array-positive-value"/>
    <use width="36" height="36" transform="translate(900 474)" xlink:href="#array-positive-value"/>
  </g>
  <use id="interpolate-amount" width="36" height="36" transform="translate(828 342)" xlink:href="#array-positive-value"/>
  <g id="previous">
    <use width="36" height="36" transform="translate(575.75 276)" xlink:href="#array-positive-value"/>
    <use width="36" height="36" transform="translate(611.75 276)" xlink:href="#array-positive-value"/>
    <use width="36" height="36" transform="translate(647.75 276)" xlink:href="#array-positive-value"/>
    <use width="36" height="36" transform="translate(683.75 276)" xlink:href="#array-positive-value"/>
    <use width="36" height="36" transform="translate(719.75 276)" xlink:href="#array-positive-value"/>
  </g>
  <g id="_Group_3" data-name="&lt;Group&gt;">
    <g>
      <path d="M468,360a12,12,0,0,1-12,12H396a12,12,0,1,1,0-24h60a12,12,0,0,1,12,12h0Z" fill="#fff"/>
      <path d="M468.83,360.5a12,12,0,0,1-12,12H395.17a12,12,0,0,1-12-12v-1a12,12,0,0,1,12-12h61.66a12,12,0,0,1,12,12v1Zm-84-.5a11.79,11.79,0,0,0,12,11.5h58.34a11.51,11.51,0,1,0,0-23H396.83A11.79,11.79,0,0,0,384.83,360Z" fill="#666"/>
    </g>
  </g>
  <g id="interpolate">
    <use width="36" height="36" transform="translate(336 407)" xlink:href="#array-positive-value"/>
    <use width="36" height="36" transform="translate(372 407)" xlink:href="#array-positive-value"/>
    <use width="36" height="36" transform="translate(408 407)" xlink:href="#array-positive-value"/>
    <use width="36" height="36" transform="translate(444 407)" xlink:href="#array-positive-value"/>
    <use width="36" height="36" transform="translate(480 407)" xlink:href="#array-positive-value"/>
  </g>
  <g id="_Group_4" data-name="&lt;Group&gt;">
    <g>
      <path d="M468,492a12,12,0,0,1-12,12H396a12,12,0,1,1,0-24h60a12,12,0,0,1,12,12h0Z" fill="#fff"/>
      <path d="M468.83,492.5a12,12,0,0,1-12,12H395.17a12,12,0,0,1-12-12v-1a12,12,0,0,1,12-12h61.66a12,12,0,0,1,12,12v1Zm-84-.5a11.79,11.79,0,0,0,12,11.5h58.34a11.51,11.51,0,1,0,0-23H396.83A11.79,11.79,0,0,0,384.83,492Z" fill="#666"/>
    </g>
  </g>
  <g id="convolve">
    <use width="36" height="36" transform="translate(335.5 541)" xlink:href="#array-positive-value"/>
    <use width="36" height="36" transform="translate(372 541)" xlink:href="#array-positive-value"/>
    <use width="36" height="36" transform="translate(408 541)" xlink:href="#array-positive-value"/>
    <use width="36" height="36" transform="translate(444 541)" xlink:href="#array-positive-value"/>
    <use width="36" height="36" transform="translate(480 541)" xlink:href="#array-positive-value"/>
  </g>
  <g id="_Group_5" data-name="&lt;Group&gt;">
    <g>
      <path d="M468,624a12,12,0,0,1-12,12H396a12,12,0,1,1,0-24h60a12,12,0,0,1,12,12h0Z" fill="#fff"/>
      <path d="M468.83,624.5a12,12,0,0,1-12,12H395.17a12,12,0,0,1-12-12v-1a12,12,0,0,1,12-12h61.66a12,12,0,0,1,12,12v1Zm-84-.5a11.79,11.79,0,0,0,12,11.5h58.34a11.51,11.51,0,1,0,0-23H396.83A11.79,11.79,0,0,0,384.83,624Z" fill="#666"/>
    </g>
  </g>
  <g id="new-attention">
    <use width="36" height="36" transform="translate(336 671)" xlink:href="#array-positive-value"/>
    <use width="36" height="36" transform="translate(372 671)" xlink:href="#array-positive-value"/>
    <use width="36" height="36" transform="translate(408 671)" xlink:href="#array-positive-value"/>
    <use width="36" height="36" transform="translate(444 671)" xlink:href="#array-positive-value"/>
    <use width="36" height="36" transform="translate(480 671)" xlink:href="#array-positive-value"/>
  </g>
  <use width="37" height="37" transform="translate(827.5 77)" xlink:href="#array-1"/>
  <text transform="translate(168 81.12)" font-size="12" fill="#666" font-family="Open Sans">First, the controller gives <tspan x="0" y="18">a query vector and each </tspan><tspan x="0" y="36">memory entry is scored </tspan><tspan x="0" y="54">for similarity with the </tspan><tspan x="0" y="72">query.</tspan></text>
  <text transform="translate(169.5 212.12)" font-size="12" fill="#666" font-family="Open Sans">The scores are then <tspan x="0" y="18">converted into a </tspan><tspan x="0" y="36">distribution using </tspan><tspan x="0" y="54">softmax.</tspan></text>
  <text transform="translate(169.5 345.12)" font-size="12" fill="#666" font-family="Open Sans">Next, we interpolate the <tspan x="0" y="18">attention from the </tspan><tspan x="0" y="36">previous time step. </tspan></text>
  <text transform="translate(169.5 477.12)" font-size="12" fill="#666" font-family="Open Sans">We convolve the <tspan x="0" y="18">attention with a shift </tspan><tspan x="0" y="36">filter — this allows the </tspan><tspan x="0" y="54">controller to move its </tspan><tspan x="0" y="72">focus.</tspan></text>
  <text transform="translate(169.5 610.12)" font-size="12" fill="#666" font-family="Open Sans">Finally, we sharpen the <tspan x="0" y="18">attention distribution. </tspan><tspan x="0" y="36">This final attention </tspan><tspan x="0" y="54">distribution is fed to the </tspan><tspan x="0" y="72">read or write operation.</tspan></text>
  <text transform="translate(397.79 363)" font-size="11" fill="#666" font-family="Open Sans">interpolate</text>
  <text transform="translate(403.37 495)" font-size="11" fill="#666" font-family="Open Sans">convolve</text>
  <text transform="translate(404.86 627)" font-size="11" fill="#666" font-family="Open Sans">sharpen</text>
  <text transform="translate(405.19 231)" font-size="11" fill="#666" font-family="Open Sans">softmax</text>
  <text transform="translate(395.69 99.17)" font-size="11" fill="#666" font-family="Open Sans">dot product</text>
  <use id="query" width="36" height="36" transform="translate(828 78)" xlink:href="#array-vector"/>
  <g id="memory">
    <use width="36" height="36" transform="translate(336 12)" xlink:href="#array-vector"/>
    <use width="36" height="36" transform="translate(372 12)" xlink:href="#array-vector"/>
    <use width="36" height="36" transform="translate(408 12)" xlink:href="#array-vector"/>
    <use width="36" height="36" transform="translate(444 12)" xlink:href="#array-vector"/>
    <use width="36" height="36" transform="translate(480 12)" xlink:href="#array-vector"/>
  </g>
  <text transform="translate(528.38 30)" font-size="12" fill="#666" font-family="Open Sans">memory</text>
  <text transform="translate(527.5 156.77)" font-size="12" fill="#666" font-family="Open Sans">Blue shows high similarity, <tspan x="0" y="18">pink high dissimilarity.</tspan></text>
  <text transform="translate(827.5 330)" font-size="12" fill="#666" font-family="Open Sans">interpolation amount</text>
  <text transform="translate(827.5 462)" font-size="12" fill="#666" font-family="Open Sans">shift filter</text>
  <text transform="translate(827.5 12)" font-size="12" fill="#666" font-family="Open Sans">RNN controller</text>
  <text transform="translate(684.32 12)" font-size="12" fill="#666" font-family="Open Sans">attention mechanism</text>
  <text transform="translate(827.5 66)" font-size="12" fill="#666" font-family="Open Sans">query vector</text>
  <text transform="translate(586.11 270)" font-size="12" fill="#666" font-family="Open Sans">attention from previous step</text>
  <text transform="translate(359.23 726)" font-size="11" font-family="Open Sans">new attention distribution</text>
  <text transform="translate(529 418.28)" font-size="12" fill="#666" font-family="Open Sans">Strong values from previous <tspan x="0" y="18">attention show up faintly</tspan></text>
  <circle id="query-hover" cx="845.37" cy="95.44" r="87.04" fill="#fff" fill-opacity="0"/>
  <circle id="interpolate-hover" cx="845.37" cy="357.04" r="41.37" fill="#fff" fill-opacity="0"/>
  <rect id="shift-hover" x="798" y="450" width="168" height="84" fill="#fff" fill-opacity="0"/>
</svg>
