<svg id="background" xmlns="http://www.w3.org/2000/svg" xmlns:xlink="http://www.w3.org/1999/xlink" width="984" height="287" viewBox="0 0 984 287">
  <defs>
    <symbol id="rnn-bg" data-name="rnn-bg" viewBox="0 0 49.5 49.5">
      <rect x="0.75" y="0.75" width="48" height="48" rx="6" ry="6" fill="#fff" fill-opacity="0.8" stroke="#666" stroke-width="1.5"/>
    </symbol>
    <symbol id="rnn-s" data-name="rnn-s" viewBox="0 0 49.5 49.5">
      <use id="rnn-bg-3" data-name="rnn-bg" width="49.5" height="49.5" xlink:href="#rnn-bg"/>
      <path d="M29.68,27.61a3.81,3.81,0,0,1-1.49,3.2,6.46,6.46,0,0,1-4,1.15,10.1,10.1,0,0,1-4.25-.71V29.51a11.16,11.16,0,0,0,2.08.64,10.92,10.92,0,0,0,2.23.23,4.49,4.49,0,0,0,2.72-.69,2.25,2.25,0,0,0,.92-1.91,2.45,2.45,0,0,0-.32-1.32,3,3,0,0,0-1.08-1,15.14,15.14,0,0,0-2.31-1A7.38,7.38,0,0,1,21,22.68a4.06,4.06,0,0,1-.93-2.77A3.45,3.45,0,0,1,21.45,17,5.61,5.61,0,0,1,25,16a10.54,10.54,0,0,1,4.26.85l-0.56,1.57A9.63,9.63,0,0,0,25,17.6a3.62,3.62,0,0,0-2.24.62,2,2,0,0,0-.81,1.71,2.62,2.62,0,0,0,.3,1.32,2.8,2.8,0,0,0,1,.95,12.47,12.47,0,0,0,2.16,1A8.56,8.56,0,0,1,28.76,25,3.68,3.68,0,0,1,29.68,27.61Z" fill="#5b5b5b"/>
    </symbol>
    <symbol id="op-bg" data-name="op-bg" viewBox="0 0 24 24">
      <circle cx="12" cy="12" r="11.25" fill="#d8c2f2" stroke="#666" stroke-miterlimit="10" stroke-width="1.5"/>
    </symbol>
    <symbol id="op-sum_2" data-name="op-sum 2" viewBox="0 0 24 24">
      <use width="24" height="24" xlink:href="#op-bg"/>
      <path d="M9.88,9.08a1.77,1.77,0,0,1,.69-1.47,3,3,0,0,1,1.89-.54,4.84,4.84,0,0,1,1.87.38v1.1a5.22,5.22,0,0,0-1.88-.4,1.57,1.57,0,0,0-.93.25,0.78,0.78,0,0,0-.35.67q0,0.74,1.51,1.26a4.6,4.6,0,0,1,2.22,1.44A3.75,3.75,0,0,1,15.64,14v0.27a4.23,4.23,0,0,1-.4,1.87,3,3,0,0,1-1.15,1.28,3.29,3.29,0,0,1-1.74.45,3.08,3.08,0,0,1-2.42-1A3.86,3.86,0,0,1,9,14.22V14.13a3.42,3.42,0,0,1,.64-2A2.76,2.76,0,0,1,11.29,11v0a2.36,2.36,0,0,1-1-.75A1.76,1.76,0,0,1,9.88,9.08Zm0.42,5.2a3,3,0,0,0,.55,1.89,1.8,1.8,0,0,0,1.49.69,1.79,1.79,0,0,0,1.48-.69,3.23,3.23,0,0,0,.55-2,2.67,2.67,0,0,0-.58-1.67,2.35,2.35,0,0,0-1.43-.92,1.81,1.81,0,0,0-1.49.7A3.19,3.19,0,0,0,10.3,14.28Z" fill="#666"/>
    </symbol>
    <symbol id="op-sum" data-name="op-sum" viewBox="0 0 24 24">
      <use id="op-bg-5" data-name="op-bg" width="24" height="24" xlink:href="#op-bg"/>
      <path d="M7.88,12.5V11.18h3.41V7.75h1.34v3.43H16V12.5H12.62v3.42H11.29V12.5H7.88Z" fill="#666"/>
    </symbol>
  </defs>
  <title>rnn</title>
  <rect x="792" y="63" width="132" height="156" rx="10" ry="10" fill="#f0f0f5"/>
  <path d="M898,87.5H885.5a10,10,0,0,0-10,10v28a10,10,0,0,1-10,10H844" fill="none" stroke="#8359b2" stroke-miterlimit="10" stroke-width="1.5"/>
  <g>
    <line x1="840" y1="231" x2="840" y2="168.43" fill="none" stroke="#666" stroke-miterlimit="10" stroke-width="1.5"/>
    <path d="M840,163a27.2,27.2,0,0,0,4.28,7.69L840,169.14l-4.28,1.55A27.18,27.18,0,0,0,840,163Z" fill="#666"/>
  </g>
  <g>
    <path d="M900,87.5h32a10.16,10.16,0,0,1,10.11,10l0.29,27.5a10.42,10.42,0,0,0,10.1,10.21l8.57,0.18" fill="none" stroke="#666" stroke-miterlimit="10" stroke-width="1.5"/>
    <path d="M966.5,135.5a27.2,27.2,0,0,0-7.78,4.12l1.64-4.25-1.46-4.31A27.18,27.18,0,0,0,966.5,135.5Z" fill="#666"/>
  </g>
  <g>
    <path d="M900,87.5h32a10,10,0,0,0,10-10V50.43" fill="none" stroke="#666" stroke-miterlimit="10" stroke-width="1.5"/>
    <path d="M942,45a27.2,27.2,0,0,0,4.28,7.69L942,51.14l-4.28,1.55A27.18,27.18,0,0,0,942,45Z" fill="#666"/>
  </g>
  <g id="_Group_" data-name="&lt;Group&gt;">
    <g opacity="0.1">
      <rect x="817" y="113" width="48" height="48" rx="6" ry="6" opacity="0.8"/>
      <rect x="817" y="113" width="48" height="48" rx="6" ry="6" fill="none" stroke="#000" stroke-width="1.5"/>
      <rect x="817" y="113" width="48" height="48" rx="6" ry="6" fill="none" stroke="#000" stroke-width="1.5"/>
      <rect x="817" y="113" width="48" height="48" rx="6" ry="6" fill="none" stroke="#000" stroke-width="1.5"/>
      <path d="M845.93,139.86a3.81,3.81,0,0,1-1.49,3.2,6.46,6.46,0,0,1-4,1.15,10.1,10.1,0,0,1-4.25-.71v-1.74a11.16,11.16,0,0,0,2.08.64,10.92,10.92,0,0,0,2.23.23,4.49,4.49,0,0,0,2.72-.69,2.25,2.25,0,0,0,.92-1.91,2.45,2.45,0,0,0-.32-1.32,3,3,0,0,0-1.08-1,15.14,15.14,0,0,0-2.31-1,7.38,7.38,0,0,1-3.1-1.84,4.06,4.06,0,0,1-.93-2.77,3.45,3.45,0,0,1,1.35-2.86,5.61,5.61,0,0,1,3.57-1.06,10.54,10.54,0,0,1,4.26.85L845,130.66a9.63,9.63,0,0,0-3.74-.81,3.62,3.62,0,0,0-2.24.62,2,2,0,0,0-.81,1.71,2.62,2.62,0,0,0,.3,1.32,2.8,2.8,0,0,0,1,.95,12.47,12.47,0,0,0,2.16,1,8.56,8.56,0,0,1,3.37,1.87A3.68,3.68,0,0,1,845.93,139.86Z"/>
    </g>
    <use width="49.5" height="49.5" transform="translate(815.25 110.25)" xlink:href="#rnn-s"/>
  </g>
  <g>
    <g opacity="0.1">
      <circle cx="841.75" cy="190.25" r="11.25" stroke="#000" stroke-miterlimit="10" stroke-width="1.5"/>
      <path d="M839.63,187.33a1.77,1.77,0,0,1,.69-1.47,3,3,0,0,1,1.89-.54,4.84,4.84,0,0,1,1.87.38v1.1a5.22,5.22,0,0,0-1.88-.4,1.57,1.57,0,0,0-.93.25,0.78,0.78,0,0,0-.35.67q0,0.74,1.51,1.26a4.6,4.6,0,0,1,2.22,1.44,3.75,3.75,0,0,1,.74,2.26v0.27a4.23,4.23,0,0,1-.4,1.87,3,3,0,0,1-1.15,1.28,3.29,3.29,0,0,1-1.74.45,3.08,3.08,0,0,1-2.42-1,3.86,3.86,0,0,1-.9-2.66v-0.09a3.42,3.42,0,0,1,.64-2,2.76,2.76,0,0,1,1.63-1.14v0a2.36,2.36,0,0,1-1-.75A1.76,1.76,0,0,1,839.63,187.33Zm0.42,5.2a3,3,0,0,0,.55,1.89,1.94,1.94,0,0,0,3,0,3.23,3.23,0,0,0,.55-2,2.67,2.67,0,0,0-.58-1.67,2.35,2.35,0,0,0-1.43-.92,1.81,1.81,0,0,0-1.49.7A3.19,3.19,0,0,0,840.05,192.53Z"/>
    </g>
    <use width="24" height="24" transform="translate(828.75 176.25)" xlink:href="#op-sum_2"/>
  </g>
  <g id="_Group_2" data-name="&lt;Group&gt;">
    <g opacity="0.1">
      <circle cx="899.75" cy="89.39" r="11.25" stroke="#000" stroke-miterlimit="10" stroke-width="1.5"/>
      <path d="M895.63,89.88V88.57H899V85.14h1.34v3.43h3.41v1.31h-3.41V93.3H899V89.88h-3.41Z"/>
    </g>
    <use width="24" height="24" transform="translate(886.75 75.39)" xlink:href="#op-sum"/>
  </g>
  <text transform="translate(65 15.12)" font-size="12" fill="#666" font-family="Open Sans">For every time step the RNN can <tspan x="0" y="18">do multiple computation steps.</tspan></text>
  <text transform="translate(335.67 15.12)" font-size="12" fill="#666" font-family="Open Sans">The output is a weighted combination <tspan x="0" y="18">of the computation step outputs</tspan></text>
  <text transform="translate(639.67 15.12)" font-size="12" fill="#666" font-family="Open Sans">The process is repeated <tspan x="0" y="18">for each time step</tspan></text>
  <g id="_Group_3" data-name="&lt;Group&gt;">
    <rect x="468" y="63" width="275.67" height="156" rx="10" ry="10" fill="#f0f0f5"/>
  </g>
  <path d="M707.33,87h-74.5a10,10,0,0,0-10,10v28.5a10,10,0,0,1-10,10h-21.5" fill="none" stroke="#8359b2" stroke-miterlimit="10" stroke-width="1.5"/>
  <g opacity="0.4">
    <path d="M719.33,91h-14.5a10,10,0,0,0-10,10v24.5a10,10,0,0,1-10,10h-21.5" fill="none" stroke="#8359b2" stroke-miterlimit="10" stroke-width="1.5"/>
  </g>
  <g opacity="0.4">
    <path d="M519.33,135.5l22-.34a10.22,10.22,0,0,0,10-10.16V93.5a10.07,10.07,0,0,1,10-10l146-.47" fill="none" stroke="#8359b2" stroke-miterlimit="10" stroke-width="1.5"/>
  </g>
  <g>
    <line x1="515.33" y1="231" x2="515.33" y2="168.43" fill="none" stroke="#666" stroke-miterlimit="10" stroke-width="1.5"/>
    <path d="M515.33,163a27.2,27.2,0,0,0,4.28,7.69l-4.28-1.55-4.28,1.55A27.18,27.18,0,0,0,515.33,163Z" fill="#666"/>
  </g>
  <g>
    <path d="M515.33,231V217a10,10,0,0,1,10-10h51.5a10,10,0,0,0,10-10V168.43" fill="none" stroke="#666" stroke-miterlimit="10" stroke-width="1.5"/>
    <path d="M586.83,163a27.2,27.2,0,0,0,4.28,7.69l-4.28-1.55-4.28,1.55A27.18,27.18,0,0,0,586.83,163Z" fill="#666"/>
  </g>
  <g>
    <path d="M538.83,207h110.5a10,10,0,0,0,10-10V168.43" fill="none" stroke="#666" stroke-miterlimit="10" stroke-width="1.5"/>
    <path d="M659.33,163a27.2,27.2,0,0,0,4.28,7.69l-4.28-1.55-4.28,1.55A27.18,27.18,0,0,0,659.33,163Z" fill="#666"/>
  </g>
  <g>
    <line x1="539.33" y1="135.5" x2="555.9" y2="135.5" fill="none" stroke="#666" stroke-miterlimit="10" stroke-width="1.5"/>
    <path d="M561.33,135.5a27.2,27.2,0,0,0-7.69,4.28l1.55-4.28-1.55-4.28A27.17,27.17,0,0,0,561.33,135.5Z" fill="#666"/>
  </g>
  <g>
    <line x1="611.33" y1="135.5" x2="627.9" y2="135.5" fill="none" stroke="#666" stroke-miterlimit="10" stroke-width="1.5"/>
    <path d="M633.33,135.5a27.2,27.2,0,0,0-7.69,4.28l1.55-4.28-1.55-4.28A27.17,27.17,0,0,0,633.33,135.5Z" fill="#666"/>
  </g>
  <g>
    <path d="M719.33,87.5h32.5a9.9,9.9,0,0,1,9.9,10l-0.29,28a9.9,9.9,0,0,0,9.9,10H806.4" fill="none" stroke="#666" stroke-miterlimit="10" stroke-width="1.5"/>
    <path d="M811.83,135.5a27.2,27.2,0,0,0-7.69,4.28l1.55-4.28-1.55-4.28A27.17,27.17,0,0,0,811.83,135.5Z" fill="#666"/>
  </g>
  <g>
    <path d="M719.33,87.5h32.5a10,10,0,0,0,10-10V50.43" fill="none" stroke="#666" stroke-miterlimit="10" stroke-width="1.5"/>
    <path d="M761.83,45a27.2,27.2,0,0,0,4.28,7.69l-4.28-1.55-4.28,1.55A27.18,27.18,0,0,0,761.83,45Z" fill="#666"/>
  </g>
  <g>
    <g opacity="0.1">
      <circle cx="517.08" cy="190.25" r="11.25" stroke="#000" stroke-miterlimit="10" stroke-width="1.5"/>
      <path d="M515,187.33a1.77,1.77,0,0,1,.69-1.47,3,3,0,0,1,1.89-.54,4.84,4.84,0,0,1,1.87.38v1.1a5.22,5.22,0,0,0-1.88-.4,1.57,1.57,0,0,0-.93.25,0.78,0.78,0,0,0-.35.67q0,0.74,1.51,1.26A4.6,4.6,0,0,1,520,190a3.75,3.75,0,0,1,.74,2.26v0.27a4.23,4.23,0,0,1-.4,1.87,3,3,0,0,1-1.15,1.28,3.29,3.29,0,0,1-1.74.45,3.08,3.08,0,0,1-2.42-1,3.86,3.86,0,0,1-.9-2.66v-0.09a3.42,3.42,0,0,1,.64-2,2.76,2.76,0,0,1,1.63-1.14v0a2.36,2.36,0,0,1-1-.75A1.76,1.76,0,0,1,515,187.33Zm0.42,5.2a3,3,0,0,0,.55,1.89,1.94,1.94,0,0,0,3,0,3.23,3.23,0,0,0,.55-2,2.67,2.67,0,0,0-.58-1.67,2.35,2.35,0,0,0-1.43-.92,1.81,1.81,0,0,0-1.49.7A3.19,3.19,0,0,0,515.39,192.53Z"/>
    </g>
    <use width="24" height="24" transform="translate(504.08 176.25)" xlink:href="#op-sum_2"/>
  </g>
  <g id="_Group_4" data-name="&lt;Group&gt;">
    <g opacity="0.1">
      <rect x="492.33" y="113" width="48" height="48" rx="6" ry="6" opacity="0.8"/>
      <rect x="492.33" y="113" width="48" height="48" rx="6" ry="6" fill="none" stroke="#000" stroke-width="1.5"/>
      <rect x="492.33" y="113" width="48" height="48" rx="6" ry="6" fill="none" stroke="#000" stroke-width="1.5"/>
      <rect x="492.33" y="113" width="48" height="48" rx="6" ry="6" fill="none" stroke="#000" stroke-width="1.5"/>
      <path d="M521.27,139.86a3.81,3.81,0,0,1-1.49,3.2,6.46,6.46,0,0,1-4,1.15,10.1,10.1,0,0,1-4.25-.71v-1.74a11.16,11.16,0,0,0,2.08.64,10.92,10.92,0,0,0,2.23.23,4.49,4.49,0,0,0,2.72-.69,2.25,2.25,0,0,0,.92-1.91,2.45,2.45,0,0,0-.32-1.32,3,3,0,0,0-1.08-1,15.14,15.14,0,0,0-2.31-1,7.38,7.38,0,0,1-3.1-1.84,4.06,4.06,0,0,1-.93-2.77A3.45,3.45,0,0,1,513,129.3a5.61,5.61,0,0,1,3.57-1.06,10.54,10.54,0,0,1,4.26.85l-0.56,1.57a9.63,9.63,0,0,0-3.74-.81,3.62,3.62,0,0,0-2.24.62,2,2,0,0,0-.81,1.71,2.62,2.62,0,0,0,.3,1.32,2.8,2.8,0,0,0,1,.95,12.47,12.47,0,0,0,2.16,1,8.56,8.56,0,0,1,3.37,1.87A3.68,3.68,0,0,1,521.27,139.86Z"/>
    </g>
    <use width="49.5" height="49.5" transform="translate(490.58 110.25)" xlink:href="#rnn-s"/>
  </g>
  <g id="_Group_5" data-name="&lt;Group&gt;">
    <g opacity="0.1">
      <rect x="564.33" y="113" width="48" height="48" rx="6" ry="6" opacity="0.8"/>
      <rect x="564.33" y="113" width="48" height="48" rx="6" ry="6" fill="none" stroke="#000" stroke-width="1.5"/>
      <rect x="564.33" y="113" width="48" height="48" rx="6" ry="6" fill="none" stroke="#000" stroke-width="1.5"/>
      <rect x="564.33" y="113" width="48" height="48" rx="6" ry="6" fill="none" stroke="#000" stroke-width="1.5"/>
      <path d="M593.27,139.86a3.81,3.81,0,0,1-1.49,3.2,6.46,6.46,0,0,1-4,1.15,10.1,10.1,0,0,1-4.25-.71v-1.74a11.16,11.16,0,0,0,2.08.64,10.92,10.92,0,0,0,2.23.23,4.49,4.49,0,0,0,2.72-.69,2.25,2.25,0,0,0,.92-1.91,2.45,2.45,0,0,0-.32-1.32,3,3,0,0,0-1.08-1,15.14,15.14,0,0,0-2.31-1,7.38,7.38,0,0,1-3.1-1.84,4.06,4.06,0,0,1-.93-2.77A3.45,3.45,0,0,1,585,129.3a5.61,5.61,0,0,1,3.57-1.06,10.54,10.54,0,0,1,4.26.85l-0.56,1.57a9.63,9.63,0,0,0-3.74-.81,3.62,3.62,0,0,0-2.24.62,2,2,0,0,0-.81,1.71,2.62,2.62,0,0,0,.3,1.32,2.8,2.8,0,0,0,1,.95,12.47,12.47,0,0,0,2.16,1,8.56,8.56,0,0,1,3.37,1.87A3.68,3.68,0,0,1,593.27,139.86Z"/>
    </g>
    <use width="49.5" height="49.5" transform="translate(562.58 110.25)" xlink:href="#rnn-s"/>
  </g>
  <g id="_Group_6" data-name="&lt;Group&gt;">
    <g opacity="0.1">
      <rect x="636.33" y="113" width="48" height="48" rx="6" ry="6" opacity="0.8"/>
      <rect x="636.33" y="113" width="48" height="48" rx="6" ry="6" fill="none" stroke="#000" stroke-width="1.5"/>
      <rect x="636.33" y="113" width="48" height="48" rx="6" ry="6" fill="none" stroke="#000" stroke-width="1.5"/>
      <rect x="636.33" y="113" width="48" height="48" rx="6" ry="6" fill="none" stroke="#000" stroke-width="1.5"/>
      <path d="M665.27,139.86a3.81,3.81,0,0,1-1.49,3.2,6.46,6.46,0,0,1-4,1.15,10.1,10.1,0,0,1-4.25-.71v-1.74a11.16,11.16,0,0,0,2.08.64,10.92,10.92,0,0,0,2.23.23,4.49,4.49,0,0,0,2.72-.69,2.25,2.25,0,0,0,.92-1.91,2.45,2.45,0,0,0-.32-1.32,3,3,0,0,0-1.08-1,15.14,15.14,0,0,0-2.31-1,7.38,7.38,0,0,1-3.1-1.84,4.06,4.06,0,0,1-.93-2.77A3.45,3.45,0,0,1,657,129.3a5.61,5.61,0,0,1,3.57-1.06,10.54,10.54,0,0,1,4.26.85l-0.56,1.57a9.63,9.63,0,0,0-3.74-.81,3.62,3.62,0,0,0-2.24.62,2,2,0,0,0-.81,1.71,2.62,2.62,0,0,0,.3,1.32,2.8,2.8,0,0,0,1,.95,12.47,12.47,0,0,0,2.16,1,8.56,8.56,0,0,1,3.37,1.87A3.68,3.68,0,0,1,665.27,139.86Z"/>
    </g>
    <use width="49.5" height="49.5" transform="translate(634.58 110.25)" xlink:href="#rnn-s"/>
  </g>
  <g id="_Group_7" data-name="&lt;Group&gt;">
    <g opacity="0.1">
      <circle cx="719.58" cy="89.39" r="11.25" stroke="#000" stroke-miterlimit="10" stroke-width="1.5"/>
      <path d="M715.46,89.88V88.57h3.41V85.14h1.34v3.43h3.41v1.31h-3.41V93.3h-1.34V89.88h-3.41Z"/>
    </g>
    <use width="24" height="24" transform="translate(706.58 75.39)" xlink:href="#op-sum"/>
  </g>
  <g id="_Group_8" data-name="&lt;Group&gt;">
    <rect x="66" y="63" width="348" height="156" rx="10" ry="10" fill="#f0f0f5"/>
  </g>
  <g opacity="0.2">
    <path d="M118,135.5h21.5a10,10,0,0,0,10-10v-34a10,10,0,0,1,10-10H389" fill="none" stroke="#8359b2" stroke-miterlimit="10" stroke-width="1.5"/>
  </g>
  <g opacity="0.5">
    <path d="M190,135.5h21.5a10,10,0,0,0,10-10v-30a10,10,0,0,1,10-10H389" fill="none" stroke="#8359b2" stroke-miterlimit="10" stroke-width="1.5"/>
  </g>
  <path d="M389,89.5H303.5a10,10,0,0,0-10,10v26a10,10,0,0,1-10,10H262" fill="none" stroke="#8359b2" stroke-miterlimit="10" stroke-width="1.5"/>
  <g opacity="0.2">
    <path d="M389,93.5H375.5a10,10,0,0,0-10,10v22a10,10,0,0,1-10,10H334" fill="none" stroke="#8359b2" stroke-miterlimit="10" stroke-width="1.5"/>
  </g>
  <g>
    <line x1="114" y1="231" x2="114" y2="168.43" fill="none" stroke="#666" stroke-miterlimit="10" stroke-width="1.5"/>
    <path d="M114,163a27.2,27.2,0,0,0,4.28,7.69L114,169.14l-4.28,1.55A27.18,27.18,0,0,0,114,163Z" fill="#666"/>
  </g>
  <g>
    <path d="M138,207H248.5a10,10,0,0,0,10-10V168.43" fill="none" stroke="#666" stroke-miterlimit="10" stroke-width="1.5"/>
    <path d="M258.5,163a27.2,27.2,0,0,0,4.28,7.69l-4.28-1.55-4.28,1.55A27.18,27.18,0,0,0,258.5,163Z" fill="#666"/>
  </g>
  <g>
    <path d="M114,231V217a10,10,0,0,1,10-10H320.5a10,10,0,0,0,10-10V168.43" fill="none" stroke="#666" stroke-miterlimit="10" stroke-width="1.5"/>
    <path d="M330.5,163a27.2,27.2,0,0,0,4.28,7.69l-4.28-1.55-4.28,1.55A27.18,27.18,0,0,0,330.5,163Z" fill="#666"/>
  </g>
  <g>
    <line x1="138" y1="135.5" x2="154.57" y2="135.5" fill="none" stroke="#666" stroke-miterlimit="10" stroke-width="1.5"/>
    <path d="M160,135.5a27.2,27.2,0,0,0-7.69,4.28l1.55-4.28-1.55-4.28A27.18,27.18,0,0,0,160,135.5Z" fill="#666"/>
  </g>
  <g>
    <line x1="210" y1="135.5" x2="226.57" y2="135.5" fill="none" stroke="#666" stroke-miterlimit="10" stroke-width="1.5"/>
    <path d="M232,135.5a27.2,27.2,0,0,0-7.69,4.28l1.55-4.28-1.55-4.28A27.18,27.18,0,0,0,232,135.5Z" fill="#666"/>
  </g>
  <g>
    <line x1="282" y1="135.5" x2="298.57" y2="135.5" fill="none" stroke="#666" stroke-miterlimit="10" stroke-width="1.5"/>
    <path d="M304,135.5a27.2,27.2,0,0,0-7.69,4.28l1.55-4.28-1.55-4.28A27.18,27.18,0,0,0,304,135.5Z" fill="#666"/>
  </g>
  <g>
    <path d="M390,87.5h32.5a9.9,9.9,0,0,1,9.9,10l-0.29,28a9.9,9.9,0,0,0,9.9,10h36.74" fill="none" stroke="#666" stroke-miterlimit="10" stroke-width="1.5"/>
    <path d="M484.17,135.5a27.2,27.2,0,0,0-7.69,4.28L478,135.5l-1.55-4.28A27.18,27.18,0,0,0,484.17,135.5Z" fill="#666"/>
  </g>
  <g>
    <path d="M387,87.5h35.5a10,10,0,0,0,10-10V50.43" fill="none" stroke="#666" stroke-miterlimit="10" stroke-width="1.5"/>
    <path d="M432.5,45a27.2,27.2,0,0,0,4.28,7.69l-4.28-1.55-4.28,1.55A27.18,27.18,0,0,0,432.5,45Z" fill="#666"/>
  </g>
  <g>
    <path d="M138,207h38.5a10,10,0,0,0,10-10V168.43" fill="none" stroke="#666" stroke-miterlimit="10" stroke-width="1.5"/>
    <path d="M186.5,163a27.2,27.2,0,0,0,4.28,7.69l-4.28-1.55-4.28,1.55A27.18,27.18,0,0,0,186.5,163Z" fill="#666"/>
  </g>
  <g id="_Group_9" data-name="&lt;Group&gt;">
    <g opacity="0.1">
      <rect x="91" y="113" width="48" height="48" rx="6" ry="6" opacity="0.8"/>
      <rect x="91" y="113" width="48" height="48" rx="6" ry="6" fill="none" stroke="#000" stroke-width="1.5"/>
      <rect x="91" y="113" width="48" height="48" rx="6" ry="6" fill="none" stroke="#000" stroke-width="1.5"/>
      <rect x="91" y="113" width="48" height="48" rx="6" ry="6" fill="none" stroke="#000" stroke-width="1.5"/>
      <path d="M119.93,139.86a3.81,3.81,0,0,1-1.49,3.2,6.46,6.46,0,0,1-4,1.15,10.1,10.1,0,0,1-4.25-.71v-1.74a11.16,11.16,0,0,0,2.08.64,10.92,10.92,0,0,0,2.23.23,4.49,4.49,0,0,0,2.72-.69,2.25,2.25,0,0,0,.92-1.91,2.45,2.45,0,0,0-.32-1.32,3,3,0,0,0-1.08-1,15.14,15.14,0,0,0-2.31-1,7.38,7.38,0,0,1-3.1-1.84,4.06,4.06,0,0,1-.93-2.77,3.45,3.45,0,0,1,1.35-2.86,5.61,5.61,0,0,1,3.57-1.06,10.54,10.54,0,0,1,4.26.85L119,130.66a9.63,9.63,0,0,0-3.74-.81,3.62,3.62,0,0,0-2.24.62,2,2,0,0,0-.81,1.71,2.62,2.62,0,0,0,.3,1.32,2.8,2.8,0,0,0,1,.95,12.47,12.47,0,0,0,2.16,1,8.56,8.56,0,0,1,3.37,1.87A3.68,3.68,0,0,1,119.93,139.86Z"/>
    </g>
    <use width="49.5" height="49.5" transform="translate(89.25 110.25)" xlink:href="#rnn-s"/>
  </g>
  <g id="_Group_10" data-name="&lt;Group&gt;">
    <g opacity="0.1">
      <rect x="163" y="113" width="48" height="48" rx="6" ry="6" opacity="0.8"/>
      <rect x="163" y="113" width="48" height="48" rx="6" ry="6" fill="none" stroke="#000" stroke-width="1.5"/>
      <rect x="163" y="113" width="48" height="48" rx="6" ry="6" fill="none" stroke="#000" stroke-width="1.5"/>
      <rect x="163" y="113" width="48" height="48" rx="6" ry="6" fill="none" stroke="#000" stroke-width="1.5"/>
      <path d="M191.93,139.86a3.81,3.81,0,0,1-1.49,3.2,6.46,6.46,0,0,1-4,1.15,10.1,10.1,0,0,1-4.25-.71v-1.74a11.16,11.16,0,0,0,2.08.64,10.92,10.92,0,0,0,2.23.23,4.49,4.49,0,0,0,2.72-.69,2.25,2.25,0,0,0,.92-1.91,2.45,2.45,0,0,0-.32-1.32,3,3,0,0,0-1.08-1,15.14,15.14,0,0,0-2.31-1,7.38,7.38,0,0,1-3.1-1.84,4.06,4.06,0,0,1-.93-2.77,3.45,3.45,0,0,1,1.35-2.86,5.61,5.61,0,0,1,3.57-1.06,10.54,10.54,0,0,1,4.26.85L191,130.66a9.63,9.63,0,0,0-3.74-.81,3.62,3.62,0,0,0-2.24.62,2,2,0,0,0-.81,1.71,2.62,2.62,0,0,0,.3,1.32,2.8,2.8,0,0,0,1,.95,12.47,12.47,0,0,0,2.16,1,8.56,8.56,0,0,1,3.37,1.87A3.68,3.68,0,0,1,191.93,139.86Z"/>
    </g>
    <use width="49.5" height="49.5" transform="translate(161.25 110.25)" xlink:href="#rnn-s"/>
  </g>
  <g id="_Group_11" data-name="&lt;Group&gt;">
    <g opacity="0.1">
      <rect x="235" y="113" width="48" height="48" rx="6" ry="6" opacity="0.8"/>
      <rect x="235" y="113" width="48" height="48" rx="6" ry="6" fill="none" stroke="#000" stroke-width="1.5"/>
      <rect x="235" y="113" width="48" height="48" rx="6" ry="6" fill="none" stroke="#000" stroke-width="1.5"/>
      <rect x="235" y="113" width="48" height="48" rx="6" ry="6" fill="none" stroke="#000" stroke-width="1.5"/>
      <path d="M263.93,139.86a3.81,3.81,0,0,1-1.49,3.2,6.46,6.46,0,0,1-4,1.15,10.1,10.1,0,0,1-4.25-.71v-1.74a11.16,11.16,0,0,0,2.08.64,10.92,10.92,0,0,0,2.23.23,4.49,4.49,0,0,0,2.72-.69,2.25,2.25,0,0,0,.92-1.91,2.45,2.45,0,0,0-.32-1.32,3,3,0,0,0-1.08-1,15.14,15.14,0,0,0-2.31-1,7.38,7.38,0,0,1-3.1-1.84,4.06,4.06,0,0,1-.93-2.77,3.45,3.45,0,0,1,1.35-2.86,5.61,5.61,0,0,1,3.57-1.06,10.54,10.54,0,0,1,4.26.85L263,130.66a9.63,9.63,0,0,0-3.74-.81,3.62,3.62,0,0,0-2.24.62,2,2,0,0,0-.81,1.71,2.62,2.62,0,0,0,.3,1.32,2.8,2.8,0,0,0,1,.95,12.47,12.47,0,0,0,2.16,1,8.56,8.56,0,0,1,3.37,1.87A3.68,3.68,0,0,1,263.93,139.86Z"/>
    </g>
    <use width="49.5" height="49.5" transform="translate(233.25 110.25)" xlink:href="#rnn-s"/>
  </g>
  <g id="_Group_12" data-name="&lt;Group&gt;">
    <g opacity="0.1">
      <rect x="307" y="113" width="48" height="48" rx="6" ry="6" opacity="0.8"/>
      <rect x="307" y="113" width="48" height="48" rx="6" ry="6" fill="none" stroke="#000" stroke-width="1.5"/>
      <rect x="307" y="113" width="48" height="48" rx="6" ry="6" fill="none" stroke="#000" stroke-width="1.5"/>
      <rect x="307" y="113" width="48" height="48" rx="6" ry="6" fill="none" stroke="#000" stroke-width="1.5"/>
      <path d="M335.93,139.86a3.81,3.81,0,0,1-1.49,3.2,6.46,6.46,0,0,1-4,1.15,10.1,10.1,0,0,1-4.25-.71v-1.74a11.16,11.16,0,0,0,2.08.64,10.92,10.92,0,0,0,2.23.23,4.49,4.49,0,0,0,2.72-.69,2.25,2.25,0,0,0,.92-1.91,2.45,2.45,0,0,0-.32-1.32,3,3,0,0,0-1.08-1,15.14,15.14,0,0,0-2.31-1,7.38,7.38,0,0,1-3.1-1.84,4.06,4.06,0,0,1-.93-2.77,3.45,3.45,0,0,1,1.35-2.86,5.61,5.61,0,0,1,3.57-1.06,10.54,10.54,0,0,1,4.26.85L335,130.66a9.63,9.63,0,0,0-3.74-.81,3.62,3.62,0,0,0-2.24.62,2,2,0,0,0-.81,1.71,2.62,2.62,0,0,0,.3,1.32,2.8,2.8,0,0,0,1,.95,12.47,12.47,0,0,0,2.16,1,8.56,8.56,0,0,1,3.37,1.87A3.68,3.68,0,0,1,335.93,139.86Z"/>
    </g>
    <use width="49.5" height="49.5" transform="translate(305.25 110.25)" xlink:href="#rnn-s"/>
  </g>
  <g id="_Group_13" data-name="&lt;Group&gt;">
    <g opacity="0.1">
      <circle cx="115.75" cy="190.25" r="11.25" stroke="#000" stroke-miterlimit="10" stroke-width="1.5"/>
      <path d="M113.63,187.33a1.77,1.77,0,0,1,.69-1.47,3,3,0,0,1,1.89-.54,4.84,4.84,0,0,1,1.87.38v1.1a5.22,5.22,0,0,0-1.88-.4,1.57,1.57,0,0,0-.93.25,0.78,0.78,0,0,0-.35.67q0,0.74,1.51,1.26a4.6,4.6,0,0,1,2.22,1.44,3.75,3.75,0,0,1,.74,2.26v0.27a4.23,4.23,0,0,1-.4,1.87,3,3,0,0,1-1.15,1.28,3.29,3.29,0,0,1-1.74.45,3.08,3.08,0,0,1-2.42-1,3.86,3.86,0,0,1-.9-2.66v-0.09a3.42,3.42,0,0,1,.64-2,2.76,2.76,0,0,1,1.63-1.14v0a2.36,2.36,0,0,1-1-.75A1.76,1.76,0,0,1,113.63,187.33Zm0.42,5.2a3,3,0,0,0,.55,1.89,1.94,1.94,0,0,0,3,0,3.23,3.23,0,0,0,.55-2,2.67,2.67,0,0,0-.58-1.67,2.35,2.35,0,0,0-1.43-.92,1.81,1.81,0,0,0-1.49.7A3.19,3.19,0,0,0,114.05,192.53Z"/>
    </g>
    <use width="24" height="24" transform="translate(102.75 176.25)" xlink:href="#op-sum_2"/>
  </g>
  <g id="_Group_14" data-name="&lt;Group&gt;">
    <g opacity="0.1">
      <circle cx="389.75" cy="89.39" r="11.25" stroke="#000" stroke-miterlimit="10" stroke-width="1.5"/>
      <path d="M385.63,89.88V88.57H389V85.14h1.34v3.43h3.41v1.31h-3.41V93.3H389V89.88h-3.41Z"/>
    </g>
    <use width="24" height="24" transform="translate(376.75 75.39)" xlink:href="#op-sum"/>
  </g>
  <text transform="translate(66 250.28)" font-size="12" fill="#666" font-family="Open Sans">A special bit is set to denote <tspan x="0" y="18">the first computation step</tspan></text>
  <g opacity="0.4">
    <g>
      <line x1="108" y1="48" x2="108" y2="49" fill="none" stroke="#000" stroke-miterlimit="10" stroke-width="0.5"/>
      <line x1="108" y1="51.03" x2="108" y2="110.98" fill="none" stroke="#000" stroke-miterlimit="10" stroke-width="0.5" stroke-dasharray="2.03 2.03"/>
      <line x1="108" y1="112" x2="108" y2="113" fill="none" stroke="#000" stroke-miterlimit="10" stroke-width="0.5"/>
    </g>
  </g>
  <g opacity="0.4">
    <g>
      <line x1="105" y1="195" x2="104.29" y2="195.71" fill="none" stroke="#000" stroke-miterlimit="10" stroke-width="0.5"/>
      <line x1="102.79" y1="197.21" x2="85.46" y2="214.54" fill="none" stroke="#000" stroke-miterlimit="10" stroke-width="0.5" stroke-dasharray="2.13 2.13"/>
      <polyline points="84.71 215.29 84 216 84 217" fill="none" stroke="#000" stroke-miterlimit="10" stroke-width="0.5"/>
      <line x1="84" y1="218.78" x2="84" y2="232.11" fill="none" stroke="#000" stroke-miterlimit="10" stroke-width="0.5" stroke-dasharray="1.78 1.78"/>
      <line x1="84" y1="233" x2="84" y2="234" fill="none" stroke="#000" stroke-miterlimit="10" stroke-width="0.5"/>
    </g>
  </g>
  <g opacity="0.4">
    <g>
      <line x1="388" y1="48" x2="388" y2="49" fill="none" stroke="#000" stroke-miterlimit="10" stroke-width="0.5"/>
      <line x1="388" y1="51" x2="388" y2="70" fill="none" stroke="#000" stroke-miterlimit="10" stroke-width="0.5" stroke-dasharray="2 2"/>
      <line x1="388" y1="71" x2="388" y2="72" fill="none" stroke="#000" stroke-miterlimit="10" stroke-width="0.5"/>
    </g>
  </g>
  <g opacity="0.4">
    <g>
      <line x1="647" y1="48" x2="647" y2="49" fill="none" stroke="#000" stroke-miterlimit="10" stroke-width="0.5"/>
      <line x1="647" y1="51" x2="647" y2="66" fill="none" stroke="#000" stroke-miterlimit="10" stroke-width="0.5" stroke-dasharray="2 2"/>
      <line x1="647" y1="67" x2="647" y2="68" fill="none" stroke="#000" stroke-miterlimit="10" stroke-width="0.5"/>
    </g>
  </g>
</svg>
