<svg id="edges" xmlns="http://www.w3.org/2000/svg" xmlns:xlink="http://www.w3.org/1999/xlink" width="984" height="744" viewBox="0 0 984 744">
  <defs>
    <symbol id="array-5" data-name="array-5" viewBox="0 0 181.5 37.5">
      <rect x="0.75" y="0.75" width="180" height="36" rx="6" ry="6" fill="#fff" stroke="#8c8c8c" stroke-miterlimit="10" stroke-width="1.5"/>
      <line x1="36.5" y1="36.75" x2="36.5" y2="0.75" fill="none" stroke="#8c8c8c" stroke-miterlimit="10"/>
      <line x1="72.5" y1="36.75" x2="72.5" y2="0.75" fill="none" stroke="#8c8c8c" stroke-miterlimit="10"/>
      <line x1="108.5" y1="36.75" x2="108.5" y2="0.75" fill="none" stroke="#8c8c8c" stroke-miterlimit="10"/>
      <line x1="144.5" y1="36.75" x2="144.5" y2="0.75" fill="none" stroke="#8c8c8c" stroke-miterlimit="10"/>
    </symbol>
    <symbol id="array-1" data-name="array-1" viewBox="0 0 37.5 37.5">
      <rect x="0.75" y="0.75" width="36" height="36" rx="6" ry="6" fill="#fff" stroke="#8c8c8c" stroke-miterlimit="10" stroke-width="1.5"/>
    </symbol>
    <symbol id="array-3" data-name="array-3" viewBox="0 0 109 37.5">
      <rect x="0.75" y="0.75" width="107.5" height="36" rx="6" ry="6" fill="#fff" stroke="#8c8c8c" stroke-miterlimit="10" stroke-width="1.5"/>
      <line x1="36.25" y1="36.75" x2="36.25" y2="0.75" fill="none" stroke="#8c8c8c" stroke-miterlimit="10"/>
      <line x1="72.25" y1="36.75" x2="72.25" y2="0.75" fill="none" stroke="#8c8c8c" stroke-miterlimit="10"/>
    </symbol>
    <symbol id="array-negative-value" data-name="array-negative-value" viewBox="0 0 36 36">
      <rect width="36" height="36" fill="#0080f7" opacity="0"/>
      <rect x="4.42" y="4.42" width="27.17" height="27.17" rx="6" ry="6" fill="#ff2bb6" opacity="0.8"/>
    </symbol>
    <symbol id="array-positive-value" data-name="array-positive-value" viewBox="0 0 36 36">
      <rect width="36" height="36" fill="#0080f7" opacity="0"/>
      <rect x="4.42" y="4.42" width="27.17" height="27.17" rx="6" ry="6" fill="#3a5edd" opacity="0.8"/>
    </symbol>
    <symbol id="array-vector" data-name="array-vector" viewBox="0 0 36 36">
      <rect width="36" height="36" fill="#d8c2f2" opacity="0"/>
      <g opacity="0.5">
        <g>
          <line x1="18" y1="24" x2="18" y2="13.08" fill="none" stroke="#000" stroke-miterlimit="10"/>
          <polygon points="22.09 16.4 21.36 17.08 18 13.47 14.64 17.08 13.91 16.4 18 12 22.09 16.4"/>
        </g>
      </g>
    </symbol>
  </defs>
  <title>rnn</title>
  <g>
    <line x1="813.09" x2="813.59" y2="741" fill="#fff"/>
    <g>
      <line x1="813.09" x2="813.09" y2="1" fill="none" stroke="#aaa" stroke-miterlimit="10"/>
      <line x1="813.09" y1="3" x2="813.59" y2="739" fill="none" stroke="#aaa" stroke-miterlimit="10" stroke-dasharray="2 2"/>
      <line x1="813.59" y1="740" x2="813.59" y2="741" fill="none" stroke="#aaa" stroke-miterlimit="10"/>
    </g>
  </g>
  <g>
    <g opacity="0">
      <g>
        <line x1="683.34" y1="201" x2="683.34" y2="243.92" fill="none" stroke="#666" stroke-miterlimit="10" stroke-width="1.5"/>
        <path d="M683.34,249.35a27.2,27.2,0,0,0-4.28-7.69l4.28,1.55,4.28-1.55A27.18,27.18,0,0,0,683.34,249.35Z" fill="#666"/>
      </g>
    </g>
    <g opacity="0.17">
      <g>
        <line x1="683.34" y1="206" x2="683.34" y2="243.92" fill="none" stroke="#666" stroke-miterlimit="10" stroke-width="1.5"/>
        <path d="M683.34,249.35a27.2,27.2,0,0,0-4.28-7.69l4.28,1.55,4.28-1.55A27.18,27.18,0,0,0,683.34,249.35Z" fill="#666"/>
      </g>
    </g>
    <g opacity="0.33">
      <g>
        <line x1="683.34" y1="211" x2="683.34" y2="243.92" fill="none" stroke="#666" stroke-miterlimit="10" stroke-width="1.5"/>
        <path d="M683.34,249.35a27.2,27.2,0,0,0-4.28-7.69l4.28,1.55,4.28-1.55A27.18,27.18,0,0,0,683.34,249.35Z" fill="#666"/>
      </g>
    </g>
    <g opacity="0.5">
      <g>
        <line x1="683.34" y1="216" x2="683.34" y2="243.92" fill="none" stroke="#666" stroke-miterlimit="10" stroke-width="1.5"/>
        <path d="M683.34,249.35a27.2,27.2,0,0,0-4.28-7.69l4.28,1.55,4.28-1.55A27.18,27.18,0,0,0,683.34,249.35Z" fill="#666"/>
      </g>
    </g>
    <g opacity="0.67">
      <g>
        <line x1="683.34" y1="221" x2="683.34" y2="243.92" fill="none" stroke="#666" stroke-miterlimit="10" stroke-width="1.5"/>
        <path d="M683.34,249.35a27.2,27.2,0,0,0-4.28-7.69l4.28,1.55,4.28-1.55A27.18,27.18,0,0,0,683.34,249.35Z" fill="#666"/>
      </g>
    </g>
    <g opacity="0.83">
      <g>
        <line x1="683.34" y1="226" x2="683.34" y2="243.92" fill="none" stroke="#666" stroke-miterlimit="10" stroke-width="1.5"/>
        <path d="M683.34,249.35a27.2,27.2,0,0,0-4.28-7.69l4.28,1.55,4.28-1.55A27.18,27.18,0,0,0,683.34,249.35Z" fill="#666"/>
      </g>
    </g>
    <g>
      <line x1="683.34" y1="231" x2="683.34" y2="243.92" fill="none" stroke="#666" stroke-miterlimit="10" stroke-width="1.5"/>
      <path d="M683.34,249.35a27.2,27.2,0,0,0-4.28-7.69l4.28,1.55,4.28-1.55A27.18,27.18,0,0,0,683.34,249.35Z" fill="#666"/>
    </g>
  </g>
  <g>
    <g>
      <line x1="425" y1="48" x2="425" y2="72.75" fill="none" stroke="#666" stroke-miterlimit="10" stroke-width="1.5"/>
      <path d="M425,78.18a27.2,27.2,0,0,0-4.28-7.69L425,72l4.28-1.55A27.18,27.18,0,0,0,425,78.18Z" fill="#666"/>
    </g>
    <g>
      <line x1="845.09" y1="96" x2="478.43" y2="96" fill="none" stroke="#666" stroke-miterlimit="10" stroke-width="1.5"/>
      <path d="M473,96a27.2,27.2,0,0,0,7.69-4.28L479.14,96l1.55,4.28A27.18,27.18,0,0,0,473,96Z" fill="#666"/>
    </g>
    <g>
      <line x1="845.09" y1="366" x2="478.43" y2="366" fill="none" stroke="#666" stroke-miterlimit="10" stroke-width="1.5"/>
      <path d="M473,366a27.2,27.2,0,0,0,7.69-4.28L479.14,366l1.55,4.28A27.18,27.18,0,0,0,473,366Z" fill="#666"/>
    </g>
    <g>
      <line x1="845.09" y1="492" x2="478.43" y2="492" fill="none" stroke="#666" stroke-miterlimit="10" stroke-width="1.5"/>
      <path d="M473,492a27.2,27.2,0,0,0,7.69-4.28L479.14,492l1.55,4.28A27.18,27.18,0,0,0,473,492Z" fill="#666"/>
    </g>
    <g>
      <line x1="425" y1="107.82" x2="425" y2="132.57" fill="none" stroke="#666" stroke-miterlimit="10" stroke-width="1.5"/>
      <path d="M425,138a27.2,27.2,0,0,0-4.28-7.69l4.28,1.55,4.28-1.55A27.18,27.18,0,0,0,425,138Z" fill="#666"/>
    </g>
    <g>
      <line x1="425" y1="179.82" x2="425" y2="204.57" fill="none" stroke="#666" stroke-miterlimit="10" stroke-width="1.5"/>
      <path d="M425,210a27.2,27.2,0,0,0-4.28-7.69l4.28,1.55,4.28-1.55A27.18,27.18,0,0,0,425,210Z" fill="#666"/>
    </g>
    <g>
      <line x1="425" y1="240" x2="425" y2="264.75" fill="none" stroke="#666" stroke-miterlimit="10" stroke-width="1.5"/>
      <path d="M425,270.18a27.2,27.2,0,0,0-4.28-7.69L425,264l4.28-1.55A27.18,27.18,0,0,0,425,270.18Z" fill="#666"/>
    </g>
    <g>
      <line x1="425" y1="311.82" x2="425" y2="336.57" fill="none" stroke="#666" stroke-miterlimit="10" stroke-width="1.5"/>
      <path d="M425,342a27.2,27.2,0,0,0-4.28-7.69l4.28,1.55,4.28-1.55A27.18,27.18,0,0,0,425,342Z" fill="#666"/>
    </g>
    <g>
      <line x1="425" y1="371.82" x2="425" y2="396.57" fill="none" stroke="#666" stroke-miterlimit="10" stroke-width="1.5"/>
      <path d="M425,402a27.2,27.2,0,0,0-4.28-7.69l4.28,1.55,4.28-1.55A27.18,27.18,0,0,0,425,402Z" fill="#666"/>
    </g>
    <g>
      <line x1="425" y1="444" x2="425" y2="468.75" fill="none" stroke="#666" stroke-miterlimit="10" stroke-width="1.5"/>
      <path d="M425,474.18a27.2,27.2,0,0,0-4.28-7.69L425,468l4.28-1.55A27.18,27.18,0,0,0,425,474.18Z" fill="#666"/>
    </g>
    <g>
      <line x1="425" y1="503.82" x2="425" y2="528.57" fill="none" stroke="#666" stroke-miterlimit="10" stroke-width="1.5"/>
      <path d="M425,534a27.2,27.2,0,0,0-4.28-7.69l4.28,1.55,4.28-1.55A27.18,27.18,0,0,0,425,534Z" fill="#666"/>
    </g>
    <g>
      <line x1="425" y1="576.82" x2="425" y2="601.57" fill="none" stroke="#666" stroke-miterlimit="10" stroke-width="1.5"/>
      <path d="M425,607a27.2,27.2,0,0,0-4.28-7.69l4.28,1.55,4.28-1.55A27.18,27.18,0,0,0,425,607Z" fill="#666"/>
    </g>
    <g>
      <line x1="425" y1="635.82" x2="425" y2="660.57" fill="none" stroke="#666" stroke-miterlimit="10" stroke-width="1.5"/>
      <path d="M425,666a27.2,27.2,0,0,0-4.28-7.69l4.28,1.55,4.28-1.55A27.18,27.18,0,0,0,425,666Z" fill="#666"/>
    </g>
    <g>
      <path d="M683.34,312v32a10,10,0,0,1-10,10H478.43" fill="none" stroke="#666" stroke-miterlimit="10" stroke-width="1.5"/>
      <path d="M473,354a27.2,27.2,0,0,0,7.69-4.28L479.14,354l1.55,4.28A27.18,27.18,0,0,0,473,354Z" fill="#666"/>
    </g>
  </g>
  <g>
    <g opacity="0.1">
      <rect x="384" y="614" width="84" height="24" rx="12" ry="12"/>
      <rect x="384" y="614" width="84" height="24" rx="12" ry="12" fill="none" stroke="#000" stroke-miterlimit="10" stroke-width="1.5"/>
    </g>
    <g>
      <rect x="383" y="612" width="84" height="24" rx="12" ry="12" fill="#fff"/>
      <rect x="383" y="612" width="84" height="24" rx="12" ry="12" fill="none" stroke="#666" stroke-miterlimit="10" stroke-width="1.5"/>
    </g>
  </g>
  <g>
    <g opacity="0.1">
      <rect x="384" y="482" width="84" height="24" rx="12" ry="12"/>
      <rect x="384" y="482" width="84" height="24" rx="12" ry="12" fill="none" stroke="#000" stroke-miterlimit="10" stroke-width="1.5"/>
    </g>
    <g>
      <rect x="383" y="480" width="84" height="24" rx="12" ry="12" fill="#fff"/>
      <rect x="383" y="480" width="84" height="24" rx="12" ry="12" fill="none" stroke="#666" stroke-miterlimit="10" stroke-width="1.5"/>
    </g>
  </g>
  <g>
    <g opacity="0.1">
      <rect x="384" y="350" width="84" height="24" rx="12" ry="12"/>
      <rect x="384" y="350" width="84" height="24" rx="12" ry="12" fill="none" stroke="#000" stroke-miterlimit="10" stroke-width="1.5"/>
    </g>
    <g>
      <rect x="383" y="348" width="84" height="24" rx="12" ry="12" fill="#fff"/>
      <rect x="383" y="348" width="84" height="24" rx="12" ry="12" fill="none" stroke="#666" stroke-miterlimit="10" stroke-width="1.5"/>
    </g>
  </g>
  <g>
    <g opacity="0.1">
      <rect x="384" y="218" width="84" height="24" rx="12" ry="12"/>
      <rect x="384" y="218" width="84" height="24" rx="12" ry="12" fill="none" stroke="#000" stroke-miterlimit="10" stroke-width="1.5"/>
    </g>
    <g>
      <rect x="383" y="216" width="84" height="24" rx="12" ry="12" fill="#fff"/>
      <rect x="383" y="216" width="84" height="24" rx="12" ry="12" fill="none" stroke="#666" stroke-miterlimit="10" stroke-width="1.5"/>
    </g>
  </g>
  <g>
    <g opacity="0.1">
      <rect x="384" y="86" width="84" height="24" rx="12" ry="12"/>
      <rect x="384" y="86" width="84" height="24" rx="12" ry="12" fill="none" stroke="#000" stroke-miterlimit="10" stroke-width="1.5"/>
    </g>
    <g>
      <rect x="383" y="84" width="84" height="24" rx="12" ry="12" fill="#fff"/>
      <rect x="383" y="84" width="84" height="24" rx="12" ry="12" fill="none" stroke="#666" stroke-miterlimit="10" stroke-width="1.5"/>
    </g>
  </g>
  <use id="array-5-3" data-name="array-5" width="181.5" height="37.5" transform="translate(334 274.75)" xlink:href="#array-5"/>
  <use width="181.5" height="37.5" transform="translate(592.34 275.75)" xlink:href="#array-5"/>
  <use width="181.5" height="37.5" transform="translate(334 406.75)" xlink:href="#array-5"/>
  <use id="array-5-10" data-name="array-5" width="181.5" height="37.5" transform="translate(334 539.75)" xlink:href="#array-5"/>
  <use width="181.5" height="37.5" transform="translate(334 670.75)" xlink:href="#array-5"/>
  <use width="37.5" height="37.5" transform="translate(844.84 341.75)" xlink:href="#array-1"/>
  <use id="array-3-3" data-name="array-3" width="109" height="37.5" transform="translate(844.84 472.75)" xlink:href="#array-3"/>
  <use width="181.5" height="37.5" transform="translate(334 142.75)" xlink:href="#array-5"/>
  <g id="dot">
    <use width="36" height="36" transform="translate(335 143.25)" xlink:href="#array-negative-value"/>
    <use width="36" height="36" transform="translate(371 143)" xlink:href="#array-positive-value"/>
    <use width="36" height="36" transform="translate(407 143)" xlink:href="#array-positive-value"/>
    <use width="36" height="36" transform="translate(443 143)" xlink:href="#array-positive-value"/>
    <use width="36" height="36" transform="translate(479 143)" xlink:href="#array-positive-value"/>
  </g>
  <use id="array-5-17" data-name="array-5" width="181.5" height="37.5" transform="translate(334 11.75)" xlink:href="#array-5"/>
  <g id="softmax">
    <use width="36" height="36" transform="translate(335 276)" xlink:href="#array-positive-value"/>
    <use width="36" height="36" transform="translate(371 276)" xlink:href="#array-positive-value"/>
    <use width="36" height="36" transform="translate(407 276)" xlink:href="#array-positive-value"/>
    <use width="36" height="36" transform="translate(443 276)" xlink:href="#array-positive-value"/>
    <use id="array-positive-value-19" data-name="array-positive-value" width="36" height="36" transform="translate(479 276)" xlink:href="#array-positive-value"/>
  </g>
  <g id="shift">
    <use width="36" height="36" transform="translate(845.59 473)" xlink:href="#array-positive-value"/>
    <use width="36" height="36" transform="translate(881.59 473)" xlink:href="#array-positive-value"/>
    <use width="36" height="36" transform="translate(917.59 473)" xlink:href="#array-positive-value"/>
  </g>
  <use id="interpolate-amount" width="36" height="36" transform="translate(845.59 342)" xlink:href="#array-positive-value"/>
  <g id="previous">
    <use width="36" height="36" transform="translate(593.34 276)" xlink:href="#array-positive-value"/>
    <use width="36" height="36" transform="translate(629.34 276)" xlink:href="#array-positive-value"/>
    <use width="36" height="36" transform="translate(665.34 276)" xlink:href="#array-positive-value"/>
    <use width="36" height="36" transform="translate(701.34 276)" xlink:href="#array-positive-value"/>
    <use width="36" height="36" transform="translate(737.34 276)" xlink:href="#array-positive-value"/>
  </g>
  <g id="interpolate">
    <use width="36" height="36" transform="translate(335 407)" xlink:href="#array-positive-value"/>
    <use width="36" height="36" transform="translate(371 407)" xlink:href="#array-positive-value"/>
    <use width="36" height="36" transform="translate(407 407)" xlink:href="#array-positive-value"/>
    <use width="36" height="36" transform="translate(443 407)" xlink:href="#array-positive-value"/>
    <use width="36" height="36" transform="translate(479 407)" xlink:href="#array-positive-value"/>
  </g>
  <g id="convolve">
    <use width="36" height="36" transform="translate(334.5 541)" xlink:href="#array-positive-value"/>
    <use width="36" height="36" transform="translate(371 541)" xlink:href="#array-positive-value"/>
    <use width="36" height="36" transform="translate(407 541)" xlink:href="#array-positive-value"/>
    <use width="36" height="36" transform="translate(443 541)" xlink:href="#array-positive-value"/>
    <use width="36" height="36" transform="translate(479 541)" xlink:href="#array-positive-value"/>
  </g>
  <g id="new-attention">
    <use width="36" height="36" transform="translate(335 671)" xlink:href="#array-positive-value"/>
    <use width="36" height="36" transform="translate(371 671)" xlink:href="#array-positive-value"/>
    <use width="36" height="36" transform="translate(407 671)" xlink:href="#array-positive-value"/>
    <use width="36" height="36" transform="translate(443 671)" xlink:href="#array-positive-value"/>
    <use width="36" height="36" transform="translate(479 671)" xlink:href="#array-positive-value"/>
  </g>
  <use width="37.5" height="37.5" transform="translate(844.84 76.75)" xlink:href="#array-1"/>
  <g opacity="0.6">
    <text transform="translate(166 68.12)" font-size="12" font-family="Open Sans">First, the controller gives <tspan x="0" y="18">a query vector and each </tspan><tspan x="0" y="36">memory entry is scored </tspan><tspan x="0" y="54">for similarity with the </tspan><tspan x="0" y="72">query.</tspan></text>
  </g>
  <g opacity="0.6">
    <text transform="translate(167.5 206.12)" font-size="12" font-family="Open Sans">The scores are then <tspan x="0" y="18">converted into a </tspan><tspan x="0" y="36">distribution using </tspan><tspan x="0" y="54">softmax.</tspan></text>
  </g>
  <g opacity="0.6">
    <text transform="translate(167.5 345.12)" font-size="12" font-family="Open Sans">Next, we interpolate the <tspan x="0" y="18">attention from the </tspan><tspan x="0" y="36">previous time step. </tspan></text>
  </g>
  <g opacity="0.6">
    <text transform="translate(167.5 458.12)" font-size="12" font-family="Open Sans">We convolve the <tspan x="0" y="18">attention with a shift </tspan><tspan x="0" y="36">filter — this allows the </tspan><tspan x="0" y="54">controller to move its </tspan><tspan x="0" y="72">focus.</tspan></text>
  </g>
  <g opacity="0.6">
    <text transform="translate(167.5 591.12)" font-size="12" font-family="Open Sans">Finally, we sharpen the <tspan x="0" y="18">attention distribution. </tspan><tspan x="0" y="36">This final attention </tspan><tspan x="0" y="54">distribution is fed to the </tspan><tspan x="0" y="72">read or write operation.</tspan></text>
  </g>
  <g>
    <path d="M396.26,355.49a0.7,0.7,0,0,1,.19-0.52,0.72,0.72,0,0,1,.53-0.18,0.71,0.71,0,0,1,.52.18,0.7,0.7,0,0,1,.19.52,0.68,0.68,0,0,1-.19.51,0.7,0.7,0,0,1-.52.19,0.71,0.71,0,0,1-.53-0.19A0.68,0.68,0,0,1,396.26,355.49ZM397.6,363h-1.26v-5.94h1.26V363Z" fill="#666"/>
    <path d="M404.63,363h-1.27v-3.65a1.6,1.6,0,0,0-.28-1,1.07,1.07,0,0,0-.88-0.34,1.4,1.4,0,0,0-1.17.47,2.61,2.61,0,0,0-.37,1.58v3H399.4v-5.94h1l0.18,0.78h0.06a1.75,1.75,0,0,1,.76-0.66,2.55,2.55,0,0,1,1.1-.23,1.91,1.91,0,0,1,2.14,2.18V363Z" fill="#666"/>
    <path d="M408.6,362.09a3.07,3.07,0,0,0,.92-0.14v1a2.49,2.49,0,0,1-.54.15,3.73,3.73,0,0,1-.68.06,1.63,1.63,0,0,1-1.79-1.89V358h-0.81v-0.56l0.87-.46,0.43-1.26h0.78v1.32h1.69v1h-1.69v3.18a0.89,0.89,0,0,0,.23.67A0.83,0.83,0,0,0,408.6,362.09Z" fill="#666"/>
    <path d="M413.3,363.11a2.87,2.87,0,0,1-2.17-.81,3.07,3.07,0,0,1-.78-2.23,3.37,3.37,0,0,1,.73-2.29,2.5,2.5,0,0,1,2-.83,2.45,2.45,0,0,1,1.86.71,2.73,2.73,0,0,1,.68,2v0.68h-4a2,2,0,0,0,.47,1.33,1.62,1.62,0,0,0,1.24.46,4.57,4.57,0,0,0,1-.1,5.06,5.06,0,0,0,1-.33v1a3.92,3.92,0,0,1-.93.31A5.76,5.76,0,0,1,413.3,363.11Zm-0.23-5.2a1.27,1.27,0,0,0-1,.38,1.81,1.81,0,0,0-.43,1.11h2.7a1.64,1.64,0,0,0-.35-1.11A1.21,1.21,0,0,0,413.07,357.91Z" fill="#666"/>
    <path d="M420.06,357a3.08,3.08,0,0,1,.63.05l-0.12,1.18a2.39,2.39,0,0,0-.56-0.06,1.61,1.61,0,0,0-1.23.49,1.78,1.78,0,0,0-.47,1.28V363H417v-5.94h1l0.17,1h0.06a2.35,2.35,0,0,1,.77-0.84A1.84,1.84,0,0,1,420.06,357Z" fill="#666"/>
    <path d="M424.8,363.11a2.08,2.08,0,0,1-1.75-.81H423q0.08,0.75.08,0.91v2.43h-1.26v-8.58h1q0,0.17.18,0.79h0.06a2,2,0,0,1,1.77-.9,2.06,2.06,0,0,1,1.73.81,4.42,4.42,0,0,1,0,4.53A2.08,2.08,0,0,1,424.8,363.11ZM424.5,358a1.31,1.31,0,0,0-1.1.44,2.29,2.29,0,0,0-.35,1.41V360a2.78,2.78,0,0,0,.34,1.57,1.28,1.28,0,0,0,1.12.49,1.14,1.14,0,0,0,1-.54,2.77,2.77,0,0,0,.35-1.53,2.68,2.68,0,0,0-.35-1.51A1.17,1.17,0,0,0,424.5,358Z" fill="#666"/>
    <path d="M433.91,360a3.24,3.24,0,0,1-.75,2.27,2.67,2.67,0,0,1-2.08.82,2.84,2.84,0,0,1-1.47-.38,2.48,2.48,0,0,1-1-1.08,3.68,3.68,0,0,1-.34-1.63,3.22,3.22,0,0,1,.74-2.26,2.69,2.69,0,0,1,2.09-.81,2.62,2.62,0,0,1,2,.83A3.2,3.2,0,0,1,433.91,360Zm-4.32,0q0,2.06,1.52,2.06t1.5-2.06q0-2-1.51-2a1.29,1.29,0,0,0-1.15.53A2.68,2.68,0,0,0,429.59,360Z" fill="#666"/>
    <path d="M436.62,363h-1.26v-8.36h1.26V363Z" fill="#666"/>
    <path d="M442.14,363l-0.25-.83h0a2.42,2.42,0,0,1-.86.74,2.73,2.73,0,0,1-1.12.2,1.89,1.89,0,0,1-1.37-.47,1.77,1.77,0,0,1-.49-1.34,1.57,1.57,0,0,1,.68-1.39,3.94,3.94,0,0,1,2.08-.51l1,0v-0.32a1.2,1.2,0,0,0-.27-0.85,1.08,1.08,0,0,0-.82-0.28,2.84,2.84,0,0,0-.88.13,6.6,6.6,0,0,0-.81.32l-0.41-.9a4.41,4.41,0,0,1,1.06-.38,4.86,4.86,0,0,1,1.08-.13,2.57,2.57,0,0,1,1.71.49A1.94,1.94,0,0,1,443,359v4h-0.9Zm-1.88-.86a1.56,1.56,0,0,0,1.1-.38,1.39,1.39,0,0,0,.42-1.08v-0.52l-0.76,0a2.62,2.62,0,0,0-1.3.3,0.91,0.91,0,0,0-.41.81,0.79,0.79,0,0,0,.24.61A1,1,0,0,0,440.26,362.14Z" fill="#666"/>
    <path d="M447,362.09a3.07,3.07,0,0,0,.92-0.14v1a2.49,2.49,0,0,1-.54.15,3.73,3.73,0,0,1-.68.06,1.63,1.63,0,0,1-1.79-1.89V358h-0.81v-0.56L445,357l0.43-1.26h0.78v1.32h1.69v1h-1.69v3.18a0.89,0.89,0,0,0,.23.67A0.83,0.83,0,0,0,447,362.09Z" fill="#666"/>
    <path d="M451.73,363.11a2.87,2.87,0,0,1-2.17-.81,3.07,3.07,0,0,1-.78-2.23,3.37,3.37,0,0,1,.73-2.29,2.5,2.5,0,0,1,2-.83,2.45,2.45,0,0,1,1.86.71,2.73,2.73,0,0,1,.68,2v0.68h-4a2,2,0,0,0,.47,1.33,1.62,1.62,0,0,0,1.24.46,4.57,4.57,0,0,0,1-.1,5.06,5.06,0,0,0,1-.33v1a3.92,3.92,0,0,1-.93.31A5.76,5.76,0,0,1,451.73,363.11Zm-0.23-5.2a1.27,1.27,0,0,0-1,.38,1.81,1.81,0,0,0-.43,1.11h2.7a1.64,1.64,0,0,0-.35-1.11A1.21,1.21,0,0,0,451.5,357.91Z" fill="#666"/>
  </g>
  <g>
    <path d="M404.78,495.11a2.6,2.6,0,0,1-2-.79,4,4,0,0,1,0-4.56,2.72,2.72,0,0,1,2.12-.81,4,4,0,0,1,1.69.35l-0.38,1a3.84,3.84,0,0,0-1.32-.31q-1.54,0-1.54,2a2.45,2.45,0,0,0,.38,1.5,1.33,1.33,0,0,0,1.13.5,3.23,3.23,0,0,0,1.6-.42v1.1a2.49,2.49,0,0,1-.72.28A4.31,4.31,0,0,1,404.78,495.11Z" fill="#666"/>
    <path d="M413.1,492a3.24,3.24,0,0,1-.75,2.27,2.67,2.67,0,0,1-2.08.82,2.84,2.84,0,0,1-1.47-.38,2.48,2.48,0,0,1-1-1.08,3.68,3.68,0,0,1-.34-1.63,3.22,3.22,0,0,1,.74-2.26,2.69,2.69,0,0,1,2.09-.81,2.62,2.62,0,0,1,2,.83A3.2,3.2,0,0,1,413.1,492Zm-4.32,0q0,2.06,1.52,2.06t1.5-2.06q0-2-1.51-2a1.29,1.29,0,0,0-1.15.53A2.68,2.68,0,0,0,408.77,492Z" fill="#666"/>
    <path d="M419.77,495H418.5v-3.65a1.6,1.6,0,0,0-.28-1,1.07,1.07,0,0,0-.88-0.34,1.4,1.4,0,0,0-1.17.47,2.61,2.61,0,0,0-.37,1.58v3h-1.26v-5.94h1l0.18,0.78h0.06a1.75,1.75,0,0,1,.76-0.66,2.55,2.55,0,0,1,1.1-.23,1.91,1.91,0,0,1,2.14,2.18V495Z" fill="#666"/>
    <path d="M422.88,495l-2.26-5.94H422l1.21,3.45a6.85,6.85,0,0,1,.38,1.41h0a9.45,9.45,0,0,1,.38-1.41l1.21-3.45h1.34L424.25,495h-1.36Z" fill="#666"/>
    <path d="M432.68,492a3.24,3.24,0,0,1-.75,2.27,2.67,2.67,0,0,1-2.08.82,2.84,2.84,0,0,1-1.47-.38,2.48,2.48,0,0,1-1-1.08,3.68,3.68,0,0,1-.34-1.63,3.22,3.22,0,0,1,.74-2.26,2.69,2.69,0,0,1,2.09-.81,2.62,2.62,0,0,1,2,.83A3.2,3.2,0,0,1,432.68,492Zm-4.32,0q0,2.06,1.52,2.06t1.5-2.06q0-2-1.51-2a1.29,1.29,0,0,0-1.15.53A2.68,2.68,0,0,0,428.36,492Z" fill="#666"/>
    <path d="M435.4,495h-1.26v-8.36h1.26V495Z" fill="#666"/>
    <path d="M438.55,495l-2.26-5.94h1.33l1.21,3.45a6.85,6.85,0,0,1,.38,1.41h0a9.45,9.45,0,0,1,.38-1.41l1.21-3.45h1.34L439.92,495h-1.36Z" fill="#666"/>
    <path d="M445.68,495.11a2.87,2.87,0,0,1-2.17-.81,3.07,3.07,0,0,1-.78-2.23,3.37,3.37,0,0,1,.73-2.29,2.5,2.5,0,0,1,2-.83,2.45,2.45,0,0,1,1.86.71,2.73,2.73,0,0,1,.68,2v0.68h-4a2,2,0,0,0,.47,1.33,1.62,1.62,0,0,0,1.24.46,4.57,4.57,0,0,0,1-.1,5.06,5.06,0,0,0,1-.33v1a3.92,3.92,0,0,1-.93.31A5.76,5.76,0,0,1,445.68,495.11Zm-0.23-5.2a1.27,1.27,0,0,0-1,.38,1.81,1.81,0,0,0-.43,1.11h2.7a1.64,1.64,0,0,0-.35-1.11A1.21,1.21,0,0,0,445.45,489.91Z" fill="#666"/>
  </g>
  <g>
    <path d="M408.08,625.31a1.55,1.55,0,0,1-.63,1.33,3,3,0,0,1-1.82.46,4.29,4.29,0,0,1-1.91-.36v-1.09a4.68,4.68,0,0,0,1.95.48q1.17,0,1.17-.7a0.56,0.56,0,0,0-.13-0.38,1.53,1.53,0,0,0-.42-0.31,7.3,7.3,0,0,0-.82-0.37,3.81,3.81,0,0,1-1.39-.79,1.47,1.47,0,0,1-.36-1,1.35,1.35,0,0,1,.62-1.18A2.92,2.92,0,0,1,406,621a4.74,4.74,0,0,1,2,.42l-0.41,1a4.4,4.4,0,0,0-1.62-.4q-1,0-1,.57a0.57,0.57,0,0,0,.26.47,5.72,5.72,0,0,0,1.14.53,5.19,5.19,0,0,1,1.07.52,1.56,1.56,0,0,1,.49.54A1.58,1.58,0,0,1,408.08,625.31Z" fill="#666"/>
    <path d="M414.67,627H413.4v-3.65a1.6,1.6,0,0,0-.28-1,1.07,1.07,0,0,0-.88-0.34,1.39,1.39,0,0,0-1.17.48,2.62,2.62,0,0,0-.37,1.59V627h-1.26v-8.36h1.26v2.12a9.9,9.9,0,0,1-.06,1.09h0.08a1.76,1.76,0,0,1,.72-0.67,2.31,2.31,0,0,1,1.07-.24,1.92,1.92,0,0,1,2.16,2.18V627Z" fill="#666"/>
    <path d="M420.14,627l-0.25-.83h0a2.43,2.43,0,0,1-.86.74,2.73,2.73,0,0,1-1.12.2,1.89,1.89,0,0,1-1.37-.47,1.77,1.77,0,0,1-.49-1.34,1.57,1.57,0,0,1,.68-1.39,3.93,3.93,0,0,1,2.08-.51l1,0v-0.32a1.2,1.2,0,0,0-.27-0.85,1.08,1.08,0,0,0-.82-0.28,2.86,2.86,0,0,0-.88.13,6.61,6.61,0,0,0-.81.32l-0.41-.9a4.37,4.37,0,0,1,1.06-.38,4.86,4.86,0,0,1,1.08-.13,2.57,2.57,0,0,1,1.71.49A1.94,1.94,0,0,1,421,623v4h-0.9Zm-1.88-.86a1.56,1.56,0,0,0,1.1-.38,1.39,1.39,0,0,0,.42-1.08v-0.52l-0.76,0a2.62,2.62,0,0,0-1.3.3,0.91,0.91,0,0,0-.41.81,0.79,0.79,0,0,0,.24.61A1,1,0,0,0,418.26,626.14Z" fill="#666"/>
    <path d="M425.82,621a3,3,0,0,1,.63.05l-0.12,1.18a2.39,2.39,0,0,0-.56-0.06,1.61,1.61,0,0,0-1.23.49,1.79,1.79,0,0,0-.47,1.28V627H422.8v-5.94h1l0.17,1H424a2.35,2.35,0,0,1,.77-0.84A1.83,1.83,0,0,1,425.82,621Z" fill="#666"/>
    <path d="M430.56,627.11a2.08,2.08,0,0,1-1.75-.81h-0.08q0.08,0.75.08,0.91v2.43h-1.26v-8.58h1q0,0.17.18,0.79h0.06a2,2,0,0,1,1.77-.9,2.06,2.06,0,0,1,1.73.81,4.42,4.42,0,0,1,0,4.53A2.08,2.08,0,0,1,430.56,627.11ZM430.25,622a1.31,1.31,0,0,0-1.1.44,2.29,2.29,0,0,0-.35,1.41V624a2.78,2.78,0,0,0,.34,1.57,1.28,1.28,0,0,0,1.12.49,1.14,1.14,0,0,0,1-.54,2.77,2.77,0,0,0,.35-1.53,2.68,2.68,0,0,0-.35-1.51A1.17,1.17,0,0,0,430.25,622Z" fill="#666"/>
    <path d="M437,627.11a2.87,2.87,0,0,1-2.17-.81,3.07,3.07,0,0,1-.78-2.23,3.37,3.37,0,0,1,.73-2.29,2.5,2.5,0,0,1,2-.83,2.45,2.45,0,0,1,1.86.71,2.73,2.73,0,0,1,.68,2v0.68h-4a2,2,0,0,0,.47,1.33,1.63,1.63,0,0,0,1.24.46,4.57,4.57,0,0,0,1-.1,5.13,5.13,0,0,0,1-.33v1a3.88,3.88,0,0,1-.93.31A5.71,5.71,0,0,1,437,627.11Zm-0.23-5.2a1.27,1.27,0,0,0-1,.38,1.81,1.81,0,0,0-.43,1.11h2.7a1.64,1.64,0,0,0-.35-1.11A1.21,1.21,0,0,0,436.76,621.91Z" fill="#666"/>
    <path d="M446,627H444.7v-3.65a1.6,1.6,0,0,0-.28-1,1.07,1.07,0,0,0-.88-0.34,1.4,1.4,0,0,0-1.17.47A2.61,2.61,0,0,0,442,624v3h-1.26v-5.94h1l0.18,0.78H442a1.76,1.76,0,0,1,.76-0.66,2.56,2.56,0,0,1,1.1-.23,1.91,1.91,0,0,1,2.14,2.18V627Z" fill="#666"/>
  </g>
  <g>
    <path d="M408.22,229.31a1.55,1.55,0,0,1-.63,1.33,3,3,0,0,1-1.82.46,4.29,4.29,0,0,1-1.91-.36v-1.09a4.68,4.68,0,0,0,1.95.48q1.17,0,1.17-.7a0.56,0.56,0,0,0-.13-0.38,1.53,1.53,0,0,0-.42-0.31,7.3,7.3,0,0,0-.82-0.37,3.81,3.81,0,0,1-1.39-.79,1.47,1.47,0,0,1-.36-1,1.35,1.35,0,0,1,.62-1.18,2.92,2.92,0,0,1,1.67-.42,4.74,4.74,0,0,1,2,.42l-0.41,1a4.4,4.4,0,0,0-1.62-.4q-1,0-1,.57a0.57,0.57,0,0,0,.26.47,5.72,5.72,0,0,0,1.14.53,5.19,5.19,0,0,1,1.07.52,1.56,1.56,0,0,1,.49.54A1.58,1.58,0,0,1,408.22,229.31Z" fill="#666"/>
    <path d="M414.85,228a3.24,3.24,0,0,1-.75,2.27,2.67,2.67,0,0,1-2.08.82,2.85,2.85,0,0,1-1.47-.38,2.48,2.48,0,0,1-1-1.08,3.68,3.68,0,0,1-.34-1.63,3.22,3.22,0,0,1,.74-2.26,2.69,2.69,0,0,1,2.09-.81,2.62,2.62,0,0,1,2,.83A3.2,3.2,0,0,1,414.85,228Zm-4.32,0q0,2.06,1.52,2.06t1.5-2.06q0-2-1.51-2a1.29,1.29,0,0,0-1.15.53A2.68,2.68,0,0,0,410.53,228Z" fill="#666"/>
    <path d="M419.29,226h-1.45v5h-1.27v-5h-1v-0.59l1-.39v-0.39a2.16,2.16,0,0,1,.49-1.56,2,2,0,0,1,1.51-.51,4,4,0,0,1,1.31.22l-0.33,1a2.92,2.92,0,0,0-.89-0.15,0.73,0.73,0,0,0-.63.27,1.34,1.34,0,0,0-.2.8v0.39h1.45v1Z" fill="#666"/>
    <path d="M422.51,230.09a3.07,3.07,0,0,0,.92-0.15v1a2.55,2.55,0,0,1-.54.15,3.73,3.73,0,0,1-.68.06,1.63,1.63,0,0,1-1.79-1.89V226H419.6v-0.56l0.87-.46,0.43-1.26h0.78v1.32h1.69v1h-1.69v3.18a0.89,0.89,0,0,0,.23.67A0.83,0.83,0,0,0,422.51,230.09Z" fill="#666"/>
    <path d="M429.62,231h-1.27v-3.66a1.66,1.66,0,0,0-.26-1,1,1,0,0,0-.81-0.34,1.23,1.23,0,0,0-1.07.48,2.78,2.78,0,0,0-.34,1.58v3h-1.26v-5.94h1l0.18,0.78h0.06a1.64,1.64,0,0,1,.72-0.66,2.31,2.31,0,0,1,1-.23,1.81,1.81,0,0,1,1.82.93h0.09a1.81,1.81,0,0,1,.74-0.69,2.36,2.36,0,0,1,1.1-.25,2,2,0,0,1,1.55.54,2.38,2.38,0,0,1,.49,1.64V231h-1.26v-3.66a1.65,1.65,0,0,0-.26-1A1,1,0,0,0,431,226a1.25,1.25,0,0,0-1.08.46,2.37,2.37,0,0,0-.34,1.41V231Z" fill="#666"/>
    <path d="M438.85,231l-0.25-.83h0a2.43,2.43,0,0,1-.86.74,2.73,2.73,0,0,1-1.12.2,1.89,1.89,0,0,1-1.37-.47,1.77,1.77,0,0,1-.49-1.34,1.57,1.57,0,0,1,.68-1.39,3.93,3.93,0,0,1,2.08-.51l1,0v-0.32a1.2,1.2,0,0,0-.27-0.85,1.08,1.08,0,0,0-.82-0.28,2.86,2.86,0,0,0-.88.13,6.61,6.61,0,0,0-.81.32l-0.41-.9a4.37,4.37,0,0,1,1.06-.38,4.86,4.86,0,0,1,1.08-.13,2.57,2.57,0,0,1,1.71.49,1.94,1.94,0,0,1,.58,1.55v4h-0.9Zm-1.88-.86a1.56,1.56,0,0,0,1.1-.38,1.39,1.39,0,0,0,.42-1.08v-0.52l-0.76,0a2.62,2.62,0,0,0-1.3.3,0.91,0.91,0,0,0-.41.81,0.79,0.79,0,0,0,.24.61A1,1,0,0,0,437,230.14Z" fill="#666"/>
    <path d="M442.84,228l-2-2.91h1.44l1.35,2.08,1.36-2.08h1.43l-2,2.91,2.1,3H445.1l-1.47-2.22L442.18,231h-1.43Z" fill="#666"/>
  </g>
  <g>
    <path d="M396.57,99.27a2.07,2.07,0,0,1-1.73-.81,4.42,4.42,0,0,1,0-4.54,2.09,2.09,0,0,1,1.75-.81,2,2,0,0,1,1.78.86h0.06a7.54,7.54,0,0,1-.09-1V90.81h1.27v8.36h-1l-0.22-.78h-0.06A2,2,0,0,1,396.57,99.27Zm0.34-1a1.37,1.37,0,0,0,1.13-.44,2.31,2.31,0,0,0,.37-1.42V96.22a2.66,2.66,0,0,0-.37-1.6,1.36,1.36,0,0,0-1.14-.47,1.16,1.16,0,0,0-1,.54,2.77,2.77,0,0,0-.36,1.54,2.69,2.69,0,0,0,.35,1.51A1.18,1.18,0,0,0,396.91,98.25Z" fill="#666"/>
    <path d="M406.69,96.19a3.24,3.24,0,0,1-.75,2.27,2.67,2.67,0,0,1-2.08.82,2.85,2.85,0,0,1-1.47-.38,2.48,2.48,0,0,1-1-1.08,3.68,3.68,0,0,1-.34-1.63,3.22,3.22,0,0,1,.74-2.26,2.69,2.69,0,0,1,2.09-.81,2.62,2.62,0,0,1,2,.83A3.2,3.2,0,0,1,406.69,96.19Zm-4.32,0q0,2.06,1.52,2.06t1.5-2.06q0-2-1.51-2a1.29,1.29,0,0,0-1.15.53A2.68,2.68,0,0,0,402.36,96.19Z" fill="#666"/>
    <path d="M410.35,98.25a3.07,3.07,0,0,0,.92-0.15v1a2.55,2.55,0,0,1-.54.15,3.73,3.73,0,0,1-.68.06,1.63,1.63,0,0,1-1.79-1.89v-3.2h-0.81V93.62l0.87-.46,0.43-1.26h0.78v1.32h1.69v1h-1.69v3.18a0.89,0.89,0,0,0,.23.67A0.83,0.83,0,0,0,410.35,98.25Z" fill="#666"/>
    <path d="M418.33,99.27a2.08,2.08,0,0,1-1.75-.81h-0.08q0.08,0.75.08,0.91v2.43h-1.26V93.23h1q0,0.17.18,0.79h0.06a2,2,0,0,1,1.77-.9,2.06,2.06,0,0,1,1.73.81,4.42,4.42,0,0,1,0,4.53A2.08,2.08,0,0,1,418.33,99.27ZM418,94.15a1.31,1.31,0,0,0-1.1.44,2.29,2.29,0,0,0-.35,1.41v0.19a2.78,2.78,0,0,0,.34,1.57,1.28,1.28,0,0,0,1.12.49,1.14,1.14,0,0,0,1-.54,2.77,2.77,0,0,0,.35-1.53,2.68,2.68,0,0,0-.35-1.51A1.17,1.17,0,0,0,418,94.15Z" fill="#666"/>
    <path d="M425.19,93.12a3,3,0,0,1,.63.05l-0.12,1.18a2.39,2.39,0,0,0-.56-0.06,1.61,1.61,0,0,0-1.23.49,1.79,1.79,0,0,0-.47,1.28v3.1h-1.26V93.23h1l0.17,1h0.06a2.35,2.35,0,0,1,.77-0.84A1.83,1.83,0,0,1,425.19,93.12Z" fill="#666"/>
    <path d="M432.18,96.19a3.24,3.24,0,0,1-.75,2.27,2.67,2.67,0,0,1-2.08.82,2.85,2.85,0,0,1-1.47-.38,2.48,2.48,0,0,1-1-1.08,3.68,3.68,0,0,1-.34-1.63,3.22,3.22,0,0,1,.74-2.26,2.69,2.69,0,0,1,2.09-.81,2.62,2.62,0,0,1,2,.83A3.2,3.2,0,0,1,432.18,96.19Zm-4.32,0q0,2.06,1.52,2.06t1.5-2.06q0-2-1.51-2a1.29,1.29,0,0,0-1.15.53A2.68,2.68,0,0,0,427.86,96.19Z" fill="#666"/>
    <path d="M435.64,99.27a2.07,2.07,0,0,1-1.73-.81,4.42,4.42,0,0,1,0-4.54,2.09,2.09,0,0,1,1.75-.81,2,2,0,0,1,1.78.86h0.06a7.54,7.54,0,0,1-.09-1V90.81h1.27v8.36h-1l-0.22-.78h-0.06A2,2,0,0,1,435.64,99.27Zm0.34-1a1.37,1.37,0,0,0,1.13-.44,2.31,2.31,0,0,0,.37-1.42V96.22a2.66,2.66,0,0,0-.37-1.6,1.36,1.36,0,0,0-1.14-.47,1.16,1.16,0,0,0-1,.54,2.77,2.77,0,0,0-.36,1.54,2.69,2.69,0,0,0,.35,1.51A1.18,1.18,0,0,0,436,98.25Z" fill="#666"/>
    <path d="M444.68,99.17l-0.18-.78h-0.06a1.79,1.79,0,0,1-.75.65,2.5,2.5,0,0,1-1.11.24,2.18,2.18,0,0,1-1.61-.54,2.23,2.23,0,0,1-.53-1.63V93.23h1.27v3.66a1.59,1.59,0,0,0,.28,1,1.07,1.07,0,0,0,.88.34,1.39,1.39,0,0,0,1.17-.48,2.62,2.62,0,0,0,.37-1.59v-3h1.27v5.94h-1Z" fill="#666"/>
    <path d="M449.87,99.27a2.6,2.6,0,0,1-2-.79,4,4,0,0,1,0-4.56,2.72,2.72,0,0,1,2.12-.81,4,4,0,0,1,1.69.35l-0.38,1a3.83,3.83,0,0,0-1.32-.31q-1.54,0-1.54,2a2.45,2.45,0,0,0,.38,1.5,1.33,1.33,0,0,0,1.13.5,3.23,3.23,0,0,0,1.6-.42v1.1a2.49,2.49,0,0,1-.72.28A4.34,4.34,0,0,1,449.87,99.27Z" fill="#666"/>
    <path d="M455.13,98.25a3.07,3.07,0,0,0,.92-0.15v1a2.55,2.55,0,0,1-.54.15,3.73,3.73,0,0,1-.68.06A1.63,1.63,0,0,1,453,97.38v-3.2h-0.81V93.62l0.87-.46,0.43-1.26h0.78v1.32H456v1H454.3v3.18a0.89,0.89,0,0,0,.23.67A0.83,0.83,0,0,0,455.13,98.25Z" fill="#666"/>
  </g>
  <use id="query" width="36" height="36" transform="translate(845.59 78)" xlink:href="#array-vector"/>
  <g id="memory">
    <use width="36" height="36" transform="translate(335 12)" xlink:href="#array-vector"/>
    <use width="36" height="36" transform="translate(371 12)" xlink:href="#array-vector"/>
    <use width="36" height="36" transform="translate(407 12)" xlink:href="#array-vector"/>
    <use width="36" height="36" transform="translate(443 12)" xlink:href="#array-vector"/>
    <use width="36" height="36" transform="translate(479 12)" xlink:href="#array-vector"/>
  </g>
  <g id="LwC7Nw" opacity="0.3">
    <g>
      <path d="M826.22,58.48c0-.12,0-0.25,0-0.37s0-.27,0-0.41h-2.41v2.39h0.8V58.5h1.18l0.43,0V59.3H827v0.79h0.8V60q0-3.15,0-6.3,0-1.21,0-2.42h1.59V50.5h-1.59v0.78H827v7.19h-0.79Zm5.62-3.2a0.59,0.59,0,0,1,0-.1c0-.2,0-0.39,0-0.59,0,0,0-.06,0-0.1h-1.59V51.3h-0.8v7.18h0.8v-3.2h1.62s0,0.08,0,.12q0,1.48,0,3s0,0.09,0,.14h0.8V56.09h1.61v3.2H835V56.88l0.75,0s0,0,0,.07c0,0.19,0,.38,0,0.57s0,0.09,0,.14h0.72a0.07,0.07,0,0,1,.08.08c0,0.31,0,.63,0,0.94q0,2.24,0,4.48s0,0.07,0,.11h-0.79s0,0,0,.06q0,1.13,0,2.26s0,0.06,0,.08H835v1.58h-6.4v-1.6h-0.8V64.1H827a15,15,0,0,0,0,1.6h0.79v2.4c2.69,0,5.35,0,8,0,0-.13,0-0.25,0-0.36,0-.61,0-1.22,0-1.83a2,2,0,0,0,0-.21h0.71c0.07,0,.09,0,0.09-0.09,0-.59,0-1.17,0-1.76,0-.17,0-0.34,0-0.53l0.39,0h0.4V57.69h-0.8V56.9h-0.8V56.09h-1.61V55.3h-2.06Zm-5.63,7.23v1.6h0.69A0.09,0.09,0,0,0,827,64c0-.43,0-0.85,0-1.28,0-.07,0-0.15,0-0.23h-0.8v-1.6h-0.81v-0.8h-0.77a3.55,3.55,0,0,0,0,.81h0.76s0,0.06,0,.09c0,0.18,0,.36,0,0.54s0,0.59,0,.89a0.06,0.06,0,0,0,.07.07h0.73Z" fill="#fff"/>
      <path d="M835.83,65.7s0-.06,0-0.08q0-1.13,0-2.26s0,0,0-.06h0.79s0-.07,0-0.11q0-2.24,0-4.48c0-.31,0-0.63,0-0.94a0.07,0.07,0,0,0-.08-0.08h-0.72c0-.05,0-0.1,0-0.14s0-.38,0-0.57c0,0,0-.07,0-0.07l-0.75,0v2.41h-0.79v-3.2h-1.61v2.39h-0.8s0-.09,0-0.14q0-1.48,0-3s0-.08,0-0.12h0l0.33,0h2.06v0.79h1.61V56.9h0.8v0.79h0.8V63.3H837l-0.39,0c0,0.19,0,.36,0,0.53,0,0.59,0,1.17,0,1.76,0,0.07,0,.09-0.09.09h-0.71Z"/>
      <path d="M835.83,65.7a2,2,0,0,1,0,.21c0,0.61,0,1.22,0,1.83,0,0.11,0,.23,0,0.36-2.67,0-5.33,0-8,0V65.7H827a15,15,0,0,1,0-1.6h0.78v1.59h0.8v1.6H835V65.7h0.81Z"/>
      <path d="M827.81,51.28q0,1.21,0,2.43,0,3.15,0,6.3v0.09H827V59.3h-0.79V58.48H827V51.3h0.8Z"/>
      <path d="M831.84,55.28h-1.62v3.2h-0.8V51.3h0.8v3.18h1.59s0,0.07,0,.1c0,0.2,0,.39,0,0.59a0.58,0.58,0,0,0,0,.1h0Z"/>
      <path d="M826.21,62.51h-0.73a0.06,0.06,0,0,1-.07-0.07c0-.3,0-0.59,0-0.89s0-.36,0-0.54c0,0,0-.05,0-0.09h-0.76a3.55,3.55,0,0,1,0-.81h0.77v0.8h0.81v1.6H827c0,0.08,0,.16,0,0.23,0,0.43,0,.85,0,1.28a0.09,0.09,0,0,1-.11.1h-0.69v-1.6Z"/>
      <path d="M826.22,58.48l-0.43,0h-1.18v1.59h-0.8V57.7h2.41c0,0.14,0,.28,0,0.41s0,0.25,0,.37h0Z"/>
      <path d="M827.81,51.28V50.5h1.59v0.78h-1.59Z"/>
    </g>
  </g>
  <g id="LwC7Nw-2" data-name="LwC7Nw" opacity="0.3">
    <g>
      <path d="M826.22,322.21c0-.12,0-0.25,0-0.37s0-.27,0-0.41h-2.41v2.39h0.8v-1.59h1.18l0.43,0V323H827v0.79h0.8v-0.09q0-3.15,0-6.3,0-1.21,0-2.42h1.59v-0.78h-1.59V315H827v7.19h-0.79Zm5.62-3.2a0.59,0.59,0,0,1,0-.1c0-.2,0-0.39,0-0.59,0,0,0-.06,0-0.1h-1.59V315h-0.8v7.18h0.8V319h1.62s0,0.08,0,.12q0,1.48,0,3s0,0.09,0,.14h0.8v-2.39h1.61V323H835V320.6l0.75,0s0,0,0,.07c0,0.19,0,.38,0,0.57s0,0.09,0,.14h0.72a0.07,0.07,0,0,1,.08.08c0,0.31,0,.63,0,0.94q0,2.24,0,4.48s0,0.07,0,.11h-0.79s0,0,0,.06q0,1.13,0,2.26s0,0.06,0,.08H835V331h-6.4v-1.6h-0.8v-1.59H827a15,15,0,0,0,0,1.6h0.79v2.4c2.69,0,5.35,0,8,0,0-.13,0-0.25,0-0.36,0-.61,0-1.22,0-1.83a2,2,0,0,0,0-.21h0.71c0.07,0,.09,0,0.09-0.09,0-.59,0-1.17,0-1.76,0-.17,0-0.34,0-0.53l0.39,0h0.4v-5.61h-0.8v-0.79h-0.8v-0.81h-1.61V319h-2.06Zm-5.63,7.23v1.6h0.69a0.09,0.09,0,0,0,.11-0.1c0-.43,0-0.85,0-1.28,0-.07,0-0.15,0-0.23h-0.8v-1.6h-0.81v-0.8h-0.77a3.55,3.55,0,0,0,0,.81h0.76s0,0.06,0,.09c0,0.18,0,.36,0,0.54s0,0.59,0,.89a0.06,0.06,0,0,0,.07.07h0.73Z" fill="#fff"/>
      <path d="M835.83,329.43s0-.06,0-0.08q0-1.13,0-2.26s0,0,0-.06h0.79s0-.07,0-0.11q0-2.24,0-4.48c0-.31,0-0.63,0-0.94a0.07,0.07,0,0,0-.08-0.08h-0.72c0-.05,0-0.1,0-0.14s0-.38,0-0.57c0,0,0-.07,0-0.07l-0.75,0V323h-0.79v-3.2h-1.61v2.39h-0.8s0-.09,0-0.14q0-1.48,0-3s0-.08,0-0.12h0l0.33,0h2.06v0.79h1.61v0.81h0.8v0.79h0.8V327H837l-0.39,0c0,0.19,0,.36,0,0.53,0,0.59,0,1.17,0,1.76,0,0.07,0,.09-0.09.09h-0.71Z"/>
      <path d="M835.83,329.42a2,2,0,0,1,0,.21c0,0.61,0,1.22,0,1.83,0,0.11,0,.23,0,0.36-2.67,0-5.33,0-8,0v-2.4H827a15,15,0,0,1,0-1.6h0.78v1.59h0.8V331H835v-1.58h0.81Z"/>
      <path d="M827.81,315q0,1.21,0,2.43,0,3.15,0,6.3v0.09H827V323h-0.79V322.2H827V315h0.8Z"/>
      <path d="M831.84,319h-1.62v3.2h-0.8V315h0.8v3.18h1.59s0,0.07,0,.1c0,0.2,0,.39,0,0.59a0.58,0.58,0,0,0,0,.1h0Z"/>
      <path d="M826.21,326.23h-0.73a0.06,0.06,0,0,1-.07-0.07c0-.3,0-0.59,0-0.89s0-.36,0-0.54c0,0,0-.05,0-0.09h-0.76a3.55,3.55,0,0,1,0-.81h0.77v0.8h0.81v1.6H827c0,0.08,0,.16,0,0.23,0,0.43,0,.85,0,1.28a0.09,0.09,0,0,1-.11.1h-0.69v-1.6Z"/>
      <path d="M826.22,322.2l-0.43,0h-1.18v1.59h-0.8v-2.39h2.41c0,0.14,0,.28,0,0.41s0,0.25,0,.37h0Z"/>
      <path d="M827.81,315v-0.78h1.59V315h-1.59Z"/>
    </g>
  </g>
  <g id="LwC7Nw-3" data-name="LwC7Nw" opacity="0.3">
    <g>
      <path d="M826.22,454c0-.12,0-0.25,0-0.37s0-.27,0-0.41h-2.41v2.39h0.8V454h1.18l0.43,0v0.82H827v0.79h0.8v-0.09q0-3.15,0-6.3,0-1.21,0-2.42h1.59V446h-1.59v0.78H827V454h-0.79Zm5.62-3.2a0.59,0.59,0,0,1,0-.1c0-.2,0-0.39,0-0.59,0,0,0-.06,0-0.1h-1.59v-3.18h-0.8V454h0.8v-3.2h1.62s0,0.08,0,.12q0,1.48,0,3s0,0.09,0,.14h0.8V451.6h1.61v3.2H835v-2.41l0.75,0s0,0,0,.07c0,0.19,0,.38,0,0.57s0,0.09,0,.14h0.72a0.07,0.07,0,0,1,.08.08c0,0.31,0,.63,0,0.94q0,2.24,0,4.48s0,0.07,0,.11h-0.79s0,0,0,.06q0,1.13,0,2.26s0,0.06,0,.08H835v1.58h-6.4v-1.6h-0.8v-1.59H827a15,15,0,0,0,0,1.6h0.79v2.4c2.69,0,5.35,0,8,0,0-.13,0-0.25,0-0.36,0-.61,0-1.22,0-1.83a2,2,0,0,0,0-.21h0.71c0.07,0,.09,0,0.09-0.09,0-.59,0-1.17,0-1.76,0-.17,0-0.34,0-0.53l0.39,0h0.4V453.2h-0.8v-0.79h-0.8V451.6h-1.61v-0.79h-2.06ZM826.21,458v1.6h0.69a0.09,0.09,0,0,0,.11-0.1c0-.43,0-0.85,0-1.28,0-.07,0-0.15,0-0.23h-0.8v-1.6h-0.81v-0.8h-0.77a3.55,3.55,0,0,0,0,.81h0.76s0,0.06,0,.09c0,0.18,0,.36,0,0.54s0,0.59,0,.89a0.06,0.06,0,0,0,.07.07h0.73Z" fill="#fff"/>
      <path d="M835.83,461.21s0-.06,0-0.08q0-1.13,0-2.26s0,0,0-.06h0.79s0-.07,0-0.11q0-2.24,0-4.48c0-.31,0-0.63,0-0.94a0.07,0.07,0,0,0-.08-0.08h-0.72c0-.05,0-0.1,0-0.14s0-.38,0-0.57c0,0,0-.07,0-0.07l-0.75,0v2.41h-0.79v-3.2h-1.61V454h-0.8s0-.09,0-0.14q0-1.48,0-3s0-.08,0-0.12h0l0.33,0h2.06v0.79h1.61v0.81h0.8v0.79h0.8v5.61H837l-0.39,0c0,0.19,0,.36,0,0.53,0,0.59,0,1.17,0,1.76,0,0.07,0,.09-0.09.09h-0.71Z"/>
      <path d="M835.83,461.21a2,2,0,0,1,0,.21c0,0.61,0,1.22,0,1.83,0,0.11,0,.23,0,0.36-2.67,0-5.33,0-8,0v-2.4H827a15,15,0,0,1,0-1.6h0.78v1.59h0.8v1.6H835v-1.58h0.81Z"/>
      <path d="M827.81,446.79q0,1.21,0,2.43,0,3.15,0,6.3v0.09H827v-0.79h-0.79V454H827v-7.19h0.8Z"/>
      <path d="M831.84,450.79h-1.62V454h-0.8v-7.18h0.8V450h1.59s0,0.07,0,.1c0,0.2,0,.39,0,0.59a0.58,0.58,0,0,0,0,.1h0Z"/>
      <path d="M826.21,458h-0.73a0.06,0.06,0,0,1-.07-0.07c0-.3,0-0.59,0-0.89s0-.36,0-0.54c0,0,0-.05,0-0.09h-0.76a3.55,3.55,0,0,1,0-.81h0.77v0.8h0.81V458H827c0,0.08,0,.16,0,0.23,0,0.43,0,.85,0,1.28a0.09,0.09,0,0,1-.11.1h-0.69V458Z"/>
      <path d="M826.22,454l-0.43,0h-1.18v1.59h-0.8v-2.39h2.41c0,0.14,0,.28,0,0.41s0,0.25,0,.37h0Z"/>
      <path d="M827.81,446.79V446h1.59v0.78h-1.59Z"/>
    </g>
  </g>
  <g opacity="0.6">
    <text transform="translate(527.38 33)" font-size="12" font-family="Open Sans">memory</text>
  </g>
  <g opacity="0.4">
    <text transform="translate(528.5 155.77)" font-size="12" font-family="Open Sans" font-style="italic">Blue shows high similarity, <tspan x="0" y="18">pink high dissimilarity.</tspan></text>
  </g>
  <g opacity="0.6">
    <text transform="translate(845.09 328)" font-size="12" font-family="Open Sans">interpolation amount</text>
  </g>
  <text transform="translate(845.09 460)" font-size="12" fill="#666" font-family="Open Sans">shift filter</text>
  <g opacity="0.4">
    <text transform="translate(825.09 12)" font-size="12" font-family="Open Sans" font-style="italic">RNN controller</text>
  </g>
  <g opacity="0.4">
    <text transform="translate(687.91 12)" font-size="12" font-family="Open Sans" font-style="italic">attention mechanism</text>
  </g>
  <g opacity="0.6">
    <text transform="translate(845.09 64)" font-size="12" font-family="Open Sans">query vector</text>
  </g>
  <g opacity="0.6">
    <text transform="translate(603.71 266)" font-size="12" font-family="Open Sans">attention from previous step</text>
  </g>
  <g opacity="0.6">
    <text transform="translate(352.16 728)" font-size="12" font-family="Open Sans">new attention distribution</text>
  </g>
  <circle id="query-hover" cx="912.96" cy="95.44" r="87.04" fill="#fff" fill-opacity="0"/>
  <circle id="interpolate-hover" cx="862.96" cy="357.04" r="41.37" fill="#fff" fill-opacity="0"/>
  <rect id="shift-hover" x="815.59" y="449" width="168" height="84" fill-opacity="0" opacity="0.6"/>
</svg>
