<svg id="background" xmlns="http://www.w3.org/2000/svg" xmlns:xlink="http://www.w3.org/1999/xlink" width="984" height="264" viewBox="0 0 984 264">
  <defs>
    <symbol id="op-halo" data-name="op-halo" viewBox="0 0 31.45 31.45">
      <circle cx="15.73" cy="15.73" r="14.73" fill="#e6eaf2" stroke="#fff" stroke-miterlimit="10" stroke-width="2"/>
    </symbol>
    <symbol id="op-bg" data-name="op-bg" viewBox="0 0 24 24">
      <circle cx="12" cy="12" r="11.25" fill="#d8c2f2" stroke="#666" stroke-miterlimit="10" stroke-width="1.5"/>
    </symbol>
    <symbol id="op-sum" data-name="op-sum" viewBox="0 0 24 24">
      <use id="op-bg-3" data-name="op-bg" width="24" height="24" xlink:href="#op-bg"/>
      <path d="M7.88,12.5V11.18h3.41V7.75h1.34v3.43H16V12.5H12.62v3.42H11.29V12.5H7.88Z" fill="#666"/>
    </symbol>
    <symbol id="op-sum_5" data-name="op-sum 5" viewBox="0 0 24 24">
      <use id="op-bg-6" data-name="op-bg" width="24" height="24" xlink:href="#op-bg"/>
      <g>
        <path d="M11,12.65L4.21,15.32V14.26l5.51-2.12L4.21,10V9L11,11.66v1Z" fill="#666"/>
        <path d="M16.34,11.45H15.48q-0.37,0-.73,0a1.84,1.84,0,0,0-.66.17,1,1,0,0,0-.46.42,1.19,1.19,0,0,0-.21.73,1.13,1.13,0,0,0,.2.67,1.4,1.4,0,0,0,.46.43,2.73,2.73,0,0,0,1.33.3,3,3,0,0,0,1.54-.37,1.66,1.66,0,0,0,.73-1.28H19a2.55,2.55,0,0,1-1.09,2.09,4,4,0,0,1-2.32.7,7.39,7.39,0,0,1-1.28-.11,4.23,4.23,0,0,1-1.17-.38A2.21,2.21,0,0,1,12,12.79a1.72,1.72,0,0,1,.55-1.3,2.33,2.33,0,0,1,1.2-.66v0a2.71,2.71,0,0,1-1.07-.69A1.56,1.56,0,0,1,12.24,9a1.8,1.8,0,0,1,.3-1,2,2,0,0,1,.74-0.69,4.19,4.19,0,0,1,2-.52,4.65,4.65,0,0,1,2.34.55,2.37,2.37,0,0,1,1.05,2H17.36a1.21,1.21,0,0,0-.64-1.15,3.21,3.21,0,0,0-1.36-.29,2.53,2.53,0,0,0-1.1.24,1,1,0,0,0-.58,1,1,1,0,0,0,.58,1,2.79,2.79,0,0,0,1.2.22h0.88v1.16Z" fill="#666"/>
      </g>
    </symbol>
    <symbol id="op-sum_4" data-name="op-sum 4" viewBox="0 0 24 24">
      <use id="op-bg-9" data-name="op-bg" width="24" height="24" xlink:href="#op-bg"/>
      <path d="M7.51,11.21h9v1.15h-9V11.21Z" fill="#666"/>
    </symbol>
    <symbol id="op-sum_3" data-name="op-sum 3" viewBox="0 0 24 24">
      <use id="op-bg-12" data-name="op-bg" width="24" height="24" xlink:href="#op-bg"/>
      <path d="M9.65,10V9.21a4.3,4.3,0,0,0,1.59-.37,1.83,1.83,0,0,0,.67-1.23h0.83V16H11.62V10h-2Z" fill="#666"/>
    </symbol>
    <symbol id="op-x" data-name="op-x" viewBox="0 0 24 24">
      <use id="op-bg-15" data-name="op-bg" width="24" height="24" xlink:href="#op-bg"/>
      <path d="M9.16,15.28l-1-1,2.56-2.56L8.16,9.16l1-1,2.58,2.58L14.3,8.17l1,1-2.56,2.56,2.57,2.57-1,1-2.57-2.57Z" fill="#666"/>
    </symbol>
    <symbol id="rnn-bg" data-name="rnn-bg" viewBox="0 0 49.5 49.5">
      <rect x="0.75" y="0.75" width="48" height="48" rx="6" ry="6" fill="#f0f0f5" stroke="#666" stroke-width="1.5"/>
    </symbol>
    <symbol id="rnn-s" data-name="rnn-s" viewBox="0 0 49.5 49.5">
      <use id="rnn-bg-3" data-name="rnn-bg" width="49.5" height="49.5" xlink:href="#rnn-bg"/>
      <path d="M29.68,27.61a3.81,3.81,0,0,1-1.49,3.2,6.46,6.46,0,0,1-4,1.15,10.1,10.1,0,0,1-4.25-.71V29.51a11.16,11.16,0,0,0,2.08.64,10.92,10.92,0,0,0,2.23.23,4.49,4.49,0,0,0,2.72-.69,2.25,2.25,0,0,0,.92-1.91,2.45,2.45,0,0,0-.32-1.32,3,3,0,0,0-1.08-1,15.14,15.14,0,0,0-2.31-1A7.38,7.38,0,0,1,21,22.68a4.06,4.06,0,0,1-.93-2.77A3.45,3.45,0,0,1,21.45,17,5.61,5.61,0,0,1,25,16a10.54,10.54,0,0,1,4.26.85l-0.56,1.57A9.63,9.63,0,0,0,25,17.6a3.62,3.62,0,0,0-2.24.62,2,2,0,0,0-.81,1.71,2.62,2.62,0,0,0,.3,1.32,2.8,2.8,0,0,0,1,.95,12.47,12.47,0,0,0,2.16,1A8.56,8.56,0,0,1,28.76,25,3.68,3.68,0,0,1,29.68,27.61Z" fill="#5b5b5b"/>
    </symbol>
    <symbol id="op-sum_2" data-name="op-sum 2" viewBox="0 0 24 24">
      <use width="24" height="24" xlink:href="#op-bg"/>
      <path d="M9.88,9.08a1.77,1.77,0,0,1,.69-1.47,3,3,0,0,1,1.89-.54,4.84,4.84,0,0,1,1.87.38v1.1a5.22,5.22,0,0,0-1.88-.4,1.57,1.57,0,0,0-.93.25,0.78,0.78,0,0,0-.35.67q0,0.74,1.51,1.26a4.6,4.6,0,0,1,2.22,1.44A3.75,3.75,0,0,1,15.64,14v0.27a4.23,4.23,0,0,1-.4,1.87,3,3,0,0,1-1.15,1.28,3.29,3.29,0,0,1-1.74.45,3.08,3.08,0,0,1-2.42-1A3.86,3.86,0,0,1,9,14.22V14.13a3.42,3.42,0,0,1,.64-2A2.76,2.76,0,0,1,11.29,11v0a2.36,2.36,0,0,1-1-.75A1.76,1.76,0,0,1,9.88,9.08Zm0.42,5.2a3,3,0,0,0,.55,1.89,1.8,1.8,0,0,0,1.49.69,1.79,1.79,0,0,0,1.48-.69,3.23,3.23,0,0,0,.55-2,2.67,2.67,0,0,0-.58-1.67,2.35,2.35,0,0,0-1.43-.92,1.81,1.81,0,0,0-1.49.7A3.19,3.19,0,0,0,10.3,14.28Z" fill="#666"/>
    </symbol>
    <symbol id="rnn-sigma" data-name="rnn-sigma" viewBox="0 0 25.17 25.17">
      <rect x="0.75" y="0.75" width="23.67" height="23.67" rx="6" ry="6" fill="#f0f0f5" stroke="#666" stroke-width="1.5"/>
      <path d="M19,8.67H16.48a5.39,5.39,0,0,1,1.41,3.87,6.62,6.62,0,0,1-1.37,4.36,5.13,5.13,0,0,1-4.11,1.73,5,5,0,0,1-4.09-1.78,6.66,6.66,0,0,1-1.37-4.32,5.73,5.73,0,0,1,1.5-4.07,5.22,5.22,0,0,1,4-1.58,6.18,6.18,0,0,1,1.67.21H19V8.67ZM15.8,12.78a5.89,5.89,0,0,0-.74-2.92,2.87,2.87,0,0,0-2.65-1.41A2.86,2.86,0,0,0,9.8,9.79a5.53,5.53,0,0,0-.77,3,4.82,4.82,0,0,0,.91,3,2.89,2.89,0,0,0,2.47,1.26A2.88,2.88,0,0,0,15,15.74,5.37,5.37,0,0,0,15.8,12.78Z" fill="#666"/>
    </symbol>
  </defs>
  <title>rnn</title>
  <g id="_Group_" data-name="&lt;Group&gt;">
    <rect x="168" y="11.89" width="612" height="240" rx="10" ry="10" fill="#f0f0f5"/>
  </g>
  <line x1="348" y1="38.89" x2="348" y2="263.89" stroke="#fff" stroke-miterlimit="10" stroke-width="1.5"/>
  <line x1="540" y1="38.89" x2="540" y2="263.89" stroke="#fff" stroke-miterlimit="10" stroke-width="1.5"/>
  <line x1="732" y1="38.89" x2="732" y2="263.89" stroke="#fff" stroke-miterlimit="10" stroke-width="1.5"/>
  <path d="M240,180h50a10,10,0,0,0,10-10V108" fill="none" stroke="#666" stroke-miterlimit="10" stroke-width="1.5"/>
  <path d="M432,180h50a10,10,0,0,0,10-10V108" fill="none" stroke="#666" stroke-miterlimit="10" stroke-width="1.5"/>
  <path d="M624,180h50a10,10,0,0,0,10-10V108" fill="none" stroke="#666" stroke-miterlimit="10" stroke-width="1.5"/>
  <line x1="456" y1="132" x2="456" y2="73.25" fill="none" stroke="#666" stroke-miterlimit="10" stroke-width="1.5"/>
  <line x1="648" y1="132" x2="648" y2="77" fill="none" stroke="#666" stroke-miterlimit="10" stroke-width="1.5"/>
  <path d="M299.5,95.89V79.39a10,10,0,0,1,10-10H756" fill="none" stroke="#666" stroke-miterlimit="10" stroke-width="1.5"/>
  <path d="M491.5,96V83.5a10,10,0,0,1,10-10H756" fill="none" stroke="#666" stroke-miterlimit="10" stroke-width="1.5"/>
  <path d="M683.51,94V85.75c0-4.54,4.5-8.25,10-8.25H756" fill="none" stroke="#666" stroke-miterlimit="10" stroke-width="1.5"/>
  <line x1="240" y1="47.89" x2="648" y2="47.89" fill="none" stroke="#666" stroke-miterlimit="10" stroke-width="1.5"/>
  <path d="M612,76.5v9.75A9.91,9.91,0,0,0,622,96h22" fill="none" stroke="#666" stroke-miterlimit="10" stroke-width="1.5"/>
  <path d="M576,47.89h26c5.5,0,10,3.83,10,8.5v8.5" fill="none" stroke="#666" stroke-miterlimit="10" stroke-width="1.5"/>
  <use id="op-halo-3" data-name="op-halo" width="31.45" height="31.45" transform="translate(332.94 9)" xlink:href="#op-halo"/>
  <use id="op-halo-6" data-name="op-halo" width="31.45" height="31.45" transform="translate(524.94 9)" xlink:href="#op-halo"/>
  <use id="op-halo-9" data-name="op-halo" width="31.45" height="31.45" transform="translate(716.94 9)" xlink:href="#op-halo"/>
  <g>
    <path d="M396,240H589.5a10,10,0,0,0,10-10V210.43" fill="none" stroke="#666" stroke-miterlimit="10" stroke-width="1.5"/>
    <path d="M599.5,205a27.2,27.2,0,0,0,4.28,7.69l-4.28-1.55-4.28,1.55A27.18,27.18,0,0,0,599.5,205Z" fill="#666"/>
  </g>
  <g>
    <path d="M216,270V250a10,10,0,0,1,10-10H397.5a10,10,0,0,0,10-10V210.43" fill="none" stroke="#666" stroke-miterlimit="10" stroke-width="1.5"/>
    <path d="M407.5,205a27.2,27.2,0,0,0,4.28,7.69l-4.28-1.55-4.28,1.55A27.18,27.18,0,0,0,407.5,205Z" fill="#666"/>
  </g>
  <g>
    <line x1="150" y1="180" x2="186.57" y2="180" fill="none" stroke="#666" stroke-miterlimit="10" stroke-width="1.5"/>
    <path d="M192,180a27.2,27.2,0,0,0-7.69,4.28l1.55-4.28-1.55-4.28A27.18,27.18,0,0,0,192,180Z" fill="#666"/>
  </g>
  <g>
    <line x1="762" y1="72.89" x2="786.57" y2="72.89" fill="none" stroke="#666" stroke-miterlimit="10" stroke-width="1.5"/>
    <path d="M792,72.89a27.2,27.2,0,0,0-7.69,4.28l1.55-4.28-1.55-4.28A27.18,27.18,0,0,0,792,72.89Z" fill="#666"/>
  </g>
  <g>
    <line x1="240" y1="180" x2="378.57" y2="180" fill="none" stroke="#666" stroke-miterlimit="10" stroke-width="1.5"/>
    <path d="M384,180a27.2,27.2,0,0,0-7.69,4.28l1.55-4.28-1.55-4.28A27.18,27.18,0,0,0,384,180Z" fill="#666"/>
  </g>
  <g>
    <line x1="432" y1="180" x2="570.57" y2="180" fill="none" stroke="#666" stroke-miterlimit="10" stroke-width="1.5"/>
    <path d="M576,180a27.2,27.2,0,0,0-7.69,4.28l1.55-4.28-1.55-4.28A27.18,27.18,0,0,0,576,180Z" fill="#666"/>
  </g>
  <g>
    <path d="M240,180h14a10,10,0,0,0,10-10V149.43" fill="none" stroke="#666" stroke-miterlimit="10" stroke-width="1.5"/>
    <path d="M264,144a27.2,27.2,0,0,0,4.28,7.69L264,150.14l-4.28,1.55A27.18,27.18,0,0,0,264,144Z" fill="#666"/>
  </g>
  <g>
    <path d="M432,180h14a10,10,0,0,0,10-10V149.43" fill="none" stroke="#666" stroke-miterlimit="10" stroke-width="1.5"/>
    <path d="M456,144a27.2,27.2,0,0,0,4.28,7.69L456,150.14l-4.28,1.55A27.18,27.18,0,0,0,456,144Z" fill="#666"/>
  </g>
  <g>
    <path d="M624,180h14a10,10,0,0,0,10-10V149.43" fill="none" stroke="#666" stroke-miterlimit="10" stroke-width="1.5"/>
    <path d="M648,144a27.2,27.2,0,0,0,4.28,7.69L648,150.14l-4.28,1.55A27.18,27.18,0,0,0,648,144Z" fill="#666"/>
  </g>
  <g>
    <line x1="264" y1="131.89" x2="264" y2="65.32" fill="none" stroke="#666" stroke-miterlimit="10" stroke-width="1.5"/>
    <path d="M264,59.89a27.2,27.2,0,0,0,4.28,7.69L264,66l-4.28,1.55A27.18,27.18,0,0,0,264,59.89Z" fill="#666"/>
  </g>
  <g>
    <line x1="456" y1="66.14" x2="456" y2="65.32" fill="none" stroke="#666" stroke-miterlimit="10" stroke-width="1.5"/>
    <path d="M456,59.89a27.2,27.2,0,0,0,4.28,7.69L456,66l-4.28,1.55A27.18,27.18,0,0,0,456,59.89Z" fill="#666"/>
  </g>
  <g>
    <line x1="648" y1="65.89" x2="648" y2="65.32" fill="none" stroke="#666" stroke-miterlimit="10" stroke-width="1.5"/>
    <path d="M648,59.89a27.2,27.2,0,0,0,4.28,7.69L648,66l-4.28,1.55A27.18,27.18,0,0,0,648,59.89Z" fill="#666"/>
  </g>
  <g>
    <path d="M264,132V106a10,10,0,0,1,10-10h8.57" fill="none" stroke="#666" stroke-miterlimit="10" stroke-width="1.5"/>
    <path d="M288,96a27.2,27.2,0,0,0-7.69,4.28L281.86,96l-1.55-4.28A27.18,27.18,0,0,0,288,96Z" fill="#666"/>
  </g>
  <g>
    <path d="M456,132V106a10,10,0,0,1,10-10h8.57" fill="none" stroke="#666" stroke-miterlimit="10" stroke-width="1.5"/>
    <path d="M480,96a27.2,27.2,0,0,0-7.69,4.28L473.86,96l-1.55-4.28A27.18,27.18,0,0,0,480,96Z" fill="#666"/>
  </g>
  <g>
    <path d="M264,48.39h18a16.83,16.83,0,0,0,10.26-4.22L308,28.61a16.83,16.83,0,0,1,10.26-4.22h9.32" fill="none" stroke="#666" stroke-miterlimit="10" stroke-width="1.5"/>
    <path d="M333,24.39a27.2,27.2,0,0,0-7.69,4.28l1.55-4.28-1.55-4.28A27.18,27.18,0,0,0,333,24.39Z" fill="#666"/>
  </g>
  <g>
    <path d="M456,47.89h18a17.11,17.11,0,0,0,10.31-4.18l15.63-15.15a17.11,17.11,0,0,1,10.31-4.18h9.32" fill="none" stroke="#666" stroke-miterlimit="10" stroke-width="1.5"/>
    <path d="M525,24.39a27.2,27.2,0,0,0-7.69,4.28l1.55-4.28-1.55-4.28A27.18,27.18,0,0,0,525,24.39Z" fill="#666"/>
  </g>
  <g>
    <path d="M648,48.39h18a16.83,16.83,0,0,0,10.26-4.22L692,28.61a16.83,16.83,0,0,1,10.26-4.22h9.32" fill="none" stroke="#666" stroke-miterlimit="10" stroke-width="1.5"/>
    <path d="M717,24.39a27.2,27.2,0,0,0-7.69,4.28l1.55-4.28-1.55-4.28A27.18,27.18,0,0,0,717,24.39Z" fill="#666"/>
  </g>
  <g>
    <line x1="652" y1="96" x2="666.57" y2="96.12" fill="none" stroke="#666" stroke-miterlimit="10" stroke-width="1.5"/>
    <path d="M672,96.16a27.2,27.2,0,0,0-7.73,4.22l1.58-4.27-1.51-4.29A27.18,27.18,0,0,0,672,96.16Z" fill="#666"/>
  </g>
  <g>
    <line x1="216" y1="258" x2="216" y2="209.43" fill="none" stroke="#666" stroke-miterlimit="10" stroke-width="1.5"/>
    <path d="M216,204a27.2,27.2,0,0,0,4.28,7.69L216,210.14l-4.28,1.55A27.18,27.18,0,0,0,216,204Z" fill="#666"/>
  </g>
  <g id="_Group_2" data-name="&lt;Group&gt;">
    <g opacity="0.1">
      <circle cx="757.75" cy="74.89" r="11.25" stroke="#000" stroke-miterlimit="10" stroke-width="1.5"/>
      <path d="M753.63,75.39V74.08H757V70.65h1.34v3.43h3.41v1.31h-3.41v3.42H757V75.39h-3.41Z"/>
    </g>
    <use width="24" height="24" transform="translate(744.75 60.89)" xlink:href="#op-sum"/>
  </g>
  <g>
    <g opacity="0.1">
      <circle cx="349.75" cy="26.64" r="11.25" stroke="#000" stroke-miterlimit="10" stroke-width="1.5"/>
      <path d="M348.71,27.29L342,30V28.9l5.51-2.12L342,24.68V23.62l6.75,2.68v1Z"/>
      <path d="M354.09,26.09h-0.85q-0.37,0-.73,0a1.84,1.84,0,0,0-.66.17,1,1,0,0,0-.46.42,1.19,1.19,0,0,0-.21.73,1.13,1.13,0,0,0,.2.67,1.4,1.4,0,0,0,.46.43,2.73,2.73,0,0,0,1.33.3,3,3,0,0,0,1.54-.37,1.66,1.66,0,0,0,.73-1.28h1.34a2.55,2.55,0,0,1-1.09,2.09,4,4,0,0,1-2.32.7,7.39,7.39,0,0,1-1.28-.11,4.23,4.23,0,0,1-1.17-.38,2.21,2.21,0,0,1-1.18-2.08,1.72,1.72,0,0,1,.55-1.3,2.33,2.33,0,0,1,1.2-.66v0a2.71,2.71,0,0,1-1.07-.69,1.56,1.56,0,0,1-.43-1.14,1.8,1.8,0,0,1,.3-1A2,2,0,0,1,351,21.9a4.19,4.19,0,0,1,2-.52,4.65,4.65,0,0,1,2.34.55,2.37,2.37,0,0,1,1.05,2h-1.34a1.21,1.21,0,0,0-.64-1.15,3.21,3.21,0,0,0-1.36-.29,2.53,2.53,0,0,0-1.1.24,1,1,0,0,0-.58,1,1,1,0,0,0,.58,1,2.79,2.79,0,0,0,1.2.22h0.88v1.16Z"/>
    </g>
    <use width="24" height="24" transform="translate(336.75 12.64)" xlink:href="#op-sum_5"/>
  </g>
  <g>
    <g opacity="0.1">
      <circle cx="265.75" cy="49.99" r="11.25" stroke="#000" stroke-miterlimit="10" stroke-width="1.5"/>
      <path d="M261.26,49.2h9v1.15h-9V49.2Z"/>
    </g>
    <use width="24" height="24" transform="translate(252.75 35.99)" xlink:href="#op-sum_4"/>
  </g>
  <g id="_Group_3" data-name="&lt;Group&gt;">
    <g opacity="0.1">
      <circle cx="228.25" cy="50.64" r="11.25" stroke="#000" stroke-miterlimit="10" stroke-width="1.5"/>
      <path d="M225.9,48.66V47.85a4.3,4.3,0,0,0,1.59-.37,1.83,1.83,0,0,0,.67-1.23H229V54.6h-1.12V48.66h-2Z"/>
    </g>
    <use width="24" height="24" transform="translate(215.25 36.64)" xlink:href="#op-sum_3"/>
  </g>
  <g>
    <g opacity="0.1">
      <circle cx="301.01" cy="97.25" r="11.25" stroke="#000" stroke-miterlimit="10" stroke-width="1.5"/>
      <path d="M298.17,100.53l-1-1L299.74,97l-2.58-2.58,1-1L300.74,96l2.56-2.56,1,1L301.73,97l2.57,2.57-1,1L300.73,98Z"/>
    </g>
    <use width="24" height="24" transform="translate(288.01 83.25)" xlink:href="#op-x"/>
  </g>
  <g>
    <g opacity="0.1">
      <rect x="193" y="158" width="48" height="48" rx="6" ry="6" stroke="#000" stroke-width="1.5"/>
      <rect x="193" y="158" width="48" height="48" rx="6" ry="6" fill="none" stroke="#000" stroke-width="1.5"/>
      <path d="M221.93,184.86a3.81,3.81,0,0,1-1.49,3.2,6.46,6.46,0,0,1-4,1.15,10.1,10.1,0,0,1-4.25-.71v-1.74a11.16,11.16,0,0,0,2.08.64,10.92,10.92,0,0,0,2.23.23,4.49,4.49,0,0,0,2.72-.69,2.25,2.25,0,0,0,.92-1.91,2.45,2.45,0,0,0-.32-1.32,3,3,0,0,0-1.08-1,15.14,15.14,0,0,0-2.31-1,7.38,7.38,0,0,1-3.1-1.84,4.06,4.06,0,0,1-.93-2.77,3.45,3.45,0,0,1,1.35-2.86,5.61,5.61,0,0,1,3.57-1.06,10.54,10.54,0,0,1,4.26.85L221,175.66a9.63,9.63,0,0,0-3.74-.81,3.62,3.62,0,0,0-2.24.62,2,2,0,0,0-.81,1.71,2.62,2.62,0,0,0,.3,1.32,2.8,2.8,0,0,0,1,.95,12.47,12.47,0,0,0,2.16,1,8.56,8.56,0,0,1,3.37,1.87A3.68,3.68,0,0,1,221.93,184.86Z"/>
    </g>
    <use width="49.5" height="49.5" transform="translate(191.25 155.25)" xlink:href="#rnn-s"/>
  </g>
  <use width="24" height="24" transform="translate(528.74 12.64)" xlink:href="#op-sum_5"/>
  <g>
    <g opacity="0.1">
      <circle cx="457.74" cy="49.99" r="11.25" stroke="#000" stroke-miterlimit="10" stroke-width="1.5"/>
      <path d="M453.26,49.2h9v1.15h-9V49.2Z"/>
    </g>
    <use width="24" height="24" transform="translate(444.74 35.99)" xlink:href="#op-sum_4"/>
  </g>
  <g>
    <g opacity="0.1">
      <circle cx="493" cy="97.25" r="11.25" stroke="#000" stroke-miterlimit="10" stroke-width="1.5"/>
      <path d="M490.16,100.53l-1-1L491.73,97l-2.58-2.58,1-1L492.74,96l2.56-2.56,1,1L493.72,97l2.57,2.57-1,1L492.72,98Z"/>
    </g>
    <use width="24" height="24" transform="translate(480 83.25)" xlink:href="#op-x"/>
  </g>
  <g>
    <g opacity="0.1">
      <rect x="384.99" y="158" width="48" height="48" rx="6" ry="6" stroke="#000" stroke-width="1.5"/>
      <rect x="384.99" y="158" width="48" height="48" rx="6" ry="6" fill="none" stroke="#000" stroke-width="1.5"/>
      <path d="M413.93,184.86a3.81,3.81,0,0,1-1.49,3.2,6.46,6.46,0,0,1-4,1.15,10.1,10.1,0,0,1-4.25-.71v-1.74a11.16,11.16,0,0,0,2.08.64,10.92,10.92,0,0,0,2.23.23,4.49,4.49,0,0,0,2.72-.69,2.25,2.25,0,0,0,.92-1.91,2.45,2.45,0,0,0-.32-1.32,3,3,0,0,0-1.08-1,15.14,15.14,0,0,0-2.31-1,7.38,7.38,0,0,1-3.1-1.84,4.06,4.06,0,0,1-.93-2.77,3.45,3.45,0,0,1,1.35-2.86,5.61,5.61,0,0,1,3.57-1.06,10.54,10.54,0,0,1,4.26.85L413,175.66a9.63,9.63,0,0,0-3.74-.81,3.62,3.62,0,0,0-2.24.62,2,2,0,0,0-.81,1.71,2.62,2.62,0,0,0,.3,1.32,2.8,2.8,0,0,0,1,.95,12.47,12.47,0,0,0,2.16,1,8.56,8.56,0,0,1,3.37,1.87A3.68,3.68,0,0,1,413.93,184.86Z"/>
    </g>
    <use width="49.5" height="49.5" transform="translate(383.24 155.25)" xlink:href="#rnn-s"/>
  </g>
  <g id="_Group_4" data-name="&lt;Group&gt;">
    <g opacity="0.1">
      <circle cx="733.74" cy="26.64" r="11.25" stroke="#000" stroke-miterlimit="10" stroke-width="1.5"/>
      <path d="M732.7,27.29L725.95,30V28.9l5.51-2.12-5.51-2.11V23.62l6.75,2.68v1Z"/>
      <path d="M738.07,26.09h-0.85q-0.37,0-.73,0a1.84,1.84,0,0,0-.66.17,1,1,0,0,0-.46.42,1.19,1.19,0,0,0-.21.73,1.13,1.13,0,0,0,.2.67,1.4,1.4,0,0,0,.46.43,2.73,2.73,0,0,0,1.33.3,3,3,0,0,0,1.54-.37,1.66,1.66,0,0,0,.73-1.28h1.34a2.55,2.55,0,0,1-1.09,2.09,4,4,0,0,1-2.32.7,7.39,7.39,0,0,1-1.28-.11,4.23,4.23,0,0,1-1.17-.38,2.21,2.21,0,0,1-1.18-2.08,1.72,1.72,0,0,1,.55-1.3,2.33,2.33,0,0,1,1.2-.66v0a2.71,2.71,0,0,1-1.07-.69,1.56,1.56,0,0,1-.43-1.14,1.8,1.8,0,0,1,.3-1A2,2,0,0,1,735,21.9a4.19,4.19,0,0,1,2-.52,4.65,4.65,0,0,1,2.34.55,2.37,2.37,0,0,1,1.05,2H739.1a1.21,1.21,0,0,0-.64-1.15,3.21,3.21,0,0,0-1.36-.29,2.53,2.53,0,0,0-1.1.24,1,1,0,0,0-.58,1,1,1,0,0,0,.58,1,2.79,2.79,0,0,0,1.2.22h0.88v1.16Z"/>
    </g>
    <use width="24" height="24" transform="translate(720.74 12.64)" xlink:href="#op-sum_5"/>
  </g>
  <g id="_Group_5" data-name="&lt;Group&gt;">
    <g opacity="0.1">
      <circle cx="648.74" cy="49.99" r="11.25" stroke="#000" stroke-miterlimit="10" stroke-width="1.5"/>
      <path d="M644.25,49.2h9v1.15h-9V49.2Z"/>
    </g>
    <use width="24" height="24" transform="translate(635.74 35.99)" xlink:href="#op-sum_4"/>
  </g>
  <g id="_Group_6" data-name="&lt;Group&gt;">
    <g opacity="0.1">
      <circle cx="685" cy="97.25" r="11.25" stroke="#000" stroke-miterlimit="10" stroke-width="1.5"/>
      <path d="M682.16,100.53l-1-1L683.73,97l-2.58-2.58,1-1L684.74,96l2.56-2.56,1,1L685.72,97l2.57,2.57-1,1L684.72,98Z"/>
    </g>
    <use width="24" height="24" transform="translate(672 83.25)" xlink:href="#op-x"/>
  </g>
  <g id="_Group_7" data-name="&lt;Group&gt;">
    <g opacity="0.1">
      <rect x="576.99" y="158" width="48" height="48" rx="6" ry="6" stroke="#000" stroke-width="1.5"/>
      <rect x="576.99" y="158" width="48" height="48" rx="6" ry="6" fill="none" stroke="#000" stroke-width="1.5"/>
      <path d="M605.92,184.86a3.81,3.81,0,0,1-1.49,3.2,6.46,6.46,0,0,1-4,1.15,10.1,10.1,0,0,1-4.25-.71v-1.74a11.16,11.16,0,0,0,2.08.64,10.92,10.92,0,0,0,2.23.23,4.49,4.49,0,0,0,2.72-.69,2.25,2.25,0,0,0,.92-1.91,2.45,2.45,0,0,0-.32-1.32,3,3,0,0,0-1.08-1,15.14,15.14,0,0,0-2.31-1,7.38,7.38,0,0,1-3.1-1.84,4.06,4.06,0,0,1-.93-2.77,3.45,3.45,0,0,1,1.35-2.86,5.61,5.61,0,0,1,3.57-1.06,10.54,10.54,0,0,1,4.26.85L605,175.66a9.63,9.63,0,0,0-3.74-.81,3.62,3.62,0,0,0-2.24.62,2,2,0,0,0-.81,1.71,2.62,2.62,0,0,0,.3,1.32,2.8,2.8,0,0,0,1,.95,12.47,12.47,0,0,0,2.16,1,8.56,8.56,0,0,1,3.37,1.87A3.68,3.68,0,0,1,605.92,184.86Z"/>
    </g>
    <use width="49.5" height="49.5" transform="translate(575.24 155.25)" xlink:href="#rnn-s"/>
  </g>
  <g>
    <g opacity="0.1">
      <circle cx="216.75" cy="228" r="11.25" stroke="#000" stroke-miterlimit="10" stroke-width="1.5"/>
      <path d="M214.63,225.08a1.77,1.77,0,0,1,.69-1.47,3,3,0,0,1,1.89-.54,4.84,4.84,0,0,1,1.87.38v1.1a5.22,5.22,0,0,0-1.88-.4,1.57,1.57,0,0,0-.93.25,0.78,0.78,0,0,0-.35.67q0,0.74,1.51,1.26a4.6,4.6,0,0,1,2.22,1.44,3.75,3.75,0,0,1,.74,2.26v0.27a4.23,4.23,0,0,1-.4,1.87,3,3,0,0,1-1.15,1.28,3.29,3.29,0,0,1-1.74.45,3.08,3.08,0,0,1-2.42-1,3.86,3.86,0,0,1-.9-2.66v-0.09a3.42,3.42,0,0,1,.64-2A2.76,2.76,0,0,1,216,227v0a2.36,2.36,0,0,1-1-.75A1.76,1.76,0,0,1,214.63,225.08Zm0.42,5.2a3,3,0,0,0,.55,1.89,1.94,1.94,0,0,0,3,0,3.23,3.23,0,0,0,.55-2,2.67,2.67,0,0,0-.58-1.67,2.35,2.35,0,0,0-1.43-.92,1.81,1.81,0,0,0-1.49.7A3.19,3.19,0,0,0,215.05,230.28Z"/>
    </g>
    <use width="24" height="24" transform="translate(203.75 214)" xlink:href="#op-sum_2"/>
  </g>
  <g id="_Group_8" data-name="&lt;Group&gt;">
    <g opacity="0.1">
      <rect x="445.33" y="121.33" width="23.67" height="23.67" rx="6" ry="6" stroke="#000" stroke-width="1.5"/>
      <path d="M463.54,129.25h-2.48a5.39,5.39,0,0,1,1.41,3.87,6.62,6.62,0,0,1-1.37,4.36,5.13,5.13,0,0,1-4.11,1.73,5,5,0,0,1-4.09-1.78,6.66,6.66,0,0,1-1.37-4.32A5.73,5.73,0,0,1,453,129a5.22,5.22,0,0,1,4-1.58,6.18,6.18,0,0,1,1.67.21h4.88v1.57Zm-3.16,4.11a5.89,5.89,0,0,0-.74-2.92,3.2,3.2,0,0,0-5.26-.06,5.53,5.53,0,0,0-.77,3,4.82,4.82,0,0,0,.91,3,3.11,3.11,0,0,0,5.05-.06A5.37,5.37,0,0,0,460.39,133.37Z"/>
    </g>
    <use width="25.17" height="25.17" transform="translate(443.58 118.58)" xlink:href="#rnn-sigma"/>
  </g>
  <g id="_Group_9" data-name="&lt;Group&gt;">
    <g opacity="0.1">
      <rect x="253.33" y="121.33" width="23.67" height="23.67" rx="6" ry="6" stroke="#000" stroke-width="1.5"/>
      <path d="M271.54,129.25h-2.48a5.39,5.39,0,0,1,1.41,3.87,6.62,6.62,0,0,1-1.37,4.36,5.13,5.13,0,0,1-4.11,1.73,5,5,0,0,1-4.09-1.78,6.66,6.66,0,0,1-1.37-4.32A5.73,5.73,0,0,1,261,129a5.22,5.22,0,0,1,4-1.58,6.18,6.18,0,0,1,1.67.21h4.88v1.57Zm-3.16,4.11a5.89,5.89,0,0,0-.74-2.92,3.2,3.2,0,0,0-5.26-.06,5.53,5.53,0,0,0-.77,3,4.82,4.82,0,0,0,.91,3,3.11,3.11,0,0,0,5.05-.06A5.37,5.37,0,0,0,268.39,133.37Z"/>
    </g>
    <use width="25.17" height="25.17" transform="translate(251.58 118.58)" xlink:href="#rnn-sigma"/>
  </g>
  <g id="_Group_10" data-name="&lt;Group&gt;">
    <g opacity="0.1">
      <rect x="637.33" y="121.33" width="23.67" height="23.67" rx="6" ry="6" stroke="#000" stroke-width="1.5"/>
      <path d="M655.54,129.25h-2.48a5.39,5.39,0,0,1,1.41,3.87,6.62,6.62,0,0,1-1.37,4.36,5.13,5.13,0,0,1-4.11,1.73,5,5,0,0,1-4.09-1.78,6.66,6.66,0,0,1-1.37-4.32A5.73,5.73,0,0,1,645,129a5.22,5.22,0,0,1,4-1.58,6.18,6.18,0,0,1,1.67.21h4.88v1.57Zm-3.16,4.11a5.89,5.89,0,0,0-.74-2.92,3.2,3.2,0,0,0-5.26-.06,5.53,5.53,0,0,0-.77,3,4.82,4.82,0,0,0,.91,3,3.11,3.11,0,0,0,5.05-.06A5.37,5.37,0,0,0,652.39,133.37Z"/>
    </g>
    <use width="25.17" height="25.17" transform="translate(635.58 118.58)" xlink:href="#rnn-sigma"/>
  </g>
</svg>
