<svg id="background" xmlns="http://www.w3.org/2000/svg" xmlns:xlink="http://www.w3.org/1999/xlink" width="984" height="180" viewBox="0 0 984 180">
  <defs>
    <symbol id="op-bg" data-name="op-bg" viewBox="0 0 22.5 22.5">
      <circle cx="11.25" cy="11.25" r="11.25" fill="#798294"/>
    </symbol>
    <symbol id="op-sum_2" data-name="op-sum 2" viewBox="0 0 22.5 22.5">
      <use width="22.5" height="22.5" xlink:href="#op-bg"/>
      <path d="M9.13,8.33a1.77,1.77,0,0,1,.69-1.47,3,3,0,0,1,1.89-.54,4.84,4.84,0,0,1,1.87.38v1.1a5.22,5.22,0,0,0-1.88-.4,1.57,1.57,0,0,0-.93.25,0.78,0.78,0,0,0-.35.67q0,0.74,1.51,1.26A4.6,4.6,0,0,1,14.14,11a3.75,3.75,0,0,1,.74,2.26v0.27a4.23,4.23,0,0,1-.4,1.87,3,3,0,0,1-1.15,1.28,3.29,3.29,0,0,1-1.74.45,3.08,3.08,0,0,1-2.42-1,3.86,3.86,0,0,1-.9-2.66V13.38a3.42,3.42,0,0,1,.64-2,2.76,2.76,0,0,1,1.63-1.14v0a2.36,2.36,0,0,1-1-.75A1.76,1.76,0,0,1,9.13,8.33Zm0.42,5.2a3,3,0,0,0,.55,1.89,1.8,1.8,0,0,0,1.49.69,1.79,1.79,0,0,0,1.48-.69,3.23,3.23,0,0,0,.55-2A2.67,2.67,0,0,0,13,11.71a2.35,2.35,0,0,0-1.43-.92,1.81,1.81,0,0,0-1.49.7A3.19,3.19,0,0,0,9.55,13.53Z" fill="#fff"/>
    </symbol>
    <symbol id="rnn-bg" data-name="rnn-bg" viewBox="0 0 48 48">
      <rect width="48" height="48" rx="6" ry="6" fill="#798294"/>
    </symbol>
    <symbol id="rnn-s" data-name="rnn-s" viewBox="0 0 48 48">
      <use id="rnn-bg-3" data-name="rnn-bg" width="48" height="48" xlink:href="#rnn-bg"/>
      <text transform="translate(16.74 31)" font-size="21.77" fill="#fff" font-family="Helvetica">S</text>
    </symbol>
    <symbol id="op-sum" data-name="op-sum" viewBox="0 0 22.5 22.5">
      <use id="op-bg-9" data-name="op-bg" width="22.5" height="22.5" xlink:href="#op-bg"/>
      <path d="M7.13,11.75V10.43h3.41V7h1.34v3.43h3.41v1.31H11.87v3.42H10.54V11.75H7.13Z" fill="#fff"/>
    </symbol>
  </defs>
  <title>rnn</title>
  <g id="_Group_" data-name="&lt;Group&gt;">
    <path d="M372,162.48c0,3-3,5.52-6.69,5.52H176.67c-4.77,0-8.67-2.48-8.67-5.52V22c0-5.49,3.9-10,8.67-10H365.31C369,12,372,16.49,372,22V162.48Z" fill="#e6eaf2"/>
  </g>
  <g id="_Group_2" data-name="&lt;Group&gt;">
    <path d="M732,162.48c0,3-3,5.52-6.69,5.52H392.67c-4.77,0-8.67-2.48-8.67-5.52V22c0-5.49,3.9-10,8.67-10H725.31C729,12,732,16.49,732,22V162.48Z" fill="#e6eaf2"/>
  </g>
  <path d="M876,162.48c0,3-3,5.52-6.69,5.52H752.67c-4.77,0-8.67-2.48-8.67-5.52V22c0-5.49,3.9-10,8.67-10H869.31C873,12,876,16.49,876,22V162.48Z" fill="#e6eaf2"/>
  <g>
    <line x1="204" y1="180" x2="204" y2="109.63" fill="none" stroke="#8c8c8c" stroke-miterlimit="10" stroke-width="1.5"/>
    <polygon points="210.13 114.6 209.04 115.62 204 110.2 198.97 115.62 197.87 114.6 204 108 210.13 114.6" fill="#8c8c8c"/>
  </g>
  <g>
    <path d="M204,180V162a6,6,0,0,1,6-6l59.5,0.42a6,6,0,0,0,6-6V109.63" fill="none" stroke="#8c8c8c" stroke-miterlimit="10" stroke-width="1.5"/>
    <polygon points="281.63 114.6 280.54 115.62 275.5 110.2 270.46 115.62 269.37 114.6 275.5 108 281.63 114.6" fill="#8c8c8c"/>
  </g>
  <g>
    <line x1="420" y1="180" x2="420" y2="109.63" fill="none" stroke="#8c8c8c" stroke-miterlimit="10" stroke-width="1.5"/>
    <polygon points="426.13 114.6 425.04 115.62 420 110.2 414.96 115.62 413.87 114.6 420 108 426.13 114.6" fill="#8c8c8c"/>
  </g>
  <g>
    <line x1="780" y1="180" x2="780" y2="109.63" fill="none" stroke="#8c8c8c" stroke-miterlimit="10" stroke-width="1.5"/>
    <polygon points="786.13 114.6 785.04 115.62 780 110.2 774.97 115.62 773.87 114.6 780 108 786.13 114.6" fill="#8c8c8c"/>
  </g>
  <g>
    <path d="M444,156l42.5,0.44a5.94,5.94,0,0,0,6-5.94V109.63" fill="none" stroke="#8c8c8c" stroke-miterlimit="10" stroke-width="1.5"/>
    <polygon points="498.63 114.6 497.54 115.62 492.5 110.2 487.46 115.62 486.37 114.6 492.5 108 498.63 114.6" fill="#8c8c8c"/>
  </g>
  <g>
    <path d="M444,156l114.5,0.48a6,6,0,0,0,6-6V109.63" fill="none" stroke="#8c8c8c" stroke-miterlimit="10" stroke-width="1.5"/>
    <polygon points="570.63 114.6 569.54 115.62 564.5 110.2 559.47 115.62 558.37 114.6 564.5 108 570.63 114.6" fill="#8c8c8c"/>
  </g>
  <g>
    <path d="M420,180V162a6,6,0,0,1,6-6l204.5,0.47a6,6,0,0,0,6-6V109.63" fill="none" stroke="#8c8c8c" stroke-miterlimit="10" stroke-width="1.5"/>
    <polygon points="642.63 114.6 641.54 115.62 636.5 110.2 631.47 115.62 630.37 114.6 636.5 108 642.63 114.6" fill="#8c8c8c"/>
  </g>
  <g>
    <line x1="228" y1="84.5" x2="250.37" y2="84.5" fill="none" stroke="#8c8c8c" stroke-miterlimit="10" stroke-width="1.5"/>
    <polygon points="245.4 90.64 244.38 89.54 249.8 84.5 244.38 79.47 245.4 78.37 252 84.5 245.4 90.64" fill="#8c8c8c"/>
  </g>
  <g>
    <line x1="444" y1="84.5" x2="466.37" y2="84.5" fill="none" stroke="#8c8c8c" stroke-miterlimit="10" stroke-width="1.5"/>
    <polygon points="461.4 90.64 460.38 89.54 465.8 84.5 460.38 79.47 461.4 78.37 468 84.5 461.4 90.64" fill="#8c8c8c"/>
  </g>
  <g>
    <line x1="516" y1="84.5" x2="538.37" y2="84.5" fill="none" stroke="#8c8c8c" stroke-miterlimit="10" stroke-width="1.5"/>
    <polygon points="533.4 90.64 532.38 89.54 537.8 84.5 532.38 79.47 533.4 78.37 540 84.5 533.4 90.64" fill="#8c8c8c"/>
  </g>
  <g>
    <line x1="588" y1="84.5" x2="610.37" y2="84.5" fill="none" stroke="#8c8c8c" stroke-miterlimit="10" stroke-width="1.5"/>
    <polygon points="605.4 90.64 604.38 89.54 609.8 84.5 604.38 79.47 605.4 78.37 612 84.5 605.4 90.64" fill="#8c8c8c"/>
  </g>
  <path d="M324,38.5h-6.5a6,6,0,0,0-6,6v34a5.9,5.9,0,0,1-5.75,6H300" fill="none" stroke="#8c8c8c" stroke-miterlimit="10" stroke-width="1.5"/>
  <path d="M444,84.5h5.75a5.9,5.9,0,0,0,5.75-6v-40a6,6,0,0,1,6-6H695" fill="none" stroke="#8c8c8c" stroke-miterlimit="10" stroke-width="1.5"/>
  <path d="M516,84.5h5.75a5.9,5.9,0,0,0,5.75-6v-37a6,6,0,0,1,6-6H695" fill="none" stroke="#8c8c8c" stroke-miterlimit="10" stroke-width="1.5"/>
  <path d="M695,38.5H605.5a6,6,0,0,0-6,6v34a5.9,5.9,0,0,1-5.75,6H588" fill="none" stroke="#8c8c8c" stroke-miterlimit="10" stroke-width="1.5"/>
  <path d="M695,41.5H677.5a6,6,0,0,0-6,6v31a5.9,5.9,0,0,1-5.75,6H660" fill="none" stroke="#8c8c8c" stroke-miterlimit="10" stroke-width="1.5"/>
  <g>
    <path d="M346,36.5h7.5a5.94,5.94,0,0,1,5.94,6l-0.37,36a5.94,5.94,0,0,0,5.94,6h29.37" fill="none" stroke="#8c8c8c" stroke-miterlimit="10" stroke-width="1.5"/>
    <polygon points="389.4 90.64 388.38 89.54 393.8 84.5 388.38 79.47 389.4 78.37 396 84.5 389.4 90.64" fill="#8c8c8c"/>
  </g>
  <path d="M228,84.5l6-.25A6.33,6.33,0,0,0,240,78V42a6.06,6.06,0,0,1,6-6l78-.46" fill="none" stroke="#8c8c8c" stroke-miterlimit="10" stroke-width="1.5"/>
  <g>
    <path d="M346,36.5h7.5a6,6,0,0,0,6-6V1.63" fill="none" stroke="#8c8c8c" stroke-miterlimit="10" stroke-width="1.5"/>
    <polygon points="365.63 6.6 364.54 7.62 359.5 2.2 354.46 7.62 353.37 6.6 359.5 0 365.63 6.6" fill="#8c8c8c"/>
  </g>
  <g>
    <path d="M706,36.5h7.5a5.94,5.94,0,0,1,5.94,6l-0.37,36a5.94,5.94,0,0,0,5.94,6h29.37" fill="none" stroke="#8c8c8c" stroke-miterlimit="10" stroke-width="1.5"/>
    <polygon points="749.4 90.64 748.38 89.54 753.8 84.5 748.38 79.47 749.4 78.37 756 84.5 749.4 90.64" fill="#8c8c8c"/>
  </g>
  <g>
    <path d="M706,36.5h7.5a6,6,0,0,0,6-6V1.63" fill="none" stroke="#8c8c8c" stroke-miterlimit="10" stroke-width="1.5"/>
    <polygon points="725.63 6.6 724.54 7.62 719.5 2.2 714.47 7.62 713.37 6.6 719.5 0 725.63 6.6" fill="#8c8c8c"/>
  </g>
  <path d="M828,36.5h-6.5a6,6,0,0,0-6,6v36a5.9,5.9,0,0,1-5.75,6H804" fill="none" stroke="#8c8c8c" stroke-miterlimit="10" stroke-width="1.5"/>
  <g>
    <path d="M850,36.5h7.5a6.09,6.09,0,0,1,6.06,6L863.94,78A6.25,6.25,0,0,0,870,84.13l16.37,0.34" fill="none" stroke="#8c8c8c" stroke-miterlimit="10" stroke-width="1.5"/>
    <polygon points="881.28 90.5 880.28 89.38 885.8 84.46 880.49 79.31 881.53 78.23 888 84.5 881.28 90.5" fill="#8c8c8c"/>
  </g>
  <g>
    <path d="M850,36.5h7.5a6,6,0,0,0,6-6V1.63" fill="none" stroke="#8c8c8c" stroke-miterlimit="10" stroke-width="1.5"/>
    <polygon points="869.63 6.6 868.54 7.62 863.5 2.2 858.47 7.62 857.37 6.6 863.5 0 869.63 6.6" fill="#8c8c8c"/>
  </g>
  <use width="22.5" height="22.5" transform="translate(193.5 120)" xlink:href="#op-sum_2"/>
  <use id="rnn-s-3" data-name="rnn-s" width="48" height="48" transform="translate(180 60)" xlink:href="#rnn-s"/>
  <use id="rnn-s-6" data-name="rnn-s" width="48" height="48" transform="translate(252 60)" xlink:href="#rnn-s"/>
  <use id="rnn-s-9" data-name="rnn-s" width="48" height="48" transform="translate(396 60)" xlink:href="#rnn-s"/>
  <use id="rnn-s-12" data-name="rnn-s" width="48" height="48" transform="translate(468 60)" xlink:href="#rnn-s"/>
  <use id="rnn-s-15" data-name="rnn-s" width="48" height="48" transform="translate(540 60)" xlink:href="#rnn-s"/>
  <use id="rnn-s-18" data-name="rnn-s" width="48" height="48" transform="translate(612 60)" xlink:href="#rnn-s"/>
  <use id="rnn-s-21" data-name="rnn-s" width="48" height="48" transform="translate(756 60)" xlink:href="#rnn-s"/>
  <use width="22.5" height="22.5" transform="translate(409.5 120)" xlink:href="#op-sum_2"/>
  <use width="22.5" height="22.5" transform="translate(769.5 120)" xlink:href="#op-sum_2"/>
  <use id="op-sum-3" data-name="op-sum" width="22.5" height="22.5" transform="translate(827.5 25.14)" xlink:href="#op-sum"/>
  <use id="op-sum-6" data-name="op-sum" width="22.5" height="22.5" transform="translate(324 25.14)" xlink:href="#op-sum"/>
  <use id="op-sum-9" data-name="op-sum" width="22.5" height="22.5" transform="translate(683.5 25.14)" xlink:href="#op-sum"/>
</svg>
