<?xml version="1.0" encoding="utf-8"?>
<!-- Generator: Adobe Illustrator 19.1.0, SVG Export Plug-In . SVG Version: 6.00 Build 0)  -->
<svg version="1.1" xmlns="http://www.w3.org/2000/svg" xmlns:xlink="http://www.w3.org/1999/xlink" x="0px" y="0px" width="792px"
	 height="456px" viewBox="0 0 792 456" style="enable-background:new 0 0 792 456;" xml:space="preserve">
<style type="text/css">
	.st0{fill:#798294;}
	.st1{fill:none;stroke:#8C8C8C;stroke-miterlimit:10;}
	.st2{fill:#FFFFFF;}
	.st3{fill:#E6EAF2;}
	.st4{fill:#8C8C8C;}
	.st5{fill:none;stroke:#FFFFFF;stroke-width:1.5;stroke-miterlimit:10;}
	.st6{opacity:0.1;fill:none;stroke:#0080F7;stroke-width:2;stroke-miterlimit:10;}
	.st7{opacity:0.4;fill:none;stroke:#0080F7;stroke-width:2;stroke-miterlimit:10;}
	.st8{opacity:0.8;}
	.st9{fill:none;stroke:#0080F7;stroke-width:2;stroke-miterlimit:10;}
	.st10{fill:#0080F7;}
	.st11{opacity:0.2;fill:none;stroke:#0080F7;stroke-width:2;stroke-miterlimit:10;}
	.st12{opacity:0.1;}
	.st13{opacity:0.4;}
	.st14{fill:none;stroke:#6300F7;stroke-width:2;stroke-miterlimit:10;}
	.st15{fill:#6300F7;}
	.st16{opacity:0;fill:#0080F7;}
	.st17{opacity:0.8;fill:#0080F7;}
	.st18{fill:#596673;}
	.st19{fill:#717171;}
	.st20{fill:none;stroke:#919191;stroke-miterlimit:10;}
	.st21{fill:none;stroke:#919191;stroke-miterlimit:10;stroke-dasharray:1.9974,1.9974;}
	.st22{opacity:0.2;fill:none;stroke:#8C8C8C;stroke-miterlimit:10;}
	.st23{opacity:0.2;}
	.st24{font-family:'Helvetica-Bold';}
	.st25{font-size:12px;}
	.st26{fill:none;stroke:#B3B3B3;stroke-miterlimit:10;}
	.st27{fill:#B3B3B3;}
	.st28{font-family:'Helvetica';}
	.st29{fill:none;stroke:#B4B4B4;stroke-miterlimit:10;stroke-dasharray:2;}
</style>
<symbol  id="Deleted_Symbol_3_" viewBox="-21.5 -21.5 43 43">
	<path class="st0" d="M15.5-21.5h-31c-3.3,0-6,2.7-6,6v31c0,3.3,2.7,6,6,6h31c3.3,0,6-2.7,6-6v-31C21.5-18.8,18.8-21.5,15.5-21.5z"
		/>
</symbol>
<symbol  id="array-5" viewBox="-126.5 -18.5 180.5 37">
	<path class="st1" d="M47.5-18H-120c-3.3,0-6,2.7-6,6v24c0,3.3,2.7,6,6,6H47.5c3.3,0,6-2.7,6-6v-24C53.5-15.3,50.8-18,47.5-18z"/>
	<line class="st1" x1="-90.5" y1="-18" x2="-90.5" y2="18"/>
	<line class="st1" x1="-54.5" y1="-18" x2="-54.5" y2="18"/>
	<line class="st1" x1="-18.5" y1="-18" x2="-18.5" y2="18"/>
	<line class="st1" x1="17.5" y1="-18" x2="17.5" y2="18"/>
</symbol>
<symbol  id="op-bg" viewBox="-11.2 -11.2 22.5 22.5">
	<path class="st0" d="M11.2,0c0-6.2-5-11.2-11.2-11.2S-11.2-6.2-11.2,0s5,11.2,11.2,11.2S11.2,6.2,11.2,0z"/>
</symbol>
<symbol  id="rnn-a_4_3_" viewBox="-21.5 -26.5 48 48">
	<use xlink:href="#rnn-bg"  width="48" height="48" id="XMLID_33_" x="-21.5" y="-26.5" style="overflow:visible;"/>
	<text transform="matrix(1 0 0 -1 -4.7627 -9.5)" class="st2 st28" style="font-size:21.7741px;">A</text>
</symbol>
<symbol  id="rnn-bg" viewBox="-21.5 -26.5 48 48">
	<path class="st0" d="M20.5-26.5h-36c-3.3,0-6,2.7-6,6v36c0,3.3,2.7,6,6,6h36c3.3,0,6-2.7,6-6v-36C26.5-23.8,23.8-26.5,20.5-26.5z"
		/>
</symbol>
<g id="background">
	<g id="XMLID_22_">
		<g>
			<path class="st3" d="M622,221.3c0,3.2-2.9,5.7-6.5,5.7c0,0,0,0-9,0c-168.1,0-392.2,0-575,0c-11.6,0-11.6,0-11.6,0
				c-4.9,0-8.9-2.6-8.9-5.7c0,0,0,0,0-8.3c0-10.2,0-24.3,0-36c0-12.3,0-12.3,0-12.3c0-5.3,4-9.7,8.9-9.7c0,0,0,0,11.6,0
				c182.8,0,406.9,0,575,0c9,0,9,0,9,0c3.6,0,6.5,4.4,6.5,9.7c0,0,0,0,0,12.3c0,11.7,0,25.8,0,36C622,221.3,622,221.3,622,221.3z"/>
		</g>
	</g>
</g>
<g id="edges">
	<g>
		<g>
			<path class="st1" d="M682,109.5h7.5c3.3,0,6,2.7,6.1,6l0.4,35.5c0,3.3,2.8,6.1,6.1,6.1l16.9,0.4"/>
			<g>
				<polygon class="st4" points="715.5,161.5 714.9,160.8 718.5,157.5 715,154 715.7,153.3 720,157.5 				"/>
			</g>
		</g>
	</g>
</g>
<g id="nodes">
	<g id="New_Symbol">
	</g>
	<g id="rnn-a_4_2_">
		<g id="Deleted_Symbol_2_">
		</g>
	</g>
	<g id="rnn-a_4_1_">
		<g id="Deleted_Symbol_1_">
		</g>
	</g>
	<g id="rnn-a_4">
		<g id="Deleted_Symbol">
		</g>
	</g>
	
		<use xlink:href="#rnn-a_4_3_"  width="48" height="48" x="-21.5" y="-26.5" transform="matrix(1 0 0 -1 43.501 188.5)" style="overflow:visible;"/>
	
		<use xlink:href="#rnn-a_4_3_"  width="48" height="48" x="-21.5" y="-26.5" transform="matrix(1 0 0 -1 236.501 188.5)" style="overflow:visible;"/>
	
		<use xlink:href="#rnn-a_4_3_"  width="48" height="48" x="-21.5" y="-26.5" transform="matrix(1 0 0 -1 440.501 188.5)" style="overflow:visible;"/>
	<path class="st22" d="M53.5,47v-5.4c0-0.4,1.7-1.1,2.9-1.1h132.4c1.2,0,1.7,0.6,1.7,1.1V47"/>
	<path class="st22" d="M200.5,47v-5.4c0-0.4,1.9-1.1,3.1-1.1H336c1.2,0,1.5,0.6,1.5,1.1V47"/>
	<g class="st23">
		<g>
			<path class="st1" d="M347.5,47v-5.4c0-0.4,2.1-1.1,3.3-1.1H470"/>
			<g>
				<polygon class="st4" points="466.6,44.6 465.9,43.9 469.5,40.5 465.9,37.1 466.6,36.4 471,40.5 				"/>
			</g>
		</g>
	</g>
	<g>
		<text transform="matrix(1 0 0 1 223.5 124.9995)" class="st24 st25">read</text>
	</g>
	<g>
		<text transform="matrix(1 0 0 1 111.5 124.9995)" class="st24 st25">write</text>
	</g>
	<g>
		<g>
			<line class="st1" x1="107" y1="165.5" x2="201.9" y2="82.5"/>
			<g>
				<polygon class="st4" points="202.1,87.7 201.1,87.6 201.6,82.7 196.7,82.6 196.7,81.6 202.8,81.8 				"/>
			</g>
		</g>
	</g>
	<g>
		<g>
			<line class="st1" x1="229.2" y1="81.1" x2="200.2" y2="145.9"/>
			<g>
				<polygon class="st4" points="197.9,141.2 198.8,140.8 200.4,145.5 204.9,143.6 205.3,144.5 199.8,146.9 				"/>
			</g>
		</g>
	</g>
	<g>
		<g>
			<line class="st26" x1="360.5" y1="80" x2="360.5" y2="151"/>
			<g>
				<polygon class="st27" points="356.4,147.6 357.1,146.9 360.5,150.5 363.9,146.9 364.6,147.6 360.5,152 				"/>
			</g>
		</g>
	</g>
	<path class="st1" d="M122,80c0,0,30,49,71,10"/>
	<g>
		<g>
			<line class="st26" x1="249" y1="165.5" x2="343.9" y2="82.5"/>
			<g>
				<polygon class="st27" points="344.1,87.7 343.1,87.6 343.6,82.7 338.7,82.6 338.7,81.6 344.8,81.8 				"/>
			</g>
		</g>
	</g>
	<path class="st26" d="M264,80c0,0,30,49,71,10"/>
	
		<use xlink:href="#array-5"  width="180.5" height="37" x="-126.5" y="-18.5" transform="matrix(1 0 0 -1 137.5 65.5)" style="overflow:visible;"/>
	
		<use xlink:href="#array-5"  width="180.5" height="37" x="-126.5" y="-18.5" transform="matrix(1 0 0 -1 341.5 65.5)" style="overflow:visible;"/>
	
		<use xlink:href="#array-5"  width="180.5" height="37" x="-126.5" y="-18.5" transform="matrix(1 0 0 -1 545.5 65.5)" style="overflow:visible;"/>
</g>
<g id="text">
	<g>
		<text transform="matrix(1 0 0 1 42.6533 11.9998)" class="st28 st25">time step 0</text>
	</g>
	<g>
		<text transform="matrix(1 0 0 1 235.6553 11.9998)" class="st28 st25">step 1</text>
	</g>
	<g>
		<text transform="matrix(1 0 0 1 439.6553 11.9998)" class="st28 st25">step 2</text>
	</g>
	<text transform="matrix(1 0 0 1 29.6631 256.9998)" class="st19 st28 st25">x0</text>
	<text transform="matrix(1 0 0 1 53.6631 256.9998)" class="st19 st28 st25">y0</text>
	<g>
		<g>
			<line class="st1" x1="35.5" y1="241" x2="35.5" y2="218"/>
			<g>
				<polygon class="st4" points="40.1,220.9 39.4,221.6 36,218 32.6,221.6 31.9,220.9 36,216.5 				"/>
			</g>
		</g>
	</g>
	<g>
		<g>
			<line class="st1" x1="60.5" y1="217" x2="60.5" y2="240"/>
			<g>
				<polygon class="st4" points="56.9,236.6 57.6,235.9 61,239.5 64.4,235.9 65.1,236.6 61,241 				"/>
			</g>
		</g>
	</g>
	<text transform="matrix(1 0 0 1 221.6631 256.9998)" class="st19 st28 st25">x1</text>
	<text transform="matrix(1 0 0 1 245.6631 256.9998)" class="st19 st28 st25">y1</text>
	<g>
		<g>
			<line class="st1" x1="227.5" y1="241" x2="227.5" y2="218"/>
			<g>
				<polygon class="st4" points="232.1,220.9 231.4,221.6 228,218 224.6,221.6 223.9,220.9 228,216.5 				"/>
			</g>
		</g>
	</g>
	<g>
		<g>
			<line class="st1" x1="252.5" y1="217" x2="252.5" y2="240"/>
			<g>
				<polygon class="st4" points="248.9,236.6 249.6,235.9 253,239.5 256.4,235.9 257.1,236.6 253,241 				"/>
			</g>
		</g>
	</g>
	<text transform="matrix(1 0 0 1 425.6631 256.9998)" class="st19 st28 st25">x2</text>
	<text transform="matrix(1 0 0 1 449.6631 256.9998)" class="st19 st28 st25">y2</text>
	<g>
		<g>
			<line class="st1" x1="431.5" y1="241" x2="431.5" y2="218"/>
			<g>
				<polygon class="st4" points="436.1,220.9 435.4,221.6 432,218 428.6,221.6 427.9,220.9 432,216.5 				"/>
			</g>
		</g>
	</g>
	<g>
		<g>
			<line class="st1" x1="456.5" y1="217" x2="456.5" y2="240"/>
			<g>
				<polygon class="st4" points="452.9,236.6 453.6,235.9 457,239.5 460.4,235.9 461.1,236.6 457,241 				"/>
			</g>
		</g>
	</g>
</g>
</svg>
