<?xml version="1.0" encoding="utf-8"?>
<!-- Generator: Adobe Illustrator 19.1.0, SVG Export Plug-In . SVG Version: 6.00 Build 0)  -->
<svg version="1.1" xmlns="http://www.w3.org/2000/svg" xmlns:xlink="http://www.w3.org/1999/xlink" x="0px" y="0px" width="792px"
	 height="492px" viewBox="0 0 792 492" enable-background="new 0 0 792 492" xml:space="preserve">
<symbol  id="Deleted_Symbol_3_" viewBox="-21.5 -21.5 43 43">
	<path fill="#798294" d="M15.5-21.5h-31c-3.3,0-6,2.7-6,6v31c0,3.3,2.7,6,6,6h31c3.3,0,6-2.7,6-6v-31C21.5-18.8,18.8-21.5,15.5-21.5
		z"/>
</symbol>
<symbol  id="op-bg" viewBox="-11.2 -11.2 22.5 22.5">
	<path fill="#798294" d="M11.2,0c0-6.2-5-11.2-11.2-11.2S-11.2-6.2-11.2,0s5,11.2,11.2,11.2S11.2,6.2,11.2,0z"/>
</symbol>
<symbol  id="rnn-a_4_3_" viewBox="-21.5 -26.5 48 48">
	<use xlink:href="#rnn-bg"  width="48" height="48" id="XMLID_33_" x="-21.5" y="-26.5" overflow="visible"/>
	<text transform="matrix(1 0 0 -1 -4.7627 -9.5)" fill="#FFFFFF" font-family="'Helvetica'" font-size="21.7741px">A</text>
</symbol>
<symbol  id="rnn-a_5" viewBox="-21.5 -26.5 48 48">
	<use xlink:href="#rnn-bg"  width="48" height="48" id="XMLID_23_" x="-21.5" y="-26.5" overflow="visible"/>
	<text transform="matrix(1 0 0 -1 -4.7627 -9.5)" fill="#FFFFFF" font-family="'Helvetica'" font-size="21.7741px">B</text>
</symbol>
<symbol  id="rnn-bg" viewBox="-21.5 -26.5 48 48">
	<path fill="#798294" d="M20.5-26.5h-36c-3.3,0-6,2.7-6,6v36c0,3.3,2.7,6,6,6h36c3.3,0,6-2.7,6-6v-36C26.5-23.8,23.8-26.5,20.5-26.5
		z"/>
</symbol>
<g id="background">
	<g id="XMLID_4_">
		<g>
			<path fill="#E6EAF2" d="M540,90.3c0,3.2-2.9,5.7-6.5,5.7c0,0,0,0-9,0c-143.5,0-334.9,0-491,0c-11.6,0-11.6,0-11.6,0
				C17,96,13,93.4,13,90.3c0,0,0,0,0-8.3c0-10.2,0-24.3,0-36c0-12.3,0-12.3,0-12.3c0-5.3,4-9.7,8.9-9.7c0,0,0,0,11.6,0
				c156.1,0,347.5,0,491,0c9,0,9,0,9,0c3.6,0,6.5,4.4,6.5,9.7c0,0,0,0,0,12.3c0,11.7,0,25.8,0,36C540,90.3,540,90.3,540,90.3z"/>
		</g>
	</g>
	<g id="XMLID_45_">
		<g>
			<path fill="#E6EAF2" d="M372,450.3c0,3.2-2.9,5.8-6.5,5.8c0,0,0,0-9,0c-94.4,0-220.3,0-323,0c-11.6,0-11.6,0-11.6,0
				c-4.9,0-8.9-2.6-8.9-5.8c0,0,0,0,0-8.3c0-10.2,0-24.3,0-36c0-12.3,0-12.3,0-12.3c0-5.3,4-9.7,8.9-9.7c0,0,0,0,11.6,0
				c102.7,0,228.6,0,323,0c9,0,9,0,9,0c3.6,0,6.5,4.4,6.5,9.7c0,0,0,0,0,12.3c0,11.7,0,25.8,0,36C372,450.3,372,450.3,372,450.3z"/>
		</g>
	</g>
</g>
<g id="edges">
</g>
<g id="nodes">
	<g id="New_Symbol">
	</g>
	<g id="rnn-a_4_2_">
		<g id="Deleted_Symbol_2_">
		</g>
	</g>
	<g id="rnn-a_4_1_">
		<g id="Deleted_Symbol_1_">
		</g>
	</g>
	<g id="rnn-a_4">
		<g id="Deleted_Symbol">
		</g>
	</g>
	
		<use xlink:href="#rnn-a_5"  width="48" height="48" x="-21.5" y="-26.5" transform="matrix(1 0 0 -1 45.501 57.4999)" overflow="visible"/>
	
		<use xlink:href="#rnn-a_5"  width="48" height="48" x="-21.5" y="-26.5" transform="matrix(1 0 0 -1 309.501 57.4999)" overflow="visible"/>
	
		<use xlink:href="#rnn-a_5"  width="48" height="48" x="-21.5" y="-26.5" transform="matrix(1 0 0 -1 405.501 57.4999)" overflow="visible"/>
	
		<use xlink:href="#rnn-a_5"  width="48" height="48" x="-21.5" y="-26.5" transform="matrix(1 0 0 -1 501.501 57.4999)" overflow="visible"/>
	
		<use xlink:href="#rnn-a_4_3_"  width="48" height="48" x="-21.5" y="-26.5" transform="matrix(1 0 0 -1 45.501 417.4999)" overflow="visible"/>
	
		<use xlink:href="#rnn-a_4_3_"  width="48" height="48" x="-21.5" y="-26.5" transform="matrix(1 0 0 -1 141.501 417.4999)" overflow="visible"/>
	
		<use xlink:href="#rnn-a_4_3_"  width="48" height="48" x="-21.5" y="-26.5" transform="matrix(1 0 0 -1 237.501 417.4999)" overflow="visible"/>
	
		<use xlink:href="#rnn-a_4_3_"  width="48" height="48" x="-21.5" y="-26.5" transform="matrix(1 0 0 -1 333.501 417.4999)" overflow="visible"/>
</g>
<g id="text">
</g>
</svg>
