<svg id="background" xmlns="http://www.w3.org/2000/svg" xmlns:xlink="http://www.w3.org/1999/xlink" width="984" height="312" viewBox="0 0 984 312">
  <defs>
    <symbol id="rnn-bg" data-name="rnn-bg" viewBox="0 0 48 48">
      <rect width="48" height="48" rx="6" ry="6" fill="#798294"/>
    </symbol>
    <symbol id="rnn-b" data-name="rnn-b" viewBox="0 0 48 48">
      <use id="rnn-bg-3" data-name="rnn-bg" width="48" height="48" xlink:href="#rnn-bg"/>
      <text transform="translate(16.74 31)" font-size="21.77" fill="#fff" font-family="Helvetica">B</text>
    </symbol>
    <symbol id="rnn-a" data-name="rnn-a" viewBox="0 0 48 48">
      <use id="rnn-bg-15" data-name="rnn-bg" width="48" height="48" xlink:href="#rnn-bg"/>
      <text transform="translate(17.33 31)" font-size="21.77" fill="#fff" font-family="Helvetica" letter-spacing="-1">A</text>
    </symbol>
    <symbol id="op-bg" data-name="op-bg" viewBox="0 0 22.5 22.5">
      <circle cx="11.25" cy="11.25" r="11.25" fill="#798294"/>
    </symbol>
    <symbol id="op-sum" data-name="op-sum" viewBox="0 0 22.5 22.5">
      <use id="op-bg-3" data-name="op-bg" width="22.5" height="22.5" xlink:href="#op-bg"/>
      <path d="M7.13,11.75V10.43h3.41V7h1.34v3.43h3.41v1.31H11.87v3.42H10.54V11.75H7.13Z" fill="#fff"/>
    </symbol>
  </defs>
  <title>rnn</title>
  <g id="_Group_" data-name="&lt;Group&gt;">
    <path d="M527,66.48c0,3-3,5.52-6.69,5.52H176.67c-4.77,0-8.67-2.48-8.67-5.52V10c0-5.49,3.9-10,8.67-10H520.31C524,0,527,4.49,527,10V66.48Z" fill="#e6eaf2"/>
  </g>
  <g id="_Group_2" data-name="&lt;Group&gt;">
    <path d="M527,258.48c0,3-3,5.52-6.69,5.52H176.67c-4.77,0-8.67-2.48-8.67-5.52V202c0-5.49,3.9-10,8.67-10H520.31c3.68,0,6.69,4.49,6.69,10v56.51Z" fill="#e6eaf2"/>
  </g>
  <path id="path24184" d="M308.75,102.44c0,52.66,121.69,45.45,122.25,69.44V196" fill="none" stroke="#8c8c8c" stroke-miterlimit="10"/>
  <path id="path24186" d="M304.55,102.44c0,52.66,41.87,45.45,42.32,69.44V196" fill="none" stroke="#8c8c8c" stroke-miterlimit="10"/>
  <path id="path24262" d="M177.5,196V171.88c0-24,120.07-16.78,120.07-69.44" fill="none" stroke="#8c8c8c" stroke-miterlimit="10"/>
  <path id="path24264" d="M260.5,196V171.88c0-24,41.15-16.78,41.15-69.44" fill="none" stroke="#8c8c8c" stroke-miterlimit="10"/>
  <g>
    <line x1="299" y1="83.81" x2="299" y2="60.73" fill="none" stroke="#8c8c8c" stroke-miterlimit="10"/>
    <polygon points="303.09 64.04 302.36 64.73 299 61.12 295.64 64.73 294.91 64.04 299 59.65 303.09 64.04" fill="#8c8c8c"/>
  </g>
  <g>
    <line x1="204" y1="83.81" x2="204" y2="60.73" fill="none" stroke="#8c8c8c" stroke-miterlimit="10"/>
    <polygon points="208.09 64.04 207.36 64.73 204 61.12 200.64 64.73 199.91 64.04 204 59.65 208.09 64.04" fill="#8c8c8c"/>
  </g>
  <g>
    <line x1="226.92" y1="36.73" x2="273.92" y2="36.73" fill="none" stroke="#8c8c8c" stroke-miterlimit="10"/>
    <polygon points="270.6 40.82 269.92 40.09 273.53 36.73 269.92 33.37 270.6 32.64 275 36.73 270.6 40.82" fill="#8c8c8c"/>
  </g>
  <g>
    <line x1="226.92" y1="228.73" x2="273.92" y2="228.73" fill="none" stroke="#8c8c8c" stroke-miterlimit="10"/>
    <polygon points="270.6 232.82 269.92 232.09 273.53 228.73 269.92 225.37 270.6 224.64 275 228.73 270.6 232.82" fill="#8c8c8c"/>
  </g>
  <g>
    <line x1="322.92" y1="228.73" x2="369.92" y2="228.73" fill="none" stroke="#8c8c8c" stroke-miterlimit="10"/>
    <polygon points="366.6 232.82 365.92 232.09 369.53 228.73 365.92 225.37 366.6 224.64 371 228.73 366.6 232.82" fill="#8c8c8c"/>
  </g>
  <g>
    <line x1="418.92" y1="228.73" x2="465.92" y2="228.73" fill="none" stroke="#8c8c8c" stroke-miterlimit="10"/>
    <polygon points="462.6 232.82 461.92 232.09 465.53 228.73 461.92 225.37 462.6 224.64 467 228.73 462.6 232.82" fill="#8c8c8c"/>
  </g>
  <g>
    <line x1="323.92" y1="36.73" x2="370.92" y2="36.73" fill="none" stroke="#8c8c8c" stroke-miterlimit="10"/>
    <polygon points="367.6 40.82 366.92 40.09 370.53 36.73 366.92 33.37 367.6 32.64 372 36.73 367.6 40.82" fill="#8c8c8c"/>
  </g>
  <g>
    <line x1="418.92" y1="36.73" x2="465.92" y2="36.73" fill="none" stroke="#8c8c8c" stroke-miterlimit="10"/>
    <polygon points="462.6 40.82 461.92 40.09 465.53 36.73 461.92 33.37 462.6 32.64 467 36.73 462.6 40.82" fill="#8c8c8c"/>
  </g>
  <g>
    <line x1="395" y1="83.81" x2="395" y2="60.73" fill="none" stroke="#8c8c8c" stroke-miterlimit="10"/>
    <polygon points="399.09 64.04 398.36 64.73 395 61.12 391.64 64.73 390.91 64.04 395 59.65 399.09 64.04" fill="#8c8c8c"/>
  </g>
  <g>
    <line x1="491" y1="83.81" x2="491" y2="60.73" fill="none" stroke="#8c8c8c" stroke-miterlimit="10"/>
    <polygon points="495.09 64.04 494.36 64.73 491 61.12 487.64 64.73 486.91 64.04 491 59.65 495.09 64.04" fill="#8c8c8c"/>
  </g>
  <g>
    <path id="path24182" d="M600,366V239.58c0.56-24,102-24.22,102-76.88" fill="none" stroke="#8c8c8c" stroke-miterlimit="10"/>
    <path id="path24184-2" data-name="path24184" d="M636,366V239.58c0.56-24,68-24.22,68-76.88" fill="none" stroke="#8c8c8c" stroke-miterlimit="10"/>
    <path id="path24186-2" data-name="path24186" d="M672,366V239.58c0.56-24,34-24.22,34-76.88" fill="none" stroke="#8c8c8c" stroke-miterlimit="10"/>
    <path id="path24249" d="M708,366V162" fill="none" stroke="#8c8c8c" stroke-miterlimit="10"/>
    <path id="path24260" d="M816,366V239.58c-0.56-24-102-24.22-102-76.88" fill="none" stroke="#8c8c8c" stroke-miterlimit="10"/>
    <path id="path24262-2" data-name="path24262" d="M780,366V239.58c-0.56-24-68-24.22-68-76.88" fill="none" stroke="#8c8c8c" stroke-miterlimit="10"/>
    <path id="path24264-2" data-name="path24264" d="M743.93,366V239.58c-0.56-24-33.93-24.22-33.93-76.88" fill="none" stroke="#8c8c8c" stroke-miterlimit="10"/>
  </g>
  <use width="48" height="48" transform="translate(179 12)" xlink:href="#rnn-b"/>
  <use width="48" height="48" transform="translate(275 12)" xlink:href="#rnn-b"/>
  <use width="48" height="48" transform="translate(371 12)" xlink:href="#rnn-b"/>
  <use id="rnn-b-9" data-name="rnn-b" width="48" height="48" transform="translate(467 12)" xlink:href="#rnn-b"/>
  <use width="48" height="48" transform="translate(179 204)" xlink:href="#rnn-a"/>
  <use width="48" height="48" transform="translate(275 204)" xlink:href="#rnn-a"/>
  <use width="48" height="48" transform="translate(371 204)" xlink:href="#rnn-a"/>
  <use width="48" height="48" transform="translate(467 204)" xlink:href="#rnn-a"/>
  <use width="22.5" height="22.5" transform="translate(191.75 85.5)" xlink:href="#op-sum"/>
  <use width="22.5" height="22.5" transform="translate(287.75 85.5)" xlink:href="#op-sum"/>
  <use width="22.5" height="22.5" transform="translate(383.75 85.5)" xlink:href="#op-sum"/>
  <use width="22.5" height="22.5" transform="translate(479.75 85.5)" xlink:href="#op-sum"/>
  <text transform="translate(575 106.28)" font-size="12" fill="#666" font-family="Open Sans">weighted <tspan x="0" y="18">sum of the </tspan><tspan x="0" y="36">outputs</tspan></text>
  <text transform="translate(718.27 106.28)" font-size="12" fill="#666" font-family="Open Sans">The same RNN A is used at <tspan x="0" y="18">each step of B</tspan></text>
</svg>
