<svg id="background" xmlns="http://www.w3.org/2000/svg" xmlns:xlink="http://www.w3.org/1999/xlink" width="984" height="228" viewBox="0 0 984 228">
  <defs>
    <symbol id="rnn-bg" data-name="rnn-bg" viewBox="0 0 48 48">
      <rect width="48" height="48" rx="6" ry="6" fill="#798294"/>
    </symbol>
    <symbol id="rnn-b" data-name="rnn-b" viewBox="0 0 48 48">
      <use id="rnn-bg-3" data-name="rnn-bg" width="48" height="48" xlink:href="#rnn-bg"/>
      <text transform="translate(16.74 31)" font-size="21.77" fill="#fff" font-family="Helvetica">B</text>
    </symbol>
    <symbol id="rnn-a" data-name="rnn-a" viewBox="0 0 48 48">
      <use id="rnn-bg-15" data-name="rnn-bg" width="48" height="48" xlink:href="#rnn-bg"/>
      <text transform="translate(17.33 31)" font-size="21.77" fill="#fff" font-family="Helvetica" letter-spacing="-1">A</text>
    </symbol>
    <symbol id="op-bg" data-name="op-bg" viewBox="0 0 22.5 22.5">
      <circle cx="11.25" cy="11.25" r="11.25" fill="#798294"/>
    </symbol>
    <symbol id="op-sum" data-name="op-sum" viewBox="0 0 22.5 22.5">
      <use id="op-bg-3" data-name="op-bg" width="22.5" height="22.5" xlink:href="#op-bg"/>
      <path d="M7.13,11.75V10.43h3.41V7h1.34v3.43h3.41v1.31H11.87v3.42H10.54V11.75H7.13Z" fill="#fff"/>
    </symbol>
  </defs>
  <title>rnn</title>
  <g id="_Group_" data-name="&lt;Group&gt;">
    <rect x="479" width="359" height="72" rx="10" ry="10" fill="#e6eaf2"/>
  </g>
  <g id="_Group_2" data-name="&lt;Group&gt;">
    <rect x="168" y="156" width="359" height="72" rx="10" ry="10" fill="#e6eaf2"/>
  </g>
  <g>
    <line x1="611" y1="96.81" x2="611" y2="60.79" fill="none" stroke="#8c8c8c" stroke-miterlimit="10" stroke-width="1.5"/>
    <polygon points="615.29 64.26 614.52 64.98 611 61.19 607.48 64.98 606.71 64.26 611 59.65 615.29 64.26" fill="#8c8c8c"/>
  </g>
  <g>
    <line x1="515" y1="96.81" x2="515" y2="60.79" fill="none" stroke="#8c8c8c" stroke-miterlimit="10" stroke-width="1.5"/>
    <polygon points="519.29 64.26 518.52 64.98 515 61.19 511.48 64.98 510.71 64.26 515 59.65 519.29 64.26" fill="#8c8c8c"/>
  </g>
  <g>
    <line x1="537.92" y1="36.73" x2="584.86" y2="36.73" fill="none" stroke="#8c8c8c" stroke-miterlimit="10" stroke-width="1.5"/>
    <polygon points="581.38 41.02 580.67 40.26 584.46 36.73 580.67 33.2 581.38 32.44 586 36.73 581.38 41.02" fill="#8c8c8c"/>
  </g>
  <g>
    <line x1="225.92" y1="192" x2="272.86" y2="192" fill="none" stroke="#8c8c8c" stroke-miterlimit="10" stroke-width="1.5"/>
    <polygon points="269.38 196.29 268.67 195.53 272.46 192 268.67 188.47 269.38 187.71 274 192 269.38 196.29" fill="#8c8c8c"/>
  </g>
  <g>
    <line x1="321.92" y1="192" x2="368.86" y2="192" fill="none" stroke="#8c8c8c" stroke-miterlimit="10" stroke-width="1.5"/>
    <polygon points="365.38 196.29 364.67 195.53 368.46 192 364.67 188.47 365.38 187.71 370 192 365.38 196.29" fill="#8c8c8c"/>
  </g>
  <g>
    <line x1="417.92" y1="192" x2="464.86" y2="192" fill="none" stroke="#8c8c8c" stroke-miterlimit="10" stroke-width="1.5"/>
    <polygon points="461.38 196.29 460.67 195.53 464.46 192 460.67 188.47 461.38 187.71 466 192 461.38 196.29" fill="#8c8c8c"/>
  </g>
  <g>
    <line x1="634.92" y1="36.73" x2="681.86" y2="36.73" fill="none" stroke="#8c8c8c" stroke-miterlimit="10" stroke-width="1.5"/>
    <polygon points="678.38 41.02 677.67 40.26 681.46 36.73 677.67 33.2 678.38 32.44 683 36.73 678.38 41.02" fill="#8c8c8c"/>
  </g>
  <g>
    <line x1="729.92" y1="36.73" x2="776.86" y2="36.73" fill="none" stroke="#8c8c8c" stroke-miterlimit="10" stroke-width="1.5"/>
    <polygon points="773.38 41.02 772.67 40.26 776.46 36.73 772.67 33.2 773.38 32.44 778 36.73 773.38 41.02" fill="#8c8c8c"/>
  </g>
  <g>
    <line x1="707" y1="96.81" x2="707" y2="60.79" fill="none" stroke="#8c8c8c" stroke-miterlimit="10" stroke-width="1.5"/>
    <polygon points="711.29 64.26 710.52 64.98 707 61.19 703.48 64.98 702.71 64.26 707 59.65 711.29 64.26" fill="#8c8c8c"/>
  </g>
  <g>
    <line x1="803" y1="96.81" x2="803" y2="60.79" fill="none" stroke="#8c8c8c" stroke-miterlimit="10" stroke-width="1.5"/>
    <polygon points="807.29 64.26 806.52 64.98 803 61.19 799.48 64.98 798.71 64.26 803 59.65 807.29 64.26" fill="#8c8c8c"/>
  </g>
  <g>
    <g opacity="0.2">
      <path d="M204.5,187V151.5a11.39,11.39,0,0,1,9.94-11l285.61-30.13c5.47-.58,9.94-4,9.94-7.68V96" fill="none" stroke="#8c8c8c" stroke-miterlimit="10"/>
    </g>
    <g opacity="0.4">
      <path d="M300,187V155.29a12,12,0,0,1,9.89-11.5l193.23-29.24c5.44-.82,9.89-5.34,9.89-10V96" fill="none" stroke="#8c8c8c" stroke-miterlimit="10"/>
    </g>
    <path d="M396,187V159.08a13.8,13.8,0,0,1,9.66-12.59l100.68-27A13.8,13.8,0,0,0,516,106.85V96" fill="none" stroke="#8c8c8c" stroke-miterlimit="10" stroke-width="1.5"/>
    <g opacity="0.2">
      <path d="M491.5,187V159.08c0-5.5,3.15-13.21,7-17.14l13.87-14.15c3.85-3.93,7-11.64,7-17.14V96" fill="none" stroke="#8c8c8c" stroke-miterlimit="10"/>
    </g>
  </g>
  <g>
    <path d="M606.67,100a36.23,36.23,0,0,1,.33,6c-2,9-12,9-20.38,9.39L565.5,116.5" fill="none" stroke="#8c8c8c" stroke-miterlimit="10" opacity="0"/>
    <path d="M567.42,116.4l19.42-1C595.17,115,606,115.08,607,106a22,22,0,0,0-.33-6" fill="none" stroke="#8c8c8c" stroke-miterlimit="10" opacity="0"/>
    <path d="M569.34,116.3l17.73-.93C595.34,115,606,115,607,106a22,22,0,0,0-.33-6" fill="none" stroke="#8c8c8c" stroke-miterlimit="10" opacity="0.01"/>
    <path d="M571.26,116.2l16-.84C595.51,115,606,114.92,607,106a22,22,0,0,0-.33-6" fill="none" stroke="#8c8c8c" stroke-miterlimit="10" opacity="0.01"/>
    <path d="M573.18,116.09l14.33-.75C595.67,115,606,114.84,607,106a22,22,0,0,0-.33-6" fill="none" stroke="#8c8c8c" stroke-miterlimit="10" opacity="0.02"/>
    <path d="M575.1,116l12.64-.66c8.1-.37,18.3-0.57,19.26-9.34a22,22,0,0,0-.33-6" fill="none" stroke="#8c8c8c" stroke-miterlimit="10" opacity="0.02"/>
    <path d="M577,115.89l10.94-.57c8-.37,18.08-0.64,19-9.33a22,22,0,0,0-.33-6" fill="none" stroke="#8c8c8c" stroke-miterlimit="10" opacity="0.03"/>
    <path d="M578.94,115.79l9.25-.47c8-.37,17.87-0.71,18.81-9.32a22,22,0,0,0-.33-6" fill="none" stroke="#8c8c8c" stroke-miterlimit="10" opacity="0.03"/>
    <path d="M580.86,115.69l7.55-.38c7.94-.37,17.65-0.78,18.59-9.31a22,22,0,0,0-.33-6" fill="none" stroke="#8c8c8c" stroke-miterlimit="10" opacity="0.04"/>
    <path d="M582.78,115.59l5.85-.29c7.88-.36,17.44-0.85,18.37-9.3a22,22,0,0,0-.33-6" fill="none" stroke="#8c8c8c" stroke-miterlimit="10" opacity="0.04"/>
    <path d="M584.7,115.49l4.16-.2c7.83-.36,17.23-0.93,18.14-9.29a22,22,0,0,0-.33-6" fill="none" stroke="#8c8c8c" stroke-miterlimit="10" opacity="0.05"/>
    <path d="M586.62,115.39l2.46-.11c7.77-.36,16.11-1.14,17.92-9.28a36.23,36.23,0,0,0-.33-6" fill="none" stroke="#8c8c8c" stroke-miterlimit="10" opacity="0.05"/>
  </g>
  <g>
    <path d="M609.67,100c0,5.08,1,10.8-2.73,14.82-4,4.25-11,4.32-16.43,5.14L567,122.5" fill="none" stroke="#8c8c8c" stroke-miterlimit="10" stroke-width="1.5" opacity="0"/>
    <path d="M569.14,122.27L590.57,120c5.43-.78,12.38-0.9,16.36-5.13,3.78-4,2.73-9.74,2.73-14.82" fill="none" stroke="#8c8c8c" stroke-miterlimit="10" stroke-width="1.5" opacity="0.08"/>
    <path d="M571.27,122l19.37-2.1c5.41-.77,12.33-0.91,16.29-5.12,3.78-4,2.73-9.74,2.73-14.82" fill="none" stroke="#8c8c8c" stroke-miterlimit="10" stroke-width="1.5" opacity="0.16"/>
    <path d="M573.41,121.81l17.3-1.88c5.4-.77,12.28-0.92,16.22-5.11,3.78-4,2.73-9.74,2.73-14.82" fill="none" stroke="#8c8c8c" stroke-miterlimit="10" stroke-width="1.5" opacity="0.25"/>
    <path d="M575.55,121.58l15.23-1.65c5.39-.76,12.23-0.93,16.16-5.1,3.78-4,2.73-9.74,2.73-14.82" fill="none" stroke="#8c8c8c" stroke-miterlimit="10" stroke-width="1.5" opacity="0.33"/>
    <path d="M577.68,121.35l13.16-1.43c5.38-.76,12.18-0.93,16.09-5.09s2.73-9.74,2.73-14.82" fill="none" stroke="#8c8c8c" stroke-miterlimit="10" stroke-width="1.5" opacity="0.41"/>
    <path d="M579.82,121.12l11.09-1.21c5.37-.75,12.13-0.94,16-5.08s2.73-9.74,2.73-14.82" fill="none" stroke="#8c8c8c" stroke-miterlimit="10" stroke-width="1.5" opacity="0.49"/>
    <path d="M582,120.88l9-1c5.36-.75,12.08-1,16-5.07s2.73-9.74,2.73-14.82" fill="none" stroke="#8c8c8c" stroke-miterlimit="10" stroke-width="1.5" opacity="0.57"/>
    <path d="M584.1,120.65l7-.77c5.35-.75,12-1,15.88-5.06s2.73-9.74,2.73-14.82" fill="none" stroke="#8c8c8c" stroke-miterlimit="10" stroke-width="1.5" opacity="0.65"/>
    <path d="M586.23,120.42l4.88-.55c5.33-.75,12-1,15.82-5.06s2.73-9.74,2.73-14.82" fill="none" stroke="#8c8c8c" stroke-miterlimit="10" stroke-width="1.5" opacity="0.74"/>
    <path d="M588.37,120.19l2.82-.33c5.32-.74,11.92-1,15.75-5s2.73-9.74,2.73-14.82" fill="none" stroke="#8c8c8c" stroke-miterlimit="10" stroke-width="1.5" opacity="0.82"/>
    <path d="M590.51,120l0.75-.11c5.31-.73,11.87-1,15.68-5s2.73-9.74,2.73-14.82" fill="none" stroke="#8c8c8c" stroke-miterlimit="10" stroke-width="1.5" opacity="0.9"/>
  </g>
  <g>
    <path d="M612.67,100v8.09c0,6.89-2.61,13.08-9.7,15.37-1.66.54-3.39,0.91-5.07,1.36L577,132" fill="none" stroke="#8c8c8c" stroke-miterlimit="10" opacity="0"/>
    <path d="M578.9,131.35L598,124.79c1.65-.43,3.33-0.81,5-1.33,7.09-2.29,9.7-8.48,9.7-15.37V100" fill="none" stroke="#8c8c8c" stroke-miterlimit="10" opacity="0.01"/>
    <path d="M580.8,130.69l17.33-5.93c1.61-.42,3.26-0.79,4.84-1.3,7.09-2.29,9.7-8.48,9.7-15.37V100" fill="none" stroke="#8c8c8c" stroke-miterlimit="10" opacity="0.02"/>
    <path d="M582.7,130l15.54-5.31c1.57-.41,3.18-0.77,4.72-1.27,7.09-2.29,9.7-8.48,9.7-15.37V100" fill="none" stroke="#8c8c8c" stroke-miterlimit="10" opacity="0.03"/>
    <path d="M584.6,129.39c0.15,0,13.6-4.65,13.76-4.69,1.53-.4,3.1-0.75,4.61-1.24,7.09-2.29,9.7-8.48,9.7-15.37V100" fill="none" stroke="#8c8c8c" stroke-miterlimit="10" opacity="0.04"/>
    <path d="M586.5,128.74c0.19-.05,11.78-4,12-4.06,1.5-.38,3-0.74,4.49-1.21,7.09-2.29,9.7-8.48,9.7-15.37V100" fill="none" stroke="#8c8c8c" stroke-miterlimit="10" opacity="0.05"/>
    <path d="M588.4,128.08c0.23-.06,10-3.38,10.19-3.44,1.46-.37,2.94-0.72,4.38-1.18,7.09-2.29,9.7-8.48,9.7-15.37V100" fill="none" stroke="#8c8c8c" stroke-miterlimit="10" opacity="0.05"/>
    <path d="M590.3,127.43c0.27-.07,8.14-2.75,8.41-2.82,1.42-.36,2.87-0.7,4.26-1.15,7.09-2.29,9.7-8.48,9.7-15.37V100" fill="none" stroke="#8c8c8c" stroke-miterlimit="10" opacity="0.06"/>
    <path d="M592.2,126.78c0.31-.08,6.31-2.12,6.62-2.2,1.39-.35,2.79-0.68,4.14-1.12,7.09-2.29,9.7-8.48,9.7-15.37V100" fill="none" stroke="#8c8c8c" stroke-miterlimit="10" opacity="0.07"/>
    <path d="M594.1,126.13c0.34-.09,4.49-1.49,4.84-1.57,1.35-.34,2.71-0.67,4-1.09,7.09-2.29,9.7-8.48,9.7-15.37V100" fill="none" stroke="#8c8c8c" stroke-miterlimit="10" opacity="0.08"/>
    <path d="M596,125.47c0.38-.1,2.67-0.85,3.05-1,1.31-.33,2.63-0.65,3.91-1.06,7.09-2.29,9.7-8.48,9.7-15.37V100" fill="none" stroke="#8c8c8c" stroke-miterlimit="10" opacity="0.09"/>
    <path d="M597.9,124.82l1.27-.33c1.27-.32,2.56-0.63,3.8-1,7.09-2.29,9.7-8.48,9.7-15.37V100" fill="none" stroke="#8c8c8c" stroke-miterlimit="10" opacity="0.1"/>
  </g>
  <g>
    <path d="M616,100c0,10.32,1.14,20.66-5.19,29.6L602,138" fill="none" stroke="#8c8c8c" stroke-miterlimit="10" opacity="0"/>
    <path d="M602.8,137.24c0-.07,8.13-7.78,8.18-7.84,5.74-9.18,5.06-19.15,5.06-29.39" fill="none" stroke="#8c8c8c" stroke-miterlimit="10" opacity="0"/>
    <path d="M603.61,136.47c0.1-.14,7.42-7.15,7.51-7.29,5.63-9.1,4.93-19,4.93-29.18" fill="none" stroke="#8c8c8c" stroke-miterlimit="10" opacity="0.01"/>
    <path d="M604.41,135.71c0.15-.21,6.71-6.53,6.83-6.74,5.53-9,4.79-18.89,4.79-29" fill="none" stroke="#8c8c8c" stroke-miterlimit="10" opacity="0.01"/>
    <path d="M605.22,134.95c0.2-.28,6-5.91,6.16-6.19C616.8,119.82,616,110,616,100" fill="none" stroke="#8c8c8c" stroke-miterlimit="10" opacity="0.02"/>
    <path d="M606,134.18c0.25-.35,5.28-5.28,5.49-5.63,5.31-8.86,4.53-18.63,4.53-28.55" fill="none" stroke="#8c8c8c" stroke-miterlimit="10" opacity="0.02"/>
    <path d="M606.83,133.42c0.29-.42,4.57-4.66,4.82-5.08,5.21-8.78,4.39-18.5,4.39-28.34" fill="none" stroke="#8c8c8c" stroke-miterlimit="10" opacity="0.03"/>
    <path d="M607.63,132.66c0.34-.49,3.86-4,4.15-4.53,5.1-8.7,4.26-18.37,4.26-28.13" fill="none" stroke="#8c8c8c" stroke-miterlimit="10" opacity="0.03"/>
    <path d="M608.44,131.89c0.39-.55,3.15-3.41,3.48-4,5-8.62,4.13-18.24,4.13-27.92" fill="none" stroke="#8c8c8c" stroke-miterlimit="10" opacity="0.04"/>
    <path d="M609.24,131.13c0.44-.62,2.44-2.79,2.81-3.42,4.89-8.54,4-18.11,4-27.71" fill="none" stroke="#8c8c8c" stroke-miterlimit="10" opacity="0.04"/>
    <path d="M610,130.37c0.49-.69,1.73-2.16,2.13-2.87C617,119,616,109.52,616,100" fill="none" stroke="#8c8c8c" stroke-miterlimit="10" opacity="0.05"/>
    <path d="M610.85,129.6a25.6,25.6,0,0,0,1.46-2.32C617,118.9,616,109.44,616,100" fill="none" stroke="#8c8c8c" stroke-miterlimit="10" opacity="0.05"/>
  </g>
  <g>
    <path d="M702.33,100a36.23,36.23,0,0,1,.33,6c-2,9-12,9-20.38,9.39l-21.12,1.11" fill="none" stroke="#8c8c8c" stroke-miterlimit="10" opacity="0"/>
    <path d="M663.09,116.4l19.42-1c8.33-.38,19.16-0.29,20.16-9.38a22,22,0,0,0-.33-6" fill="none" stroke="#8c8c8c" stroke-miterlimit="10" stroke-width="1.05" opacity="0.08"/>
    <path d="M665,116.3l17.73-.93C691,115,701.68,115,702.67,106a22,22,0,0,0-.33-6" fill="none" stroke="#8c8c8c" stroke-miterlimit="10" stroke-width="1.09" opacity="0.16"/>
    <path d="M666.93,116.2l16-.84c8.21-.38,18.73-0.43,19.71-9.36a22,22,0,0,0-.33-6" fill="none" stroke="#8c8c8c" stroke-miterlimit="10" stroke-width="1.14" opacity="0.25"/>
    <path d="M668.85,116.09l14.33-.75c8.16-.38,18.51-0.5,19.49-9.35a22,22,0,0,0-.33-6" fill="none" stroke="#8c8c8c" stroke-miterlimit="10" stroke-width="1.18" opacity="0.33"/>
    <path d="M670.77,116l12.64-.66c8.1-.37,18.3-0.57,19.26-9.34a22,22,0,0,0-.33-6" fill="none" stroke="#8c8c8c" stroke-miterlimit="10" stroke-width="1.23" opacity="0.41"/>
    <path d="M672.69,115.89l10.94-.57c8-.37,18.08-0.64,19-9.33a22,22,0,0,0-.33-6" fill="none" stroke="#8c8c8c" stroke-miterlimit="10" stroke-width="1.27" opacity="0.49"/>
    <path d="M674.61,115.79l9.25-.47c8-.37,17.87-0.71,18.81-9.32a22,22,0,0,0-.33-6" fill="none" stroke="#8c8c8c" stroke-miterlimit="10" stroke-width="1.32" opacity="0.57"/>
    <path d="M676.53,115.69l7.55-.38c7.94-.37,17.65-0.78,18.59-9.31a22,22,0,0,0-.33-6" fill="none" stroke="#8c8c8c" stroke-miterlimit="10" stroke-width="1.36" opacity="0.65"/>
    <path d="M678.45,115.59l5.85-.29c7.88-.36,17.44-0.85,18.37-9.3a22,22,0,0,0-.33-6" fill="none" stroke="#8c8c8c" stroke-miterlimit="10" stroke-width="1.41" opacity="0.74"/>
    <path d="M680.37,115.49l4.16-.2c7.83-.36,17.23-0.93,18.14-9.29a22,22,0,0,0-.33-6" fill="none" stroke="#8c8c8c" stroke-miterlimit="10" stroke-width="1.45" opacity="0.82"/>
    <path d="M682.29,115.39l2.46-.11c7.77-.36,16.11-1.14,17.92-9.28a36.23,36.23,0,0,0-.33-6" fill="none" stroke="#8c8c8c" stroke-miterlimit="10" stroke-width="1.5" opacity="0.9"/>
  </g>
  <g>
    <path d="M705.33,100c0,5.08,1,10.8-2.73,14.82-4,4.25-11,4.32-16.43,5.14l-23.51,2.54" fill="none" stroke="#8c8c8c" stroke-miterlimit="10" stroke-width="1.5" opacity="0"/>
    <path d="M664.8,122.27L686.24,120c5.43-.78,12.38-0.9,16.36-5.13,3.78-4,2.73-9.74,2.73-14.82" fill="none" stroke="#8c8c8c" stroke-miterlimit="10" stroke-width="1.45" opacity="0.01"/>
    <path d="M666.94,122l19.37-2.1c5.41-.77,12.33-0.91,16.29-5.12,3.78-4,2.73-9.74,2.73-14.82" fill="none" stroke="#8c8c8c" stroke-miterlimit="10" stroke-width="1.41" opacity="0.02"/>
    <path d="M669.08,121.81l17.3-1.88c5.4-.77,12.28-0.92,16.22-5.11,3.78-4,2.73-9.74,2.73-14.82" fill="none" stroke="#8c8c8c" stroke-miterlimit="10" stroke-width="1.36" opacity="0.03"/>
    <path d="M671.21,121.58l15.23-1.65c5.39-.76,12.23-0.93,16.16-5.1,3.78-4,2.73-9.74,2.73-14.82" fill="none" stroke="#8c8c8c" stroke-miterlimit="10" stroke-width="1.32" opacity="0.04"/>
    <path d="M673.35,121.35l13.16-1.43c5.38-.76,12.18-0.93,16.09-5.09s2.73-9.74,2.73-14.82" fill="none" stroke="#8c8c8c" stroke-miterlimit="10" stroke-width="1.27" opacity="0.05"/>
    <path d="M675.49,121.12l11.09-1.21c5.37-.75,12.13-0.94,16-5.08s2.73-9.74,2.73-14.82" fill="none" stroke="#8c8c8c" stroke-miterlimit="10" stroke-width="1.23" opacity="0.05"/>
    <path d="M677.63,120.88l9-1c5.36-.75,12.08-1,16-5.07s2.73-9.74,2.73-14.82" fill="none" stroke="#8c8c8c" stroke-miterlimit="10" stroke-width="1.18" opacity="0.06"/>
    <path d="M679.76,120.65l7-.77c5.35-.75,12-1,15.88-5.06s2.73-9.74,2.73-14.82" fill="none" stroke="#8c8c8c" stroke-miterlimit="10" stroke-width="1.14" opacity="0.07"/>
    <path d="M681.9,120.42l4.88-.55c5.33-.75,12-1,15.82-5.06s2.73-9.74,2.73-14.82" fill="none" stroke="#8c8c8c" stroke-miterlimit="10" stroke-width="1.09" opacity="0.08"/>
    <path d="M684,120.19l2.82-.33c5.32-.74,11.92-1,15.75-5s2.73-9.74,2.73-14.82" fill="none" stroke="#8c8c8c" stroke-miterlimit="10" stroke-width="1.05" opacity="0.09"/>
    <path d="M686.17,120l0.75-.11c5.31-.73,11.87-1,15.68-5s2.73-9.74,2.73-14.82" fill="none" stroke="#8c8c8c" stroke-miterlimit="10" opacity="0.1"/>
  </g>
  <g>
    <path d="M708.33,100v8.09c0,6.89-2.61,13.08-9.7,15.37-1.66.54-3.39,0.91-5.07,1.36L672.67,132" fill="none" stroke="#8c8c8c" stroke-miterlimit="10" opacity="0"/>
    <path d="M674.57,131.35l19.11-6.56c1.65-.43,3.33-0.81,5-1.33,7.09-2.29,9.7-8.48,9.7-15.37V100" fill="none" stroke="#8c8c8c" stroke-miterlimit="10" opacity="0"/>
    <path d="M676.47,130.69l17.33-5.93c1.61-.42,3.26-0.79,4.84-1.3,7.09-2.29,9.7-8.48,9.7-15.37V100" fill="none" stroke="#8c8c8c" stroke-miterlimit="10" opacity="0.01"/>
    <path d="M678.37,130l15.54-5.31c1.57-.41,3.18-0.77,4.72-1.27,7.09-2.29,9.7-8.48,9.7-15.37V100" fill="none" stroke="#8c8c8c" stroke-miterlimit="10" opacity="0.01"/>
    <path d="M680.27,129.39c0.15,0,13.6-4.65,13.76-4.69,1.53-.4,3.1-0.75,4.61-1.24,7.09-2.29,9.7-8.48,9.7-15.37V100" fill="none" stroke="#8c8c8c" stroke-miterlimit="10" opacity="0.02"/>
    <path d="M682.16,128.74c0.19-.05,11.78-4,12-4.06,1.5-.38,3-0.74,4.49-1.21,7.09-2.29,9.7-8.48,9.7-15.37V100" fill="none" stroke="#8c8c8c" stroke-miterlimit="10" opacity="0.02"/>
    <path d="M684.06,128.08c0.23-.06,10-3.38,10.19-3.44,1.46-.37,2.94-0.72,4.38-1.18,7.09-2.29,9.7-8.48,9.7-15.37V100" fill="none" stroke="#8c8c8c" stroke-miterlimit="10" opacity="0.03"/>
    <path d="M686,127.43c0.27-.07,8.14-2.75,8.41-2.82,1.42-.36,2.87-0.7,4.26-1.15,7.09-2.29,9.7-8.48,9.7-15.37V100" fill="none" stroke="#8c8c8c" stroke-miterlimit="10" opacity="0.03"/>
    <path d="M687.86,126.78c0.31-.08,6.31-2.12,6.62-2.2,1.39-.35,2.79-0.68,4.14-1.12,7.09-2.29,9.7-8.48,9.7-15.37V100" fill="none" stroke="#8c8c8c" stroke-miterlimit="10" opacity="0.04"/>
    <path d="M689.76,126.13c0.34-.09,4.49-1.49,4.84-1.57,1.35-.34,2.71-0.67,4-1.09,7.09-2.29,9.7-8.48,9.7-15.37V100" fill="none" stroke="#8c8c8c" stroke-miterlimit="10" opacity="0.04"/>
    <path d="M691.66,125.47c0.38-.1,2.67-0.85,3.05-1,1.31-.33,2.63-0.65,3.91-1.06,7.09-2.29,9.7-8.48,9.7-15.37V100" fill="none" stroke="#8c8c8c" stroke-miterlimit="10" opacity="0.05"/>
    <path d="M693.56,124.82l1.27-.33c1.27-.32,2.56-0.63,3.8-1,7.09-2.29,9.7-8.48,9.7-15.37V100" fill="none" stroke="#8c8c8c" stroke-miterlimit="10" opacity="0.05"/>
  </g>
  <g>
    <path d="M711.71,100c0,10.32,1.14,20.66-5.19,29.6l-8.85,8.4" fill="none" stroke="#8c8c8c" stroke-miterlimit="10" opacity="0"/>
    <path d="M698.47,137.24c0-.07,8.13-7.78,8.18-7.84,5.74-9.18,5.06-19.15,5.06-29.39" fill="none" stroke="#8c8c8c" stroke-miterlimit="10" opacity="0"/>
    <path d="M699.28,136.47c0.1-.14,7.42-7.15,7.51-7.29,5.63-9.1,4.93-19,4.93-29.18" fill="none" stroke="#8c8c8c" stroke-miterlimit="10" opacity="0.01"/>
    <path d="M700.08,135.71c0.15-.21,6.71-6.53,6.83-6.74,5.53-9,4.79-18.89,4.79-29" fill="none" stroke="#8c8c8c" stroke-miterlimit="10" opacity="0.01"/>
    <path d="M700.88,134.95c0.2-.28,6-5.91,6.16-6.19,5.42-8.94,4.66-18.76,4.66-28.76" fill="none" stroke="#8c8c8c" stroke-miterlimit="10" opacity="0.02"/>
    <path d="M701.69,134.18c0.25-.35,5.28-5.28,5.49-5.63,5.31-8.86,4.53-18.63,4.53-28.55" fill="none" stroke="#8c8c8c" stroke-miterlimit="10" opacity="0.02"/>
    <path d="M702.49,133.42c0.29-.42,4.57-4.66,4.82-5.08,5.21-8.78,4.39-18.5,4.39-28.34" fill="none" stroke="#8c8c8c" stroke-miterlimit="10" opacity="0.03"/>
    <path d="M703.3,132.66c0.34-.49,3.86-4,4.15-4.53,5.1-8.7,4.26-18.37,4.26-28.13" fill="none" stroke="#8c8c8c" stroke-miterlimit="10" opacity="0.03"/>
    <path d="M704.1,131.89c0.39-.55,3.15-3.41,3.48-4,5-8.62,4.13-18.24,4.13-27.92" fill="none" stroke="#8c8c8c" stroke-miterlimit="10" opacity="0.04"/>
    <path d="M704.91,131.13c0.44-.62,2.44-2.79,2.81-3.42,4.89-8.54,4-18.11,4-27.71" fill="none" stroke="#8c8c8c" stroke-miterlimit="10" opacity="0.04"/>
    <path d="M705.71,130.37c0.49-.69,1.73-2.16,2.13-2.87,4.79-8.46,3.86-18,3.86-27.5" fill="none" stroke="#8c8c8c" stroke-miterlimit="10" opacity="0.05"/>
    <path d="M706.52,129.6a25.6,25.6,0,0,0,1.46-2.32c4.68-8.39,3.73-17.85,3.73-27.28" fill="none" stroke="#8c8c8c" stroke-miterlimit="10" opacity="0.05"/>
  </g>
  <g>
    <path d="M799,100a36.23,36.23,0,0,1,.33,6c-2,9-12,9-20.38,9.39l-21.12,1.11" fill="none" stroke="#8c8c8c" stroke-miterlimit="10" opacity="0"/>
    <path d="M759.75,116.4l19.42-1c8.33-.38,19.16-0.29,20.16-9.38a22,22,0,0,0-.33-6" fill="none" stroke="#8c8c8c" stroke-miterlimit="10" opacity="0"/>
    <path d="M761.67,116.3l17.73-.93c8.27-.38,18.94-0.36,19.93-9.37a22,22,0,0,0-.33-6" fill="none" stroke="#8c8c8c" stroke-miterlimit="10" opacity="0.01"/>
    <path d="M763.59,116.2l16-.84c8.21-.38,18.73-0.43,19.71-9.36a22,22,0,0,0-.33-6" fill="none" stroke="#8c8c8c" stroke-miterlimit="10" opacity="0.01"/>
    <path d="M765.51,116.09l14.33-.75c8.16-.38,18.51-0.5,19.49-9.35a22,22,0,0,0-.33-6" fill="none" stroke="#8c8c8c" stroke-miterlimit="10" opacity="0.02"/>
    <path d="M767.43,116l12.64-.66c8.1-.37,18.3-0.57,19.26-9.34a22,22,0,0,0-.33-6" fill="none" stroke="#8c8c8c" stroke-miterlimit="10" opacity="0.02"/>
    <path d="M769.35,115.89l10.94-.57c8-.37,18.08-0.64,19-9.33a22,22,0,0,0-.33-6" fill="none" stroke="#8c8c8c" stroke-miterlimit="10" opacity="0.03"/>
    <path d="M771.27,115.79l9.25-.47c8-.37,17.87-0.71,18.81-9.32a22,22,0,0,0-.33-6" fill="none" stroke="#8c8c8c" stroke-miterlimit="10" opacity="0.03"/>
    <path d="M773.19,115.69l7.55-.38c7.94-.37,17.65-0.78,18.59-9.31a22,22,0,0,0-.33-6" fill="none" stroke="#8c8c8c" stroke-miterlimit="10" opacity="0.04"/>
    <path d="M775.11,115.59l5.85-.29c7.88-.36,17.44-0.85,18.37-9.3a22,22,0,0,0-.33-6" fill="none" stroke="#8c8c8c" stroke-miterlimit="10" opacity="0.04"/>
    <path d="M777,115.49l4.16-.2c7.83-.36,17.23-0.93,18.14-9.29a22,22,0,0,0-.33-6" fill="none" stroke="#8c8c8c" stroke-miterlimit="10" opacity="0.05"/>
    <path d="M779,115.39l2.46-.11c7.77-.36,16.11-1.14,17.92-9.28a36.23,36.23,0,0,0-.33-6" fill="none" stroke="#8c8c8c" stroke-miterlimit="10" opacity="0.05"/>
  </g>
  <g>
    <path d="M802,100c0,5.08,1,10.8-2.73,14.82-4,4.25-11,4.32-16.43,5.14l-23.51,2.54" fill="none" stroke="#8c8c8c" stroke-miterlimit="10" stroke-width="1.5" opacity="0"/>
    <path d="M761.47,122.27L782.91,120c5.43-.78,12.38-0.9,16.36-5.13,3.78-4,2.73-9.74,2.73-14.82" fill="none" stroke="#8c8c8c" stroke-miterlimit="10" stroke-width="1.45" opacity="0.01"/>
    <path d="M763.61,122l19.37-2.1c5.41-.77,12.33-0.91,16.29-5.12,3.78-4,2.73-9.74,2.73-14.82" fill="none" stroke="#8c8c8c" stroke-miterlimit="10" stroke-width="1.41" opacity="0.02"/>
    <path d="M765.74,121.81l17.3-1.88c5.4-.77,12.28-0.92,16.22-5.11,3.78-4,2.73-9.74,2.73-14.82" fill="none" stroke="#8c8c8c" stroke-miterlimit="10" stroke-width="1.36" opacity="0.03"/>
    <path d="M767.88,121.58l15.23-1.65c5.39-.76,12.23-0.93,16.16-5.1,3.78-4,2.73-9.74,2.73-14.82" fill="none" stroke="#8c8c8c" stroke-miterlimit="10" stroke-width="1.32" opacity="0.04"/>
    <path d="M770,121.35l13.16-1.43c5.38-.76,12.18-0.93,16.09-5.09S802,105.08,802,100" fill="none" stroke="#8c8c8c" stroke-miterlimit="10" stroke-width="1.27" opacity="0.05"/>
    <path d="M772.16,121.12l11.09-1.21c5.37-.75,12.13-0.94,16-5.08S802,105.08,802,100" fill="none" stroke="#8c8c8c" stroke-miterlimit="10" stroke-width="1.23" opacity="0.05"/>
    <path d="M774.29,120.88l9-1c5.36-.75,12.08-1,16-5.07S802,105.08,802,100" fill="none" stroke="#8c8c8c" stroke-miterlimit="10" stroke-width="1.18" opacity="0.06"/>
    <path d="M776.43,120.65l7-.77c5.35-.75,12-1,15.88-5.06S802,105.08,802,100" fill="none" stroke="#8c8c8c" stroke-miterlimit="10" stroke-width="1.14" opacity="0.07"/>
    <path d="M778.57,120.42l4.88-.55c5.33-.75,12-1,15.82-5.06S802,105.08,802,100" fill="none" stroke="#8c8c8c" stroke-miterlimit="10" stroke-width="1.09" opacity="0.08"/>
    <path d="M780.7,120.19l2.82-.33c5.32-.74,11.92-1,15.75-5S802,105.08,802,100" fill="none" stroke="#8c8c8c" stroke-miterlimit="10" stroke-width="1.05" opacity="0.09"/>
    <path d="M782.84,120l0.75-.11c5.31-.73,11.87-1,15.68-5S802,105.08,802,100" fill="none" stroke="#8c8c8c" stroke-miterlimit="10" opacity="0.1"/>
  </g>
  <g>
    <path d="M805,100v8.09c0,6.89-2.61,13.08-9.7,15.37-1.66.54-3.39,0.91-5.07,1.36L769.33,132" fill="none" stroke="#8c8c8c" stroke-miterlimit="10" opacity="0"/>
    <path d="M771.23,131.35l19.11-6.56c1.65-.43,3.33-0.81,5-1.33,7.09-2.29,9.7-8.48,9.7-15.37V100" fill="none" stroke="#8c8c8c" stroke-miterlimit="10" opacity="0"/>
    <path d="M773.13,130.69l17.33-5.93c1.61-.42,3.26-0.79,4.84-1.3,7.09-2.29,9.7-8.48,9.7-15.37V100" fill="none" stroke="#8c8c8c" stroke-miterlimit="10" opacity="0.01"/>
    <path d="M775,130l15.54-5.31c1.57-.41,3.18-0.77,4.72-1.27,7.09-2.29,9.7-8.48,9.7-15.37V100" fill="none" stroke="#8c8c8c" stroke-miterlimit="10" opacity="0.01"/>
    <path d="M776.93,129.39c0.15,0,13.6-4.65,13.76-4.69,1.53-.4,3.1-0.75,4.61-1.24,7.09-2.29,9.7-8.48,9.7-15.37V100" fill="none" stroke="#8c8c8c" stroke-miterlimit="10" opacity="0.02"/>
    <path d="M778.83,128.74c0.19-.05,11.78-4,12-4.06,1.5-.38,3-0.74,4.49-1.21,7.09-2.29,9.7-8.48,9.7-15.37V100" fill="none" stroke="#8c8c8c" stroke-miterlimit="10" opacity="0.02"/>
    <path d="M780.73,128.08c0.23-.06,10-3.38,10.19-3.44,1.46-.37,2.94-0.72,4.38-1.18,7.09-2.29,9.7-8.48,9.7-15.37V100" fill="none" stroke="#8c8c8c" stroke-miterlimit="10" opacity="0.03"/>
    <path d="M782.63,127.43c0.27-.07,8.14-2.75,8.41-2.82,1.42-.36,2.87-0.7,4.26-1.15,7.09-2.29,9.7-8.48,9.7-15.37V100" fill="none" stroke="#8c8c8c" stroke-miterlimit="10" opacity="0.03"/>
    <path d="M784.53,126.78c0.31-.08,6.31-2.12,6.62-2.2,1.39-.35,2.79-0.68,4.14-1.12,7.09-2.29,9.7-8.48,9.7-15.37V100" fill="none" stroke="#8c8c8c" stroke-miterlimit="10" opacity="0.04"/>
    <path d="M786.43,126.13c0.34-.09,4.49-1.49,4.84-1.57,1.35-.34,2.71-0.67,4-1.09,7.09-2.29,9.7-8.48,9.7-15.37V100" fill="none" stroke="#8c8c8c" stroke-miterlimit="10" opacity="0.04"/>
    <path d="M788.33,125.47c0.38-.1,2.67-0.85,3.05-1,1.31-.33,2.63-0.65,3.91-1.06,7.09-2.29,9.7-8.48,9.7-15.37V100" fill="none" stroke="#8c8c8c" stroke-miterlimit="10" opacity="0.05"/>
    <path d="M790.23,124.82l1.27-.33c1.27-.32,2.56-0.63,3.8-1,7.09-2.29,9.7-8.48,9.7-15.37V100" fill="none" stroke="#8c8c8c" stroke-miterlimit="10" opacity="0.05"/>
  </g>
  <g>
    <path d="M808.38,100c0,10.32,1.14,20.66-5.19,29.6L794,139.75" fill="none" stroke="#8c8c8c" stroke-miterlimit="10" opacity="0"/>
    <path d="M794.83,138.83c0-.07,8.44-9.37,8.48-9.44,5.74-9.18,5.06-19.15,5.06-29.39" fill="none" stroke="#8c8c8c" stroke-miterlimit="10" stroke-width="1.05" opacity="0.08"/>
    <path d="M795.67,137.91c0.1-.14,7.69-8.58,7.78-8.72,5.63-9.1,4.93-19,4.93-29.18" fill="none" stroke="#8c8c8c" stroke-miterlimit="10" stroke-width="1.09" opacity="0.16"/>
    <path d="M796.5,137c0.15-.21,6.95-7.8,7.08-8,5.53-9,4.79-18.89,4.79-29" fill="none" stroke="#8c8c8c" stroke-miterlimit="10" stroke-width="1.14" opacity="0.25"/>
    <path d="M797.34,136.06c0.2-.28,6.21-7,6.38-7.3,5.42-8.94,4.66-18.76,4.66-28.76" fill="none" stroke="#8c8c8c" stroke-miterlimit="10" stroke-width="1.18" opacity="0.33"/>
    <path d="M798.17,135.14c0.25-.35,5.46-6.24,5.67-6.59,5.31-8.86,4.53-18.63,4.53-28.55" fill="none" stroke="#8c8c8c" stroke-miterlimit="10" stroke-width="1.23" opacity="0.41"/>
    <path d="M799,134.22c0.29-.42,4.72-5.46,5-5.88,5.21-8.78,4.39-18.5,4.39-28.34" fill="none" stroke="#8c8c8c" stroke-miterlimit="10" stroke-width="1.27" opacity="0.49"/>
    <path d="M799.84,133.29c0.34-.49,4-4.67,4.27-5.17,5.1-8.7,4.26-18.37,4.26-28.13" fill="none" stroke="#8c8c8c" stroke-miterlimit="10" stroke-width="1.32" opacity="0.57"/>
    <path d="M800.68,132.37c0.39-.55,3.24-3.89,3.57-4.45,5-8.62,4.13-18.24,4.13-27.92" fill="none" stroke="#8c8c8c" stroke-miterlimit="10" stroke-width="1.36" opacity="0.65"/>
    <path d="M801.51,131.45c0.44-.62,2.5-3.11,2.87-3.74,4.89-8.54,4-18.11,4-27.71" fill="none" stroke="#8c8c8c" stroke-miterlimit="10" stroke-width="1.41" opacity="0.74"/>
    <path d="M802.35,130.53c0.49-.69,1.76-2.32,2.17-3,4.79-8.46,3.86-18,3.86-27.5" fill="none" stroke="#8c8c8c" stroke-miterlimit="10" stroke-width="1.45" opacity="0.82"/>
    <path d="M803.18,129.6a25.6,25.6,0,0,0,1.46-2.32c4.68-8.39,3.73-17.85,3.73-27.28" fill="none" stroke="#8c8c8c" stroke-miterlimit="10" stroke-width="1.5" opacity="0.9"/>
  </g>
  <use width="48" height="48" transform="translate(491 12)" xlink:href="#rnn-b"/>
  <use width="48" height="48" transform="translate(587 12)" xlink:href="#rnn-b"/>
  <use width="48" height="48" transform="translate(683 12)" xlink:href="#rnn-b"/>
  <use id="rnn-b-9" data-name="rnn-b" width="48" height="48" transform="translate(779 12)" xlink:href="#rnn-b"/>
  <use width="48" height="48" transform="translate(179 168)" xlink:href="#rnn-a"/>
  <use width="48" height="48" transform="translate(275 168)" xlink:href="#rnn-a"/>
  <use width="48" height="48" transform="translate(371 168)" xlink:href="#rnn-a"/>
  <use width="48" height="48" transform="translate(467 168)" xlink:href="#rnn-a"/>
  <use width="22.5" height="22.5" transform="translate(503.75 84.5)" xlink:href="#op-sum"/>
  <use width="22.5" height="22.5" transform="translate(695.75 84.5)" xlink:href="#op-sum"/>
  <use width="22.5" height="22.5" transform="translate(791.75 84.5)" xlink:href="#op-sum"/>
  <text transform="translate(288 57.12)" font-size="12" fill="#666" font-family="Open Sans">Network B focuses on <tspan x="0" y="18">different information from </tspan><tspan x="0" y="36">network A at every step.</tspan></text>
  <use width="22.5" height="22.5" transform="translate(600 84.5)" xlink:href="#op-sum"/>
</svg>
