<?xml version="1.0" encoding="utf-8"?>
<!-- Generator: Adobe Illustrator 19.1.0, SVG Export Plug-In . SVG Version: 6.00 Build 0)  -->
<svg version="1.1" xmlns="http://www.w3.org/2000/svg" xmlns:xlink="http://www.w3.org/1999/xlink" x="0px" y="0px" width="984px"
	 height="756px" viewBox="0 0 984 756" enable-background="new 0 0 984 756" xml:space="preserve">
<symbol  id="array-1" viewBox="-18.5 -18.5 37 37">
	<path fill="none" stroke="#8C8C8C" stroke-miterlimit="10" d="M12-18h-24c-3.3,0-6,2.7-6,6v24c0,3.3,2.7,6,6,6h24c3.3,0,6-2.7,6-6
		v-24C18-15.3,15.3-18,12-18z"/>
</symbol>
<symbol  id="array-3" viewBox="-57.8 -18.5 108.5 37">
	<path fill="none" stroke="#8C8C8C" stroke-miterlimit="10" d="M44.2-18h-95.5c-3.3,0-6,2.7-6,6v24c0,3.3,2.7,6,6,6h95.5
		c3.3,0,6-2.7,6-6v-24C50.2-15.3,47.6-18,44.2-18z"/>
	<line fill="none" stroke="#8C8C8C" stroke-miterlimit="10" x1="-21.8" y1="-18" x2="-21.8" y2="18"/>
	<line fill="none" stroke="#8C8C8C" stroke-miterlimit="10" x1="14.2" y1="-18" x2="14.2" y2="18"/>
</symbol>
<symbol  id="array-5" viewBox="-126.5 -18.5 180.5 37">
	<path fill="none" stroke="#8C8C8C" stroke-miterlimit="10" d="M47.5-18H-120c-3.3,0-6,2.7-6,6v24c0,3.3,2.7,6,6,6H47.5
		c3.3,0,6-2.7,6-6v-24C53.5-15.3,50.8-18,47.5-18z"/>
	<line fill="none" stroke="#8C8C8C" stroke-miterlimit="10" x1="-90.5" y1="-18" x2="-90.5" y2="18"/>
	<line fill="none" stroke="#8C8C8C" stroke-miterlimit="10" x1="-54.5" y1="-18" x2="-54.5" y2="18"/>
	<line fill="none" stroke="#8C8C8C" stroke-miterlimit="10" x1="-18.5" y1="-18" x2="-18.5" y2="18"/>
	<line fill="none" stroke="#8C8C8C" stroke-miterlimit="10" x1="17.5" y1="-18" x2="17.5" y2="18"/>
</symbol>
<symbol  id="array-positive-value" viewBox="-18 -18 36 36">
	<polygon opacity="0" fill="#0080F7" points="18,-18 -18,-18 -18,18 18,18 	"/>
	<path opacity="0.8" fill="#0080F7" d="M7.6-13.6H-7.6c-3.3,0-6,2.7-6,6V7.6c0,3.3,2.7,6,6,6H7.6c3.3,0,6-2.7,6-6V-7.6
		C13.6-10.9,10.9-13.6,7.6-13.6z"/>
</symbol>
<symbol  id="op-bg" viewBox="-11.2 -11.2 22.5 22.5">
	<path fill="#798294" d="M11.2,0c0-6.2-5-11.2-11.2-11.2S-11.2-6.2-11.2,0s5,11.2,11.2,11.2S11.2,6.2,11.2,0z"/>
</symbol>
<symbol  id="op-wide-bg" viewBox="-25.3 -11.5 50.5 23">
	<path fill="#596673" d="M13.8-11.5h-27.5c-6.3,0-11.5,5.2-11.5,11.5v0c0,6.3,5.2,11.5,11.5,11.5h27.5c6.3,0,11.5-5.2,11.5-11.5v0
		C25.3-6.3,20.1-11.5,13.8-11.5z"/>
</symbol>
<symbol  id="rnn-bg" viewBox="-21.5 -26.5 48 48">
	<path fill="#798294" d="M20.5-26.5h-36c-3.3,0-6,2.7-6,6v36c0,3.3,2.7,6,6,6h36c3.3,0,6-2.7,6-6v-36C26.5-23.8,23.8-26.5,20.5-26.5
		z"/>
</symbol>
<g id="background">
</g>
<g id="edges">
	<g>
		<g>
			<line fill="none" stroke="#919191" stroke-miterlimit="10" x1="743.5" y1="0" x2="743.5" y2="1"/>
			
				<line fill="none" stroke="#919191" stroke-miterlimit="10" stroke-dasharray="1.9974,1.9974" x1="743.5" y1="3" x2="743.5" y2="769"/>
		</g>
	</g>
	<g>
		<g>
			<line fill="none" stroke="#8C8C8C" stroke-miterlimit="10" x1="431.5" y1="59.6" x2="431.5" y2="94.9"/>
			<g>
				<polygon fill="#8C8C8C" points="427.4,91.6 428.1,90.9 431.5,94.5 434.9,90.9 435.6,91.6 431.5,96 				"/>
			</g>
		</g>
	</g>
	<g>
		<g>
			<line fill="none" stroke="#8C8C8C" stroke-miterlimit="10" x1="755.5" y1="108" x2="468.6" y2="108"/>
			<g>
				<polygon fill="#8C8C8C" points="471.9,103.9 472.6,104.6 469,108 472.6,111.4 471.9,112.1 467.5,108 				"/>
			</g>
		</g>
	</g>
	<g>
		<g>
			<line fill="none" stroke="#8C8C8C" stroke-miterlimit="10" x1="755.5" y1="372" x2="468.6" y2="372"/>
			<g>
				<polygon fill="#8C8C8C" points="471.9,367.9 472.6,368.6 469,372 472.6,375.4 471.9,376.1 467.5,372 				"/>
			</g>
		</g>
	</g>
	<g>
		<g>
			<line fill="none" stroke="#8C8C8C" stroke-miterlimit="10" x1="755.5" y1="504" x2="468.6" y2="504"/>
			<g>
				<polygon fill="#8C8C8C" points="471.9,499.9 472.6,500.6 469,504 472.6,507.4 471.9,508.1 467.5,504 				"/>
			</g>
		</g>
	</g>
	<g>
		<g>
			<line fill="none" stroke="#8C8C8C" stroke-miterlimit="10" x1="431.5" y1="119.6" x2="431.5" y2="154.9"/>
			<g>
				<polygon fill="#8C8C8C" points="427.4,151.6 428.1,150.9 431.5,154.5 434.9,150.9 435.6,151.6 431.5,156 				"/>
			</g>
		</g>
	</g>
	<g>
		<g>
			<line fill="none" stroke="#8C8C8C" stroke-miterlimit="10" x1="431.5" y1="192.6" x2="431.5" y2="227.9"/>
			<g>
				<polygon fill="#8C8C8C" points="427.4,224.6 428.1,223.9 431.5,227.5 434.9,223.9 435.6,224.6 431.5,229 				"/>
			</g>
		</g>
	</g>
	<g>
		<g>
			<line fill="none" stroke="#8C8C8C" stroke-miterlimit="10" x1="431.5" y1="252.6" x2="431.5" y2="287.9"/>
			<g>
				<polygon fill="#8C8C8C" points="427.4,284.6 428.1,283.9 431.5,287.5 434.9,283.9 435.6,284.6 431.5,289 				"/>
			</g>
		</g>
	</g>
	<g>
		<g>
			<line fill="none" stroke="#8C8C8C" stroke-miterlimit="10" x1="635.5" y1="228" x2="635.5" y2="263.3"/>
			<g>
				<polygon fill="#8C8C8C" points="631.4,260 632.1,259.3 635.5,262.9 638.9,259.3 639.6,260 635.5,264.4 				"/>
			</g>
		</g>
	</g>
	<g>
		<g>
			<line fill="none" stroke="#8C8C8C" stroke-miterlimit="10" x1="431.5" y1="323.6" x2="431.5" y2="358.9"/>
			<g>
				<polygon fill="#8C8C8C" points="427.4,355.6 428.1,354.9 431.5,358.5 434.9,354.9 435.6,355.6 431.5,360 				"/>
			</g>
		</g>
	</g>
	<g>
		<g>
			<line fill="none" stroke="#8C8C8C" stroke-miterlimit="10" x1="431.5" y1="383.6" x2="431.5" y2="418.9"/>
			<g>
				<polygon fill="#8C8C8C" points="427.4,415.6 428.1,414.9 431.5,418.5 434.9,414.9 435.6,415.6 431.5,420 				"/>
			</g>
		</g>
	</g>
	<g>
		<g>
			<line fill="none" stroke="#8C8C8C" stroke-miterlimit="10" x1="431.5" y1="453.6" x2="431.5" y2="488.9"/>
			<g>
				<polygon fill="#8C8C8C" points="427.4,485.6 428.1,484.9 431.5,488.5 434.9,484.9 435.6,485.6 431.5,490 				"/>
			</g>
		</g>
	</g>
	<g>
		<g>
			<line fill="none" stroke="#8C8C8C" stroke-miterlimit="10" x1="431.5" y1="515.6" x2="431.5" y2="550.9"/>
			<g>
				<polygon fill="#8C8C8C" points="427.4,547.6 428.1,546.9 431.5,550.5 434.9,546.9 435.6,547.6 431.5,552 				"/>
			</g>
		</g>
	</g>
	<g>
		<g>
			<line fill="none" stroke="#8C8C8C" stroke-miterlimit="10" x1="431.5" y1="588.6" x2="431.5" y2="623.9"/>
			<g>
				<polygon fill="#8C8C8C" points="427.4,620.6 428.1,619.9 431.5,623.5 434.9,619.9 435.6,620.6 431.5,625 				"/>
			</g>
		</g>
	</g>
	<g>
		<g>
			<line fill="none" stroke="#8C8C8C" stroke-miterlimit="10" x1="431.5" y1="647.6" x2="431.5" y2="682.9"/>
			<g>
				<polygon fill="#8C8C8C" points="427.4,679.6 428.1,678.9 431.5,682.5 434.9,678.9 435.6,679.6 431.5,684 				"/>
			</g>
		</g>
	</g>
	<g>
		<g>
			<polyline fill="none" stroke="#8C8C8C" stroke-miterlimit="10" points="635.5,324 635.5,360 468.6,360 			"/>
			<g>
				<polygon fill="#8C8C8C" points="471.9,355.9 472.6,356.6 469,360 472.6,363.4 471.9,364.1 467.5,360 				"/>
			</g>
		</g>
	</g>
</g>
<g id="nodes">
	
		<use xlink:href="#array-positive-value"  width="36" height="36" x="-18" y="-18" transform="matrix(1 0 0 -1 354 173)" overflow="visible"/>
	
		<use xlink:href="#array-positive-value"  width="36" height="36" x="-18" y="-18" transform="matrix(1 0 0 -1 390 173)" overflow="visible"/>
	
		<use xlink:href="#array-positive-value"  width="36" height="36" x="-18" y="-18" transform="matrix(1 0 0 -1 426 173)" overflow="visible"/>
	
		<use xlink:href="#array-positive-value"  width="36" height="36" x="-18" y="-18" transform="matrix(1 0 0 -1 462 173)" overflow="visible"/>
	
		<use xlink:href="#array-positive-value"  width="36" height="36" x="-18" y="-18" transform="matrix(1 0 0 -1 498 173)" overflow="visible"/>
	
		<use xlink:href="#array-5"  width="180.5" height="37" x="-126.5" y="-18.5" transform="matrix(1 0 0 -1 462 173.5)" overflow="visible"/>
	
		<use xlink:href="#array-5"  width="180.5" height="37" x="-126.5" y="-18.5" transform="matrix(1 0 0 -1 462 42.5)" overflow="visible"/>
	
		<use xlink:href="#op-wide-bg"  width="50.5" height="23" id="XMLID_59_" x="-25.3" y="-11.5" transform="matrix(1.6618 0 0 -1 425.5 107.5)" overflow="visible"/>
	
		<use xlink:href="#op-wide-bg"  width="50.5" height="23" id="XMLID_52_" x="-25.3" y="-11.5" transform="matrix(1.187 0 0 -1 426 238.5)" overflow="visible"/>
	
		<use xlink:href="#array-positive-value"  width="36" height="36" x="-18" y="-18" transform="matrix(1 0 0 -1 354 306)" overflow="visible"/>
	
		<use xlink:href="#array-positive-value"  width="36" height="36" x="-18" y="-18" transform="matrix(1 0 0 -1 390 306)" overflow="visible"/>
	
		<use xlink:href="#array-positive-value"  width="36" height="36" x="-18" y="-18" transform="matrix(1 0 0 -1 426 306)" overflow="visible"/>
	
		<use xlink:href="#array-positive-value"  width="36" height="36" x="-18" y="-18" transform="matrix(1 0 0 -1 462 306)" overflow="visible"/>
	
		<use xlink:href="#array-positive-value"  width="36" height="36" x="-18" y="-18" transform="matrix(1 0 0 -1 498 306)" overflow="visible"/>
	
		<use xlink:href="#array-5"  width="180.5" height="37" x="-126.5" y="-18.5" transform="matrix(1 0 0 -1 462 305.5)" overflow="visible"/>
	
		<use xlink:href="#array-positive-value"  width="36" height="36" x="-18" y="-18" transform="matrix(1 0 0 -1 558 307)" overflow="visible"/>
	
		<use xlink:href="#array-positive-value"  width="36" height="36" x="-18" y="-18" transform="matrix(1 0 0 -1 594 307)" overflow="visible"/>
	
		<use xlink:href="#array-positive-value"  width="36" height="36" x="-18" y="-18" transform="matrix(1 0 0 -1 630 307)" overflow="visible"/>
	
		<use xlink:href="#array-positive-value"  width="36" height="36" x="-18" y="-18" transform="matrix(1 0 0 -1 666 307)" overflow="visible"/>
	
		<use xlink:href="#array-positive-value"  width="36" height="36" x="-18" y="-18" transform="matrix(1 0 0 -1 702 307)" overflow="visible"/>
	
		<use xlink:href="#array-5"  width="180.5" height="37" x="-126.5" y="-18.5" transform="matrix(1 0 0 -1 666 306.5)" overflow="visible"/>
	
		<use xlink:href="#op-wide-bg"  width="50.5" height="23" id="XMLID_50_" x="-25.3" y="-11.5" transform="matrix(1.187 0 0 -1 426 371.5)" overflow="visible"/>
	
		<use xlink:href="#array-positive-value"  width="36" height="36" x="-18" y="-18" transform="matrix(1 0 0 -1 354 437)" overflow="visible"/>
	
		<use xlink:href="#array-positive-value"  width="36" height="36" x="-18" y="-18" transform="matrix(1 0 0 -1 390 437)" overflow="visible"/>
	
		<use xlink:href="#array-positive-value"  width="36" height="36" x="-18" y="-18" transform="matrix(1 0 0 -1 426 437)" overflow="visible"/>
	
		<use xlink:href="#array-positive-value"  width="36" height="36" x="-18" y="-18" transform="matrix(1 0 0 -1 462 437)" overflow="visible"/>
	
		<use xlink:href="#array-positive-value"  width="36" height="36" x="-18" y="-18" transform="matrix(1 0 0 -1 498 437)" overflow="visible"/>
	
		<use xlink:href="#array-5"  width="180.5" height="37" x="-126.5" y="-18.5" transform="matrix(1 0 0 -1 462 437.5)" overflow="visible"/>
	
		<use xlink:href="#op-wide-bg"  width="50.5" height="23" id="XMLID_49_" x="-25.3" y="-11.5" transform="matrix(1.187 0 0 -1 426 502.5)" overflow="visible"/>
	
		<use xlink:href="#array-positive-value"  width="36" height="36" x="-18" y="-18" transform="matrix(1 0 0 -1 353.5 571)" overflow="visible"/>
	
		<use xlink:href="#array-positive-value"  width="36" height="36" x="-18" y="-18" transform="matrix(1 0 0 -1 390 571)" overflow="visible"/>
	
		<use xlink:href="#array-positive-value"  width="36" height="36" x="-18" y="-18" transform="matrix(1 0 0 -1 426 571)" overflow="visible"/>
	
		<use xlink:href="#array-positive-value"  width="36" height="36" x="-18" y="-18" transform="matrix(1 0 0 -1 462 571)" overflow="visible"/>
	
		<use xlink:href="#array-positive-value"  width="36" height="36" x="-18" y="-18" transform="matrix(1 0 0 -1 498 571)" overflow="visible"/>
	
		<use xlink:href="#array-5"  width="180.5" height="37" x="-126.5" y="-18.5" transform="matrix(1 0 0 -1 462 570.5)" overflow="visible"/>
	
		<use xlink:href="#op-wide-bg"  width="50.5" height="23" id="XMLID_48_" x="-25.3" y="-11.5" transform="matrix(1.187 0 0 -1 426 635.5)" overflow="visible"/>
	
		<use xlink:href="#array-positive-value"  width="36" height="36" x="-18" y="-18" transform="matrix(1 0 0 -1 354 701)" overflow="visible"/>
	
		<use xlink:href="#array-positive-value"  width="36" height="36" x="-18" y="-18" transform="matrix(1 0 0 -1 390 701)" overflow="visible"/>
	
		<use xlink:href="#array-positive-value"  width="36" height="36" x="-18" y="-18" transform="matrix(1 0 0 -1 426 701)" overflow="visible"/>
	
		<use xlink:href="#array-positive-value"  width="36" height="36" x="-18" y="-18" transform="matrix(1 0 0 -1 462 701)" overflow="visible"/>
	
		<use xlink:href="#array-positive-value"  width="36" height="36" x="-18" y="-18" transform="matrix(1 0 0 -1 498 701)" overflow="visible"/>
	
		<use xlink:href="#array-5"  width="180.5" height="37" x="-126.5" y="-18.5" transform="matrix(1 0 0 -1 462 701.5)" overflow="visible"/>
	
		<use xlink:href="#array-1"  width="37" height="37" x="-18.5" y="-18.5" transform="matrix(1 0 0 -1 774 102.5)" overflow="visible"/>
	
		<use xlink:href="#array-1"  width="37" height="37" x="-18.5" y="-18.5" transform="matrix(1 0 0 -1 774 378.5)" overflow="visible"/>
	
		<use xlink:href="#array-3"  width="108.5" height="37" id="XMLID_27_" x="-57.8" y="-18.5" transform="matrix(1 0 0 -1 813.25 497.5)" overflow="visible"/>
	<g>
		<rect x="168" y="27" fill="none" width="144" height="159"/>
		<text transform="matrix(1 0 0 1 167.9995 35.6279)"><tspan x="0" y="0" fill="#666666" font-family="'Helvetica'" font-size="12px">First, the controller gives a </tspan><tspan x="0" y="18" fill="#666666" font-family="'Helvetica'" font-size="12px">query vector and each </tspan><tspan x="0" y="36" fill="#666666" font-family="'Helvetica'" font-size="12px">memory entry is scored for </tspan><tspan x="0" y="54" fill="#666666" font-family="'Helvetica'" font-size="12px">similarity with the query.</tspan></text>
	</g>
	<g>
		<rect x="169.5" y="232" fill="none" width="140.6" height="79"/>
		<text transform="matrix(1 0 0 1 169.5 240.6279)"><tspan x="0" y="0" fill="#666666" font-family="'Helvetica'" font-size="12px">The scores are then </tspan><tspan x="0" y="18" fill="#666666" font-family="'Helvetica'" font-size="12px">converted into a </tspan><tspan x="0" y="36" fill="#666666" font-family="'Helvetica'" font-size="12px">distribution using softmax.</tspan></text>
	</g>
	<g>
		<rect x="169.5" y="375" fill="none" width="141.3" height="98"/>
		<text transform="matrix(1 0 0 1 169.5 383.6306)"><tspan x="0" y="0" fill="#666666" font-family="'Helvetica'" font-size="12px">Next, we interpolate the </tspan><tspan x="0" y="18" fill="#666666" font-family="'Helvetica'" font-size="12px">attention from the </tspan><tspan x="0" y="36" fill="#666666" font-family="'Helvetica'" font-size="12px">previous time step. </tspan></text>
	</g>
	<g>
		<rect x="169.5" y="513" fill="none" width="140.6" height="150"/>
		<text transform="matrix(1 0 0 1 169.5 521.6279)"><tspan x="0" y="0" fill="#666666" font-family="'Helvetica'" font-size="12px">We convolve the attention </tspan><tspan x="0" y="18" fill="#666666" font-family="'Helvetica'" font-size="12px">with a shift filter — this </tspan><tspan x="0" y="36" fill="#666666" font-family="'Helvetica'" font-size="12px">allows the controller to </tspan><tspan x="0" y="54" fill="#666666" font-family="'Helvetica'" font-size="12px">move its focus.</tspan></text>
	</g>
	<g>
		<rect x="169.5" y="655" fill="none" width="142" height="125"/>
		<text transform="matrix(1 0 0 1 169.5 663.6279)"><tspan x="0" y="0" fill="#666666" font-family="'Helvetica'" font-size="12px">Finally, we sharpen the </tspan><tspan x="0" y="18" fill="#666666" font-family="'Helvetica'" font-size="12px">attention distribution. This </tspan><tspan x="0" y="36" fill="#666666" font-family="'Helvetica'" font-size="12px">final attention distribution </tspan><tspan x="0" y="54" fill="#666666" font-family="'Helvetica'" font-size="12px">is fed to the read or write </tspan><tspan x="0" y="72" fill="#666666" font-family="'Helvetica'" font-size="12px">operation.</tspan></text>
	</g>
	<g>
		<text transform="matrix(1 0 0 1 405.8155 371.0002)" fill="#FFFFFF" font-family="'Helvetica'" font-size="11px">interpolate</text>
	</g>
	<g>
		<text transform="matrix(1 0 0 1 409.7928 502.0002)" fill="#FFFFFF" font-family="'Helvetica'" font-size="11px">convolve</text>
	</g>
	<g>
		<text transform="matrix(1 0 0 1 399.6238 635.0002)" fill="#FFFFFF" font-family="'Helvetica'" font-size="11px">sharpen</text>
	</g>
	<g>
		<text transform="matrix(1 0 0 1 400.2447 238.0001)" fill="#FFFFFF" font-family="'Helvetica'" font-size="11px">softmax</text>
	</g>
	<g>
		<text transform="matrix(1 0 0 1 403.9816 107.0001)" fill="#FFFFFF" font-family="'Helvetica'" font-size="11px">dot product</text>
	</g>
</g>
<g id="text">
	<g>
		<text transform="matrix(1 0 0 1 431.5 12.0001)" fill="#666666" font-family="'Helvetica'" font-size="12px">memory</text>
	</g>
	<g>
		<rect x="527.5" y="158.5" fill="none" width="172.7" height="51.5"/>
		<text transform="matrix(1 0 0 1 527.5 168.7948)"><tspan x="0" y="0" fill="#666666" font-family="'Helvetica'" font-size="12px">Blue shows high similarity, pink </tspan><tspan x="0" y="18" fill="#666666" font-family="'Helvetica'" font-size="12px">high dissimilarity.</tspan></text>
	</g>
	<g>
		<text transform="matrix(1 0 0 1 755.5 348.0001)" fill="#666666" font-family="'Helvetica'" font-size="12px">interpolation amount</text>
	</g>
	<g>
		<text transform="matrix(1 0 0 1 755.5001 468.0002)" fill="#666666" font-family="'Helvetica'" font-size="12px">shift filter</text>
	</g>
	<g>
		<text transform="matrix(1 0 0 1 755.5 12.0001)" fill="#666666" font-family="'Helvetica'" font-size="12px">RNN controller</text>
	</g>
	<g>
		<text transform="matrix(1 0 0 1 620.7754 12.0001)" fill="#666666" font-family="'Helvetica'" font-size="12px">attention mechanism</text>
	</g>
	<g>
		<text transform="matrix(1 0 0 1 755.5 72.0001)" fill="#666666" font-family="'Helvetica'" font-size="12px">query vector</text>
	</g>
	<g>
		<text transform="matrix(1 0 0 1 635.4998 275.9999)" fill="#666666" font-family="'Helvetica'" font-size="12px">attention from previous step</text>
	</g>
	<g>
		<text transform="matrix(1 0 0 1 364.2832 744.0002)" font-family="'Helvetica-Bold'" font-size="11px">new attention distribution</text>
	</g>
	<g>
		<rect x="529" y="420" fill="none" width="142.5" height="54.6"/>
		<text transform="matrix(1 0 0 1 529 430.3037)"><tspan x="0" y="0" fill="#666666" font-family="'Helvetica'" font-size="12px">Strong values from previ</tspan><tspan x="130.1" y="0" fill="#666666" font-family="'Helvetica'" font-size="12px">-</tspan><tspan x="0" y="18" fill="#666666" font-family="'Helvetica'" font-size="12px">ous attention show up </tspan><tspan x="0" y="36" fill="#666666" font-family="'Helvetica'" font-size="12px">faintly</tspan></text>
	</g>
</g>
<g id="images">
</g>
</svg>
