<svg id="background" xmlns="http://www.w3.org/2000/svg" xmlns:xlink="http://www.w3.org/1999/xlink" width="984" height="330" viewBox="0 0 984 330">
  <defs>
    <symbol id="array-small" data-name="array-small" viewBox="0 0 181.58 31.16">
      <g>
        <rect x="0.5" y="0.5" width="180.58" height="30.16" rx="6" ry="6" fill="#fff" stroke="#8c8c8c" stroke-miterlimit="10"/>
        <line x1="30.45" y1="30.66" x2="30.45" y2="0.5" fill="none" stroke="#8c8c8c" stroke-miterlimit="10"/>
        <line x1="60.61" y1="30.66" x2="60.61" y2="0.5" fill="none" stroke="#8c8c8c" stroke-miterlimit="10"/>
        <line x1="90.78" y1="30.66" x2="90.78" y2="0.5" fill="none" stroke="#8c8c8c" stroke-miterlimit="10"/>
        <line x1="120.94" y1="30.66" x2="120.94" y2="0.5" fill="none" stroke="#8c8c8c" stroke-miterlimit="10"/>
        <line x1="151.08" y1="30.66" x2="151.08" y2="0.5" fill="none" stroke="#8c8c8c" stroke-miterlimit="10"/>
      </g>
    </symbol>
    <symbol id="rnn-bg" data-name="rnn-bg" viewBox="0 0 49.5 49.5">
      <rect x="0.75" y="0.75" width="48" height="48" rx="6" ry="6" fill="#fff" stroke="#666" stroke-width="1.5"/>
    </symbol>
    <symbol id="rnn-a" data-name="rnn-a" viewBox="0 0 49.5 49.5">
      <use id="rnn-bg-3" data-name="rnn-bg" width="49.5" height="49.5" xlink:href="#rnn-bg"/>
      <path d="M29.77,31.75l-1.93-4.94H21.6l-1.91,4.94H17.86L24,16.14h1.52l6.11,15.61H29.77Zm-2.5-6.57-1.81-4.82q-0.35-.91-0.72-2.24a20.34,20.34,0,0,1-.67,2.24l-1.83,4.82h5Z" fill="#666"/>
    </symbol>
    <symbol id="op-read" data-name="op-read" viewBox="0 0 49.54 25.5">
      <g id="_Group_4" data-name="&lt;Group&gt;">
        <g>
          <path d="M48.83,12.75a12,12,0,0,1-12,12H12.71a12,12,0,1,1,0-24H36.83a12,12,0,0,1,12,12h0Z" fill="#fff"/>
          <path d="M49.54,13.5a12,12,0,0,1-12,12H12a12,12,0,0,1-12-12V12A12,12,0,0,1,12,0H37.54a12,12,0,0,1,12,12v1.5ZM1.43,12.75c0,6.19,5.4,11.25,12,11.25H36.12c6.6,0,12-5.06,12-11.25S42.72,1.5,36.12,1.5H13.43C6.83,1.5,1.43,6.56,1.43,12.75Z" fill="#666"/>
        </g>
      </g>
      <g>
        <path d="M16.25,9.67a3.31,3.31,0,0,1,.69.06L16.8,11a2.6,2.6,0,0,0-.61-0.07,1.76,1.76,0,0,0-1.34.54,2,2,0,0,0-.51,1.4v3.39H13V9.79H14l0.18,1.14h0.07A2.57,2.57,0,0,1,15.13,10,2,2,0,0,1,16.25,9.67Z" fill="#666"/>
        <path d="M21,16.38a3.13,3.13,0,0,1-2.36-.88,3.35,3.35,0,0,1-.85-2.43,3.67,3.67,0,0,1,.79-2.5,2.73,2.73,0,0,1,2.17-.91,2.67,2.67,0,0,1,2,.78,3,3,0,0,1,.74,2.14v0.74H19.16a2.13,2.13,0,0,0,.51,1.45,1.78,1.78,0,0,0,1.35.51,5,5,0,0,0,1.07-.11,5.61,5.61,0,0,0,1.06-.36v1.12a4.23,4.23,0,0,1-1,.34A6.25,6.25,0,0,1,21,16.38Zm-0.25-5.67a1.38,1.38,0,0,0-1.05.42,2,2,0,0,0-.47,1.21h2.94a1.79,1.79,0,0,0-.39-1.22A1.32,1.32,0,0,0,20.71,10.71Z" fill="#666"/>
        <path d="M29.1,16.27l-0.28-.9h0a2.65,2.65,0,0,1-.94.81,3,3,0,0,1-1.22.21,2.06,2.06,0,0,1-1.49-.52,1.93,1.93,0,0,1-.54-1.46,1.71,1.71,0,0,1,.74-1.51,4.29,4.29,0,0,1,2.27-.56l1.12,0V12A1.31,1.31,0,0,0,28.43,11a1.18,1.18,0,0,0-.9-0.31,3.11,3.11,0,0,0-1,.15,7.21,7.21,0,0,0-.88.35l-0.45-1a4.79,4.79,0,0,1,1.15-.42,5.31,5.31,0,0,1,1.18-.14,2.8,2.8,0,0,1,1.87.54,2.11,2.11,0,0,1,.63,1.69v4.37h-1Zm-2.05-.94a1.71,1.71,0,0,0,1.2-.42,1.52,1.52,0,0,0,.45-1.17V13.17l-0.83,0a2.85,2.85,0,0,0-1.42.33,1,1,0,0,0-.44.89,0.87,0.87,0,0,0,.26.67A1.11,1.11,0,0,0,27.05,15.33Z" fill="#666"/>
        <path d="M34.19,16.38a2.26,2.26,0,0,1-1.89-.88A4,4,0,0,1,31.62,13a4,4,0,0,1,.69-2.48,2.28,2.28,0,0,1,1.91-.89,2.23,2.23,0,0,1,1.95.94h0.07a8.25,8.25,0,0,1-.1-1.1V7.15h1.38v9.12H36.44l-0.24-.85H36.13A2.2,2.2,0,0,1,34.19,16.38Zm0.37-1.11a1.5,1.5,0,0,0,1.24-.48,2.51,2.51,0,0,0,.4-1.55V13a2.9,2.9,0,0,0-.4-1.74,1.48,1.48,0,0,0-1.25-.52,1.27,1.27,0,0,0-1.12.59A3,3,0,0,0,33,13.06a2.94,2.94,0,0,0,.38,1.64A1.29,1.29,0,0,0,34.56,15.27Z" fill="#666"/>
      </g>
    </symbol>
    <symbol id="op-write" data-name="op-write" viewBox="0 0 49.54 25.5">
      <g id="_Group_6" data-name="&lt;Group&gt;">
        <g>
          <path d="M48.83,12.75a12,12,0,0,1-12,12H12.71a12,12,0,1,1,0-24H36.83a12,12,0,0,1,12,12h0Z" fill="#fff"/>
          <path d="M49.54,13.5a12,12,0,0,1-12,12H12a12,12,0,0,1-12-12V12A12,12,0,0,1,12,0H37.54a12,12,0,0,1,12,12v1.5ZM1.43,12.75c0,6.19,5.4,11.25,12,11.25H36.12c6.6,0,12-5.06,12-11.25S42.72,1.5,36.12,1.5H13.43C6.83,1.5,1.43,6.56,1.43,12.75Z" fill="#666"/>
        </g>
      </g>
      <g>
        <path d="M16.74,16.25l-0.84-3q-0.15-.48-0.55-2.23H15.3q-0.34,1.58-.54,2.24l-0.86,3H12.37L10.56,9.77H12L12.79,13q0.28,1.18.4,2h0q0.06-.43.18-1t0.21-.83l1-3.41h1.51l1,3.41q0.09,0.29.22,0.88a6.76,6.76,0,0,1,.16.92h0a18,18,0,0,1,.41-2l0.84-3.19h1.38l-1.83,6.48H16.74Z" fill="#666"/>
        <path d="M24.51,9.65a3.31,3.31,0,0,1,.69.06L25.06,11a2.6,2.6,0,0,0-.61-0.07,1.76,1.76,0,0,0-1.34.54,2,2,0,0,0-.51,1.4v3.39H21.23V9.77H22.3l0.18,1.14h0.07A2.57,2.57,0,0,1,23.4,10,2,2,0,0,1,24.51,9.65Z" fill="#666"/>
        <path d="M26.32,8.05a0.76,0.76,0,0,1,.2-0.57,0.79,0.79,0,0,1,.58-0.2,0.77,0.77,0,0,1,.57.2,0.76,0.76,0,0,1,.2.57,0.75,0.75,0,0,1-.2.55,0.76,0.76,0,0,1-.57.2,0.78,0.78,0,0,1-.58-0.2A0.75,0.75,0,0,1,26.32,8.05Zm1.46,8.2H26.4V9.77h1.38v6.48Z" fill="#666"/>
        <path d="M32.16,15.25a3.35,3.35,0,0,0,1-.16v1a2.78,2.78,0,0,1-.59.17,4.06,4.06,0,0,1-.75.07,1.78,1.78,0,0,1-2-2.06V10.81H29V10.2l0.95-.5,0.47-1.37h0.85V9.77H33.1v1H31.26v3.47a1,1,0,0,0,.25.74A0.91,0.91,0,0,0,32.16,15.25Z" fill="#666"/>
        <path d="M37.29,16.37a3.13,3.13,0,0,1-2.36-.88,3.35,3.35,0,0,1-.85-2.43,3.67,3.67,0,0,1,.79-2.5A2.73,2.73,0,0,1,37,9.65a2.67,2.67,0,0,1,2,.78,3,3,0,0,1,.74,2.14v0.74H35.49A2.13,2.13,0,0,0,36,14.77a1.78,1.78,0,0,0,1.35.51,5,5,0,0,0,1.07-.11,5.61,5.61,0,0,0,1.06-.36v1.12a4.23,4.23,0,0,1-1,.34A6.25,6.25,0,0,1,37.29,16.37ZM37,10.7a1.38,1.38,0,0,0-1.05.42,2,2,0,0,0-.47,1.21h2.94a1.79,1.79,0,0,0-.39-1.22A1.32,1.32,0,0,0,37,10.7Z" fill="#666"/>
      </g>
    </symbol>
    <symbol id="array-vector" data-name="array-vector" viewBox="0 0 36 36">
      <rect width="36" height="36" fill="#0080f7" opacity="0"/>
      <g>
        <line x1="18" y1="24" x2="18" y2="13.08" fill="none" stroke="#8c8c8c" stroke-miterlimit="10"/>
        <polygon points="22.09 16.4 21.36 17.08 18 13.47 14.64 17.08 13.91 16.4 18 12 22.09 16.4" fill="#8c8c8c"/>
      </g>
    </symbol>
  </defs>
  <title>rnn</title>
  <g id="_Group_" data-name="&lt;Group&gt;">
    <rect x="168" y="30" width="780" height="54" rx="10" ry="10" opacity="0.04"/>
    <g opacity="0.1">
      <rect x="168" y="30" width="780" height="54" rx="10" ry="10" fill="none" stroke="#231f20"/>
    </g>
  </g>
  <g id="_Group_2" data-name="&lt;Group&gt;">
    <rect x="234" y="204" width="648" height="72" rx="10" ry="10" opacity="0.04"/>
    <g opacity="0.1">
      <rect x="234" y="204" width="648" height="72" rx="10" ry="10" fill="none" stroke="#231f20"/>
    </g>
  </g>
  <use id="array-small-3" data-name="array-small" width="181.58" height="31.16" transform="translate(178.92 40.92)" xlink:href="#array-small"/>
  <use width="181.58" height="31.16" transform="translate(372 40.92)" xlink:href="#array-small"/>
  <use width="181.58" height="31.16" transform="translate(564 40.92)" xlink:href="#array-small"/>
  <use width="181.58" height="31.16" transform="translate(756 40.92)" xlink:href="#array-small"/>
  <g>
    <g opacity="0.1">
      <rect x="823.64" y="218" width="48" height="48" rx="6" ry="6" stroke="#000" stroke-width="1.5"/>
      <path d="M852.66,249l-1.93-4.94h-6.23L842.58,249h-1.83l6.14-15.61h1.52L854.53,249h-1.87Zm-2.5-6.57-1.81-4.82q-0.35-.91-0.72-2.24a20.34,20.34,0,0,1-.67,2.24l-1.83,4.82h5Z"/>
    </g>
    <use width="49.5" height="49.5" transform="translate(821.89 215.25)" xlink:href="#rnn-a"/>
  </g>
  <g>
    <path d="M288,84l29.83,29c3.94,3.84,11.67,7,17.17,7h40.89c5.5,0,13.1-3.26,16.89-7.24l26.47-27.82" fill="none" stroke="#666" stroke-miterlimit="10" stroke-width="1.5"/>
    <path d="M423,81a27.2,27.2,0,0,0-2.2,8.52l-2-4.07-4.17-1.83A27.17,27.17,0,0,0,423,81Z" fill="#666"/>
  </g>
  <g>
    <path d="M438,84l-34.93,34.93C399.18,122.82,396,130.5,396,136v46c0,5.5,3.18,13.18,7.07,17.07l25.09,25.09" fill="none" stroke="#666" stroke-miterlimit="10" stroke-width="1.5"/>
    <path d="M432,228a27.2,27.2,0,0,0-8.47-2.41l4.12-1.93,1.93-4.12A27.18,27.18,0,0,0,432,228Z" fill="#666"/>
  </g>
  <g id="_Group_3" data-name="&lt;Group&gt;">
    <g opacity="0.1">
      <path d="M427.83,157.5a12,12,0,0,1-12,12H391.71a12,12,0,0,1,0-24h24.12a12,12,0,0,1,12,12h0Z"/>
      <path d="M428.54,158.25a12,12,0,0,1-12,12H391a12,12,0,0,1-12-12v-1.5a12,12,0,0,1,12-12h25.54a12,12,0,0,1,12,12v1.5Zm-48.12-.75c0,6.19,5.4,11.25,12,11.25h22.69c6.6,0,12-5.06,12-11.25s-5.4-11.25-12-11.25H392.43C385.83,146.25,380.43,151.31,380.43,157.5Z"/>
      <path d="M395.25,154.42a3.31,3.31,0,0,1,.69.06l-0.13,1.28a2.6,2.6,0,0,0-.61-0.07,1.76,1.76,0,0,0-1.34.54,2,2,0,0,0-.51,1.4V161H392v-6.48H393l0.18,1.14h0.07a2.57,2.57,0,0,1,.84-0.92A2,2,0,0,1,395.25,154.42Z"/>
      <path d="M400,161.13a3.13,3.13,0,0,1-2.36-.88,3.35,3.35,0,0,1-.85-2.43,3.67,3.67,0,0,1,.79-2.5,2.73,2.73,0,0,1,2.17-.91,2.67,2.67,0,0,1,2,.78,3,3,0,0,1,.74,2.14v0.74h-4.32a2.13,2.13,0,0,0,.51,1.45A1.78,1.78,0,0,0,400,160a5,5,0,0,0,1.07-.11,5.61,5.61,0,0,0,1.06-.36v1.12a4.23,4.23,0,0,1-1,.34A6.25,6.25,0,0,1,400,161.13Zm-0.25-5.67a1.38,1.38,0,0,0-1.05.42,2,2,0,0,0-.47,1.21h2.94a1.79,1.79,0,0,0-.39-1.22A1.32,1.32,0,0,0,399.71,155.46Z"/>
      <path d="M408.1,161l-0.28-.9h0a2.65,2.65,0,0,1-.94.81,3,3,0,0,1-1.22.21,2.06,2.06,0,0,1-1.49-.52,1.93,1.93,0,0,1-.54-1.46,1.71,1.71,0,0,1,.74-1.51,4.29,4.29,0,0,1,2.27-.56l1.12,0v-0.35a1.31,1.31,0,0,0-.29-0.93,1.18,1.18,0,0,0-.9-0.31,3.11,3.11,0,0,0-1,.15,7.21,7.21,0,0,0-.88.35l-0.45-1a4.79,4.79,0,0,1,1.15-.42,5.31,5.31,0,0,1,1.18-.14,2.8,2.8,0,0,1,1.87.54,2.11,2.11,0,0,1,.63,1.69V161h-1Zm-2.05-.94a1.71,1.71,0,0,0,1.2-.42,1.52,1.52,0,0,0,.45-1.17v-0.56l-0.83,0a2.85,2.85,0,0,0-1.42.33,1,1,0,0,0-.44.89,0.87,0.87,0,0,0,.26.67A1.11,1.11,0,0,0,406.05,160.08Z"/>
      <path d="M413.19,161.13a2.26,2.26,0,0,1-1.89-.88,4.82,4.82,0,0,1,0-4.95,2.28,2.28,0,0,1,1.91-.89,2.23,2.23,0,0,1,1.95.94h0.07a8.25,8.25,0,0,1-.1-1.1V151.9h1.38V161h-1.08l-0.24-.85h-0.06A2.2,2.2,0,0,1,413.19,161.13Zm0.37-1.11a1.5,1.5,0,0,0,1.24-.48,2.51,2.51,0,0,0,.4-1.55V157.8a2.9,2.9,0,0,0-.4-1.74,1.48,1.48,0,0,0-1.25-.52,1.27,1.27,0,0,0-1.12.59,3,3,0,0,0-.39,1.68,2.94,2.94,0,0,0,.38,1.64A1.29,1.29,0,0,0,413.56,160Z"/>
    </g>
    <use width="49.54" height="25.5" transform="translate(378 142.75)" xlink:href="#op-read"/>
  </g>
  <g id="_Group_5" data-name="&lt;Group&gt;">
    <g opacity="0.1">
      <path d="M384.29,122.5a12,12,0,0,1-12,12H348.17a12,12,0,0,1,0-24h24.12a12,12,0,0,1,12,12h0Z"/>
      <path d="M385,123.25a12,12,0,0,1-12,12H347.46a12,12,0,0,1-12-12v-1.5a12,12,0,0,1,12-12H373a12,12,0,0,1,12,12v1.5Zm-48.12-.75c0,6.19,5.4,11.25,12,11.25h22.69c6.6,0,12-5.06,12-11.25s-5.4-11.25-12-11.25H348.88C342.28,111.25,336.88,116.31,336.88,122.5Z"/>
      <path d="M352.19,126l-0.84-3q-0.15-.48-0.55-2.23h-0.05q-0.34,1.58-.54,2.24l-0.86,3h-1.52L346,119.52h1.41l0.83,3.19q0.28,1.18.4,2h0q0.06-.43.18-1t0.21-.83l1-3.41h1.51l1,3.41q0.09,0.29.22,0.88a6.76,6.76,0,0,1,.16.92h0a18,18,0,0,1,.41-2l0.84-3.19h1.38L353.74,126h-1.55Z"/>
      <path d="M360,119.4a3.31,3.31,0,0,1,.69.06l-0.13,1.28a2.6,2.6,0,0,0-.61-0.07,1.76,1.76,0,0,0-1.34.54,2,2,0,0,0-.51,1.4V126h-1.38v-6.48h1.08l0.18,1.14H358a2.57,2.57,0,0,1,.84-0.92A2,2,0,0,1,360,119.4Z"/>
      <path d="M361.77,117.8a0.76,0.76,0,0,1,.2-0.57,0.79,0.79,0,0,1,.58-0.2,0.77,0.77,0,0,1,.57.2,0.76,0.76,0,0,1,.2.57,0.75,0.75,0,0,1-.2.55,0.76,0.76,0,0,1-.57.2,0.78,0.78,0,0,1-.58-0.2A0.75,0.75,0,0,1,361.77,117.8Zm1.46,8.2h-1.38v-6.48h1.38V126Z"/>
      <path d="M367.62,125a3.35,3.35,0,0,0,1-.16v1a2.78,2.78,0,0,1-.59.17,4.06,4.06,0,0,1-.75.07,1.78,1.78,0,0,1-2-2.06v-3.49h-0.88V120l0.95-.5,0.47-1.37h0.85v1.44h1.85v1h-1.85V124a1,1,0,0,0,.25.74A0.91,0.91,0,0,0,367.62,125Z"/>
      <path d="M372.75,126.12a3.13,3.13,0,0,1-2.36-.88,3.35,3.35,0,0,1-.85-2.43,3.67,3.67,0,0,1,.79-2.5,2.73,2.73,0,0,1,2.17-.91,2.67,2.67,0,0,1,2,.78,3,3,0,0,1,.74,2.14v0.74h-4.32a2.13,2.13,0,0,0,.51,1.45,1.78,1.78,0,0,0,1.35.51,5,5,0,0,0,1.07-.11,5.61,5.61,0,0,0,1.06-.36v1.12a4.23,4.23,0,0,1-1,.34A6.25,6.25,0,0,1,372.75,126.12Zm-0.25-5.67a1.38,1.38,0,0,0-1.05.42,2,2,0,0,0-.47,1.21h2.94a1.79,1.79,0,0,0-.39-1.22A1.32,1.32,0,0,0,372.5,120.45Z"/>
    </g>
    <use width="49.54" height="25.5" transform="translate(334.46 107.75)" xlink:href="#op-write"/>
  </g>
  <g opacity="0.4">
    <g>
      <path d="M288,216l64.93-64.93c3.45-3.45,6.35-7.94,7-10.64" fill="none" stroke="#666" stroke-miterlimit="10" stroke-width="1.5"/>
      <path d="M360,135a27.2,27.2,0,0,0,3.93,7.88l-4.21-1.74-4.34,1.36A27.18,27.18,0,0,0,360,135Z" fill="#666"/>
    </g>
  </g>
  <g>
    <path d="M480,84l29.83,29c3.94,3.84,11.67,7,17.17,7h40.89c5.5,0,13.1-3.26,16.89-7.24l26.47-27.82" fill="none" stroke="#666" stroke-miterlimit="10" stroke-width="1.5"/>
    <path d="M615,81a27.2,27.2,0,0,0-2.2,8.52l-2-4.07-4.17-1.83A27.17,27.17,0,0,0,615,81Z" fill="#666"/>
  </g>
  <g>
    <path d="M630,84l-34,34.84c-3.84,3.94-7,11.66-7,17.16v46c0,5.5,3.14,13.23,7,17.17l24.24,24.94" fill="none" stroke="#666" stroke-miterlimit="10" stroke-width="1.5"/>
    <path d="M624,228a27.2,27.2,0,0,0-8.43-2.53l4.15-1.87,2-4.09A27.18,27.18,0,0,0,624,228Z" fill="#666"/>
  </g>
  <g id="_Group_7" data-name="&lt;Group&gt;">
    <g opacity="0.1">
      <path d="M619.83,157.5a12,12,0,0,1-12,12H583.71a12,12,0,0,1,0-24h24.12a12,12,0,0,1,12,12h0Z"/>
      <path d="M620.54,158.25a12,12,0,0,1-12,12H583a12,12,0,0,1-12-12v-1.5a12,12,0,0,1,12-12h25.54a12,12,0,0,1,12,12v1.5Zm-48.12-.75c0,6.19,5.4,11.25,12,11.25h22.69c6.6,0,12-5.06,12-11.25s-5.4-11.25-12-11.25H584.43C577.83,146.25,572.43,151.31,572.43,157.5Z"/>
      <path d="M587.25,154.42a3.31,3.31,0,0,1,.69.06l-0.13,1.28a2.6,2.6,0,0,0-.61-0.07,1.76,1.76,0,0,0-1.34.54,2,2,0,0,0-.51,1.4V161H584v-6.48H585l0.18,1.14h0.07a2.57,2.57,0,0,1,.84-0.92A2,2,0,0,1,587.25,154.42Z"/>
      <path d="M592,161.13a3.13,3.13,0,0,1-2.36-.88,3.35,3.35,0,0,1-.85-2.43,3.67,3.67,0,0,1,.79-2.5,2.73,2.73,0,0,1,2.17-.91,2.67,2.67,0,0,1,2,.78,3,3,0,0,1,.74,2.14v0.74h-4.32a2.13,2.13,0,0,0,.51,1.45A1.78,1.78,0,0,0,592,160a5,5,0,0,0,1.07-.11,5.61,5.61,0,0,0,1.06-.36v1.12a4.23,4.23,0,0,1-1,.34A6.25,6.25,0,0,1,592,161.13Zm-0.25-5.67a1.38,1.38,0,0,0-1.05.42,2,2,0,0,0-.47,1.21h2.94a1.79,1.79,0,0,0-.39-1.22A1.32,1.32,0,0,0,591.71,155.46Z"/>
      <path d="M600.1,161l-0.28-.9h0a2.65,2.65,0,0,1-.94.81,3,3,0,0,1-1.22.21,2.06,2.06,0,0,1-1.49-.52,1.93,1.93,0,0,1-.54-1.46,1.71,1.71,0,0,1,.74-1.51,4.29,4.29,0,0,1,2.27-.56l1.12,0v-0.35a1.31,1.31,0,0,0-.29-0.93,1.18,1.18,0,0,0-.9-0.31,3.11,3.11,0,0,0-1,.15,7.21,7.21,0,0,0-.88.35l-0.45-1a4.79,4.79,0,0,1,1.15-.42,5.31,5.31,0,0,1,1.18-.14,2.8,2.8,0,0,1,1.87.54,2.11,2.11,0,0,1,.63,1.69V161h-1Zm-2.05-.94a1.71,1.71,0,0,0,1.2-.42,1.52,1.52,0,0,0,.45-1.17v-0.56l-0.83,0a2.85,2.85,0,0,0-1.42.33,1,1,0,0,0-.44.89,0.87,0.87,0,0,0,.26.67A1.11,1.11,0,0,0,598.05,160.08Z"/>
      <path d="M605.19,161.13a2.26,2.26,0,0,1-1.89-.88,4.82,4.82,0,0,1,0-4.95,2.28,2.28,0,0,1,1.91-.89,2.23,2.23,0,0,1,1.95.94h0.07a8.25,8.25,0,0,1-.1-1.1V151.9h1.38V161h-1.08l-0.24-.85h-0.06A2.2,2.2,0,0,1,605.19,161.13Zm0.37-1.11a1.5,1.5,0,0,0,1.24-.48,2.51,2.51,0,0,0,.4-1.55V157.8a2.9,2.9,0,0,0-.4-1.74,1.48,1.48,0,0,0-1.25-.52,1.27,1.27,0,0,0-1.12.59,3,3,0,0,0-.39,1.68,2.94,2.94,0,0,0,.38,1.64A1.29,1.29,0,0,0,605.56,160Z"/>
    </g>
    <use width="49.54" height="25.5" transform="translate(570 142.75)" xlink:href="#op-read"/>
  </g>
  <g id="_Group_9" data-name="&lt;Group&gt;">
    <g opacity="0.1">
      <path d="M576.29,122.5a12,12,0,0,1-12,12H540.17a12,12,0,0,1,0-24h24.12a12,12,0,0,1,12,12h0Z"/>
      <path d="M577,123.25a12,12,0,0,1-12,12H539.46a12,12,0,0,1-12-12v-1.5a12,12,0,0,1,12-12H565a12,12,0,0,1,12,12v1.5Zm-48.12-.75c0,6.19,5.4,11.25,12,11.25h22.69c6.6,0,12-5.06,12-11.25s-5.4-11.25-12-11.25H540.88C534.28,111.25,528.88,116.31,528.88,122.5Z"/>
      <path d="M544.19,126l-0.84-3q-0.15-.48-0.55-2.23h-0.05q-0.34,1.58-.54,2.24l-0.86,3h-1.52L538,119.52h1.41l0.83,3.19q0.28,1.18.4,2h0q0.06-.43.18-1t0.21-.83l1-3.41h1.51l1,3.41q0.09,0.29.22,0.88a6.76,6.76,0,0,1,.16.92h0a18,18,0,0,1,.41-2l0.84-3.19h1.38L545.74,126h-1.55Z"/>
      <path d="M552,119.4a3.31,3.31,0,0,1,.69.06l-0.13,1.28a2.6,2.6,0,0,0-.61-0.07,1.76,1.76,0,0,0-1.34.54,2,2,0,0,0-.51,1.4V126h-1.38v-6.48h1.08l0.18,1.14H550a2.57,2.57,0,0,1,.84-0.92A2,2,0,0,1,552,119.4Z"/>
      <path d="M553.77,117.8a0.76,0.76,0,0,1,.2-0.57,0.79,0.79,0,0,1,.58-0.2,0.77,0.77,0,0,1,.57.2,0.76,0.76,0,0,1,.2.57,0.75,0.75,0,0,1-.2.55,0.76,0.76,0,0,1-.57.2,0.78,0.78,0,0,1-.58-0.2A0.75,0.75,0,0,1,553.77,117.8Zm1.46,8.2h-1.38v-6.48h1.38V126Z"/>
      <path d="M559.62,125a3.35,3.35,0,0,0,1-.16v1a2.78,2.78,0,0,1-.59.17,4.06,4.06,0,0,1-.75.07,1.78,1.78,0,0,1-2-2.06v-3.49h-0.88V120l0.95-.5,0.47-1.37h0.85v1.44h1.85v1h-1.85V124a1,1,0,0,0,.25.74A0.91,0.91,0,0,0,559.62,125Z"/>
      <path d="M564.75,126.12a3.13,3.13,0,0,1-2.36-.88,3.35,3.35,0,0,1-.85-2.43,3.67,3.67,0,0,1,.79-2.5,2.73,2.73,0,0,1,2.17-.91,2.67,2.67,0,0,1,2,.78,3,3,0,0,1,.74,2.14v0.74h-4.32a2.13,2.13,0,0,0,.51,1.45,1.78,1.78,0,0,0,1.35.51,5,5,0,0,0,1.07-.11,5.61,5.61,0,0,0,1.06-.36v1.12a4.23,4.23,0,0,1-1,.34A6.25,6.25,0,0,1,564.75,126.12Zm-0.25-5.67a1.38,1.38,0,0,0-1.05.42,2,2,0,0,0-.47,1.21h2.94a1.79,1.79,0,0,0-.39-1.22A1.32,1.32,0,0,0,564.5,120.45Z"/>
    </g>
    <use width="49.54" height="25.5" transform="translate(526.46 107.75)" xlink:href="#op-write"/>
  </g>
  <g opacity="0.4">
    <g>
      <path d="M480,216l64.93-64.93c3.7-3.7,6.75-8.78,7-11.64" fill="none" stroke="#666" stroke-miterlimit="10" stroke-width="1.5"/>
      <path d="M552,134a27.2,27.2,0,0,0,4.13,7.77l-4.25-1.63-4.31,1.46A27.18,27.18,0,0,0,552,134Z" fill="#666"/>
    </g>
  </g>
  <g>
    <path d="M672,84l29.83,29c3.94,3.84,11.67,7,17.17,7h40.89c5.5,0,13.1-3.26,16.89-7.24l26.47-27.82" fill="none" stroke="#666" stroke-miterlimit="10" stroke-width="1.5"/>
    <path d="M807,81a27.2,27.2,0,0,0-2.2,8.52l-2-4.07-4.17-1.83A27.17,27.17,0,0,0,807,81Z" fill="#666"/>
  </g>
  <g>
    <path d="M822,84l-34.93,34.93C783.18,122.82,780,130.5,780,136v46c0,5.5,3.18,13.18,7.07,17.07l25.09,25.09" fill="none" stroke="#666" stroke-miterlimit="10" stroke-width="1.5"/>
    <path d="M816,228a27.2,27.2,0,0,0-8.47-2.41l4.12-1.93,1.93-4.12A27.18,27.18,0,0,0,816,228Z" fill="#666"/>
  </g>
  <g id="_Group_11" data-name="&lt;Group&gt;">
    <g opacity="0.1">
      <path d="M811.83,157.5a12,12,0,0,1-12,12H775.71a12,12,0,0,1,0-24h24.12a12,12,0,0,1,12,12h0Z"/>
      <path d="M812.54,158.25a12,12,0,0,1-12,12H775a12,12,0,0,1-12-12v-1.5a12,12,0,0,1,12-12h25.54a12,12,0,0,1,12,12v1.5Zm-48.12-.75c0,6.19,5.4,11.25,12,11.25h22.69c6.6,0,12-5.06,12-11.25s-5.4-11.25-12-11.25H776.43C769.83,146.25,764.43,151.31,764.43,157.5Z"/>
      <path d="M779.25,154.42a3.31,3.31,0,0,1,.69.06l-0.13,1.28a2.6,2.6,0,0,0-.61-0.07,1.76,1.76,0,0,0-1.34.54,2,2,0,0,0-.51,1.4V161H776v-6.48H777l0.18,1.14h0.07a2.57,2.57,0,0,1,.84-0.92A2,2,0,0,1,779.25,154.42Z"/>
      <path d="M784,161.13a3.13,3.13,0,0,1-2.36-.88,3.35,3.35,0,0,1-.85-2.43,3.67,3.67,0,0,1,.79-2.5,2.73,2.73,0,0,1,2.17-.91,2.67,2.67,0,0,1,2,.78,3,3,0,0,1,.74,2.14v0.74h-4.32a2.13,2.13,0,0,0,.51,1.45A1.78,1.78,0,0,0,784,160a5,5,0,0,0,1.07-.11,5.61,5.61,0,0,0,1.06-.36v1.12a4.23,4.23,0,0,1-1,.34A6.25,6.25,0,0,1,784,161.13Zm-0.25-5.67a1.38,1.38,0,0,0-1.05.42,2,2,0,0,0-.47,1.21h2.94a1.79,1.79,0,0,0-.39-1.22A1.32,1.32,0,0,0,783.71,155.46Z"/>
      <path d="M792.1,161l-0.28-.9h0a2.65,2.65,0,0,1-.94.81,3,3,0,0,1-1.22.21,2.06,2.06,0,0,1-1.49-.52,1.93,1.93,0,0,1-.54-1.46,1.71,1.71,0,0,1,.74-1.51,4.29,4.29,0,0,1,2.27-.56l1.12,0v-0.35a1.31,1.31,0,0,0-.29-0.93,1.18,1.18,0,0,0-.9-0.31,3.11,3.11,0,0,0-1,.15,7.21,7.21,0,0,0-.88.35l-0.45-1a4.79,4.79,0,0,1,1.15-.42,5.31,5.31,0,0,1,1.18-.14,2.8,2.8,0,0,1,1.87.54,2.11,2.11,0,0,1,.63,1.69V161h-1Zm-2.05-.94a1.71,1.71,0,0,0,1.2-.42,1.52,1.52,0,0,0,.45-1.17v-0.56l-0.83,0a2.85,2.85,0,0,0-1.42.33,1,1,0,0,0-.44.89,0.87,0.87,0,0,0,.26.67A1.11,1.11,0,0,0,790.05,160.08Z"/>
      <path d="M797.19,161.13a2.26,2.26,0,0,1-1.89-.88,4.82,4.82,0,0,1,0-4.95,2.28,2.28,0,0,1,1.91-.89,2.23,2.23,0,0,1,1.95.94h0.07a8.25,8.25,0,0,1-.1-1.1V151.9h1.38V161h-1.08l-0.24-.85h-0.06A2.2,2.2,0,0,1,797.19,161.13Zm0.37-1.11a1.5,1.5,0,0,0,1.24-.48,2.51,2.51,0,0,0,.4-1.55V157.8a2.9,2.9,0,0,0-.4-1.74,1.48,1.48,0,0,0-1.25-.52,1.27,1.27,0,0,0-1.12.59,3,3,0,0,0-.39,1.68,2.94,2.94,0,0,0,.38,1.64A1.29,1.29,0,0,0,797.56,160Z"/>
    </g>
    <use width="49.54" height="25.5" transform="translate(762 142.75)" xlink:href="#op-read"/>
  </g>
  <g id="_Group_13" data-name="&lt;Group&gt;">
    <g opacity="0.1">
      <path d="M768.29,122.5a12,12,0,0,1-12,12H732.17a12,12,0,0,1,0-24h24.12a12,12,0,0,1,12,12h0Z"/>
      <path d="M769,123.25a12,12,0,0,1-12,12H731.46a12,12,0,0,1-12-12v-1.5a12,12,0,0,1,12-12H757a12,12,0,0,1,12,12v1.5Zm-48.12-.75c0,6.19,5.4,11.25,12,11.25h22.69c6.6,0,12-5.06,12-11.25s-5.4-11.25-12-11.25H732.88C726.28,111.25,720.88,116.31,720.88,122.5Z"/>
      <path d="M736.19,126l-0.84-3q-0.15-.48-0.55-2.23h-0.05q-0.34,1.58-.54,2.24l-0.86,3h-1.52L730,119.52h1.41l0.83,3.19q0.28,1.18.4,2h0q0.06-.43.18-1t0.21-.83l1-3.41h1.51l1,3.41q0.09,0.29.22,0.88a6.76,6.76,0,0,1,.16.92h0a18,18,0,0,1,.41-2l0.84-3.19h1.38L737.74,126h-1.55Z"/>
      <path d="M744,119.4a3.31,3.31,0,0,1,.69.06l-0.13,1.28a2.6,2.6,0,0,0-.61-0.07,1.76,1.76,0,0,0-1.34.54,2,2,0,0,0-.51,1.4V126h-1.38v-6.48h1.08l0.18,1.14H742a2.57,2.57,0,0,1,.84-0.92A2,2,0,0,1,744,119.4Z"/>
      <path d="M745.77,117.8a0.76,0.76,0,0,1,.2-0.57,0.79,0.79,0,0,1,.58-0.2,0.77,0.77,0,0,1,.57.2,0.76,0.76,0,0,1,.2.57,0.75,0.75,0,0,1-.2.55,0.76,0.76,0,0,1-.57.2,0.78,0.78,0,0,1-.58-0.2A0.75,0.75,0,0,1,745.77,117.8Zm1.46,8.2h-1.38v-6.48h1.38V126Z"/>
      <path d="M751.62,125a3.35,3.35,0,0,0,1-.16v1a2.78,2.78,0,0,1-.59.17,4.06,4.06,0,0,1-.75.07,1.78,1.78,0,0,1-2-2.06v-3.49h-0.88V120l0.95-.5,0.47-1.37h0.85v1.44h1.85v1h-1.85V124a1,1,0,0,0,.25.74A0.91,0.91,0,0,0,751.62,125Z"/>
      <path d="M756.75,126.12a3.13,3.13,0,0,1-2.36-.88,3.35,3.35,0,0,1-.85-2.43,3.67,3.67,0,0,1,.79-2.5,2.73,2.73,0,0,1,2.17-.91,2.67,2.67,0,0,1,2,.78,3,3,0,0,1,.74,2.14v0.74h-4.32a2.13,2.13,0,0,0,.51,1.45,1.78,1.78,0,0,0,1.35.51,5,5,0,0,0,1.07-.11,5.61,5.61,0,0,0,1.06-.36v1.12a4.23,4.23,0,0,1-1,.34A6.25,6.25,0,0,1,756.75,126.12Zm-0.25-5.67a1.38,1.38,0,0,0-1.05.42,2,2,0,0,0-.47,1.21h2.94a1.79,1.79,0,0,0-.39-1.22A1.32,1.32,0,0,0,756.5,120.45Z"/>
    </g>
    <use width="49.54" height="25.5" transform="translate(718.46 107.75)" xlink:href="#op-write"/>
  </g>
  <g opacity="0.4">
    <g>
      <path d="M672,216l64.93-64.93c3.7-3.7,6.75-8.78,7-11.64" fill="none" stroke="#666" stroke-miterlimit="10" stroke-width="1.5"/>
      <path d="M744,134a27.2,27.2,0,0,0,4.13,7.77l-4.25-1.63-4.31,1.46A27.18,27.18,0,0,0,744,134Z" fill="#666"/>
    </g>
  </g>
  <g opacity="0.4">
    <g>
      <path d="M288,234l70.93-70.93c3.7-3.7,8.78-6.75,11.64-7" fill="none" stroke="#666" stroke-miterlimit="10" stroke-width="1.5"/>
      <path d="M376,156a27.2,27.2,0,0,0-7.61,4.43l1.46-4.31-1.63-4.25A27.17,27.17,0,0,0,376,156Z" fill="#666"/>
    </g>
  </g>
  <g opacity="0.4">
    <g>
      <path d="M480,234l70.93-70.93c3.7-3.7,8.78-6.75,11.64-7" fill="none" stroke="#666" stroke-miterlimit="10" stroke-width="1.5"/>
      <path d="M568,156a27.2,27.2,0,0,0-7.61,4.43l1.46-4.31-1.63-4.25A27.17,27.17,0,0,0,568,156Z" fill="#666"/>
    </g>
  </g>
  <g opacity="0.4">
    <g>
      <path d="M672,234l70.93-70.93c3.7-3.7,8.78-6.75,11.64-7" fill="none" stroke="#666" stroke-miterlimit="10" stroke-width="1.5"/>
      <path d="M760,156a27.2,27.2,0,0,0-7.61,4.43l1.46-4.31-1.63-4.25A27.17,27.17,0,0,0,760,156Z" fill="#666"/>
    </g>
  </g>
  <g>
    <g opacity="0.1">
      <rect x="438.14" y="218" width="48" height="48" rx="6" ry="6" stroke="#000" stroke-width="1.5"/>
      <path d="M467.16,249l-1.93-4.94H459L457.08,249h-1.83l6.14-15.61h1.52L469,249h-1.87Zm-2.5-6.57-1.81-4.82q-0.35-.91-0.72-2.24a20.34,20.34,0,0,1-.67,2.24l-1.83,4.82h5Z"/>
    </g>
    <use width="49.5" height="49.5" transform="translate(436.39 215.25)" xlink:href="#rnn-a"/>
  </g>
  <g>
    <g opacity="0.1">
      <rect x="631.64" y="218" width="48" height="48" rx="6" ry="6" stroke="#000" stroke-width="1.5"/>
      <path d="M660.66,249l-1.93-4.94h-6.23L650.58,249h-1.83l6.14-15.61h1.52L662.53,249h-1.87Zm-2.5-6.57-1.81-4.82q-0.35-.91-0.72-2.24a20.34,20.34,0,0,1-.67,2.24l-1.83,4.82h5Z"/>
    </g>
    <use width="49.5" height="49.5" transform="translate(629.89 215.25)" xlink:href="#rnn-a"/>
  </g>
  <g>
    <g opacity="0.1">
      <rect x="247.64" y="218" width="48" height="48" rx="6" ry="6" stroke="#000" stroke-width="1.5"/>
      <path d="M276.66,249l-1.93-4.94h-6.23L266.58,249h-1.83l6.14-15.61h1.52L278.53,249h-1.87Zm-2.5-6.57-1.81-4.82q-0.35-.91-0.72-2.24a20.34,20.34,0,0,1-.67,2.24l-1.83,4.82h5Z"/>
    </g>
    <use width="49.5" height="49.5" transform="translate(245.89 215.25)" xlink:href="#rnn-a"/>
  </g>
  <text transform="translate(169 12)" font-size="12" fill="#666" font-family="Open Sans">Memory is an array of vectors</text>
  <text transform="translate(168 118.28)" font-size="12" fill="#666" font-family="Open Sans">Network A <tspan x="0" y="18">writes and reads </tspan><tspan x="0" y="36">from this memory </tspan><tspan x="0" y="54">each step</tspan></text>
  <g>
    <line x1="294.89" y1="240" x2="428.21" y2="240" fill="none" stroke="#666" stroke-miterlimit="10" stroke-width="1.5"/>
    <path d="M433.64,240a27.2,27.2,0,0,0-7.69,4.28L427.5,240l-1.55-4.28A27.18,27.18,0,0,0,433.64,240Z" fill="#666"/>
  </g>
  <g>
    <line x1="486.89" y1="240" x2="620.21" y2="240" fill="none" stroke="#666" stroke-miterlimit="10" stroke-width="1.5"/>
    <path d="M625.64,240a27.2,27.2,0,0,0-7.69,4.28L619.5,240l-1.55-4.28A27.18,27.18,0,0,0,625.64,240Z" fill="#666"/>
  </g>
  <g>
    <line x1="678.89" y1="240" x2="812.21" y2="240" fill="none" stroke="#666" stroke-miterlimit="10" stroke-width="1.5"/>
    <path d="M817.64,240a27.2,27.2,0,0,0-7.69,4.28L811.5,240l-1.55-4.28A27.18,27.18,0,0,0,817.64,240Z" fill="#666"/>
  </g>
  <text transform="translate(253.82 306)" font-size="12" fill="#666" font-family="Open Sans">x0</text>
  <text transform="translate(277.94 306)" font-size="12" fill="#666" font-family="Open Sans">y0</text>
  <g>
    <line x1="259.39" y1="291.08" x2="259.39" y2="274.01" fill="none" stroke="#666" stroke-miterlimit="10" stroke-width="1.5"/>
    <path d="M259.39,268.58a27.2,27.2,0,0,0,4.28,7.69l-4.28-1.55-4.28,1.55A27.17,27.17,0,0,0,259.39,268.58Z" fill="#666"/>
  </g>
  <g>
    <line x1="283.39" y1="264.58" x2="283.39" y2="285.65" fill="none" stroke="#666" stroke-miterlimit="10" stroke-width="1.5"/>
    <path d="M283.39,291.08a27.2,27.2,0,0,0-4.28-7.69l4.28,1.55,4.28-1.55A27.18,27.18,0,0,0,283.39,291.08Z" fill="#666"/>
  </g>
  <g>
    <line x1="448.39" y1="292.41" x2="448.39" y2="274.01" fill="none" stroke="#666" stroke-miterlimit="10" stroke-width="1.5"/>
    <path d="M448.39,268.58a27.2,27.2,0,0,0,4.28,7.69l-4.28-1.55-4.28,1.55A27.17,27.17,0,0,0,448.39,268.58Z" fill="#666"/>
  </g>
  <g>
    <line x1="473.39" y1="264.58" x2="473.39" y2="286.98" fill="none" stroke="#666" stroke-miterlimit="10" stroke-width="1.5"/>
    <path d="M473.39,292.41a27.2,27.2,0,0,0-4.28-7.69l4.28,1.55,4.28-1.55A27.18,27.18,0,0,0,473.39,292.41Z" fill="#666"/>
  </g>
  <g>
    <line x1="641.22" y1="292.41" x2="641.22" y2="274.01" fill="none" stroke="#666" stroke-miterlimit="10" stroke-width="1.5"/>
    <path d="M641.22,268.58a27.2,27.2,0,0,0,4.28,7.69l-4.28-1.55-4.28,1.55A27.17,27.17,0,0,0,641.22,268.58Z" fill="#666"/>
  </g>
  <g>
    <line x1="666.22" y1="264.58" x2="666.22" y2="286.98" fill="none" stroke="#666" stroke-miterlimit="10" stroke-width="1.5"/>
    <path d="M666.22,292.41a27.2,27.2,0,0,0-4.28-7.69l4.28,1.55,4.28-1.55A27.18,27.18,0,0,0,666.22,292.41Z" fill="#666"/>
  </g>
  <text transform="translate(441.48 306)" font-size="12" fill="#666" font-family="Open Sans">x1</text>
  <text transform="translate(465.6 306)" font-size="12" fill="#666" font-family="Open Sans">y1</text>
  <text transform="translate(634.32 306)" font-size="12" fill="#666" font-family="Open Sans">x2</text>
  <text transform="translate(658.44 306)" font-size="12" fill="#666" font-family="Open Sans">y2</text>
  <g>
    <line x1="833.22" y1="292.41" x2="833.22" y2="274.01" fill="none" stroke="#666" stroke-miterlimit="10" stroke-width="1.5"/>
    <path d="M833.22,268.58a27.2,27.2,0,0,0,4.28,7.69l-4.28-1.55-4.28,1.55A27.17,27.17,0,0,0,833.22,268.58Z" fill="#666"/>
  </g>
  <g>
    <line x1="858.22" y1="264.58" x2="858.22" y2="286.98" fill="none" stroke="#666" stroke-miterlimit="10" stroke-width="1.5"/>
    <path d="M858.22,292.41a27.2,27.2,0,0,0-4.28-7.69l4.28,1.55,4.28-1.55A27.18,27.18,0,0,0,858.22,292.41Z" fill="#666"/>
  </g>
  <text transform="translate(826.32 306)" font-size="12" fill="#666" font-family="Open Sans">x2</text>
  <text transform="translate(850.44 306)" font-size="12" fill="#666" font-family="Open Sans">y2</text>
  <use width="36" height="36" transform="translate(180 41.45) scale(0.83)" xlink:href="#array-vector"/>
  <use width="36" height="36" transform="translate(210.04 41.45) scale(0.83)" xlink:href="#array-vector"/>
  <use width="36" height="36" transform="translate(240.08 41.45) scale(0.83)" xlink:href="#array-vector"/>
  <use width="36" height="36" transform="translate(270.12 41.45) scale(0.83)" xlink:href="#array-vector"/>
  <use width="36" height="36" transform="matrix(0.59, 0.59, -0.59, 0.59, 387.02, 35.23)" xlink:href="#array-vector"/>
  <use width="36" height="36" transform="translate(402.04 41.45) scale(0.83)" xlink:href="#array-vector"/>
  <use width="36" height="36" transform="translate(432.08 41.45) scale(0.83)" xlink:href="#array-vector"/>
  <use width="36" height="36" transform="translate(462.12 41.45) scale(0.83)" xlink:href="#array-vector"/>
  <use width="36" height="36" transform="matrix(0.59, 0.59, -0.59, 0.59, 579.02, 35.23)" xlink:href="#array-vector"/>
  <use width="36" height="36" transform="matrix(0.59, 0.59, -0.59, 0.59, 609.06, 35.23)" xlink:href="#array-vector"/>
  <use width="36" height="36" transform="translate(624.08 41.45) scale(0.83)" xlink:href="#array-vector"/>
  <use width="36" height="36" transform="translate(654.12 41.45) scale(0.83)" xlink:href="#array-vector"/>
  <use width="36" height="36" transform="matrix(0.59, 0.59, -0.59, 0.59, 771.02, 35.23)" xlink:href="#array-vector"/>
  <use width="36" height="36" transform="matrix(0.59, 0.59, -0.59, 0.59, 801.06, 35.23)" xlink:href="#array-vector"/>
  <use width="36" height="36" transform="matrix(0.59, 0.59, -0.59, 0.59, 831.1, 35.23)" xlink:href="#array-vector"/>
  <use width="36" height="36" transform="translate(846.12 41.45) scale(0.83)" xlink:href="#array-vector"/>
  <use width="36" height="36" transform="translate(300 41.45) scale(0.83)" xlink:href="#array-vector"/>
  <use width="36" height="36" transform="translate(492 41.45) scale(0.83)" xlink:href="#array-vector"/>
  <use width="36" height="36" transform="translate(522 41.45) scale(0.83)" xlink:href="#array-vector"/>
  <use width="36" height="36" transform="translate(330 41.45) scale(0.83)" xlink:href="#array-vector"/>
  <use width="36" height="36" transform="translate(684 41.45) scale(0.83)" xlink:href="#array-vector"/>
  <use width="36" height="36" transform="translate(714 41.45) scale(0.83)" xlink:href="#array-vector"/>
  <use width="36" height="36" transform="translate(876 41.45) scale(0.83)" xlink:href="#array-vector"/>
  <use width="36" height="36" transform="translate(906 41.45) scale(0.83)" xlink:href="#array-vector"/>
</svg>
