<svg id="background" xmlns="http://www.w3.org/2000/svg" xmlns:xlink="http://www.w3.org/1999/xlink" width="984" height="246" viewBox="0 0 984 246">
  <defs>
    <clipPath id="clip-path">
      <rect id="first-clip" x="228" y="6" width="84" height="144" fill="none"/>
    </clipPath>
    <clipPath id="clip-path-2">
      <polygon points="500 6 306 6 306 36 360 36 360 138 444 138 444 36 500 36 500 6" fill="none"/>
    </clipPath>
    <clipPath id="clip-path-3">
      <polygon points="612 6 438 6 438 36 492 36 492 138 576 138 576 36 612 36 612 6" fill="none"/>
    </clipPath>
    <clipPath id="clip-path-4">
      <rect x="624" y="6" width="60" height="120" fill="none"/>
    </clipPath>
    <symbol id="rnn-bg" data-name="rnn-bg" viewBox="0 0 48 48">
      <rect width="48" height="48" rx="6" ry="6" fill="#798294"/>
    </symbol>
    <symbol id="rnn-a" data-name="rnn-a" viewBox="0 0 48 48">
      <use id="rnn-bg-3" data-name="rnn-bg" width="48" height="48" xlink:href="#rnn-bg"/>
      <text transform="translate(17.33 31)" font-size="21.77" fill="#fff" font-family="Helvetica" letter-spacing="-1">A</text>
    </symbol>
  </defs>
  <title>rnn</title>
  <g id="_Group_" data-name="&lt;Group&gt;">
    <rect x="168" y="162" width="468" height="72" rx="10" ry="10" fill="#f0f4f5"/>
    <g opacity="0.1">
      <rect x="168" y="162" width="468" height="72" rx="10" ry="10" fill="none" stroke="#231f20"/>
    </g>
  </g>
  <path d="M367.26,24H330c-6.6,0-16.05-2.93-21-6.5S294.6,11,288,11H264.25" fill="none" stroke="#8c8c8c" stroke-miterlimit="10" stroke-width="2"/>
  <g clip-path="url(#clip-path)">
    <g opacity="0.9">
      <path d="M222,120h9c4.95,0,9-5.4,9-12V23a12,12,0,0,1,12-12h29.75" fill="none" stroke="#8c8c8c" stroke-miterlimit="10" stroke-width="2"/>
    </g>
    <g opacity="0.2">
      <path d="M222,84h9c4.95,0,9-5.4,9-12V23a12,12,0,0,1,12-12h29.75" fill="none" stroke="#8c8c8c" stroke-miterlimit="10" stroke-width="2"/>
    </g>
    <g opacity="0.4">
      <path d="M222,48h9c5,0,9-5.4,9-12V23a12,12,0,0,1,12-12h29.7" fill="none" stroke="#8c8c8c" stroke-miterlimit="10" stroke-width="2"/>
    </g>
    <g opacity="0.2">
      <path d="M318,120h-9c-4.95,0-9-5.4-9-12V23a12,12,0,0,0-12-12H262.25" fill="none" stroke="#8c8c8c" stroke-miterlimit="10" stroke-width="2"/>
    </g>
    <g opacity="0.2">
      <path d="M318,84h-9c-4.95,0-9-5.4-9-12V23a12,12,0,0,0-12-12H262.25" fill="none" stroke="#8c8c8c" stroke-miterlimit="10" stroke-width="2"/>
    </g>
    <g opacity="0.9">
      <path d="M318,48h-9c-4.95,0-9-5.4-9-12V23a12,12,0,0,0-12-12H258.25" fill="none" stroke="#8c8c8c" stroke-miterlimit="10" stroke-width="2"/>
    </g>
  </g>
  <g clip-path="url(#clip-path-2)">
    <g opacity="0.2">
      <path d="M354,120h9c5,0,9-5.4,9-12V24a12,12,0,0,1,12-12h29.7" fill="none" stroke="#8c8c8c" stroke-miterlimit="10" stroke-width="2"/>
    </g>
    <g opacity="0.2">
      <path d="M354,84h9c5,0,9-5.4,9-12V24a12,12,0,0,1,12-12h29.7" fill="none" stroke="#8c8c8c" stroke-miterlimit="10" stroke-width="2"/>
    </g>
    <g opacity="0.9">
      <path d="M354,48h9c5,0,9-5.4,9-12V24a12,12,0,0,1,12-12h29.7" fill="none" stroke="#8c8c8c" stroke-miterlimit="10" stroke-width="2"/>
    </g>
    <g opacity="0.9">
      <path d="M451.05,122H432a12,12,0,0,1-12-12V36a12,12,0,0,0-12-12H376.65" fill="none" stroke="#8c8c8c" stroke-miterlimit="10" stroke-width="2"/>
    </g>
    <g opacity="0.2">
      <path d="M451.05,86H432a12,12,0,0,1-12-12V36a12,12,0,0,0-12-12H376.65" fill="none" stroke="#8c8c8c" stroke-miterlimit="10" stroke-width="2"/>
    </g>
    <g opacity="0.2">
      <path d="M451.05,49H432a12,12,0,0,1-12-12V36a12,12,0,0,0-12-12H376.65" fill="none" stroke="#8c8c8c" stroke-miterlimit="10" stroke-width="2"/>
    </g>
    <g opacity="0.9">
      <path d="M450.25,119h-9.12c-5,0-9.12-5.4-9.12-12V24a12,12,0,0,0-12-12H390.5" fill="none" stroke="#8c8c8c" stroke-miterlimit="10" stroke-width="2"/>
    </g>
    <g opacity="0.2">
      <path d="M450.25,83h-9.12c-5,0-9.12-5.4-9.12-12V24a12,12,0,0,0-12-12H390.5" fill="none" stroke="#8c8c8c" stroke-miterlimit="10" stroke-width="2"/>
    </g>
    <g opacity="0.2">
      <path d="M450.25,46h-9.12c-5,0-9.12-5.4-9.12-12V24a12,12,0,0,0-12-12H390.5" fill="none" stroke="#8c8c8c" stroke-miterlimit="10" stroke-width="2"/>
    </g>
    <path d="M500.17,24H461.75c-6.6,0-16-2.7-20.87-6S426.6,12,420,12H396.5" fill="none" stroke="#8c8c8c" stroke-miterlimit="10" stroke-width="2"/>
  </g>
  <g clip-path="url(#clip-path-3)">
    <g opacity="0.9">
      <path d="M486,120h9c5,0,9-5.4,9-12V24a12,12,0,0,1,12-12h29.7" fill="none" stroke="#8c8c8c" stroke-miterlimit="10" stroke-width="2"/>
    </g>
    <g opacity="0.2">
      <path d="M486,84h9c5,0,9-5.4,9-12V24a12,12,0,0,1,12-12h29.7" fill="none" stroke="#8c8c8c" stroke-miterlimit="10" stroke-width="2"/>
    </g>
    <g opacity="0.2">
      <path d="M486,48h9c5,0,9-5.4,9-12V24a12,12,0,0,1,12-12h29.7" fill="none" stroke="#8c8c8c" stroke-miterlimit="10" stroke-width="2"/>
    </g>
    <g opacity="0.2">
      <path d="M583.05,122H564a12,12,0,0,1-12-12V36a12,12,0,0,0-12-12H507.83" fill="none" stroke="#8c8c8c" stroke-miterlimit="10" stroke-width="2"/>
    </g>
    <g opacity="0.2">
      <path d="M583.05,86H564a12,12,0,0,1-12-12V36a12,12,0,0,0-12-12H507.83" fill="none" stroke="#8c8c8c" stroke-miterlimit="10" stroke-width="2"/>
    </g>
    <g opacity="0.9">
      <path d="M583.05,50H564a12,12,0,0,1-12-12V36a12,12,0,0,0-12-12H507.83" fill="none" stroke="#8c8c8c" stroke-miterlimit="10" stroke-width="2"/>
    </g>
    <g opacity="0.2">
      <path d="M582.25,119h-9.12c-5,0-9.12-5.4-9.12-12V24a12,12,0,0,0-12-12H522.5" fill="none" stroke="#8c8c8c" stroke-miterlimit="10" stroke-width="2"/>
    </g>
    <g opacity="0.2">
      <path d="M582.25,83h-9.12c-5,0-9.12-5.4-9.12-12V24a12,12,0,0,0-12-12H522.5" fill="none" stroke="#8c8c8c" stroke-miterlimit="10" stroke-width="2"/>
    </g>
    <g opacity="0.9">
      <path d="M582.25,47h-9.12c-5,0-9.12-5.4-9.12-12V24a12,12,0,0,0-12-12H522.5" fill="none" stroke="#8c8c8c" stroke-miterlimit="10" stroke-width="2"/>
    </g>
  </g>
  <g clip-path="url(#clip-path-4)">
    <g opacity="0.9">
      <g>
        <path d="M618,48h9c5,0,9-5.4,9-12V24a12,12,0,0,1,12-12h22.46" fill="none" stroke="#8c8c8c" stroke-miterlimit="10" stroke-width="2"/>
        <path d="M677.75,12a36.27,36.27,0,0,0-10.26,5.71L669.56,12l-2.06-5.71A36.24,36.24,0,0,0,677.75,12Z" fill="#8c8c8c"/>
      </g>
    </g>
    <g opacity="0.2">
      <path d="M618,120h9c5,0,9-5.4,9-12V24a12,12,0,0,1,12-12H666" fill="none" stroke="#8c8c8c" stroke-miterlimit="10" stroke-width="2"/>
    </g>
    <g opacity="0.2">
      <path d="M618,84h9c5,0,9-5.4,9-12V24a12,12,0,0,1,12-12H666" fill="none" stroke="#8c8c8c" stroke-miterlimit="10" stroke-width="2"/>
    </g>
  </g>
  <use width="48" height="48" transform="translate(180 174)" xlink:href="#rnn-a"/>
  <use width="48" height="48" transform="translate(312 174)" xlink:href="#rnn-a"/>
  <use width="48" height="48" transform="translate(444 174)" xlink:href="#rnn-a"/>
  <use id="rnn-a-9" data-name="rnn-a" width="48" height="48" transform="translate(576 174)" xlink:href="#rnn-a"/>
  <g opacity="0.9">
    <ellipse cx="203.95" cy="120" rx="24" ry="12" fill="#7a8297"/>
    <text transform="translate(192.05 123.52)" font-size="12" fill="#fff" font-family="Myriad Pro">Op 1</text>
  </g>
  <g opacity="0.2">
    <ellipse cx="203.95" cy="84" rx="24" ry="12" fill="#7a8297"/>
    <text transform="translate(192.05 87.52)" font-size="12" fill="#fff" font-family="Myriad Pro">Op 2</text>
  </g>
  <g opacity="0.4">
    <ellipse cx="204" cy="48" rx="24" ry="12" fill="#7a8297"/>
    <text transform="translate(192.1 51.52)" font-size="12" fill="#fff" font-family="Myriad Pro">Op 3</text>
  </g>
  <g opacity="0.2">
    <ellipse cx="336" cy="120" rx="24" ry="12" fill="#7a8297"/>
    <text transform="translate(324.1 123.52)" font-size="12" fill="#fff" font-family="Myriad Pro">Op 1</text>
  </g>
  <g opacity="0.2">
    <ellipse cx="336" cy="84" rx="24" ry="12" fill="#7a8297"/>
    <text transform="translate(324.1 87.52)" font-size="12" fill="#fff" font-family="Myriad Pro">Op 2</text>
  </g>
  <g opacity="0.9">
    <ellipse cx="336.05" cy="48" rx="24" ry="12" fill="#7a8297"/>
    <text transform="translate(324.15 51.52)" font-size="12" fill="#fff" font-family="Myriad Pro">Op 3</text>
  </g>
  <g opacity="0.9">
    <ellipse cx="467.95" cy="120" rx="24" ry="12" fill="#7a8297"/>
    <text transform="translate(456.05 123.52)" font-size="12" fill="#fff" font-family="Myriad Pro">Op 1</text>
  </g>
  <g opacity="0.2">
    <ellipse cx="467.95" cy="84" rx="24" ry="12" fill="#7a8297"/>
    <text transform="translate(456.05 87.52)" font-size="12" fill="#fff" font-family="Myriad Pro">Op 2</text>
  </g>
  <g opacity="0.2">
    <ellipse cx="468" cy="48" rx="24" ry="12" fill="#7a8297"/>
    <text transform="translate(456.1 51.52)" font-size="12" fill="#fff" font-family="Myriad Pro">Op 3</text>
  </g>
  <g opacity="0.2">
    <ellipse cx="599.95" cy="120" rx="24" ry="12" fill="#7a8297"/>
    <text transform="translate(588.05 123.52)" font-size="12" fill="#fff" font-family="Myriad Pro">Op 1</text>
  </g>
  <g opacity="0.2">
    <ellipse cx="599.95" cy="84" rx="24" ry="12" fill="#7a8297"/>
    <text transform="translate(588.05 87.52)" font-size="12" fill="#fff" font-family="Myriad Pro">Op 2</text>
  </g>
  <g opacity="0.9">
    <ellipse cx="600" cy="48" rx="24" ry="12" fill="#7a8297"/>
    <text transform="translate(588.1 51.52)" font-size="12" fill="#fff" font-family="Myriad Pro">Op 3</text>
  </g>
  <g>
    <line x1="228" y1="196.5" x2="304.76" y2="196.5" fill="none" stroke="#8c8c8c" stroke-miterlimit="10" stroke-width="2"/>
    <path d="M312,196.5a36.27,36.27,0,0,0-10.26,5.71l2.06-5.71-2.06-5.71A36.23,36.23,0,0,0,312,196.5Z" fill="#8c8c8c"/>
  </g>
  <g>
    <line x1="204" y1="172" x2="204" y2="143.24" fill="none" stroke="#8c8c8c" stroke-miterlimit="10" stroke-width="2"/>
    <path d="M204,136a36.27,36.27,0,0,0,5.71,10.26L204,144.19l-5.71,2.06A36.23,36.23,0,0,0,204,136Z" fill="#8c8c8c"/>
  </g>
  <g>
    <line x1="336" y1="172" x2="336" y2="143.24" fill="none" stroke="#8c8c8c" stroke-miterlimit="10" stroke-width="2"/>
    <path d="M336,136a36.27,36.27,0,0,0,5.71,10.26L336,144.19l-5.71,2.06A36.23,36.23,0,0,0,336,136Z" fill="#8c8c8c"/>
  </g>
  <g>
    <line x1="468" y1="172" x2="468" y2="143.24" fill="none" stroke="#8c8c8c" stroke-miterlimit="10" stroke-width="2"/>
    <path d="M468,136a36.27,36.27,0,0,0,5.71,10.26L468,144.19l-5.71,2.06A36.23,36.23,0,0,0,468,136Z" fill="#8c8c8c"/>
  </g>
  <g>
    <line x1="600" y1="172" x2="600" y2="143.24" fill="none" stroke="#8c8c8c" stroke-miterlimit="10" stroke-width="2"/>
    <path d="M600,136a36.27,36.27,0,0,0,5.71,10.26L600,144.19l-5.71,2.06A36.23,36.23,0,0,0,600,136Z" fill="#8c8c8c"/>
  </g>
  <g>
    <line x1="360" y1="196.5" x2="436.76" y2="196.5" fill="none" stroke="#8c8c8c" stroke-miterlimit="10" stroke-width="2"/>
    <path d="M444,196.5a36.27,36.27,0,0,0-10.26,5.71l2.06-5.71-2.06-5.71A36.23,36.23,0,0,0,444,196.5Z" fill="#8c8c8c"/>
  </g>
  <g>
    <line x1="492" y1="196.5" x2="568.76" y2="196.5" fill="none" stroke="#8c8c8c" stroke-miterlimit="10" stroke-width="2"/>
    <path d="M576,196.5a36.27,36.27,0,0,0-10.26,5.71l2.06-5.71-2.06-5.71A36.23,36.23,0,0,0,576,196.5Z" fill="#8c8c8c"/>
  </g>
</svg>
