<svg id="background" xmlns="http://www.w3.org/2000/svg" xmlns:xlink="http://www.w3.org/1999/xlink" width="984" height="144" viewBox="0 0 984 144">
  <defs>
    <symbol id="rnn-bg" data-name="rnn-bg" viewBox="0 0 48 48">
      <rect width="48" height="48" rx="6" ry="6" fill="#798294"/>
    </symbol>
    <symbol id="rnn-a" data-name="rnn-a" viewBox="0 0 48 48">
      <use id="rnn-bg-3" data-name="rnn-bg" width="48" height="48" xlink:href="#rnn-bg"/>
      <text transform="translate(17.33 31)" font-size="21.77" fill="#fff" font-family="Helvetica" letter-spacing="-1">A</text>
    </symbol>
  </defs>
  <title>rnn</title>
  <g id="_Group_" data-name="&lt;Group&gt;">
    <path d="M768,102.48c0,3-3,5.52-6.69,5.52H176.67c-4.77,0-8.67-2.48-8.67-5.52V46c0-5.49,3.9-10,8.67-10H761.31C765,36,768,40.49,768,46v56.51Z" fill="#e6eaf2"/>
  </g>
  <use width="48" height="48" transform="translate(180 48)" xlink:href="#rnn-a"/>
  <use width="48" height="48" transform="translate(312 48)" xlink:href="#rnn-a"/>
  <use width="48" height="48" transform="translate(444 48)" xlink:href="#rnn-a"/>
  <use id="rnn-a-9" data-name="rnn-a" width="48" height="48" transform="translate(576 48)" xlink:href="#rnn-a"/>
  <use id="rnn-a-12" data-name="rnn-a" width="48" height="48" transform="translate(708 48)" xlink:href="#rnn-a"/>
  <text transform="translate(185.43 136)" font-size="12" fill="#717171" font-family="Open Sans">x0</text>
  <text transform="translate(209.55 136)" font-size="12" fill="#717171" font-family="Open Sans">y0</text>
  <text transform="translate(317.43 136)" font-size="12" fill="#717171" font-family="Open Sans">x1</text>
  <text transform="translate(341.55 136)" font-size="12" fill="#717171" font-family="Open Sans">y1</text>
  <text transform="translate(449.43 136)" font-size="12" fill="#717171" font-family="Open Sans">x2</text>
  <text transform="translate(473.55 136)" font-size="12" fill="#717171" font-family="Open Sans">y2</text>
  <text transform="translate(581.43 136)" font-size="12" fill="#717171" font-family="Open Sans">x3</text>
  <text transform="translate(605.55 136)" font-size="12" fill="#717171" font-family="Open Sans">y3</text>
  <text transform="translate(176.67 13)" font-size="12" fill="#666" font-family="Open Sans">One cell...</text>
  <text transform="translate(283.58 13)" font-size="12" fill="#666" font-family="Open Sans">can be used over...</text>
  <text transform="translate(438.51 13)" font-size="12" fill="#666" font-family="Open Sans">and over...</text>
  <text transform="translate(570.51 13)" font-size="12" fill="#666" font-family="Open Sans">and over...</text>
  <text transform="translate(715.24 13)" font-size="12" fill="#666" font-family="Open Sans">again.</text>
  <g>
    <line x1="228" y1="72.5" x2="310.92" y2="72.5" fill="none" stroke="#8c8c8c" stroke-miterlimit="10"/>
    <polygon points="307.6 76.59 306.92 75.86 310.53 72.5 306.92 69.14 307.6 68.41 312 72.5 307.6 76.59" fill="#8c8c8c"/>
  </g>
  <g>
    <line x1="192" y1="120" x2="192" y2="96.58" fill="none" stroke="#8c8c8c" stroke-miterlimit="10"/>
    <polygon points="196.09 99.9 195.36 100.58 192 96.97 188.64 100.58 187.91 99.9 192 95.5 196.09 99.9" fill="#8c8c8c"/>
  </g>
  <g>
    <line x1="217" y1="95.5" x2="217" y2="118.92" fill="none" stroke="#8c8c8c" stroke-miterlimit="10"/>
    <polygon points="212.91 115.6 213.64 114.92 217 118.53 220.36 114.92 221.09 115.6 217 120 212.91 115.6" fill="#8c8c8c"/>
  </g>
  <g>
    <line x1="324" y1="120" x2="324" y2="96.58" fill="none" stroke="#8c8c8c" stroke-miterlimit="10"/>
    <polygon points="328.09 99.9 327.36 100.58 324 96.97 320.64 100.58 319.91 99.9 324 95.5 328.09 99.9" fill="#8c8c8c"/>
  </g>
  <g>
    <line x1="349" y1="95.5" x2="349" y2="118.92" fill="none" stroke="#8c8c8c" stroke-miterlimit="10"/>
    <polygon points="344.91 115.6 345.64 114.92 349 118.53 352.36 114.92 353.09 115.6 349 120 344.91 115.6" fill="#8c8c8c"/>
  </g>
  <g>
    <line x1="457" y1="120" x2="457" y2="96.58" fill="none" stroke="#8c8c8c" stroke-miterlimit="10"/>
    <polygon points="461.09 99.9 460.36 100.58 457 96.97 453.64 100.58 452.91 99.9 457 95.5 461.09 99.9" fill="#8c8c8c"/>
  </g>
  <g>
    <line x1="480" y1="95.5" x2="480" y2="118.92" fill="none" stroke="#8c8c8c" stroke-miterlimit="10"/>
    <polygon points="475.91 115.6 476.64 114.92 480 118.53 483.36 114.92 484.09 115.6 480 120 475.91 115.6" fill="#8c8c8c"/>
  </g>
  <g>
    <line x1="588" y1="120" x2="588" y2="96.58" fill="none" stroke="#8c8c8c" stroke-miterlimit="10"/>
    <polygon points="592.09 99.9 591.36 100.58 588 96.97 584.64 100.58 583.91 99.9 588 95.5 592.09 99.9" fill="#8c8c8c"/>
  </g>
  <g>
    <line x1="612" y1="95.5" x2="612" y2="118.92" fill="none" stroke="#8c8c8c" stroke-miterlimit="10"/>
    <polygon points="607.91 115.6 608.64 114.92 612 118.53 615.36 114.92 616.09 115.6 612 120 607.91 115.6" fill="#8c8c8c"/>
  </g>
  <text transform="translate(713.43 136)" font-size="12" fill="#717171" font-family="Open Sans">x4</text>
  <text transform="translate(737.55 136)" font-size="12" fill="#717171" font-family="Open Sans">y4</text>
  <g>
    <line x1="720" y1="120" x2="720" y2="96.58" fill="none" stroke="#8c8c8c" stroke-miterlimit="10"/>
    <polygon points="724.09 99.9 723.36 100.58 720 96.97 716.64 100.58 715.91 99.9 720 95.5 724.09 99.9" fill="#8c8c8c"/>
  </g>
  <g>
    <line x1="744" y1="95.5" x2="744" y2="118.92" fill="none" stroke="#8c8c8c" stroke-miterlimit="10"/>
    <polygon points="739.91 115.6 740.64 114.92 744 118.53 747.36 114.92 748.09 115.6 744 120 739.91 115.6" fill="#8c8c8c"/>
  </g>
  <g>
    <line x1="360" y1="72.5" x2="442.92" y2="72.5" fill="none" stroke="#8c8c8c" stroke-miterlimit="10"/>
    <polygon points="439.6 76.59 438.92 75.86 442.53 72.5 438.92 69.14 439.6 68.41 444 72.5 439.6 76.59" fill="#8c8c8c"/>
  </g>
  <g>
    <line x1="492" y1="72.5" x2="574.92" y2="72.5" fill="none" stroke="#8c8c8c" stroke-miterlimit="10"/>
    <polygon points="571.6 76.59 570.92 75.86 574.53 72.5 570.92 69.14 571.6 68.41 576 72.5 571.6 76.59" fill="#8c8c8c"/>
  </g>
  <g>
    <line x1="624" y1="72.5" x2="706.92" y2="72.5" fill="none" stroke="#8c8c8c" stroke-miterlimit="10"/>
    <polygon points="703.6 76.59 702.92 75.86 706.53 72.5 702.92 69.14 703.6 68.41 708 72.5 703.6 76.59" fill="#8c8c8c"/>
  </g>
</svg>
