<svg id="background" xmlns="http://www.w3.org/2000/svg" xmlns:xlink="http://www.w3.org/1999/xlink" width="984" height="744" viewBox="0 0 984 744">
  <defs>
    <symbol id="array-5" data-name="array-5" viewBox="0 0 181 37">
      <rect x="0.5" y="0.5" width="180" height="36" rx="6" ry="6" fill="#fff" stroke="#8c8c8c" stroke-miterlimit="10"/>
      <line x1="36.25" y1="36.5" x2="36.25" y2="0.5" fill="none" stroke="#8c8c8c" stroke-miterlimit="10"/>
      <line x1="72.25" y1="36.5" x2="72.25" y2="0.5" fill="none" stroke="#8c8c8c" stroke-miterlimit="10"/>
      <line x1="108.25" y1="36.5" x2="108.25" y2="0.5" fill="none" stroke="#8c8c8c" stroke-miterlimit="10"/>
      <line x1="144.25" y1="36.5" x2="144.25" y2="0.5" fill="none" stroke="#8c8c8c" stroke-miterlimit="10"/>
    </symbol>
    <symbol id="array-1" data-name="array-1" viewBox="0 0 37 37">
      <rect x="0.5" y="0.5" width="36" height="36" rx="6" ry="6" fill="#fff" stroke="#8c8c8c" stroke-miterlimit="10"/>
    </symbol>
    <symbol id="array-3" data-name="array-3" viewBox="0 0 108.5 37">
      <rect x="0.5" y="0.5" width="107.5" height="36" rx="6" ry="6" fill="#fff" stroke="#8c8c8c" stroke-miterlimit="10"/>
      <line x1="36" y1="36.5" x2="36" y2="0.5" fill="none" stroke="#8c8c8c" stroke-miterlimit="10"/>
      <line x1="72" y1="36.5" x2="72" y2="0.5" fill="none" stroke="#8c8c8c" stroke-miterlimit="10"/>
    </symbol>
    <symbol id="array-negative-value" data-name="array-negative-value" viewBox="0 0 36 36">
      <rect width="36" height="36" fill="#0080f7" opacity="0"/>
      <rect x="4.42" y="4.42" width="27.17" height="27.17" rx="6" ry="6" fill="#ff2bb6" opacity="0.8"/>
    </symbol>
    <symbol id="array-positive-value" data-name="array-positive-value" viewBox="0 0 36 36">
      <rect width="36" height="36" fill="#0080f7" opacity="0"/>
      <rect x="4.42" y="4.42" width="27.17" height="27.17" rx="6" ry="6" fill="#0080f7" opacity="0.8"/>
    </symbol>
    <symbol id="array-vector" data-name="array-vector" viewBox="0 0 36 36">
      <rect width="36" height="36" fill="#0080f7" opacity="0"/>
      <g>
        <line x1="18" y1="24" x2="18" y2="13.08" fill="none" stroke="#8c8c8c" stroke-miterlimit="10"/>
        <polygon points="22.09 16.4 21.36 17.08 18 13.47 14.64 17.08 13.91 16.4 18 12 22.09 16.4" fill="#8c8c8c"/>
      </g>
    </symbol>
  </defs>
  <title>rnn</title>
  <g id="_Group_" data-name="&lt;Group&gt;" opacity="0.2">
    <rect x="822" y="72" width="48" height="48" rx="10" ry="10" opacity="0.04"/>
    <rect x="822" y="72" width="48" height="48" rx="10" ry="10" fill="#ff0"/>
  </g>
  <g id="_Group_2" data-name="&lt;Group&gt;" opacity="0.2">
    <rect x="822" y="336" width="48" height="48" rx="10" ry="10" opacity="0.04"/>
    <rect x="822" y="336" width="48" height="48" rx="10" ry="10" fill="#ff0"/>
  </g>
  <g id="_Group_3" data-name="&lt;Group&gt;" opacity="0.2">
    <rect x="822" y="468" width="120" height="48" rx="10" ry="10" opacity="0.04"/>
    <rect x="822" y="468" width="120" height="48" rx="10" ry="10" fill="#ff0"/>
  </g>
  <g>
    <line x1="815.5" x2="816" y2="741" fill="#fff"/>
    <g>
      <line x1="815.5" x2="815.5" y2="1" fill="none" stroke="#aaa" stroke-miterlimit="10"/>
      <line x1="815.5" y1="3" x2="816" y2="739" fill="none" stroke="#aaa" stroke-miterlimit="10" stroke-dasharray="2 2"/>
      <line x1="816" y1="740" x2="816" y2="741" fill="none" stroke="#aaa" stroke-miterlimit="10"/>
    </g>
  </g>
  <g>
    <g opacity="0">
      <g>
        <line x1="665.75" y1="201" x2="665.75" y2="243.92" fill="none" stroke="#666" stroke-miterlimit="10" stroke-width="1.5"/>
        <path d="M665.75,249.35a27.2,27.2,0,0,0-4.28-7.69l4.28,1.55,4.28-1.55A27.18,27.18,0,0,0,665.75,249.35Z" fill="#666"/>
      </g>
    </g>
    <g opacity="0.17">
      <g>
        <line x1="665.75" y1="206" x2="665.75" y2="243.92" fill="none" stroke="#666" stroke-miterlimit="10" stroke-width="1.5"/>
        <path d="M665.75,249.35a27.2,27.2,0,0,0-4.28-7.69l4.28,1.55,4.28-1.55A27.18,27.18,0,0,0,665.75,249.35Z" fill="#666"/>
      </g>
    </g>
    <g opacity="0.33">
      <g>
        <line x1="665.75" y1="211" x2="665.75" y2="243.92" fill="none" stroke="#666" stroke-miterlimit="10" stroke-width="1.5"/>
        <path d="M665.75,249.35a27.2,27.2,0,0,0-4.28-7.69l4.28,1.55,4.28-1.55A27.18,27.18,0,0,0,665.75,249.35Z" fill="#666"/>
      </g>
    </g>
    <g opacity="0.5">
      <g>
        <line x1="665.75" y1="216" x2="665.75" y2="243.92" fill="none" stroke="#666" stroke-miterlimit="10" stroke-width="1.5"/>
        <path d="M665.75,249.35a27.2,27.2,0,0,0-4.28-7.69l4.28,1.55,4.28-1.55A27.18,27.18,0,0,0,665.75,249.35Z" fill="#666"/>
      </g>
    </g>
    <g opacity="0.67">
      <g>
        <line x1="665.75" y1="221" x2="665.75" y2="243.92" fill="none" stroke="#666" stroke-miterlimit="10" stroke-width="1.5"/>
        <path d="M665.75,249.35a27.2,27.2,0,0,0-4.28-7.69l4.28,1.55,4.28-1.55A27.18,27.18,0,0,0,665.75,249.35Z" fill="#666"/>
      </g>
    </g>
    <g opacity="0.83">
      <g>
        <line x1="665.75" y1="226" x2="665.75" y2="243.92" fill="none" stroke="#666" stroke-miterlimit="10" stroke-width="1.5"/>
        <path d="M665.75,249.35a27.2,27.2,0,0,0-4.28-7.69l4.28,1.55,4.28-1.55A27.18,27.18,0,0,0,665.75,249.35Z" fill="#666"/>
      </g>
    </g>
    <g>
      <line x1="665.75" y1="231" x2="665.75" y2="243.92" fill="none" stroke="#666" stroke-miterlimit="10" stroke-width="1.5"/>
      <path d="M665.75,249.35a27.2,27.2,0,0,0-4.28-7.69l4.28,1.55,4.28-1.55A27.18,27.18,0,0,0,665.75,249.35Z" fill="#666"/>
    </g>
  </g>
  <g>
    <g>
      <line x1="426" y1="48" x2="426" y2="72.75" fill="none" stroke="#666" stroke-miterlimit="10" stroke-width="1.5"/>
      <path d="M426,78.18a27.2,27.2,0,0,0-4.28-7.69L426,72l4.28-1.55A27.17,27.17,0,0,0,426,78.18Z" fill="#666"/>
    </g>
    <g>
      <line x1="827.5" y1="96" x2="479.43" y2="96" fill="none" stroke="#666" stroke-miterlimit="10" stroke-width="1.5"/>
      <path d="M474,96a27.2,27.2,0,0,0,7.69-4.28L480.14,96l1.55,4.28A27.18,27.18,0,0,0,474,96Z" fill="#666"/>
    </g>
    <g>
      <line x1="827.5" y1="366" x2="479.43" y2="366" fill="none" stroke="#666" stroke-miterlimit="10" stroke-width="1.5"/>
      <path d="M474,366a27.2,27.2,0,0,0,7.69-4.28L480.14,366l1.55,4.28A27.18,27.18,0,0,0,474,366Z" fill="#666"/>
    </g>
    <g>
      <line x1="827.5" y1="492" x2="479.43" y2="492" fill="none" stroke="#666" stroke-miterlimit="10" stroke-width="1.5"/>
      <path d="M474,492a27.2,27.2,0,0,0,7.69-4.28L480.14,492l1.55,4.28A27.18,27.18,0,0,0,474,492Z" fill="#666"/>
    </g>
    <g>
      <line x1="426" y1="107.82" x2="426" y2="132.57" fill="none" stroke="#666" stroke-miterlimit="10" stroke-width="1.5"/>
      <path d="M426,138a27.2,27.2,0,0,0-4.28-7.69l4.28,1.55,4.28-1.55A27.18,27.18,0,0,0,426,138Z" fill="#666"/>
    </g>
    <g>
      <line x1="426" y1="179.82" x2="426" y2="204.57" fill="none" stroke="#666" stroke-miterlimit="10" stroke-width="1.5"/>
      <path d="M426,210a27.2,27.2,0,0,0-4.28-7.69l4.28,1.55,4.28-1.55A27.17,27.17,0,0,0,426,210Z" fill="#666"/>
    </g>
    <g>
      <line x1="426" y1="240" x2="426" y2="264.75" fill="none" stroke="#666" stroke-miterlimit="10" stroke-width="1.5"/>
      <path d="M426,270.18a27.2,27.2,0,0,0-4.28-7.69L426,264l4.28-1.55A27.18,27.18,0,0,0,426,270.18Z" fill="#666"/>
    </g>
    <g>
      <line x1="426" y1="311.82" x2="426" y2="336.57" fill="none" stroke="#666" stroke-miterlimit="10" stroke-width="1.5"/>
      <path d="M426,342a27.2,27.2,0,0,0-4.28-7.69l4.28,1.55,4.28-1.55A27.18,27.18,0,0,0,426,342Z" fill="#666"/>
    </g>
    <g>
      <line x1="426" y1="371.82" x2="426" y2="396.57" fill="none" stroke="#666" stroke-miterlimit="10" stroke-width="1.5"/>
      <path d="M426,402a27.2,27.2,0,0,0-4.28-7.69l4.28,1.55,4.28-1.55A27.18,27.18,0,0,0,426,402Z" fill="#666"/>
    </g>
    <g>
      <line x1="426" y1="444" x2="426" y2="468.75" fill="none" stroke="#666" stroke-miterlimit="10" stroke-width="1.5"/>
      <path d="M426,474.18a27.2,27.2,0,0,0-4.28-7.69L426,468l4.28-1.55A27.18,27.18,0,0,0,426,474.18Z" fill="#666"/>
    </g>
    <g>
      <line x1="426" y1="503.82" x2="426" y2="528.57" fill="none" stroke="#666" stroke-miterlimit="10" stroke-width="1.5"/>
      <path d="M426,534a27.2,27.2,0,0,0-4.28-7.69l4.28,1.55,4.28-1.55A27.18,27.18,0,0,0,426,534Z" fill="#666"/>
    </g>
    <g>
      <line x1="426" y1="576.82" x2="426" y2="601.57" fill="none" stroke="#666" stroke-miterlimit="10" stroke-width="1.5"/>
      <path d="M426,607a27.2,27.2,0,0,0-4.28-7.69l4.28,1.55,4.28-1.55A27.18,27.18,0,0,0,426,607Z" fill="#666"/>
    </g>
    <g>
      <line x1="426" y1="635.82" x2="426" y2="660.57" fill="none" stroke="#666" stroke-miterlimit="10" stroke-width="1.5"/>
      <path d="M426,666a27.2,27.2,0,0,0-4.28-7.69l4.28,1.55,4.28-1.55A27.18,27.18,0,0,0,426,666Z" fill="#666"/>
    </g>
    <g>
      <path d="M665.75,312v32a10,10,0,0,1-10,10H479.43" fill="none" stroke="#666" stroke-miterlimit="10" stroke-width="1.5"/>
      <path d="M474,354a27.2,27.2,0,0,0,7.69-4.28L480.14,354l1.55,4.28A27.18,27.18,0,0,0,474,354Z" fill="#666"/>
    </g>
  </g>
  <g>
    <g opacity="0.1">
      <rect x="385" y="614" width="84" height="24" rx="12" ry="12"/>
      <rect x="385" y="614" width="84" height="24" rx="12" ry="12" fill="none" stroke="#000" stroke-miterlimit="10" stroke-width="1.5"/>
    </g>
    <g>
      <rect x="384" y="612" width="84" height="24" rx="12" ry="12" fill="#fff"/>
      <rect x="384" y="612" width="84" height="24" rx="12" ry="12" fill="none" stroke="#666" stroke-miterlimit="10" stroke-width="1.5"/>
    </g>
  </g>
  <g>
    <g opacity="0.1">
      <rect x="385" y="482" width="84" height="24" rx="12" ry="12"/>
      <rect x="385" y="482" width="84" height="24" rx="12" ry="12" fill="none" stroke="#000" stroke-miterlimit="10" stroke-width="1.5"/>
    </g>
    <g>
      <rect x="384" y="480" width="84" height="24" rx="12" ry="12" fill="#fff"/>
      <rect x="384" y="480" width="84" height="24" rx="12" ry="12" fill="none" stroke="#666" stroke-miterlimit="10" stroke-width="1.5"/>
    </g>
  </g>
  <g>
    <g opacity="0.1">
      <rect x="385" y="350" width="84" height="24" rx="12" ry="12"/>
      <rect x="385" y="350" width="84" height="24" rx="12" ry="12" fill="none" stroke="#000" stroke-miterlimit="10" stroke-width="1.5"/>
    </g>
    <g>
      <rect x="384" y="348" width="84" height="24" rx="12" ry="12" fill="#fff"/>
      <rect x="384" y="348" width="84" height="24" rx="12" ry="12" fill="none" stroke="#666" stroke-miterlimit="10" stroke-width="1.5"/>
    </g>
  </g>
  <g>
    <g opacity="0.1">
      <rect x="385" y="218" width="84" height="24" rx="12" ry="12"/>
      <rect x="385" y="218" width="84" height="24" rx="12" ry="12" fill="none" stroke="#000" stroke-miterlimit="10" stroke-width="1.5"/>
    </g>
    <g>
      <rect x="384" y="216" width="84" height="24" rx="12" ry="12" fill="#fff"/>
      <rect x="384" y="216" width="84" height="24" rx="12" ry="12" fill="none" stroke="#666" stroke-miterlimit="10" stroke-width="1.5"/>
    </g>
  </g>
  <g>
    <g opacity="0.1">
      <rect x="385" y="86" width="84" height="24" rx="12" ry="12"/>
      <rect x="385" y="86" width="84" height="24" rx="12" ry="12" fill="none" stroke="#000" stroke-miterlimit="10" stroke-width="1.5"/>
    </g>
    <g>
      <rect x="384" y="84" width="84" height="24" rx="12" ry="12" fill="#fff"/>
      <rect x="384" y="84" width="84" height="24" rx="12" ry="12" fill="none" stroke="#666" stroke-miterlimit="10" stroke-width="1.5"/>
    </g>
  </g>
  <use id="array-5-3" data-name="array-5" width="181" height="37" transform="translate(335.25 275)" xlink:href="#array-5"/>
  <use width="181" height="37" transform="translate(575 276)" xlink:href="#array-5"/>
  <use width="181" height="37" transform="translate(335.25 407)" xlink:href="#array-5"/>
  <use width="181" height="37" transform="translate(335.25 540)" xlink:href="#array-5"/>
  <use width="181" height="37" transform="translate(335.25 671)" xlink:href="#array-5"/>
  <use width="37" height="37" transform="translate(827.5 342)" xlink:href="#array-1"/>
  <use id="array-3-3" data-name="array-3" width="108.5" height="37" transform="translate(827.5 473)" xlink:href="#array-3"/>
  <use width="181" height="37" transform="translate(335.25 143)" xlink:href="#array-5"/>
  <g id="dot">
    <use width="36" height="36" transform="translate(336 143.25)" xlink:href="#array-negative-value"/>
    <use width="36" height="36" transform="translate(372 143)" xlink:href="#array-positive-value"/>
    <use width="36" height="36" transform="translate(408 143)" xlink:href="#array-positive-value"/>
    <use width="36" height="36" transform="translate(444 143)" xlink:href="#array-positive-value"/>
    <use width="36" height="36" transform="translate(480 143)" xlink:href="#array-positive-value"/>
  </g>
  <use width="181" height="37" transform="translate(335.25 12)" xlink:href="#array-5"/>
  <g id="softmax">
    <use width="36" height="36" transform="translate(336 276)" xlink:href="#array-positive-value"/>
    <use width="36" height="36" transform="translate(372 276)" xlink:href="#array-positive-value"/>
    <use width="36" height="36" transform="translate(408 276)" xlink:href="#array-positive-value"/>
    <use width="36" height="36" transform="translate(444 276)" xlink:href="#array-positive-value"/>
    <use id="array-positive-value-19" data-name="array-positive-value" width="36" height="36" transform="translate(480 276)" xlink:href="#array-positive-value"/>
  </g>
  <g id="shift">
    <use width="36" height="36" transform="translate(828 474)" xlink:href="#array-positive-value"/>
    <use width="36" height="36" transform="translate(864 474)" xlink:href="#array-positive-value"/>
    <use width="36" height="36" transform="translate(900 474)" xlink:href="#array-positive-value"/>
  </g>
  <use id="interpolate-amount" width="36" height="36" transform="translate(828 342)" xlink:href="#array-positive-value"/>
  <g id="previous">
    <use width="36" height="36" transform="translate(575.75 276)" xlink:href="#array-positive-value"/>
    <use width="36" height="36" transform="translate(611.75 276)" xlink:href="#array-positive-value"/>
    <use width="36" height="36" transform="translate(647.75 276)" xlink:href="#array-positive-value"/>
    <use width="36" height="36" transform="translate(683.75 276)" xlink:href="#array-positive-value"/>
    <use width="36" height="36" transform="translate(719.75 276)" xlink:href="#array-positive-value"/>
  </g>
  <g id="interpolate">
    <use width="36" height="36" transform="translate(336 407)" xlink:href="#array-positive-value"/>
    <use width="36" height="36" transform="translate(372 407)" xlink:href="#array-positive-value"/>
    <use width="36" height="36" transform="translate(408 407)" xlink:href="#array-positive-value"/>
    <use width="36" height="36" transform="translate(444 407)" xlink:href="#array-positive-value"/>
    <use width="36" height="36" transform="translate(480 407)" xlink:href="#array-positive-value"/>
  </g>
  <g id="convolve">
    <use width="36" height="36" transform="translate(335.5 541)" xlink:href="#array-positive-value"/>
    <use width="36" height="36" transform="translate(372 541)" xlink:href="#array-positive-value"/>
    <use width="36" height="36" transform="translate(408 541)" xlink:href="#array-positive-value"/>
    <use width="36" height="36" transform="translate(444 541)" xlink:href="#array-positive-value"/>
    <use width="36" height="36" transform="translate(480 541)" xlink:href="#array-positive-value"/>
  </g>
  <g id="new-attention">
    <use width="36" height="36" transform="translate(336 671)" xlink:href="#array-positive-value"/>
    <use width="36" height="36" transform="translate(372 671)" xlink:href="#array-positive-value"/>
    <use width="36" height="36" transform="translate(408 671)" xlink:href="#array-positive-value"/>
    <use width="36" height="36" transform="translate(444 671)" xlink:href="#array-positive-value"/>
    <use width="36" height="36" transform="translate(480 671)" xlink:href="#array-positive-value"/>
  </g>
  <use width="37" height="37" transform="translate(827.5 77)" xlink:href="#array-1"/>
  <text transform="translate(168 81.12)" font-size="12" fill="#666" font-family="Open Sans">First, the controller gives <tspan x="0" y="18">a query vector and each </tspan><tspan x="0" y="36">memory entry is scored </tspan><tspan x="0" y="54">for similarity with the </tspan><tspan x="0" y="72">query.</tspan></text>
  <text transform="translate(169.5 212.12)" font-size="12" fill="#666" font-family="Open Sans">The scores are then <tspan x="0" y="18">converted into a </tspan><tspan x="0" y="36">distribution using </tspan><tspan x="0" y="54">softmax.</tspan></text>
  <text transform="translate(169.5 345.12)" font-size="12" fill="#666" font-family="Open Sans">Next, we interpolate the <tspan x="0" y="18">attention from the </tspan><tspan x="0" y="36">previous time step. </tspan></text>
  <text transform="translate(169.5 477.12)" font-size="12" fill="#666" font-family="Open Sans">We convolve the <tspan x="0" y="18">attention with a shift </tspan><tspan x="0" y="36">filter — this allows the </tspan><tspan x="0" y="54">controller to move its </tspan><tspan x="0" y="72">focus.</tspan></text>
  <text transform="translate(169.5 610.12)" font-size="12" fill="#666" font-family="Open Sans">Finally, we sharpen the <tspan x="0" y="18">attention distribution. </tspan><tspan x="0" y="36">This final attention </tspan><tspan x="0" y="54">distribution is fed to the </tspan><tspan x="0" y="72">read or write operation.</tspan></text>
  <g>
    <path d="M397.26,355.49a0.7,0.7,0,0,1,.19-0.52,0.72,0.72,0,0,1,.53-0.18,0.71,0.71,0,0,1,.52.18,0.7,0.7,0,0,1,.19.52,0.68,0.68,0,0,1-.19.51,0.7,0.7,0,0,1-.52.19,0.71,0.71,0,0,1-.53-0.19A0.68,0.68,0,0,1,397.26,355.49ZM398.6,363h-1.26v-5.94h1.26V363Z" fill="#666"/>
    <path d="M405.63,363h-1.27v-3.65a1.6,1.6,0,0,0-.28-1,1.07,1.07,0,0,0-.88-0.34,1.4,1.4,0,0,0-1.17.47,2.61,2.61,0,0,0-.37,1.58v3H400.4v-5.94h1l0.18,0.78h0.06a1.75,1.75,0,0,1,.76-0.66,2.55,2.55,0,0,1,1.1-.23,1.91,1.91,0,0,1,2.14,2.18V363Z" fill="#666"/>
    <path d="M409.6,362.09a3.07,3.07,0,0,0,.92-0.14v1a2.49,2.49,0,0,1-.54.15,3.73,3.73,0,0,1-.68.06,1.63,1.63,0,0,1-1.79-1.89V358h-0.81v-0.56l0.87-.46,0.43-1.26h0.78v1.32h1.69v1h-1.69v3.18a0.89,0.89,0,0,0,.23.67A0.83,0.83,0,0,0,409.6,362.09Z" fill="#666"/>
    <path d="M414.3,363.11a2.87,2.87,0,0,1-2.17-.81,3.07,3.07,0,0,1-.78-2.23,3.37,3.37,0,0,1,.73-2.29,2.5,2.5,0,0,1,2-.83,2.45,2.45,0,0,1,1.86.71,2.73,2.73,0,0,1,.68,2v0.68h-4a2,2,0,0,0,.47,1.33,1.62,1.62,0,0,0,1.24.46,4.57,4.57,0,0,0,1-.1,5.06,5.06,0,0,0,1-.33v1a3.92,3.92,0,0,1-.93.31A5.76,5.76,0,0,1,414.3,363.11Zm-0.23-5.2a1.27,1.27,0,0,0-1,.38,1.81,1.81,0,0,0-.43,1.11h2.7a1.64,1.64,0,0,0-.35-1.11A1.21,1.21,0,0,0,414.07,357.91Z" fill="#666"/>
    <path d="M421.06,357a3.08,3.08,0,0,1,.63.05l-0.12,1.18a2.39,2.39,0,0,0-.56-0.06,1.61,1.61,0,0,0-1.23.49,1.78,1.78,0,0,0-.47,1.28V363H418v-5.94h1l0.17,1h0.06a2.35,2.35,0,0,1,.77-0.84A1.84,1.84,0,0,1,421.06,357Z" fill="#666"/>
    <path d="M425.8,363.11a2.08,2.08,0,0,1-1.75-.81H424q0.08,0.75.08,0.91v2.43h-1.26v-8.58h1q0,0.17.18,0.79h0.06a2,2,0,0,1,1.77-.9,2.06,2.06,0,0,1,1.73.81,4.42,4.42,0,0,1,0,4.53A2.08,2.08,0,0,1,425.8,363.11ZM425.5,358a1.31,1.31,0,0,0-1.1.44,2.29,2.29,0,0,0-.35,1.41V360a2.78,2.78,0,0,0,.34,1.57,1.28,1.28,0,0,0,1.12.49,1.14,1.14,0,0,0,1-.54,2.77,2.77,0,0,0,.35-1.53,2.68,2.68,0,0,0-.35-1.51A1.17,1.17,0,0,0,425.5,358Z" fill="#666"/>
    <path d="M434.91,360a3.24,3.24,0,0,1-.75,2.27,2.67,2.67,0,0,1-2.08.82,2.84,2.84,0,0,1-1.47-.38,2.48,2.48,0,0,1-1-1.08,3.68,3.68,0,0,1-.34-1.63,3.22,3.22,0,0,1,.74-2.26,2.69,2.69,0,0,1,2.09-.81,2.62,2.62,0,0,1,2,.83A3.2,3.2,0,0,1,434.91,360Zm-4.32,0q0,2.06,1.52,2.06t1.5-2.06q0-2-1.51-2a1.29,1.29,0,0,0-1.15.53A2.68,2.68,0,0,0,430.59,360Z" fill="#666"/>
    <path d="M437.62,363h-1.26v-8.36h1.26V363Z" fill="#666"/>
    <path d="M443.14,363l-0.25-.83h0a2.42,2.42,0,0,1-.86.74,2.73,2.73,0,0,1-1.12.2,1.89,1.89,0,0,1-1.37-.47,1.77,1.77,0,0,1-.49-1.34,1.57,1.57,0,0,1,.68-1.39,3.94,3.94,0,0,1,2.08-.51l1,0v-0.32a1.2,1.2,0,0,0-.27-0.85,1.08,1.08,0,0,0-.82-0.28,2.84,2.84,0,0,0-.88.13,6.6,6.6,0,0,0-.81.32l-0.41-.9a4.41,4.41,0,0,1,1.06-.38,4.86,4.86,0,0,1,1.08-.13,2.57,2.57,0,0,1,1.71.49A1.94,1.94,0,0,1,444,359v4h-0.9Zm-1.88-.86a1.56,1.56,0,0,0,1.1-.38,1.39,1.39,0,0,0,.42-1.08v-0.52l-0.76,0a2.62,2.62,0,0,0-1.3.3,0.91,0.91,0,0,0-.41.81,0.79,0.79,0,0,0,.24.61A1,1,0,0,0,441.26,362.14Z" fill="#666"/>
    <path d="M448,362.09a3.07,3.07,0,0,0,.92-0.14v1a2.49,2.49,0,0,1-.54.15,3.73,3.73,0,0,1-.68.06,1.63,1.63,0,0,1-1.79-1.89V358h-0.81v-0.56L446,357l0.43-1.26h0.78v1.32h1.69v1h-1.69v3.18a0.89,0.89,0,0,0,.23.67A0.83,0.83,0,0,0,448,362.09Z" fill="#666"/>
    <path d="M452.73,363.11a2.87,2.87,0,0,1-2.17-.81,3.07,3.07,0,0,1-.78-2.23,3.37,3.37,0,0,1,.73-2.29,2.5,2.5,0,0,1,2-.83,2.45,2.45,0,0,1,1.86.71,2.73,2.73,0,0,1,.68,2v0.68h-4a2,2,0,0,0,.47,1.33,1.62,1.62,0,0,0,1.24.46,4.57,4.57,0,0,0,1-.1,5.06,5.06,0,0,0,1-.33v1a3.92,3.92,0,0,1-.93.31A5.76,5.76,0,0,1,452.73,363.11Zm-0.23-5.2a1.27,1.27,0,0,0-1,.38,1.81,1.81,0,0,0-.43,1.11h2.7a1.64,1.64,0,0,0-.35-1.11A1.21,1.21,0,0,0,452.5,357.91Z" fill="#666"/>
  </g>
  <g>
    <path d="M405.78,495.11a2.6,2.6,0,0,1-2-.79,4,4,0,0,1,0-4.56,2.72,2.72,0,0,1,2.12-.81,4,4,0,0,1,1.69.35l-0.38,1a3.84,3.84,0,0,0-1.32-.31q-1.54,0-1.54,2a2.45,2.45,0,0,0,.38,1.5,1.33,1.33,0,0,0,1.13.5,3.23,3.23,0,0,0,1.6-.42v1.1a2.49,2.49,0,0,1-.72.28A4.31,4.31,0,0,1,405.78,495.11Z" fill="#666"/>
    <path d="M414.1,492a3.24,3.24,0,0,1-.75,2.27,2.67,2.67,0,0,1-2.08.82,2.84,2.84,0,0,1-1.47-.38,2.48,2.48,0,0,1-1-1.08,3.68,3.68,0,0,1-.34-1.63,3.22,3.22,0,0,1,.74-2.26,2.69,2.69,0,0,1,2.09-.81,2.62,2.62,0,0,1,2,.83A3.2,3.2,0,0,1,414.1,492Zm-4.32,0q0,2.06,1.52,2.06t1.5-2.06q0-2-1.51-2a1.29,1.29,0,0,0-1.15.53A2.68,2.68,0,0,0,409.77,492Z" fill="#666"/>
    <path d="M420.77,495H419.5v-3.65a1.6,1.6,0,0,0-.28-1,1.07,1.07,0,0,0-.88-0.34,1.4,1.4,0,0,0-1.17.47,2.61,2.61,0,0,0-.37,1.58v3h-1.26v-5.94h1l0.18,0.78h0.06a1.75,1.75,0,0,1,.76-0.66,2.55,2.55,0,0,1,1.1-.23,1.91,1.91,0,0,1,2.14,2.18V495Z" fill="#666"/>
    <path d="M423.88,495l-2.26-5.94H423l1.21,3.45a6.85,6.85,0,0,1,.38,1.41h0a9.45,9.45,0,0,1,.38-1.41l1.21-3.45h1.34L425.25,495h-1.36Z" fill="#666"/>
    <path d="M433.68,492a3.24,3.24,0,0,1-.75,2.27,2.67,2.67,0,0,1-2.08.82,2.84,2.84,0,0,1-1.47-.38,2.48,2.48,0,0,1-1-1.08,3.68,3.68,0,0,1-.34-1.63,3.22,3.22,0,0,1,.74-2.26,2.69,2.69,0,0,1,2.09-.81,2.62,2.62,0,0,1,2,.83A3.2,3.2,0,0,1,433.68,492Zm-4.32,0q0,2.06,1.52,2.06t1.5-2.06q0-2-1.51-2a1.29,1.29,0,0,0-1.15.53A2.68,2.68,0,0,0,429.36,492Z" fill="#666"/>
    <path d="M436.4,495h-1.26v-8.36h1.26V495Z" fill="#666"/>
    <path d="M439.55,495l-2.26-5.94h1.33l1.21,3.45a6.85,6.85,0,0,1,.38,1.41h0a9.45,9.45,0,0,1,.38-1.41l1.21-3.45h1.34L440.92,495h-1.36Z" fill="#666"/>
    <path d="M446.68,495.11a2.87,2.87,0,0,1-2.17-.81,3.07,3.07,0,0,1-.78-2.23,3.37,3.37,0,0,1,.73-2.29,2.5,2.5,0,0,1,2-.83,2.45,2.45,0,0,1,1.86.71,2.73,2.73,0,0,1,.68,2v0.68h-4a2,2,0,0,0,.47,1.33,1.62,1.62,0,0,0,1.24.46,4.57,4.57,0,0,0,1-.1,5.06,5.06,0,0,0,1-.33v1a3.92,3.92,0,0,1-.93.31A5.76,5.76,0,0,1,446.68,495.11Zm-0.23-5.2a1.27,1.27,0,0,0-1,.38,1.81,1.81,0,0,0-.43,1.11h2.7a1.64,1.64,0,0,0-.35-1.11A1.21,1.21,0,0,0,446.45,489.91Z" fill="#666"/>
  </g>
  <g>
    <path d="M409.08,625.31a1.55,1.55,0,0,1-.63,1.33,3,3,0,0,1-1.82.46,4.29,4.29,0,0,1-1.91-.36v-1.09a4.68,4.68,0,0,0,1.95.48q1.17,0,1.17-.7a0.56,0.56,0,0,0-.13-0.38,1.53,1.53,0,0,0-.42-0.31,7.3,7.3,0,0,0-.82-0.37,3.81,3.81,0,0,1-1.39-.79,1.47,1.47,0,0,1-.36-1,1.35,1.35,0,0,1,.62-1.18A2.92,2.92,0,0,1,407,621a4.74,4.74,0,0,1,2,.42l-0.41,1a4.4,4.4,0,0,0-1.62-.4q-1,0-1,.57a0.57,0.57,0,0,0,.26.47,5.72,5.72,0,0,0,1.14.53,5.19,5.19,0,0,1,1.07.52,1.56,1.56,0,0,1,.49.54A1.58,1.58,0,0,1,409.08,625.31Z" fill="#666"/>
    <path d="M415.67,627H414.4v-3.65a1.6,1.6,0,0,0-.28-1,1.07,1.07,0,0,0-.88-0.34,1.39,1.39,0,0,0-1.17.48,2.62,2.62,0,0,0-.37,1.59V627h-1.26v-8.36h1.26v2.12a9.9,9.9,0,0,1-.06,1.09h0.08a1.76,1.76,0,0,1,.72-0.67,2.31,2.31,0,0,1,1.07-.24,1.92,1.92,0,0,1,2.16,2.18V627Z" fill="#666"/>
    <path d="M421.14,627l-0.25-.83h0a2.43,2.43,0,0,1-.86.74,2.73,2.73,0,0,1-1.12.2,1.89,1.89,0,0,1-1.37-.47,1.77,1.77,0,0,1-.49-1.34,1.57,1.57,0,0,1,.68-1.39,3.93,3.93,0,0,1,2.08-.51l1,0v-0.32a1.2,1.2,0,0,0-.27-0.85,1.08,1.08,0,0,0-.82-0.28,2.86,2.86,0,0,0-.88.13,6.61,6.61,0,0,0-.81.32l-0.41-.9a4.37,4.37,0,0,1,1.06-.38,4.86,4.86,0,0,1,1.08-.13,2.57,2.57,0,0,1,1.71.49A1.94,1.94,0,0,1,422,623v4h-0.9Zm-1.88-.86a1.56,1.56,0,0,0,1.1-.38,1.39,1.39,0,0,0,.42-1.08v-0.52l-0.76,0a2.62,2.62,0,0,0-1.3.3,0.91,0.91,0,0,0-.41.81,0.79,0.79,0,0,0,.24.61A1,1,0,0,0,419.26,626.14Z" fill="#666"/>
    <path d="M426.82,621a3,3,0,0,1,.63.05l-0.12,1.18a2.39,2.39,0,0,0-.56-0.06,1.61,1.61,0,0,0-1.23.49,1.79,1.79,0,0,0-.47,1.28V627H423.8v-5.94h1l0.17,1H425a2.35,2.35,0,0,1,.77-0.84A1.83,1.83,0,0,1,426.82,621Z" fill="#666"/>
    <path d="M431.56,627.11a2.08,2.08,0,0,1-1.75-.81h-0.08q0.08,0.75.08,0.91v2.43h-1.26v-8.58h1q0,0.17.18,0.79h0.06a2,2,0,0,1,1.77-.9,2.06,2.06,0,0,1,1.73.81,4.42,4.42,0,0,1,0,4.53A2.08,2.08,0,0,1,431.56,627.11ZM431.25,622a1.31,1.31,0,0,0-1.1.44,2.29,2.29,0,0,0-.35,1.41V624a2.78,2.78,0,0,0,.34,1.57,1.28,1.28,0,0,0,1.12.49,1.14,1.14,0,0,0,1-.54,2.77,2.77,0,0,0,.35-1.53,2.68,2.68,0,0,0-.35-1.51A1.17,1.17,0,0,0,431.25,622Z" fill="#666"/>
    <path d="M438,627.11a2.87,2.87,0,0,1-2.17-.81,3.07,3.07,0,0,1-.78-2.23,3.37,3.37,0,0,1,.73-2.29,2.5,2.5,0,0,1,2-.83,2.45,2.45,0,0,1,1.86.71,2.73,2.73,0,0,1,.68,2v0.68h-4a2,2,0,0,0,.47,1.33,1.63,1.63,0,0,0,1.24.46,4.57,4.57,0,0,0,1-.1,5.13,5.13,0,0,0,1-.33v1a3.88,3.88,0,0,1-.93.31A5.71,5.71,0,0,1,438,627.11Zm-0.23-5.2a1.27,1.27,0,0,0-1,.38,1.81,1.81,0,0,0-.43,1.11h2.7a1.64,1.64,0,0,0-.35-1.11A1.21,1.21,0,0,0,437.76,621.91Z" fill="#666"/>
    <path d="M447,627H445.7v-3.65a1.6,1.6,0,0,0-.28-1,1.07,1.07,0,0,0-.88-0.34,1.4,1.4,0,0,0-1.17.47A2.61,2.61,0,0,0,443,624v3h-1.26v-5.94h1l0.18,0.78H443a1.76,1.76,0,0,1,.76-0.66,2.56,2.56,0,0,1,1.1-.23,1.91,1.91,0,0,1,2.14,2.18V627Z" fill="#666"/>
  </g>
  <g>
    <path d="M409.22,229.31a1.55,1.55,0,0,1-.63,1.33,3,3,0,0,1-1.82.46,4.29,4.29,0,0,1-1.91-.36v-1.09a4.68,4.68,0,0,0,1.95.48q1.17,0,1.17-.7a0.56,0.56,0,0,0-.13-0.38,1.53,1.53,0,0,0-.42-0.31,7.3,7.3,0,0,0-.82-0.37,3.81,3.81,0,0,1-1.39-.79,1.47,1.47,0,0,1-.36-1,1.35,1.35,0,0,1,.62-1.18,2.92,2.92,0,0,1,1.67-.42,4.74,4.74,0,0,1,2,.42l-0.41,1a4.4,4.4,0,0,0-1.62-.4q-1,0-1,.57a0.57,0.57,0,0,0,.26.47,5.72,5.72,0,0,0,1.14.53,5.19,5.19,0,0,1,1.07.52,1.56,1.56,0,0,1,.49.54A1.58,1.58,0,0,1,409.22,229.31Z" fill="#666"/>
    <path d="M415.85,228a3.24,3.24,0,0,1-.75,2.27,2.67,2.67,0,0,1-2.08.82,2.85,2.85,0,0,1-1.47-.38,2.48,2.48,0,0,1-1-1.08,3.68,3.68,0,0,1-.34-1.63,3.22,3.22,0,0,1,.74-2.26,2.69,2.69,0,0,1,2.09-.81,2.62,2.62,0,0,1,2,.83A3.2,3.2,0,0,1,415.85,228Zm-4.32,0q0,2.06,1.52,2.06t1.5-2.06q0-2-1.51-2a1.29,1.29,0,0,0-1.15.53A2.68,2.68,0,0,0,411.53,228Z" fill="#666"/>
    <path d="M420.29,226h-1.45v5h-1.27v-5h-1v-0.59l1-.39v-0.39a2.16,2.16,0,0,1,.49-1.56,2,2,0,0,1,1.51-.51,4,4,0,0,1,1.31.22l-0.33,1a2.92,2.92,0,0,0-.89-0.15,0.73,0.73,0,0,0-.63.27,1.34,1.34,0,0,0-.2.8v0.39h1.45v1Z" fill="#666"/>
    <path d="M423.51,230.09a3.07,3.07,0,0,0,.92-0.15v1a2.55,2.55,0,0,1-.54.15,3.73,3.73,0,0,1-.68.06,1.63,1.63,0,0,1-1.79-1.89V226H420.6v-0.56l0.87-.46,0.43-1.26h0.78v1.32h1.69v1h-1.69v3.18a0.89,0.89,0,0,0,.23.67A0.83,0.83,0,0,0,423.51,230.09Z" fill="#666"/>
    <path d="M430.62,231h-1.27v-3.66a1.66,1.66,0,0,0-.26-1,1,1,0,0,0-.81-0.34,1.23,1.23,0,0,0-1.07.48,2.78,2.78,0,0,0-.34,1.58v3h-1.26v-5.94h1l0.18,0.78h0.06a1.64,1.64,0,0,1,.72-0.66,2.31,2.31,0,0,1,1-.23,1.81,1.81,0,0,1,1.82.93h0.09a1.81,1.81,0,0,1,.74-0.69,2.36,2.36,0,0,1,1.1-.25,2,2,0,0,1,1.55.54,2.38,2.38,0,0,1,.49,1.64V231h-1.26v-3.66a1.65,1.65,0,0,0-.26-1A1,1,0,0,0,432,226a1.25,1.25,0,0,0-1.08.46,2.37,2.37,0,0,0-.34,1.41V231Z" fill="#666"/>
    <path d="M439.85,231l-0.25-.83h0a2.43,2.43,0,0,1-.86.74,2.73,2.73,0,0,1-1.12.2,1.89,1.89,0,0,1-1.37-.47,1.77,1.77,0,0,1-.49-1.34,1.57,1.57,0,0,1,.68-1.39,3.93,3.93,0,0,1,2.08-.51l1,0v-0.32a1.2,1.2,0,0,0-.27-0.85,1.08,1.08,0,0,0-.82-0.28,2.86,2.86,0,0,0-.88.13,6.61,6.61,0,0,0-.81.32l-0.41-.9a4.37,4.37,0,0,1,1.06-.38,4.86,4.86,0,0,1,1.08-.13,2.57,2.57,0,0,1,1.71.49,1.94,1.94,0,0,1,.58,1.55v4h-0.9Zm-1.88-.86a1.56,1.56,0,0,0,1.1-.38,1.39,1.39,0,0,0,.42-1.08v-0.52l-0.76,0a2.62,2.62,0,0,0-1.3.3,0.91,0.91,0,0,0-.41.81,0.79,0.79,0,0,0,.24.61A1,1,0,0,0,438,230.14Z" fill="#666"/>
    <path d="M443.84,228l-2-2.91h1.44l1.35,2.08,1.36-2.08h1.43l-2,2.91,2.1,3H446.1l-1.47-2.22L443.18,231h-1.43Z" fill="#666"/>
  </g>
  <g>
    <path d="M397.57,99.27a2.07,2.07,0,0,1-1.73-.81,4.42,4.42,0,0,1,0-4.54,2.09,2.09,0,0,1,1.75-.81,2,2,0,0,1,1.78.86h0.06a7.54,7.54,0,0,1-.09-1V90.81h1.27v8.36h-1l-0.22-.78h-0.06A2,2,0,0,1,397.57,99.27Zm0.34-1a1.37,1.37,0,0,0,1.13-.44,2.31,2.31,0,0,0,.37-1.42V96.22a2.66,2.66,0,0,0-.37-1.6,1.36,1.36,0,0,0-1.14-.47,1.16,1.16,0,0,0-1,.54,2.77,2.77,0,0,0-.36,1.54,2.69,2.69,0,0,0,.35,1.51A1.18,1.18,0,0,0,397.91,98.25Z" fill="#666"/>
    <path d="M407.69,96.19a3.24,3.24,0,0,1-.75,2.27,2.67,2.67,0,0,1-2.08.82,2.85,2.85,0,0,1-1.47-.38,2.48,2.48,0,0,1-1-1.08,3.68,3.68,0,0,1-.34-1.63,3.22,3.22,0,0,1,.74-2.26,2.69,2.69,0,0,1,2.09-.81,2.62,2.62,0,0,1,2,.83A3.2,3.2,0,0,1,407.69,96.19Zm-4.32,0q0,2.06,1.52,2.06t1.5-2.06q0-2-1.51-2a1.29,1.29,0,0,0-1.15.53A2.68,2.68,0,0,0,403.36,96.19Z" fill="#666"/>
    <path d="M411.35,98.25a3.07,3.07,0,0,0,.92-0.15v1a2.55,2.55,0,0,1-.54.15,3.73,3.73,0,0,1-.68.06,1.63,1.63,0,0,1-1.79-1.89v-3.2h-0.81V93.62l0.87-.46,0.43-1.26h0.78v1.32h1.69v1h-1.69v3.18a0.89,0.89,0,0,0,.23.67A0.83,0.83,0,0,0,411.35,98.25Z" fill="#666"/>
    <path d="M419.33,99.27a2.08,2.08,0,0,1-1.75-.81h-0.08q0.08,0.75.08,0.91v2.43h-1.26V93.23h1q0,0.17.18,0.79h0.06a2,2,0,0,1,1.77-.9,2.06,2.06,0,0,1,1.73.81,4.42,4.42,0,0,1,0,4.53A2.08,2.08,0,0,1,419.33,99.27ZM419,94.15a1.31,1.31,0,0,0-1.1.44,2.29,2.29,0,0,0-.35,1.41v0.19a2.78,2.78,0,0,0,.34,1.57,1.28,1.28,0,0,0,1.12.49,1.14,1.14,0,0,0,1-.54,2.77,2.77,0,0,0,.35-1.53,2.68,2.68,0,0,0-.35-1.51A1.17,1.17,0,0,0,419,94.15Z" fill="#666"/>
    <path d="M426.19,93.12a3,3,0,0,1,.63.05l-0.12,1.18a2.39,2.39,0,0,0-.56-0.06,1.61,1.61,0,0,0-1.23.49,1.79,1.79,0,0,0-.47,1.28v3.1h-1.26V93.23h1l0.17,1h0.06a2.35,2.35,0,0,1,.77-0.84A1.83,1.83,0,0,1,426.19,93.12Z" fill="#666"/>
    <path d="M433.18,96.19a3.24,3.24,0,0,1-.75,2.27,2.67,2.67,0,0,1-2.08.82,2.85,2.85,0,0,1-1.47-.38,2.48,2.48,0,0,1-1-1.08,3.68,3.68,0,0,1-.34-1.63,3.22,3.22,0,0,1,.74-2.26,2.69,2.69,0,0,1,2.09-.81,2.62,2.62,0,0,1,2,.83A3.2,3.2,0,0,1,433.18,96.19Zm-4.32,0q0,2.06,1.52,2.06t1.5-2.06q0-2-1.51-2a1.29,1.29,0,0,0-1.15.53A2.68,2.68,0,0,0,428.86,96.19Z" fill="#666"/>
    <path d="M436.64,99.27a2.07,2.07,0,0,1-1.73-.81,4.42,4.42,0,0,1,0-4.54,2.09,2.09,0,0,1,1.75-.81,2,2,0,0,1,1.78.86h0.06a7.54,7.54,0,0,1-.09-1V90.81h1.27v8.36h-1l-0.22-.78h-0.06A2,2,0,0,1,436.64,99.27Zm0.34-1a1.37,1.37,0,0,0,1.13-.44,2.31,2.31,0,0,0,.37-1.42V96.22a2.66,2.66,0,0,0-.37-1.6,1.36,1.36,0,0,0-1.14-.47,1.16,1.16,0,0,0-1,.54,2.77,2.77,0,0,0-.36,1.54,2.69,2.69,0,0,0,.35,1.51A1.18,1.18,0,0,0,437,98.25Z" fill="#666"/>
    <path d="M445.68,99.17l-0.18-.78h-0.06a1.79,1.79,0,0,1-.75.65,2.5,2.5,0,0,1-1.11.24,2.18,2.18,0,0,1-1.61-.54,2.23,2.23,0,0,1-.53-1.63V93.23h1.27v3.66a1.59,1.59,0,0,0,.28,1,1.07,1.07,0,0,0,.88.34,1.39,1.39,0,0,0,1.17-.48,2.62,2.62,0,0,0,.37-1.59v-3h1.27v5.94h-1Z" fill="#666"/>
    <path d="M450.87,99.27a2.6,2.6,0,0,1-2-.79,4,4,0,0,1,0-4.56,2.72,2.72,0,0,1,2.12-.81,4,4,0,0,1,1.69.35l-0.38,1a3.83,3.83,0,0,0-1.32-.31q-1.54,0-1.54,2a2.45,2.45,0,0,0,.38,1.5,1.33,1.33,0,0,0,1.13.5,3.23,3.23,0,0,0,1.6-.42v1.1a2.49,2.49,0,0,1-.72.28A4.34,4.34,0,0,1,450.87,99.27Z" fill="#666"/>
    <path d="M456.13,98.25a3.07,3.07,0,0,0,.92-0.15v1a2.55,2.55,0,0,1-.54.15,3.73,3.73,0,0,1-.68.06A1.63,1.63,0,0,1,454,97.38v-3.2h-0.81V93.62l0.87-.46,0.43-1.26h0.78v1.32H457v1H455.3v3.18a0.89,0.89,0,0,0,.23.67A0.83,0.83,0,0,0,456.13,98.25Z" fill="#666"/>
  </g>
  <use id="query" width="36" height="36" transform="translate(828 78)" xlink:href="#array-vector"/>
  <g id="memory">
    <use width="36" height="36" transform="translate(336 12)" xlink:href="#array-vector"/>
    <use width="36" height="36" transform="translate(372 12)" xlink:href="#array-vector"/>
    <use width="36" height="36" transform="translate(408 12)" xlink:href="#array-vector"/>
    <use width="36" height="36" transform="translate(444 12)" xlink:href="#array-vector"/>
    <use width="36" height="36" transform="translate(480 12)" xlink:href="#array-vector"/>
  </g>
  <text transform="translate(528.38 33)" font-size="12" fill="#666" font-family="Open Sans">memory</text>
  <text transform="translate(529.5 155.77)" font-size="12" fill="#aaa" font-family="Open Sans" font-style="italic">Blue shows high similarity, <tspan x="0" y="18">pink high dissimilarity.</tspan></text>
  <text transform="translate(827.5 328)" font-size="12" fill="#666" font-family="Open Sans">interpolation amount</text>
  <text transform="translate(827.5 460)" font-size="12" fill="#666" font-family="Open Sans">shift filter</text>
  <text transform="translate(827.5 12)" font-size="12" fill="#666" font-family="Open Sans">RNN controller</text>
  <text transform="translate(683.32 12)" font-size="12" fill="#666" font-family="Open Sans">attention mechanism</text>
  <text transform="translate(827.5 64)" font-size="12" fill="#666" font-family="Open Sans">query vector</text>
  <text transform="translate(586.11 266)" font-size="12" fill="#666" font-family="Open Sans">attention from previous step</text>
  <text transform="translate(353.16 728)" font-size="12" fill="#666" font-family="Open Sans">new attention distribution</text>
  <circle id="query-hover" cx="845.37" cy="95.44" r="87.04" fill="#fff" fill-opacity="0"/>
  <circle id="interpolate-hover" cx="845.37" cy="357.04" r="41.37" fill="#fff" fill-opacity="0"/>
  <rect id="shift-hover" x="798" y="450" width="168" height="84" fill="#fff" fill-opacity="0"/>
</svg>
