<svg id="background" xmlns="http://www.w3.org/2000/svg" xmlns:xlink="http://www.w3.org/1999/xlink" width="984" height="276" viewBox="0 0 984 276">
  <defs>
    <symbol id="array-7" data-name="array-7" viewBox="0 0 253.5 37.5">
      <rect x="0.75" y="0.75" width="252" height="36" rx="6" ry="6" fill="#e5daf2" stroke="#8c8c8c" stroke-miterlimit="10" stroke-width="1.5"/>
      <line x1="36.25" y1="36.75" x2="36.25" y2="0.75" fill="none" stroke="#8c8c8c" stroke-miterlimit="10"/>
      <line x1="72.25" y1="36.75" x2="72.25" y2="0.75" fill="none" stroke="#8c8c8c" stroke-miterlimit="10"/>
      <line x1="108.25" y1="36.75" x2="108.25" y2="0.75" fill="none" stroke="#8c8c8c" stroke-miterlimit="10"/>
      <line x1="144.25" y1="36.75" x2="144.25" y2="0.75" fill="none" stroke="#8c8c8c" stroke-miterlimit="10"/>
      <line x1="180.25" y1="36.75" x2="180.25" y2="0.75" fill="none" stroke="#8c8c8c" stroke-miterlimit="10"/>
      <line x1="216.25" y1="36.75" x2="216.25" y2="0.75" fill="none" stroke="#8c8c8c" stroke-miterlimit="10"/>
    </symbol>
    <symbol id="array-1" data-name="array-1" viewBox="0 0 37.5 37.5">
      <rect x="0.75" y="0.75" width="36" height="36" rx="6" ry="6" fill="#e5daf2" stroke="#8c8c8c" stroke-miterlimit="10" stroke-width="1.5"/>
    </symbol>
    <symbol id="array-vector" data-name="array-vector" viewBox="0 0 36 36">
      <rect width="36" height="36" fill="#d8c2f2" opacity="0"/>
      <g opacity="0.5">
        <g>
          <line x1="18" y1="24" x2="18" y2="13.08" fill="none" stroke="#000" stroke-miterlimit="10"/>
          <polygon points="22.09 16.4 21.36 17.08 18 13.47 14.64 17.08 13.91 16.4 18 12 22.09 16.4"/>
        </g>
      </g>
    </symbol>
    <symbol id="array-positive-value" data-name="array-positive-value" viewBox="0 0 36 36">
      <rect width="36" height="36" fill="#0080f7" opacity="0"/>
      <rect x="4.42" y="4.42" width="27.17" height="27.17" rx="6" ry="6" fill="#8359b2" opacity="0.8"/>
    </symbol>
  </defs>
  <title>rnn</title>
  <g id="_Group_" data-name="&lt;Group&gt;" opacity="0.2">
    <rect x="162" y="42" width="264" height="48" rx="10" ry="10" opacity="0.04"/>
    <rect x="162" y="42" width="264" height="48" rx="10" ry="10" fill="#ff0"/>
  </g>
  <g id="paths">
    <path id="edge0" d="M186,84v66.12c0.56,24,102,24.22,102,76.88" fill="none" stroke="#8359b2" stroke-miterlimit="10" stroke-width="1.5"/>
    <path id="edge1" d="M222,84v66.12c0.56,24,68,24.22,68,76.88" fill="none" stroke="#8359b2" stroke-miterlimit="10" stroke-width="1.5"/>
    <path id="edge2" d="M258.07,84v66.12c0.56,24,33.93,24.22,33.93,76.88" fill="none" stroke="#8359b2" stroke-miterlimit="10" stroke-width="1.5"/>
    <path id="edge3" d="M294,84V228" fill="none" stroke="#8359b2" stroke-miterlimit="10" stroke-width="1.5"/>
    <path id="edge4" d="M330,84v66.12c-0.56,24-34,24.22-34,76.88" fill="none" stroke="#8359b2" stroke-miterlimit="10" stroke-width="1.5"/>
    <path id="edge5" d="M366,84v66.12c-0.56,24-68,24.22-68,76.88" fill="none" stroke="#8359b2" stroke-miterlimit="10" stroke-width="1.5"/>
    <path id="edge6" d="M402,84v66.12c-0.56,24-102,24.22-102,76.88" fill="none" stroke="#8359b2" stroke-miterlimit="10" stroke-width="1.5"/>
  </g>
  <rect x="200.95" y="18" width="37.55" height="18" fill="#ffffcd"/>
  <use id="array-7-3" data-name="array-7" width="253.5" height="37.5" transform="translate(167.75 47.75)" xlink:href="#array-7"/>
  <use id="array-7-6" data-name="array-7" width="253.5" height="37.5" transform="translate(167.75 106.75)" xlink:href="#array-7"/>
  <use id="array-1-3" data-name="array-1" width="37.5" height="37.5" transform="translate(275.75 226.75)" xlink:href="#array-1"/>
  <g opacity="0.6">
    <text transform="translate(432 72)" font-size="12" font-family="Open Sans">attention</text>
  </g>
  <text transform="translate(168.42 29.28)" font-size="12" fill="#aaa" font-family="Open Sans" font-style="italic">Hover yellow objects to change values</text>
  <g opacity="0.6">
    <text transform="translate(432 132)" font-size="12" font-family="Open Sans">memory</text>
  </g>
  <g opacity="0.6">
    <text transform="translate(324 252)" font-size="12" font-family="Open Sans">read result</text>
  </g>
  <use id="read-result" width="36" height="36" transform="translate(277 228)" xlink:href="#array-vector"/>
  <g id="attention">
    <use id="array-positive-value-3" data-name="array-positive-value" width="36" height="36" transform="translate(168 48)" xlink:href="#array-positive-value"/>
    <use width="36" height="36" transform="translate(204 48)" xlink:href="#array-positive-value"/>
    <use width="36" height="36" transform="translate(240 48)" xlink:href="#array-positive-value"/>
    <use width="36" height="36" transform="translate(276 48)" xlink:href="#array-positive-value"/>
    <use width="36" height="36" transform="translate(312 48)" xlink:href="#array-positive-value"/>
    <use width="36" height="36" transform="translate(348 48)" xlink:href="#array-positive-value"/>
    <use width="36" height="36" transform="translate(384 48)" xlink:href="#array-positive-value"/>
  </g>
  <g id="memory">
    <use width="36" height="36" transform="translate(168 108)" xlink:href="#array-vector"/>
    <use width="36" height="36" transform="translate(204 108)" xlink:href="#array-vector"/>
    <use width="36" height="36" transform="translate(240 108)" xlink:href="#array-vector"/>
    <use width="36" height="36" transform="translate(276 108)" xlink:href="#array-vector"/>
    <use width="36" height="36" transform="translate(312 108)" xlink:href="#array-vector"/>
    <use width="36" height="36" transform="translate(348 108)" xlink:href="#array-vector"/>
    <use id="array-vector-17" data-name="array-vector" width="36" height="36" transform="translate(384 108)" xlink:href="#array-vector"/>
  </g>
  <path d="M564.91,144.67a1.71,1.71,0,0,0,0-.2l0.12-.54a4.64,4.64,0,0,1,.25-0.76q0.15-.35.37-0.81a2.63,2.63,0,0,1,.49-0.74,5.53,5.53,0,0,1,.64-0.54,1.12,1.12,0,0,1,.81-0.22,2.59,2.59,0,0,1,1.26.3,3,3,0,0,1,.76.54,1.06,1.06,0,0,1,.27.49,0.26,0.26,0,0,0,.07.15,0.87,0.87,0,0,0,.2-0.17,3.63,3.63,0,0,1,2.74-1.28H573a1.93,1.93,0,0,1,1.78,1,2.34,2.34,0,0,1,.2.91,2,2,0,0,1-.32,1.18,1.53,1.53,0,0,1-.64.57,1.39,1.39,0,0,1-.62.1,1.12,1.12,0,0,1-.79-0.27,0.92,0.92,0,0,1-.3-0.72,1.6,1.6,0,0,1,1.38-1.58,1.88,1.88,0,0,0-.89-0.32,3.18,3.18,0,0,0-2.54,1.83,3.28,3.28,0,0,0-.37.81q-0.12.42-.84,3.28-0.84,3.45-1,3.68a1.1,1.1,0,0,1-1.06.67,0.84,0.84,0,0,1-.52-0.15,0.89,0.89,0,0,1-.27-0.3,0.37,0.37,0,0,1,0-.25q0-.32,1-4.24a42.9,42.9,0,0,0,1-4.37q0-1-.64-1a1.06,1.06,0,0,0-.89.69,7.17,7.17,0,0,0-.59,1.5,7,7,0,0,1-.27.89,0.82,0.82,0,0,1-.39,0h-0.35A0.41,0.41,0,0,1,564.91,144.67Z" fill="#666"/>
  <path d="M605.64,145.32v0.27a0.61,0.61,0,0,1-.37.49H586.43l0.42,0.35a6.74,6.74,0,0,1,.72.67q0.35,0.37.81,0.91a5,5,0,0,1,.81,1.38q0.35,0.84.64,1.75a2.77,2.77,0,0,1,.12.62q0,0.27-.49.27h-0.25a0.2,0.2,0,0,1-.15-0.1,1,1,0,0,1-.12-0.22,2.39,2.39,0,0,1-.1-0.47,7.53,7.53,0,0,0-1.68-3.21,7.61,7.61,0,0,0-3-2.1,1,1,0,0,1-.44-0.27,0.29,0.29,0,0,1,.1-0.25,1.64,1.64,0,0,1,.35-0.17,7.58,7.58,0,0,0,2.1-1.23,7.32,7.32,0,0,0,1.41-1.5,8.49,8.49,0,0,0,.79-1.46,12.1,12.1,0,0,0,.42-1.13l0.07-.42a1.82,1.82,0,0,1,.07-0.2,0.27,0.27,0,0,1,.12-0.1,0.76,0.76,0,0,1,.32,0q0.49,0,.49.27a2.77,2.77,0,0,1-.12.62,10.39,10.39,0,0,1-.62,1.7,7.12,7.12,0,0,1-.79,1.33q-0.42.54-.76,0.91a7.36,7.36,0,0,1-.74.69l-0.49.42h18.85a0.61,0.61,0,0,1,.37.49v-0.27Z" fill="#666"/>
  <path d="M615.36,128.37s5,0,14.93,0h14.85l1.43,3.33q1.46,3.4,1.55,3.6h-1L647,134.9a8.34,8.34,0,0,0-1.38-1.92,10.35,10.35,0,0,0-2.74-1.9,13.51,13.51,0,0,0-3.48-1.06,28.7,28.7,0,0,0-3.73-.42q-1.75-.07-4.51-0.1H620.08l0.2,0.27q11.42,15.62,11.47,15.76a0.22,0.22,0,0,1,0,.15l-6.51,7.45-6.51,7.4s1.74,0,5.21,0h3.48q2.2,0,3.16,0,3.36,0,5.43-.12a31.69,31.69,0,0,0,4.12-.52,11.36,11.36,0,0,0,3.48-1.21,9.25,9.25,0,0,0,2.54-2.15,7.82,7.82,0,0,0,1-1.78h1s-0.06.19-.17,0.52-0.32.86-.62,1.6-0.55,1.43-.76,2.07l-1.43,3.82-14.83,0q-14.85,0-14.93,0a0.21,0.21,0,0,1-.15-0.22,0.38,0.38,0,0,1,0-.15l13.15-15s-0.27-.39-0.81-1.11-1.41-1.91-2.59-3.55-2.25-3.11-3.21-4.39l-6.56-9,0-.37A0.8,0.8,0,0,1,615.36,128.37Z" fill="#666"/>
  <path d="M629.05,173.52a1.91,1.91,0,0,1,.16-0.54,8.37,8.37,0,0,1,.42-0.89,2.88,2.88,0,0,1,.77-0.89,1.58,1.58,0,0,1,1-.38,1.65,1.65,0,0,1,1.13.4,1.42,1.42,0,0,1,.47,1.08,3.38,3.38,0,0,1-.24,1q-0.24.68-.7,1.83t-0.73,2a2.86,2.86,0,0,0-.09.56q0,0.44.3,0.44a1.15,1.15,0,0,0,.33-0.05,1.19,1.19,0,0,0,.4-0.24,2.36,2.36,0,0,0,.47-0.61,5.07,5.07,0,0,0,.44-1,0.72,0.72,0,0,1,.09-0.24,0.64,0.64,0,0,1,.3,0q0.35,0,.35.17a1.91,1.91,0,0,1-.16.54,6.87,6.87,0,0,1-.44.89,2.91,2.91,0,0,1-.79.87,1.76,1.76,0,0,1-1.08.38,1.64,1.64,0,0,1-1-.37,1.37,1.37,0,0,1-.49-1.12,1.75,1.75,0,0,1,.09-0.56q0.09-.26.75-2t0.77-2.11a2.89,2.89,0,0,0,.12-0.68q0-.42-0.3-0.42h0a1.22,1.22,0,0,0-1,.58,4.06,4.06,0,0,0-.66,1.47l0,0.05a0.13,0.13,0,0,0,0,.05,0,0,0,0,1,0,0l-0.05,0h-0.45A0.29,0.29,0,0,1,629.05,173.52Zm2.84-5.46a1,1,0,0,1,.33-0.73A1.15,1.15,0,0,1,633,167a0.71,0.71,0,0,1,.52.21,0.77,0.77,0,0,1,.23.52,1,1,0,0,1-.35.73,1.17,1.17,0,0,1-.77.35,0.79,0.79,0,0,1-.49-0.17A0.72,0.72,0,0,1,631.9,168.06Z" fill="#666"/>
  <path d="M662.29,143.66a2.23,2.23,0,0,0-.12-0.54,2.35,2.35,0,0,0-.57-0.86,1.58,1.58,0,0,0-1.13-.49,2.37,2.37,0,0,0-1.65.76,5.16,5.16,0,0,0-1.23,2,19.7,19.7,0,0,0-1,4v0.27a1.32,1.32,0,0,1,0,.3,2.07,2.07,0,0,0,.44,1.53,1.59,1.59,0,0,0,1.06.44,2.79,2.79,0,0,0,1.85-.81A4.15,4.15,0,0,0,661,149q0-.1.67-2.64T662.29,143.66Zm-7.85,4.22a7.29,7.29,0,0,1,1.88-4.74,5.52,5.52,0,0,1,4.22-2.27,2.8,2.8,0,0,1,2.22,1.21,1.23,1.23,0,0,1,1.13-.74,0.88,0.88,0,0,1,.57.2,0.61,0.61,0,0,1,.25.49q0,0.32-.91,3.95t-0.94,4.1a1.32,1.32,0,0,0,.17.81,0.72,0.72,0,0,0,.52.22,1.07,1.07,0,0,0,.49-0.22,5.59,5.59,0,0,0,1-2.37,0.92,0.92,0,0,1,.25-0.52,0.72,0.72,0,0,1,.25,0h0.1q0.47,0,.47.22a3.91,3.91,0,0,1-.12.67,7.74,7.74,0,0,1-.49,1.33,4.2,4.2,0,0,1-.79,1.23,2.44,2.44,0,0,1-.79.52,2.63,2.63,0,0,1-.59,0,2.52,2.52,0,0,1-1.41-.37,1.89,1.89,0,0,1-.74-0.76L661,150.5s0,0-.1,0l-0.1.1a4.33,4.33,0,0,1-3,1.38,3.37,3.37,0,0,1-2.39-1A4.16,4.16,0,0,1,654.44,147.88Z" fill="#666"/>
  <path d="M667,150.45a1.91,1.91,0,0,1,.16-0.54,8.37,8.37,0,0,1,.42-0.89,2.88,2.88,0,0,1,.77-0.89,1.58,1.58,0,0,1,1-.38,1.65,1.65,0,0,1,1.13.4,1.42,1.42,0,0,1,.47,1.08,3.38,3.38,0,0,1-.24,1q-0.24.68-.7,1.83t-0.73,2a2.86,2.86,0,0,0-.09.56q0,0.44.3,0.44a1.15,1.15,0,0,0,.33-0.05,1.19,1.19,0,0,0,.4-0.24,2.36,2.36,0,0,0,.47-0.61,5.07,5.07,0,0,0,.44-1,0.72,0.72,0,0,1,.09-0.24,0.64,0.64,0,0,1,.3,0q0.35,0,.35.17a1.91,1.91,0,0,1-.16.54,6.87,6.87,0,0,1-.44.89,2.91,2.91,0,0,1-.79.87,1.76,1.76,0,0,1-1.08.38,1.64,1.64,0,0,1-1-.37,1.37,1.37,0,0,1-.49-1.12,1.75,1.75,0,0,1,.09-0.56q0.09-.26.75-2t0.77-2.11a2.89,2.89,0,0,0,.12-0.68q0-.42-0.3-0.42h0a1.22,1.22,0,0,0-1,.58,4.06,4.06,0,0,0-.66,1.47l0,0.05a0.13,0.13,0,0,0,0,.05,0,0,0,0,1,0,0l-0.05,0h-0.45A0.29,0.29,0,0,1,667,150.45Zm2.84-5.46a1,1,0,0,1,.33-0.73,1.15,1.15,0,0,1,.77-0.33,0.71,0.71,0,0,1,.52.21,0.77,0.77,0,0,1,.23.52,1,1,0,0,1-.35.73,1.17,1.17,0,0,1-.77.35,0.79,0.79,0,0,1-.49-0.17A0.72,0.72,0,0,1,669.89,145Z" fill="#666"/>
  <path d="M682.3,136.24a2.69,2.69,0,0,0-1.41-.2,7.1,7.1,0,0,1-.76,0,0.21,0.21,0,0,1-.17-0.25s0-.11,0-0.27l0-.17a0.74,0.74,0,0,0,0-.12,0.43,0.43,0,0,1,0-.12q0-.1,0-0.07s0,0,.1,0a0.13,0.13,0,0,1,.12,0,0.35,0.35,0,0,0,.2,0l0.3,0h0.74l1.11,0H685a0.49,0.49,0,0,1,.39.12q0,0.1.91,7l0.89,6.88,0.57-.91q0.59-.89,1.58-2.47L691.5,142q4.32-6.88,4.37-6.93l0.07-.07L696,135l0.15,0h3.36a6,6,0,0,0,.72,0q0.84,0,.84.27a2,2,0,0,1-.07.42q-0.07.3-.07,0.32a1.46,1.46,0,0,1-.91.15,11,11,0,0,0-1.26.07,0.71,0.71,0,0,0-.44.27q-0.07.12-1.78,7t-1.73,6.93a0.2,0.2,0,0,0,0,.12l0.17,0.1a0.79,0.79,0,0,0,.42,0,4,4,0,0,1,.81,0H697a0.89,0.89,0,0,1,.15.27,1.63,1.63,0,0,1-.17.74,0.54,0.54,0,0,1-.39.12l-1,0q-0.89,0-2.27,0h-2.27a7.28,7.28,0,0,0-.86,0q-0.42,0-.42-0.25s0-.15,0-0.35a0.77,0.77,0,0,1,.2-0.44,2,2,0,0,1,.57-0.07q0.67,0,1.48-.07a0.66,0.66,0,0,0,.47-0.3q0-.1.94-3.6t1.75-7l0.86-3.48-4.79,7.62q-4.84,7.7-5,7.82l-0.1,0a0.8,0.8,0,0,1-.39.07,0.44,0.44,0,0,1-.44-0.17q0-.1-1-7.65l-1-7.57L681.75,143q-1.65,6.56-1.65,6.78,0.15,0.81,1.78.81h0.25a0.48,0.48,0,0,1,.17.22,1.15,1.15,0,0,1-.07.44,0.77,0.77,0,0,1-.2.44,1.17,1.17,0,0,1-.27,0h-0.3l-0.84,0q-0.59,0-1.58,0l-1.53,0-0.91,0a1.33,1.33,0,0,1-.47,0,0.22,0.22,0,0,1-.1-0.22,2.62,2.62,0,0,1,.07-0.35,1.5,1.5,0,0,1,.12-0.37,0.58,0.58,0,0,1,.54-0.15,2.18,2.18,0,0,0,2.2-1q0.1-.15,1.7-6.61T682.3,136.24Z" fill="#666"/>
  <path d="M699.46,150.45a1.91,1.91,0,0,1,.16-0.54A8.39,8.39,0,0,1,700,149a2.88,2.88,0,0,1,.77-0.89,1.58,1.58,0,0,1,1-.38,1.65,1.65,0,0,1,1.13.4,1.42,1.42,0,0,1,.47,1.08,3.38,3.38,0,0,1-.24,1q-0.24.68-.7,1.83t-0.73,2a2.86,2.86,0,0,0-.09.56q0,0.44.3,0.44a1.15,1.15,0,0,0,.33-0.05,1.19,1.19,0,0,0,.4-0.24,2.36,2.36,0,0,0,.47-0.61,5.06,5.06,0,0,0,.44-1,0.72,0.72,0,0,1,.09-0.24,0.64,0.64,0,0,1,.3,0q0.35,0,.35.17a1.91,1.91,0,0,1-.16.54,6.87,6.87,0,0,1-.44.89,2.91,2.91,0,0,1-.79.87,1.76,1.76,0,0,1-1.08.38,1.64,1.64,0,0,1-1-.37,1.37,1.37,0,0,1-.49-1.12,1.75,1.75,0,0,1,.09-0.56q0.09-.26.75-2t0.77-2.11a2.89,2.89,0,0,0,.12-0.68q0-.42-0.3-0.42h0a1.22,1.22,0,0,0-1,.58,4.06,4.06,0,0,0-.66,1.47l0,0.05a0.13,0.13,0,0,0,0,.05,0,0,0,0,1,0,0l-0.05,0h-0.45A0.29,0.29,0,0,1,699.46,150.45Zm2.84-5.46a1,1,0,0,1,.33-0.73,1.15,1.15,0,0,1,.77-0.33,0.71,0.71,0,0,1,.52.21,0.77,0.77,0,0,1,.23.52,1,1,0,0,1-.35.73,1.17,1.17,0,0,1-.77.35,0.79,0.79,0,0,1-.49-0.17A0.72,0.72,0,0,1,702.31,145Z" fill="#666"/>
</svg>
