<svg id="background" xmlns="http://www.w3.org/2000/svg" xmlns:xlink="http://www.w3.org/1999/xlink" width="984" height="264" viewBox="0 0 984 264">
  <defs>
    <symbol id="op-bg" data-name="op-bg" viewBox="0 0 22.5 22.5">
      <circle cx="11.25" cy="11.25" r="11.25" fill="#798294"/>
    </symbol>
    <symbol id="op-sum" data-name="op-sum" viewBox="0 0 22.5 22.5">
      <use id="op-bg-3" data-name="op-bg" width="22.5" height="22.5" xlink:href="#op-bg"/>
      <path d="M7.13,11.75V10.43h3.41V7h1.34v3.43h3.41v1.31H11.87v3.42H10.54V11.75H7.13Z" fill="#fff"/>
    </symbol>
    <symbol id="op-x" data-name="op-x" viewBox="0 0 22.5 22.5">
      <use width="22.5" height="22.5" xlink:href="#op-bg"/>
      <path d="M8.41,14.53l-1-1L10,11,7.41,8.41l1-1L11,10l2.56-2.56,1,1L12,11l2.57,2.57-1,1L11,12Z" fill="#fff"/>
    </symbol>
    <symbol id="rnn-bg" data-name="rnn-bg" viewBox="0 0 48 48">
      <rect width="48" height="48" rx="6" ry="6" fill="#798294"/>
    </symbol>
    <symbol id="rnn-s" data-name="rnn-s" viewBox="0 0 48 48">
      <use id="rnn-bg-3" data-name="rnn-bg" width="48" height="48" xlink:href="#rnn-bg"/>
      <text transform="translate(16.74 31)" font-size="21.77" fill="#fff" font-family="Helvetica">S</text>
    </symbol>
    <symbol id="op-sum_2" data-name="op-sum 2" viewBox="0 0 22.5 22.5">
      <use width="22.5" height="22.5" xlink:href="#op-bg"/>
      <path d="M9.13,8.33a1.77,1.77,0,0,1,.69-1.47,3,3,0,0,1,1.89-.54,4.84,4.84,0,0,1,1.87.38v1.1a5.22,5.22,0,0,0-1.88-.4,1.57,1.57,0,0,0-.93.25,0.78,0.78,0,0,0-.35.67q0,0.74,1.51,1.26A4.6,4.6,0,0,1,14.14,11a3.75,3.75,0,0,1,.74,2.26v0.27a4.23,4.23,0,0,1-.4,1.87,3,3,0,0,1-1.15,1.28,3.29,3.29,0,0,1-1.74.45,3.08,3.08,0,0,1-2.42-1,3.86,3.86,0,0,1-.9-2.66V13.38a3.42,3.42,0,0,1,.64-2,2.76,2.76,0,0,1,1.63-1.14v0a2.36,2.36,0,0,1-1-.75A1.76,1.76,0,0,1,9.13,8.33Zm0.42,5.2a3,3,0,0,0,.55,1.89,1.8,1.8,0,0,0,1.49.69,1.79,1.79,0,0,0,1.48-.69,3.23,3.23,0,0,0,.55-2A2.67,2.67,0,0,0,13,11.71a2.35,2.35,0,0,0-1.43-.92,1.81,1.81,0,0,0-1.49.7A3.19,3.19,0,0,0,9.55,13.53Z" fill="#fff"/>
    </symbol>
    <symbol id="op-halo" data-name="op-halo" viewBox="0 0 31.45 31.45">
      <circle cx="15.73" cy="15.73" r="14.73" fill="#e6eaf2" stroke="#fff" stroke-miterlimit="10" stroke-width="2"/>
    </symbol>
    <symbol id="op-sum_5" data-name="op-sum 5" viewBox="0 0 22.5 22.5">
      <use id="op-bg-14" data-name="op-bg" width="22.5" height="22.5" xlink:href="#op-bg"/>
      <g>
        <path d="M10.21,11.9L3.46,14.57V13.51L9,11.39,3.46,9.28V8.22l6.75,2.68v1Z" fill="#fff"/>
        <path d="M15.59,10.7H14.73q-0.37,0-.73,0a1.84,1.84,0,0,0-.66.17,1,1,0,0,0-.46.42,1.19,1.19,0,0,0-.21.73,1.13,1.13,0,0,0,.2.67,1.4,1.4,0,0,0,.46.43,2.73,2.73,0,0,0,1.33.3,3,3,0,0,0,1.54-.37,1.66,1.66,0,0,0,.73-1.28h1.34a2.55,2.55,0,0,1-1.09,2.09,4,4,0,0,1-2.32.7,7.39,7.39,0,0,1-1.28-.11,4.23,4.23,0,0,1-1.17-.38A2.21,2.21,0,0,1,11.23,12a1.72,1.72,0,0,1,.55-1.3,2.33,2.33,0,0,1,1.2-.66v0a2.71,2.71,0,0,1-1.07-.69,1.56,1.56,0,0,1-.43-1.14,1.8,1.8,0,0,1,.3-1,2,2,0,0,1,.74-0.69,4.19,4.19,0,0,1,2-.52,4.65,4.65,0,0,1,2.34.55,2.37,2.37,0,0,1,1.05,2H16.61A1.21,1.21,0,0,0,16,7.42a3.21,3.21,0,0,0-1.36-.29,2.53,2.53,0,0,0-1.1.24,1,1,0,0,0-.58,1,1,1,0,0,0,.58,1,2.79,2.79,0,0,0,1.2.22h0.88V10.7Z" fill="#fff"/>
      </g>
    </symbol>
    <symbol id="op-sum_4" data-name="op-sum 4" viewBox="0 0 22.5 22.5">
      <use id="op-bg-17" data-name="op-bg" width="22.5" height="22.5" xlink:href="#op-bg"/>
      <path d="M6.76,10.46h9v1.15h-9V10.46Z" fill="#fff"/>
    </symbol>
    <symbol id="op-sum_3" data-name="op-sum 3" viewBox="0 0 22.5 22.5">
      <use id="op-bg-20" data-name="op-bg" width="22.5" height="22.5" xlink:href="#op-bg"/>
      <path d="M8.9,9.27V8.46a4.3,4.3,0,0,0,1.59-.37,1.83,1.83,0,0,0,.67-1.23H12v8.36H10.87V9.27h-2Z" fill="#fff"/>
    </symbol>
    <symbol id="rnn-sigma" data-name="rnn-sigma" viewBox="0 0 24 24">
      <use id="rnn-bg-12" data-name="rnn-bg" width="48" height="48" transform="scale(0.5)" xlink:href="#rnn-bg"/>
      <path d="M18.54,8.25H16.07a5.39,5.39,0,0,1,1.41,3.87,6.62,6.62,0,0,1-1.37,4.36A5.13,5.13,0,0,1,12,18.21,5,5,0,0,1,7.9,16.44a6.66,6.66,0,0,1-1.37-4.32A5.73,5.73,0,0,1,8,8a5.22,5.22,0,0,1,4-1.58,6.18,6.18,0,0,1,1.67.21h4.88V8.25Zm-3.16,4.11a5.89,5.89,0,0,0-.74-2.92A2.87,2.87,0,0,0,12,8,2.86,2.86,0,0,0,9.38,9.38a5.53,5.53,0,0,0-.77,3,4.82,4.82,0,0,0,.91,3A2.89,2.89,0,0,0,12,16.65a2.88,2.88,0,0,0,2.58-1.33A5.37,5.37,0,0,0,15.39,12.37Z" fill="#fff"/>
    </symbol>
  </defs>
  <title>rnn</title>
  <g>
    <rect x="168" y="13.25" width="600" height="238.75" rx="10" ry="10" fill="#e6eaf2"/>
    <line x1="336" y1="39" x2="336" y2="264" stroke="#fff" stroke-miterlimit="10" stroke-width="2"/>
    <line x1="528" y1="39" x2="528" y2="264" stroke="#fff" stroke-miterlimit="10" stroke-width="2"/>
    <line x1="720" y1="39" x2="720" y2="264" stroke="#fff" stroke-miterlimit="10" stroke-width="2"/>
  </g>
  <g opacity="0.2">
    <g>
      <path d="M384,240H581.5a6,6,0,0,0,6-6V206.52" fill="none" stroke="#8c8c8c" stroke-miterlimit="10" stroke-width="2"/>
      <polygon points="593.23 211.16 592.2 212.11 587.5 207.06 582.8 212.11 581.78 211.16 587.5 205 593.23 211.16" fill="#8c8c8c"/>
    </g>
    <g>
      <path d="M395.5,206.52V234a6,6,0,0,1-6,6H210a6,6,0,0,0-6,6v18h0V204" fill="none" stroke="#8c8c8c" stroke-miterlimit="10" stroke-width="2"/>
      <polygon points="389.77 211.16 390.8 212.11 395.5 207.06 400.2 212.11 401.22 211.16 395.5 205 389.77 211.16" fill="#8c8c8c"/>
    </g>
    <g>
      <line x1="156" y1="180" x2="178.48" y2="180" fill="none" stroke="#8c8c8c" stroke-miterlimit="10" stroke-width="2"/>
      <polygon points="173.84 185.73 172.89 184.7 177.94 180 172.89 175.3 173.84 174.28 180 180 173.84 185.73" fill="#8c8c8c"/>
    </g>
    <g>
      <line x1="750" y1="72" x2="778.48" y2="72" fill="none" stroke="#8c8c8c" stroke-miterlimit="10" stroke-width="2"/>
      <polygon points="773.84 77.72 772.89 76.7 777.94 72 772.89 67.3 773.84 66.27 780 72 773.84 77.72" fill="#8c8c8c"/>
    </g>
    <g>
      <line x1="228" y1="180" x2="370.48" y2="180" fill="none" stroke="#8c8c8c" stroke-miterlimit="10" stroke-width="2"/>
      <polygon points="365.84 185.73 364.89 184.7 369.94 180 364.89 175.3 365.84 174.28 372 180 365.84 185.73" fill="#8c8c8c"/>
    </g>
    <g>
      <line x1="420" y1="180" x2="562.48" y2="180" fill="none" stroke="#8c8c8c" stroke-miterlimit="10" stroke-width="2"/>
      <polygon points="557.84 185.73 556.89 184.7 561.94 180 556.89 175.3 557.84 174.28 564 180 557.84 185.73" fill="#8c8c8c"/>
    </g>
    <g>
      <path d="M228,180h18a6,6,0,0,0,6-6V145.52" fill="none" stroke="#8c8c8c" stroke-miterlimit="10" stroke-width="2"/>
      <polygon points="257.73 150.16 256.7 151.11 252 146.05 247.3 151.11 246.28 150.16 252 144 257.73 150.16" fill="#8c8c8c"/>
    </g>
    <g>
      <path d="M420,180h18a6,6,0,0,0,6-6V145.52" fill="none" stroke="#8c8c8c" stroke-miterlimit="10" stroke-width="2"/>
      <polygon points="449.73 150.16 448.7 151.11 444 146.05 439.3 151.11 438.28 150.16 444 144 449.73 150.16" fill="#8c8c8c"/>
    </g>
    <g>
      <path d="M612,180h18a6,6,0,0,0,6-6V145.52" fill="none" stroke="#8c8c8c" stroke-miterlimit="10" stroke-width="2"/>
      <polygon points="641.73 150.16 640.7 151.11 636 146.05 631.3 151.11 630.28 150.16 636 144 641.73 150.16" fill="#8c8c8c"/>
    </g>
    <path d="M228,180h66a6,6,0,0,0,6-6V108" fill="none" stroke="#8c8c8c" stroke-miterlimit="10" stroke-width="2"/>
    <path d="M420,180h66a6,6,0,0,0,6-6V108" fill="none" stroke="#8c8c8c" stroke-miterlimit="10" stroke-width="2"/>
    <path d="M612,180h66a6,6,0,0,0,6-6V108" fill="none" stroke="#8c8c8c" stroke-miterlimit="10" stroke-width="2"/>
    <g>
      <path d="M252,132V102a6,6,0,0,1,6-6h28.48" fill="none" stroke="#8c8c8c" stroke-miterlimit="10" stroke-width="2"/>
      <polygon points="281.84 101.72 280.89 100.7 285.94 96 280.89 91.3 281.84 90.27 288 96 281.84 101.72" fill="#8c8c8c"/>
    </g>
    <g>
      <path d="M444,132V102a6,6,0,0,1,6-6h28.48" fill="none" stroke="#8c8c8c" stroke-miterlimit="10" stroke-width="2"/>
      <polygon points="473.84 101.72 472.89 100.7 477.94 96 472.89 91.3 473.84 90.27 480 96 473.84 101.72" fill="#8c8c8c"/>
    </g>
    <path d="M299.5,84V75.5a6,6,0,0,1,6-6H744" fill="none" stroke="#8c8c8c" stroke-miterlimit="10" stroke-width="2"/>
    <path d="M491.5,84V78.25a5.9,5.9,0,0,1,6-5.75H744" fill="none" stroke="#8c8c8c" stroke-miterlimit="10" stroke-width="2"/>
    <path d="M683.5,84V79.75c0-2.34,2.7-4.25,6-4.25H744" fill="none" stroke="#8c8c8c" stroke-miterlimit="10" stroke-width="2"/>
    <g>
      <line x1="640" y1="96" x2="670.48" y2="96.16" fill="none" stroke="#8c8c8c" stroke-miterlimit="10" stroke-width="2"/>
      <polygon points="665.81 101.86 664.86 100.83 669.94 96.16 664.91 91.43 665.87 90.41 672 96.17 665.81 101.86" fill="#8c8c8c"/>
    </g>
    <path d="M600,76.5V90a6,6,0,0,0,6,6h26" fill="none" stroke="#8c8c8c" stroke-miterlimit="10" stroke-width="2"/>
    <path d="M564,48h30a6,6,0,0,1,6,6V65" fill="none" stroke="#8c8c8c" stroke-miterlimit="10" stroke-width="2"/>
    <use id="op-sum-3" data-name="op-sum" width="22.5" height="22.5" transform="translate(733.5 60.75)" xlink:href="#op-sum"/>
    <use width="22.5" height="22.5" transform="translate(288.76 84)" xlink:href="#op-x"/>
    <use width="48" height="48" transform="translate(180 156)" xlink:href="#rnn-s"/>
    <use width="22.5" height="22.5" transform="translate(480.75 84)" xlink:href="#op-x"/>
    <use width="48" height="48" transform="translate(371.99 156)" xlink:href="#rnn-s"/>
    <use id="op-x-7" data-name="op-x" width="22.5" height="22.5" transform="translate(672.74 84)" xlink:href="#op-x"/>
    <use width="48" height="48" transform="translate(563.99 156)" xlink:href="#rnn-s"/>
    <use width="22.5" height="22.5" transform="translate(192.5 213)" xlink:href="#op-sum_2"/>
  </g>
  <g>
    <g>
      <line x1="252" y1="132" x2="252" y2="61.52" fill="none" stroke="#8c8c8c" stroke-miterlimit="10" stroke-width="2"/>
      <polygon points="257.73 66.16 256.7 67.11 252 62.05 247.3 67.11 246.28 66.16 252 60 257.73 66.16" fill="#8c8c8c"/>
    </g>
    <g>
      <line x1="444" y1="66.25" x2="444" y2="61.52" fill="none" stroke="#8c8c8c" stroke-miterlimit="10" stroke-width="2"/>
      <polygon points="449.73 66.16 448.7 67.11 444 62.05 439.3 67.11 438.28 66.16 444 60 449.73 66.16" fill="#8c8c8c"/>
    </g>
    <line x1="444" y1="132" x2="444" y2="60" fill="none" stroke="#8c8c8c" stroke-miterlimit="10" stroke-width="2"/>
    <g>
      <line x1="636" y1="66" x2="636" y2="61.52" fill="none" stroke="#8c8c8c" stroke-miterlimit="10" stroke-width="2"/>
      <polygon points="641.73 66.16 640.7 67.11 636 62.05 631.3 67.11 630.28 66.16 636 60 641.73 66.16" fill="#8c8c8c"/>
    </g>
    <line x1="636" y1="132" x2="636" y2="60" fill="none" stroke="#8c8c8c" stroke-miterlimit="10" stroke-width="2"/>
    <line x1="216" y1="48" x2="636" y2="48" fill="none" stroke="#8c8c8c" stroke-miterlimit="10" stroke-width="2"/>
    <g>
      <path d="M252,48.5h18a16.83,16.83,0,0,0,10.26-4.22L296,28.72a16.83,16.83,0,0,1,10.26-4.22h13.23" fill="none" stroke="#8c8c8c" stroke-miterlimit="10" stroke-width="2"/>
      <polygon points="314.84 30.22 313.89 29.2 318.94 24.5 313.89 19.8 314.84 18.77 321 24.5 314.84 30.22" fill="#8c8c8c"/>
    </g>
    <g>
      <path d="M444,48h18a17.11,17.11,0,0,0,10.31-4.18l15.63-15.15a17.11,17.11,0,0,1,10.31-4.18h13.23" fill="none" stroke="#8c8c8c" stroke-miterlimit="10" stroke-width="2"/>
      <polygon points="506.84 30.22 505.89 29.2 510.94 24.5 505.89 19.8 506.84 18.77 513 24.5 506.84 30.22" fill="#8c8c8c"/>
    </g>
    <g>
      <path d="M636,48.5h18a16.83,16.83,0,0,0,10.26-4.22L680,28.72a16.83,16.83,0,0,1,10.26-4.22h13.23" fill="none" stroke="#8c8c8c" stroke-miterlimit="10" stroke-width="2"/>
      <polygon points="698.84 30.22 697.89 29.2 702.94 24.5 697.89 19.8 698.84 18.77 705 24.5 698.84 30.22" fill="#8c8c8c"/>
    </g>
    <use id="op-halo-3" data-name="op-halo" width="31.45" height="31.45" transform="translate(320.94 9.11)" xlink:href="#op-halo"/>
    <use id="op-halo-6" data-name="op-halo" width="31.45" height="31.45" transform="translate(512.94 9.11)" xlink:href="#op-halo"/>
    <use id="op-halo-9" data-name="op-halo" width="31.45" height="31.45" transform="translate(704.94 9.11)" xlink:href="#op-halo"/>
    <use width="22.5" height="22.5" transform="translate(325.5 13.5)" xlink:href="#op-sum_5"/>
    <use width="22.5" height="22.5" transform="translate(241.5 36.84)" xlink:href="#op-sum_4"/>
    <use width="22.5" height="22.5" transform="translate(192 37.5)" xlink:href="#op-sum_3"/>
    <use width="22.5" height="22.5" transform="translate(517.49 13.5)" xlink:href="#op-sum_5"/>
    <use width="22.5" height="22.5" transform="translate(433.49 36.84)" xlink:href="#op-sum_4"/>
    <use width="22.5" height="22.5" transform="translate(709.49 13.5)" xlink:href="#op-sum_5"/>
    <use width="22.5" height="22.5" transform="translate(624.49 36.84)" xlink:href="#op-sum_4"/>
    <use id="rnn-sigma-3" data-name="rnn-sigma" width="24" height="24" transform="translate(240 120)" xlink:href="#rnn-sigma"/>
    <use id="rnn-sigma-6" data-name="rnn-sigma" width="24" height="24" transform="translate(432 120)" xlink:href="#rnn-sigma"/>
    <use id="rnn-sigma-9" data-name="rnn-sigma" width="24" height="24" transform="translate(624 120)" xlink:href="#rnn-sigma"/>
  </g>
</svg>
