<svg id="background" xmlns="http://www.w3.org/2000/svg" xmlns:xlink="http://www.w3.org/1999/xlink" width="984" height="300" viewBox="0 0 984 300">
  <defs>
    <symbol id="array-1" data-name="array-1" viewBox="0 0 37.5 37.5">
      <rect x="0.75" y="0.75" width="36" height="36" rx="6" ry="6" fill="#fff" stroke="#8c8c8c" stroke-miterlimit="10" stroke-width="1.5"/>
    </symbol>
    <symbol id="array-7" data-name="array-7" viewBox="0 0 253.5 37.5">
      <rect x="0.75" y="0.75" width="252" height="36" rx="6" ry="6" fill="#fff" stroke="#8c8c8c" stroke-miterlimit="10" stroke-width="1.5"/>
      <line x1="36.25" y1="36.75" x2="36.25" y2="0.75" fill="none" stroke="#8c8c8c" stroke-miterlimit="10"/>
      <line x1="72.25" y1="36.75" x2="72.25" y2="0.75" fill="none" stroke="#8c8c8c" stroke-miterlimit="10"/>
      <line x1="108.25" y1="36.75" x2="108.25" y2="0.75" fill="none" stroke="#8c8c8c" stroke-miterlimit="10"/>
      <line x1="144.25" y1="36.75" x2="144.25" y2="0.75" fill="none" stroke="#8c8c8c" stroke-miterlimit="10"/>
      <line x1="180.25" y1="36.75" x2="180.25" y2="0.75" fill="none" stroke="#8c8c8c" stroke-miterlimit="10"/>
      <line x1="216.25" y1="36.75" x2="216.25" y2="0.75" fill="none" stroke="#8c8c8c" stroke-miterlimit="10"/>
    </symbol>
    <symbol id="array-positive-value" data-name="array-positive-value" viewBox="0 0 36 36">
      <rect width="36" height="36" fill="#0080f7" opacity="0"/>
      <rect x="4.42" y="4.42" width="27.17" height="27.17" rx="6" ry="6" fill="#3a5edd" opacity="0.8"/>
    </symbol>
    <symbol id="array-vector" data-name="array-vector" viewBox="0 0 36 36">
      <rect width="36" height="36" fill="#d8c2f2" opacity="0"/>
      <g opacity="0.5">
        <g>
          <line x1="18" y1="24" x2="18" y2="13.08" fill="none" stroke="#000" stroke-miterlimit="10"/>
          <polygon points="22.09 16.4 21.36 17.08 18 13.47 14.64 17.08 13.91 16.4 18 12 22.09 16.4"/>
        </g>
      </g>
    </symbol>
  </defs>
  <title>rnn</title>
  <g id="_Group_" data-name="&lt;Group&gt;" opacity="0.2">
    <rect x="162" y="126" width="264" height="48" rx="10" ry="10" opacity="0.04"/>
    <rect x="162" y="126" width="264" height="48" rx="10" ry="10" fill="#ff0"/>
  </g>
  <g id="paths">
    <path id="path24182" d="M288,48.7c0,52.66-101.44,52.89-102,76.88V251" fill="none" stroke="#2a71d8" stroke-miterlimit="10" stroke-width="1.5"/>
    <path id="path24184" d="M290,48.7c0,52.66-67.44,52.89-68,76.88V251" fill="none" stroke="#2a71d8" stroke-miterlimit="10" stroke-width="1.5"/>
    <path id="path24186" d="M292,48.7c0,52.66-33.44,52.89-34,76.88V251" fill="none" stroke="#2a71d8" stroke-miterlimit="10" stroke-width="1.5"/>
    <path id="path24249" d="M294,48V251" fill="none" stroke="#2a71d8" stroke-miterlimit="10" stroke-width="1.5"/>
    <path id="path24264" d="M296,48.7c0,52.66,33.37,52.89,33.93,76.88V251" fill="none" stroke="#2a71d8" stroke-miterlimit="10" stroke-width="1.5"/>
    <path id="path24262" d="M298,48.7c0,52.66,67.44,52.89,68,76.88V251" fill="none" stroke="#2a71d8" stroke-miterlimit="10" stroke-width="1.5"/>
    <path id="path24260" d="M300,48.7c0,52.66,101.44,52.89,102,76.88V251" fill="none" stroke="#2a71d8" stroke-miterlimit="10" stroke-width="1.5"/>
  </g>
  <use id="array-1-3" data-name="array-1" width="37.5" height="37.5" transform="translate(274.75 11.75)" xlink:href="#array-1"/>
  <use id="array-7-3" data-name="array-7" width="253.5" height="37.5" transform="translate(167.75 131.75)" xlink:href="#array-7"/>
  <use width="253.5" height="37.5" transform="translate(167.75 190.75)" xlink:href="#array-7"/>
  <use id="array-7-8" data-name="array-7" width="253.5" height="37.5" transform="translate(167.75 250.75)" xlink:href="#array-7"/>
  <g id="attention">
    <use width="36" height="36" transform="translate(168 132)" xlink:href="#array-positive-value"/>
    <use width="36" height="36" transform="translate(204 132)" xlink:href="#array-positive-value"/>
    <use width="36" height="36" transform="translate(240 132)" xlink:href="#array-positive-value"/>
    <use width="36" height="36" transform="translate(276 132)" xlink:href="#array-positive-value"/>
    <use width="36" height="36" transform="translate(312 132)" xlink:href="#array-positive-value"/>
    <use width="36" height="36" transform="translate(348 132)" xlink:href="#array-positive-value"/>
    <use width="36" height="36" transform="translate(384 132)" xlink:href="#array-positive-value"/>
  </g>
  <g opacity="0.6">
    <text transform="translate(432 216)" font-size="12" font-family="Open Sans">memory</text>
  </g>
  <g opacity="0.6">
    <text transform="translate(432 276)" font-size="12" font-family="Open Sans">new memory</text>
  </g>
  <g opacity="0.6">
    <text transform="translate(324 36)" font-size="12" font-family="Open Sans">write value</text>
  </g>
  <g opacity="0.6">
    <text transform="translate(432 156)" font-size="12" font-family="Open Sans">attention</text>
  </g>
  <use id="write-result" width="36" height="36" transform="translate(276 12)" xlink:href="#array-vector"/>
  <g id="memory">
    <use width="36" height="36" transform="translate(168 192)" xlink:href="#array-vector"/>
    <use width="36" height="36" transform="translate(204 192)" xlink:href="#array-vector"/>
    <use width="36" height="36" transform="translate(240 192)" xlink:href="#array-vector"/>
    <use width="36" height="36" transform="translate(276 192)" xlink:href="#array-vector"/>
    <use width="36" height="36" transform="translate(312 192)" xlink:href="#array-vector"/>
    <use width="36" height="36" transform="translate(348 192)" xlink:href="#array-vector"/>
    <use width="36" height="36" transform="translate(384 192)" xlink:href="#array-vector"/>
  </g>
  <g id="new-memory">
    <use width="36" height="36" transform="translate(168 252)" xlink:href="#array-vector"/>
    <use width="36" height="36" transform="translate(204 252)" xlink:href="#array-vector"/>
    <use width="36" height="36" transform="translate(240 252)" xlink:href="#array-vector"/>
    <use width="36" height="36" transform="translate(276 252)" xlink:href="#array-vector"/>
    <use width="36" height="36" transform="translate(312 252)" xlink:href="#array-vector"/>
    <use width="36" height="36" transform="translate(348 252)" xlink:href="#array-vector"/>
    <use width="36" height="36" transform="translate(384 252)" xlink:href="#array-vector"/>
  </g>
  <g>
    <path d="M568.5,135.49a2.72,2.72,0,0,0-1.42-.2,7.18,7.18,0,0,1-.77,0,0.21,0.21,0,0,1-.17-0.25s0-.11,0-0.27l0-.17a0.75,0.75,0,0,0,0-.12,0.44,0.44,0,0,1,0-.12q0-.1,0-0.07s0,0,.1,0a0.13,0.13,0,0,1,.12,0,0.35,0.35,0,0,0,.2,0l0.3,0h0.75l1.12,0h2.27a0.5,0.5,0,0,1,.4.12q0,0.1.92,7l0.9,7,0.57-.92q0.6-.9,1.6-2.49l2.19-3.49q4.37-7,4.41-7l0.07-.07,0.1-.07,0.15,0h3.39a6.06,6.06,0,0,0,.72,0q0.85,0,.85.27a2,2,0,0,1-.07.42q-0.07.3-.07,0.32a1.48,1.48,0,0,1-.92.15,11.1,11.1,0,0,0-1.27.07,0.71,0.71,0,0,0-.45.27q-0.07.12-1.8,7.06t-1.75,7a0.2,0.2,0,0,0,0,.12l0.17,0.1a0.8,0.8,0,0,0,.42,0,4,4,0,0,1,.82,0h0.77a0.9,0.9,0,0,1,.15.27,1.65,1.65,0,0,1-.17.75,0.55,0.55,0,0,1-.4.12l-1,0q-0.9,0-2.29,0h-2.29a7.36,7.36,0,0,0-.87,0q-0.42,0-.42-0.25s0-.15,0-0.35a0.78,0.78,0,0,1,.2-0.45,2.07,2.07,0,0,1,.57-0.07q0.67,0,1.5-.07a0.66,0.66,0,0,0,.47-0.3q0-.1.95-3.64t1.77-7.06l0.87-3.52-4.84,7.71q-4.89,7.78-5,7.91l-0.1,0a0.81,0.81,0,0,1-.4.07,0.44,0.44,0,0,1-.45-0.17q0-.1-1-7.73l-1-7.66-1.7,6.73q-1.67,6.63-1.67,6.86,0.15,0.82,1.8.82h0.25a0.48,0.48,0,0,1,.17.22,1.17,1.17,0,0,1-.07.45,0.78,0.78,0,0,1-.2.45,1.18,1.18,0,0,1-.27,0h-0.3l-0.85,0q-0.6,0-1.6,0l-1.55,0-0.92,0a1.35,1.35,0,0,1-.47,0,0.23,0.23,0,0,1-.1-0.22,2.65,2.65,0,0,1,.07-0.35,1.52,1.52,0,0,1,.12-0.37,0.58,0.58,0,0,1,.55-0.15,2.21,2.21,0,0,0,2.22-1q0.1-.15,1.72-6.68T568.5,135.49Z" fill="#666"/>
    <path d="M585.86,149.86a1.93,1.93,0,0,1,.16-0.55,8.46,8.46,0,0,1,.42-0.9,2.91,2.91,0,0,1,.78-0.9,1.6,1.6,0,0,1,1.06-.39,1.67,1.67,0,0,1,1.15.41,1.44,1.44,0,0,1,.48,1.09,3.42,3.42,0,0,1-.25,1q-0.25.69-.71,1.85t-0.74,2a2.89,2.89,0,0,0-.09.56q0,0.44.3,0.44a1.17,1.17,0,0,0,.34-0.05,1.21,1.21,0,0,0,.41-0.25,2.39,2.39,0,0,0,.48-0.62,5.12,5.12,0,0,0,.44-1,0.72,0.72,0,0,1,.09-0.25,0.65,0.65,0,0,1,.3,0q0.35,0,.35.18a1.93,1.93,0,0,1-.16.55,6.94,6.94,0,0,1-.44.9,3,3,0,0,1-.79.88,1.78,1.78,0,0,1-1.09.39,1.66,1.66,0,0,1-1-.37,1.38,1.38,0,0,1-.49-1.13,1.77,1.77,0,0,1,.09-0.56q0.09-.26.76-2t0.78-2.13a2.93,2.93,0,0,0,.12-0.69q0-.42-0.3-0.42h0a1.23,1.23,0,0,0-1,.58,4.11,4.11,0,0,0-.67,1.48l0,0.05a0.14,0.14,0,0,0,0,.05,0.05,0.05,0,0,1,0,0l-0.05,0H586A0.3,0.3,0,0,1,585.86,149.86Zm2.87-5.52a1,1,0,0,1,.34-0.74,1.17,1.17,0,0,1,.78-0.34,0.72,0.72,0,0,1,.53.21,0.78,0.78,0,0,1,.23.53,1,1,0,0,1-.35.74,1.18,1.18,0,0,1-.78.35,0.79,0.79,0,0,1-.49-0.18A0.73,0.73,0,0,1,588.73,144.34Z" fill="#666"/>
    <path d="M624.52,144.67v0.27a0.62,0.62,0,0,1-.37.5H605.09l0.42,0.35a6.81,6.81,0,0,1,.72.67q0.35,0.37.82,0.92a5.08,5.08,0,0,1,.82,1.4q0.35,0.85.65,1.77a2.8,2.8,0,0,1,.12.62q0,0.27-.5.27h-0.25a0.2,0.2,0,0,1-.15-0.1,1,1,0,0,1-.12-0.22,2.41,2.41,0,0,1-.1-0.47,7.62,7.62,0,0,0-1.7-3.24,7.69,7.69,0,0,0-3-2.12,1,1,0,0,1-.45-0.27,0.29,0.29,0,0,1,.1-0.25,1.65,1.65,0,0,1,.35-0.17,7.67,7.67,0,0,0,2.12-1.25,7.4,7.4,0,0,0,1.42-1.52,8.58,8.58,0,0,0,.8-1.47,12.23,12.23,0,0,0,.42-1.15l0.07-.42a1.83,1.83,0,0,1,.07-0.2,0.27,0.27,0,0,1,.12-0.1,0.77,0.77,0,0,1,.32,0q0.5,0,.5.27a2.8,2.8,0,0,1-.12.62,10.5,10.5,0,0,1-.62,1.72,7.2,7.2,0,0,1-.8,1.35q-0.42.55-.77,0.92a7.44,7.44,0,0,1-.75.7l-0.5.42h19.06a0.62,0.62,0,0,1,.37.5v-0.27Z" fill="#666"/>
    <path d="M641.61,143a2.26,2.26,0,0,0-.12-0.55,2.37,2.37,0,0,0-.57-0.87,1.59,1.59,0,0,0-1.15-.5,2.39,2.39,0,0,0-1.67.77,5.22,5.22,0,0,0-1.25,2,19.92,19.92,0,0,0-1,4.09v0.27a1.33,1.33,0,0,1,0,.3,2.09,2.09,0,0,0,.45,1.55,1.61,1.61,0,0,0,1.07.45,2.82,2.82,0,0,0,1.87-.82,4.19,4.19,0,0,0,1.1-1.27q0-.1.67-2.67T641.61,143Zm-7.93,4.27a7.37,7.37,0,0,1,1.9-4.79,5.58,5.58,0,0,1,4.27-2.29,2.83,2.83,0,0,1,2.24,1.22,1.25,1.25,0,0,1,1.15-.75,0.89,0.89,0,0,1,.57.2,0.61,0.61,0,0,1,.25.5q0,0.32-.92,4t-0.95,4.14a1.33,1.33,0,0,0,.17.82,0.73,0.73,0,0,0,.52.22,1.08,1.08,0,0,0,.5-0.22,5.66,5.66,0,0,0,1-2.39,0.93,0.93,0,0,1,.25-0.52,0.73,0.73,0,0,1,.25,0H645q0.47,0,.47.22a4,4,0,0,1-.12.67,7.83,7.83,0,0,1-.5,1.35,4.25,4.25,0,0,1-.8,1.25,2.47,2.47,0,0,1-.8.52,2.66,2.66,0,0,1-.6,0,2.55,2.55,0,0,1-1.42-.37,1.91,1.91,0,0,1-.75-0.77l-0.15-.37s0,0-.1,0l-0.1.1a4.37,4.37,0,0,1-3,1.4,3.4,3.4,0,0,1-2.42-1A4.2,4.2,0,0,1,633.68,147.26Z" fill="#666"/>
    <path d="M646.42,149.86a1.93,1.93,0,0,1,.16-0.55,8.46,8.46,0,0,1,.42-0.9,2.91,2.91,0,0,1,.78-0.9,1.6,1.6,0,0,1,1.06-.39,1.67,1.67,0,0,1,1.15.41,1.44,1.44,0,0,1,.48,1.09,3.42,3.42,0,0,1-.25,1q-0.25.69-.71,1.85t-0.74,2a2.89,2.89,0,0,0-.09.56q0,0.44.3,0.44a1.17,1.17,0,0,0,.34-0.05,1.21,1.21,0,0,0,.41-0.25,2.39,2.39,0,0,0,.48-0.62,5.12,5.12,0,0,0,.44-1,0.72,0.72,0,0,1,.09-0.25,0.65,0.65,0,0,1,.3,0q0.35,0,.35.18a1.93,1.93,0,0,1-.16.55,6.94,6.94,0,0,1-.44.9,2.94,2.94,0,0,1-.79.88,1.78,1.78,0,0,1-1.09.39,1.66,1.66,0,0,1-1-.37,1.38,1.38,0,0,1-.49-1.13,1.77,1.77,0,0,1,.09-0.56q0.09-.26.76-2t0.78-2.13a2.92,2.92,0,0,0,.12-0.69q0-.42-0.3-0.42h0a1.23,1.23,0,0,0-1,.58,4.11,4.11,0,0,0-.67,1.48l0,0.05a0.14,0.14,0,0,0,0,.05,0.05,0.05,0,0,1,0,0L647,150h-0.46A0.3,0.3,0,0,1,646.42,149.86Zm2.87-5.52a1,1,0,0,1,.34-0.74,1.17,1.17,0,0,1,.78-0.34,0.72,0.72,0,0,1,.53.21,0.78,0.78,0,0,1,.23.53,1,1,0,0,1-.35.74,1.18,1.18,0,0,1-.78.35,0.79,0.79,0,0,1-.49-0.18A0.73,0.73,0,0,1,649.29,144.34Z" fill="#666"/>
    <path d="M669.1,141.58a1.33,1.33,0,0,1,.47-1,1.6,1.6,0,0,1,1-.47,1.07,1.07,0,0,1,.82.45,2.3,2.3,0,0,1,.4,1.42,16.79,16.79,0,0,1-.47,2.87q-0.37,1.4-.67,2.29a14.82,14.82,0,0,1-.87,2,4.62,4.62,0,0,1-1.37,1.7,3,3,0,0,1-1.8.57,4.52,4.52,0,0,1-1.95-.4,2.61,2.61,0,0,1-1.22-1.07l-0.07.1a3,3,0,0,1-2.49,1.37,5.12,5.12,0,0,1-1.25-.15,4.69,4.69,0,0,1-1.17-.47,2.38,2.38,0,0,1-.92-1,3.27,3.27,0,0,1-.35-1.57,11.27,11.27,0,0,1,.85-3.64,13.67,13.67,0,0,0,.87-2.92v-0.35a0.27,0.27,0,0,0-.1-0.17,0.37,0.37,0,0,0-.27-0.1h-0.1a1.45,1.45,0,0,0-1,.47,3.94,3.94,0,0,0-.75,1,6.59,6.59,0,0,0-.42,1,2.44,2.44,0,0,1-.2.55,0.83,0.83,0,0,1-.4,0H655.3a0.42,0.42,0,0,1-.15-0.22,2.93,2.93,0,0,1,.2-0.7,11.08,11.08,0,0,1,.57-1.27,4,4,0,0,1,1.1-1.3,2.54,2.54,0,0,1,1.62-.57,2.13,2.13,0,0,1,1.65.62,2.07,2.07,0,0,1,.57,1.45,13.33,13.33,0,0,1-.82,2.69,11,11,0,0,0-.82,3.47,2.11,2.11,0,0,0,.52,1.62,2,2,0,0,0,1.32.5A2.32,2.32,0,0,0,663,149l0.12-.22V148a0.52,0.52,0,0,1,0-.2,0.43,0.43,0,0,0,0-.17,0.93,0.93,0,0,1,0-.22l0.07-.32q0-.22.07-0.42a3.82,3.82,0,0,1,.15-0.6,7,7,0,0,0,.2-0.8q0.07-.4.27-1.07,0.72-2.84.82-3.07a1.11,1.11,0,0,1,1.07-.67,0.74,0.74,0,0,1,.65.25,1,1,0,0,1,.2.47,31.33,31.33,0,0,1-.72,3.19q-0.72,2.87-.8,3.29a5.42,5.42,0,0,0,0,.87v0.17a3.44,3.44,0,0,0,.07.72,1.47,1.47,0,0,0,.47.72,1.67,1.67,0,0,0,1.12.4q1.77,0,2.82-3a15.4,15.4,0,0,0,.5-1.62,8.78,8.78,0,0,0,.3-1.5,2.27,2.27,0,0,0-.32-1.3,5.6,5.6,0,0,0-.65-0.8A1,1,0,0,1,669.1,141.58Z" fill="#666"/>
    <path d="M683.59,145.27v-0.32a0.54,0.54,0,0,1,.35-0.5h7.46V140.7l0-3.74a0.66,0.66,0,0,1,.47-0.32,0.55,0.55,0,0,1,.5.37v7.43h7.43a0.52,0.52,0,0,1,0,1h-7.43v7.43a0.56,0.56,0,0,1-.45.35h-0.1a0.48,0.48,0,0,1-.45-0.35v-7.43h-7.46a0.54,0.54,0,0,1-.35-0.5v0.32Z" fill="#666"/>
    <path d="M713.64,144.94a20.52,20.52,0,0,1,.25-3.27,22.87,22.87,0,0,1,.57-2.67,10.45,10.45,0,0,1,.92-2.19q0.6-1.07.95-1.67a6.62,6.62,0,0,1,1-1.3q0.7-.7.82-0.85a4.49,4.49,0,0,1,.62-0.52h0.42q0.35,0,.35.22a2,2,0,0,1-.42.52,11.33,11.33,0,0,0-1,1.32,17.26,17.26,0,0,0-1.22,2.15,14.19,14.19,0,0,0-1,3.44,25.18,25.18,0,0,0-.42,4.81,24.79,24.79,0,0,0,.42,4.79,16.21,16.21,0,0,0,1,3.47,11.3,11.3,0,0,0,1.22,2.15q0.62,0.82,1,1.32a5.62,5.62,0,0,1,.42.52q0,0.22-.37.22h-0.4l-0.7-.6a12.31,12.31,0,0,1-3.42-5.29A20.39,20.39,0,0,1,713.64,144.94Z" fill="#666"/>
    <path d="M726.32,136.76l-0.32.12a7.15,7.15,0,0,1-1,.25,11.5,11.5,0,0,1-1.45.17h-0.47v-1.15h0.47a8.11,8.11,0,0,0,2.17-.37,5.89,5.89,0,0,0,1.4-.6,6.4,6.4,0,0,0,.7-0.55,0.38,0.38,0,0,1,.3-0.07,0.69,0.69,0,0,1,.42.15v7.46l0,7.48a1,1,0,0,0,.3.22,3,3,0,0,0,.6.1q0.47,0,1.55,0h0.65v1.15h-0.27q-0.52-.07-4-0.07t-3.92.07h-0.3V150h1.6a6,6,0,0,0,.62,0,2.44,2.44,0,0,0,.4-0.07l0.2,0a0.5,0.5,0,0,0,.15-0.12,0.2,0.2,0,0,1,.15-0.1v-12.9Z" fill="#666"/>
    <path d="M736.94,145.27v-0.32a0.54,0.54,0,0,1,.35-0.5h14.49a0.52,0.52,0,0,1,0,1H737.29a0.54,0.54,0,0,1-.35-0.5v0.32Z" fill="#666"/>
    <path d="M764.4,143a2.26,2.26,0,0,0-.12-0.55,2.37,2.37,0,0,0-.57-0.87,1.59,1.59,0,0,0-1.15-.5,2.39,2.39,0,0,0-1.67.77,5.22,5.22,0,0,0-1.25,2,19.91,19.91,0,0,0-1,4.09v0.27a1.33,1.33,0,0,1,0,.3,2.09,2.09,0,0,0,.45,1.55,1.61,1.61,0,0,0,1.07.45,2.82,2.82,0,0,0,1.87-.82,4.19,4.19,0,0,0,1.1-1.27q0-.1.67-2.67T764.4,143Zm-7.93,4.27a7.37,7.37,0,0,1,1.9-4.79,5.58,5.58,0,0,1,4.27-2.29,2.83,2.83,0,0,1,2.24,1.22,1.25,1.25,0,0,1,1.15-.75,0.89,0.89,0,0,1,.57.2,0.61,0.61,0,0,1,.25.5q0,0.32-.92,4T765,149.48a1.33,1.33,0,0,0,.17.82,0.73,0.73,0,0,0,.52.22,1.08,1.08,0,0,0,.5-0.22,5.66,5.66,0,0,0,1-2.39,0.93,0.93,0,0,1,.25-0.52,0.73,0.73,0,0,1,.25,0h0.1q0.47,0,.47.22a4,4,0,0,1-.12.67,7.82,7.82,0,0,1-.5,1.35,4.25,4.25,0,0,1-.8,1.25,2.47,2.47,0,0,1-.8.52,2.66,2.66,0,0,1-.6,0,2.55,2.55,0,0,1-1.42-.37,1.91,1.91,0,0,1-.75-0.77l-0.15-.37s0,0-.1,0l-0.1.1a4.37,4.37,0,0,1-3,1.4,3.4,3.4,0,0,1-2.42-1A4.2,4.2,0,0,1,756.47,147.26Z" fill="#666"/>
    <path d="M769.21,149.86a1.93,1.93,0,0,1,.16-0.55,8.48,8.48,0,0,1,.42-0.9,2.91,2.91,0,0,1,.78-0.9,1.6,1.6,0,0,1,1.06-.39,1.67,1.67,0,0,1,1.15.41,1.44,1.44,0,0,1,.48,1.09,3.42,3.42,0,0,1-.25,1q-0.25.69-.71,1.85t-0.74,2a2.88,2.88,0,0,0-.09.56q0,0.44.3,0.44a1.17,1.17,0,0,0,.34-0.05,1.21,1.21,0,0,0,.41-0.25,2.39,2.39,0,0,0,.48-0.62,5.12,5.12,0,0,0,.44-1,0.73,0.73,0,0,1,.09-0.25,0.65,0.65,0,0,1,.3,0q0.35,0,.35.18a1.93,1.93,0,0,1-.16.55,7,7,0,0,1-.44.9,2.94,2.94,0,0,1-.79.88,1.78,1.78,0,0,1-1.09.39,1.66,1.66,0,0,1-1-.37,1.38,1.38,0,0,1-.49-1.13,1.77,1.77,0,0,1,.09-0.56q0.09-.26.76-2t0.78-2.13a2.93,2.93,0,0,0,.12-0.69q0-.42-0.3-0.42h0a1.23,1.23,0,0,0-1,.58,4.11,4.11,0,0,0-.67,1.48l0,0.05a0.14,0.14,0,0,0,0,.05,0.05,0.05,0,0,1,0,0l-0.05,0h-0.46A0.3,0.3,0,0,1,769.21,149.86Zm2.87-5.52a1,1,0,0,1,.34-0.74,1.17,1.17,0,0,1,.78-0.34,0.72,0.72,0,0,1,.53.21,0.78,0.78,0,0,1,.23.53,1,1,0,0,1-.35.74,1.18,1.18,0,0,1-.78.35,0.79,0.79,0,0,1-.49-0.18A0.73,0.73,0,0,1,772.09,144.34Z" fill="#666"/>
    <path d="M778.92,132.5l0.1,0h0.55l0.7,0.6a12.31,12.31,0,0,1,3.42,5.29,20.39,20.39,0,0,1,1.07,6.59,20.82,20.82,0,0,1-.25,3.27,21.46,21.46,0,0,1-.57,2.67,11.23,11.23,0,0,1-.92,2.2q-0.6,1.1-.95,1.67a7.59,7.59,0,0,1-1,1.27l-0.8.82q-0.12.12-.57,0.47l-0.1.1H779a0.15,0.15,0,0,1-.12-0.07,0.59,0.59,0,0,1-.07-0.22l0.27-.32q3.87-4,3.87-11.85t-3.87-11.85l-0.27-.32A0.29,0.29,0,0,1,778.92,132.5Z" fill="#666"/>
    <path d="M794.34,135.49a2.72,2.72,0,0,0-1.42-.2,7.18,7.18,0,0,1-.77,0A0.21,0.21,0,0,1,792,135s0-.11,0-0.27l0-.17a0.75,0.75,0,0,0,0-.12,0.44,0.44,0,0,1,0-.12q0-.1,0-0.07s0,0,.1,0a0.13,0.13,0,0,1,.12,0,0.35,0.35,0,0,0,.2,0l0.3,0h0.75l1.12,0h2.27a0.5,0.5,0,0,1,.4.12q0,0.1.92,7l0.9,7,0.57-.92q0.6-.9,1.6-2.49l2.2-3.49q4.37-7,4.41-7l0.07-.07,0.1-.07,0.15,0h3.39a6.06,6.06,0,0,0,.72,0q0.85,0,.85.27a2,2,0,0,1-.07.42q-0.07.3-.07,0.32a1.48,1.48,0,0,1-.92.15,11.09,11.09,0,0,0-1.27.07,0.71,0.71,0,0,0-.45.27q-0.07.12-1.8,7.06t-1.75,7a0.2,0.2,0,0,0,0,.12l0.17,0.1a0.8,0.8,0,0,0,.42,0,4,4,0,0,1,.82,0h0.77a0.9,0.9,0,0,1,.15.27,1.65,1.65,0,0,1-.17.75,0.55,0.55,0,0,1-.4.12l-1,0q-0.9,0-2.29,0h-2.29a7.36,7.36,0,0,0-.87,0q-0.42,0-.42-0.25s0-.15,0-0.35a0.78,0.78,0,0,1,.2-0.45,2.07,2.07,0,0,1,.57-0.07q0.67,0,1.5-.07a0.66,0.66,0,0,0,.47-0.3q0-.1.95-3.64t1.77-7.06l0.87-3.52-4.84,7.71q-4.89,7.78-5,7.91l-0.1,0a0.81,0.81,0,0,1-.4.07,0.44,0.44,0,0,1-.45-0.17q0-.1-1-7.73l-1-7.66-1.7,6.73q-1.67,6.63-1.67,6.86,0.15,0.82,1.8.82h0.25a0.48,0.48,0,0,1,.17.22,1.17,1.17,0,0,1-.07.45,0.78,0.78,0,0,1-.2.45,1.18,1.18,0,0,1-.27,0h-0.3l-0.85,0q-0.6,0-1.6,0l-1.55,0-0.92,0a1.35,1.35,0,0,1-.47,0,0.23,0.23,0,0,1-.1-0.22,2.65,2.65,0,0,1,.07-0.35,1.52,1.52,0,0,1,.12-0.37,0.58,0.58,0,0,1,.55-0.15,2.21,2.21,0,0,0,2.22-1q0.1-.15,1.72-6.68T794.34,135.49Z" fill="#666"/>
    <path d="M811.69,149.86a1.93,1.93,0,0,1,.16-0.55,8.48,8.48,0,0,1,.42-0.9,2.91,2.91,0,0,1,.78-0.9,1.6,1.6,0,0,1,1.06-.39,1.67,1.67,0,0,1,1.15.41,1.44,1.44,0,0,1,.48,1.09,3.42,3.42,0,0,1-.25,1q-0.25.69-.71,1.85t-0.74,2a2.88,2.88,0,0,0-.09.56q0,0.44.3,0.44a1.17,1.17,0,0,0,.34-0.05,1.21,1.21,0,0,0,.41-0.25,2.39,2.39,0,0,0,.48-0.62,5.12,5.12,0,0,0,.44-1,0.73,0.73,0,0,1,.09-0.25,0.65,0.65,0,0,1,.3,0q0.35,0,.35.18a1.93,1.93,0,0,1-.16.55,7,7,0,0,1-.44.9,2.94,2.94,0,0,1-.79.88,1.78,1.78,0,0,1-1.09.39,1.66,1.66,0,0,1-1-.37,1.38,1.38,0,0,1-.49-1.13,1.77,1.77,0,0,1,.09-0.56q0.09-.26.76-2t0.78-2.13a2.93,2.93,0,0,0,.12-0.69q0-.42-0.3-0.42h0a1.23,1.23,0,0,0-1,.58,4.11,4.11,0,0,0-.67,1.48l0,0.05a0.14,0.14,0,0,0,0,.05,0.05,0.05,0,0,1,0,0l-0.05,0H811.8A0.3,0.3,0,0,1,811.69,149.86Zm2.87-5.52a1,1,0,0,1,.34-0.74,1.17,1.17,0,0,1,.78-0.34,0.72,0.72,0,0,1,.53.21,0.78,0.78,0,0,1,.23.53,1,1,0,0,1-.35.74,1.18,1.18,0,0,1-.78.35,0.79,0.79,0,0,1-.49-0.18A0.73,0.73,0,0,1,814.57,144.34Z" fill="#666"/>
  </g>
</svg>
