<svg id="background" xmlns="http://www.w3.org/2000/svg" xmlns:xlink="http://www.w3.org/1999/xlink" width="984" height="270" viewBox="0 0 984 270">
  <defs>
    <symbol id="array-5" data-name="array-5" viewBox="0 0 181 37">
      <rect x="0.5" y="0.5" width="180" height="36" rx="6" ry="6" fill="#fff" stroke="#8c8c8c" stroke-miterlimit="10"/>
      <line x1="36.25" y1="36.5" x2="36.25" y2="0.5" fill="none" stroke="#8c8c8c" stroke-miterlimit="10"/>
      <line x1="72.25" y1="36.5" x2="72.25" y2="0.5" fill="none" stroke="#8c8c8c" stroke-miterlimit="10"/>
      <line x1="108.25" y1="36.5" x2="108.25" y2="0.5" fill="none" stroke="#8c8c8c" stroke-miterlimit="10"/>
      <line x1="144.25" y1="36.5" x2="144.25" y2="0.5" fill="none" stroke="#8c8c8c" stroke-miterlimit="10"/>
    </symbol>
    <symbol id="rnn-bg" data-name="rnn-bg" viewBox="0 0 48 48">
      <rect width="48" height="48" rx="6" ry="6" fill="#798294"/>
    </symbol>
    <symbol id="rnn-a" data-name="rnn-a" viewBox="0 0 48 48">
      <use id="rnn-bg-3" data-name="rnn-bg" width="48" height="48" xlink:href="#rnn-bg"/>
      <text transform="translate(17.33 31)" font-size="21.77" fill="#fff" font-family="Helvetica" letter-spacing="-1">A</text>
    </symbol>
    <symbol id="array-vector" data-name="array-vector" viewBox="0 0 36 36">
      <rect width="36" height="36" fill="#0080f7" opacity="0"/>
      <g>
        <line x1="18" y1="24" x2="18" y2="13.08" fill="none" stroke="#8c8c8c" stroke-miterlimit="10"/>
        <polygon points="22.09 16.4 21.36 17.08 18 13.47 14.64 17.08 13.91 16.4 18 12 22.09 16.4" fill="#8c8c8c"/>
      </g>
    </symbol>
  </defs>
  <title>rnn</title>
  <g id="_Group_" data-name="&lt;Group&gt;">
    <rect x="168" y="132" width="611" height="72" rx="10" ry="10" fill="#e6eaf2"/>
  </g>
  <use width="181" height="37" transform="translate(371.75 24)" xlink:href="#array-5"/>
  <use width="181" height="37" transform="translate(575.75 24)" xlink:href="#array-5"/>
  <use width="48" height="48" transform="translate(179 144)" xlink:href="#rnn-a"/>
  <use width="48" height="48" transform="translate(372 144)" xlink:href="#rnn-a"/>
  <use width="48" height="48" transform="translate(576 144)" xlink:href="#rnn-a"/>
  <text transform="translate(367.67 102)" font-size="12" fill="#666" font-family="Open Sans">read</text>
  <text transform="translate(254.38 102)" font-size="12" fill="#666" font-family="Open Sans">write</text>
  <use width="181" height="37" transform="translate(167.75 24)" xlink:href="#array-5"/>
  <use width="36" height="36" transform="translate(168 24)" xlink:href="#array-vector"/>
  <use width="36" height="36" transform="translate(204 24)" xlink:href="#array-vector"/>
  <use width="36" height="36" transform="translate(240 24)" xlink:href="#array-vector"/>
  <use width="36" height="36" transform="translate(276 24)" xlink:href="#array-vector"/>
  <use id="array-vector-11" data-name="array-vector" width="36" height="36" transform="translate(312 24)" xlink:href="#array-vector"/>
  <text transform="translate(197.85 12)" font-size="12" fill="#666" font-family="Open Sans">time step 0</text>
  <text transform="translate(391.99 12)" font-size="12" fill="#666" font-family="Open Sans">step 1</text>
  <text transform="translate(595.99 12)" font-size="12" fill="#666" font-family="Open Sans">step 2</text>
  <text transform="translate(186.43 257)" font-size="12" fill="#666" font-family="Open Sans">x0</text>
  <text transform="translate(210.55 257)" font-size="12" fill="#666" font-family="Open Sans">y0</text>
  <g>
    <line x1="193" y1="218" x2="193" y2="194.64" fill="none" stroke="#8c8c8c" stroke-miterlimit="10" stroke-width="1.5"/>
    <polygon points="197.29 198.12 196.53 198.83 193 195.04 189.48 198.83 188.71 198.12 193 193.5 197.29 198.12" fill="#8c8c8c"/>
  </g>
  <g>
    <line x1="218" y1="193.5" x2="218" y2="216.86" fill="none" stroke="#8c8c8c" stroke-miterlimit="10" stroke-width="1.5"/>
    <polygon points="213.71 213.38 214.47 212.67 218 216.46 221.52 212.67 222.29 213.38 218 218 213.71 213.38" fill="#8c8c8c"/>
  </g>
  <text transform="translate(378.43 257)" font-size="12" fill="#666" font-family="Open Sans">x1</text>
  <text transform="translate(402.55 257)" font-size="12" fill="#666" font-family="Open Sans">y1</text>
  <g>
    <line x1="385" y1="218" x2="385" y2="194.64" fill="none" stroke="#8c8c8c" stroke-miterlimit="10" stroke-width="1.5"/>
    <polygon points="389.29 198.12 388.52 198.83 385 195.04 381.48 198.83 380.71 198.12 385 193.5 389.29 198.12" fill="#8c8c8c"/>
  </g>
  <g>
    <line x1="410" y1="193.5" x2="410" y2="216.86" fill="none" stroke="#8c8c8c" stroke-miterlimit="10" stroke-width="1.5"/>
    <polygon points="405.71 213.38 406.48 212.67 410 216.46 413.52 212.67 414.29 213.38 410 218 405.71 213.38" fill="#8c8c8c"/>
  </g>
  <text transform="translate(582.43 257)" font-size="12" fill="#666" font-family="Open Sans">x2</text>
  <text transform="translate(606.55 257)" font-size="12" fill="#666" font-family="Open Sans">y2</text>
  <g>
    <line x1="589" y1="218" x2="589" y2="194.64" fill="none" stroke="#8c8c8c" stroke-miterlimit="10" stroke-width="1.5"/>
    <polygon points="593.29 198.12 592.52 198.83 589 195.04 585.48 198.83 584.71 198.12 589 193.5 593.29 198.12" fill="#8c8c8c"/>
  </g>
  <g>
    <line x1="614" y1="193.5" x2="614" y2="216.86" fill="none" stroke="#8c8c8c" stroke-miterlimit="10" stroke-width="1.5"/>
    <polygon points="609.71 213.38 610.48 212.67 614 216.46 617.52 212.67 618.29 213.38 614 218 609.71 213.38" fill="#8c8c8c"/>
  </g>
</svg>
