<svg id="background" xmlns="http://www.w3.org/2000/svg" xmlns:xlink="http://www.w3.org/1999/xlink" width="984" height="132" viewBox="0 0 984 132">
  <defs>
    <symbol id="rnn-bg" data-name="rnn-bg" viewBox="0 0 48 48">
      <rect width="48" height="48" rx="6" ry="6" fill="#798294"/>
    </symbol>
    <symbol id="rnn-a" data-name="rnn-a" viewBox="0 0 48 48">
      <use id="rnn-bg-3" data-name="rnn-bg" width="48" height="48" xlink:href="#rnn-bg"/>
      <text transform="translate(17.33 31)" font-size="21.77" fill="#fff" font-family="Helvetica" letter-spacing="-1">A</text>
    </symbol>
  </defs>
  <title>rnn</title>
  <g id="_Group_" data-name="&lt;Group&gt;">
    <rect x="168" y="24" width="600" height="72" rx="10" ry="10" fill="#e6eaf2"/>
  </g>
  <use width="48" height="48" transform="translate(180 36)" xlink:href="#rnn-a"/>
  <use width="48" height="48" transform="translate(312 36)" xlink:href="#rnn-a"/>
  <use width="48" height="48" transform="translate(444 36)" xlink:href="#rnn-a"/>
  <use id="rnn-a-9" data-name="rnn-a" width="48" height="48" transform="translate(576 36)" xlink:href="#rnn-a"/>
  <use id="rnn-a-12" data-name="rnn-a" width="48" height="48" transform="translate(708 36)" xlink:href="#rnn-a"/>
  <text transform="translate(185.43 124)" font-size="12" fill="#717171" font-family="Open Sans">x0</text>
  <text transform="translate(209.55 124)" font-size="12" fill="#717171" font-family="Open Sans">y0</text>
  <text transform="translate(317.43 124)" font-size="12" fill="#717171" font-family="Open Sans">x1</text>
  <text transform="translate(341.55 124)" font-size="12" fill="#717171" font-family="Open Sans">y1</text>
  <text transform="translate(449.43 124)" font-size="12" fill="#717171" font-family="Open Sans">x2</text>
  <text transform="translate(473.55 124)" font-size="12" fill="#717171" font-family="Open Sans">y2</text>
  <text transform="translate(581.43 124)" font-size="12" fill="#717171" font-family="Open Sans">x3</text>
  <text transform="translate(605.55 124)" font-size="12" fill="#717171" font-family="Open Sans">y3</text>
  <text transform="translate(176.67 12)" font-size="12" fill="#666" font-family="Open Sans">One cell...</text>
  <text transform="translate(283.58 12)" font-size="12" fill="#666" font-family="Open Sans">can be used over...</text>
  <text transform="translate(438.51 12)" font-size="12" fill="#666" font-family="Open Sans">and over...</text>
  <text transform="translate(570.51 12)" font-size="12" fill="#666" font-family="Open Sans">and over...</text>
  <text transform="translate(715.24 12)" font-size="12" fill="#666" font-family="Open Sans">again.</text>
  <g>
    <line x1="228" y1="60.5" x2="310.86" y2="60.5" fill="none" stroke="#8c8c8c" stroke-miterlimit="10" stroke-width="1.5"/>
    <polygon points="307.38 64.79 306.67 64.03 310.46 60.5 306.67 56.98 307.38 56.21 312 60.5 307.38 64.79" fill="#8c8c8c"/>
  </g>
  <g>
    <line x1="192" y1="108" x2="192" y2="84.64" fill="none" stroke="#8c8c8c" stroke-miterlimit="10" stroke-width="1.5"/>
    <polygon points="196.29 88.12 195.53 88.83 192 85.04 188.47 88.83 187.71 88.12 192 83.5 196.29 88.12" fill="#8c8c8c"/>
  </g>
  <g>
    <line x1="217" y1="83.5" x2="217" y2="106.86" fill="none" stroke="#8c8c8c" stroke-miterlimit="10" stroke-width="1.5"/>
    <polygon points="212.71 103.38 213.47 102.67 217 106.46 220.52 102.67 221.29 103.38 217 108 212.71 103.38" fill="#8c8c8c"/>
  </g>
  <g>
    <line x1="324" y1="108" x2="324" y2="84.64" fill="none" stroke="#8c8c8c" stroke-miterlimit="10" stroke-width="1.5"/>
    <polygon points="328.29 88.12 327.52 88.83 324 85.04 320.48 88.83 319.71 88.12 324 83.5 328.29 88.12" fill="#8c8c8c"/>
  </g>
  <g>
    <line x1="349" y1="83.5" x2="349" y2="106.86" fill="none" stroke="#8c8c8c" stroke-miterlimit="10" stroke-width="1.5"/>
    <polygon points="344.7 103.38 345.47 102.67 349 106.46 352.52 102.67 353.29 103.38 349 108 344.7 103.38" fill="#8c8c8c"/>
  </g>
  <g>
    <line x1="457" y1="108" x2="457" y2="84.64" fill="none" stroke="#8c8c8c" stroke-miterlimit="10" stroke-width="1.5"/>
    <polygon points="461.29 88.12 460.52 88.83 457 85.04 453.48 88.83 452.71 88.12 457 83.5 461.29 88.12" fill="#8c8c8c"/>
  </g>
  <g>
    <line x1="480" y1="83.5" x2="480" y2="106.86" fill="none" stroke="#8c8c8c" stroke-miterlimit="10" stroke-width="1.5"/>
    <polygon points="475.7 103.38 476.47 102.67 480 106.46 483.52 102.67 484.29 103.38 480 108 475.7 103.38" fill="#8c8c8c"/>
  </g>
  <g>
    <line x1="588" y1="108" x2="588" y2="84.64" fill="none" stroke="#8c8c8c" stroke-miterlimit="10" stroke-width="1.5"/>
    <polygon points="592.29 88.12 591.52 88.83 588 85.04 584.48 88.83 583.71 88.12 588 83.5 592.29 88.12" fill="#8c8c8c"/>
  </g>
  <g>
    <line x1="612" y1="83.5" x2="612" y2="106.86" fill="none" stroke="#8c8c8c" stroke-miterlimit="10" stroke-width="1.5"/>
    <polygon points="607.71 103.38 608.47 102.67 612 106.46 615.52 102.67 616.29 103.38 612 108 607.71 103.38" fill="#8c8c8c"/>
  </g>
  <text transform="translate(713.43 124)" font-size="12" fill="#717171" font-family="Open Sans">x4</text>
  <text transform="translate(737.55 124)" font-size="12" fill="#717171" font-family="Open Sans">y4</text>
  <g>
    <line x1="720" y1="108" x2="720" y2="84.64" fill="none" stroke="#8c8c8c" stroke-miterlimit="10" stroke-width="1.5"/>
    <polygon points="724.29 88.12 723.52 88.83 720 85.04 716.48 88.83 715.71 88.12 720 83.5 724.29 88.12" fill="#8c8c8c"/>
  </g>
  <g>
    <line x1="744" y1="83.5" x2="744" y2="106.86" fill="none" stroke="#8c8c8c" stroke-miterlimit="10" stroke-width="1.5"/>
    <polygon points="739.71 103.38 740.47 102.67 744 106.46 747.52 102.67 748.29 103.38 744 108 739.71 103.38" fill="#8c8c8c"/>
  </g>
  <g>
    <line x1="360" y1="60.5" x2="442.86" y2="60.5" fill="none" stroke="#8c8c8c" stroke-miterlimit="10" stroke-width="1.5"/>
    <polygon points="439.38 64.79 438.67 64.03 442.46 60.5 438.67 56.98 439.38 56.21 444 60.5 439.38 64.79" fill="#8c8c8c"/>
  </g>
  <g>
    <line x1="492" y1="60.5" x2="574.86" y2="60.5" fill="none" stroke="#8c8c8c" stroke-miterlimit="10" stroke-width="1.5"/>
    <polygon points="571.38 64.79 570.67 64.03 574.46 60.5 570.67 56.98 571.38 56.21 576 60.5 571.38 64.79" fill="#8c8c8c"/>
  </g>
  <g>
    <line x1="624" y1="60.5" x2="706.86" y2="60.5" fill="none" stroke="#8c8c8c" stroke-miterlimit="10" stroke-width="1.5"/>
    <polygon points="703.38 64.79 702.67 64.03 706.46 60.5 702.67 56.98 703.38 56.21 708 60.5 703.38 64.79" fill="#8c8c8c"/>
  </g>
</svg>
