<svg id="nodes" xmlns="http://www.w3.org/2000/svg" xmlns:xlink="http://www.w3.org/1999/xlink" width="984" height="66" viewBox="0 0 984 66">
  <defs>
    <symbol id="op-1" data-name="op-1" viewBox="0 0 50.5 27.5">
      <g>
        <g opacity="0.1">
          <rect x="1.75" y="2.75" width="48" height="24" rx="12" ry="12"/>
          <rect x="1.75" y="2.75" width="48" height="24" rx="12" ry="12" fill="none" stroke="#000" stroke-miterlimit="10" stroke-width="1.5"/>
        </g>
        <g>
          <rect x="0.75" y="0.75" width="48" height="24" rx="12" ry="12" fill="#fff"/>
          <rect x="0.75" y="0.75" width="48" height="24" rx="12" ry="12" fill="none" stroke="#666" stroke-miterlimit="10" stroke-width="1.5"/>
        </g>
      </g>
      <text transform="translate(11.36 16.27)" font-size="12" fill="#666" font-family="Open Sans">Op 1</text>
    </symbol>
    <symbol id="op-3" data-name="op-3" viewBox="0 0 50.5 27.5">
      <g>
        <g opacity="0.1">
          <rect x="1.75" y="2.75" width="48" height="24" rx="12" ry="12"/>
          <rect x="1.75" y="2.75" width="48" height="24" rx="12" ry="12" fill="none" stroke="#000" stroke-miterlimit="10" stroke-width="1.5"/>
        </g>
        <g>
          <rect x="0.75" y="0.75" width="48" height="24" rx="12" ry="12" fill="#fff"/>
          <rect x="0.75" y="0.75" width="48" height="24" rx="12" ry="12" fill="none" stroke="#666" stroke-miterlimit="10" stroke-width="1.5"/>
        </g>
      </g>
      <text transform="translate(11.41 16.27)" font-size="12" fill="#666" font-family="Open Sans">Op 3</text>
    </symbol>
    <symbol id="op-2" data-name="op-2" viewBox="0 0 50.5 27.5">
      <g>
        <g opacity="0.1">
          <rect x="1.75" y="2.75" width="48" height="24" rx="12" ry="12"/>
          <rect x="1.75" y="2.75" width="48" height="24" rx="12" ry="12" fill="none" stroke="#000" stroke-miterlimit="10" stroke-width="1.5"/>
        </g>
        <g>
          <rect x="0.75" y="0.75" width="48" height="24" rx="12" ry="12" fill="#fff"/>
          <rect x="0.75" y="0.75" width="48" height="24" rx="12" ry="12" fill="none" stroke="#666" stroke-miterlimit="10" stroke-width="1.5"/>
        </g>
      </g>
      <text transform="translate(11.36 16.27)" font-size="12" fill="#666" font-family="Open Sans">Op 2</text>
    </symbol>
  </defs>
  <title>rnn</title>
  <use width="50.5" height="27.5" transform="translate(180 30)" xlink:href="#op-1"/>
  <use width="50.5" height="27.5" transform="translate(312 30)" xlink:href="#op-3"/>
  <use width="50.5" height="27.5" transform="translate(444 30)" xlink:href="#op-2"/>
  <use width="50.5" height="27.5" transform="translate(576 30)" xlink:href="#op-3"/>
  <path d="M440.77,36a27.2,27.2,0,0,0-8.77.77l3.16-3.28L435.49,29A27.18,27.18,0,0,0,440.77,36Z" fill="#8c8c8c"/>
  <g>
    <g>
      <line x1="228" y1="42" x2="300.57" y2="42" fill="none" stroke="#8c8c8c" stroke-miterlimit="10" stroke-width="1.5"/>
      <path d="M306,42a27.2,27.2,0,0,0-7.69,4.28L299.86,42l-1.55-4.28A27.18,27.18,0,0,0,306,42Z" fill="#8c8c8c"/>
    </g>
    <g>
      <line x1="360" y1="42" x2="432.57" y2="42" fill="none" stroke="#8c8c8c" stroke-miterlimit="10" stroke-width="1.5"/>
      <path d="M438,42a27.2,27.2,0,0,0-7.69,4.28L431.86,42l-1.55-4.28A27.18,27.18,0,0,0,438,42Z" fill="#8c8c8c"/>
    </g>
    <g>
      <line x1="492" y1="42" x2="564.57" y2="42" fill="none" stroke="#8c8c8c" stroke-miterlimit="10" stroke-width="1.5"/>
      <path d="M570,42a27.2,27.2,0,0,0-7.69,4.28L563.86,42l-1.55-4.28A27.18,27.18,0,0,0,570,42Z" fill="#8c8c8c"/>
    </g>
    <g>
      <line x1="624" y1="42" x2="696.57" y2="42" fill="none" stroke="#8c8c8c" stroke-miterlimit="10" stroke-width="1.5"/>
      <path d="M702,42a27.2,27.2,0,0,0-7.69,4.28L695.86,42l-1.55-4.28A27.18,27.18,0,0,0,702,42Z" fill="#8c8c8c"/>
    </g>
    <g>
      <path d="M360,42s48-30,108-30c47.67,0,84.43,15.41,97.16,21.53" fill="none" stroke="#8c8c8c" stroke-miterlimit="10" stroke-width="1.5"/>
      <path d="M570,36a27.21,27.21,0,0,0-8.79.38l3.3-3.13L565,28.73A27.18,27.18,0,0,0,570,36Z" fill="#8c8c8c"/>
    </g>
  </g>
  <path d="M401.78,19.84a258.27,258.27,0,0,0-64.45-8.59c-59.53,0-107.92,29.81-108.4,30.11l0.79,1.27c0.48-.3,48.5-29.89,107.6-29.89a255.54,255.54,0,0,1,61.76,7.95Z" fill="#8c8c8c"/>
  <path d="M410.5,24l-2.5.8c12.49,3.77,22.21,7.09,28.1,9.64l0.6-1.38C431.1,30.65,422.07,27.58,410.5,24Z" fill="#8c8c8c"/>
</svg>
