<svg id="background" xmlns="http://www.w3.org/2000/svg" xmlns:xlink="http://www.w3.org/1999/xlink" width="984" height="192" viewBox="0 0 984 192">
  <defs>
    <symbol id="op-bg" data-name="op-bg" viewBox="0 0 24 24">
      <circle cx="12" cy="12" r="11.25" fill="#fff" stroke="#666" stroke-miterlimit="10" stroke-width="1.5"/>
    </symbol>
    <symbol id="op-sum_2" data-name="op-sum 2" viewBox="0 0 24 24">
      <use width="24" height="24" xlink:href="#op-bg"/>
      <path d="M9.88,9.08a1.77,1.77,0,0,1,.69-1.47,3,3,0,0,1,1.89-.54,4.84,4.84,0,0,1,1.87.38v1.1a5.22,5.22,0,0,0-1.88-.4,1.57,1.57,0,0,0-.93.25,0.78,0.78,0,0,0-.35.67q0,0.74,1.51,1.26a4.6,4.6,0,0,1,2.22,1.44A3.75,3.75,0,0,1,15.64,14v0.27a4.23,4.23,0,0,1-.4,1.87,3,3,0,0,1-1.15,1.28,3.29,3.29,0,0,1-1.74.45,3.08,3.08,0,0,1-2.42-1A3.86,3.86,0,0,1,9,14.22V14.13a3.42,3.42,0,0,1,.64-2A2.76,2.76,0,0,1,11.29,11v0a2.36,2.36,0,0,1-1-.75A1.76,1.76,0,0,1,9.88,9.08Zm0.42,5.2a3,3,0,0,0,.55,1.89,1.8,1.8,0,0,0,1.49.69,1.79,1.79,0,0,0,1.48-.69,3.23,3.23,0,0,0,.55-2,2.67,2.67,0,0,0-.58-1.67,2.35,2.35,0,0,0-1.43-.92,1.81,1.81,0,0,0-1.49.7A3.19,3.19,0,0,0,10.3,14.28Z" fill="#666"/>
    </symbol>
    <symbol id="rnn-bg" data-name="rnn-bg" viewBox="0 0 49.5 49.5">
      <rect x="0.75" y="0.75" width="48" height="48" rx="6" ry="6" fill="#fff" stroke="#666" stroke-width="1.5"/>
    </symbol>
    <symbol id="rnn-s" data-name="rnn-s" viewBox="0 0 49.5 49.5">
      <use id="rnn-bg-3" data-name="rnn-bg" width="49.5" height="49.5" xlink:href="#rnn-bg"/>
      <path d="M29.68,27.61a3.81,3.81,0,0,1-1.49,3.2,6.46,6.46,0,0,1-4,1.15,10.1,10.1,0,0,1-4.25-.71V29.51a11.16,11.16,0,0,0,2.08.64,10.92,10.92,0,0,0,2.23.23,4.49,4.49,0,0,0,2.72-.69,2.25,2.25,0,0,0,.92-1.91,2.45,2.45,0,0,0-.32-1.32,3,3,0,0,0-1.08-1,15.14,15.14,0,0,0-2.31-1A7.38,7.38,0,0,1,21,22.68a4.06,4.06,0,0,1-.93-2.77A3.45,3.45,0,0,1,21.45,17,5.61,5.61,0,0,1,25,16a10.54,10.54,0,0,1,4.26.85l-0.56,1.57A9.63,9.63,0,0,0,25,17.6a3.62,3.62,0,0,0-2.24.62,2,2,0,0,0-.81,1.71,2.62,2.62,0,0,0,.3,1.32,2.8,2.8,0,0,0,1,.95,12.47,12.47,0,0,0,2.16,1A8.56,8.56,0,0,1,28.76,25,3.68,3.68,0,0,1,29.68,27.61Z" fill="#5b5b5b"/>
    </symbol>
    <symbol id="op-sum" data-name="op-sum" viewBox="0 0 24 24">
      <use id="op-bg-9" data-name="op-bg" width="24" height="24" xlink:href="#op-bg"/>
      <path d="M7.88,12.5V11.18h3.41V7.75h1.34v3.43H16V12.5H12.62v3.42H11.29V12.5H7.88Z" fill="#666"/>
    </symbol>
  </defs>
  <title>rnn</title>
  <g id="_Group_" data-name="&lt;Group&gt;">
    <rect x="168.67" y="24" width="275.67" height="156" rx="10" ry="10" opacity="0.04"/>
  </g>
  <g id="_Group_2" data-name="&lt;Group&gt;">
    <rect x="456" y="24" width="348" height="156" rx="10" ry="10" opacity="0.04"/>
  </g>
  <rect x="816" y="24" width="132" height="156" rx="10" ry="10" opacity="0.04"/>
  <path d="M396,48H321.5a10,10,0,0,0-10,10V86.5a10,10,0,0,1-10,10H280" fill="none" stroke="#666" stroke-miterlimit="10" stroke-width="1.5"/>
  <g opacity="0.4">
    <path d="M408,52H393.5a10,10,0,0,0-10,10V86.5a10,10,0,0,1-10,10H352" fill="none" stroke="#666" stroke-miterlimit="10" stroke-width="1.5"/>
  </g>
  <g opacity="0.2">
    <path d="M496,96.5h21.5a10,10,0,0,0,10-10v-34a10,10,0,0,1,10-10H767" fill="none" stroke="#666" stroke-miterlimit="10" stroke-width="1.5"/>
  </g>
  <g opacity="0.5">
    <path d="M568,96.5h21.5a10,10,0,0,0,10-10v-30a10,10,0,0,1,10-10H767" fill="none" stroke="#666" stroke-miterlimit="10" stroke-width="1.5"/>
  </g>
  <path d="M767,50.5H681.5a10,10,0,0,0-10,10v26a10,10,0,0,1-10,10H640" fill="none" stroke="#666" stroke-miterlimit="10" stroke-width="1.5"/>
  <g opacity="0.2">
    <path d="M767,54.5H753.5a10,10,0,0,0-10,10v22a10,10,0,0,1-10,10H712" fill="none" stroke="#666" stroke-miterlimit="10" stroke-width="1.5"/>
  </g>
  <g opacity="0.4">
    <path d="M208,96.5l22-.34A10.22,10.22,0,0,0,240,86V54.5a10.07,10.07,0,0,1,10-10L396,44" fill="none" stroke="#666" stroke-miterlimit="10" stroke-width="1.5"/>
  </g>
  <path d="M910,48.5H897.5a10,10,0,0,0-10,10v28a10,10,0,0,1-10,10H856" fill="none" stroke="#666" stroke-miterlimit="10" stroke-width="1.5"/>
  <g>
    <g>
      <line x1="204" y1="192" x2="204" y2="129.43" fill="none" stroke="#666" stroke-miterlimit="10" stroke-width="1.5"/>
      <path d="M204,124a27.2,27.2,0,0,0,4.28,7.69L204,130.14l-4.28,1.55A27.18,27.18,0,0,0,204,124Z" fill="#666"/>
    </g>
    <g>
      <path d="M204,192V178a10,10,0,0,1,10-10h51.5a10,10,0,0,0,10-10V129.43" fill="none" stroke="#666" stroke-miterlimit="10" stroke-width="1.5"/>
      <path d="M275.5,124a27.2,27.2,0,0,0,4.28,7.69l-4.28-1.55-4.28,1.55A27.18,27.18,0,0,0,275.5,124Z" fill="#666"/>
    </g>
    <g>
      <line x1="492" y1="192" x2="492" y2="129.43" fill="none" stroke="#666" stroke-miterlimit="10" stroke-width="1.5"/>
      <path d="M492,124a27.2,27.2,0,0,0,4.28,7.69L492,130.14l-4.28,1.55A27.18,27.18,0,0,0,492,124Z" fill="#666"/>
    </g>
    <g>
      <line x1="852" y1="192" x2="852" y2="129.43" fill="none" stroke="#666" stroke-miterlimit="10" stroke-width="1.5"/>
      <path d="M852,124a27.2,27.2,0,0,0,4.28,7.69L852,130.14l-4.28,1.55A27.18,27.18,0,0,0,852,124Z" fill="#666"/>
    </g>
    <g>
      <path d="M516,168H626.5a10,10,0,0,0,10-10V129.43" fill="none" stroke="#666" stroke-miterlimit="10" stroke-width="1.5"/>
      <path d="M636.5,124a27.2,27.2,0,0,0,4.28,7.69l-4.28-1.55-4.28,1.55A27.18,27.18,0,0,0,636.5,124Z" fill="#666"/>
    </g>
    <g>
      <path d="M227.5,168H338a10,10,0,0,0,10-10V129.43" fill="none" stroke="#666" stroke-miterlimit="10" stroke-width="1.5"/>
      <path d="M348,124a27.2,27.2,0,0,0,4.28,7.69L348,130.14l-4.28,1.55A27.18,27.18,0,0,0,348,124Z" fill="#666"/>
    </g>
    <g>
      <path d="M492,192V178a10,10,0,0,1,10-10H698.5a10,10,0,0,0,10-10V129.43" fill="none" stroke="#666" stroke-miterlimit="10" stroke-width="1.5"/>
      <path d="M708.5,124a27.2,27.2,0,0,0,4.28,7.69l-4.28-1.55-4.28,1.55A27.18,27.18,0,0,0,708.5,124Z" fill="#666"/>
    </g>
    <g>
      <line x1="228" y1="96.5" x2="244.57" y2="96.5" fill="none" stroke="#666" stroke-miterlimit="10" stroke-width="1.5"/>
      <path d="M250,96.5a27.2,27.2,0,0,0-7.69,4.28l1.55-4.28-1.55-4.28A27.18,27.18,0,0,0,250,96.5Z" fill="#666"/>
    </g>
    <g>
      <line x1="300" y1="96.5" x2="316.57" y2="96.5" fill="none" stroke="#666" stroke-miterlimit="10" stroke-width="1.5"/>
      <path d="M322,96.5a27.2,27.2,0,0,0-7.69,4.28l1.55-4.28-1.55-4.28A27.18,27.18,0,0,0,322,96.5Z" fill="#666"/>
    </g>
    <g>
      <line x1="516" y1="96.5" x2="532.57" y2="96.5" fill="none" stroke="#666" stroke-miterlimit="10" stroke-width="1.5"/>
      <path d="M538,96.5a27.2,27.2,0,0,0-7.69,4.28l1.55-4.28-1.55-4.28A27.18,27.18,0,0,0,538,96.5Z" fill="#666"/>
    </g>
    <g>
      <line x1="588" y1="96.5" x2="604.57" y2="96.5" fill="none" stroke="#666" stroke-miterlimit="10" stroke-width="1.5"/>
      <path d="M610,96.5a27.2,27.2,0,0,0-7.69,4.28l1.55-4.28-1.55-4.28A27.18,27.18,0,0,0,610,96.5Z" fill="#666"/>
    </g>
    <g>
      <line x1="660" y1="96.5" x2="676.57" y2="96.5" fill="none" stroke="#666" stroke-miterlimit="10" stroke-width="1.5"/>
      <path d="M682,96.5a27.2,27.2,0,0,0-7.69,4.28l1.55-4.28-1.55-4.28A27.18,27.18,0,0,0,682,96.5Z" fill="#666"/>
    </g>
    <g>
      <path d="M408,48.5h13.5a9.9,9.9,0,0,1,9.9,10l-0.29,28a9.9,9.9,0,0,0,9.9,10h17.57" fill="none" stroke="#666" stroke-miterlimit="10" stroke-width="1.5"/>
      <path d="M464,96.5a27.2,27.2,0,0,0-7.69,4.28l1.55-4.28-1.55-4.28A27.18,27.18,0,0,0,464,96.5Z" fill="#666"/>
    </g>
    <g>
      <path d="M408,48.5h13.5a10,10,0,0,0,10-10V11.43" fill="none" stroke="#666" stroke-miterlimit="10" stroke-width="1.5"/>
      <path d="M431.5,6a27.2,27.2,0,0,0,4.28,7.69l-4.28-1.55-4.28,1.55A27.18,27.18,0,0,0,431.5,6Z" fill="#666"/>
    </g>
    <g>
      <path d="M768,48.5h13.5a9.9,9.9,0,0,1,9.9,10l-0.29,28a9.9,9.9,0,0,0,9.9,10h19.57" fill="none" stroke="#666" stroke-miterlimit="10" stroke-width="1.5"/>
      <path d="M826,96.5a27.2,27.2,0,0,0-7.69,4.28l1.55-4.28-1.55-4.28A27.18,27.18,0,0,0,826,96.5Z" fill="#666"/>
    </g>
    <g>
      <path d="M765,48.5h16.5a10,10,0,0,0,10-10V11.43" fill="none" stroke="#666" stroke-miterlimit="10" stroke-width="1.5"/>
      <path d="M791.5,6a27.2,27.2,0,0,0,4.28,7.69l-4.28-1.55-4.28,1.55A27.18,27.18,0,0,0,791.5,6Z" fill="#666"/>
    </g>
    <g>
      <path d="M912,48.5h13.5a10.16,10.16,0,0,1,10.11,10L935.89,86A10.42,10.42,0,0,0,946,96.21l8.57,0.18" fill="none" stroke="#666" stroke-miterlimit="10" stroke-width="1.5"/>
      <path d="M960,96.5a27.2,27.2,0,0,0-7.78,4.12l1.64-4.25-1.46-4.31A27.18,27.18,0,0,0,960,96.5Z" fill="#666"/>
    </g>
    <g>
      <path d="M912,48.5h13.5a10,10,0,0,0,10-10V11.43" fill="none" stroke="#666" stroke-miterlimit="10" stroke-width="1.5"/>
      <path d="M935.5,6a27.2,27.2,0,0,0,4.28,7.69l-4.28-1.55-4.28,1.55A27.18,27.18,0,0,0,935.5,6Z" fill="#666"/>
    </g>
    <g>
      <path d="M516,168h38.5a10,10,0,0,0,10-10V129.43" fill="none" stroke="#666" stroke-miterlimit="10" stroke-width="1.5"/>
      <path d="M564.5,124a27.2,27.2,0,0,0,4.28,7.69l-4.28-1.55-4.28,1.55A27.18,27.18,0,0,0,564.5,124Z" fill="#666"/>
    </g>
  </g>
  <g>
    <g opacity="0.1">
      <circle cx="205.75" cy="151.25" r="11.25" stroke="#000" stroke-miterlimit="10" stroke-width="1.5"/>
      <path d="M203.63,148.33a1.77,1.77,0,0,1,.69-1.47,3,3,0,0,1,1.89-.54,4.84,4.84,0,0,1,1.87.38v1.1a5.22,5.22,0,0,0-1.88-.4,1.57,1.57,0,0,0-.93.25,0.78,0.78,0,0,0-.35.67q0,0.74,1.51,1.26a4.6,4.6,0,0,1,2.22,1.44,3.75,3.75,0,0,1,.74,2.26v0.27a4.23,4.23,0,0,1-.4,1.87,3,3,0,0,1-1.15,1.28,3.29,3.29,0,0,1-1.74.45,3.08,3.08,0,0,1-2.42-1,3.86,3.86,0,0,1-.9-2.66v-0.09a3.42,3.42,0,0,1,.64-2,2.76,2.76,0,0,1,1.63-1.14v0a2.36,2.36,0,0,1-1-.75A1.76,1.76,0,0,1,203.63,148.33Zm0.42,5.2a3,3,0,0,0,.55,1.89,1.94,1.94,0,0,0,3,0,3.23,3.23,0,0,0,.55-2,2.67,2.67,0,0,0-.58-1.67,2.35,2.35,0,0,0-1.43-.92,1.81,1.81,0,0,0-1.49.7A3.19,3.19,0,0,0,204.05,153.53Z"/>
    </g>
    <use width="24" height="24" transform="translate(192.75 137.25)" xlink:href="#op-sum_2"/>
  </g>
  <g id="_Group_3" data-name="&lt;Group&gt;">
    <g opacity="0.1">
      <rect x="181" y="74" width="48" height="48" rx="6" ry="6" stroke="#000" stroke-width="1.5"/>
      <rect x="181" y="74" width="48" height="48" rx="6" ry="6"/>
      <rect x="181" y="74" width="48" height="48" rx="6" ry="6" fill="none" stroke="#000" stroke-width="1.5"/>
      <path d="M209.93,100.86a3.81,3.81,0,0,1-1.49,3.2,6.46,6.46,0,0,1-4,1.15,10.1,10.1,0,0,1-4.25-.71v-1.74a11.16,11.16,0,0,0,2.08.64,10.92,10.92,0,0,0,2.23.23,4.49,4.49,0,0,0,2.72-.69,2.25,2.25,0,0,0,.92-1.91,2.45,2.45,0,0,0-.32-1.32,3,3,0,0,0-1.08-1,15.14,15.14,0,0,0-2.31-1,7.38,7.38,0,0,1-3.1-1.84,4.06,4.06,0,0,1-.93-2.77,3.45,3.45,0,0,1,1.35-2.86,5.61,5.61,0,0,1,3.57-1.06,10.54,10.54,0,0,1,4.26.85L209,91.66a9.63,9.63,0,0,0-3.74-.81,3.62,3.62,0,0,0-2.24.62,2,2,0,0,0-.81,1.71,2.62,2.62,0,0,0,.3,1.32,2.8,2.8,0,0,0,1,.95,12.47,12.47,0,0,0,2.16,1A8.56,8.56,0,0,1,209,98.27,3.68,3.68,0,0,1,209.93,100.86Z"/>
    </g>
    <use width="49.5" height="49.5" transform="translate(179.25 71.25)" xlink:href="#rnn-s"/>
  </g>
  <g id="_Group_4" data-name="&lt;Group&gt;">
    <g opacity="0.1">
      <rect x="253" y="74" width="48" height="48" rx="6" ry="6" stroke="#000" stroke-width="1.5"/>
      <rect x="253" y="74" width="48" height="48" rx="6" ry="6"/>
      <rect x="253" y="74" width="48" height="48" rx="6" ry="6" fill="none" stroke="#000" stroke-width="1.5"/>
      <path d="M281.93,100.86a3.81,3.81,0,0,1-1.49,3.2,6.46,6.46,0,0,1-4,1.15,10.1,10.1,0,0,1-4.25-.71v-1.74a11.16,11.16,0,0,0,2.08.64,10.92,10.92,0,0,0,2.23.23,4.49,4.49,0,0,0,2.72-.69,2.25,2.25,0,0,0,.92-1.91,2.45,2.45,0,0,0-.32-1.32,3,3,0,0,0-1.08-1,15.14,15.14,0,0,0-2.31-1,7.38,7.38,0,0,1-3.1-1.84,4.06,4.06,0,0,1-.93-2.77,3.45,3.45,0,0,1,1.35-2.86,5.61,5.61,0,0,1,3.57-1.06,10.54,10.54,0,0,1,4.26.85L281,91.66a9.63,9.63,0,0,0-3.74-.81,3.62,3.62,0,0,0-2.24.62,2,2,0,0,0-.81,1.71,2.62,2.62,0,0,0,.3,1.32,2.8,2.8,0,0,0,1,.95,12.47,12.47,0,0,0,2.16,1A8.56,8.56,0,0,1,281,98.27,3.68,3.68,0,0,1,281.93,100.86Z"/>
    </g>
    <use width="49.5" height="49.5" transform="translate(251.25 71.25)" xlink:href="#rnn-s"/>
  </g>
  <g id="_Group_5" data-name="&lt;Group&gt;">
    <g opacity="0.1">
      <rect x="325" y="74" width="48" height="48" rx="6" ry="6" stroke="#000" stroke-width="1.5"/>
      <rect x="325" y="74" width="48" height="48" rx="6" ry="6"/>
      <rect x="325" y="74" width="48" height="48" rx="6" ry="6" fill="none" stroke="#000" stroke-width="1.5"/>
      <path d="M353.93,100.86a3.81,3.81,0,0,1-1.49,3.2,6.46,6.46,0,0,1-4,1.15,10.1,10.1,0,0,1-4.25-.71v-1.74a11.16,11.16,0,0,0,2.08.64,10.92,10.92,0,0,0,2.23.23,4.49,4.49,0,0,0,2.72-.69,2.25,2.25,0,0,0,.92-1.91,2.45,2.45,0,0,0-.32-1.32,3,3,0,0,0-1.08-1,15.14,15.14,0,0,0-2.31-1,7.38,7.38,0,0,1-3.1-1.84,4.06,4.06,0,0,1-.93-2.77,3.45,3.45,0,0,1,1.35-2.86,5.61,5.61,0,0,1,3.57-1.06,10.54,10.54,0,0,1,4.26.85L353,91.66a9.63,9.63,0,0,0-3.74-.81,3.62,3.62,0,0,0-2.24.62,2,2,0,0,0-.81,1.71,2.62,2.62,0,0,0,.3,1.32,2.8,2.8,0,0,0,1,.95,12.47,12.47,0,0,0,2.16,1A8.56,8.56,0,0,1,353,98.27,3.68,3.68,0,0,1,353.93,100.86Z"/>
    </g>
    <use width="49.5" height="49.5" transform="translate(323.25 71.25)" xlink:href="#rnn-s"/>
  </g>
  <g id="_Group_6" data-name="&lt;Group&gt;">
    <g opacity="0.1">
      <rect x="469" y="74" width="48" height="48" rx="6" ry="6" stroke="#000" stroke-width="1.5"/>
      <rect x="469" y="74" width="48" height="48" rx="6" ry="6"/>
      <rect x="469" y="74" width="48" height="48" rx="6" ry="6" fill="none" stroke="#000" stroke-width="1.5"/>
      <path d="M497.93,100.86a3.81,3.81,0,0,1-1.49,3.2,6.46,6.46,0,0,1-4,1.15,10.1,10.1,0,0,1-4.25-.71v-1.74a11.16,11.16,0,0,0,2.08.64,10.92,10.92,0,0,0,2.23.23,4.49,4.49,0,0,0,2.72-.69,2.25,2.25,0,0,0,.92-1.91,2.45,2.45,0,0,0-.32-1.32,3,3,0,0,0-1.08-1,15.14,15.14,0,0,0-2.31-1,7.38,7.38,0,0,1-3.1-1.84,4.06,4.06,0,0,1-.93-2.77,3.45,3.45,0,0,1,1.35-2.86,5.61,5.61,0,0,1,3.57-1.06,10.54,10.54,0,0,1,4.26.85L497,91.66a9.63,9.63,0,0,0-3.74-.81,3.62,3.62,0,0,0-2.24.62,2,2,0,0,0-.81,1.71,2.62,2.62,0,0,0,.3,1.32,2.8,2.8,0,0,0,1,.95,12.47,12.47,0,0,0,2.16,1A8.56,8.56,0,0,1,497,98.27,3.68,3.68,0,0,1,497.93,100.86Z"/>
    </g>
    <use width="49.5" height="49.5" transform="translate(467.25 71.25)" xlink:href="#rnn-s"/>
  </g>
  <g id="_Group_7" data-name="&lt;Group&gt;">
    <g opacity="0.1">
      <rect x="541" y="74" width="48" height="48" rx="6" ry="6" stroke="#000" stroke-width="1.5"/>
      <rect x="541" y="74" width="48" height="48" rx="6" ry="6"/>
      <rect x="541" y="74" width="48" height="48" rx="6" ry="6" fill="none" stroke="#000" stroke-width="1.5"/>
      <path d="M569.93,100.86a3.81,3.81,0,0,1-1.49,3.2,6.46,6.46,0,0,1-4,1.15,10.1,10.1,0,0,1-4.25-.71v-1.74a11.16,11.16,0,0,0,2.08.64,10.92,10.92,0,0,0,2.23.23,4.49,4.49,0,0,0,2.72-.69,2.25,2.25,0,0,0,.92-1.91,2.45,2.45,0,0,0-.32-1.32,3,3,0,0,0-1.08-1,15.14,15.14,0,0,0-2.31-1,7.38,7.38,0,0,1-3.1-1.84,4.06,4.06,0,0,1-.93-2.77,3.45,3.45,0,0,1,1.35-2.86,5.61,5.61,0,0,1,3.57-1.06,10.54,10.54,0,0,1,4.26.85L569,91.66a9.63,9.63,0,0,0-3.74-.81,3.62,3.62,0,0,0-2.24.62,2,2,0,0,0-.81,1.71,2.62,2.62,0,0,0,.3,1.32,2.8,2.8,0,0,0,1,.95,12.47,12.47,0,0,0,2.16,1A8.56,8.56,0,0,1,569,98.27,3.68,3.68,0,0,1,569.93,100.86Z"/>
    </g>
    <use width="49.5" height="49.5" transform="translate(539.25 71.25)" xlink:href="#rnn-s"/>
  </g>
  <g id="_Group_8" data-name="&lt;Group&gt;">
    <g opacity="0.1">
      <rect x="613" y="74" width="48" height="48" rx="6" ry="6" stroke="#000" stroke-width="1.5"/>
      <rect x="613" y="74" width="48" height="48" rx="6" ry="6"/>
      <rect x="613" y="74" width="48" height="48" rx="6" ry="6" fill="none" stroke="#000" stroke-width="1.5"/>
      <path d="M641.93,100.86a3.81,3.81,0,0,1-1.49,3.2,6.46,6.46,0,0,1-4,1.15,10.1,10.1,0,0,1-4.25-.71v-1.74a11.16,11.16,0,0,0,2.08.64,10.92,10.92,0,0,0,2.23.23,4.49,4.49,0,0,0,2.72-.69,2.25,2.25,0,0,0,.92-1.91,2.45,2.45,0,0,0-.32-1.32,3,3,0,0,0-1.08-1,15.14,15.14,0,0,0-2.31-1,7.38,7.38,0,0,1-3.1-1.84,4.06,4.06,0,0,1-.93-2.77,3.45,3.45,0,0,1,1.35-2.86,5.61,5.61,0,0,1,3.57-1.06,10.54,10.54,0,0,1,4.26.85L641,91.66a9.63,9.63,0,0,0-3.74-.81,3.62,3.62,0,0,0-2.24.62,2,2,0,0,0-.81,1.71,2.62,2.62,0,0,0,.3,1.32,2.8,2.8,0,0,0,1,.95,12.47,12.47,0,0,0,2.16,1A8.56,8.56,0,0,1,641,98.27,3.68,3.68,0,0,1,641.93,100.86Z"/>
    </g>
    <use width="49.5" height="49.5" transform="translate(611.25 71.25)" xlink:href="#rnn-s"/>
  </g>
  <g id="_Group_9" data-name="&lt;Group&gt;">
    <g opacity="0.1">
      <rect x="685" y="74" width="48" height="48" rx="6" ry="6" stroke="#000" stroke-width="1.5"/>
      <rect x="685" y="74" width="48" height="48" rx="6" ry="6"/>
      <rect x="685" y="74" width="48" height="48" rx="6" ry="6" fill="none" stroke="#000" stroke-width="1.5"/>
      <path d="M713.93,100.86a3.81,3.81,0,0,1-1.49,3.2,6.46,6.46,0,0,1-4,1.15,10.1,10.1,0,0,1-4.25-.71v-1.74a11.16,11.16,0,0,0,2.08.64,10.92,10.92,0,0,0,2.23.23,4.49,4.49,0,0,0,2.72-.69,2.25,2.25,0,0,0,.92-1.91,2.45,2.45,0,0,0-.32-1.32,3,3,0,0,0-1.08-1,15.14,15.14,0,0,0-2.31-1,7.38,7.38,0,0,1-3.1-1.84,4.06,4.06,0,0,1-.93-2.77,3.45,3.45,0,0,1,1.35-2.86,5.61,5.61,0,0,1,3.57-1.06,10.54,10.54,0,0,1,4.26.85L713,91.66a9.63,9.63,0,0,0-3.74-.81,3.62,3.62,0,0,0-2.24.62,2,2,0,0,0-.81,1.71,2.62,2.62,0,0,0,.3,1.32,2.8,2.8,0,0,0,1,.95,12.47,12.47,0,0,0,2.16,1A8.56,8.56,0,0,1,713,98.27,3.68,3.68,0,0,1,713.93,100.86Z"/>
    </g>
    <use width="49.5" height="49.5" transform="translate(683.25 71.25)" xlink:href="#rnn-s"/>
  </g>
  <g id="_Group_10" data-name="&lt;Group&gt;">
    <g opacity="0.1">
      <rect x="829" y="74" width="48" height="48" rx="6" ry="6" stroke="#000" stroke-width="1.5"/>
      <rect x="829" y="74" width="48" height="48" rx="6" ry="6"/>
      <rect x="829" y="74" width="48" height="48" rx="6" ry="6" fill="none" stroke="#000" stroke-width="1.5"/>
      <path d="M857.93,100.86a3.81,3.81,0,0,1-1.49,3.2,6.46,6.46,0,0,1-4,1.15,10.1,10.1,0,0,1-4.25-.71v-1.74a11.16,11.16,0,0,0,2.08.64,10.92,10.92,0,0,0,2.23.23,4.49,4.49,0,0,0,2.72-.69,2.25,2.25,0,0,0,.92-1.91,2.45,2.45,0,0,0-.32-1.32,3,3,0,0,0-1.08-1,15.14,15.14,0,0,0-2.31-1,7.38,7.38,0,0,1-3.1-1.84,4.06,4.06,0,0,1-.93-2.77,3.45,3.45,0,0,1,1.35-2.86,5.61,5.61,0,0,1,3.57-1.06,10.54,10.54,0,0,1,4.26.85L857,91.66a9.63,9.63,0,0,0-3.74-.81,3.62,3.62,0,0,0-2.24.62,2,2,0,0,0-.81,1.71,2.62,2.62,0,0,0,.3,1.32,2.8,2.8,0,0,0,1,.95,12.47,12.47,0,0,0,2.16,1A8.56,8.56,0,0,1,857,98.27,3.68,3.68,0,0,1,857.93,100.86Z"/>
    </g>
    <use width="49.5" height="49.5" transform="translate(827.25 71.25)" xlink:href="#rnn-s"/>
  </g>
  <g id="_Group_11" data-name="&lt;Group&gt;">
    <g opacity="0.1">
      <circle cx="493.75" cy="151.25" r="11.25" stroke="#000" stroke-miterlimit="10" stroke-width="1.5"/>
      <path d="M491.63,148.33a1.77,1.77,0,0,1,.69-1.47,3,3,0,0,1,1.89-.54,4.84,4.84,0,0,1,1.87.38v1.1a5.22,5.22,0,0,0-1.88-.4,1.57,1.57,0,0,0-.93.25,0.78,0.78,0,0,0-.35.67q0,0.74,1.51,1.26a4.6,4.6,0,0,1,2.22,1.44,3.75,3.75,0,0,1,.74,2.26v0.27a4.23,4.23,0,0,1-.4,1.87,3,3,0,0,1-1.15,1.28,3.29,3.29,0,0,1-1.74.45,3.08,3.08,0,0,1-2.42-1,3.86,3.86,0,0,1-.9-2.66v-0.09a3.42,3.42,0,0,1,.64-2,2.76,2.76,0,0,1,1.63-1.14v0a2.36,2.36,0,0,1-1-.75A1.76,1.76,0,0,1,491.63,148.33Zm0.42,5.2a3,3,0,0,0,.55,1.89,1.94,1.94,0,0,0,3,0,3.23,3.23,0,0,0,.55-2,2.67,2.67,0,0,0-.58-1.67,2.35,2.35,0,0,0-1.43-.92,1.81,1.81,0,0,0-1.49.7A3.19,3.19,0,0,0,492.05,153.53Z"/>
    </g>
    <use width="24" height="24" transform="translate(480.75 137.25)" xlink:href="#op-sum_2"/>
  </g>
  <g>
    <g opacity="0.1">
      <circle cx="853.75" cy="151.25" r="11.25" stroke="#000" stroke-miterlimit="10" stroke-width="1.5"/>
      <path d="M851.63,148.33a1.77,1.77,0,0,1,.69-1.47,3,3,0,0,1,1.89-.54,4.84,4.84,0,0,1,1.87.38v1.1a5.22,5.22,0,0,0-1.88-.4,1.57,1.57,0,0,0-.93.25,0.78,0.78,0,0,0-.35.67q0,0.74,1.51,1.26a4.6,4.6,0,0,1,2.22,1.44,3.75,3.75,0,0,1,.74,2.26v0.27a4.23,4.23,0,0,1-.4,1.87,3,3,0,0,1-1.15,1.28,3.29,3.29,0,0,1-1.74.45,3.08,3.08,0,0,1-2.42-1,3.86,3.86,0,0,1-.9-2.66v-0.09a3.42,3.42,0,0,1,.64-2,2.76,2.76,0,0,1,1.63-1.14v0a2.36,2.36,0,0,1-1-.75A1.76,1.76,0,0,1,851.63,148.33Zm0.42,5.2a3,3,0,0,0,.55,1.89,1.94,1.94,0,0,0,3,0,3.23,3.23,0,0,0,.55-2,2.67,2.67,0,0,0-.58-1.67,2.35,2.35,0,0,0-1.43-.92,1.81,1.81,0,0,0-1.49.7A3.19,3.19,0,0,0,852.05,153.53Z"/>
    </g>
    <use width="24" height="24" transform="translate(840.75 137.25)" xlink:href="#op-sum_2"/>
  </g>
  <g id="_Group_12" data-name="&lt;Group&gt;">
    <g opacity="0.1">
      <circle cx="911.75" cy="50.39" r="11.25" stroke="#000" stroke-miterlimit="10" stroke-width="1.5"/>
      <path d="M907.63,50.88V49.57H911V46.14h1.34v3.43h3.41v1.31h-3.41V54.3H911V50.88h-3.41Z"/>
    </g>
    <use width="24" height="24" transform="translate(898.75 36.39)" xlink:href="#op-sum"/>
  </g>
  <g id="_Group_13" data-name="&lt;Group&gt;">
    <g opacity="0.1">
      <circle cx="408.25" cy="50.39" r="11.25" stroke="#000" stroke-miterlimit="10" stroke-width="1.5"/>
      <path d="M404.13,50.88V49.57h3.41V46.14h1.34v3.43h3.41v1.31h-3.41V54.3h-1.34V50.88h-3.41Z"/>
    </g>
    <use width="24" height="24" transform="translate(395.25 36.39)" xlink:href="#op-sum"/>
  </g>
  <g id="_Group_14" data-name="&lt;Group&gt;">
    <g opacity="0.1">
      <circle cx="767.75" cy="50.39" r="11.25" stroke="#000" stroke-miterlimit="10" stroke-width="1.5"/>
      <path d="M763.63,50.88V49.57H767V46.14h1.34v3.43h3.41v1.31h-3.41V54.3H767V50.88h-3.41Z"/>
    </g>
    <use width="24" height="24" transform="translate(754.75 36.39)" xlink:href="#op-sum"/>
  </g>
  <text transform="translate(168 12)" font-size="12" fill="#666" font-family="Open Sans">time step 0</text>
  <text transform="translate(456 12)" font-size="12" fill="#666" font-family="Open Sans">time step 1</text>
  <text transform="translate(816 12)" font-size="12" fill="#666" font-family="Open Sans">time step 2</text>
</svg>
