<?xml version="1.0" encoding="utf-8"?>
<!-- Generator: Adobe Illustrator 19.1.0, SVG Export Plug-In . SVG Version: 6.00 Build 0)  -->
<svg version="1.1" xmlns="http://www.w3.org/2000/svg" xmlns:xlink="http://www.w3.org/1999/xlink" x="0px" y="0px" width="984px"
	 height="456px" viewBox="0 0 984 456" enable-background="new 0 0 984 456" xml:space="preserve">
<symbol  id="array-5" viewBox="-126.5 -18.5 180.5 37">
	<path fill="none" stroke="#8C8C8C" stroke-miterlimit="10" d="M47.5-18H-120c-3.3,0-6,2.7-6,6v24c0,3.3,2.7,6,6,6H47.5
		c3.3,0,6-2.7,6-6v-24C53.5-15.3,50.8-18,47.5-18z"/>
	<line fill="none" stroke="#8C8C8C" stroke-miterlimit="10" x1="-90.5" y1="-18" x2="-90.5" y2="18"/>
	<line fill="none" stroke="#8C8C8C" stroke-miterlimit="10" x1="-54.5" y1="-18" x2="-54.5" y2="18"/>
	<line fill="none" stroke="#8C8C8C" stroke-miterlimit="10" x1="-18.5" y1="-18" x2="-18.5" y2="18"/>
	<line fill="none" stroke="#8C8C8C" stroke-miterlimit="10" x1="17.5" y1="-18" x2="17.5" y2="18"/>
</symbol>
<symbol  id="op-bg" viewBox="-11.2 -11.2 22.5 22.5">
	<path fill="#798294" d="M11.2,0c0-6.2-5-11.2-11.2-11.2S-11.2-6.2-11.2,0s5,11.2,11.2,11.2S11.2,6.2,11.2,0z"/>
</symbol>
<symbol  id="rnn-a" viewBox="-21.5 -26.5 48 48">
	<use xlink:href="#rnn-bg"  width="48" height="48" id="XMLID_33_" x="-21.5" y="-26.5" overflow="visible"/>
	<text transform="matrix(1 0 0 -1 -4.7627 -9.5)" fill="#FFFFFF" font-family="'Helvetica'" font-size="21.7741px">A</text>
</symbol>
<symbol  id="rnn-bg" viewBox="-21.5 -26.5 48 48">
	<path fill="#798294" d="M20.5-26.5h-36c-3.3,0-6,2.7-6,6v36c0,3.3,2.7,6,6,6h36c3.3,0,6-2.7,6-6v-36C26.5-23.8,23.8-26.5,20.5-26.5
		z"/>
</symbol>
<g id="background">
	<g id="XMLID_22_">
		<g>
			<path fill="#E6EAF2" d="M779,221.5c0,3-3,5.5-6.7,5.5c0,0,0,0-9.3,0c-169.6,0-393.6,0-575,0c-11.3,0-11.3,0-11.3,0
				c-4.8,0-8.7-2.5-8.7-5.5c0,0,0,0,0-8c0-10.1,0-24.2,0-36c0-12.5,0-12.5,0-12.5c0-5.5,3.9-10,8.7-10c0,0,0,0,11.3,0
				c181.4,0,405.4,0,575,0c9.3,0,9.3,0,9.3,0c3.7,0,6.7,4.5,6.7,10c0,0,0,0,0,12.5c0,11.8,0,25.9,0,36
				C779,221.5,779,221.5,779,221.5z"/>
		</g>
	</g>
</g>
<g id="edges">
</g>
<g id="nodes">
	
		<use xlink:href="#rnn-a"  width="48" height="48" x="-21.5" y="-26.5" transform="matrix(1 0 0 -1 200.5011 188.5)" overflow="visible"/>
	
		<use xlink:href="#rnn-a"  width="48" height="48" x="-21.5" y="-26.5" transform="matrix(1 0 0 -1 393.5011 188.5)" overflow="visible"/>
	
		<use xlink:href="#rnn-a"  width="48" height="48" x="-21.5" y="-26.5" transform="matrix(1 0 0 -1 597.5011 188.5)" overflow="visible"/>
	<g>
		<text transform="matrix(1 0 0 1 368.4913 124.9995)" fill="#666666" font-family="'Helvetica'" font-size="12px">read</text>
	</g>
	<g>
		<text transform="matrix(1 0 0 1 255.8322 124.9995)" fill="#666666" font-family="'Helvetica'" font-size="12px">write</text>
	</g>
	<g>
		<g>
			<line fill="none" stroke="#8C8C8C" stroke-miterlimit="10" x1="264" y1="165.5" x2="358.9" y2="82.5"/>
			<g>
				<polygon fill="#8C8C8C" points="359.1,87.7 358.1,87.6 358.6,82.7 353.7,82.6 353.7,81.6 359.8,81.8 				"/>
			</g>
		</g>
	</g>
	<g>
		<g>
			<line fill="none" stroke="#8C8C8C" stroke-miterlimit="10" x1="386.2" y1="81.1" x2="357.2" y2="145.9"/>
			<g>
				<polygon fill="#8C8C8C" points="354.9,141.2 355.8,140.8 357.4,145.5 361.9,143.6 362.3,144.5 356.8,146.9 				"/>
			</g>
		</g>
	</g>
	<g>
		<g>
			<line fill="none" stroke="#B3B3B3" stroke-miterlimit="10" x1="517.5" y1="80" x2="517.5" y2="150.9"/>
			<g>
				<polygon fill="#B3B3B3" points="513.4,147.6 514.1,146.9 517.5,150.5 520.9,146.9 521.6,147.6 517.5,152 				"/>
			</g>
		</g>
	</g>
	<path fill="none" stroke="#8C8C8C" stroke-miterlimit="10" d="M279,80c0,0,30,49,71,10"/>
	<g>
		<g>
			<line fill="none" stroke="#B3B3B3" stroke-miterlimit="10" x1="406" y1="165.5" x2="500.9" y2="82.5"/>
			<g>
				<polygon fill="#B3B3B3" points="501.1,87.7 500.1,87.6 500.6,82.7 495.7,82.6 495.7,81.6 501.8,81.8 				"/>
			</g>
		</g>
	</g>
	<path fill="none" stroke="#B3B3B3" stroke-miterlimit="10" d="M421,80c0,0,30,49,71,10"/>
	
		<use xlink:href="#array-5"  width="180.5" height="37" x="-126.5" y="-18.5" transform="matrix(1 0 0 -1 294.5001 65.5)" overflow="visible"/>
	
		<use xlink:href="#array-5"  width="180.5" height="37" x="-126.5" y="-18.5" transform="matrix(1 0 0 -1 498.5001 65.5)" overflow="visible"/>
	
		<use xlink:href="#array-5"  width="180.5" height="37" x="-126.5" y="-18.5" transform="matrix(1 0 0 -1 702.5001 65.5)" overflow="visible"/>
</g>
<g id="text">
	<g>
		<text transform="matrix(1 0 0 1 199.6534 11.9998)" fill="#666666" font-family="'Helvetica'" font-size="12px">time step 0</text>
	</g>
	<g>
		<text transform="matrix(1 0 0 1 392.6554 11.9998)" fill="#666666" font-family="'Helvetica'" font-size="12px">step 1</text>
	</g>
	<g>
		<text transform="matrix(1 0 0 1 596.6554 11.9998)" fill="#666666" font-family="'Helvetica'" font-size="12px">step 2</text>
	</g>
	<g>
		<text transform="matrix(1 0 0 1 186.6632 256.9998)" fill="#666666" font-family="'Helvetica'" font-size="12px">x0</text>
	</g>
	<g>
		<text transform="matrix(1 0 0 1 210.6632 256.9998)" fill="#666666" font-family="'Helvetica'" font-size="12px">y0</text>
	</g>
	<g>
		<g>
			<line fill="none" stroke="#8C8C8C" stroke-miterlimit="10" x1="193" y1="241" x2="193" y2="217.6"/>
			<g>
				<polygon fill="#8C8C8C" points="197.1,220.9 196.4,221.6 193,218 189.6,221.6 188.9,220.9 193,216.5 				"/>
			</g>
		</g>
	</g>
	<g>
		<g>
			<line fill="none" stroke="#8C8C8C" stroke-miterlimit="10" x1="218" y1="216.5" x2="218" y2="239.9"/>
			<g>
				<polygon fill="#8C8C8C" points="213.9,236.6 214.6,235.9 218,239.5 221.4,235.9 222.1,236.6 218,241 				"/>
			</g>
		</g>
	</g>
	<g>
		<text transform="matrix(1 0 0 1 378.6632 256.9998)" fill="#666666" font-family="'Helvetica'" font-size="12px">x1</text>
	</g>
	<g>
		<text transform="matrix(1 0 0 1 402.6632 256.9998)" fill="#666666" font-family="'Helvetica'" font-size="12px">y1</text>
	</g>
	<g>
		<g>
			<line fill="none" stroke="#8C8C8C" stroke-miterlimit="10" x1="385" y1="241" x2="385" y2="217.6"/>
			<g>
				<polygon fill="#8C8C8C" points="389.1,220.9 388.4,221.6 385,218 381.6,221.6 380.9,220.9 385,216.5 				"/>
			</g>
		</g>
	</g>
	<g>
		<g>
			<line fill="none" stroke="#8C8C8C" stroke-miterlimit="10" x1="410" y1="216.5" x2="410" y2="239.9"/>
			<g>
				<polygon fill="#8C8C8C" points="405.9,236.6 406.6,235.9 410,239.5 413.4,235.9 414.1,236.6 410,241 				"/>
			</g>
		</g>
	</g>
	<g>
		<text transform="matrix(1 0 0 1 582.6632 256.9998)" fill="#666666" font-family="'Helvetica'" font-size="12px">x2</text>
	</g>
	<g>
		<text transform="matrix(1 0 0 1 606.6632 256.9998)" fill="#666666" font-family="'Helvetica'" font-size="12px">y2</text>
	</g>
	<g>
		<g>
			<line fill="none" stroke="#8C8C8C" stroke-miterlimit="10" x1="589" y1="241" x2="589" y2="217.6"/>
			<g>
				<polygon fill="#8C8C8C" points="593.1,220.9 592.4,221.6 589,218 585.6,221.6 584.9,220.9 589,216.5 				"/>
			</g>
		</g>
	</g>
	<g>
		<g>
			<line fill="none" stroke="#8C8C8C" stroke-miterlimit="10" x1="614" y1="216.5" x2="614" y2="239.9"/>
			<g>
				<polygon fill="#8C8C8C" points="609.9,236.6 610.6,235.9 614,239.5 617.4,235.9 618.1,236.6 614,241 				"/>
			</g>
		</g>
	</g>
</g>
<g id="images">
</g>
</svg>
