<svg id="background" xmlns="http://www.w3.org/2000/svg" xmlns:xlink="http://www.w3.org/1999/xlink" width="984" height="372" viewBox="0 0 984 372">
  <defs>
    <symbol id="rnn-bg" data-name="rnn-bg" viewBox="0 0 49.5 49.5">
      <rect x="0.75" y="0.75" width="48" height="48" rx="6" ry="6" fill="#fff" stroke="#666" stroke-width="1.5"/>
    </symbol>
    <symbol id="rnn-a" data-name="rnn-a" viewBox="0 0 49.5 49.5">
      <use id="rnn-bg-3" data-name="rnn-bg" width="49.5" height="49.5" xlink:href="#rnn-bg"/>
      <text transform="translate(18.08 31.75)" font-size="21.77" fill="#515151" font-family="Helvetica" letter-spacing="-1">A</text>
    </symbol>
    <symbol id="op-read" data-name="op-read" viewBox="0 0 55.07 25">
      <g id="_Group_6" data-name="&lt;Group&gt;">
        <g>
          <path d="M54.53,12.5a12,12,0,0,1-12,12h-30a12,12,0,1,1,0-24h30a12,12,0,0,1,12,12h0Z" fill="#fff"/>
          <path d="M55.07,13a12,12,0,0,1-12,12H12A12,12,0,0,1,0,13V12A12,12,0,0,1,12,0H43.07a12,12,0,0,1,12,12v1Zm-54-.5a11.79,11.79,0,0,0,12,11.5H42A11.79,11.79,0,0,0,54,12.5,11.79,11.79,0,0,0,42,1H13.07A11.79,11.79,0,0,0,1.07,12.5Z" fill="#666"/>
        </g>
      </g>
      <text transform="translate(15.21 16.02)" font-size="12" fill="#666" font-family="Open Sans">read</text>
    </symbol>
    <symbol id="op-write" data-name="op-write" viewBox="0 0 55.07 25">
      <g id="_Group_8" data-name="&lt;Group&gt;">
        <g>
          <path d="M54.53,12.5a12,12,0,0,1-12,12h-30a12,12,0,1,1,0-24h30a12,12,0,0,1,12,12h0Z" fill="#fff"/>
          <path d="M55.07,13a12,12,0,0,1-12,12H12A12,12,0,0,1,0,13V12A12,12,0,0,1,12,0H43.07a12,12,0,0,1,12,12v1Zm-54-.5a11.79,11.79,0,0,0,12,11.5H42A11.79,11.79,0,0,0,54,12.5,11.79,11.79,0,0,0,42,1H13.07A11.79,11.79,0,0,0,1.07,12.5Z" fill="#666"/>
        </g>
      </g>
      <text transform="translate(13.92 16.02)" font-size="12" fill="#666" font-family="Open Sans">write</text>
    </symbol>
    <symbol id="array-3" data-name="array-3" viewBox="0 0 108.5 37">
      <rect x="0.5" y="0.5" width="107.5" height="36" rx="6" ry="6" fill="#fff" stroke="#8c8c8c" stroke-miterlimit="10"/>
      <line x1="36" y1="36.5" x2="36" y2="0.5" fill="none" stroke="#8c8c8c" stroke-miterlimit="10"/>
      <line x1="72" y1="36.5" x2="72" y2="0.5" fill="none" stroke="#8c8c8c" stroke-miterlimit="10"/>
    </symbol>
    <symbol id="array-vector" data-name="array-vector" viewBox="0 0 36 36">
      <rect width="36" height="36" fill="#0080f7" opacity="0"/>
      <g>
        <line x1="18" y1="24" x2="18" y2="13.08" fill="none" stroke="#8c8c8c" stroke-miterlimit="10"/>
        <polygon points="22.09 16.4 21.36 17.08 18 13.47 14.64 17.08 13.91 16.4 18 12 22.09 16.4" fill="#8c8c8c"/>
      </g>
    </symbol>
  </defs>
  <title>rnn</title>
  <g id="_Group_" data-name="&lt;Group&gt;">
    <rect x="198" y="228.08" width="575" height="72" rx="10" ry="10" opacity="0.04"/>
  </g>
  <g id="_Group_2" data-name="&lt;Group&gt;">
    <rect x="168" y="45" width="131" height="57" rx="10" ry="10" opacity="0.04"/>
  </g>
  <g id="_Group_3" data-name="&lt;Group&gt;">
    <rect x="338" y="45" width="131" height="57" rx="10" ry="10" opacity="0.04"/>
  </g>
  <g id="_Group_4" data-name="&lt;Group&gt;">
    <rect x="505" y="45" width="131" height="57" rx="10" ry="10" opacity="0.04"/>
  </g>
  <g id="_Group_5" data-name="&lt;Group&gt;">
    <rect x="673" y="45" width="131" height="57" rx="10" ry="10" opacity="0.04"/>
  </g>
  <g>
    <g opacity="0.1">
      <rect x="211" y="242" width="48" height="48" rx="6" ry="6" stroke="#000" stroke-width="1.5"/>
      <path d="M234.55,257.38h2.39L242.61,273h-2.32l-1.63-4.68h-6.13L230.84,273h-2.17Zm3.51,9.22-2.4-6.9-2.5,6.9h4.9Z"/>
    </g>
    <use width="49.5" height="49.5" transform="translate(209.25 239.25)" xlink:href="#rnn-a"/>
  </g>
  <g>
    <g opacity="0.1">
      <rect x="379" y="242" width="48" height="48" rx="6" ry="6" stroke="#000" stroke-width="1.5"/>
      <path d="M402.55,257.38h2.39L410.61,273h-2.32l-1.63-4.68h-6.13L398.84,273h-2.17Zm3.51,9.22-2.4-6.9-2.5,6.9h4.9Z"/>
    </g>
    <use width="49.5" height="49.5" transform="translate(377.25 239.25)" xlink:href="#rnn-a"/>
  </g>
  <g>
    <g opacity="0.1">
      <rect x="547" y="242" width="48" height="48" rx="6" ry="6" stroke="#000" stroke-width="1.5"/>
      <path d="M570.55,257.38h2.39L578.61,273h-2.32l-1.63-4.68h-6.13L566.84,273h-2.17Zm3.51,9.22-2.4-6.9-2.5,6.9h4.9Z"/>
    </g>
    <use width="49.5" height="49.5" transform="translate(545.25 239.25)" xlink:href="#rnn-a"/>
  </g>
  <g>
    <g opacity="0.1">
      <rect x="715" y="242" width="48" height="48" rx="6" ry="6" stroke="#000" stroke-width="1.5"/>
      <path d="M738.55,257.38h2.39L746.61,273h-2.32l-1.63-4.68h-6.13L734.84,273h-2.17Zm3.51,9.22-2.4-6.9-2.5,6.9h4.9Z"/>
    </g>
    <use width="49.5" height="49.5" transform="translate(713.25 239.25)" xlink:href="#rnn-a"/>
  </g>
  <g>
    <path d="M263,111c41.09,51.38,75.61,19.63,88.61,5.57" fill="none" stroke="#8c8c8c" stroke-miterlimit="10" stroke-width="1.5"/>
    <path d="M357,111.7a36.27,36.27,0,0,0-3.75,11.12l-2.31-5.61-5.37-2.83A36.24,36.24,0,0,0,357,111.7Z" fill="#8c8c8c"/>
  </g>
  <g>
    <path d="M263,111c41.09,51.38,75.61,19.63,88.61,5.57" fill="none" stroke="#8c8c8c" stroke-miterlimit="10" stroke-width="1.5"/>
    <path d="M357,111.7a36.27,36.27,0,0,0-3.75,11.12l-2.31-5.61-5.37-2.83A36.24,36.24,0,0,0,357,111.7Z" fill="#8c8c8c"/>
  </g>
  <g>
    <path d="M372,112c-25.42,22.91-39.35,80-7.28,122.08" fill="none" stroke="#8c8c8c" stroke-miterlimit="10" stroke-width="1.5"/>
    <path d="M369.33,239.67a36.27,36.27,0,0,0-10.89-4.37l5.73-2,3.13-5.2A36.23,36.23,0,0,0,369.33,239.67Z" fill="#8c8c8c"/>
  </g>
  <g>
    <path d="M253.33,240c-1.13-9.17,21.14-41,34.57-52.43" fill="none" stroke="#8c8c8c" stroke-miterlimit="10" stroke-width="1.5"/>
    <path d="M294,183.67a36.27,36.27,0,0,0-5.39,10.43l-1.43-5.9-4.87-3.61A36.24,36.24,0,0,0,294,183.67Z" fill="#8c8c8c"/>
  </g>
  <g>
    <g opacity="0.1">
      <path d="M349,183.12a12,12,0,0,1-12,12H307a12,12,0,0,1,0-24h30a12,12,0,0,1,12,12h0Z"/>
      <path d="M349.53,183.62a12,12,0,0,1-12,12H306.47a12,12,0,0,1-12-12v-1a12,12,0,0,1,12-12h31.07a12,12,0,0,1,12,12v1Zm-54-.5a11.79,11.79,0,0,0,12,11.5h28.93a11.51,11.51,0,1,0,0-23H307.53A11.79,11.79,0,0,0,295.53,183.12Z"/>
      <path d="M313.63,180.09a3.81,3.81,0,0,1,.77.07l-0.13.9a3.31,3.31,0,0,0-.7-0.09,1.71,1.71,0,0,0-1.33.63,2.31,2.31,0,0,0-.55,1.58v3.45h-1v-6.42h0.8l0.11,1.19h0a2.82,2.82,0,0,1,.86-1A1.94,1.94,0,0,1,313.63,180.09Z"/>
      <path d="M318.31,186.75a3,3,0,0,1-2.25-.87,3.36,3.36,0,0,1-.82-2.41A3.72,3.72,0,0,1,316,181a2.54,2.54,0,0,1,2.05-.91,2.42,2.42,0,0,1,1.91.79,3,3,0,0,1,.7,2.09v0.62h-4.42a2.55,2.55,0,0,0,.57,1.72,2,2,0,0,0,1.53.59,5.17,5.17,0,0,0,2.05-.43v0.87a5.15,5.15,0,0,1-1,.32A5.48,5.48,0,0,1,318.31,186.75ZM318,180.91a1.59,1.59,0,0,0-1.23.5,2.32,2.32,0,0,0-.54,1.39h3.36a2.14,2.14,0,0,0-.41-1.41A1.44,1.44,0,0,0,318,180.91Z"/>
      <path d="M326.28,186.63l-0.19-.91h0a2.7,2.7,0,0,1-1,.82,2.92,2.92,0,0,1-1.19.21,2.14,2.14,0,0,1-1.5-.49,1.8,1.8,0,0,1-.54-1.4q0-1.95,3.11-2l1.09,0v-0.4a1.63,1.63,0,0,0-.33-1.12,1.34,1.34,0,0,0-1-.36,4.24,4.24,0,0,0-1.82.49l-0.3-.74a4.57,4.57,0,0,1,1-.4,4.5,4.5,0,0,1,1.13-.15,2.45,2.45,0,0,1,1.7.51,2.13,2.13,0,0,1,.55,1.63v4.38h-0.72Zm-2.2-.69a2,2,0,0,0,1.43-.5,1.84,1.84,0,0,0,.52-1.39v-0.58l-1,0a3.54,3.54,0,0,0-1.67.36,1.09,1.09,0,0,0-.51,1,1,1,0,0,0,.32.8A1.33,1.33,0,0,0,324.08,185.95Z"/>
      <path d="M333.38,185.77h-0.05a2.29,2.29,0,0,1-2,1,2.38,2.38,0,0,1-2-.86,3.79,3.79,0,0,1-.7-2.45,3.86,3.86,0,0,1,.7-2.47,2.37,2.37,0,0,1,2-.88,2.34,2.34,0,0,1,2,.95h0.08l0-.46,0-.45v-2.61h1v9.12h-0.79Zm-1.95.16a1.77,1.77,0,0,0,1.44-.54,2.74,2.74,0,0,0,.45-1.75v-0.21a3.22,3.22,0,0,0-.45-1.95,1.72,1.72,0,0,0-1.45-.58,1.49,1.49,0,0,0-1.31.67,3.31,3.31,0,0,0-.45,1.88,3.17,3.17,0,0,0,.45,1.86A1.53,1.53,0,0,0,331.43,185.93Z"/>
    </g>
    <use width="55.07" height="25" transform="translate(293.47 168.62)" xlink:href="#op-read"/>
  </g>
  <g id="_Group_7" data-name="&lt;Group&gt;">
    <g opacity="0.1">
      <path d="M337,152.62a12,12,0,0,1-12,12H295a12,12,0,0,1,0-24h30a12,12,0,0,1,12,12h0Z"/>
      <path d="M337.53,153.12a12,12,0,0,1-12,12H294.47a12,12,0,0,1-12-12v-1a12,12,0,0,1,12-12h31.07a12,12,0,0,1,12,12v1Zm-54-.5a11.79,11.79,0,0,0,12,11.5h28.93a11.51,11.51,0,1,0,0-23H295.53A11.79,11.79,0,0,0,283.53,152.62Z"/>
      <path d="M302.66,156.13l-1.18-3.77q-0.11-.35-0.42-1.57h0q-0.23,1-.41,1.58l-1.21,3.76h-1.12l-1.75-6.42h1l0.95,3.69a14.93,14.93,0,0,1,.37,1.71h0q0.06-.33.21-0.86t0.25-.84l1.18-3.69h1.05l1.15,3.69a12.44,12.44,0,0,1,.45,1.69h0a6.21,6.21,0,0,1,.13-0.65q0.1-.44,1.22-4.73h1l-1.78,6.42h-1.15Z"/>
      <path d="M309.68,149.59a3.81,3.81,0,0,1,.77.07l-0.13.9a3.31,3.31,0,0,0-.7-0.09,1.71,1.71,0,0,0-1.33.63,2.31,2.31,0,0,0-.55,1.58v3.45h-1v-6.42h0.8l0.11,1.19h0a2.82,2.82,0,0,1,.86-1A1.94,1.94,0,0,1,309.68,149.59Z"/>
      <path d="M311.56,148a0.65,0.65,0,0,1,.16-0.49,0.61,0.61,0,0,1,.81,0,0.63,0.63,0,0,1,.17.49,0.64,0.64,0,0,1-.17.49,0.6,0.6,0,0,1-.81,0A0.66,0.66,0,0,1,311.56,148Zm1.05,8.16h-1v-6.42h1v6.42Z"/>
      <path d="M316.75,155.45a3.18,3.18,0,0,0,.5,0l0.38-.08v0.74a1.78,1.78,0,0,1-.47.13,3.5,3.5,0,0,1-.55,0,1.69,1.69,0,0,1-1.86-2v-3.82h-0.92V150l0.92-.4,0.41-1.37h0.56v1.49h1.86v0.76h-1.86v3.78a1.3,1.3,0,0,0,.28.89A1,1,0,0,0,316.75,155.45Z"/>
      <path d="M321.63,156.25a3,3,0,0,1-2.25-.87,3.36,3.36,0,0,1-.82-2.41,3.72,3.72,0,0,1,.76-2.47,2.54,2.54,0,0,1,2.05-.91,2.42,2.42,0,0,1,1.91.79,3,3,0,0,1,.7,2.09v0.62h-4.42a2.55,2.55,0,0,0,.57,1.72,2,2,0,0,0,1.53.59,5.17,5.17,0,0,0,2.05-.43v0.87a5.15,5.15,0,0,1-1,.32A5.48,5.48,0,0,1,321.63,156.25Zm-0.26-5.84a1.59,1.59,0,0,0-1.23.5,2.32,2.32,0,0,0-.54,1.39h3.36a2.14,2.14,0,0,0-.41-1.41A1.44,1.44,0,0,0,321.37,150.41Z"/>
    </g>
    <use width="55.07" height="25" transform="translate(281.47 138.12)" xlink:href="#op-write"/>
  </g>
  <g>
    <path d="M244,240.67c-0.12-11.53,13.22-58.73,32.69-79.74" fill="none" stroke="#8c8c8c" stroke-miterlimit="10" stroke-width="1.5"/>
    <path d="M282,156a36.27,36.27,0,0,0-3.55,11.19L276,161.62l-5.42-2.74A36.23,36.23,0,0,0,282,156Z" fill="#8c8c8c"/>
  </g>
  <g>
    <path d="M431,111c41.09,51.38,75.61,19.63,88.61,5.57" fill="none" stroke="#8c8c8c" stroke-miterlimit="10" stroke-width="1.5"/>
    <path d="M525,111.7a36.27,36.27,0,0,0-3.75,11.12l-2.31-5.61-5.37-2.83A36.24,36.24,0,0,0,525,111.7Z" fill="#8c8c8c"/>
  </g>
  <g>
    <path d="M431,111c41.09,51.38,75.61,19.63,88.61,5.57" fill="none" stroke="#8c8c8c" stroke-miterlimit="10" stroke-width="1.5"/>
    <path d="M525,111.7a36.27,36.27,0,0,0-3.75,11.12l-2.31-5.61-5.37-2.83A36.24,36.24,0,0,0,525,111.7Z" fill="#8c8c8c"/>
  </g>
  <g>
    <path d="M540,112c-25.42,22.91-39.35,80-7.28,122.08" fill="none" stroke="#8c8c8c" stroke-miterlimit="10" stroke-width="1.5"/>
    <path d="M537.33,239.67a36.27,36.27,0,0,0-10.89-4.37l5.73-2,3.13-5.2A36.23,36.23,0,0,0,537.33,239.67Z" fill="#8c8c8c"/>
  </g>
  <g>
    <path d="M421.33,240c-1.13-9.17,21.14-41,34.57-52.43" fill="none" stroke="#8c8c8c" stroke-miterlimit="10" stroke-width="1.5"/>
    <path d="M462,183.67a36.27,36.27,0,0,0-5.39,10.43l-1.43-5.9-4.87-3.61A36.24,36.24,0,0,0,462,183.67Z" fill="#8c8c8c"/>
  </g>
  <g>
    <g opacity="0.1">
      <path d="M517,183.12a12,12,0,0,1-12,12H475a12,12,0,0,1,0-24h30a12,12,0,0,1,12,12h0Z"/>
      <path d="M517.53,183.62a12,12,0,0,1-12,12H474.47a12,12,0,0,1-12-12v-1a12,12,0,0,1,12-12h31.07a12,12,0,0,1,12,12v1Zm-54-.5a11.79,11.79,0,0,0,12,11.5h28.93a11.51,11.51,0,1,0,0-23H475.53A11.79,11.79,0,0,0,463.53,183.12Z"/>
      <path d="M481.63,180.09a3.81,3.81,0,0,1,.77.07l-0.13.9a3.31,3.31,0,0,0-.7-0.09,1.71,1.71,0,0,0-1.33.63,2.31,2.31,0,0,0-.55,1.58v3.45h-1v-6.42h0.8l0.11,1.19h0a2.82,2.82,0,0,1,.86-1A1.94,1.94,0,0,1,481.63,180.09Z"/>
      <path d="M486.31,186.75a3,3,0,0,1-2.25-.87,3.36,3.36,0,0,1-.82-2.41A3.72,3.72,0,0,1,484,181a2.54,2.54,0,0,1,2.05-.91,2.42,2.42,0,0,1,1.91.79,3,3,0,0,1,.7,2.09v0.62h-4.42a2.55,2.55,0,0,0,.57,1.72,2,2,0,0,0,1.53.59,5.17,5.17,0,0,0,2.05-.43v0.87a5.15,5.15,0,0,1-1,.32A5.48,5.48,0,0,1,486.31,186.75ZM486,180.91a1.59,1.59,0,0,0-1.23.5,2.32,2.32,0,0,0-.54,1.39h3.36a2.14,2.14,0,0,0-.41-1.41A1.44,1.44,0,0,0,486,180.91Z"/>
      <path d="M494.28,186.63l-0.19-.91h0a2.7,2.7,0,0,1-1,.82,2.92,2.92,0,0,1-1.19.21,2.14,2.14,0,0,1-1.5-.49,1.8,1.8,0,0,1-.54-1.4q0-1.95,3.11-2l1.09,0v-0.4a1.63,1.63,0,0,0-.33-1.12,1.34,1.34,0,0,0-1-.36,4.24,4.24,0,0,0-1.82.49l-0.3-.74a4.57,4.57,0,0,1,1-.4,4.5,4.5,0,0,1,1.13-.15,2.45,2.45,0,0,1,1.7.51,2.13,2.13,0,0,1,.55,1.63v4.38h-0.72Zm-2.2-.69a2,2,0,0,0,1.43-.5,1.84,1.84,0,0,0,.52-1.39v-0.58l-1,0a3.54,3.54,0,0,0-1.67.36,1.09,1.09,0,0,0-.51,1,1,1,0,0,0,.32.8A1.33,1.33,0,0,0,492.08,185.95Z"/>
      <path d="M501.38,185.77h-0.05a2.29,2.29,0,0,1-2,1,2.38,2.38,0,0,1-2-.86,3.79,3.79,0,0,1-.7-2.45,3.86,3.86,0,0,1,.7-2.47,2.37,2.37,0,0,1,2-.88,2.34,2.34,0,0,1,2,.95h0.08l0-.46,0-.45v-2.61h1v9.12h-0.79Zm-1.95.16a1.77,1.77,0,0,0,1.44-.54,2.74,2.74,0,0,0,.45-1.75v-0.21a3.22,3.22,0,0,0-.45-1.95,1.72,1.72,0,0,0-1.45-.58,1.49,1.49,0,0,0-1.31.67,3.31,3.31,0,0,0-.45,1.88,3.17,3.17,0,0,0,.45,1.86A1.53,1.53,0,0,0,499.43,185.93Z"/>
    </g>
    <use width="55.07" height="25" transform="translate(461.47 168.62)" xlink:href="#op-read"/>
  </g>
  <g>
    <g opacity="0.1">
      <path d="M505,152.62a12,12,0,0,1-12,12H463a12,12,0,0,1,0-24h30a12,12,0,0,1,12,12h0Z"/>
      <path d="M505.53,153.12a12,12,0,0,1-12,12H462.47a12,12,0,0,1-12-12v-1a12,12,0,0,1,12-12h31.07a12,12,0,0,1,12,12v1Zm-54-.5a11.79,11.79,0,0,0,12,11.5h28.93a11.51,11.51,0,1,0,0-23H463.53A11.79,11.79,0,0,0,451.53,152.62Z"/>
      <path d="M470.66,156.13l-1.18-3.77q-0.11-.35-0.42-1.57h0q-0.23,1-.41,1.58l-1.21,3.76h-1.12l-1.75-6.42h1l0.95,3.69a14.93,14.93,0,0,1,.37,1.71h0q0.06-.33.21-0.86t0.25-.84l1.18-3.69h1.05l1.15,3.69a12.44,12.44,0,0,1,.45,1.69h0a6.21,6.21,0,0,1,.13-0.65q0.1-.44,1.22-4.73h1l-1.78,6.42h-1.15Z"/>
      <path d="M477.68,149.59a3.81,3.81,0,0,1,.77.07l-0.13.9a3.31,3.31,0,0,0-.7-0.09,1.71,1.71,0,0,0-1.33.63,2.31,2.31,0,0,0-.55,1.58v3.45h-1v-6.42h0.8l0.11,1.19h0a2.82,2.82,0,0,1,.86-1A1.94,1.94,0,0,1,477.68,149.59Z"/>
      <path d="M479.56,148a0.65,0.65,0,0,1,.16-0.49,0.61,0.61,0,0,1,.81,0,0.63,0.63,0,0,1,.17.49,0.64,0.64,0,0,1-.17.49,0.6,0.6,0,0,1-.81,0A0.66,0.66,0,0,1,479.56,148Zm1.05,8.16h-1v-6.42h1v6.42Z"/>
      <path d="M484.75,155.45a3.18,3.18,0,0,0,.5,0l0.38-.08v0.74a1.78,1.78,0,0,1-.47.13,3.5,3.5,0,0,1-.55,0,1.69,1.69,0,0,1-1.86-2v-3.82h-0.92V150l0.92-.4,0.41-1.37h0.56v1.49h1.86v0.76h-1.86v3.78a1.3,1.3,0,0,0,.28.89A1,1,0,0,0,484.75,155.45Z"/>
      <path d="M489.63,156.25a3,3,0,0,1-2.25-.87,3.36,3.36,0,0,1-.82-2.41,3.72,3.72,0,0,1,.76-2.47,2.54,2.54,0,0,1,2.05-.91,2.42,2.42,0,0,1,1.91.79,3,3,0,0,1,.7,2.09v0.62h-4.42a2.55,2.55,0,0,0,.57,1.72,2,2,0,0,0,1.53.59,5.17,5.17,0,0,0,2.05-.43v0.87a5.15,5.15,0,0,1-1,.32A5.48,5.48,0,0,1,489.63,156.25Zm-0.26-5.84a1.59,1.59,0,0,0-1.23.5,2.32,2.32,0,0,0-.54,1.39h3.36a2.14,2.14,0,0,0-.41-1.41A1.44,1.44,0,0,0,489.37,150.41Z"/>
    </g>
    <use width="55.07" height="25" transform="translate(449.47 138.12)" xlink:href="#op-write"/>
  </g>
  <g>
    <path d="M412,240.67c-0.12-11.53,13.22-58.73,32.69-79.74" fill="none" stroke="#8c8c8c" stroke-miterlimit="10" stroke-width="1.5"/>
    <path d="M450,156a36.27,36.27,0,0,0-3.55,11.19L444,161.62l-5.42-2.74A36.23,36.23,0,0,0,450,156Z" fill="#8c8c8c"/>
  </g>
  <g>
    <path d="M587,111c41.09,51.38,75.61,19.63,88.61,5.57" fill="none" stroke="#8c8c8c" stroke-miterlimit="10" stroke-width="1.5"/>
    <path d="M681,111.7a36.27,36.27,0,0,0-3.75,11.12l-2.31-5.61-5.37-2.83A36.24,36.24,0,0,0,681,111.7Z" fill="#8c8c8c"/>
  </g>
  <g>
    <path d="M587,111c41.09,51.38,75.61,19.63,88.61,5.57" fill="none" stroke="#8c8c8c" stroke-miterlimit="10" stroke-width="1.5"/>
    <path d="M681,111.7a36.27,36.27,0,0,0-3.75,11.12l-2.31-5.61-5.37-2.83A36.24,36.24,0,0,0,681,111.7Z" fill="#8c8c8c"/>
  </g>
  <g>
    <path d="M696,112c-25.42,22.91-39.35,80-7.28,122.08" fill="none" stroke="#8c8c8c" stroke-miterlimit="10" stroke-width="1.5"/>
    <path d="M693.33,239.67a36.27,36.27,0,0,0-10.89-4.37l5.73-2,3.13-5.2A36.23,36.23,0,0,0,693.33,239.67Z" fill="#8c8c8c"/>
  </g>
  <g>
    <path d="M577.33,240c-1.13-9.17,21.14-41,34.57-52.43" fill="none" stroke="#8c8c8c" stroke-miterlimit="10" stroke-width="1.5"/>
    <path d="M618,183.67a36.27,36.27,0,0,0-5.39,10.43l-1.43-5.9-4.87-3.61A36.24,36.24,0,0,0,618,183.67Z" fill="#8c8c8c"/>
  </g>
  <g id="_Group_11" data-name="&lt;Group&gt;">
    <g opacity="0.1">
      <path d="M673,183.12a12,12,0,0,1-12,12H631a12,12,0,0,1,0-24h30a12,12,0,0,1,12,12h0Z"/>
      <path d="M673.53,183.62a12,12,0,0,1-12,12H630.47a12,12,0,0,1-12-12v-1a12,12,0,0,1,12-12h31.07a12,12,0,0,1,12,12v1Zm-54-.5a11.79,11.79,0,0,0,12,11.5h28.93a11.51,11.51,0,1,0,0-23H631.53A11.79,11.79,0,0,0,619.53,183.12Z"/>
      <path d="M637.63,180.09a3.81,3.81,0,0,1,.77.07l-0.13.9a3.31,3.31,0,0,0-.7-0.09,1.71,1.71,0,0,0-1.33.63,2.31,2.31,0,0,0-.55,1.58v3.45h-1v-6.42h0.8l0.11,1.19h0a2.82,2.82,0,0,1,.86-1A1.94,1.94,0,0,1,637.63,180.09Z"/>
      <path d="M642.31,186.75a3,3,0,0,1-2.25-.87,3.36,3.36,0,0,1-.82-2.41A3.72,3.72,0,0,1,640,181a2.54,2.54,0,0,1,2.05-.91,2.42,2.42,0,0,1,1.91.79,3,3,0,0,1,.7,2.09v0.62h-4.42a2.55,2.55,0,0,0,.57,1.72,2,2,0,0,0,1.53.59,5.17,5.17,0,0,0,2.05-.43v0.87a5.15,5.15,0,0,1-1,.32A5.48,5.48,0,0,1,642.31,186.75ZM642,180.91a1.59,1.59,0,0,0-1.23.5,2.32,2.32,0,0,0-.54,1.39h3.36a2.14,2.14,0,0,0-.41-1.41A1.44,1.44,0,0,0,642,180.91Z"/>
      <path d="M650.28,186.63l-0.19-.91h0a2.7,2.7,0,0,1-1,.82,2.92,2.92,0,0,1-1.19.21,2.14,2.14,0,0,1-1.5-.49,1.8,1.8,0,0,1-.54-1.4q0-1.95,3.11-2l1.09,0v-0.4a1.63,1.63,0,0,0-.33-1.12,1.34,1.34,0,0,0-1-.36,4.24,4.24,0,0,0-1.82.49l-0.3-.74a4.57,4.57,0,0,1,1-.4,4.5,4.5,0,0,1,1.13-.15,2.45,2.45,0,0,1,1.7.51,2.13,2.13,0,0,1,.55,1.63v4.38h-0.72Zm-2.2-.69a2,2,0,0,0,1.43-.5,1.84,1.84,0,0,0,.52-1.39v-0.58l-1,0a3.54,3.54,0,0,0-1.67.36,1.09,1.09,0,0,0-.51,1,1,1,0,0,0,.32.8A1.33,1.33,0,0,0,648.08,185.95Z"/>
      <path d="M657.38,185.77h-0.05a2.29,2.29,0,0,1-2,1,2.38,2.38,0,0,1-2-.86,3.79,3.79,0,0,1-.7-2.45,3.86,3.86,0,0,1,.7-2.47,2.37,2.37,0,0,1,2-.88,2.34,2.34,0,0,1,2,.95h0.08l0-.46,0-.45v-2.61h1v9.12h-0.79Zm-1.95.16a1.77,1.77,0,0,0,1.44-.54,2.74,2.74,0,0,0,.45-1.75v-0.21a3.22,3.22,0,0,0-.45-1.95,1.72,1.72,0,0,0-1.45-.58,1.49,1.49,0,0,0-1.31.67,3.31,3.31,0,0,0-.45,1.88,3.17,3.17,0,0,0,.45,1.86A1.53,1.53,0,0,0,655.43,185.93Z"/>
    </g>
    <use width="55.07" height="25" transform="translate(617.47 168.62)" xlink:href="#op-read"/>
  </g>
  <g id="_Group_13" data-name="&lt;Group&gt;">
    <g opacity="0.1">
      <path d="M661,152.62a12,12,0,0,1-12,12H619a12,12,0,0,1,0-24h30a12,12,0,0,1,12,12h0Z"/>
      <path d="M661.53,153.12a12,12,0,0,1-12,12H618.47a12,12,0,0,1-12-12v-1a12,12,0,0,1,12-12h31.07a12,12,0,0,1,12,12v1Zm-54-.5a11.79,11.79,0,0,0,12,11.5h28.93a11.51,11.51,0,1,0,0-23H619.53A11.79,11.79,0,0,0,607.53,152.62Z"/>
      <path d="M626.66,156.13l-1.18-3.77q-0.11-.35-0.42-1.57h0q-0.23,1-.41,1.58l-1.21,3.76h-1.12l-1.75-6.42h1l0.95,3.69a14.93,14.93,0,0,1,.37,1.71h0q0.06-.33.21-0.86t0.25-.84l1.18-3.69h1.05l1.15,3.69a12.44,12.44,0,0,1,.45,1.69h0a6.21,6.21,0,0,1,.13-0.65q0.1-.44,1.22-4.73h1l-1.78,6.42h-1.15Z"/>
      <path d="M633.68,149.59a3.81,3.81,0,0,1,.77.07l-0.13.9a3.31,3.31,0,0,0-.7-0.09,1.71,1.71,0,0,0-1.33.63,2.31,2.31,0,0,0-.55,1.58v3.45h-1v-6.42h0.8l0.11,1.19h0a2.82,2.82,0,0,1,.86-1A1.94,1.94,0,0,1,633.68,149.59Z"/>
      <path d="M635.56,148a0.65,0.65,0,0,1,.16-0.49,0.61,0.61,0,0,1,.81,0,0.63,0.63,0,0,1,.17.49,0.64,0.64,0,0,1-.17.49,0.6,0.6,0,0,1-.81,0A0.66,0.66,0,0,1,635.56,148Zm1.05,8.16h-1v-6.42h1v6.42Z"/>
      <path d="M640.75,155.45a3.18,3.18,0,0,0,.5,0l0.38-.08v0.74a1.78,1.78,0,0,1-.47.13,3.5,3.5,0,0,1-.55,0,1.69,1.69,0,0,1-1.86-2v-3.82h-0.92V150l0.92-.4,0.41-1.37h0.56v1.49h1.86v0.76h-1.86v3.78a1.3,1.3,0,0,0,.28.89A1,1,0,0,0,640.75,155.45Z"/>
      <path d="M645.63,156.25a3,3,0,0,1-2.25-.87,3.36,3.36,0,0,1-.82-2.41,3.72,3.72,0,0,1,.76-2.47,2.54,2.54,0,0,1,2.05-.91,2.42,2.42,0,0,1,1.91.79,3,3,0,0,1,.7,2.09v0.62h-4.42a2.55,2.55,0,0,0,.57,1.72,2,2,0,0,0,1.53.59,5.17,5.17,0,0,0,2.05-.43v0.87a5.15,5.15,0,0,1-1,.32A5.48,5.48,0,0,1,645.63,156.25Zm-0.26-5.84a1.59,1.59,0,0,0-1.23.5,2.32,2.32,0,0,0-.54,1.39h3.36a2.14,2.14,0,0,0-.41-1.41A1.44,1.44,0,0,0,645.37,150.41Z"/>
    </g>
    <use width="55.07" height="25" transform="translate(605.47 138.12)" xlink:href="#op-write"/>
  </g>
  <g>
    <path d="M568,240.67c-0.12-11.53,13.22-58.73,32.69-79.74" fill="none" stroke="#8c8c8c" stroke-miterlimit="10" stroke-width="1.5"/>
    <path d="M606,156a36.27,36.27,0,0,0-3.55,11.19L600,161.62l-5.42-2.74A36.23,36.23,0,0,0,606,156Z" fill="#8c8c8c"/>
  </g>
  <text transform="translate(170 28.29)" font-size="12" fill="#666" font-family="Open Sans">Memory is an array of vectors</text>
  <text transform="translate(169.67 140.28)" font-size="12" fill="#666" font-family="Open Sans">Each step the <tspan x="0" y="18">memory is read </tspan><tspan x="0" y="36">and written to</tspan></text>
  <g>
    <line x1="258" y1="264" x2="364.76" y2="264" fill="none" stroke="#8c8c8c" stroke-miterlimit="10" stroke-width="1.5"/>
    <path d="M372,264a36.27,36.27,0,0,0-10.26,5.71l2.06-5.71-2.06-5.71A36.24,36.24,0,0,0,372,264Z" fill="#8c8c8c"/>
  </g>
  <g>
    <line x1="426" y1="264" x2="532.76" y2="264" fill="none" stroke="#8c8c8c" stroke-miterlimit="10" stroke-width="1.5"/>
    <path d="M540,264a36.27,36.27,0,0,0-10.26,5.71l2.06-5.71-2.06-5.71A36.24,36.24,0,0,0,540,264Z" fill="#8c8c8c"/>
  </g>
  <g>
    <line x1="594" y1="264" x2="700.76" y2="264" fill="none" stroke="#8c8c8c" stroke-miterlimit="10" stroke-width="1.5"/>
    <path d="M708,264a36.27,36.27,0,0,0-10.26,5.71l2.06-5.71-2.06-5.71A36.24,36.24,0,0,0,708,264Z" fill="#8c8c8c"/>
  </g>
  <text transform="translate(216.43 330)" font-size="12" fill="#666" font-family="Open Sans">x0</text>
  <text transform="translate(240.55 330)" font-size="12" fill="#666" font-family="Open Sans">y0</text>
  <g>
    <line x1="220" y1="315.08" x2="220" y2="297.82" fill="none" stroke="#8c8c8c" stroke-miterlimit="10" stroke-width="1.5"/>
    <path d="M220,290.58a36.27,36.27,0,0,0,5.71,10.26L220,298.77l-5.71,2.06A36.23,36.23,0,0,0,220,290.58Z" fill="#8c8c8c"/>
  </g>
  <g>
    <line x1="245" y1="290.58" x2="245" y2="307.84" fill="none" stroke="#8c8c8c" stroke-miterlimit="10" stroke-width="1.5"/>
    <path d="M245,315.08a36.27,36.27,0,0,0-5.71-10.26l5.71,2.06,5.71-2.06A36.24,36.24,0,0,0,245,315.08Z" fill="#8c8c8c"/>
  </g>
  <g>
    <line x1="390.33" y1="316.41" x2="390.33" y2="299.16" fill="none" stroke="#8c8c8c" stroke-miterlimit="10" stroke-width="1.5"/>
    <path d="M390.33,291.91A36.27,36.27,0,0,0,396,302.17l-5.71-2.06-5.71,2.06A36.23,36.23,0,0,0,390.33,291.91Z" fill="#8c8c8c"/>
  </g>
  <g>
    <line x1="415.33" y1="291.91" x2="415.33" y2="309.17" fill="none" stroke="#8c8c8c" stroke-miterlimit="10" stroke-width="1.5"/>
    <path d="M415.33,316.41a36.27,36.27,0,0,0-5.71-10.26l5.71,2.06,5.71-2.06A36.23,36.23,0,0,0,415.33,316.41Z" fill="#8c8c8c"/>
  </g>
  <g>
    <line x1="558.33" y1="316.41" x2="558.33" y2="299.16" fill="none" stroke="#8c8c8c" stroke-miterlimit="10" stroke-width="1.5"/>
    <path d="M558.33,291.91A36.27,36.27,0,0,0,564,302.17l-5.71-2.06-5.71,2.06A36.24,36.24,0,0,0,558.33,291.91Z" fill="#8c8c8c"/>
  </g>
  <g>
    <line x1="583.33" y1="291.91" x2="583.33" y2="309.17" fill="none" stroke="#8c8c8c" stroke-miterlimit="10" stroke-width="1.5"/>
    <path d="M583.33,316.41a36.27,36.27,0,0,0-5.71-10.26l5.71,2.06,5.71-2.06A36.23,36.23,0,0,0,583.33,316.41Z" fill="#8c8c8c"/>
  </g>
  <text transform="translate(383.43 330)" font-size="12" fill="#666" font-family="Open Sans">x1</text>
  <text transform="translate(407.55 330)" font-size="12" fill="#666" font-family="Open Sans">y1</text>
  <text transform="translate(551.43 330)" font-size="12" fill="#666" font-family="Open Sans">x2</text>
  <text transform="translate(575.55 330)" font-size="12" fill="#666" font-family="Open Sans">y2</text>
  <g>
    <line x1="726.33" y1="316.41" x2="726.33" y2="299.16" fill="none" stroke="#8c8c8c" stroke-miterlimit="10" stroke-width="1.5"/>
    <path d="M726.33,291.91A36.27,36.27,0,0,0,732,302.17l-5.71-2.06-5.71,2.06A36.24,36.24,0,0,0,726.33,291.91Z" fill="#8c8c8c"/>
  </g>
  <g>
    <line x1="751.33" y1="291.91" x2="751.33" y2="309.17" fill="none" stroke="#8c8c8c" stroke-miterlimit="10" stroke-width="1.5"/>
    <path d="M751.33,316.41a36.27,36.27,0,0,0-5.71-10.26l5.71,2.06,5.71-2.06A36.23,36.23,0,0,0,751.33,316.41Z" fill="#8c8c8c"/>
  </g>
  <text transform="translate(719.43 330)" font-size="12" fill="#666" font-family="Open Sans">x2</text>
  <text transform="translate(743.55 330)" font-size="12" fill="#666" font-family="Open Sans">y2</text>
  <use width="108.5" height="37" transform="translate(180.83 55.92)" xlink:href="#array-3"/>
  <use width="36" height="36" transform="translate(180 56.25)" xlink:href="#array-vector"/>
  <use width="36" height="36" transform="translate(216 56.25)" xlink:href="#array-vector"/>
  <use width="36" height="36" transform="translate(252 56.25)" xlink:href="#array-vector"/>
  <use width="108.5" height="37" transform="translate(348.83 55.92)" xlink:href="#array-3"/>
  <use width="36" height="36" transform="translate(348 56.25)" xlink:href="#array-vector"/>
  <use width="36" height="36" transform="translate(402 48.8) rotate(45)" xlink:href="#array-vector"/>
  <use width="36" height="36" transform="translate(420 56.25)" xlink:href="#array-vector"/>
  <use width="108.5" height="37" transform="translate(515.83 55.92)" xlink:href="#array-3"/>
  <use width="36" height="36" transform="translate(515 56.25)" xlink:href="#array-vector"/>
  <use width="36" height="36" transform="translate(569 48.8) rotate(45)" xlink:href="#array-vector"/>
  <use width="36" height="36" transform="translate(605 48.8) rotate(45)" xlink:href="#array-vector"/>
  <use width="108.5" height="37" transform="translate(683.83 55.92)" xlink:href="#array-3"/>
  <use width="36" height="36" transform="translate(683 56.25)" xlink:href="#array-vector"/>
  <use width="36" height="36" transform="translate(755 56.25) rotate(90)" xlink:href="#array-vector"/>
  <use width="36" height="36" transform="translate(773 48.8) rotate(45)" xlink:href="#array-vector"/>
</svg>
