<svg id="background" xmlns="http://www.w3.org/2000/svg" xmlns:xlink="http://www.w3.org/1999/xlink" viewBox="0 0 744 276">
  <defs>
    <symbol id="op-bg" data-name="op-bg" viewBox="0 0 24 24">
      <circle cx="12" cy="12" r="11.25" fill="#e0cef5" stroke="#000" stroke-miterlimit="10" stroke-opacity="0.5" stroke-width="1.5"/>
    </symbol>
    <symbol id="op-sum" data-name="op-sum" viewBox="0 0 24 24">
      <use id="op-bg-3" data-name="op-bg" width="24" height="24" xlink:href="#op-bg"/>
      <path d="M7.88,12.5V11.18h3.41V7.75h1.34v3.43H16V12.5H12.62v3.42H11.29V12.5H7.88Z" fill="#666"/>
    </symbol>
    <symbol id="op-x" data-name="op-x" viewBox="0 0 24 24">
      <use id="op-bg-6" data-name="op-bg" width="24" height="24" xlink:href="#op-bg"/>
      <path d="M9.16,15.28l-1-1,2.56-2.56L8.16,9.16l1-1,2.58,2.58L14.3,8.17l1,1-2.56,2.56,2.57,2.57-1,1-2.57-2.57Z" fill="#666"/>
    </symbol>
    <symbol id="rnn-bg" data-name="rnn-bg" viewBox="0 0 49.5 49.5">
      <rect x="0.75" y="0.75" width="48" height="48" rx="6" ry="6" fill="#fff" fill-opacity="0.8" stroke="#666" stroke-width="1.5"/>
    </symbol>
    <symbol id="rnn-s" data-name="rnn-s" viewBox="0 0 49.5 49.5">
      <use id="rnn-bg-3" data-name="rnn-bg" width="49.5" height="49.5" xlink:href="#rnn-bg"/>
      <path d="M29.68,27.61a3.81,3.81,0,0,1-1.49,3.2,6.46,6.46,0,0,1-4,1.15,10.1,10.1,0,0,1-4.25-.71V29.51a11.16,11.16,0,0,0,2.08.64,10.92,10.92,0,0,0,2.23.23,4.49,4.49,0,0,0,2.72-.69,2.25,2.25,0,0,0,.92-1.91,2.45,2.45,0,0,0-.32-1.32,3,3,0,0,0-1.08-1,15.14,15.14,0,0,0-2.31-1A7.38,7.38,0,0,1,21,22.68a4.06,4.06,0,0,1-.93-2.77A3.45,3.45,0,0,1,21.45,17,5.61,5.61,0,0,1,25,16a10.54,10.54,0,0,1,4.26.85l-0.56,1.57A9.63,9.63,0,0,0,25,17.6a3.62,3.62,0,0,0-2.24.62,2,2,0,0,0-.81,1.71,2.62,2.62,0,0,0,.3,1.32,2.8,2.8,0,0,0,1,.95,12.47,12.47,0,0,0,2.16,1A8.56,8.56,0,0,1,28.76,25,3.68,3.68,0,0,1,29.68,27.61Z" fill="#5b5b5b"/>
    </symbol>
    <symbol id="op-sum_2" data-name="op-sum 2" viewBox="0 0 24 24">
      <use width="24" height="24" xlink:href="#op-bg"/>
      <path d="M9.88,9.08a1.77,1.77,0,0,1,.69-1.47,3,3,0,0,1,1.89-.54,4.84,4.84,0,0,1,1.87.38v1.1a5.22,5.22,0,0,0-1.88-.4,1.57,1.57,0,0,0-.93.25,0.78,0.78,0,0,0-.35.67q0,0.74,1.51,1.26a4.6,4.6,0,0,1,2.22,1.44A3.75,3.75,0,0,1,15.64,14v0.27a4.23,4.23,0,0,1-.4,1.87,3,3,0,0,1-1.15,1.28,3.29,3.29,0,0,1-1.74.45,3.08,3.08,0,0,1-2.42-1A3.86,3.86,0,0,1,9,14.22V14.13a3.42,3.42,0,0,1,.64-2A2.76,2.76,0,0,1,11.29,11v0a2.36,2.36,0,0,1-1-.75A1.76,1.76,0,0,1,9.88,9.08Zm0.42,5.2a3,3,0,0,0,.55,1.89,1.8,1.8,0,0,0,1.49.69,1.79,1.79,0,0,0,1.48-.69,3.23,3.23,0,0,0,.55-2,2.67,2.67,0,0,0-.58-1.67,2.35,2.35,0,0,0-1.43-.92,1.81,1.81,0,0,0-1.49.7A3.19,3.19,0,0,0,10.3,14.28Z" fill="#666"/>
    </symbol>
    <symbol id="op-halo" data-name="op-halo" viewBox="0 0 31.45 31.45">
      <circle cx="15.73" cy="15.73" r="14.73" fill="#e6eaf2" stroke="#fff" stroke-miterlimit="10" stroke-width="2"/>
    </symbol>
    <symbol id="op-sum_5" data-name="op-sum 5" viewBox="0 0 24 24">
      <use id="op-bg-17" data-name="op-bg" width="24" height="24" xlink:href="#op-bg"/>
      <g>
        <path d="M11,12.65L4.21,15.32V14.26l5.51-2.12L4.21,10V9L11,11.66v1Z" fill="#666"/>
        <path d="M16.34,11.45H15.48q-0.37,0-.73,0a1.84,1.84,0,0,0-.66.17,1,1,0,0,0-.46.42,1.19,1.19,0,0,0-.21.73,1.13,1.13,0,0,0,.2.67,1.4,1.4,0,0,0,.46.43,2.73,2.73,0,0,0,1.33.3,3,3,0,0,0,1.54-.37,1.66,1.66,0,0,0,.73-1.28H19a2.55,2.55,0,0,1-1.09,2.09,4,4,0,0,1-2.32.7,7.39,7.39,0,0,1-1.28-.11,4.23,4.23,0,0,1-1.17-.38A2.21,2.21,0,0,1,12,12.79a1.72,1.72,0,0,1,.55-1.3,2.33,2.33,0,0,1,1.2-.66v0a2.71,2.71,0,0,1-1.07-.69A1.56,1.56,0,0,1,12.24,9a1.8,1.8,0,0,1,.3-1,2,2,0,0,1,.74-0.69,4.19,4.19,0,0,1,2-.52,4.65,4.65,0,0,1,2.34.55,2.37,2.37,0,0,1,1.05,2H17.36a1.21,1.21,0,0,0-.64-1.15,3.21,3.21,0,0,0-1.36-.29,2.53,2.53,0,0,0-1.1.24,1,1,0,0,0-.58,1,1,1,0,0,0,.58,1,2.79,2.79,0,0,0,1.2.22h0.88v1.16Z" fill="#666"/>
      </g>
    </symbol>
    <symbol id="op-sum_3" data-name="op-sum 3" viewBox="0 0 24 24">
      <use id="op-bg-20" data-name="op-bg" width="24" height="24" xlink:href="#op-bg"/>
      <path d="M9.65,10V9.21a4.3,4.3,0,0,0,1.59-.37,1.83,1.83,0,0,0,.67-1.23h0.83V16H11.62V10h-2Z" fill="#666"/>
    </symbol>
    <symbol id="op-sum_4" data-name="op-sum 4" viewBox="0 0 24 24">
      <use id="op-bg-29" data-name="op-bg" width="24" height="24" xlink:href="#op-bg"/>
      <path d="M7.51,11.21h9v1.15h-9V11.21Z" fill="#666"/>
    </symbol>
    <symbol id="rnn-sigma" data-name="rnn-sigma" viewBox="0 0 25.17 25.17">
      <rect x="0.75" y="0.75" width="23.67" height="23.67" rx="6" ry="6" fill="#f0f0f5" stroke="#666" stroke-width="1.5"/>
      <path d="M19,8.67H16.48a5.39,5.39,0,0,1,1.41,3.87,6.62,6.62,0,0,1-1.37,4.36,5.13,5.13,0,0,1-4.11,1.73,5,5,0,0,1-4.09-1.78,6.66,6.66,0,0,1-1.37-4.32,5.73,5.73,0,0,1,1.5-4.07,5.22,5.22,0,0,1,4-1.58,6.18,6.18,0,0,1,1.67.21H19V8.67ZM15.8,12.78a5.89,5.89,0,0,0-.74-2.92,2.87,2.87,0,0,0-2.65-1.41A2.86,2.86,0,0,0,9.8,9.79a5.53,5.53,0,0,0-.77,3,4.82,4.82,0,0,0,.91,3,2.89,2.89,0,0,0,2.47,1.26A2.88,2.88,0,0,0,15,15.74,5.37,5.37,0,0,0,15.8,12.78Z" fill="#666"/>
    </symbol>
  </defs>
  <title>rnn</title>
  <rect x="48" y="21.25" width="612" height="238.75" rx="10" ry="10" fill="#f0f0f5"/>
  <line x1="228" y1="47" x2="228" y2="272" stroke="#fff" stroke-miterlimit="10" stroke-width="1.5"/>
  <line x1="420" y1="47" x2="420" y2="272" stroke="#fff" stroke-miterlimit="10" stroke-width="1.5"/>
  <line x1="612" y1="47" x2="612" y2="272" stroke="#fff" stroke-miterlimit="10" stroke-width="1.5"/>
  <g opacity="0.2">
    <g>
      <path d="M276,248H473.5a6,6,0,0,0,6-6V214" fill="none" stroke="#666" stroke-miterlimit="10" stroke-width="1.5"/>
      <polygon points="483.18 216.96 482.52 217.57 479.5 214.32 476.48 217.57 475.82 216.96 479.5 213 483.18 216.96" fill="#666"/>
    </g>
    <g>
      <path d="M287.5,214.14V242a6,6,0,0,1-6,6H102a6,6,0,0,0-6,6v18h0V212" fill="none" stroke="#666" stroke-miterlimit="10" stroke-width="1.5"/>
      <polygon points="283.21 217.62 283.98 218.33 287.5 214.54 291.02 218.33 291.79 217.62 287.5 213 283.21 217.62" fill="#666"/>
    </g>
    <g>
      <line x1="36" y1="188" x2="71.02" y2="188" fill="none" stroke="#666" stroke-miterlimit="10" stroke-width="1.5"/>
      <polygon points="68.04 191.68 67.43 191.02 70.68 188 67.43 184.98 68.04 184.32 72 188 68.04 191.68" fill="#666"/>
    </g>
    <g>
      <line x1="642" y1="81" x2="671.02" y2="81" fill="none" stroke="#666" stroke-miterlimit="10" stroke-width="1.5"/>
      <polygon points="668.04 84.68 667.43 84.02 670.68 81 667.43 77.98 668.04 77.32 672 81 668.04 84.68" fill="#666"/>
    </g>
    <g>
      <line x1="120" y1="188" x2="263.02" y2="188" fill="none" stroke="#666" stroke-miterlimit="10" stroke-width="1.5"/>
      <polygon points="260.04 191.68 259.43 191.02 262.68 188 259.43 184.98 260.04 184.32 264 188 260.04 191.68" fill="#666"/>
    </g>
    <g>
      <line x1="312" y1="188" x2="455.02" y2="188" fill="none" stroke="#666" stroke-miterlimit="10" stroke-width="1.5"/>
      <polygon points="452.04 191.68 451.43 191.02 454.68 188 451.43 184.98 452.04 184.32 456 188 452.04 191.68" fill="#666"/>
    </g>
    <g>
      <path d="M120,188h18a6,6,0,0,0,6-6V153" fill="none" stroke="#666" stroke-miterlimit="10" stroke-width="1.5"/>
      <polygon points="147.68 155.96 147.02 156.57 144 153.32 140.98 156.57 140.32 155.96 144 152 147.68 155.96" fill="#666"/>
    </g>
    <g>
      <path d="M312,188h18a6,6,0,0,0,6-6V153" fill="none" stroke="#666" stroke-miterlimit="10" stroke-width="1.5"/>
      <polygon points="339.68 155.96 339.02 156.57 336 153.32 332.98 156.57 332.32 155.96 336 152 339.68 155.96" fill="#666"/>
    </g>
    <g>
      <path d="M504,188h18a6,6,0,0,0,6-6V153" fill="none" stroke="#666" stroke-miterlimit="10" stroke-width="1.5"/>
      <polygon points="531.68 155.96 531.02 156.57 528 153.32 524.98 156.57 524.32 155.96 528 152 531.68 155.96" fill="#666"/>
    </g>
    <path d="M120,188h54a6,6,0,0,0,6-6V116" fill="none" stroke="#666" stroke-miterlimit="10" stroke-width="1.5"/>
    <path d="M312,188h54a6,6,0,0,0,6-6V116" fill="none" stroke="#666" stroke-miterlimit="10" stroke-width="1.5"/>
    <path d="M504,188h54a6,6,0,0,0,6-6V116" fill="none" stroke="#666" stroke-miterlimit="10" stroke-width="1.5"/>
    <g>
      <path d="M144,140V110a6,6,0,0,1,6-6h17" fill="none" stroke="#666" stroke-miterlimit="10" stroke-width="1.5"/>
      <polygon points="164.04 107.68 163.43 107.02 166.68 104 163.43 100.98 164.04 100.32 168 104 164.04 107.68" fill="#666"/>
    </g>
    <g>
      <path d="M336,140V110a6,6,0,0,1,6-6h17" fill="none" stroke="#666" stroke-miterlimit="10" stroke-width="1.5"/>
      <polygon points="356.04 107.68 355.43 107.02 358.68 104 355.43 100.98 356.04 100.32 360 104 356.04 107.68" fill="#666"/>
    </g>
    <path d="M180,92V83.5a6,6,0,0,1,6-6H636" fill="none" stroke="#666" stroke-miterlimit="10" stroke-width="1.5"/>
    <path d="M372,92V86.75c0-2.89,2.7-5.25,6-5.25H636" fill="none" stroke="#666" stroke-miterlimit="10" stroke-width="1.5"/>
    <path d="M564,107V91.5a6,6,0,0,1,6-6h66" fill="none" stroke="#666" stroke-miterlimit="10" stroke-width="1.5"/>
    <g>
      <line x1="532" y1="104" x2="551.02" y2="104.16" fill="none" stroke="#666" stroke-miterlimit="10" stroke-width="1.5"/>
      <polygon points="548.01 107.81 547.4 107.15 550.68 104.15 547.45 101.11 548.07 100.45 552 104.17 548.01 107.81" fill="#666"/>
    </g>
    <path d="M492,84.5V98a6,6,0,0,0,6,6h26" fill="none" stroke="#666" stroke-miterlimit="10" stroke-width="1.5"/>
    <path d="M456,56h30a6,6,0,0,1,6,6V73" fill="none" stroke="#666" stroke-miterlimit="10" stroke-width="1.5"/>
    <use id="op-sum-3" data-name="op-sum" width="24" height="24" transform="translate(624.75 69)" xlink:href="#op-sum"/>
    <use width="24" height="24" transform="translate(168.01 91.25)" xlink:href="#op-x"/>
    <use width="49.5" height="49.5" transform="translate(71.25 163.25)" xlink:href="#rnn-s"/>
    <use width="24" height="24" transform="translate(360.01 91.25)" xlink:href="#op-x"/>
    <use width="49.5" height="49.5" transform="translate(263.24 163.25)" xlink:href="#rnn-s"/>
    <use id="op-x-7" data-name="op-x" width="24" height="24" transform="translate(552 91.25)" xlink:href="#op-x"/>
    <use width="49.5" height="49.5" transform="translate(455.24 163.25)" xlink:href="#rnn-s"/>
    <use width="24" height="24" transform="translate(83.75 220.25)" xlink:href="#op-sum_2"/>
  </g>
  <line x1="108" y1="56" x2="528" y2="56" fill="none" stroke="#666" stroke-miterlimit="10" stroke-width="1.5"/>
  <use id="op-halo-3" data-name="op-halo" width="31.45" height="31.45" transform="translate(212.94 17.11)" xlink:href="#op-halo"/>
  <use id="op-halo-6" data-name="op-halo" width="31.45" height="31.45" transform="translate(404.94 17.11)" xlink:href="#op-halo"/>
  <use id="op-halo-9" data-name="op-halo" width="31.45" height="31.45" transform="translate(596.94 17.11)" xlink:href="#op-halo"/>
  <g>
    <g opacity="0.1">
      <circle cx="229.75" cy="34.75" r="11.25"/>
      <circle cx="229.75" cy="34.75" r="11.25" fill="none" stroke="#000" stroke-miterlimit="10" stroke-width="1.5" opacity="0.5"/>
      <path d="M228.71,35.39L222,38.07V37l5.51-2.12L222,32.78V31.72l6.75,2.68v1Z"/>
      <path d="M234.09,34.2h-0.85q-0.37,0-.73,0a1.84,1.84,0,0,0-.66.17,1,1,0,0,0-.46.42,1.19,1.19,0,0,0-.21.73,1.13,1.13,0,0,0,.2.67,1.4,1.4,0,0,0,.46.43,2.73,2.73,0,0,0,1.33.3,3,3,0,0,0,1.54-.37,1.66,1.66,0,0,0,.73-1.28h1.34a2.55,2.55,0,0,1-1.09,2.09,4,4,0,0,1-2.32.7,7.39,7.39,0,0,1-1.28-.11,4.23,4.23,0,0,1-1.17-.38,2.21,2.21,0,0,1-1.18-2.08,1.72,1.72,0,0,1,.55-1.3,2.33,2.33,0,0,1,1.2-.66v0a2.71,2.71,0,0,1-1.07-.69,1.56,1.56,0,0,1-.43-1.14,1.8,1.8,0,0,1,.3-1A2,2,0,0,1,231,30a4.19,4.19,0,0,1,2-.52,4.65,4.65,0,0,1,2.34.55,2.37,2.37,0,0,1,1.05,2h-1.34a1.21,1.21,0,0,0-.64-1.15,3.21,3.21,0,0,0-1.36-.29,2.53,2.53,0,0,0-1.1.24,1,1,0,0,0-.58,1,1,1,0,0,0,.58,1,2.79,2.79,0,0,0,1.2.22h0.88V34.2Z"/>
    </g>
    <use width="24" height="24" transform="translate(216.75 20.75)" xlink:href="#op-sum_5"/>
  </g>
  <g>
    <g opacity="0.1">
      <circle cx="96.25" cy="58.75" r="11.25"/>
      <circle cx="96.25" cy="58.75" r="11.25" fill="none" stroke="#000" stroke-miterlimit="10" stroke-width="1.5" opacity="0.5"/>
      <path d="M93.9,56.77V56a4.3,4.3,0,0,0,1.59-.37,1.83,1.83,0,0,0,.67-1.23H97v8.36H95.87V56.77h-2Z"/>
    </g>
    <use width="24" height="24" transform="translate(83.25 44.75)" xlink:href="#op-sum_3"/>
  </g>
  <g>
    <g opacity="0.1">
      <circle cx="421.74" cy="34.75" r="11.25"/>
      <circle cx="421.74" cy="34.75" r="11.25" fill="none" stroke="#000" stroke-miterlimit="10" stroke-width="1.5" opacity="0.5"/>
      <path d="M420.71,35.39L414,38.07V37l5.51-2.12L414,32.78V31.72l6.75,2.68v1Z"/>
      <path d="M426.08,34.2h-0.85q-0.37,0-.73,0a1.84,1.84,0,0,0-.66.17,1,1,0,0,0-.46.42,1.19,1.19,0,0,0-.21.73,1.13,1.13,0,0,0,.2.67,1.4,1.4,0,0,0,.46.43,2.73,2.73,0,0,0,1.33.3,3,3,0,0,0,1.54-.37,1.66,1.66,0,0,0,.73-1.28h1.34a2.55,2.55,0,0,1-1.09,2.09,4,4,0,0,1-2.32.7,7.39,7.39,0,0,1-1.28-.11,4.23,4.23,0,0,1-1.17-.38,2.21,2.21,0,0,1-1.18-2.08,1.72,1.72,0,0,1,.55-1.3,2.33,2.33,0,0,1,1.2-.66v0a2.71,2.71,0,0,1-1.07-.69,1.56,1.56,0,0,1-.43-1.14,1.8,1.8,0,0,1,.3-1A2,2,0,0,1,423,30a4.19,4.19,0,0,1,2-.52,4.65,4.65,0,0,1,2.34.55,2.37,2.37,0,0,1,1.05,2H427.1a1.21,1.21,0,0,0-.64-1.15,3.21,3.21,0,0,0-1.36-.29,2.53,2.53,0,0,0-1.1.24,1,1,0,0,0-.58,1,1,1,0,0,0,.58,1,2.79,2.79,0,0,0,1.2.22h0.88V34.2Z"/>
    </g>
    <use width="24" height="24" transform="translate(408.74 20.75)" xlink:href="#op-sum_5"/>
  </g>
  <g>
    <g opacity="0.1">
      <circle cx="613.74" cy="34.75" r="11.25"/>
      <circle cx="613.74" cy="34.75" r="11.25" fill="none" stroke="#000" stroke-miterlimit="10" stroke-width="1.5" opacity="0.5"/>
      <path d="M612.7,35.39l-6.75,2.67V37l5.51-2.12-5.51-2.11V31.72l6.75,2.68v1Z"/>
      <path d="M618.07,34.2h-0.85q-0.37,0-.73,0a1.84,1.84,0,0,0-.66.17,1,1,0,0,0-.46.42,1.19,1.19,0,0,0-.21.73,1.13,1.13,0,0,0,.2.67,1.4,1.4,0,0,0,.46.43,2.73,2.73,0,0,0,1.33.3,3,3,0,0,0,1.54-.37,1.66,1.66,0,0,0,.73-1.28h1.34a2.55,2.55,0,0,1-1.09,2.09,4,4,0,0,1-2.32.7,7.39,7.39,0,0,1-1.28-.11,4.23,4.23,0,0,1-1.17-.38,2.21,2.21,0,0,1-1.18-2.08,1.72,1.72,0,0,1,.55-1.3,2.33,2.33,0,0,1,1.2-.66v0a2.71,2.71,0,0,1-1.07-.69,1.56,1.56,0,0,1-.43-1.14,1.8,1.8,0,0,1,.3-1A2,2,0,0,1,615,30a4.19,4.19,0,0,1,2-.52,4.65,4.65,0,0,1,2.34.55,2.37,2.37,0,0,1,1.05,2H619.1a1.21,1.21,0,0,0-.64-1.15,3.21,3.21,0,0,0-1.36-.29,2.53,2.53,0,0,0-1.1.24,1,1,0,0,0-.58,1,1,1,0,0,0,.58,1,2.79,2.79,0,0,0,1.2.22h0.88V34.2Z"/>
    </g>
    <use width="24" height="24" transform="translate(600.74 20.75)" xlink:href="#op-sum_5"/>
  </g>
  <g>
    <line x1="144" y1="140" x2="144" y2="73.43" fill="none" stroke="#666" stroke-miterlimit="10" stroke-width="1.5"/>
    <path d="M144,68a27.2,27.2,0,0,0,4.28,7.69L144,74.14l-4.28,1.55A27.17,27.17,0,0,0,144,68Z" fill="#666"/>
  </g>
  <g>
    <line x1="336" y1="140" x2="336" y2="73.43" fill="none" stroke="#666" stroke-miterlimit="10" stroke-width="1.5"/>
    <path d="M336,68a27.2,27.2,0,0,0,4.28,7.69L336,74.14l-4.28,1.55A27.18,27.18,0,0,0,336,68Z" fill="#666"/>
  </g>
  <g>
    <line x1="528" y1="140" x2="528" y2="73.43" fill="none" stroke="#666" stroke-miterlimit="10" stroke-width="1.5"/>
    <path d="M528,68a27.2,27.2,0,0,0,4.28,7.69L528,74.14l-4.28,1.55A27.18,27.18,0,0,0,528,68Z" fill="#666"/>
  </g>
  <g>
    <path d="M144,56.5h18a16.83,16.83,0,0,0,10.26-4.22L188,36.72a16.83,16.83,0,0,1,10.26-4.22h9.32" fill="none" stroke="#666" stroke-miterlimit="10" stroke-width="1.5"/>
    <path d="M213,32.5a27.2,27.2,0,0,0-7.69,4.28l1.55-4.28-1.55-4.28A27.17,27.17,0,0,0,213,32.5Z" fill="#666"/>
  </g>
  <g>
    <path d="M336,56h18a17.11,17.11,0,0,0,10.31-4.18l15.63-15.15a17.11,17.11,0,0,1,10.31-4.18h9.32" fill="none" stroke="#666" stroke-miterlimit="10" stroke-width="1.5"/>
    <path d="M405,32.5a27.2,27.2,0,0,0-7.69,4.28l1.55-4.28-1.55-4.28A27.17,27.17,0,0,0,405,32.5Z" fill="#666"/>
  </g>
  <g>
    <path d="M528,56.5h18a16.83,16.83,0,0,0,10.26-4.22L572,36.72a16.83,16.83,0,0,1,10.26-4.22h9.32" fill="none" stroke="#666" stroke-miterlimit="10" stroke-width="1.5"/>
    <path d="M597,32.5a27.2,27.2,0,0,0-7.69,4.28l1.55-4.28-1.55-4.28A27.17,27.17,0,0,0,597,32.5Z" fill="#666"/>
  </g>
  <g>
    <g opacity="0.1">
      <circle cx="145.75" cy="58.09" r="11.25"/>
      <circle cx="145.75" cy="58.09" r="11.25" fill="none" stroke="#000" stroke-miterlimit="10" stroke-width="1.5" opacity="0.5"/>
      <path d="M141.26,57.3h9v1.15h-9V57.3Z"/>
    </g>
    <use width="24" height="24" transform="translate(132.75 44.09)" xlink:href="#op-sum_4"/>
  </g>
  <g>
    <g opacity="0.1">
      <circle cx="528.74" cy="58.09" r="11.25"/>
      <circle cx="528.74" cy="58.09" r="11.25" fill="none" stroke="#000" stroke-miterlimit="10" stroke-width="1.5" opacity="0.5"/>
      <path d="M524.25,57.3h9v1.15h-9V57.3Z"/>
    </g>
    <use width="24" height="24" transform="translate(515.74 44.09)" xlink:href="#op-sum_4"/>
  </g>
  <g id="_Group_" data-name="&lt;Group&gt;">
    <g opacity="0.1">
      <rect x="133.33" y="129.33" width="23.67" height="23.67" rx="6" ry="6" stroke="#000" stroke-width="1.5"/>
      <path d="M151.54,137.25h-2.48a5.39,5.39,0,0,1,1.41,3.87,6.62,6.62,0,0,1-1.37,4.36,5.13,5.13,0,0,1-4.11,1.73,5,5,0,0,1-4.09-1.78,6.66,6.66,0,0,1-1.37-4.32A5.73,5.73,0,0,1,141,137a5.22,5.22,0,0,1,4-1.58,6.18,6.18,0,0,1,1.67.21h4.88v1.57Zm-3.16,4.11a5.89,5.89,0,0,0-.74-2.92,3.2,3.2,0,0,0-5.26-.06,5.53,5.53,0,0,0-.77,3,4.82,4.82,0,0,0,.91,3,3.11,3.11,0,0,0,5.05-.06A5.37,5.37,0,0,0,148.39,141.37Z"/>
    </g>
    <use width="25.17" height="25.17" transform="translate(131.58 126.58)" xlink:href="#rnn-sigma"/>
  </g>
  <g id="_Group_2" data-name="&lt;Group&gt;">
    <g opacity="0.1">
      <rect x="325.33" y="129.33" width="23.67" height="23.67" rx="6" ry="6" stroke="#000" stroke-width="1.5"/>
      <path d="M343.54,137.25h-2.48a5.39,5.39,0,0,1,1.41,3.87,6.62,6.62,0,0,1-1.37,4.36,5.13,5.13,0,0,1-4.11,1.73,5,5,0,0,1-4.09-1.78,6.66,6.66,0,0,1-1.37-4.32A5.73,5.73,0,0,1,333,137a5.22,5.22,0,0,1,4-1.58,6.18,6.18,0,0,1,1.67.21h4.88v1.57Zm-3.16,4.11a5.89,5.89,0,0,0-.74-2.92,3.2,3.2,0,0,0-5.26-.06,5.53,5.53,0,0,0-.77,3,4.82,4.82,0,0,0,.91,3,3.11,3.11,0,0,0,5.05-.06A5.37,5.37,0,0,0,340.39,141.37Z"/>
    </g>
    <use width="25.17" height="25.17" transform="translate(323.58 126.58)" xlink:href="#rnn-sigma"/>
  </g>
  <g id="_Group_3" data-name="&lt;Group&gt;">
    <g opacity="0.1">
      <rect x="517.33" y="129.33" width="23.67" height="23.67" rx="6" ry="6" stroke="#000" stroke-width="1.5"/>
      <path d="M535.54,137.25h-2.48a5.39,5.39,0,0,1,1.41,3.87,6.62,6.62,0,0,1-1.37,4.36,5.13,5.13,0,0,1-4.11,1.73,5,5,0,0,1-4.09-1.78,6.66,6.66,0,0,1-1.37-4.32A5.73,5.73,0,0,1,525,137a5.22,5.22,0,0,1,4-1.58,6.18,6.18,0,0,1,1.67.21h4.88v1.57Zm-3.16,4.11a5.89,5.89,0,0,0-.74-2.92,3.2,3.2,0,0,0-5.26-.06,5.53,5.53,0,0,0-.77,3,4.82,4.82,0,0,0,.91,3,3.11,3.11,0,0,0,5.05-.06A5.37,5.37,0,0,0,532.39,141.37Z"/>
    </g>
    <use width="25.17" height="25.17" transform="translate(515.58 126.58)" xlink:href="#rnn-sigma"/>
  </g>
  <g>
    <g opacity="0.1">
      <circle cx="337.74" cy="58.09" r="11.25"/>
      <circle cx="337.74" cy="58.09" r="11.25" fill="none" stroke="#000" stroke-miterlimit="10" stroke-width="1.5" opacity="0.5"/>
      <path d="M333.26,57.3h9v1.15h-9V57.3Z"/>
    </g>
    <use width="24" height="24" transform="translate(324.74 44.09)" xlink:href="#op-sum_4"/>
  </g>
</svg>
