<svg id="edges" xmlns="http://www.w3.org/2000/svg" xmlns:xlink="http://www.w3.org/1999/xlink" width="984" height="744" viewBox="0 0 984 744">
  <defs>
    <symbol id="array-5" data-name="array-5" viewBox="0 0 181 37">
      <rect x="0.5" y="0.5" width="180" height="36" rx="6" ry="6" fill="#fff" stroke="#8c8c8c" stroke-miterlimit="10"/>
      <line x1="36.25" y1="36.5" x2="36.25" y2="0.5" fill="none" stroke="#8c8c8c" stroke-miterlimit="10"/>
      <line x1="72.25" y1="36.5" x2="72.25" y2="0.5" fill="none" stroke="#8c8c8c" stroke-miterlimit="10"/>
      <line x1="108.25" y1="36.5" x2="108.25" y2="0.5" fill="none" stroke="#8c8c8c" stroke-miterlimit="10"/>
      <line x1="144.25" y1="36.5" x2="144.25" y2="0.5" fill="none" stroke="#8c8c8c" stroke-miterlimit="10"/>
    </symbol>
    <symbol id="array-1" data-name="array-1" viewBox="0 0 37 37">
      <rect x="0.5" y="0.5" width="36" height="36" rx="6" ry="6" fill="#fff" stroke="#8c8c8c" stroke-miterlimit="10"/>
    </symbol>
    <symbol id="array-3" data-name="array-3" viewBox="0 0 108.5 37">
      <rect x="0.5" y="0.5" width="107.5" height="36" rx="6" ry="6" fill="#fff" stroke="#8c8c8c" stroke-miterlimit="10"/>
      <line x1="36" y1="36.5" x2="36" y2="0.5" fill="none" stroke="#8c8c8c" stroke-miterlimit="10"/>
      <line x1="72" y1="36.5" x2="72" y2="0.5" fill="none" stroke="#8c8c8c" stroke-miterlimit="10"/>
    </symbol>
    <symbol id="array-negative-value" data-name="array-negative-value" viewBox="0 0 36 36">
      <rect width="36" height="36" fill="#0080f7" opacity="0"/>
      <rect x="4.42" y="4.42" width="27.17" height="27.17" rx="6" ry="6" fill="#ff2bb6" opacity="0.8"/>
    </symbol>
    <symbol id="array-positive-value" data-name="array-positive-value" viewBox="0 0 36 36">
      <rect width="36" height="36" fill="#0080f7" opacity="0"/>
      <rect x="4.42" y="4.42" width="27.17" height="27.17" rx="6" ry="6" fill="#0080f7" opacity="0.8"/>
    </symbol>
    <symbol id="array-vector" data-name="array-vector" viewBox="0 0 36 36">
      <rect width="36" height="36" fill="#0080f7" opacity="0"/>
      <g>
        <line x1="18" y1="24" x2="18" y2="13.08" fill="none" stroke="#8c8c8c" stroke-miterlimit="10"/>
        <polygon points="22.09 16.4 21.36 17.08 18 13.47 14.64 17.08 13.91 16.4 18 12 22.09 16.4" fill="#8c8c8c"/>
      </g>
    </symbol>
  </defs>
  <title>rnn</title>
  <g>
    <line x1="815.5" x2="816" y2="771" fill="#fff"/>
    <g>
      <line x1="815.5" x2="815.5" y2="1" fill="none" stroke="#919191" stroke-miterlimit="10" stroke-width="2"/>
      <line x1="815.5" y1="3" x2="816" y2="769" fill="none" stroke="#919191" stroke-miterlimit="10" stroke-width="2" stroke-dasharray="2 2"/>
    </g>
  </g>
  <g>
    <line x1="426" y1="48" x2="426" y2="82.48" fill="none" stroke="#8c8c8c" stroke-miterlimit="10" stroke-width="2"/>
    <polygon points="420.27 77.84 421.3 76.89 426 81.94 430.7 76.89 431.72 77.84 426 84 420.27 77.84" fill="#8c8c8c"/>
  </g>
  <g>
    <line x1="827.5" y1="96" x2="469.02" y2="96" fill="none" stroke="#8c8c8c" stroke-miterlimit="10" stroke-width="2"/>
    <polygon points="473.66 90.27 474.61 91.3 469.56 96 474.61 100.7 473.66 101.72 467.5 96 473.66 90.27" fill="#8c8c8c"/>
  </g>
  <g>
    <line x1="827.5" y1="366" x2="469.02" y2="366" fill="none" stroke="#8c8c8c" stroke-miterlimit="10" stroke-width="2"/>
    <polygon points="473.66 360.27 474.61 361.3 469.56 366 474.61 370.7 473.66 371.72 467.5 366 473.66 360.27" fill="#8c8c8c"/>
  </g>
  <g>
    <line x1="827.5" y1="492" x2="469.02" y2="492" fill="none" stroke="#8c8c8c" stroke-miterlimit="10" stroke-width="2"/>
    <polygon points="473.66 486.27 474.61 487.3 469.56 492 474.61 496.7 473.66 497.72 467.5 492 473.66 486.27" fill="#8c8c8c"/>
  </g>
  <g>
    <line x1="426" y1="107.82" x2="426" y2="142.3" fill="none" stroke="#8c8c8c" stroke-miterlimit="10" stroke-width="2"/>
    <polygon points="420.27 137.67 421.3 136.71 426 141.77 430.7 136.71 431.72 137.67 426 143.82 420.27 137.67" fill="#8c8c8c"/>
  </g>
  <g>
    <line x1="426" y1="179.82" x2="426" y2="214.3" fill="none" stroke="#8c8c8c" stroke-miterlimit="10" stroke-width="2"/>
    <polygon points="420.27 209.67 421.3 208.71 426 213.77 430.7 208.71 431.72 209.67 426 215.82 420.27 209.67" fill="#8c8c8c"/>
  </g>
  <g>
    <line x1="426" y1="240" x2="426" y2="274.48" fill="none" stroke="#8c8c8c" stroke-miterlimit="10" stroke-width="2"/>
    <polygon points="420.27 269.84 421.3 268.89 426 273.94 430.7 268.89 431.72 269.84 426 276 420.27 269.84" fill="#8c8c8c"/>
  </g>
  <g>
    <g opacity="0">
      <g>
        <line x1="665.75" y1="204" x2="665.75" y2="250.84" fill="none" stroke="#8c8c8c" stroke-miterlimit="10" stroke-width="2"/>
        <polygon points="660.02 246.2 661.05 245.24 665.75 250.3 670.45 245.24 671.47 246.2 665.75 252.35 660.02 246.2" fill="#8c8c8c"/>
      </g>
    </g>
    <g opacity="0.17">
      <g>
        <line x1="665.75" y1="209" x2="665.75" y2="250.84" fill="none" stroke="#8c8c8c" stroke-miterlimit="10" stroke-width="2"/>
        <polygon points="660.02 246.2 661.05 245.24 665.75 250.3 670.45 245.24 671.47 246.2 665.75 252.35 660.02 246.2" fill="#8c8c8c"/>
      </g>
    </g>
    <g opacity="0.33">
      <g>
        <line x1="665.75" y1="214" x2="665.75" y2="250.84" fill="none" stroke="#8c8c8c" stroke-miterlimit="10" stroke-width="2"/>
        <polygon points="660.02 246.2 661.05 245.24 665.75 250.3 670.45 245.24 671.47 246.2 665.75 252.35 660.02 246.2" fill="#8c8c8c"/>
      </g>
    </g>
    <g opacity="0.5">
      <g>
        <line x1="665.75" y1="219" x2="665.75" y2="250.84" fill="none" stroke="#8c8c8c" stroke-miterlimit="10" stroke-width="2"/>
        <polygon points="660.02 246.2 661.05 245.24 665.75 250.3 670.45 245.24 671.47 246.2 665.75 252.35 660.02 246.2" fill="#8c8c8c"/>
      </g>
    </g>
    <g opacity="0.67">
      <g>
        <line x1="665.75" y1="224" x2="665.75" y2="250.84" fill="none" stroke="#8c8c8c" stroke-miterlimit="10" stroke-width="2"/>
        <polygon points="660.02 246.2 661.05 245.24 665.75 250.3 670.45 245.24 671.47 246.2 665.75 252.35 660.02 246.2" fill="#8c8c8c"/>
      </g>
    </g>
    <g opacity="0.83">
      <g>
        <line x1="665.75" y1="229" x2="665.75" y2="250.84" fill="none" stroke="#8c8c8c" stroke-miterlimit="10" stroke-width="2"/>
        <polygon points="660.02 246.2 661.05 245.24 665.75 250.3 670.45 245.24 671.47 246.2 665.75 252.35 660.02 246.2" fill="#8c8c8c"/>
      </g>
    </g>
    <g>
      <line x1="665.75" y1="234" x2="665.75" y2="250.84" fill="none" stroke="#8c8c8c" stroke-miterlimit="10" stroke-width="2"/>
      <polygon points="660.02 246.2 661.05 245.24 665.75 250.3 670.45 245.24 671.47 246.2 665.75 252.35 660.02 246.2" fill="#8c8c8c"/>
    </g>
  </g>
  <g>
    <line x1="426" y1="311.82" x2="426" y2="346.3" fill="none" stroke="#8c8c8c" stroke-miterlimit="10" stroke-width="2"/>
    <polygon points="420.27 341.67 421.3 340.71 426 345.77 430.7 340.71 431.72 341.67 426 347.82 420.27 341.67" fill="#8c8c8c"/>
  </g>
  <g>
    <line x1="426" y1="371.82" x2="426" y2="406.3" fill="none" stroke="#8c8c8c" stroke-miterlimit="10" stroke-width="2"/>
    <polygon points="420.27 401.67 421.3 400.71 426 405.77 430.7 400.71 431.72 401.67 426 407.82 420.27 401.67" fill="#8c8c8c"/>
  </g>
  <g>
    <line x1="426" y1="444" x2="426" y2="478.48" fill="none" stroke="#8c8c8c" stroke-miterlimit="10" stroke-width="2"/>
    <polygon points="420.27 473.84 421.3 472.89 426 477.94 430.7 472.89 431.72 473.84 426 480 420.27 473.84" fill="#8c8c8c"/>
  </g>
  <g>
    <line x1="426" y1="503.82" x2="426" y2="538.3" fill="none" stroke="#8c8c8c" stroke-miterlimit="10" stroke-width="2"/>
    <polygon points="420.27 533.67 421.3 532.71 426 537.77 430.7 532.71 431.72 533.67 426 539.82 420.27 533.67" fill="#8c8c8c"/>
  </g>
  <g>
    <line x1="426" y1="576.82" x2="426" y2="611.3" fill="none" stroke="#8c8c8c" stroke-miterlimit="10" stroke-width="2"/>
    <polygon points="420.27 606.67 421.3 605.71 426 610.77 430.7 605.71 431.72 606.67 426 612.82 420.27 606.67" fill="#8c8c8c"/>
  </g>
  <g>
    <line x1="426" y1="635.82" x2="426" y2="670.3" fill="none" stroke="#8c8c8c" stroke-miterlimit="10" stroke-width="2"/>
    <polygon points="420.27 665.67 421.3 664.71 426 669.77 430.7 664.71 431.72 665.67 426 671.82 420.27 665.67" fill="#8c8c8c"/>
  </g>
  <g>
    <path d="M665.75,312v32a10,10,0,0,1-10,10H469" fill="none" stroke="#8c8c8c" stroke-miterlimit="10" stroke-width="2"/>
    <polygon points="473.66 348.27 474.61 349.3 469.56 354 474.61 358.7 473.66 359.72 467.5 354 473.66 348.27" fill="#8c8c8c"/>
  </g>
  <use id="array-5-3" data-name="array-5" width="181" height="37" transform="translate(335.25 275)" xlink:href="#array-5"/>
  <use width="181" height="37" transform="translate(575 276)" xlink:href="#array-5"/>
  <use width="181" height="37" transform="translate(335.25 407)" xlink:href="#array-5"/>
  <use width="181" height="37" transform="translate(335.25 540)" xlink:href="#array-5"/>
  <use width="181" height="37" transform="translate(335.25 671)" xlink:href="#array-5"/>
  <use width="37" height="37" transform="translate(827.5 342)" xlink:href="#array-1"/>
  <use id="array-3-3" data-name="array-3" width="108.5" height="37" transform="translate(827.5 473)" xlink:href="#array-3"/>
  <use width="181" height="37" transform="translate(335.25 143)" xlink:href="#array-5"/>
  <g id="dot">
    <use width="36" height="36" transform="translate(336 143.25)" xlink:href="#array-negative-value"/>
    <use width="36" height="36" transform="translate(372 143)" xlink:href="#array-positive-value"/>
    <use width="36" height="36" transform="translate(408 143)" xlink:href="#array-positive-value"/>
    <use width="36" height="36" transform="translate(444 143)" xlink:href="#array-positive-value"/>
    <use width="36" height="36" transform="translate(480 143)" xlink:href="#array-positive-value"/>
  </g>
  <use width="181" height="37" transform="translate(335.25 12)" xlink:href="#array-5"/>
  <g id="_Group_" data-name="&lt;Group&gt;">
    <path d="M467.5,96a12,12,0,0,1-12,12h-60a12,12,0,1,1,0-24h60a12,12,0,0,1,12,12h0Z" fill="#798294"/>
  </g>
  <g id="_Group_2" data-name="&lt;Group&gt;">
    <path d="M468,228a12,12,0,0,1-12,12H396a12,12,0,1,1,0-24h60a12,12,0,0,1,12,12h0Z" fill="#798294"/>
  </g>
  <g id="softmax">
    <use width="36" height="36" transform="translate(336 276)" xlink:href="#array-positive-value"/>
    <use width="36" height="36" transform="translate(372 276)" xlink:href="#array-positive-value"/>
    <use width="36" height="36" transform="translate(408 276)" xlink:href="#array-positive-value"/>
    <use width="36" height="36" transform="translate(444 276)" xlink:href="#array-positive-value"/>
    <use id="array-positive-value-19" data-name="array-positive-value" width="36" height="36" transform="translate(480 276)" xlink:href="#array-positive-value"/>
  </g>
  <g id="shift">
    <use width="36" height="36" transform="translate(828 474)" xlink:href="#array-positive-value"/>
    <use width="36" height="36" transform="translate(864 474)" xlink:href="#array-positive-value"/>
    <use width="36" height="36" transform="translate(900 474)" xlink:href="#array-positive-value"/>
  </g>
  <use id="interpolate-amount" width="36" height="36" transform="translate(828 342)" xlink:href="#array-positive-value"/>
  <g id="previous">
    <use width="36" height="36" transform="translate(575.75 276)" xlink:href="#array-positive-value"/>
    <use width="36" height="36" transform="translate(611.75 276)" xlink:href="#array-positive-value"/>
    <use width="36" height="36" transform="translate(647.75 276)" xlink:href="#array-positive-value"/>
    <use width="36" height="36" transform="translate(683.75 276)" xlink:href="#array-positive-value"/>
    <use width="36" height="36" transform="translate(719.75 276)" xlink:href="#array-positive-value"/>
  </g>
  <g id="_Group_3" data-name="&lt;Group&gt;">
    <path d="M468,360a12,12,0,0,1-12,12H396a12,12,0,1,1,0-24h60a12,12,0,0,1,12,12h0Z" fill="#798294"/>
  </g>
  <g id="interpolate">
    <use width="36" height="36" transform="translate(336 407)" xlink:href="#array-positive-value"/>
    <use width="36" height="36" transform="translate(372 407)" xlink:href="#array-positive-value"/>
    <use width="36" height="36" transform="translate(408 407)" xlink:href="#array-positive-value"/>
    <use width="36" height="36" transform="translate(444 407)" xlink:href="#array-positive-value"/>
    <use width="36" height="36" transform="translate(480 407)" xlink:href="#array-positive-value"/>
  </g>
  <g id="_Group_4" data-name="&lt;Group&gt;">
    <path d="M468,492a12,12,0,0,1-12,12H396a12,12,0,1,1,0-24h60a12,12,0,0,1,12,12h0Z" fill="#798294"/>
  </g>
  <g id="convolve">
    <use width="36" height="36" transform="translate(335.5 541)" xlink:href="#array-positive-value"/>
    <use width="36" height="36" transform="translate(372 541)" xlink:href="#array-positive-value"/>
    <use width="36" height="36" transform="translate(408 541)" xlink:href="#array-positive-value"/>
    <use width="36" height="36" transform="translate(444 541)" xlink:href="#array-positive-value"/>
    <use width="36" height="36" transform="translate(480 541)" xlink:href="#array-positive-value"/>
  </g>
  <g id="_Group_5" data-name="&lt;Group&gt;">
    <path d="M468,624a12,12,0,0,1-12,12H396a12,12,0,1,1,0-24h60a12,12,0,0,1,12,12h0Z" fill="#798294"/>
  </g>
  <g id="new-attention">
    <use width="36" height="36" transform="translate(336 671)" xlink:href="#array-positive-value"/>
    <use width="36" height="36" transform="translate(372 671)" xlink:href="#array-positive-value"/>
    <use width="36" height="36" transform="translate(408 671)" xlink:href="#array-positive-value"/>
    <use width="36" height="36" transform="translate(444 671)" xlink:href="#array-positive-value"/>
    <use width="36" height="36" transform="translate(480 671)" xlink:href="#array-positive-value"/>
  </g>
  <use width="37" height="37" transform="translate(827.5 77)" xlink:href="#array-1"/>
  <text transform="translate(168 81.12)" font-size="12" fill="#666" font-family="Open Sans">First, the controller gives <tspan x="0" y="18">a query vector and each </tspan><tspan x="0" y="36">memory entry is scored </tspan><tspan x="0" y="54">for similarity with the </tspan><tspan x="0" y="72">query.</tspan></text>
  <text transform="translate(169.5 212.12)" font-size="12" fill="#666" font-family="Open Sans">The scores are then <tspan x="0" y="18">converted into a </tspan><tspan x="0" y="36">distribution using </tspan><tspan x="0" y="54">softmax.</tspan></text>
  <text transform="translate(169.5 345.12)" font-size="12" fill="#666" font-family="Open Sans">Next, we interpolate the <tspan x="0" y="18">attention from the </tspan><tspan x="0" y="36">previous time step. </tspan></text>
  <text transform="translate(169.5 477.12)" font-size="12" fill="#666" font-family="Open Sans">We convolve the <tspan x="0" y="18">attention with a shift </tspan><tspan x="0" y="36">filter — this allows the </tspan><tspan x="0" y="54">controller to move its </tspan><tspan x="0" y="72">focus.</tspan></text>
  <text transform="translate(169.5 610.12)" font-size="12" fill="#666" font-family="Open Sans">Finally, we sharpen the <tspan x="0" y="18">attention distribution. </tspan><tspan x="0" y="36">This final attention </tspan><tspan x="0" y="54">distribution is fed to the </tspan><tspan x="0" y="72">read or write operation.</tspan></text>
  <text transform="translate(397.79 363)" font-size="11" fill="#fff" font-family="Open Sans">interpolate</text>
  <text transform="translate(403.37 495)" font-size="11" fill="#fff" font-family="Open Sans">convolve</text>
  <text transform="translate(404.86 627)" font-size="11" fill="#fff" font-family="Open Sans">sharpen</text>
  <text transform="translate(405.19 231)" font-size="11" fill="#fff" font-family="Open Sans">softmax</text>
  <text transform="translate(395.69 99.17)" font-size="11" fill="#fff" font-family="Open Sans">dot product</text>
  <use id="query" width="36" height="36" transform="translate(828 78)" xlink:href="#array-vector"/>
  <g id="memory">
    <use width="36" height="36" transform="translate(336 12)" xlink:href="#array-vector"/>
    <use width="36" height="36" transform="translate(372 12)" xlink:href="#array-vector"/>
    <use width="36" height="36" transform="translate(408 12)" xlink:href="#array-vector"/>
    <use width="36" height="36" transform="translate(444 12)" xlink:href="#array-vector"/>
    <use width="36" height="36" transform="translate(480 12)" xlink:href="#array-vector"/>
  </g>
  <text transform="translate(528.38 30)" font-size="12" fill="#666" font-family="Open Sans">memory</text>
  <text transform="translate(527.5 156.77)" font-size="12" fill="#666" font-family="Open Sans">Blue shows high similarity, <tspan x="0" y="18">pink high dissimilarity.</tspan></text>
  <text transform="translate(827.5 330)" font-size="12" fill="#666" font-family="Open Sans">interpolation amount</text>
  <text transform="translate(827.5 462)" font-size="12" fill="#666" font-family="Open Sans">shift filter</text>
  <text transform="translate(827.5 12)" font-size="12" fill="#666" font-family="Open Sans">RNN controller</text>
  <text transform="translate(684.32 12)" font-size="12" fill="#666" font-family="Open Sans">attention mechanism</text>
  <text transform="translate(827.5 66)" font-size="12" fill="#666" font-family="Open Sans">query vector</text>
  <text transform="translate(586.11 270)" font-size="12" fill="#666" font-family="Open Sans">attention from previous step</text>
  <text transform="translate(359.23 726)" font-size="11" font-family="Open Sans">new attention distribution</text>
  <text transform="translate(529 418.28)" font-size="12" fill="#666" font-family="Open Sans">Strong values from previous <tspan x="0" y="18">attention show up faintly</tspan></text>
  <circle id="query-hover" cx="845.37" cy="95.44" r="87.04" fill="#fff" fill-opacity="0"/>
  <circle id="interpolate-hover" cx="845.37" cy="357.04" r="41.37" fill="#fff" fill-opacity="0"/>
  <rect id="shift-hover" x="798" y="450" width="168" height="84" fill="#fff" fill-opacity="0"/>
</svg>
