<svg id="background" xmlns="http://www.w3.org/2000/svg" xmlns:xlink="http://www.w3.org/1999/xlink" width="984" height="144" viewBox="0 0 984 144">
  <defs>
    <symbol id="rnn-bg" data-name="rnn-bg" viewBox="0 0 49.5 49.5">
      <rect x="0.75" y="0.75" width="48" height="48" rx="6" ry="6" fill="#fff" fill-opacity="0.8" stroke="#666" stroke-width="1.5"/>
    </symbol>
    <symbol id="rnn-a" data-name="rnn-a" viewBox="0 0 49.5 49.5">
      <use id="rnn-bg-3" data-name="rnn-bg" width="49.5" height="49.5" xlink:href="#rnn-bg"/>
      <path d="M29.77,31.75l-1.93-4.94H21.6l-1.91,4.94H17.86L24,16.14h1.52l6.11,15.61H29.77Zm-2.5-6.57-1.81-4.82q-0.35-.91-0.72-2.24a20.34,20.34,0,0,1-.67,2.24l-1.83,4.82h5Z" fill="#666"/>
    </symbol>
  </defs>
  <title>rnn</title>
  <g id="_Group_" data-name="&lt;Group&gt;">
    <rect x="166.14" y="29.93" width="599.94" height="72" rx="10" ry="10" fill="#f0f0f5"/>
    <g opacity="0.1">
      <rect x="166.14" y="29.93" width="599.94" height="72" rx="10" ry="10" fill="none" stroke="#667780"/>
    </g>
  </g>
  <g id="_Group_2" data-name="&lt;Group&gt;">
    <g opacity="0.1">
      <rect x="179.75" y="43.93" width="48" height="48" rx="6" ry="6" opacity="0.8"/>
      <rect x="179.75" y="43.93" width="48" height="48" rx="6" ry="6" fill="none" stroke="#000" stroke-width="1.5"/>
      <path d="M208.77,74.93L206.83,70H200.6l-1.91,4.94h-1.83L203,59.32h1.52l6.11,15.61h-1.87Zm-2.5-6.57-1.81-4.82q-0.35-.91-0.72-2.24a20.34,20.34,0,0,1-.67,2.24l-1.83,4.82h5Z"/>
    </g>
    <use width="49.5" height="49.5" transform="translate(178 41.18)" xlink:href="#rnn-a"/>
  </g>
  <g>
    <g opacity="0.1">
      <rect x="311.75" y="43.93" width="48" height="48" rx="6" ry="6" opacity="0.8"/>
      <rect x="311.75" y="43.93" width="48" height="48" rx="6" ry="6" fill="none" stroke="#000" stroke-width="1.5"/>
      <path d="M340.77,74.93L338.83,70H332.6l-1.91,4.94h-1.83L335,59.32h1.52l6.11,15.61h-1.87Zm-2.5-6.57-1.81-4.82q-0.35-.91-0.72-2.24a20.34,20.34,0,0,1-.67,2.24l-1.83,4.82h5Z"/>
    </g>
    <use width="49.5" height="49.5" transform="translate(310 41.18)" xlink:href="#rnn-a"/>
  </g>
  <g id="_Group_3" data-name="&lt;Group&gt;">
    <g opacity="0.1">
      <rect x="443.75" y="43.93" width="48" height="48" rx="6" ry="6" opacity="0.8"/>
      <rect x="443.75" y="43.93" width="48" height="48" rx="6" ry="6" fill="none" stroke="#000" stroke-width="1.5"/>
      <path d="M472.77,74.93L470.83,70H464.6l-1.91,4.94h-1.83L467,59.32h1.52l6.11,15.61h-1.87Zm-2.5-6.57-1.81-4.82q-0.35-.91-0.72-2.24a20.34,20.34,0,0,1-.67,2.24l-1.83,4.82h5Z"/>
    </g>
    <use width="49.5" height="49.5" transform="translate(442 41.18)" xlink:href="#rnn-a"/>
  </g>
  <g id="_Group_4" data-name="&lt;Group&gt;">
    <g opacity="0.1">
      <rect x="575.75" y="43.93" width="48" height="48" rx="6" ry="6" opacity="0.8"/>
      <rect x="575.75" y="43.93" width="48" height="48" rx="6" ry="6" fill="none" stroke="#000" stroke-width="1.5"/>
      <path d="M604.77,74.93L602.83,70H596.6l-1.91,4.94h-1.83L599,59.32h1.52l6.11,15.61h-1.87Zm-2.5-6.57-1.81-4.82q-0.35-.91-0.72-2.24a20.34,20.34,0,0,1-.67,2.24l-1.83,4.82h5Z"/>
    </g>
    <use width="49.5" height="49.5" transform="translate(574 41.18)" xlink:href="#rnn-a"/>
  </g>
  <g id="_Group_5" data-name="&lt;Group&gt;">
    <g opacity="0.1">
      <rect x="707" y="43.93" width="48" height="48" rx="6" ry="6" opacity="0.8"/>
      <rect x="707" y="43.93" width="48" height="48" rx="6" ry="6" fill="none" stroke="#000" stroke-width="1.5"/>
      <path d="M736,74.93L734.08,70h-6.23l-1.91,4.94h-1.83l6.14-15.61h1.52l6.11,15.61H736Zm-2.5-6.57-1.81-4.82q-0.35-.91-0.72-2.24a20.34,20.34,0,0,1-.67,2.24l-1.83,4.82h5Z"/>
    </g>
    <use width="49.5" height="49.5" transform="translate(705.25 41.18)" xlink:href="#rnn-a"/>
  </g>
  <text transform="translate(183.63 129.93)" opacity="0.6" font-size="13" font-family="Open Sans">x0</text>
  <text transform="translate(207.76 129.93)" opacity="0.6" font-size="13" font-family="Open Sans">y0</text>
  <text transform="translate(315.63 129.93)" opacity="0.6" font-size="13" font-family="Open Sans">x1</text>
  <text transform="translate(339.76 129.93)" opacity="0.6" font-size="13" font-family="Open Sans">y1</text>
  <text transform="translate(447.63 129.93)" opacity="0.6" font-size="13" font-family="Open Sans">x2</text>
  <text transform="translate(471.76 129.93)" opacity="0.6" font-size="13" font-family="Open Sans">y2</text>
  <text transform="translate(579.63 129.93)" opacity="0.6" font-size="13" font-family="Open Sans">x3</text>
  <text transform="translate(603.76 129.93)" opacity="0.6" font-size="13" font-family="Open Sans">y3</text>
  <g opacity="0.6">
    <text transform="translate(174.39 17.93)" font-size="13" font-family="Open Sans">One cell...</text>
  </g>
  <g opacity="0.6">
    <text transform="translate(279.21 17.93)" font-size="13" font-family="Open Sans">can be used over...</text>
  </g>
  <g opacity="0.6">
    <text transform="translate(436.05 17.93)" font-size="13" font-family="Open Sans">and over...</text>
  </g>
  <g opacity="0.6">
    <text transform="translate(568.05 17.93)" font-size="13" font-family="Open Sans">and over...</text>
  </g>
  <g>
    <line x1="226.75" y1="66.43" x2="299.32" y2="66.43" fill="none" stroke="#666" stroke-miterlimit="10" stroke-width="1.5"/>
    <path d="M304.75,66.43a27.2,27.2,0,0,0-7.69,4.28l1.55-4.28-1.55-4.28A27.18,27.18,0,0,0,304.75,66.43Z" fill="#666"/>
  </g>
  <g>
    <line x1="190.75" y1="113.93" x2="190.75" y2="100.43" fill="none" stroke="#666" stroke-miterlimit="10" stroke-width="1.5"/>
    <path d="M190.75,95a27.2,27.2,0,0,0,4.28,7.69l-4.28-1.55-4.28,1.55A27.18,27.18,0,0,0,190.75,95Z" fill="#666"/>
  </g>
  <g>
    <line x1="215.75" y1="89.43" x2="215.75" y2="108.5" fill="none" stroke="#666" stroke-miterlimit="10" stroke-width="1.5"/>
    <path d="M215.75,113.93a27.2,27.2,0,0,0-4.28-7.69l4.28,1.55,4.28-1.55A27.18,27.18,0,0,0,215.75,113.93Z" fill="#666"/>
  </g>
  <g>
    <line x1="322.75" y1="113.93" x2="322.75" y2="100.43" fill="none" stroke="#666" stroke-miterlimit="10" stroke-width="1.5"/>
    <path d="M322.75,95a27.2,27.2,0,0,0,4.28,7.69l-4.28-1.55-4.28,1.55A27.18,27.18,0,0,0,322.75,95Z" fill="#666"/>
  </g>
  <g>
    <line x1="347.75" y1="89.43" x2="347.75" y2="108.5" fill="none" stroke="#666" stroke-miterlimit="10" stroke-width="1.5"/>
    <path d="M347.75,113.93a27.2,27.2,0,0,0-4.28-7.69l4.28,1.55,4.28-1.55A27.18,27.18,0,0,0,347.75,113.93Z" fill="#666"/>
  </g>
  <g>
    <line x1="455.75" y1="113.93" x2="455.75" y2="100.43" fill="none" stroke="#666" stroke-miterlimit="10" stroke-width="1.5"/>
    <path d="M455.75,95a27.2,27.2,0,0,0,4.28,7.69l-4.28-1.55-4.28,1.55A27.18,27.18,0,0,0,455.75,95Z" fill="#666"/>
  </g>
  <g>
    <line x1="478.75" y1="89.43" x2="478.75" y2="108.5" fill="none" stroke="#666" stroke-miterlimit="10" stroke-width="1.5"/>
    <path d="M478.75,113.93a27.2,27.2,0,0,0-4.28-7.69l4.28,1.55,4.28-1.55A27.18,27.18,0,0,0,478.75,113.93Z" fill="#666"/>
  </g>
  <g>
    <line x1="586.75" y1="113.93" x2="586.75" y2="100.43" fill="none" stroke="#666" stroke-miterlimit="10" stroke-width="1.5"/>
    <path d="M586.75,95a27.2,27.2,0,0,0,4.28,7.69l-4.28-1.55-4.28,1.55A27.18,27.18,0,0,0,586.75,95Z" fill="#666"/>
  </g>
  <g>
    <line x1="610.75" y1="89.43" x2="610.75" y2="108.5" fill="none" stroke="#666" stroke-miterlimit="10" stroke-width="1.5"/>
    <path d="M610.75,113.93a27.2,27.2,0,0,0-4.28-7.69l4.28,1.55,4.28-1.55A27.18,27.18,0,0,0,610.75,113.93Z" fill="#666"/>
  </g>
  <g>
    <line x1="358.75" y1="66.43" x2="431.32" y2="66.43" fill="none" stroke="#666" stroke-miterlimit="10" stroke-width="1.5"/>
    <path d="M436.75,66.43a27.2,27.2,0,0,0-7.69,4.28l1.55-4.28-1.55-4.28A27.18,27.18,0,0,0,436.75,66.43Z" fill="#666"/>
  </g>
  <g>
    <line x1="490.75" y1="66.43" x2="563.32" y2="66.43" fill="none" stroke="#666" stroke-miterlimit="10" stroke-width="1.5"/>
    <path d="M568.75,66.43a27.2,27.2,0,0,0-7.69,4.28l1.55-4.28-1.55-4.28A27.18,27.18,0,0,0,568.75,66.43Z" fill="#666"/>
  </g>
  <text transform="translate(710.88 129.93)" opacity="0.6" font-size="13" font-family="Open Sans">x4</text>
  <text transform="translate(734.88 129.93)" opacity="0.6" font-size="13" font-family="Open Sans">x4</text>
  <g opacity="0.6">
    <text transform="translate(713.1 17.93)" font-size="13" font-family="Open Sans">again.</text>
  </g>
  <g>
    <line x1="718" y1="113.93" x2="718" y2="100.43" fill="none" stroke="#666" stroke-miterlimit="10" stroke-width="1.5"/>
    <path d="M718,95a27.2,27.2,0,0,0,4.28,7.69L718,101.14l-4.28,1.55A27.18,27.18,0,0,0,718,95Z" fill="#666"/>
  </g>
  <g>
    <line x1="742" y1="89.43" x2="742" y2="108.5" fill="none" stroke="#666" stroke-miterlimit="10" stroke-width="1.5"/>
    <path d="M742,113.93a27.2,27.2,0,0,0-4.28-7.69l4.28,1.55,4.28-1.55A27.18,27.18,0,0,0,742,113.93Z" fill="#666"/>
  </g>
  <g>
    <line x1="622" y1="66.43" x2="694.57" y2="66.43" fill="none" stroke="#666" stroke-miterlimit="10" stroke-width="1.5"/>
    <path d="M700,66.43a27.2,27.2,0,0,0-7.69,4.28l1.55-4.28-1.55-4.28A27.18,27.18,0,0,0,700,66.43Z" fill="#666"/>
  </g>
</svg>
