<svg id="background" xmlns="http://www.w3.org/2000/svg" xmlns:xlink="http://www.w3.org/1999/xlink" width="984" height="330" viewBox="0 0 984 330">
  <defs>
    <symbol id="array-small" data-name="array-small" viewBox="0 0 151.68 31.16">
      <g>
        <rect x="0.5" y="0.5" width="150.68" height="30.16" rx="6" ry="6" fill="#d8c2f2" stroke="#8c8c8c" stroke-miterlimit="10"/>
        <line x1="30.45" y1="30.66" x2="30.45" y2="0.5" fill="none" stroke="#8c8c8c" stroke-miterlimit="10"/>
        <line x1="60.61" y1="30.66" x2="60.61" y2="0.5" fill="none" stroke="#8c8c8c" stroke-miterlimit="10"/>
        <line x1="90.78" y1="30.66" x2="90.78" y2="0.5" fill="none" stroke="#8c8c8c" stroke-miterlimit="10"/>
        <line x1="120.94" y1="30.66" x2="120.94" y2="0.5" fill="none" stroke="#8c8c8c" stroke-miterlimit="10"/>
      </g>
    </symbol>
    <symbol id="rnn-bg" data-name="rnn-bg" viewBox="0 0 49.5 49.5">
      <rect x="0.75" y="0.75" width="48" height="48" rx="6" ry="6" fill="#fff" fill-opacity="0.8" stroke="#666" stroke-width="1.5"/>
    </symbol>
    <symbol id="rnn-a" data-name="rnn-a" viewBox="0 0 49.5 49.5">
      <use id="rnn-bg-3" data-name="rnn-bg" width="49.5" height="49.5" xlink:href="#rnn-bg"/>
      <path d="M29.77,31.75l-1.93-4.94H21.6l-1.91,4.94H17.86L24,16.14h1.52l6.11,15.61H29.77Zm-2.5-6.57-1.81-4.82q-0.35-.91-0.72-2.24a20.34,20.34,0,0,1-.67,2.24l-1.83,4.82h5Z" fill="#666"/>
    </symbol>
    <symbol id="op-read" data-name="op-read" viewBox="0 0 49.54 25.5">
      <g id="_Group_4" data-name="&lt;Group&gt;">
        <g>
          <path d="M48.83,12.75a12,12,0,0,1-12,12H12.71a12,12,0,1,1,0-24H36.83a12,12,0,0,1,12,12h0Z" fill="#d8c2f2"/>
          <path d="M49.54,13.5a12,12,0,0,1-12,12H12a12,12,0,0,1-12-12V12A12,12,0,0,1,12,0H37.54a12,12,0,0,1,12,12v1.5ZM1.43,12.75c0,6.19,5.4,11.25,12,11.25H36.12c6.6,0,12-5.06,12-11.25S42.72,1.5,36.12,1.5H13.43C6.83,1.5,1.43,6.56,1.43,12.75Z" fill="#666"/>
        </g>
      </g>
      <g>
        <path d="M16.25,9.67a3.31,3.31,0,0,1,.69.06L16.8,11a2.6,2.6,0,0,0-.61-0.07,1.76,1.76,0,0,0-1.34.54,2,2,0,0,0-.51,1.4v3.39H13V9.79H14l0.18,1.14h0.07A2.57,2.57,0,0,1,15.13,10,2,2,0,0,1,16.25,9.67Z" fill="#666"/>
        <path d="M21,16.38a3.13,3.13,0,0,1-2.36-.88,3.35,3.35,0,0,1-.85-2.43,3.67,3.67,0,0,1,.79-2.5,2.73,2.73,0,0,1,2.17-.91,2.67,2.67,0,0,1,2,.78,3,3,0,0,1,.74,2.14v0.74H19.16a2.13,2.13,0,0,0,.51,1.45,1.78,1.78,0,0,0,1.35.51,5,5,0,0,0,1.07-.11,5.61,5.61,0,0,0,1.06-.36v1.12a4.23,4.23,0,0,1-1,.34A6.25,6.25,0,0,1,21,16.38Zm-0.25-5.67a1.38,1.38,0,0,0-1.05.42,2,2,0,0,0-.47,1.21h2.94a1.79,1.79,0,0,0-.39-1.22A1.32,1.32,0,0,0,20.71,10.71Z" fill="#666"/>
        <path d="M29.1,16.27l-0.28-.9h0a2.65,2.65,0,0,1-.94.81,3,3,0,0,1-1.22.21,2.06,2.06,0,0,1-1.49-.52,1.93,1.93,0,0,1-.54-1.46,1.71,1.71,0,0,1,.74-1.51,4.29,4.29,0,0,1,2.27-.56l1.12,0V12A1.31,1.31,0,0,0,28.43,11a1.18,1.18,0,0,0-.9-0.31,3.11,3.11,0,0,0-1,.15,7.21,7.21,0,0,0-.88.35l-0.45-1a4.79,4.79,0,0,1,1.15-.42,5.31,5.31,0,0,1,1.18-.14,2.8,2.8,0,0,1,1.87.54,2.11,2.11,0,0,1,.63,1.69v4.37h-1Zm-2.05-.94a1.71,1.71,0,0,0,1.2-.42,1.52,1.52,0,0,0,.45-1.17V13.17l-0.83,0a2.85,2.85,0,0,0-1.42.33,1,1,0,0,0-.44.89,0.87,0.87,0,0,0,.26.67A1.11,1.11,0,0,0,27.05,15.33Z" fill="#666"/>
        <path d="M34.19,16.38a2.26,2.26,0,0,1-1.89-.88A4,4,0,0,1,31.62,13a4,4,0,0,1,.69-2.48,2.28,2.28,0,0,1,1.91-.89,2.23,2.23,0,0,1,1.95.94h0.07a8.25,8.25,0,0,1-.1-1.1V7.15h1.38v9.12H36.44l-0.24-.85H36.13A2.2,2.2,0,0,1,34.19,16.38Zm0.37-1.11a1.5,1.5,0,0,0,1.24-.48,2.51,2.51,0,0,0,.4-1.55V13a2.9,2.9,0,0,0-.4-1.74,1.48,1.48,0,0,0-1.25-.52,1.27,1.27,0,0,0-1.12.59A3,3,0,0,0,33,13.06a2.94,2.94,0,0,0,.38,1.64A1.29,1.29,0,0,0,34.56,15.27Z" fill="#666"/>
      </g>
    </symbol>
    <symbol id="op-write" data-name="op-write" viewBox="0 0 49.54 25.5">
      <g id="_Group_6" data-name="&lt;Group&gt;">
        <g>
          <path d="M48.83,12.75a12,12,0,0,1-12,12H12.71a12,12,0,1,1,0-24H36.83a12,12,0,0,1,12,12h0Z" fill="#d8c2f2"/>
          <path d="M49.54,13.5a12,12,0,0,1-12,12H12a12,12,0,0,1-12-12V12A12,12,0,0,1,12,0H37.54a12,12,0,0,1,12,12v1.5ZM1.43,12.75c0,6.19,5.4,11.25,12,11.25H36.12c6.6,0,12-5.06,12-11.25S42.72,1.5,36.12,1.5H13.43C6.83,1.5,1.43,6.56,1.43,12.75Z" fill="#666"/>
        </g>
      </g>
      <g>
        <path d="M16.74,16.25l-0.84-3q-0.15-.48-0.55-2.23H15.3q-0.34,1.58-.54,2.24l-0.86,3H12.37L10.56,9.77H12L12.79,13q0.28,1.18.4,2h0q0.06-.43.18-1t0.21-.83l1-3.41h1.51l1,3.41q0.09,0.29.22,0.88a6.76,6.76,0,0,1,.16.92h0a18,18,0,0,1,.41-2l0.84-3.19h1.38l-1.83,6.48H16.74Z" fill="#666"/>
        <path d="M24.51,9.65a3.31,3.31,0,0,1,.69.06L25.06,11a2.6,2.6,0,0,0-.61-0.07,1.76,1.76,0,0,0-1.34.54,2,2,0,0,0-.51,1.4v3.39H21.23V9.77H22.3l0.18,1.14h0.07A2.57,2.57,0,0,1,23.4,10,2,2,0,0,1,24.51,9.65Z" fill="#666"/>
        <path d="M26.32,8.05a0.76,0.76,0,0,1,.2-0.57,0.79,0.79,0,0,1,.58-0.2,0.77,0.77,0,0,1,.57.2,0.76,0.76,0,0,1,.2.57,0.75,0.75,0,0,1-.2.55,0.76,0.76,0,0,1-.57.2,0.78,0.78,0,0,1-.58-0.2A0.75,0.75,0,0,1,26.32,8.05Zm1.46,8.2H26.4V9.77h1.38v6.48Z" fill="#666"/>
        <path d="M32.16,15.25a3.35,3.35,0,0,0,1-.16v1a2.78,2.78,0,0,1-.59.17,4.06,4.06,0,0,1-.75.07,1.78,1.78,0,0,1-2-2.06V10.81H29V10.2l0.95-.5,0.47-1.37h0.85V9.77H33.1v1H31.26v3.47a1,1,0,0,0,.25.74A0.91,0.91,0,0,0,32.16,15.25Z" fill="#666"/>
        <path d="M37.29,16.37a3.13,3.13,0,0,1-2.36-.88,3.35,3.35,0,0,1-.85-2.43,3.67,3.67,0,0,1,.79-2.5A2.73,2.73,0,0,1,37,9.65a2.67,2.67,0,0,1,2,.78,3,3,0,0,1,.74,2.14v0.74H35.49A2.13,2.13,0,0,0,36,14.77a1.78,1.78,0,0,0,1.35.51,5,5,0,0,0,1.07-.11,5.61,5.61,0,0,0,1.06-.36v1.12a4.23,4.23,0,0,1-1,.34A6.25,6.25,0,0,1,37.29,16.37ZM37,10.7a1.38,1.38,0,0,0-1.05.42,2,2,0,0,0-.47,1.21h2.94a1.79,1.79,0,0,0-.39-1.22A1.32,1.32,0,0,0,37,10.7Z" fill="#666"/>
      </g>
    </symbol>
    <symbol id="array-vector" data-name="array-vector" viewBox="0 0 36 36">
      <rect width="36" height="36" fill="#0080f7" opacity="0"/>
      <g opacity="0.4">
        <g>
          <line x1="18" y1="24" x2="18" y2="13.08" fill="none" stroke="#000" stroke-miterlimit="10"/>
          <polygon points="22.09 16.4 21.36 17.08 18 13.47 14.64 17.08 13.91 16.4 18 12 22.09 16.4"/>
        </g>
      </g>
    </symbol>
  </defs>
  <title>rnn</title>
  <g id="_Group_" data-name="&lt;Group&gt;">
    <rect x="64.15" y="204" width="839.7" height="72" rx="10" ry="10" fill="#f0f0f5"/>
    <g opacity="0.1">
      <rect x="64.15" y="204" width="839.7" height="72" rx="10" ry="10" fill="none" stroke="#667780"/>
    </g>
  </g>
  <use id="array-small-3" data-name="array-small" width="151.68" height="31.16" transform="translate(30.92 47.69)" xlink:href="#array-small"/>
  <use width="151.68" height="31.16" transform="translate(224 47.69)" xlink:href="#array-small"/>
  <use width="151.68" height="31.16" transform="translate(416 47.69)" xlink:href="#array-small"/>
  <use width="151.68" height="31.16" transform="translate(608 47.69)" xlink:href="#array-small"/>
  <use width="151.68" height="31.16" transform="translate(800 47.69)" xlink:href="#array-small"/>
  <g id="_Group_2" data-name="&lt;Group&gt;">
    <g opacity="0.1">
      <rect x="653.64" y="218" width="48" height="48" rx="6" ry="6" opacity="0.8"/>
      <rect x="653.64" y="218" width="48" height="48" rx="6" ry="6" fill="none" stroke="#000" stroke-width="1.5"/>
      <path d="M682.66,249l-1.93-4.94h-6.23L672.58,249h-1.83l6.14-15.61h1.52L684.53,249h-1.87Zm-2.5-6.57-1.81-4.82q-0.35-.91-0.72-2.24a20.34,20.34,0,0,1-.67,2.24l-1.83,4.82h5Z"/>
    </g>
    <use width="49.5" height="49.5" transform="translate(651.89 215.25)" xlink:href="#rnn-a"/>
  </g>
  <g>
    <path d="M118,84l29.83,29c3.94,3.84,11.67,7,17.17,7h40.89c5.5,0,13.1-3.27,16.88-7.26l23.5-24.8" fill="none" stroke="#666" stroke-miterlimit="10" stroke-width="1.5"/>
    <path d="M250,84a27.2,27.2,0,0,0-2.18,8.53l-2-4.07-4.17-1.82A27.18,27.18,0,0,0,250,84Z" fill="#666"/>
  </g>
  <g>
    <path d="M268,84l-34.93,34.93C229.18,122.82,226,130.5,226,136v46c0,5.5,3.18,13.18,7.07,17.07l25.09,25.09" fill="none" stroke="#666" stroke-miterlimit="10" stroke-width="1.5"/>
    <path d="M262,228a27.2,27.2,0,0,0-8.47-2.41l4.12-1.93,1.93-4.12A27.18,27.18,0,0,0,262,228Z" fill="#666"/>
  </g>
  <g id="_Group_3" data-name="&lt;Group&gt;">
    <g opacity="0.1">
      <path d="M257.83,157.5a12,12,0,0,1-12,12H221.71a12,12,0,0,1,0-24h24.12a12,12,0,0,1,12,12h0Z"/>
      <path d="M258.55,158.25a12,12,0,0,1-12,12H221a12,12,0,0,1-12-12v-1.5a12,12,0,0,1,12-12h25.54a12,12,0,0,1,12,12v1.5Zm-48.12-.75c0,6.19,5.4,11.25,12,11.25h22.69c6.6,0,12-5.06,12-11.25s-5.4-11.25-12-11.25H222.43C215.83,146.25,210.43,151.31,210.43,157.5Z"/>
      <path d="M225.25,154.42a3.31,3.31,0,0,1,.69.06l-0.13,1.28a2.6,2.6,0,0,0-.61-0.07,1.76,1.76,0,0,0-1.34.54,2,2,0,0,0-.51,1.4V161H222v-6.48H223l0.18,1.14h0.07a2.57,2.57,0,0,1,.84-0.92A2,2,0,0,1,225.25,154.42Z"/>
      <path d="M230,161.13a3.13,3.13,0,0,1-2.36-.88,3.35,3.35,0,0,1-.85-2.43,3.67,3.67,0,0,1,.79-2.5,2.73,2.73,0,0,1,2.17-.91,2.67,2.67,0,0,1,2,.78,3,3,0,0,1,.74,2.14v0.74h-4.32a2.13,2.13,0,0,0,.51,1.45A1.78,1.78,0,0,0,230,160a5,5,0,0,0,1.07-.11,5.61,5.61,0,0,0,1.06-.36v1.12a4.23,4.23,0,0,1-1,.34A6.25,6.25,0,0,1,230,161.13Zm-0.25-5.67a1.38,1.38,0,0,0-1.05.42,2,2,0,0,0-.47,1.21h2.94a1.79,1.79,0,0,0-.39-1.22A1.32,1.32,0,0,0,229.71,155.46Z"/>
      <path d="M238.1,161l-0.28-.9h0a2.65,2.65,0,0,1-.94.81,3,3,0,0,1-1.22.21,2.06,2.06,0,0,1-1.49-.52,1.93,1.93,0,0,1-.54-1.46,1.71,1.71,0,0,1,.74-1.51,4.29,4.29,0,0,1,2.27-.56l1.12,0v-0.35a1.31,1.31,0,0,0-.29-0.93,1.18,1.18,0,0,0-.9-0.31,3.11,3.11,0,0,0-1,.15,7.21,7.21,0,0,0-.88.35l-0.45-1a4.79,4.79,0,0,1,1.15-.42,5.31,5.31,0,0,1,1.18-.14,2.8,2.8,0,0,1,1.87.54,2.11,2.11,0,0,1,.63,1.69V161h-1Zm-2.05-.94a1.71,1.71,0,0,0,1.2-.42,1.52,1.52,0,0,0,.45-1.17v-0.56l-0.83,0a2.85,2.85,0,0,0-1.42.33,1,1,0,0,0-.44.89,0.87,0.87,0,0,0,.26.67A1.11,1.11,0,0,0,236.05,160.08Z"/>
      <path d="M243.19,161.13a2.26,2.26,0,0,1-1.89-.88,4.82,4.82,0,0,1,0-4.95,2.28,2.28,0,0,1,1.91-.89,2.23,2.23,0,0,1,1.95.94h0.07a8.25,8.25,0,0,1-.1-1.1V151.9h1.38V161h-1.08l-0.24-.85h-0.06A2.2,2.2,0,0,1,243.19,161.13Zm0.37-1.11a1.5,1.5,0,0,0,1.24-.48,2.51,2.51,0,0,0,.4-1.55V157.8a2.9,2.9,0,0,0-.4-1.74,1.48,1.48,0,0,0-1.25-.52,1.27,1.27,0,0,0-1.12.59,3,3,0,0,0-.39,1.68,2.94,2.94,0,0,0,.38,1.64A1.29,1.29,0,0,0,243.56,160Z"/>
    </g>
    <use width="49.54" height="25.5" transform="translate(208 142.75)" xlink:href="#op-read"/>
  </g>
  <g id="_Group_5" data-name="&lt;Group&gt;">
    <g opacity="0.1">
      <path d="M214.29,122.5a12,12,0,0,1-12,12H178.17a12,12,0,0,1,0-24h24.12a12,12,0,0,1,12,12h0Z"/>
      <path d="M215,123.25a12,12,0,0,1-12,12H177.46a12,12,0,0,1-12-12v-1.5a12,12,0,0,1,12-12H203a12,12,0,0,1,12,12v1.5Zm-48.12-.75c0,6.19,5.4,11.25,12,11.25h22.69c6.6,0,12-5.06,12-11.25s-5.4-11.25-12-11.25H178.88C172.28,111.25,166.88,116.31,166.88,122.5Z"/>
      <path d="M182.2,126l-0.84-3q-0.15-.48-0.55-2.23h-0.05q-0.34,1.58-.54,2.24l-0.86,3h-1.52L176,119.52h1.41l0.83,3.19q0.28,1.18.4,2h0q0.06-.43.18-1t0.21-.83l1-3.41h1.51l1,3.41q0.09,0.29.22,0.88a6.76,6.76,0,0,1,.16.92h0a18,18,0,0,1,.41-2l0.84-3.19h1.38L183.74,126H182.2Z"/>
      <path d="M190,119.4a3.31,3.31,0,0,1,.69.06l-0.13,1.28a2.6,2.6,0,0,0-.61-0.07,1.76,1.76,0,0,0-1.34.54,2,2,0,0,0-.51,1.4V126h-1.38v-6.48h1.08l0.18,1.14H188a2.57,2.57,0,0,1,.84-0.92A2,2,0,0,1,190,119.4Z"/>
      <path d="M191.78,117.8a0.76,0.76,0,0,1,.2-0.57,0.79,0.79,0,0,1,.58-0.2,0.77,0.77,0,0,1,.57.2,0.76,0.76,0,0,1,.2.57,0.75,0.75,0,0,1-.2.55,0.76,0.76,0,0,1-.57.2,0.78,0.78,0,0,1-.58-0.2A0.75,0.75,0,0,1,191.78,117.8Zm1.46,8.2h-1.38v-6.48h1.38V126Z"/>
      <path d="M197.62,125a3.35,3.35,0,0,0,1-.16v1a2.78,2.78,0,0,1-.59.17,4.06,4.06,0,0,1-.75.07,1.78,1.78,0,0,1-2-2.06v-3.49h-0.88V120l0.95-.5,0.47-1.37h0.85v1.44h1.85v1h-1.85V124a1,1,0,0,0,.25.74A0.91,0.91,0,0,0,197.62,125Z"/>
      <path d="M202.75,126.12a3.13,3.13,0,0,1-2.36-.88,3.35,3.35,0,0,1-.85-2.43,3.67,3.67,0,0,1,.79-2.5,2.73,2.73,0,0,1,2.17-.91,2.67,2.67,0,0,1,2,.78,3,3,0,0,1,.74,2.14v0.74H201a2.13,2.13,0,0,0,.51,1.45,1.78,1.78,0,0,0,1.35.51,5,5,0,0,0,1.07-.11,5.61,5.61,0,0,0,1.06-.36v1.12a4.23,4.23,0,0,1-1,.34A6.25,6.25,0,0,1,202.75,126.12Zm-0.25-5.67a1.38,1.38,0,0,0-1.05.42,2,2,0,0,0-.47,1.21h2.94a1.79,1.79,0,0,0-.39-1.22A1.32,1.32,0,0,0,202.5,120.45Z"/>
    </g>
    <use width="49.54" height="25.5" transform="translate(164.46 107.75)" xlink:href="#op-write"/>
  </g>
  <g opacity="0.4">
    <g>
      <path d="M118,216l64.93-64.93c3.45-3.45,6.35-7.94,7-10.64" fill="none" stroke="#666" stroke-miterlimit="10" stroke-width="1.5"/>
      <path d="M190,135a27.2,27.2,0,0,0,3.93,7.88l-4.21-1.74-4.34,1.36A27.18,27.18,0,0,0,190,135Z" fill="#666"/>
    </g>
  </g>
  <g>
    <path d="M310,84l29.83,29c3.94,3.84,11.67,7,17.17,7h40.89c5.5,0,13.1-3.27,16.88-7.26l23.5-24.8" fill="none" stroke="#666" stroke-miterlimit="10" stroke-width="1.5"/>
    <path d="M442,84a27.2,27.2,0,0,0-2.18,8.53l-2-4.07-4.17-1.82A27.18,27.18,0,0,0,442,84Z" fill="#666"/>
  </g>
  <g>
    <path d="M460,84l-34,34.84c-3.84,3.94-7,11.66-7,17.16v46c0,5.5,3.14,13.23,7,17.17l24.24,24.94" fill="none" stroke="#666" stroke-miterlimit="10" stroke-width="1.5"/>
    <path d="M454,228a27.2,27.2,0,0,0-8.43-2.53l4.15-1.87,2-4.09A27.18,27.18,0,0,0,454,228Z" fill="#666"/>
  </g>
  <g id="_Group_7" data-name="&lt;Group&gt;">
    <g opacity="0.1">
      <path d="M449.83,157.5a12,12,0,0,1-12,12H413.71a12,12,0,0,1,0-24h24.12a12,12,0,0,1,12,12h0Z"/>
      <path d="M450.55,158.25a12,12,0,0,1-12,12H413a12,12,0,0,1-12-12v-1.5a12,12,0,0,1,12-12h25.54a12,12,0,0,1,12,12v1.5Zm-48.12-.75c0,6.19,5.4,11.25,12,11.25h22.69c6.6,0,12-5.06,12-11.25s-5.4-11.25-12-11.25H414.43C407.83,146.25,402.43,151.31,402.43,157.5Z"/>
      <path d="M417.25,154.42a3.31,3.31,0,0,1,.69.06l-0.13,1.28a2.6,2.6,0,0,0-.61-0.07,1.76,1.76,0,0,0-1.34.54,2,2,0,0,0-.51,1.4V161H414v-6.48H415l0.18,1.14h0.07a2.57,2.57,0,0,1,.84-0.92A2,2,0,0,1,417.25,154.42Z"/>
      <path d="M422,161.13a3.13,3.13,0,0,1-2.36-.88,3.35,3.35,0,0,1-.85-2.43,3.67,3.67,0,0,1,.79-2.5,2.73,2.73,0,0,1,2.17-.91,2.67,2.67,0,0,1,2,.78,3,3,0,0,1,.74,2.14v0.74h-4.32a2.13,2.13,0,0,0,.51,1.45A1.78,1.78,0,0,0,422,160a5,5,0,0,0,1.07-.11,5.61,5.61,0,0,0,1.06-.36v1.12a4.23,4.23,0,0,1-1,.34A6.25,6.25,0,0,1,422,161.13Zm-0.25-5.67a1.38,1.38,0,0,0-1.05.42,2,2,0,0,0-.47,1.21h2.94a1.79,1.79,0,0,0-.39-1.22A1.32,1.32,0,0,0,421.71,155.46Z"/>
      <path d="M430.1,161l-0.28-.9h0a2.65,2.65,0,0,1-.94.81,3,3,0,0,1-1.22.21,2.06,2.06,0,0,1-1.49-.52,1.93,1.93,0,0,1-.54-1.46,1.71,1.71,0,0,1,.74-1.51,4.29,4.29,0,0,1,2.27-.56l1.12,0v-0.35a1.31,1.31,0,0,0-.29-0.93,1.18,1.18,0,0,0-.9-0.31,3.11,3.11,0,0,0-1,.15,7.21,7.21,0,0,0-.88.35l-0.45-1a4.79,4.79,0,0,1,1.15-.42,5.31,5.31,0,0,1,1.18-.14,2.8,2.8,0,0,1,1.87.54,2.11,2.11,0,0,1,.63,1.69V161h-1Zm-2.05-.94a1.71,1.71,0,0,0,1.2-.42,1.52,1.52,0,0,0,.45-1.17v-0.56l-0.83,0a2.85,2.85,0,0,0-1.42.33,1,1,0,0,0-.44.89,0.87,0.87,0,0,0,.26.67A1.11,1.11,0,0,0,428.05,160.08Z"/>
      <path d="M435.19,161.13a2.26,2.26,0,0,1-1.89-.88,4.82,4.82,0,0,1,0-4.95,2.28,2.28,0,0,1,1.91-.89,2.23,2.23,0,0,1,1.95.94h0.07a8.25,8.25,0,0,1-.1-1.1V151.9h1.38V161h-1.08l-0.24-.85h-0.06A2.2,2.2,0,0,1,435.19,161.13Zm0.37-1.11a1.5,1.5,0,0,0,1.24-.48,2.51,2.51,0,0,0,.4-1.55V157.8a2.9,2.9,0,0,0-.4-1.74,1.48,1.48,0,0,0-1.25-.52,1.27,1.27,0,0,0-1.12.59,3,3,0,0,0-.39,1.68,2.94,2.94,0,0,0,.38,1.64A1.29,1.29,0,0,0,435.56,160Z"/>
    </g>
    <use width="49.54" height="25.5" transform="translate(400 142.75)" xlink:href="#op-read"/>
  </g>
  <g id="_Group_9" data-name="&lt;Group&gt;">
    <g opacity="0.1">
      <path d="M406.29,122.5a12,12,0,0,1-12,12H370.17a12,12,0,0,1,0-24h24.12a12,12,0,0,1,12,12h0Z"/>
      <path d="M407,123.25a12,12,0,0,1-12,12H369.46a12,12,0,0,1-12-12v-1.5a12,12,0,0,1,12-12H395a12,12,0,0,1,12,12v1.5Zm-48.12-.75c0,6.19,5.4,11.25,12,11.25h22.69c6.6,0,12-5.06,12-11.25s-5.4-11.25-12-11.25H370.88C364.28,111.25,358.88,116.31,358.88,122.5Z"/>
      <path d="M374.2,126l-0.84-3q-0.15-.48-0.55-2.23h-0.05q-0.34,1.58-.54,2.24l-0.86,3h-1.52L368,119.52h1.41l0.83,3.19q0.28,1.18.4,2h0q0.06-.43.18-1t0.21-.83l1-3.41h1.51l1,3.41q0.09,0.29.22,0.88a6.76,6.76,0,0,1,.16.92h0a18,18,0,0,1,.41-2l0.84-3.19h1.38L375.74,126H374.2Z"/>
      <path d="M382,119.4a3.31,3.31,0,0,1,.69.06l-0.13,1.28a2.6,2.6,0,0,0-.61-0.07,1.76,1.76,0,0,0-1.34.54,2,2,0,0,0-.51,1.4V126h-1.38v-6.48h1.08l0.18,1.14H380a2.57,2.57,0,0,1,.84-0.92A2,2,0,0,1,382,119.4Z"/>
      <path d="M383.78,117.8a0.76,0.76,0,0,1,.2-0.57,0.79,0.79,0,0,1,.58-0.2,0.77,0.77,0,0,1,.57.2,0.76,0.76,0,0,1,.2.57,0.75,0.75,0,0,1-.2.55,0.76,0.76,0,0,1-.57.2,0.78,0.78,0,0,1-.58-0.2A0.75,0.75,0,0,1,383.78,117.8Zm1.46,8.2h-1.38v-6.48h1.38V126Z"/>
      <path d="M389.62,125a3.35,3.35,0,0,0,1-.16v1a2.78,2.78,0,0,1-.59.17,4.06,4.06,0,0,1-.75.07,1.78,1.78,0,0,1-2-2.06v-3.49h-0.88V120l0.95-.5,0.47-1.37h0.85v1.44h1.85v1h-1.85V124a1,1,0,0,0,.25.74A0.91,0.91,0,0,0,389.62,125Z"/>
      <path d="M394.75,126.12a3.13,3.13,0,0,1-2.36-.88,3.35,3.35,0,0,1-.85-2.43,3.67,3.67,0,0,1,.79-2.5,2.73,2.73,0,0,1,2.17-.91,2.67,2.67,0,0,1,2,.78,3,3,0,0,1,.74,2.14v0.74H393a2.13,2.13,0,0,0,.51,1.45,1.78,1.78,0,0,0,1.35.51,5,5,0,0,0,1.07-.11,5.61,5.61,0,0,0,1.06-.36v1.12a4.23,4.23,0,0,1-1,.34A6.25,6.25,0,0,1,394.75,126.12Zm-0.25-5.67a1.38,1.38,0,0,0-1.05.42,2,2,0,0,0-.47,1.21h2.94a1.79,1.79,0,0,0-.39-1.22A1.32,1.32,0,0,0,394.5,120.45Z"/>
    </g>
    <use width="49.54" height="25.5" transform="translate(356.46 107.75)" xlink:href="#op-write"/>
  </g>
  <g opacity="0.4">
    <g>
      <path d="M310,216l64.93-64.93c3.7-3.7,6.75-8.78,7-11.64" fill="none" stroke="#666" stroke-miterlimit="10" stroke-width="1.5"/>
      <path d="M382,134a27.2,27.2,0,0,0,4.13,7.77l-4.25-1.63-4.31,1.46A27.18,27.18,0,0,0,382,134Z" fill="#666"/>
    </g>
  </g>
  <g>
    <path d="M502,84l29.83,29c3.94,3.84,11.67,7,17.17,7h40.89c5.5,0,13.1-3.27,16.88-7.26l23.5-24.8" fill="none" stroke="#666" stroke-miterlimit="10" stroke-width="1.5"/>
    <path d="M634,84a27.2,27.2,0,0,0-2.18,8.53l-2-4.07-4.17-1.82A27.18,27.18,0,0,0,634,84Z" fill="#666"/>
  </g>
  <g>
    <path d="M652,84l-34.93,34.93C613.18,122.82,610,130.5,610,136v46c0,5.5,3.18,13.18,7.07,17.07l25.09,25.09" fill="none" stroke="#666" stroke-miterlimit="10" stroke-width="1.5"/>
    <path d="M646,228a27.2,27.2,0,0,0-8.47-2.41l4.12-1.93,1.93-4.12A27.18,27.18,0,0,0,646,228Z" fill="#666"/>
  </g>
  <g id="_Group_11" data-name="&lt;Group&gt;">
    <g opacity="0.1">
      <path d="M641.83,157.5a12,12,0,0,1-12,12H605.71a12,12,0,0,1,0-24h24.12a12,12,0,0,1,12,12h0Z"/>
      <path d="M642.55,158.25a12,12,0,0,1-12,12H605a12,12,0,0,1-12-12v-1.5a12,12,0,0,1,12-12h25.54a12,12,0,0,1,12,12v1.5Zm-48.12-.75c0,6.19,5.4,11.25,12,11.25h22.69c6.6,0,12-5.06,12-11.25s-5.4-11.25-12-11.25H606.43C599.83,146.25,594.43,151.31,594.43,157.5Z"/>
      <path d="M609.25,154.42a3.31,3.31,0,0,1,.69.06l-0.13,1.28a2.6,2.6,0,0,0-.61-0.07,1.76,1.76,0,0,0-1.34.54,2,2,0,0,0-.51,1.4V161H606v-6.48H607l0.18,1.14h0.07a2.57,2.57,0,0,1,.84-0.92A2,2,0,0,1,609.25,154.42Z"/>
      <path d="M614,161.13a3.13,3.13,0,0,1-2.36-.88,3.35,3.35,0,0,1-.85-2.43,3.67,3.67,0,0,1,.79-2.5,2.73,2.73,0,0,1,2.17-.91,2.67,2.67,0,0,1,2,.78,3,3,0,0,1,.74,2.14v0.74h-4.32a2.13,2.13,0,0,0,.51,1.45A1.78,1.78,0,0,0,614,160a5,5,0,0,0,1.07-.11,5.61,5.61,0,0,0,1.06-.36v1.12a4.23,4.23,0,0,1-1,.34A6.25,6.25,0,0,1,614,161.13Zm-0.25-5.67a1.38,1.38,0,0,0-1.05.42,2,2,0,0,0-.47,1.21h2.94a1.79,1.79,0,0,0-.39-1.22A1.32,1.32,0,0,0,613.71,155.46Z"/>
      <path d="M622.1,161l-0.28-.9h0a2.65,2.65,0,0,1-.94.81,3,3,0,0,1-1.22.21,2.06,2.06,0,0,1-1.49-.52,1.93,1.93,0,0,1-.54-1.46,1.71,1.71,0,0,1,.74-1.51,4.29,4.29,0,0,1,2.27-.56l1.12,0v-0.35a1.31,1.31,0,0,0-.29-0.93,1.18,1.18,0,0,0-.9-0.31,3.11,3.11,0,0,0-1,.15,7.21,7.21,0,0,0-.88.35l-0.45-1a4.79,4.79,0,0,1,1.15-.42,5.31,5.31,0,0,1,1.18-.14,2.8,2.8,0,0,1,1.87.54,2.11,2.11,0,0,1,.63,1.69V161h-1Zm-2.05-.94a1.71,1.71,0,0,0,1.2-.42,1.52,1.52,0,0,0,.45-1.17v-0.56l-0.83,0a2.85,2.85,0,0,0-1.42.33,1,1,0,0,0-.44.89,0.87,0.87,0,0,0,.26.67A1.11,1.11,0,0,0,620.05,160.08Z"/>
      <path d="M627.19,161.13a2.26,2.26,0,0,1-1.89-.88,4.82,4.82,0,0,1,0-4.95,2.28,2.28,0,0,1,1.91-.89,2.23,2.23,0,0,1,1.95.94h0.07a8.25,8.25,0,0,1-.1-1.1V151.9h1.38V161h-1.08l-0.24-.85h-0.06A2.2,2.2,0,0,1,627.19,161.13Zm0.37-1.11a1.5,1.5,0,0,0,1.24-.48,2.51,2.51,0,0,0,.4-1.55V157.8a2.9,2.9,0,0,0-.4-1.74,1.48,1.48,0,0,0-1.25-.52,1.27,1.27,0,0,0-1.12.59,3,3,0,0,0-.39,1.68,2.94,2.94,0,0,0,.38,1.64A1.29,1.29,0,0,0,627.56,160Z"/>
    </g>
    <use width="49.54" height="25.5" transform="translate(592 142.75)" xlink:href="#op-read"/>
  </g>
  <g id="_Group_13" data-name="&lt;Group&gt;">
    <g opacity="0.1">
      <path d="M598.29,122.5a12,12,0,0,1-12,12H562.17a12,12,0,0,1,0-24h24.12a12,12,0,0,1,12,12h0Z"/>
      <path d="M599,123.25a12,12,0,0,1-12,12H561.46a12,12,0,0,1-12-12v-1.5a12,12,0,0,1,12-12H587a12,12,0,0,1,12,12v1.5Zm-48.12-.75c0,6.19,5.4,11.25,12,11.25h22.69c6.6,0,12-5.06,12-11.25s-5.4-11.25-12-11.25H562.88C556.28,111.25,550.88,116.31,550.88,122.5Z"/>
      <path d="M566.2,126l-0.84-3q-0.15-.48-0.55-2.23h-0.05q-0.34,1.58-.54,2.24l-0.86,3h-1.52L560,119.52h1.41l0.83,3.19q0.28,1.18.4,2h0q0.06-.43.18-1t0.21-.83l1-3.41h1.51l1,3.41q0.09,0.29.22,0.88a6.76,6.76,0,0,1,.16.92h0a18,18,0,0,1,.41-2l0.84-3.19h1.38L567.74,126H566.2Z"/>
      <path d="M574,119.4a3.31,3.31,0,0,1,.69.06l-0.13,1.28a2.6,2.6,0,0,0-.61-0.07,1.76,1.76,0,0,0-1.34.54,2,2,0,0,0-.51,1.4V126h-1.38v-6.48h1.08l0.18,1.14H572a2.57,2.57,0,0,1,.84-0.92A2,2,0,0,1,574,119.4Z"/>
      <path d="M575.78,117.8a0.76,0.76,0,0,1,.2-0.57,0.79,0.79,0,0,1,.58-0.2,0.77,0.77,0,0,1,.57.2,0.76,0.76,0,0,1,.2.57,0.75,0.75,0,0,1-.2.55,0.76,0.76,0,0,1-.57.2,0.78,0.78,0,0,1-.58-0.2A0.75,0.75,0,0,1,575.78,117.8Zm1.46,8.2h-1.38v-6.48h1.38V126Z"/>
      <path d="M581.62,125a3.35,3.35,0,0,0,1-.16v1a2.78,2.78,0,0,1-.59.17,4.06,4.06,0,0,1-.75.07,1.78,1.78,0,0,1-2-2.06v-3.49h-0.88V120l0.95-.5,0.47-1.37h0.85v1.44h1.85v1h-1.85V124a1,1,0,0,0,.25.74A0.91,0.91,0,0,0,581.62,125Z"/>
      <path d="M586.75,126.12a3.13,3.13,0,0,1-2.36-.88,3.35,3.35,0,0,1-.85-2.43,3.67,3.67,0,0,1,.79-2.5,2.73,2.73,0,0,1,2.17-.91,2.67,2.67,0,0,1,2,.78,3,3,0,0,1,.74,2.14v0.74H585a2.13,2.13,0,0,0,.51,1.45,1.78,1.78,0,0,0,1.35.51,5,5,0,0,0,1.07-.11,5.61,5.61,0,0,0,1.06-.36v1.12a4.23,4.23,0,0,1-1,.34A6.25,6.25,0,0,1,586.75,126.12Zm-0.25-5.67a1.38,1.38,0,0,0-1.05.42,2,2,0,0,0-.47,1.21h2.94a1.79,1.79,0,0,0-.39-1.22A1.32,1.32,0,0,0,586.5,120.45Z"/>
    </g>
    <use width="49.54" height="25.5" transform="translate(548.46 107.75)" xlink:href="#op-write"/>
  </g>
  <g opacity="0.4">
    <g>
      <path d="M502,216l64.93-64.93c3.7-3.7,6.75-8.78,7-11.64" fill="none" stroke="#666" stroke-miterlimit="10" stroke-width="1.5"/>
      <path d="M574,134a27.2,27.2,0,0,0,4.13,7.77l-4.25-1.63-4.31,1.46A27.18,27.18,0,0,0,574,134Z" fill="#666"/>
    </g>
  </g>
  <g opacity="0.4">
    <g>
      <path d="M118,234l70.93-70.93c3.7-3.7,8.78-6.75,11.64-7" fill="none" stroke="#666" stroke-miterlimit="10" stroke-width="1.5"/>
      <path d="M206,156a27.2,27.2,0,0,0-7.61,4.43l1.46-4.31-1.63-4.25A27.17,27.17,0,0,0,206,156Z" fill="#666"/>
    </g>
  </g>
  <g opacity="0.4">
    <g>
      <path d="M310,234l70.93-70.93c3.7-3.7,8.78-6.75,11.64-7" fill="none" stroke="#666" stroke-miterlimit="10" stroke-width="1.5"/>
      <path d="M398,156a27.2,27.2,0,0,0-7.61,4.43l1.46-4.31-1.63-4.25A27.17,27.17,0,0,0,398,156Z" fill="#666"/>
    </g>
  </g>
  <g opacity="0.4">
    <g>
      <path d="M502,234l70.93-70.93c3.7-3.7,8.78-6.75,11.64-7" fill="none" stroke="#666" stroke-miterlimit="10" stroke-width="1.5"/>
      <path d="M590,156a27.2,27.2,0,0,0-7.61,4.43l1.46-4.31-1.63-4.25A27.17,27.17,0,0,0,590,156Z" fill="#666"/>
    </g>
  </g>
  <g id="_Group_15" data-name="&lt;Group&gt;">
    <g opacity="0.1">
      <rect x="845.64" y="218" width="48" height="48" rx="6" ry="6" opacity="0.8"/>
      <rect x="845.64" y="218" width="48" height="48" rx="6" ry="6" fill="none" stroke="#000" stroke-width="1.5"/>
      <path d="M874.66,249l-1.93-4.94h-6.23L864.58,249h-1.83l6.14-15.61h1.52L876.53,249h-1.87Zm-2.5-6.57-1.81-4.82q-0.35-.91-0.72-2.24a20.34,20.34,0,0,1-.67,2.24l-1.83,4.82h5Z"/>
    </g>
    <use width="49.5" height="49.5" transform="translate(843.89 215.25)" xlink:href="#rnn-a"/>
  </g>
  <g>
    <path d="M694,84l29.83,29c3.94,3.84,11.67,7,17.17,7h40.89c5.5,0,13.1-3.27,16.88-7.26l23.5-24.8" fill="none" stroke="#666" stroke-miterlimit="10" stroke-width="1.5"/>
    <path d="M826,84a27.2,27.2,0,0,0-2.18,8.53l-2-4.07-4.17-1.82A27.18,27.18,0,0,0,826,84Z" fill="#666"/>
  </g>
  <g>
    <path d="M844,84l-34.93,34.93C805.18,122.82,802,130.5,802,136v46c0,5.5,3.18,13.18,7.07,17.07l25.09,25.09" fill="none" stroke="#666" stroke-miterlimit="10" stroke-width="1.5"/>
    <path d="M838,228a27.2,27.2,0,0,0-8.47-2.41l4.12-1.93,1.93-4.12A27.18,27.18,0,0,0,838,228Z" fill="#666"/>
  </g>
  <g id="_Group_16" data-name="&lt;Group&gt;">
    <g opacity="0.1">
      <path d="M833.83,157.5a12,12,0,0,1-12,12H797.71a12,12,0,0,1,0-24h24.12a12,12,0,0,1,12,12h0Z"/>
      <path d="M834.54,158.25a12,12,0,0,1-12,12H797a12,12,0,0,1-12-12v-1.5a12,12,0,0,1,12-12h25.54a12,12,0,0,1,12,12v1.5Zm-48.12-.75c0,6.19,5.4,11.25,12,11.25h22.69c6.6,0,12-5.06,12-11.25s-5.4-11.25-12-11.25H798.43C791.83,146.25,786.43,151.31,786.43,157.5Z"/>
      <path d="M801.25,154.42a3.31,3.31,0,0,1,.69.06l-0.13,1.28a2.6,2.6,0,0,0-.61-0.07,1.76,1.76,0,0,0-1.34.54,2,2,0,0,0-.51,1.4V161H798v-6.48H799l0.18,1.14h0.07a2.57,2.57,0,0,1,.84-0.92A2,2,0,0,1,801.25,154.42Z"/>
      <path d="M806,161.13a3.13,3.13,0,0,1-2.36-.88,3.35,3.35,0,0,1-.85-2.43,3.67,3.67,0,0,1,.79-2.5,2.73,2.73,0,0,1,2.17-.91,2.67,2.67,0,0,1,2,.78,3,3,0,0,1,.74,2.14v0.74h-4.32a2.13,2.13,0,0,0,.51,1.45A1.78,1.78,0,0,0,806,160a5,5,0,0,0,1.07-.11,5.61,5.61,0,0,0,1.06-.36v1.12a4.23,4.23,0,0,1-1,.34A6.25,6.25,0,0,1,806,161.13Zm-0.25-5.67a1.38,1.38,0,0,0-1.05.42,2,2,0,0,0-.47,1.21h2.94a1.79,1.79,0,0,0-.39-1.22A1.32,1.32,0,0,0,805.71,155.46Z"/>
      <path d="M814.1,161l-0.28-.9h0a2.65,2.65,0,0,1-.94.81,3,3,0,0,1-1.22.21,2.06,2.06,0,0,1-1.49-.52,1.93,1.93,0,0,1-.54-1.46,1.71,1.71,0,0,1,.74-1.51,4.29,4.29,0,0,1,2.27-.56l1.12,0v-0.35a1.31,1.31,0,0,0-.29-0.93,1.18,1.18,0,0,0-.9-0.31,3.11,3.11,0,0,0-1,.15,7.21,7.21,0,0,0-.88.35l-0.45-1a4.79,4.79,0,0,1,1.15-.42,5.31,5.31,0,0,1,1.18-.14,2.8,2.8,0,0,1,1.87.54,2.11,2.11,0,0,1,.63,1.69V161h-1Zm-2.05-.94a1.71,1.71,0,0,0,1.2-.42,1.52,1.52,0,0,0,.45-1.17v-0.56l-0.83,0a2.85,2.85,0,0,0-1.42.33,1,1,0,0,0-.44.89,0.87,0.87,0,0,0,.26.67A1.11,1.11,0,0,0,812.05,160.08Z"/>
      <path d="M819.19,161.13a2.26,2.26,0,0,1-1.89-.88,4.82,4.82,0,0,1,0-4.95,2.28,2.28,0,0,1,1.91-.89,2.23,2.23,0,0,1,1.95.94h0.07a8.25,8.25,0,0,1-.1-1.1V151.9h1.38V161h-1.08l-0.24-.85h-0.06A2.2,2.2,0,0,1,819.19,161.13Zm0.37-1.11a1.5,1.5,0,0,0,1.24-.48,2.51,2.51,0,0,0,.4-1.55V157.8a2.9,2.9,0,0,0-.4-1.74,1.48,1.48,0,0,0-1.25-.52,1.27,1.27,0,0,0-1.12.59,3,3,0,0,0-.39,1.68,2.94,2.94,0,0,0,.38,1.64A1.29,1.29,0,0,0,819.56,160Z"/>
    </g>
    <use width="49.54" height="25.5" transform="translate(784 142.75)" xlink:href="#op-read"/>
  </g>
  <g id="_Group_18" data-name="&lt;Group&gt;">
    <g opacity="0.1">
      <path d="M790.29,122.5a12,12,0,0,1-12,12H754.17a12,12,0,0,1,0-24h24.12a12,12,0,0,1,12,12h0Z"/>
      <path d="M791,123.25a12,12,0,0,1-12,12H753.46a12,12,0,0,1-12-12v-1.5a12,12,0,0,1,12-12H779a12,12,0,0,1,12,12v1.5Zm-48.12-.75c0,6.19,5.4,11.25,12,11.25h22.69c6.6,0,12-5.06,12-11.25s-5.4-11.25-12-11.25H754.88C748.28,111.25,742.88,116.31,742.88,122.5Z"/>
      <path d="M758.19,126l-0.84-3q-0.15-.48-0.55-2.23h-0.05q-0.34,1.58-.54,2.24l-0.86,3h-1.52L752,119.52h1.41l0.83,3.19q0.28,1.18.4,2h0q0.06-.43.18-1t0.21-.83l1-3.41h1.51l1,3.41q0.09,0.29.22,0.88a6.76,6.76,0,0,1,.16.92h0a18,18,0,0,1,.41-2l0.84-3.19h1.38L759.74,126h-1.55Z"/>
      <path d="M766,119.4a3.31,3.31,0,0,1,.69.06l-0.13,1.28a2.6,2.6,0,0,0-.61-0.07,1.76,1.76,0,0,0-1.34.54,2,2,0,0,0-.51,1.4V126h-1.38v-6.48h1.08l0.18,1.14H764a2.57,2.57,0,0,1,.84-0.92A2,2,0,0,1,766,119.4Z"/>
      <path d="M767.77,117.8a0.76,0.76,0,0,1,.2-0.57,0.79,0.79,0,0,1,.58-0.2,0.77,0.77,0,0,1,.57.2,0.76,0.76,0,0,1,.2.57,0.75,0.75,0,0,1-.2.55,0.76,0.76,0,0,1-.57.2,0.78,0.78,0,0,1-.58-0.2A0.75,0.75,0,0,1,767.77,117.8Zm1.46,8.2h-1.38v-6.48h1.38V126Z"/>
      <path d="M773.62,125a3.35,3.35,0,0,0,1-.16v1a2.78,2.78,0,0,1-.59.17,4.06,4.06,0,0,1-.75.07,1.78,1.78,0,0,1-2-2.06v-3.49h-0.88V120l0.95-.5,0.47-1.37h0.85v1.44h1.85v1h-1.85V124a1,1,0,0,0,.25.74A0.91,0.91,0,0,0,773.62,125Z"/>
      <path d="M778.75,126.12a3.13,3.13,0,0,1-2.36-.88,3.35,3.35,0,0,1-.85-2.43,3.67,3.67,0,0,1,.79-2.5,2.73,2.73,0,0,1,2.17-.91,2.67,2.67,0,0,1,2,.78,3,3,0,0,1,.74,2.14v0.74h-4.32a2.13,2.13,0,0,0,.51,1.45,1.78,1.78,0,0,0,1.35.51,5,5,0,0,0,1.07-.11,5.61,5.61,0,0,0,1.06-.36v1.12a4.23,4.23,0,0,1-1,.34A6.25,6.25,0,0,1,778.75,126.12Zm-0.25-5.67a1.38,1.38,0,0,0-1.05.42,2,2,0,0,0-.47,1.21h2.94a1.79,1.79,0,0,0-.39-1.22A1.32,1.32,0,0,0,778.5,120.45Z"/>
    </g>
    <use width="49.54" height="25.5" transform="translate(740.46 107.75)" xlink:href="#op-write"/>
  </g>
  <g opacity="0.4">
    <g>
      <path d="M694,216l64.93-64.93c3.7-3.7,6.75-8.78,7-11.64" fill="none" stroke="#666" stroke-miterlimit="10" stroke-width="1.5"/>
      <path d="M766,134a27.2,27.2,0,0,0,4.13,7.77l-4.25-1.63-4.31,1.46A27.18,27.18,0,0,0,766,134Z" fill="#666"/>
    </g>
  </g>
  <g opacity="0.4">
    <g>
      <path d="M694,234l70.93-70.93c3.7-3.7,8.78-6.75,11.64-7" fill="none" stroke="#666" stroke-miterlimit="10" stroke-width="1.5"/>
      <path d="M782,156a27.2,27.2,0,0,0-7.61,4.43l1.46-4.31-1.63-4.25A27.17,27.17,0,0,0,782,156Z" fill="#666"/>
    </g>
  </g>
  <g>
    <g opacity="0.1">
      <rect x="268.14" y="218" width="48" height="48" rx="6" ry="6" opacity="0.8"/>
      <rect x="268.14" y="218" width="48" height="48" rx="6" ry="6" fill="none" stroke="#000" stroke-width="1.5"/>
      <path d="M297.16,249l-1.93-4.94H289L287.08,249h-1.83l6.14-15.61h1.52L299,249h-1.87Zm-2.5-6.57-1.81-4.82q-0.35-.91-0.72-2.24a20.34,20.34,0,0,1-.67,2.24l-1.83,4.82h5Z"/>
    </g>
    <use width="49.5" height="49.5" transform="translate(266.39 215.25)" xlink:href="#rnn-a"/>
  </g>
  <g>
    <g opacity="0.1">
      <rect x="461.64" y="218" width="48" height="48" rx="6" ry="6" opacity="0.8"/>
      <rect x="461.64" y="218" width="48" height="48" rx="6" ry="6" fill="none" stroke="#000" stroke-width="1.5"/>
      <path d="M490.66,249l-1.93-4.94h-6.23L480.58,249h-1.83l6.14-15.61h1.52L492.53,249h-1.87Zm-2.5-6.57-1.81-4.82q-0.35-.91-0.72-2.24a20.34,20.34,0,0,1-.67,2.24l-1.83,4.82h5Z"/>
    </g>
    <use width="49.5" height="49.5" transform="translate(459.89 215.25)" xlink:href="#rnn-a"/>
  </g>
  <g>
    <g opacity="0.1">
      <rect x="77.64" y="218" width="48" height="48" rx="6" ry="6" opacity="0.8"/>
      <rect x="77.64" y="218" width="48" height="48" rx="6" ry="6" fill="none" stroke="#000" stroke-width="1.5"/>
      <path d="M106.66,249l-1.93-4.94H98.49L96.58,249H94.75l6.14-15.61h1.52L108.53,249h-1.87Zm-2.5-6.57-1.81-4.82q-0.35-.91-0.72-2.24a20.34,20.34,0,0,1-.67,2.24l-1.83,4.82h5Z"/>
    </g>
    <use width="49.5" height="49.5" transform="translate(75.89 215.25)" xlink:href="#rnn-a"/>
  </g>
  <text transform="translate(31 36)" font-size="12" fill="#666" font-family="Open Sans">Memory is an array of vectors</text>
  <text transform="translate(30 118.28)" font-size="12" fill="#666" font-family="Open Sans">Network A <tspan x="0" y="18">writes and reads </tspan><tspan x="0" y="36">from this memory </tspan><tspan x="0" y="54">each step</tspan></text>
  <g>
    <line x1="124.89" y1="240" x2="258.21" y2="240" fill="none" stroke="#666" stroke-miterlimit="10" stroke-width="1.5"/>
    <path d="M263.64,240a27.2,27.2,0,0,0-7.69,4.28L257.5,240l-1.55-4.28A27.18,27.18,0,0,0,263.64,240Z" fill="#666"/>
  </g>
  <g>
    <line x1="316.89" y1="240" x2="450.21" y2="240" fill="none" stroke="#666" stroke-miterlimit="10" stroke-width="1.5"/>
    <path d="M455.64,240a27.2,27.2,0,0,0-7.69,4.28L449.5,240l-1.55-4.28A27.18,27.18,0,0,0,455.64,240Z" fill="#666"/>
  </g>
  <g>
    <line x1="508.89" y1="240" x2="642.21" y2="240" fill="none" stroke="#666" stroke-miterlimit="10" stroke-width="1.5"/>
    <path d="M647.64,240a27.2,27.2,0,0,0-7.69,4.28L641.5,240l-1.55-4.28A27.18,27.18,0,0,0,647.64,240Z" fill="#666"/>
  </g>
  <text transform="translate(83.82 306)" font-size="12" fill="#666" font-family="Open Sans">x0</text>
  <text transform="translate(107.94 306)" font-size="12" fill="#666" font-family="Open Sans">y0</text>
  <g>
    <line x1="89.39" y1="291.08" x2="89.39" y2="274.01" fill="none" stroke="#666" stroke-miterlimit="10" stroke-width="1.5"/>
    <path d="M89.39,268.58a27.2,27.2,0,0,0,4.28,7.69l-4.28-1.55-4.28,1.55A27.17,27.17,0,0,0,89.39,268.58Z" fill="#666"/>
  </g>
  <g>
    <line x1="113.39" y1="264.58" x2="113.39" y2="285.65" fill="none" stroke="#666" stroke-miterlimit="10" stroke-width="1.5"/>
    <path d="M113.39,291.08a27.2,27.2,0,0,0-4.28-7.69l4.28,1.55,4.28-1.55A27.18,27.18,0,0,0,113.39,291.08Z" fill="#666"/>
  </g>
  <g>
    <line x1="278.39" y1="292.41" x2="278.39" y2="274.01" fill="none" stroke="#666" stroke-miterlimit="10" stroke-width="1.5"/>
    <path d="M278.39,268.58a27.2,27.2,0,0,0,4.28,7.69l-4.28-1.55-4.28,1.55A27.17,27.17,0,0,0,278.39,268.58Z" fill="#666"/>
  </g>
  <g>
    <line x1="303.39" y1="264.58" x2="303.39" y2="286.98" fill="none" stroke="#666" stroke-miterlimit="10" stroke-width="1.5"/>
    <path d="M303.39,292.41a27.2,27.2,0,0,0-4.28-7.69l4.28,1.55,4.28-1.55A27.18,27.18,0,0,0,303.39,292.41Z" fill="#666"/>
  </g>
  <g>
    <line x1="471.22" y1="292.41" x2="471.22" y2="274.01" fill="none" stroke="#666" stroke-miterlimit="10" stroke-width="1.5"/>
    <path d="M471.22,268.58a27.2,27.2,0,0,0,4.28,7.69l-4.28-1.55-4.28,1.55A27.17,27.17,0,0,0,471.22,268.58Z" fill="#666"/>
  </g>
  <g>
    <line x1="496.22" y1="264.58" x2="496.22" y2="286.98" fill="none" stroke="#666" stroke-miterlimit="10" stroke-width="1.5"/>
    <path d="M496.22,292.41a27.2,27.2,0,0,0-4.28-7.69l4.28,1.55,4.28-1.55A27.18,27.18,0,0,0,496.22,292.41Z" fill="#666"/>
  </g>
  <text transform="translate(271.48 306)" font-size="12" fill="#666" font-family="Open Sans">x1</text>
  <text transform="translate(295.6 306)" font-size="12" fill="#666" font-family="Open Sans">y1</text>
  <text transform="translate(464.32 306)" font-size="12" fill="#666" font-family="Open Sans">x2</text>
  <text transform="translate(488.44 306)" font-size="12" fill="#666" font-family="Open Sans">y2</text>
  <g>
    <line x1="663.22" y1="292.41" x2="663.22" y2="274.01" fill="none" stroke="#666" stroke-miterlimit="10" stroke-width="1.5"/>
    <path d="M663.22,268.58a27.2,27.2,0,0,0,4.28,7.69l-4.28-1.55-4.28,1.55A27.17,27.17,0,0,0,663.22,268.58Z" fill="#666"/>
  </g>
  <g>
    <line x1="688.22" y1="264.58" x2="688.22" y2="286.98" fill="none" stroke="#666" stroke-miterlimit="10" stroke-width="1.5"/>
    <path d="M688.22,292.41a27.2,27.2,0,0,0-4.28-7.69l4.28,1.55,4.28-1.55A27.18,27.18,0,0,0,688.22,292.41Z" fill="#666"/>
  </g>
  <text transform="translate(656.32 306)" font-size="12" fill="#666" font-family="Open Sans">x2</text>
  <text transform="translate(680.44 306)" font-size="12" fill="#666" font-family="Open Sans">y2</text>
  <g>
    <line x1="700.89" y1="240" x2="834.21" y2="240" fill="none" stroke="#666" stroke-miterlimit="10" stroke-width="1.5"/>
    <path d="M839.64,240a27.2,27.2,0,0,0-7.69,4.28L833.5,240l-1.55-4.28A27.18,27.18,0,0,0,839.64,240Z" fill="#666"/>
  </g>
  <g>
    <line x1="855.22" y1="292.41" x2="855.22" y2="274.01" fill="none" stroke="#666" stroke-miterlimit="10" stroke-width="1.5"/>
    <path d="M855.22,268.58a27.2,27.2,0,0,0,4.28,7.69l-4.28-1.55-4.28,1.55A27.17,27.17,0,0,0,855.22,268.58Z" fill="#666"/>
  </g>
  <g>
    <line x1="880.22" y1="264.58" x2="880.22" y2="286.98" fill="none" stroke="#666" stroke-miterlimit="10" stroke-width="1.5"/>
    <path d="M880.22,292.41a27.2,27.2,0,0,0-4.28-7.69l4.28,1.55,4.28-1.55A27.18,27.18,0,0,0,880.22,292.41Z" fill="#666"/>
  </g>
  <text transform="translate(848.32 306)" font-size="12" fill="#666" font-family="Open Sans">x2</text>
  <text transform="translate(872.44 306)" font-size="12" fill="#666" font-family="Open Sans">y2</text>
  <use width="36" height="36" transform="translate(32 47.96) scale(0.83)" xlink:href="#array-vector"/>
  <use id="array-vector-5" data-name="array-vector" width="36" height="36" transform="translate(62.04 48.22) scale(0.83)" xlink:href="#array-vector"/>
  <use width="36" height="36" transform="translate(92.08 48.22) scale(0.83)" xlink:href="#array-vector"/>
  <use width="36" height="36" transform="translate(122.13 48.22) scale(0.83)" xlink:href="#array-vector"/>
  <use width="36" height="36" transform="matrix(0.59, 0.59, -0.59, 0.59, 239.02, 42)" xlink:href="#array-vector"/>
  <use width="36" height="36" transform="translate(254.04 48.22) scale(0.83)" xlink:href="#array-vector"/>
  <use width="36" height="36" transform="translate(284.08 48.22) scale(0.83)" xlink:href="#array-vector"/>
  <use width="36" height="36" transform="translate(314.13 48.22) scale(0.83)" xlink:href="#array-vector"/>
  <use width="36" height="36" transform="matrix(0.59, 0.59, -0.59, 0.59, 431.02, 42)" xlink:href="#array-vector"/>
  <use width="36" height="36" transform="matrix(0.59, 0.59, -0.59, 0.59, 461.06, 42)" xlink:href="#array-vector"/>
  <use width="36" height="36" transform="translate(476.08 48.22) scale(0.83)" xlink:href="#array-vector"/>
  <use width="36" height="36" transform="translate(506.13 48.22) scale(0.83)" xlink:href="#array-vector"/>
  <use width="36" height="36" transform="matrix(0.59, 0.59, -0.59, 0.59, 623.02, 42)" xlink:href="#array-vector"/>
  <use width="36" height="36" transform="matrix(0.59, 0.59, -0.59, 0.59, 653.06, 42)" xlink:href="#array-vector"/>
  <use width="36" height="36" transform="matrix(0.59, 0.59, -0.59, 0.59, 683.1, 42)" xlink:href="#array-vector"/>
  <use width="36" height="36" transform="translate(698.13 48.22) scale(0.83)" xlink:href="#array-vector"/>
  <use width="36" height="36" transform="translate(152 48.22) scale(0.83)" xlink:href="#array-vector"/>
  <use width="36" height="36" transform="translate(344 48.22) scale(0.83)" xlink:href="#array-vector"/>
  <use width="36" height="36" transform="translate(536 48.22) scale(0.83)" xlink:href="#array-vector"/>
  <use width="36" height="36" transform="translate(728 48.22) scale(0.83)" xlink:href="#array-vector"/>
  <use width="36" height="36" transform="matrix(0.59, 0.59, -0.59, 0.59, 815.02, 42)" xlink:href="#array-vector"/>
  <use width="36" height="36" transform="matrix(0.59, 0.59, -0.59, 0.59, 845.06, 42)" xlink:href="#array-vector"/>
  <use width="36" height="36" transform="matrix(0.59, 0.59, -0.59, 0.59, 875.1, 42)" xlink:href="#array-vector"/>
  <use width="36" height="36" transform="translate(890.12 48.22) scale(0.83)" xlink:href="#array-vector"/>
  <use width="36" height="36" transform="translate(920 48.22) scale(0.83)" xlink:href="#array-vector"/>
</svg>
