<svg id="background" xmlns="http://www.w3.org/2000/svg" xmlns:xlink="http://www.w3.org/1999/xlink" width="984" height="192" viewBox="0 0 984 192">
  <defs>
    <symbol id="op-bg" data-name="op-bg" viewBox="0 0 24 24">
      <circle cx="12" cy="12" r="11.25" fill="#fff" stroke="#798294" stroke-miterlimit="10" stroke-width="1.5"/>
    </symbol>
    <symbol id="op-sum_2" data-name="op-sum 2" viewBox="0 0 24 24">
      <use width="24" height="24" xlink:href="#op-bg"/>
      <path d="M9.88,9.08a1.77,1.77,0,0,1,.69-1.47,3,3,0,0,1,1.89-.54,4.84,4.84,0,0,1,1.87.38v1.1a5.22,5.22,0,0,0-1.88-.4,1.57,1.57,0,0,0-.93.25,0.78,0.78,0,0,0-.35.67q0,0.74,1.51,1.26a4.6,4.6,0,0,1,2.22,1.44A3.75,3.75,0,0,1,15.64,14v0.27a4.23,4.23,0,0,1-.4,1.87,3,3,0,0,1-1.15,1.28,3.29,3.29,0,0,1-1.74.45,3.08,3.08,0,0,1-2.42-1A3.86,3.86,0,0,1,9,14.22V14.13a3.42,3.42,0,0,1,.64-2A2.76,2.76,0,0,1,11.29,11v0a2.36,2.36,0,0,1-1-.75A1.76,1.76,0,0,1,9.88,9.08Zm0.42,5.2a3,3,0,0,0,.55,1.89,1.8,1.8,0,0,0,1.49.69,1.79,1.79,0,0,0,1.48-.69,3.23,3.23,0,0,0,.55-2,2.67,2.67,0,0,0-.58-1.67,2.35,2.35,0,0,0-1.43-.92,1.81,1.81,0,0,0-1.49.7A3.19,3.19,0,0,0,10.3,14.28Z" fill="#666"/>
    </symbol>
    <symbol id="rnn-bg" data-name="rnn-bg" viewBox="0 0 49.5 49.5">
      <rect x="0.75" y="0.75" width="48" height="48" rx="6" ry="6" fill="#fff" stroke="#666" stroke-width="1.5"/>
    </symbol>
    <symbol id="rnn-s" data-name="rnn-s" viewBox="0 0 49.5 49.5">
      <use id="rnn-bg-3" data-name="rnn-bg" width="49.5" height="49.5" xlink:href="#rnn-bg"/>
      <text transform="translate(17.49 31.75)" font-size="21.77" fill="#5b5b5b" font-family="Helvetica">S</text>
    </symbol>
    <symbol id="op-sum" data-name="op-sum" viewBox="0 0 24 24">
      <use id="op-bg-9" data-name="op-bg" width="24" height="24" xlink:href="#op-bg"/>
      <path d="M7.88,12.5V11.18h3.41V7.75h1.34v3.43H16V12.5H12.62v3.42H11.29V12.5H7.88Z" fill="#666"/>
    </symbol>
  </defs>
  <title>rnn</title>
  <g id="_Group_" data-name="&lt;Group&gt;">
    <rect x="168.67" y="24" width="275.67" height="156" rx="10" ry="10" opacity="0.04"/>
  </g>
  <g id="_Group_2" data-name="&lt;Group&gt;">
    <rect x="456" y="24" width="348" height="156" rx="10" ry="10" opacity="0.04"/>
  </g>
  <rect x="816" y="24" width="132" height="156" rx="10" ry="10" opacity="0.04"/>
  <path d="M396,48H317.5a6,6,0,0,0-6,6V90.5a5.9,5.9,0,0,1-5.75,6H300" fill="none" stroke="#8c8c8c" stroke-miterlimit="10" stroke-width="1.5"/>
  <g opacity="0.4">
    <path d="M408,51H389.5a6,6,0,0,0-6,6V90.5a5.9,5.9,0,0,1-5.75,6H372" fill="none" stroke="#8c8c8c" stroke-miterlimit="10" stroke-width="1.5"/>
  </g>
  <g opacity="0.2">
    <path d="M516,96.5h5.75a5.9,5.9,0,0,0,5.75-6v-40a6,6,0,0,1,6-6H767" fill="none" stroke="#8c8c8c" stroke-miterlimit="10" stroke-width="1.5"/>
  </g>
  <g opacity="0.5">
    <path d="M588,96.5h5.75a5.9,5.9,0,0,0,5.75-6v-37a6,6,0,0,1,6-6H767" fill="none" stroke="#8c8c8c" stroke-miterlimit="10" stroke-width="1.5"/>
  </g>
  <path d="M767,50.5H677.5a6,6,0,0,0-6,6v34a5.9,5.9,0,0,1-5.75,6H660" fill="none" stroke="#8c8c8c" stroke-miterlimit="10" stroke-width="1.5"/>
  <g opacity="0.2">
    <path d="M767,53.5H749.5a6,6,0,0,0-6,6v31a5.9,5.9,0,0,1-5.75,6H732" fill="none" stroke="#8c8c8c" stroke-miterlimit="10" stroke-width="1.5"/>
  </g>
  <g opacity="0.4">
    <path d="M228,96.5l6-.25A6.33,6.33,0,0,0,240,90V51.5a6,6,0,0,1,6-6L396,45" fill="none" stroke="#8c8c8c" stroke-miterlimit="10" stroke-width="1.5"/>
  </g>
  <path d="M900,48.5h-6.5a6,6,0,0,0-6,6v36a5.9,5.9,0,0,1-5.75,6H876" fill="none" stroke="#8c8c8c" stroke-miterlimit="10" stroke-width="1.5"/>
  <g>
    <g>
      <line x1="204" y1="192" x2="204" y2="123.74" fill="none" stroke="#8c8c8c" stroke-miterlimit="10" stroke-width="1.5"/>
      <path d="M204,124.16a7.75,7.75,0,0,1-4.77,1.66A14.31,14.31,0,0,0,204,120a15.09,15.09,0,0,0,4.77,5.82A8,8,0,0,1,204,124.16Z" fill="#8c8c8c"/>
    </g>
    <g>
      <path d="M204,192V174a6,6,0,0,1,6-6h59.5a6,6,0,0,0,6-6V123.74" fill="none" stroke="#8c8c8c" stroke-miterlimit="10" stroke-width="1.5"/>
      <path d="M275.5,124.16a7.75,7.75,0,0,1-4.77,1.66A14.31,14.31,0,0,0,275.5,120a15.09,15.09,0,0,0,4.77,5.82A8,8,0,0,1,275.5,124.16Z" fill="#8c8c8c"/>
    </g>
    <g>
      <line x1="492" y1="192" x2="492" y2="123.74" fill="none" stroke="#8c8c8c" stroke-miterlimit="10" stroke-width="1.5"/>
      <path d="M492,124.16a7.75,7.75,0,0,1-4.77,1.66A14.31,14.31,0,0,0,492,120a15.09,15.09,0,0,0,4.77,5.82A8,8,0,0,1,492,124.16Z" fill="#8c8c8c"/>
    </g>
    <g>
      <line x1="852" y1="192" x2="852" y2="123.74" fill="none" stroke="#8c8c8c" stroke-miterlimit="10" stroke-width="1.5"/>
      <path d="M852,124.16a7.75,7.75,0,0,1-4.77,1.66A14.31,14.31,0,0,0,852,120a15.09,15.09,0,0,0,4.77,5.82A8,8,0,0,1,852,124.16Z" fill="#8c8c8c"/>
    </g>
    <g>
      <path d="M516,168H630.5a6,6,0,0,0,6-6V123.74" fill="none" stroke="#8c8c8c" stroke-miterlimit="10" stroke-width="1.5"/>
      <path d="M636.5,124.16a7.75,7.75,0,0,1-4.77,1.66A14.31,14.31,0,0,0,636.5,120a15.09,15.09,0,0,0,4.77,5.82A8,8,0,0,1,636.5,124.16Z" fill="#8c8c8c"/>
    </g>
    <g>
      <path d="M227.5,168H342a6,6,0,0,0,6-6V123.74" fill="none" stroke="#8c8c8c" stroke-miterlimit="10" stroke-width="1.5"/>
      <path d="M348,124.16a7.75,7.75,0,0,1-4.77,1.66A14.31,14.31,0,0,0,348,120a15.09,15.09,0,0,0,4.77,5.82A8,8,0,0,1,348,124.16Z" fill="#8c8c8c"/>
    </g>
    <g>
      <path d="M492,192V174a6,6,0,0,1,6-6H702.5a6,6,0,0,0,6-6V123.74" fill="none" stroke="#8c8c8c" stroke-miterlimit="10" stroke-width="1.5"/>
      <path d="M708.5,124.16a7.75,7.75,0,0,1-4.77,1.66A14.31,14.31,0,0,0,708.5,120a15.09,15.09,0,0,0,4.77,5.82A8,8,0,0,1,708.5,124.16Z" fill="#8c8c8c"/>
    </g>
    <g>
      <line x1="228" y1="96.5" x2="248.26" y2="96.5" fill="none" stroke="#8c8c8c" stroke-miterlimit="10" stroke-width="1.5"/>
      <path d="M247.84,96.5a7.75,7.75,0,0,1-1.66-4.77A14.31,14.31,0,0,0,252,96.5a15.09,15.09,0,0,0-5.82,4.77A8,8,0,0,1,247.84,96.5Z" fill="#8c8c8c"/>
    </g>
    <g>
      <line x1="300" y1="96.5" x2="320.26" y2="96.5" fill="none" stroke="#8c8c8c" stroke-miterlimit="10" stroke-width="1.5"/>
      <path d="M319.84,96.5a7.75,7.75,0,0,1-1.66-4.77A14.31,14.31,0,0,0,324,96.5a15.09,15.09,0,0,0-5.82,4.77A8,8,0,0,1,319.84,96.5Z" fill="#8c8c8c"/>
    </g>
    <g>
      <line x1="516" y1="96.5" x2="536.26" y2="96.5" fill="none" stroke="#8c8c8c" stroke-miterlimit="10" stroke-width="1.5"/>
      <path d="M535.84,96.5a7.75,7.75,0,0,1-1.66-4.77A14.31,14.31,0,0,0,540,96.5a15.09,15.09,0,0,0-5.82,4.77A8,8,0,0,1,535.84,96.5Z" fill="#8c8c8c"/>
    </g>
    <g>
      <line x1="588" y1="96.5" x2="608.26" y2="96.5" fill="none" stroke="#8c8c8c" stroke-miterlimit="10" stroke-width="1.5"/>
      <path d="M607.84,96.5a7.75,7.75,0,0,1-1.66-4.77A14.31,14.31,0,0,0,612,96.5a15.09,15.09,0,0,0-5.82,4.77A8,8,0,0,1,607.84,96.5Z" fill="#8c8c8c"/>
    </g>
    <g>
      <line x1="660" y1="96.5" x2="680.26" y2="96.5" fill="none" stroke="#8c8c8c" stroke-miterlimit="10" stroke-width="1.5"/>
      <path d="M679.84,96.5a7.75,7.75,0,0,1-1.66-4.77A14.31,14.31,0,0,0,684,96.5a15.09,15.09,0,0,0-5.82,4.77A8,8,0,0,1,679.84,96.5Z" fill="#8c8c8c"/>
    </g>
    <g>
      <path d="M418,48.5h7.5a5.94,5.94,0,0,1,5.94,6l-0.37,36a5.94,5.94,0,0,0,5.94,6h27.26" fill="none" stroke="#8c8c8c" stroke-miterlimit="10" stroke-width="1.5"/>
      <path d="M463.84,96.5a7.75,7.75,0,0,1-1.66-4.77A14.31,14.31,0,0,0,468,96.5a15.09,15.09,0,0,0-5.82,4.77A8,8,0,0,1,463.84,96.5Z" fill="#8c8c8c"/>
    </g>
    <g>
      <path d="M418,48.5h7.5a6,6,0,0,0,6-6V15.74" fill="none" stroke="#8c8c8c" stroke-miterlimit="10" stroke-width="1.5"/>
      <path d="M431.5,16.16a7.75,7.75,0,0,1-4.77,1.66A14.31,14.31,0,0,0,431.5,12a15.09,15.09,0,0,0,4.77,5.82A8,8,0,0,1,431.5,16.16Z" fill="#8c8c8c"/>
    </g>
    <g>
      <path d="M778,48.5h7.5a5.94,5.94,0,0,1,5.94,6l-0.37,36a5.94,5.94,0,0,0,5.94,6h27.26" fill="none" stroke="#8c8c8c" stroke-miterlimit="10" stroke-width="1.5"/>
      <path d="M823.84,96.5a7.75,7.75,0,0,1-1.66-4.77A14.31,14.31,0,0,0,828,96.5a15.09,15.09,0,0,0-5.82,4.77A8,8,0,0,1,823.84,96.5Z" fill="#8c8c8c"/>
    </g>
    <g>
      <path d="M778,48.5h7.5a6,6,0,0,0,6-6V15.74" fill="none" stroke="#8c8c8c" stroke-miterlimit="10" stroke-width="1.5"/>
      <path d="M791.5,16.16a7.75,7.75,0,0,1-4.77,1.66A14.31,14.31,0,0,0,791.5,12a15.09,15.09,0,0,0,4.77,5.82A8,8,0,0,1,791.5,16.16Z" fill="#8c8c8c"/>
    </g>
    <g>
      <path d="M922,48.5h7.5a6.09,6.09,0,0,1,6.06,6L935.94,90A6.25,6.25,0,0,0,942,96.13l14.26,0.3" fill="none" stroke="#8c8c8c" stroke-miterlimit="10" stroke-width="1.5"/>
      <path d="M955.84,96.41a7.75,7.75,0,0,1-1.56-4.81A14.31,14.31,0,0,0,960,96.5a15.09,15.09,0,0,0-5.92,4.65A8,8,0,0,1,955.84,96.41Z" fill="#8c8c8c"/>
    </g>
    <g>
      <path d="M922,48.5h7.5a6,6,0,0,0,6-6V15.74" fill="none" stroke="#8c8c8c" stroke-miterlimit="10" stroke-width="1.5"/>
      <path d="M935.5,16.16a7.75,7.75,0,0,1-4.77,1.66A14.31,14.31,0,0,0,935.5,12a15.09,15.09,0,0,0,4.77,5.82A8,8,0,0,1,935.5,16.16Z" fill="#8c8c8c"/>
    </g>
    <g>
      <path d="M516,168h42.5a6,6,0,0,0,6-6V123.74" fill="none" stroke="#8c8c8c" stroke-miterlimit="10" stroke-width="1.5"/>
      <path d="M564.5,124.16a7.75,7.75,0,0,1-4.77,1.66A14.31,14.31,0,0,0,564.5,120a15.09,15.09,0,0,0,4.77,5.82A8,8,0,0,1,564.5,124.16Z" fill="#8c8c8c"/>
    </g>
  </g>
  <g>
    <g opacity="0.1">
      <circle cx="205.75" cy="145.25" r="11.25" stroke="#000" stroke-miterlimit="10" stroke-width="1.5"/>
      <path d="M203.63,142.33a1.77,1.77,0,0,1,.69-1.47,3,3,0,0,1,1.89-.54,4.84,4.84,0,0,1,1.87.38v1.1a5.22,5.22,0,0,0-1.88-.4,1.57,1.57,0,0,0-.93.25,0.78,0.78,0,0,0-.35.67q0,0.74,1.51,1.26a4.6,4.6,0,0,1,2.22,1.44,3.75,3.75,0,0,1,.74,2.26v0.27a4.23,4.23,0,0,1-.4,1.87,3,3,0,0,1-1.15,1.28,3.29,3.29,0,0,1-1.74.45,3.08,3.08,0,0,1-2.42-1,3.86,3.86,0,0,1-.9-2.66v-0.09a3.42,3.42,0,0,1,.64-2,2.76,2.76,0,0,1,1.63-1.14v0a2.36,2.36,0,0,1-1-.75A1.76,1.76,0,0,1,203.63,142.33Zm0.42,5.2a3,3,0,0,0,.55,1.89,1.94,1.94,0,0,0,3,0,3.23,3.23,0,0,0,.55-2,2.67,2.67,0,0,0-.58-1.67,2.35,2.35,0,0,0-1.43-.92,1.81,1.81,0,0,0-1.49.7A3.19,3.19,0,0,0,204.05,147.53Z"/>
    </g>
    <use width="24" height="24" transform="translate(192.75 131.25)" xlink:href="#op-sum_2"/>
  </g>
  <g id="_Group_3" data-name="&lt;Group&gt;">
    <g opacity="0.1">
      <rect x="181" y="74" width="48" height="48" rx="6" ry="6" stroke="#000" stroke-width="1.5"/>
      <rect x="181" y="74" width="48" height="48" rx="6" ry="6"/>
      <rect x="181" y="74" width="48" height="48" rx="6" ry="6" fill="none" stroke="#000" stroke-width="1.5"/>
      <path d="M200.78,100a4.39,4.39,0,0,0,.6,2.16,3.94,3.94,0,0,0,3.57,1.55,6.12,6.12,0,0,0,2.09-.34,2.39,2.39,0,0,0,1.82-2.36,2.06,2.06,0,0,0-.77-1.82,7.66,7.66,0,0,0-2.45-.92l-2-.48a9.08,9.08,0,0,1-2.84-1,3.3,3.3,0,0,1-1.44-2.92,4.56,4.56,0,0,1,1.42-3.46,5.59,5.59,0,0,1,4-1.35,6.84,6.84,0,0,1,4.06,1.19A4.32,4.32,0,0,1,210.48,94h-2a4,4,0,0,0-.65-1.92,3.71,3.71,0,0,0-3.15-1.22,3.54,3.54,0,0,0-2.58.79,2.51,2.51,0,0,0-.78,1.83,1.8,1.8,0,0,0,.93,1.68A13.27,13.27,0,0,0,205,96l2.12,0.5a6.4,6.4,0,0,1,2.37,1,3.75,3.75,0,0,1,1.44,3.18,4,4,0,0,1-1.84,3.71,8.08,8.08,0,0,1-4.28,1.12,6.3,6.3,0,0,1-4.45-1.49,5.08,5.08,0,0,1-1.58-4h2Z"/>
    </g>
    <use width="49.5" height="49.5" transform="translate(179.25 71.25)" xlink:href="#rnn-s"/>
  </g>
  <g id="_Group_4" data-name="&lt;Group&gt;">
    <g opacity="0.1">
      <rect x="253" y="74" width="48" height="48" rx="6" ry="6" stroke="#000" stroke-width="1.5"/>
      <rect x="253" y="74" width="48" height="48" rx="6" ry="6"/>
      <rect x="253" y="74" width="48" height="48" rx="6" ry="6" fill="none" stroke="#000" stroke-width="1.5"/>
      <path d="M272.78,100a4.39,4.39,0,0,0,.6,2.16,3.94,3.94,0,0,0,3.57,1.55,6.12,6.12,0,0,0,2.09-.34,2.39,2.39,0,0,0,1.82-2.36,2.06,2.06,0,0,0-.77-1.82,7.66,7.66,0,0,0-2.45-.92l-2-.48a9.08,9.08,0,0,1-2.84-1,3.3,3.3,0,0,1-1.44-2.92,4.56,4.56,0,0,1,1.42-3.46,5.59,5.59,0,0,1,4-1.35,6.84,6.84,0,0,1,4.06,1.19A4.32,4.32,0,0,1,282.48,94h-2a4,4,0,0,0-.65-1.92,3.71,3.71,0,0,0-3.15-1.22,3.54,3.54,0,0,0-2.58.79,2.51,2.51,0,0,0-.78,1.83,1.8,1.8,0,0,0,.93,1.68A13.27,13.27,0,0,0,277,96l2.12,0.5a6.4,6.4,0,0,1,2.37,1,3.75,3.75,0,0,1,1.44,3.18,4,4,0,0,1-1.84,3.71,8.08,8.08,0,0,1-4.28,1.12,6.3,6.3,0,0,1-4.45-1.49,5.08,5.08,0,0,1-1.58-4h2Z"/>
    </g>
    <use width="49.5" height="49.5" transform="translate(251.25 71.25)" xlink:href="#rnn-s"/>
  </g>
  <g id="_Group_5" data-name="&lt;Group&gt;">
    <g opacity="0.1">
      <rect x="325" y="74" width="48" height="48" rx="6" ry="6" stroke="#000" stroke-width="1.5"/>
      <rect x="325" y="74" width="48" height="48" rx="6" ry="6"/>
      <rect x="325" y="74" width="48" height="48" rx="6" ry="6" fill="none" stroke="#000" stroke-width="1.5"/>
      <path d="M344.78,100a4.39,4.39,0,0,0,.6,2.16,3.94,3.94,0,0,0,3.57,1.55,6.12,6.12,0,0,0,2.09-.34,2.39,2.39,0,0,0,1.82-2.36,2.06,2.06,0,0,0-.77-1.82,7.66,7.66,0,0,0-2.45-.92l-2-.48a9.08,9.08,0,0,1-2.84-1,3.3,3.3,0,0,1-1.44-2.92,4.56,4.56,0,0,1,1.42-3.46,5.59,5.59,0,0,1,4-1.35,6.84,6.84,0,0,1,4.06,1.19A4.32,4.32,0,0,1,354.48,94h-2a4,4,0,0,0-.65-1.92,3.71,3.71,0,0,0-3.15-1.22,3.54,3.54,0,0,0-2.58.79,2.51,2.51,0,0,0-.78,1.83,1.8,1.8,0,0,0,.93,1.68A13.27,13.27,0,0,0,349,96l2.12,0.5a6.4,6.4,0,0,1,2.37,1,3.75,3.75,0,0,1,1.44,3.18,4,4,0,0,1-1.84,3.71,8.08,8.08,0,0,1-4.28,1.12,6.3,6.3,0,0,1-4.45-1.49,5.08,5.08,0,0,1-1.58-4h2Z"/>
    </g>
    <use width="49.5" height="49.5" transform="translate(323.25 71.25)" xlink:href="#rnn-s"/>
  </g>
  <g id="_Group_6" data-name="&lt;Group&gt;">
    <g opacity="0.1">
      <rect x="469" y="74" width="48" height="48" rx="6" ry="6" stroke="#000" stroke-width="1.5"/>
      <rect x="469" y="74" width="48" height="48" rx="6" ry="6"/>
      <rect x="469" y="74" width="48" height="48" rx="6" ry="6" fill="none" stroke="#000" stroke-width="1.5"/>
      <path d="M488.78,100a4.39,4.39,0,0,0,.6,2.16,3.94,3.94,0,0,0,3.57,1.55,6.12,6.12,0,0,0,2.09-.34,2.39,2.39,0,0,0,1.82-2.36,2.07,2.07,0,0,0-.77-1.82,7.67,7.67,0,0,0-2.45-.92l-2-.48a9.08,9.08,0,0,1-2.84-1,3.3,3.3,0,0,1-1.44-2.92,4.56,4.56,0,0,1,1.42-3.46,5.59,5.59,0,0,1,4-1.35,6.84,6.84,0,0,1,4.06,1.19A4.33,4.33,0,0,1,498.47,94h-2a4,4,0,0,0-.65-1.92,3.71,3.71,0,0,0-3.15-1.22,3.54,3.54,0,0,0-2.58.79,2.51,2.51,0,0,0-.78,1.83,1.8,1.8,0,0,0,.93,1.68A13.27,13.27,0,0,0,493,96l2.12,0.5a6.4,6.4,0,0,1,2.37,1,3.75,3.75,0,0,1,1.44,3.18,4,4,0,0,1-1.84,3.71,8.08,8.08,0,0,1-4.28,1.12,6.3,6.3,0,0,1-4.45-1.49,5.08,5.08,0,0,1-1.58-4h2Z"/>
    </g>
    <use width="49.5" height="49.5" transform="translate(467.25 71.25)" xlink:href="#rnn-s"/>
  </g>
  <g id="_Group_7" data-name="&lt;Group&gt;">
    <g opacity="0.1">
      <rect x="541" y="74" width="48" height="48" rx="6" ry="6" stroke="#000" stroke-width="1.5"/>
      <rect x="541" y="74" width="48" height="48" rx="6" ry="6"/>
      <rect x="541" y="74" width="48" height="48" rx="6" ry="6" fill="none" stroke="#000" stroke-width="1.5"/>
      <path d="M560.78,100a4.39,4.39,0,0,0,.6,2.16,3.94,3.94,0,0,0,3.57,1.55,6.12,6.12,0,0,0,2.09-.34,2.39,2.39,0,0,0,1.82-2.36,2.07,2.07,0,0,0-.77-1.82,7.67,7.67,0,0,0-2.45-.92l-2-.48a9.09,9.09,0,0,1-2.84-1,3.3,3.3,0,0,1-1.44-2.92,4.56,4.56,0,0,1,1.42-3.46,5.59,5.59,0,0,1,4-1.35,6.84,6.84,0,0,1,4.06,1.19A4.33,4.33,0,0,1,570.47,94h-2a4,4,0,0,0-.65-1.92,3.71,3.71,0,0,0-3.15-1.22,3.54,3.54,0,0,0-2.58.79,2.51,2.51,0,0,0-.78,1.83,1.8,1.8,0,0,0,.93,1.68A13.29,13.29,0,0,0,565,96l2.12,0.5a6.4,6.4,0,0,1,2.37,1,3.75,3.75,0,0,1,1.44,3.18,4,4,0,0,1-1.84,3.71,8.08,8.08,0,0,1-4.28,1.12,6.29,6.29,0,0,1-4.45-1.49,5.08,5.08,0,0,1-1.58-4h2Z"/>
    </g>
    <use width="49.5" height="49.5" transform="translate(539.25 71.25)" xlink:href="#rnn-s"/>
  </g>
  <g id="_Group_8" data-name="&lt;Group&gt;">
    <g opacity="0.1">
      <rect x="613" y="74" width="48" height="48" rx="6" ry="6" stroke="#000" stroke-width="1.5"/>
      <rect x="613" y="74" width="48" height="48" rx="6" ry="6"/>
      <rect x="613" y="74" width="48" height="48" rx="6" ry="6" fill="none" stroke="#000" stroke-width="1.5"/>
      <path d="M632.78,100a4.39,4.39,0,0,0,.6,2.16,3.94,3.94,0,0,0,3.57,1.55,6.12,6.12,0,0,0,2.09-.34,2.39,2.39,0,0,0,1.82-2.36,2.07,2.07,0,0,0-.77-1.82,7.67,7.67,0,0,0-2.45-.92l-2-.48a9.09,9.09,0,0,1-2.84-1,3.3,3.3,0,0,1-1.44-2.92,4.56,4.56,0,0,1,1.42-3.46,5.59,5.59,0,0,1,4-1.35,6.84,6.84,0,0,1,4.06,1.19A4.33,4.33,0,0,1,642.47,94h-2a4,4,0,0,0-.65-1.92,3.71,3.71,0,0,0-3.15-1.22,3.54,3.54,0,0,0-2.58.79,2.51,2.51,0,0,0-.78,1.83,1.8,1.8,0,0,0,.93,1.68A13.29,13.29,0,0,0,637,96l2.12,0.5a6.4,6.4,0,0,1,2.37,1,3.75,3.75,0,0,1,1.44,3.18,4,4,0,0,1-1.84,3.71,8.08,8.08,0,0,1-4.28,1.12,6.29,6.29,0,0,1-4.45-1.49,5.08,5.08,0,0,1-1.58-4h2Z"/>
    </g>
    <use width="49.5" height="49.5" transform="translate(611.25 71.25)" xlink:href="#rnn-s"/>
  </g>
  <g id="_Group_9" data-name="&lt;Group&gt;">
    <g opacity="0.1">
      <rect x="685" y="74" width="48" height="48" rx="6" ry="6" stroke="#000" stroke-width="1.5"/>
      <rect x="685" y="74" width="48" height="48" rx="6" ry="6"/>
      <rect x="685" y="74" width="48" height="48" rx="6" ry="6" fill="none" stroke="#000" stroke-width="1.5"/>
      <path d="M704.78,100a4.39,4.39,0,0,0,.6,2.16,3.94,3.94,0,0,0,3.57,1.55,6.12,6.12,0,0,0,2.09-.34,2.39,2.39,0,0,0,1.82-2.36,2.07,2.07,0,0,0-.77-1.82,7.67,7.67,0,0,0-2.45-.92l-2-.48a9.09,9.09,0,0,1-2.84-1,3.3,3.3,0,0,1-1.44-2.92,4.56,4.56,0,0,1,1.42-3.46,5.59,5.59,0,0,1,4-1.35,6.84,6.84,0,0,1,4.06,1.19A4.33,4.33,0,0,1,714.47,94h-2a4,4,0,0,0-.65-1.92,3.71,3.71,0,0,0-3.15-1.22,3.54,3.54,0,0,0-2.58.79,2.51,2.51,0,0,0-.78,1.83,1.8,1.8,0,0,0,.93,1.68A13.29,13.29,0,0,0,709,96l2.12,0.5a6.4,6.4,0,0,1,2.37,1,3.75,3.75,0,0,1,1.44,3.18,4,4,0,0,1-1.84,3.71,8.08,8.08,0,0,1-4.28,1.12,6.29,6.29,0,0,1-4.45-1.49,5.08,5.08,0,0,1-1.58-4h2Z"/>
    </g>
    <use width="49.5" height="49.5" transform="translate(683.25 71.25)" xlink:href="#rnn-s"/>
  </g>
  <g id="_Group_10" data-name="&lt;Group&gt;">
    <g opacity="0.1">
      <rect x="829" y="74" width="48" height="48" rx="6" ry="6" stroke="#000" stroke-width="1.5"/>
      <rect x="829" y="74" width="48" height="48" rx="6" ry="6"/>
      <rect x="829" y="74" width="48" height="48" rx="6" ry="6" fill="none" stroke="#000" stroke-width="1.5"/>
      <path d="M848.78,100a4.39,4.39,0,0,0,.6,2.16,3.94,3.94,0,0,0,3.57,1.55,6.12,6.12,0,0,0,2.09-.34,2.39,2.39,0,0,0,1.82-2.36,2.07,2.07,0,0,0-.77-1.82,7.67,7.67,0,0,0-2.45-.92l-2-.48a9.09,9.09,0,0,1-2.84-1,3.3,3.3,0,0,1-1.44-2.92,4.56,4.56,0,0,1,1.42-3.46,5.59,5.59,0,0,1,4-1.35,6.84,6.84,0,0,1,4.06,1.19A4.33,4.33,0,0,1,858.47,94h-2a4,4,0,0,0-.65-1.92,3.71,3.71,0,0,0-3.15-1.22,3.54,3.54,0,0,0-2.58.79,2.51,2.51,0,0,0-.78,1.83,1.8,1.8,0,0,0,.93,1.68A13.29,13.29,0,0,0,853,96l2.12,0.5a6.4,6.4,0,0,1,2.37,1,3.75,3.75,0,0,1,1.44,3.18,4,4,0,0,1-1.84,3.71,8.08,8.08,0,0,1-4.28,1.12,6.29,6.29,0,0,1-4.45-1.49,5.08,5.08,0,0,1-1.58-4h2Z"/>
    </g>
    <use width="49.5" height="49.5" transform="translate(827.25 71.25)" xlink:href="#rnn-s"/>
  </g>
  <g id="_Group_11" data-name="&lt;Group&gt;">
    <g opacity="0.1">
      <circle cx="493.75" cy="145.25" r="11.25" stroke="#000" stroke-miterlimit="10" stroke-width="1.5"/>
      <path d="M491.63,142.33a1.77,1.77,0,0,1,.69-1.47,3,3,0,0,1,1.89-.54,4.84,4.84,0,0,1,1.87.38v1.1a5.22,5.22,0,0,0-1.88-.4,1.57,1.57,0,0,0-.93.25,0.78,0.78,0,0,0-.35.67q0,0.74,1.51,1.26a4.6,4.6,0,0,1,2.22,1.44,3.75,3.75,0,0,1,.74,2.26v0.27a4.23,4.23,0,0,1-.4,1.87,3,3,0,0,1-1.15,1.28,3.29,3.29,0,0,1-1.74.45,3.08,3.08,0,0,1-2.42-1,3.86,3.86,0,0,1-.9-2.66v-0.09a3.42,3.42,0,0,1,.64-2,2.76,2.76,0,0,1,1.63-1.14v0a2.36,2.36,0,0,1-1-.75A1.76,1.76,0,0,1,491.63,142.33Zm0.42,5.2a3,3,0,0,0,.55,1.89,1.94,1.94,0,0,0,3,0,3.23,3.23,0,0,0,.55-2,2.67,2.67,0,0,0-.58-1.67,2.35,2.35,0,0,0-1.43-.92,1.81,1.81,0,0,0-1.49.7A3.19,3.19,0,0,0,492.05,147.53Z"/>
    </g>
    <use width="24" height="24" transform="translate(480.75 131.25)" xlink:href="#op-sum_2"/>
  </g>
  <g>
    <g opacity="0.1">
      <circle cx="853.75" cy="145.25" r="11.25" stroke="#000" stroke-miterlimit="10" stroke-width="1.5"/>
      <path d="M851.63,142.33a1.77,1.77,0,0,1,.69-1.47,3,3,0,0,1,1.89-.54,4.84,4.84,0,0,1,1.87.38v1.1a5.22,5.22,0,0,0-1.88-.4,1.57,1.57,0,0,0-.93.25,0.78,0.78,0,0,0-.35.67q0,0.74,1.51,1.26a4.6,4.6,0,0,1,2.22,1.44,3.75,3.75,0,0,1,.74,2.26v0.27a4.23,4.23,0,0,1-.4,1.87,3,3,0,0,1-1.15,1.28,3.29,3.29,0,0,1-1.74.45,3.08,3.08,0,0,1-2.42-1,3.86,3.86,0,0,1-.9-2.66v-0.09a3.42,3.42,0,0,1,.64-2,2.76,2.76,0,0,1,1.63-1.14v0a2.36,2.36,0,0,1-1-.75A1.76,1.76,0,0,1,851.63,142.33Zm0.42,5.2a3,3,0,0,0,.55,1.89,1.94,1.94,0,0,0,3,0,3.23,3.23,0,0,0,.55-2,2.67,2.67,0,0,0-.58-1.67,2.35,2.35,0,0,0-1.43-.92,1.81,1.81,0,0,0-1.49.7A3.19,3.19,0,0,0,852.05,147.53Z"/>
    </g>
    <use width="24" height="24" transform="translate(840.75 131.25)" xlink:href="#op-sum_2"/>
  </g>
  <g id="_Group_12" data-name="&lt;Group&gt;">
    <g opacity="0.1">
      <circle cx="911.75" cy="50.39" r="11.25" stroke="#000" stroke-miterlimit="10" stroke-width="1.5"/>
      <path d="M907.63,50.88V49.57H911V46.14h1.34v3.43h3.41v1.31h-3.41V54.3H911V50.88h-3.41Z"/>
    </g>
    <use width="24" height="24" transform="translate(898.75 36.39)" xlink:href="#op-sum"/>
  </g>
  <g id="_Group_13" data-name="&lt;Group&gt;">
    <g opacity="0.1">
      <circle cx="408.25" cy="50.39" r="11.25" stroke="#000" stroke-miterlimit="10" stroke-width="1.5"/>
      <path d="M404.13,50.88V49.57h3.41V46.14h1.34v3.43h3.41v1.31h-3.41V54.3h-1.34V50.88h-3.41Z"/>
    </g>
    <use width="24" height="24" transform="translate(395.25 36.39)" xlink:href="#op-sum"/>
  </g>
  <g id="_Group_14" data-name="&lt;Group&gt;">
    <g opacity="0.1">
      <circle cx="767.75" cy="50.39" r="11.25" stroke="#000" stroke-miterlimit="10" stroke-width="1.5"/>
      <path d="M763.63,50.88V49.57H767V46.14h1.34v3.43h3.41v1.31h-3.41V54.3H767V50.88h-3.41Z"/>
    </g>
    <use width="24" height="24" transform="translate(754.75 36.39)" xlink:href="#op-sum"/>
  </g>
  <text transform="translate(168 12)" font-size="12" fill="#666" font-family="Open Sans">time step 0</text>
  <text transform="translate(456 12)" font-size="12" fill="#666" font-family="Open Sans">time step 1</text>
  <text transform="translate(816 12)" font-size="12" fill="#666" font-family="Open Sans">time step 2</text>
</svg>
