<svg id="background" xmlns="http://www.w3.org/2000/svg" xmlns:xlink="http://www.w3.org/1999/xlink" width="984" height="300" viewBox="0 0 984 300">
  <defs>
    <symbol id="array-1" data-name="array-1" viewBox="0 0 37.5 37.5">
      <rect x="0.75" y="0.75" width="36" height="36" rx="6" ry="6" fill="#fff" stroke="#8c8c8c" stroke-miterlimit="10" stroke-width="1.5"/>
    </symbol>
    <symbol id="array-7" data-name="array-7" viewBox="0 0 253.5 37.5">
      <rect x="0.75" y="0.75" width="252" height="36" rx="6" ry="6" fill="#fff" stroke="#8c8c8c" stroke-miterlimit="10" stroke-width="1.5"/>
      <line x1="36.25" y1="36.75" x2="36.25" y2="0.75" fill="none" stroke="#8c8c8c" stroke-miterlimit="10"/>
      <line x1="72.25" y1="36.75" x2="72.25" y2="0.75" fill="none" stroke="#8c8c8c" stroke-miterlimit="10"/>
      <line x1="108.25" y1="36.75" x2="108.25" y2="0.75" fill="none" stroke="#8c8c8c" stroke-miterlimit="10"/>
      <line x1="144.25" y1="36.75" x2="144.25" y2="0.75" fill="none" stroke="#8c8c8c" stroke-miterlimit="10"/>
      <line x1="180.25" y1="36.75" x2="180.25" y2="0.75" fill="none" stroke="#8c8c8c" stroke-miterlimit="10"/>
      <line x1="216.25" y1="36.75" x2="216.25" y2="0.75" fill="none" stroke="#8c8c8c" stroke-miterlimit="10"/>
    </symbol>
    <symbol id="array-positive-value" data-name="array-positive-value" viewBox="0 0 36 36">
      <rect width="36" height="36" fill="#0080f7" opacity="0"/>
      <rect x="4.42" y="4.42" width="27.17" height="27.17" rx="6" ry="6" fill="#3a5edd" opacity="0.8"/>
    </symbol>
    <symbol id="array-vector" data-name="array-vector" viewBox="0 0 36 36">
      <rect width="36" height="36" fill="#d8c2f2" opacity="0"/>
      <g opacity="0.5">
        <g>
          <line x1="18" y1="24" x2="18" y2="13.08" fill="none" stroke="#000" stroke-miterlimit="10"/>
          <polygon points="22.09 16.4 21.36 17.08 18 13.47 14.64 17.08 13.91 16.4 18 12 22.09 16.4"/>
        </g>
      </g>
    </symbol>
  </defs>
  <title>rnn</title>
  <g id="_Group_" data-name="&lt;Group&gt;" opacity="0.2">
    <rect x="162" y="126" width="264" height="48" rx="10" ry="10" opacity="0.04"/>
    <rect x="162" y="126" width="264" height="48" rx="10" ry="10" fill="#ff0"/>
  </g>
  <g id="paths">
    <path id="path24182" d="M288,48.7c0,52.66-101.44,52.89-102,76.88V251" fill="none" stroke="#2a71d8" stroke-miterlimit="10" stroke-width="1.5"/>
    <path id="path24184" d="M290,48.7c0,52.66-67.44,52.89-68,76.88V251" fill="none" stroke="#2a71d8" stroke-miterlimit="10" stroke-width="1.5"/>
    <path id="path24186" d="M292,48.7c0,52.66-33.44,52.89-34,76.88V251" fill="none" stroke="#2a71d8" stroke-miterlimit="10" stroke-width="1.5"/>
    <path id="path24249" d="M294,48V251" fill="none" stroke="#2a71d8" stroke-miterlimit="10" stroke-width="1.5"/>
    <path id="path24264" d="M296,48.7c0,52.66,33.37,52.89,33.93,76.88V251" fill="none" stroke="#2a71d8" stroke-miterlimit="10" stroke-width="1.5"/>
    <path id="path24262" d="M298,48.7c0,52.66,67.44,52.89,68,76.88V251" fill="none" stroke="#2a71d8" stroke-miterlimit="10" stroke-width="1.5"/>
    <path id="path24260" d="M300,48.7c0,52.66,101.44,52.89,102,76.88V251" fill="none" stroke="#2a71d8" stroke-miterlimit="10" stroke-width="1.5"/>
  </g>
  <use id="array-1-3" data-name="array-1" width="37.5" height="37.5" transform="translate(274.75 11.75)" xlink:href="#array-1"/>
  <use id="array-7-3" data-name="array-7" width="253.5" height="37.5" transform="translate(167.75 131.75)" xlink:href="#array-7"/>
  <use width="253.5" height="37.5" transform="translate(167.75 190.75)" xlink:href="#array-7"/>
  <use id="array-7-8" data-name="array-7" width="253.5" height="37.5" transform="translate(167.75 250.75)" xlink:href="#array-7"/>
  <g id="attention">
    <use width="36" height="36" transform="translate(168 132)" xlink:href="#array-positive-value"/>
    <use width="36" height="36" transform="translate(204 132)" xlink:href="#array-positive-value"/>
    <use width="36" height="36" transform="translate(240 132)" xlink:href="#array-positive-value"/>
    <use width="36" height="36" transform="translate(276 132)" xlink:href="#array-positive-value"/>
    <use width="36" height="36" transform="translate(312 132)" xlink:href="#array-positive-value"/>
    <use width="36" height="36" transform="translate(348 132)" xlink:href="#array-positive-value"/>
    <use width="36" height="36" transform="translate(384 132)" xlink:href="#array-positive-value"/>
  </g>
  <g opacity="0.6">
    <text transform="translate(432 216)" font-size="12" font-family="Open Sans">memory</text>
  </g>
  <g opacity="0.6">
    <text transform="translate(432 276)" font-size="12" font-family="Open Sans">new memory</text>
  </g>
  <g opacity="0.6">
    <text transform="translate(324 36)" font-size="12" font-family="Open Sans">write value</text>
  </g>
  <g opacity="0.6">
    <text transform="translate(432 156)" font-size="12" font-family="Open Sans">attention</text>
  </g>
  <use id="write-result" width="36" height="36" transform="translate(276 12)" xlink:href="#array-vector"/>
  <g id="memory">
    <use width="36" height="36" transform="translate(168 192)" xlink:href="#array-vector"/>
    <use width="36" height="36" transform="translate(204 192)" xlink:href="#array-vector"/>
    <use width="36" height="36" transform="translate(240 192)" xlink:href="#array-vector"/>
    <use width="36" height="36" transform="translate(276 192)" xlink:href="#array-vector"/>
    <use width="36" height="36" transform="translate(312 192)" xlink:href="#array-vector"/>
    <use width="36" height="36" transform="translate(348 192)" xlink:href="#array-vector"/>
    <use width="36" height="36" transform="translate(384 192)" xlink:href="#array-vector"/>
  </g>
  <g id="new-memory">
    <use width="36" height="36" transform="translate(168 252)" xlink:href="#array-vector"/>
    <use width="36" height="36" transform="translate(204 252)" xlink:href="#array-vector"/>
    <use width="36" height="36" transform="translate(240 252)" xlink:href="#array-vector"/>
    <use width="36" height="36" transform="translate(276 252)" xlink:href="#array-vector"/>
    <use width="36" height="36" transform="translate(312 252)" xlink:href="#array-vector"/>
    <use width="36" height="36" transform="translate(348 252)" xlink:href="#array-vector"/>
    <use width="36" height="36" transform="translate(384 252)" xlink:href="#array-vector"/>
  </g>
  <g opacity="0.6">
    <text transform="translate(560 91.12)" font-size="12" font-family="Open Sans">Instead of writing to one location, we write <tspan x="0" y="18">everywhere, just to different extents.</tspan></text>
  </g>
  <g>
    <path d="M570.73,163.43a2.39,2.39,0,0,0-1.25-.18,6.31,6.31,0,0,1-.68,0,0.19,0.19,0,0,1-.15-0.22s0-.09,0-0.24l0-.15a0.66,0.66,0,0,0,0-.11,0.38,0.38,0,0,1,0-.11q0-.09,0-0.07s0,0,.09,0a0.11,0.11,0,0,1,.11,0,0.31,0.31,0,0,0,.18,0l0.26,0h0.66l1,0h2a0.44,0.44,0,0,1,.35.11q0,0.09.81,6.18l0.79,6.11,0.5-.81q0.53-.79,1.4-2.19l1.93-3.07q3.83-6.11,3.88-6.16l0.07-.07,0.09-.07,0.13,0h3a5.33,5.33,0,0,0,.64,0q0.74,0,.74.24a1.8,1.8,0,0,1-.07.37q-0.07.26-.07,0.28a1.3,1.3,0,0,1-.81.13,9.75,9.75,0,0,0-1.12.07,0.63,0.63,0,0,0-.39.24q-0.07.11-1.58,6.2t-1.53,6.16a0.17,0.17,0,0,0,0,.11l0.15,0.09a0.7,0.7,0,0,0,.37,0,3.5,3.5,0,0,1,.72,0h0.68a0.79,0.79,0,0,1,.13.24,1.45,1.45,0,0,1-.15.66,0.48,0.48,0,0,1-.35.11l-0.9,0-2,0h-2a6.47,6.47,0,0,0-.77,0q-0.37,0-.37-0.22s0-.13,0-0.31a0.69,0.69,0,0,1,.18-0.39,1.82,1.82,0,0,1,.5-0.07q0.59,0,1.31-.07a0.58,0.58,0,0,0,.42-0.26q0-.09.83-3.2t1.56-6.2l0.77-3.09-4.25,6.77q-4.29,6.83-4.4,6.94l-0.09,0a0.71,0.71,0,0,1-.35.07,0.39,0.39,0,0,1-.39-0.15q0-.09-0.9-6.79l-0.85-6.73-1.49,5.91q-1.47,5.83-1.47,6,0.13,0.72,1.58.72h0.22a0.42,0.42,0,0,1,.15.2,1,1,0,0,1-.07.39,0.69,0.69,0,0,1-.18.39l-0.24,0H570l-0.74,0-1.4,0-1.36,0-0.81,0a1.18,1.18,0,0,1-.42,0,0.2,0.2,0,0,1-.09-0.2,2.33,2.33,0,0,1,.07-0.31,1.34,1.34,0,0,1,.11-0.33,0.51,0.51,0,0,1,.48-0.13,1.94,1.94,0,0,0,1.95-.88q0.09-.13,1.51-5.87T570.73,163.43Z" fill="#666"/>
    <path d="M586,176.05a1.7,1.7,0,0,1,.14-0.48,7.43,7.43,0,0,1,.37-0.79,2.56,2.56,0,0,1,.68-0.79,1.4,1.4,0,0,1,.93-0.34,1.46,1.46,0,0,1,1,.36,1.26,1.26,0,0,1,.42,1,3,3,0,0,1-.22.87q-0.22.6-.62,1.63T588,179.21a2.54,2.54,0,0,0-.08.5q0,0.39.26,0.39a1,1,0,0,0,.29,0,1.06,1.06,0,0,0,.36-0.22,2.1,2.1,0,0,0,.42-0.54,4.5,4.5,0,0,0,.39-0.91,0.64,0.64,0,0,1,.08-0.22,0.57,0.57,0,0,1,.26,0q0.31,0,.31.15a1.69,1.69,0,0,1-.14.48,6.1,6.1,0,0,1-.39.79,2.59,2.59,0,0,1-.7.77,1.56,1.56,0,0,1-1,.34,1.46,1.46,0,0,1-.91-0.33,1.22,1.22,0,0,1-.43-1,1.56,1.56,0,0,1,.08-0.5q0.08-.23.67-1.77t0.68-1.87a2.57,2.57,0,0,0,.11-0.6q0-.37-0.26-0.37h0a1.08,1.08,0,0,0-.85.51,3.61,3.61,0,0,0-.59,1.3l0,0a0.12,0.12,0,0,0,0,0,0,0,0,0,1,0,0l0,0h-0.4A0.26,0.26,0,0,1,586,176.05Zm2.52-4.85a0.87,0.87,0,0,1,.29-0.65,1,1,0,0,1,.68-0.29,0.63,0.63,0,0,1,.46.19,0.69,0.69,0,0,1,.2.46,0.88,0.88,0,0,1-.31.65,1,1,0,0,1-.68.31,0.7,0.7,0,0,1-.43-0.15A0.64,0.64,0,0,1,588.5,171.2Z" fill="#666"/>
    <path d="M619.93,171.49v0.24a0.54,0.54,0,0,1-.33.44H602.86l0.37,0.31a6,6,0,0,1,.64.59q0.31,0.33.72,0.81a4.46,4.46,0,0,1,.72,1.23q0.31,0.74.57,1.56a2.46,2.46,0,0,1,.11.55q0,0.24-.44.24h-0.22a0.18,0.18,0,0,1-.13-0.09,0.86,0.86,0,0,1-.11-0.2,2.12,2.12,0,0,1-.09-0.42,6.69,6.69,0,0,0-1.49-2.85,6.76,6.76,0,0,0-2.67-1.86,0.86,0.86,0,0,1-.39-0.24,0.26,0.26,0,0,1,.09-0.22,1.45,1.45,0,0,1,.31-0.15,6.73,6.73,0,0,0,1.86-1.1A6.5,6.5,0,0,0,604,169a7.54,7.54,0,0,0,.7-1.29,10.74,10.74,0,0,0,.37-1l0.07-.37,0.07-.18a0.24,0.24,0,0,1,.11-0.09,0.68,0.68,0,0,1,.28,0q0.44,0,.44.24a2.46,2.46,0,0,1-.11.55,9.23,9.23,0,0,1-.55,1.51,6.32,6.32,0,0,1-.7,1.18q-0.37.48-.68,0.81a6.53,6.53,0,0,1-.66.61l-0.44.37H619.6a0.54,0.54,0,0,1,.33.44v-0.24Z" fill="#666"/>
    <path d="M634.93,170a2,2,0,0,0-.11-0.48,2.08,2.08,0,0,0-.5-0.77,1.4,1.4,0,0,0-1-.44,2.1,2.1,0,0,0-1.47.68,4.58,4.58,0,0,0-1.1,1.77,17.49,17.49,0,0,0-.9,3.59v0.24a1.17,1.17,0,0,1,0,.26,1.84,1.84,0,0,0,.39,1.36,1.41,1.41,0,0,0,.94.39,2.47,2.47,0,0,0,1.64-.72,3.68,3.68,0,0,0,1-1.12q0-.09.59-2.34T634.93,170Zm-7,3.75a6.47,6.47,0,0,1,1.66-4.21,4.9,4.9,0,0,1,3.75-2,2.48,2.48,0,0,1,2,1.07,1.1,1.1,0,0,1,1-.66,0.78,0.78,0,0,1,.5.18,0.54,0.54,0,0,1,.22.44q0,0.28-.81,3.5t-0.83,3.64a1.17,1.17,0,0,0,.15.72,0.64,0.64,0,0,0,.46.2,1,1,0,0,0,.44-0.2,5,5,0,0,0,.9-2.1,0.82,0.82,0,0,1,.22-0.46,0.64,0.64,0,0,1,.22,0h0.09q0.42,0,.42.2a3.48,3.48,0,0,1-.11.59,6.87,6.87,0,0,1-.44,1.18,3.73,3.73,0,0,1-.7,1.1,2.17,2.17,0,0,1-.7.46,2.34,2.34,0,0,1-.53,0,2.24,2.24,0,0,1-1.25-.33,1.68,1.68,0,0,1-.66-0.68l-0.13-.33s0,0-.09,0l-0.09.09a3.84,3.84,0,0,1-2.63,1.23,3,3,0,0,1-2.12-.88A3.69,3.69,0,0,1,628,173.77Z" fill="#666"/>
    <path d="M639.16,176.05a1.7,1.7,0,0,1,.14-0.48,7.43,7.43,0,0,1,.37-0.79,2.56,2.56,0,0,1,.68-0.79,1.4,1.4,0,0,1,.93-0.34,1.46,1.46,0,0,1,1,.36,1.26,1.26,0,0,1,.42,1,3,3,0,0,1-.22.87q-0.22.6-.62,1.63t-0.65,1.75a2.54,2.54,0,0,0-.08.5q0,0.39.26,0.39a1,1,0,0,0,.29,0,1.06,1.06,0,0,0,.36-0.22,2.1,2.1,0,0,0,.42-0.54,4.5,4.5,0,0,0,.39-0.91,0.64,0.64,0,0,1,.08-0.22,0.57,0.57,0,0,1,.26,0q0.31,0,.31.15a1.7,1.7,0,0,1-.14.48,6.09,6.09,0,0,1-.39.79,2.59,2.59,0,0,1-.7.77,1.56,1.56,0,0,1-1,.34,1.46,1.46,0,0,1-.91-0.33,1.22,1.22,0,0,1-.43-1,1.56,1.56,0,0,1,.08-0.5q0.08-.23.67-1.77t0.68-1.87a2.57,2.57,0,0,0,.11-0.6q0-.37-0.26-0.37h0a1.08,1.08,0,0,0-.85.51,3.61,3.61,0,0,0-.59,1.3l0,0a0.12,0.12,0,0,0,0,0,0,0,0,0,1,0,0l0,0h-0.4A0.26,0.26,0,0,1,639.16,176.05Zm2.52-4.85a0.87,0.87,0,0,1,.29-0.65,1,1,0,0,1,.68-0.29,0.63,0.63,0,0,1,.46.19,0.69,0.69,0,0,1,.2.46,0.88,0.88,0,0,1-.31.65,1,1,0,0,1-.68.31,0.7,0.7,0,0,1-.43-0.15A0.64,0.64,0,0,1,641.68,171.2Z" fill="#666"/>
    <path d="M659.07,168.78a1.17,1.17,0,0,1,.42-0.85,1.4,1.4,0,0,1,.92-0.42,0.94,0.94,0,0,1,.72.39,2,2,0,0,1,.35,1.25,14.75,14.75,0,0,1-.42,2.52q-0.33,1.23-.59,2a13,13,0,0,1-.77,1.77,4.06,4.06,0,0,1-1.2,1.49,2.64,2.64,0,0,1-1.58.5,4,4,0,0,1-1.71-.35,2.29,2.29,0,0,1-1.07-.94l-0.07.09a2.66,2.66,0,0,1-2.19,1.2,4.5,4.5,0,0,1-1.1-.13,4.12,4.12,0,0,1-1-.42,2.09,2.09,0,0,1-.81-0.85,2.88,2.88,0,0,1-.31-1.38,9.89,9.89,0,0,1,.74-3.2,12,12,0,0,0,.77-2.56V168.6a0.24,0.24,0,0,0-.09-0.15,0.33,0.33,0,0,0-.24-0.09h-0.09a1.28,1.28,0,0,0-.92.42,3.46,3.46,0,0,0-.66.9,5.79,5.79,0,0,0-.37.92,2.14,2.14,0,0,1-.18.48,0.73,0.73,0,0,1-.35,0H647a0.37,0.37,0,0,1-.13-0.2,2.57,2.57,0,0,1,.18-0.61,9.73,9.73,0,0,1,.5-1.12,3.53,3.53,0,0,1,1-1.14,2.23,2.23,0,0,1,1.42-.5,1.87,1.87,0,0,1,1.45.55,1.82,1.82,0,0,1,.5,1.27,11.71,11.71,0,0,1-.72,2.37,9.67,9.67,0,0,0-.72,3,1.85,1.85,0,0,0,.46,1.42,1.75,1.75,0,0,0,1.16.44,2,2,0,0,0,1.66-1.34l0.11-.2v-0.7a0.45,0.45,0,0,1,0-.18,0.38,0.38,0,0,0,0-.15,0.82,0.82,0,0,1,0-.2l0.07-.28q0-.2.07-0.37a3.35,3.35,0,0,1,.13-0.53,6.15,6.15,0,0,0,.18-0.7q0.07-.35.24-0.94,0.64-2.5.72-2.69a1,1,0,0,1,.94-0.59,0.65,0.65,0,0,1,.57.22,0.91,0.91,0,0,1,.18.42,27.52,27.52,0,0,1-.64,2.8q-0.64,2.52-.7,2.89a4.76,4.76,0,0,0,0,.77V175a3,3,0,0,0,.07.64,1.29,1.29,0,0,0,.42.64,1.46,1.46,0,0,0,1,.35q1.56,0,2.48-2.67a13.52,13.52,0,0,0,.44-1.42,7.71,7.71,0,0,0,.26-1.31,2,2,0,0,0-.28-1.14,4.92,4.92,0,0,0-.57-0.7A0.86,0.86,0,0,1,659.07,168.78Z" fill="#666"/>
    <path d="M671.8,172v-0.28a0.48,0.48,0,0,1,.31-0.44h6.55V168l0-3.29a0.58,0.58,0,0,1,.42-0.28,0.48,0.48,0,0,1,.44.33v6.53h6.53a0.46,0.46,0,0,1,0,.88h-6.53v6.53a0.49,0.49,0,0,1-.39.31h-0.09a0.42,0.42,0,0,1-.39-0.31v-6.53h-6.55a0.48,0.48,0,0,1-.31-0.44V172Z" fill="#666"/>
    <path d="M698.2,171.74a18,18,0,0,1,.22-2.87,20.09,20.09,0,0,1,.5-2.34,9.18,9.18,0,0,1,.81-1.93q0.53-.94.83-1.47a5.82,5.82,0,0,1,.92-1.14q0.61-.61.72-0.74a3.94,3.94,0,0,1,.55-0.46h0.37q0.31,0,.31.2a1.77,1.77,0,0,1-.37.46,10,10,0,0,0-.9,1.16,15.15,15.15,0,0,0-1.07,1.88,12.47,12.47,0,0,0-.92,3,22.11,22.11,0,0,0-.37,4.23,21.77,21.77,0,0,0,.37,4.21,14.24,14.24,0,0,0,.9,3,9.92,9.92,0,0,0,1.07,1.88q0.55,0.72.92,1.16a4.94,4.94,0,0,1,.37.46q0,0.2-.33.2h-0.35l-0.61-.53a10.81,10.81,0,0,1-3-4.64A17.91,17.91,0,0,1,698.2,171.74Z" fill="#666"/>
    <path d="M709.33,164.55l-0.28.11a6.28,6.28,0,0,1-.88.22,10.1,10.1,0,0,1-1.27.15h-0.42v-1h0.42a7.12,7.12,0,0,0,1.91-.33,5.18,5.18,0,0,0,1.23-.53,5.62,5.62,0,0,0,.61-0.48,0.33,0.33,0,0,1,.26-0.07,0.61,0.61,0,0,1,.37.13v6.55l0,6.57a0.87,0.87,0,0,0,.26.2,2.6,2.6,0,0,0,.53.09q0.42,0,1.36,0H714v1h-0.24q-0.46-.07-3.48-0.07t-3.44.07h-0.26v-1H708l0.55,0a2.14,2.14,0,0,0,.35-0.07l0.18,0a0.44,0.44,0,0,0,.13-0.11,0.17,0.17,0,0,1,.13-0.09V164.55Z" fill="#666"/>
    <path d="M718.66,172v-0.28a0.48,0.48,0,0,1,.31-0.44h12.73a0.46,0.46,0,0,1,0,.88H719a0.48,0.48,0,0,1-.31-0.44V172Z" fill="#666"/>
    <path d="M742.78,170a2,2,0,0,0-.11-0.48,2.08,2.08,0,0,0-.5-0.77,1.4,1.4,0,0,0-1-.44,2.1,2.1,0,0,0-1.47.68,4.59,4.59,0,0,0-1.1,1.77,17.49,17.49,0,0,0-.9,3.59v0.24a1.17,1.17,0,0,1,0,.26,1.84,1.84,0,0,0,.39,1.36,1.41,1.41,0,0,0,.94.39,2.47,2.47,0,0,0,1.64-.72,3.68,3.68,0,0,0,1-1.12q0-.09.59-2.34T742.78,170Zm-7,3.75a6.47,6.47,0,0,1,1.66-4.21,4.9,4.9,0,0,1,3.75-2,2.48,2.48,0,0,1,2,1.07,1.1,1.1,0,0,1,1-.66,0.78,0.78,0,0,1,.5.18,0.54,0.54,0,0,1,.22.44q0,0.28-.81,3.5t-0.83,3.64a1.17,1.17,0,0,0,.15.72,0.64,0.64,0,0,0,.46.2,1,1,0,0,0,.44-0.2,5,5,0,0,0,.9-2.1,0.82,0.82,0,0,1,.22-0.46,0.64,0.64,0,0,1,.22,0h0.09q0.42,0,.42.2a3.48,3.48,0,0,1-.11.59,6.87,6.87,0,0,1-.44,1.18,3.73,3.73,0,0,1-.7,1.1,2.17,2.17,0,0,1-.7.46,2.34,2.34,0,0,1-.53,0,2.24,2.24,0,0,1-1.25-.33,1.68,1.68,0,0,1-.66-0.68l-0.13-.33s0,0-.09,0l-0.09.09a3.84,3.84,0,0,1-2.63,1.23,3,3,0,0,1-2.12-.88A3.69,3.69,0,0,1,735.81,173.77Z" fill="#666"/>
    <path d="M747,176.05a1.69,1.69,0,0,1,.14-0.48,7.45,7.45,0,0,1,.37-0.79,2.56,2.56,0,0,1,.68-0.79,1.4,1.4,0,0,1,.93-0.34,1.46,1.46,0,0,1,1,.36,1.26,1.26,0,0,1,.42,1,3,3,0,0,1-.22.87q-0.22.6-.62,1.63t-0.65,1.75a2.53,2.53,0,0,0-.08.5q0,0.39.26,0.39a1,1,0,0,0,.29,0,1.06,1.06,0,0,0,.36-0.22,2.1,2.1,0,0,0,.42-0.54,4.5,4.5,0,0,0,.39-0.91,0.64,0.64,0,0,1,.08-0.22,0.57,0.57,0,0,1,.26,0q0.31,0,.31.15a1.7,1.7,0,0,1-.14.48,6.11,6.11,0,0,1-.39.79,2.59,2.59,0,0,1-.7.77,1.56,1.56,0,0,1-1,.34,1.46,1.46,0,0,1-.91-0.33,1.22,1.22,0,0,1-.43-1,1.56,1.56,0,0,1,.08-0.5q0.08-.23.67-1.77t0.68-1.87a2.57,2.57,0,0,0,.11-0.6q0-.37-0.26-0.37h0a1.08,1.08,0,0,0-.85.51,3.61,3.61,0,0,0-.59,1.3l0,0a0.12,0.12,0,0,0,0,0,0,0,0,0,1,0,0l0,0h-0.4A0.26,0.26,0,0,1,747,176.05Zm2.52-4.85a0.87,0.87,0,0,1,.29-0.65,1,1,0,0,1,.68-0.29,0.63,0.63,0,0,1,.46.19,0.69,0.69,0,0,1,.2.46,0.88,0.88,0,0,1-.31.65,1,1,0,0,1-.68.31,0.7,0.7,0,0,1-.43-0.15A0.64,0.64,0,0,1,749.53,171.2Z" fill="#666"/>
    <path d="M755.53,160.8l0.09,0h0.48l0.61,0.53a10.81,10.81,0,0,1,3,4.64,17.91,17.91,0,0,1,.94,5.78,18.29,18.29,0,0,1-.22,2.87,18.84,18.84,0,0,1-.5,2.34,9.87,9.87,0,0,1-.81,1.93q-0.53,1-.83,1.47a6.67,6.67,0,0,1-.9,1.12l-0.7.72q-0.11.11-.5,0.42l-0.09.09h-0.5a0.13,0.13,0,0,1-.11-0.07,0.52,0.52,0,0,1-.07-0.2l0.24-.28q3.4-3.53,3.4-10.41t-3.4-10.41l-0.24-.28A0.26,0.26,0,0,1,755.53,160.8Z" fill="#666"/>
    <path d="M769.06,163.43a2.39,2.39,0,0,0-1.25-.18,6.3,6.3,0,0,1-.68,0A0.19,0.19,0,0,1,767,163s0-.09,0-0.24l0-.15a0.66,0.66,0,0,0,0-.11,0.38,0.38,0,0,1,0-.11q0-.09,0-0.07s0,0,.09,0a0.11,0.11,0,0,1,.11,0,0.31,0.31,0,0,0,.18,0l0.26,0h0.66l1,0h2a0.44,0.44,0,0,1,.35.11q0,0.09.81,6.18l0.79,6.11,0.5-.81q0.53-.79,1.4-2.19l1.93-3.07q3.83-6.11,3.88-6.16l0.07-.07,0.09-.07,0.13,0h3a5.33,5.33,0,0,0,.64,0q0.74,0,.74.24a1.8,1.8,0,0,1-.07.37q-0.07.26-.07,0.28a1.3,1.3,0,0,1-.81.13,9.74,9.74,0,0,0-1.12.07,0.63,0.63,0,0,0-.39.24q-0.07.11-1.58,6.2t-1.53,6.16a0.17,0.17,0,0,0,0,.11l0.15,0.09a0.71,0.71,0,0,0,.37,0,3.5,3.5,0,0,1,.72,0h0.68a0.79,0.79,0,0,1,.13.24,1.45,1.45,0,0,1-.15.66,0.48,0.48,0,0,1-.35.11l-0.9,0-2,0h-2a6.47,6.47,0,0,0-.77,0q-0.37,0-.37-0.22s0-.13,0-0.31a0.69,0.69,0,0,1,.18-0.39,1.82,1.82,0,0,1,.5-0.07q0.59,0,1.31-.07a0.58,0.58,0,0,0,.42-0.26q0-.09.83-3.2t1.56-6.2l0.77-3.09-4.25,6.77q-4.29,6.83-4.4,6.94l-0.09,0a0.71,0.71,0,0,1-.35.07,0.39,0.39,0,0,1-.39-0.15q0-.09-0.9-6.79l-0.85-6.73-1.49,5.91q-1.47,5.83-1.47,6,0.13,0.72,1.58.72h0.22a0.42,0.42,0,0,1,.15.2,1,1,0,0,1-.07.39,0.69,0.69,0,0,1-.18.39l-0.24,0h-0.26l-0.74,0-1.4,0-1.36,0-0.81,0a1.18,1.18,0,0,1-.42,0,0.2,0.2,0,0,1-.09-0.2,2.33,2.33,0,0,1,.07-0.31,1.34,1.34,0,0,1,.11-0.33,0.51,0.51,0,0,1,.48-0.13,1.94,1.94,0,0,0,1.95-.88q0.09-.13,1.51-5.87T769.06,163.43Z" fill="#666"/>
    <path d="M784.31,176.05a1.7,1.7,0,0,1,.14-0.48,7.44,7.44,0,0,1,.37-0.79,2.56,2.56,0,0,1,.68-0.79,1.4,1.4,0,0,1,.93-0.34,1.46,1.46,0,0,1,1,.36,1.26,1.26,0,0,1,.42,1,3,3,0,0,1-.22.87q-0.22.6-.62,1.63t-0.65,1.75a2.53,2.53,0,0,0-.08.5q0,0.39.26,0.39a1,1,0,0,0,.29,0,1.06,1.06,0,0,0,.36-0.22,2.1,2.1,0,0,0,.42-0.54,4.5,4.5,0,0,0,.39-0.91,0.64,0.64,0,0,1,.08-0.22,0.57,0.57,0,0,1,.26,0q0.31,0,.31.15a1.7,1.7,0,0,1-.14.48,6.11,6.11,0,0,1-.39.79,2.59,2.59,0,0,1-.7.77,1.56,1.56,0,0,1-1,.34,1.46,1.46,0,0,1-.91-0.33,1.22,1.22,0,0,1-.43-1,1.56,1.56,0,0,1,.08-0.5q0.08-.23.67-1.77t0.68-1.87a2.57,2.57,0,0,0,.11-0.6q0-.37-0.26-0.37h0a1.08,1.08,0,0,0-.85.51,3.61,3.61,0,0,0-.59,1.3l0,0a0.12,0.12,0,0,0,0,0,0,0,0,0,1,0,0l0,0h-0.4A0.26,0.26,0,0,1,784.31,176.05Zm2.52-4.85a0.87,0.87,0,0,1,.29-0.65,1,1,0,0,1,.68-0.29,0.63,0.63,0,0,1,.46.19,0.69,0.69,0,0,1,.2.46,0.88,0.88,0,0,1-.31.65,1,1,0,0,1-.68.31,0.7,0.7,0,0,1-.43-0.15A0.64,0.64,0,0,1,786.83,171.2Z" fill="#666"/>
  </g>
</svg>
