<svg id="edges" xmlns="http://www.w3.org/2000/svg" xmlns:xlink="http://www.w3.org/1999/xlink" width="984" height="756" viewBox="0 0 984 756">
  <defs>
    <symbol id="array-5" data-name="array-5" viewBox="0 0 181 37">
      <rect x="0.5" y="0.5" width="180" height="36" rx="6" ry="6" fill="#fff" stroke="#8c8c8c" stroke-miterlimit="10"/>
      <line x1="36.25" y1="36.5" x2="36.25" y2="0.5" fill="none" stroke="#8c8c8c" stroke-miterlimit="10"/>
      <line x1="72.25" y1="36.5" x2="72.25" y2="0.5" fill="none" stroke="#8c8c8c" stroke-miterlimit="10"/>
      <line x1="108.25" y1="36.5" x2="108.25" y2="0.5" fill="none" stroke="#8c8c8c" stroke-miterlimit="10"/>
      <line x1="144.25" y1="36.5" x2="144.25" y2="0.5" fill="none" stroke="#8c8c8c" stroke-miterlimit="10"/>
    </symbol>
    <symbol id="array-1" data-name="array-1" viewBox="0 0 37 37">
      <rect x="0.5" y="0.5" width="36" height="36" rx="6" ry="6" fill="#fff" stroke="#8c8c8c" stroke-miterlimit="10"/>
    </symbol>
    <symbol id="array-3" data-name="array-3" viewBox="0 0 108.5 37">
      <rect x="0.5" y="0.5" width="107.5" height="36" rx="6" ry="6" fill="#fff" stroke="#8c8c8c" stroke-miterlimit="10"/>
      <line x1="36" y1="36.5" x2="36" y2="0.5" fill="none" stroke="#8c8c8c" stroke-miterlimit="10"/>
      <line x1="72" y1="36.5" x2="72" y2="0.5" fill="none" stroke="#8c8c8c" stroke-miterlimit="10"/>
    </symbol>
    <symbol id="array-positive-value" data-name="array-positive-value" viewBox="0 0 36 36">
      <rect width="36" height="36" fill="#0080f7" opacity="0"/>
      <rect x="4.42" y="4.42" width="27.17" height="27.17" rx="6" ry="6" fill="#0080f7" opacity="0.8"/>
    </symbol>
    <symbol id="array-vector" data-name="array-vector" viewBox="0 0 36 36">
      <rect width="36" height="36" fill="#0080f7" opacity="0"/>
      <g>
        <line x1="18" y1="24" x2="18" y2="13.08" fill="none" stroke="#8c8c8c" stroke-miterlimit="10"/>
        <polygon points="22.09 16.4 21.36 17.08 18 13.47 14.64 17.08 13.91 16.4 18 12 22.09 16.4" fill="#8c8c8c"/>
      </g>
    </symbol>
  </defs>
  <title>rnn</title>
  <g>
    <line x1="743.5" x2="743.5" y2="1" fill="none" stroke="#919191" stroke-miterlimit="10"/>
    <line x1="743.5" y1="3" x2="743.5" y2="769" fill="none" stroke="#919191" stroke-miterlimit="10" stroke-dasharray="2 2"/>
  </g>
  <g>
    <line x1="426" y1="60" x2="426" y2="94.92" fill="none" stroke="#8c8c8c" stroke-miterlimit="10"/>
    <polygon points="421.91 91.6 422.64 90.92 426 94.53 429.36 90.92 430.09 91.6 426 96 421.91 91.6" fill="#8c8c8c"/>
  </g>
  <g>
    <line x1="755.5" y1="108" x2="468.58" y2="108" fill="none" stroke="#8c8c8c" stroke-miterlimit="10"/>
    <polygon points="471.9 103.91 472.58 104.64 468.97 108 472.58 111.36 471.9 112.09 467.5 108 471.9 103.91" fill="#8c8c8c"/>
  </g>
  <g>
    <line x1="755.5" y1="378" x2="468.58" y2="378" fill="none" stroke="#8c8c8c" stroke-miterlimit="10"/>
    <polygon points="471.9 373.91 472.58 374.64 468.97 378 472.58 381.36 471.9 382.09 467.5 378 471.9 373.91" fill="#8c8c8c"/>
  </g>
  <g>
    <line x1="755.5" y1="504" x2="468.58" y2="504" fill="none" stroke="#8c8c8c" stroke-miterlimit="10"/>
    <polygon points="471.9 499.91 472.58 500.64 468.97 504 472.58 507.36 471.9 508.09 467.5 504 471.9 499.91" fill="#8c8c8c"/>
  </g>
  <g>
    <line x1="426" y1="119.82" x2="426" y2="154.74" fill="none" stroke="#8c8c8c" stroke-miterlimit="10"/>
    <polygon points="421.91 151.43 422.64 150.74 426 154.35 429.36 150.74 430.09 151.43 426 155.82 421.91 151.43" fill="#8c8c8c"/>
  </g>
  <g>
    <line x1="426" y1="191.82" x2="426" y2="226.74" fill="none" stroke="#8c8c8c" stroke-miterlimit="10"/>
    <polygon points="421.91 223.43 422.64 222.74 426 226.35 429.36 222.74 430.09 223.43 426 227.82 421.91 223.43" fill="#8c8c8c"/>
  </g>
  <g>
    <line x1="426" y1="252" x2="426" y2="286.92" fill="none" stroke="#8c8c8c" stroke-miterlimit="10"/>
    <polygon points="421.91 283.6 422.64 282.92 426 286.53 429.36 282.92 430.09 283.6 426 288 421.91 283.6" fill="#8c8c8c"/>
  </g>
  <g>
    <line x1="630" y1="228" x2="630" y2="263.27" fill="none" stroke="#8c8c8c" stroke-miterlimit="10"/>
    <polygon points="625.91 259.96 626.64 259.27 630 262.88 633.36 259.27 634.09 259.96 630 264.35 625.91 259.96" fill="#8c8c8c"/>
  </g>
  <g>
    <line x1="426" y1="323.82" x2="426" y2="358.74" fill="none" stroke="#8c8c8c" stroke-miterlimit="10"/>
    <polygon points="421.91 355.43 422.64 354.74 426 358.36 429.36 354.74 430.09 355.43 426 359.82 421.91 355.43" fill="#8c8c8c"/>
  </g>
  <g>
    <line x1="426" y1="383.82" x2="426" y2="418.74" fill="none" stroke="#8c8c8c" stroke-miterlimit="10"/>
    <polygon points="421.91 415.43 422.64 414.74 426 418.36 429.36 414.74 430.09 415.43 426 419.82 421.91 415.43" fill="#8c8c8c"/>
  </g>
  <g>
    <line x1="426" y1="456" x2="426" y2="490.92" fill="none" stroke="#8c8c8c" stroke-miterlimit="10"/>
    <polygon points="421.91 487.6 422.64 486.92 426 490.53 429.36 486.92 430.09 487.6 426 492 421.91 487.6" fill="#8c8c8c"/>
  </g>
  <g>
    <line x1="426" y1="515.82" x2="426" y2="550.74" fill="none" stroke="#8c8c8c" stroke-miterlimit="10"/>
    <polygon points="421.91 547.42 422.64 546.74 426 550.36 429.36 546.74 430.09 547.42 426 551.82 421.91 547.42" fill="#8c8c8c"/>
  </g>
  <g>
    <line x1="426" y1="588.82" x2="426" y2="623.74" fill="none" stroke="#8c8c8c" stroke-miterlimit="10"/>
    <polygon points="421.91 620.42 422.64 619.74 426 623.36 429.36 619.74 430.09 620.42 426 624.82 421.91 620.42" fill="#8c8c8c"/>
  </g>
  <g>
    <line x1="426" y1="647.82" x2="426" y2="682.74" fill="none" stroke="#8c8c8c" stroke-miterlimit="10"/>
    <polygon points="421.91 679.42 422.64 678.74 426 682.36 429.36 678.74 430.09 679.42 426 683.82 421.91 679.42" fill="#8c8c8c"/>
  </g>
  <g>
    <path d="M630,324v32a10,10,0,0,1-10,10H468.58" fill="none" stroke="#8c8c8c" stroke-miterlimit="10"/>
    <polygon points="471.9 361.91 472.58 362.64 468.97 366 472.58 369.36 471.9 370.09 467.5 366 471.9 361.91" fill="#8c8c8c"/>
  </g>
  <use id="array-5-3" data-name="array-5" width="181" height="37" transform="translate(335.25 287)" xlink:href="#array-5"/>
  <use width="181" height="37" transform="translate(539.25 288)" xlink:href="#array-5"/>
  <use width="181" height="37" transform="translate(335.25 419)" xlink:href="#array-5"/>
  <use width="181" height="37" transform="translate(335.25 552)" xlink:href="#array-5"/>
  <use width="181" height="37" transform="translate(335.25 683)" xlink:href="#array-5"/>
  <use width="37" height="37" transform="translate(755.5 354)" xlink:href="#array-1"/>
  <use id="array-3-3" data-name="array-3" width="108.5" height="37" transform="translate(755.5 485)" xlink:href="#array-3"/>
  <use width="181" height="37" transform="translate(335.25 155)" xlink:href="#array-5"/>
  <g id="dot">
    <use width="36" height="36" transform="translate(336 155)" xlink:href="#array-positive-value"/>
    <use width="36" height="36" transform="translate(372 155)" xlink:href="#array-positive-value"/>
    <use width="36" height="36" transform="translate(408 155)" xlink:href="#array-positive-value"/>
    <use width="36" height="36" transform="translate(444 155)" xlink:href="#array-positive-value"/>
    <use width="36" height="36" transform="translate(480 155)" xlink:href="#array-positive-value"/>
  </g>
  <use width="181" height="37" transform="translate(335.25 24)" xlink:href="#array-5"/>
  <g id="_Group_" data-name="&lt;Group&gt;">
    <path d="M467.5,108a12,12,0,0,1-12,12h-60a12,12,0,1,1,0-24h60a12,12,0,0,1,12,12h0Z" fill="#596673"/>
  </g>
  <g id="_Group_2" data-name="&lt;Group&gt;">
    <path d="M468,240a12,12,0,0,1-12,12H396a12,12,0,0,1,0-24h60a12,12,0,0,1,12,12h0Z" fill="#596673"/>
  </g>
  <g id="softmax">
    <use width="36" height="36" transform="translate(336 288)" xlink:href="#array-positive-value"/>
    <use width="36" height="36" transform="translate(372 288)" xlink:href="#array-positive-value"/>
    <use width="36" height="36" transform="translate(408 288)" xlink:href="#array-positive-value"/>
    <use width="36" height="36" transform="translate(444 288)" xlink:href="#array-positive-value"/>
    <use id="array-positive-value-21" data-name="array-positive-value" width="36" height="36" transform="translate(480 288)" xlink:href="#array-positive-value"/>
  </g>
  <g id="shift">
    <use width="36" height="36" transform="translate(756 486)" xlink:href="#array-positive-value"/>
    <use width="36" height="36" transform="translate(792 486)" xlink:href="#array-positive-value"/>
    <use width="36" height="36" transform="translate(828 486)" xlink:href="#array-positive-value"/>
  </g>
  <use id="interpolate-amount" width="36" height="36" transform="translate(756 354)" xlink:href="#array-positive-value"/>
  <g id="previous">
    <use width="36" height="36" transform="translate(540 288)" xlink:href="#array-positive-value"/>
    <use width="36" height="36" transform="translate(576 288)" xlink:href="#array-positive-value"/>
    <use width="36" height="36" transform="translate(612 288)" xlink:href="#array-positive-value"/>
    <use width="36" height="36" transform="translate(648 288)" xlink:href="#array-positive-value"/>
    <use width="36" height="36" transform="translate(684 288)" xlink:href="#array-positive-value"/>
  </g>
  <g id="_Group_3" data-name="&lt;Group&gt;">
    <path d="M468,372a12,12,0,0,1-12,12H396a12,12,0,0,1,0-24h60a12,12,0,0,1,12,12h0Z" fill="#596673"/>
  </g>
  <g id="interpolate">
    <use width="36" height="36" transform="translate(336 419)" xlink:href="#array-positive-value"/>
    <use width="36" height="36" transform="translate(372 419)" xlink:href="#array-positive-value"/>
    <use width="36" height="36" transform="translate(408 419)" xlink:href="#array-positive-value"/>
    <use width="36" height="36" transform="translate(444 419)" xlink:href="#array-positive-value"/>
    <use width="36" height="36" transform="translate(480 419)" xlink:href="#array-positive-value"/>
  </g>
  <g id="_Group_4" data-name="&lt;Group&gt;">
    <path d="M468,504a12,12,0,0,1-12,12H396a12,12,0,0,1,0-24h60a12,12,0,0,1,12,12h0Z" fill="#596673"/>
  </g>
  <g id="convolve">
    <use width="36" height="36" transform="translate(335.5 553)" xlink:href="#array-positive-value"/>
    <use width="36" height="36" transform="translate(372 553)" xlink:href="#array-positive-value"/>
    <use width="36" height="36" transform="translate(408 553)" xlink:href="#array-positive-value"/>
    <use width="36" height="36" transform="translate(444 553)" xlink:href="#array-positive-value"/>
    <use width="36" height="36" transform="translate(480 553)" xlink:href="#array-positive-value"/>
  </g>
  <g id="_Group_5" data-name="&lt;Group&gt;">
    <path d="M468,636a12,12,0,0,1-12,12H396a12,12,0,0,1,0-24h60a12,12,0,0,1,12,12h0Z" fill="#596673"/>
  </g>
  <g id="new-attention">
    <use width="36" height="36" transform="translate(336 683)" xlink:href="#array-positive-value"/>
    <use width="36" height="36" transform="translate(372 683)" xlink:href="#array-positive-value"/>
    <use width="36" height="36" transform="translate(408 683)" xlink:href="#array-positive-value"/>
    <use width="36" height="36" transform="translate(444 683)" xlink:href="#array-positive-value"/>
    <use width="36" height="36" transform="translate(480 683)" xlink:href="#array-positive-value"/>
  </g>
  <use width="37" height="37" transform="translate(755.5 89)" xlink:href="#array-1"/>
  <text transform="translate(168 93.12)" font-size="12" fill="#666" font-family="Open Sans">First, the controller gives <tspan x="0" y="18">a query vector and each </tspan><tspan x="0" y="36">memory entry is scored </tspan><tspan x="0" y="54">for similarity with the </tspan><tspan x="0" y="72">query.</tspan></text>
  <text transform="translate(169.5 224.12)" font-size="12" fill="#666" font-family="Open Sans">The scores are then <tspan x="0" y="18">converted into a </tspan><tspan x="0" y="36">distribution using </tspan><tspan x="0" y="54">softmax.</tspan></text>
  <text transform="translate(169.5 357.12)" font-size="12" fill="#666" font-family="Open Sans">Next, we interpolate the <tspan x="0" y="18">attention from the </tspan><tspan x="0" y="36">previous time step. </tspan></text>
  <text transform="translate(169.5 489.12)" font-size="12" fill="#666" font-family="Open Sans">We convolve the <tspan x="0" y="18">attention with a shift </tspan><tspan x="0" y="36">filter — this allows the </tspan><tspan x="0" y="54">controller to move its </tspan><tspan x="0" y="72">focus.</tspan></text>
  <text transform="translate(169.5 622.12)" font-size="12" fill="#666" font-family="Open Sans">Finally, we sharpen the <tspan x="0" y="18">attention distribution. </tspan><tspan x="0" y="36">This final attention </tspan><tspan x="0" y="54">distribution is fed to the </tspan><tspan x="0" y="72">read or write operation.</tspan></text>
  <text transform="translate(397.79 375)" font-size="11" fill="#fff" font-family="Open Sans">interpolate</text>
  <text transform="translate(403.37 507)" font-size="11" fill="#fff" font-family="Open Sans">convolve</text>
  <text transform="translate(404.86 639)" font-size="11" fill="#fff" font-family="Open Sans">sharpen</text>
  <text transform="translate(405.19 243)" font-size="11" fill="#fff" font-family="Open Sans">softmax</text>
  <text transform="translate(395.69 111.17)" font-size="11" fill="#fff" font-family="Open Sans">dot product</text>
  <use id="query" width="36" height="36" transform="translate(756 90)" xlink:href="#array-vector"/>
  <g id="memory">
    <use width="36" height="36" transform="translate(336 24)" xlink:href="#array-vector"/>
    <use width="36" height="36" transform="translate(372 24)" xlink:href="#array-vector"/>
    <use width="36" height="36" transform="translate(408 24)" xlink:href="#array-vector"/>
    <use width="36" height="36" transform="translate(444 24)" xlink:href="#array-vector"/>
    <use width="36" height="36" transform="translate(480 24)" xlink:href="#array-vector"/>
  </g>
  <text transform="translate(528.38 42)" font-size="12" fill="#666" font-family="Open Sans">memory</text>
  <text transform="translate(527.5 168.77)" font-size="12" fill="#666" font-family="Open Sans">Blue shows high similarity, <tspan x="0" y="18">pink high dissimilarity.</tspan></text>
  <text transform="translate(755.5 342)" font-size="12" fill="#666" font-family="Open Sans">interpolation amount</text>
  <text transform="translate(755.5 474)" font-size="12" fill="#666" font-family="Open Sans">shift filter</text>
  <text transform="translate(755.5 12)" font-size="12" fill="#666" font-family="Open Sans">RNN controller</text>
  <text transform="translate(612.32 12)" font-size="12" fill="#666" font-family="Open Sans">attention mechanism</text>
  <text transform="translate(755.5 78)" font-size="12" fill="#666" font-family="Open Sans">query vector</text>
  <text transform="translate(550.36 282)" font-size="12" fill="#666" font-family="Open Sans">attention from previous step</text>
  <text transform="translate(359.23 738)" font-size="11" font-family="Open Sans">new attention distribution</text>
  <text transform="translate(529 430.28)" font-size="12" fill="#666" font-family="Open Sans">Strong values from previous <tspan x="0" y="18">attention show up faintly</tspan></text>
</svg>
