<svg id="background" xmlns="http://www.w3.org/2000/svg" xmlns:xlink="http://www.w3.org/1999/xlink" width="984" height="330" viewBox="0 0 984 330">
  <defs>
    <symbol id="array-small" data-name="array-small" viewBox="0 0 182.08 31.66">
      <rect x="0.75" y="0.75" width="180.58" height="30.16" rx="6" ry="6" fill="#fff" fill-opacity="0.4" stroke="#666" stroke-miterlimit="10" stroke-width="1.5"/>
      <line x1="30.7" y1="30.91" x2="30.7" y2="0.75" fill="none" stroke="#8c8c8c" stroke-miterlimit="10"/>
      <line x1="60.86" y1="30.91" x2="60.86" y2="0.75" fill="none" stroke="#8c8c8c" stroke-miterlimit="10"/>
      <line x1="91.03" y1="30.91" x2="91.03" y2="0.75" fill="none" stroke="#8c8c8c" stroke-miterlimit="10"/>
      <line x1="121.19" y1="30.91" x2="121.19" y2="0.75" fill="none" stroke="#8c8c8c" stroke-miterlimit="10"/>
      <line x1="151.33" y1="30.91" x2="151.33" y2="0.75" fill="none" stroke="#8c8c8c" stroke-miterlimit="10"/>
    </symbol>
    <symbol id="rnn-bg" data-name="rnn-bg" viewBox="0 0 49.5 49.5">
      <rect x="0.75" y="0.75" width="48" height="48" rx="6" ry="6" fill="#fff" fill-opacity="0.8" stroke="#666" stroke-width="1.5"/>
    </symbol>
    <symbol id="rnn-a" data-name="rnn-a" viewBox="0 0 49.5 49.5">
      <use id="rnn-bg-3" data-name="rnn-bg" width="49.5" height="49.5" xlink:href="#rnn-bg"/>
      <path d="M29.77,31.75l-1.93-4.94H21.6l-1.91,4.94H17.86L24,16.14h1.52l6.11,15.61H29.77Zm-2.5-6.57-1.81-4.82q-0.35-.91-0.72-2.24a20.34,20.34,0,0,1-.67,2.24l-1.83,4.82h5Z" fill="#666"/>
    </symbol>
    <symbol id="op-read" data-name="op-read" viewBox="0 0 49.54 25.5">
      <g id="_Group_4" data-name="&lt;Group&gt;">
        <g>
          <path d="M48.83,12.75a12,12,0,0,1-12,12H12.71a12,12,0,1,1,0-24H36.83a12,12,0,0,1,12,12h0Z" fill="#fff"/>
          <path d="M49.54,13.5a12,12,0,0,1-12,12H12a12,12,0,0,1-12-12V12A12,12,0,0,1,12,0H37.54a12,12,0,0,1,12,12v1.5ZM1.43,12.75c0,6.19,5.4,11.25,12,11.25H36.12c6.6,0,12-5.06,12-11.25S42.72,1.5,36.12,1.5H13.43C6.83,1.5,1.43,6.56,1.43,12.75Z" fill="#666"/>
        </g>
      </g>
      <g>
        <path d="M16.25,9.67a3.31,3.31,0,0,1,.69.06L16.8,11a2.6,2.6,0,0,0-.61-0.07,1.76,1.76,0,0,0-1.34.54,2,2,0,0,0-.51,1.4v3.39H13V9.79H14l0.18,1.14h0.07A2.57,2.57,0,0,1,15.13,10,2,2,0,0,1,16.25,9.67Z" fill="#666"/>
        <path d="M21,16.38a3.13,3.13,0,0,1-2.36-.88,3.35,3.35,0,0,1-.85-2.43,3.67,3.67,0,0,1,.79-2.5,2.73,2.73,0,0,1,2.17-.91,2.67,2.67,0,0,1,2,.78,3,3,0,0,1,.74,2.14v0.74H19.16a2.13,2.13,0,0,0,.51,1.45,1.78,1.78,0,0,0,1.35.51,5,5,0,0,0,1.07-.11,5.61,5.61,0,0,0,1.06-.36v1.12a4.23,4.23,0,0,1-1,.34A6.25,6.25,0,0,1,21,16.38Zm-0.25-5.67a1.38,1.38,0,0,0-1.05.42,2,2,0,0,0-.47,1.21h2.94a1.79,1.79,0,0,0-.39-1.22A1.32,1.32,0,0,0,20.71,10.71Z" fill="#666"/>
        <path d="M29.1,16.27l-0.28-.9h0a2.65,2.65,0,0,1-.94.81,3,3,0,0,1-1.22.21,2.06,2.06,0,0,1-1.49-.52,1.93,1.93,0,0,1-.54-1.46,1.71,1.71,0,0,1,.74-1.51,4.29,4.29,0,0,1,2.27-.56l1.12,0V12A1.31,1.31,0,0,0,28.43,11a1.18,1.18,0,0,0-.9-0.31,3.11,3.11,0,0,0-1,.15,7.21,7.21,0,0,0-.88.35l-0.45-1a4.79,4.79,0,0,1,1.15-.42,5.31,5.31,0,0,1,1.18-.14,2.8,2.8,0,0,1,1.87.54,2.11,2.11,0,0,1,.63,1.69v4.37h-1Zm-2.05-.94a1.71,1.71,0,0,0,1.2-.42,1.52,1.52,0,0,0,.45-1.17V13.17l-0.83,0a2.85,2.85,0,0,0-1.42.33,1,1,0,0,0-.44.89,0.87,0.87,0,0,0,.26.67A1.11,1.11,0,0,0,27.05,15.33Z" fill="#666"/>
        <path d="M34.19,16.38a2.26,2.26,0,0,1-1.89-.88A4,4,0,0,1,31.62,13a4,4,0,0,1,.69-2.48,2.28,2.28,0,0,1,1.91-.89,2.23,2.23,0,0,1,1.95.94h0.07a8.25,8.25,0,0,1-.1-1.1V7.15h1.38v9.12H36.44l-0.24-.85H36.13A2.2,2.2,0,0,1,34.19,16.38Zm0.37-1.11a1.5,1.5,0,0,0,1.24-.48,2.51,2.51,0,0,0,.4-1.55V13a2.9,2.9,0,0,0-.4-1.74,1.48,1.48,0,0,0-1.25-.52,1.27,1.27,0,0,0-1.12.59A3,3,0,0,0,33,13.06a2.94,2.94,0,0,0,.38,1.64A1.29,1.29,0,0,0,34.56,15.27Z" fill="#666"/>
      </g>
    </symbol>
    <symbol id="op-write" data-name="op-write" viewBox="0 0 49.54 25.5">
      <g id="_Group_6" data-name="&lt;Group&gt;">
        <g>
          <path d="M48.83,12.75a12,12,0,0,1-12,12H12.71a12,12,0,1,1,0-24H36.83a12,12,0,0,1,12,12h0Z" fill="#fff"/>
          <path d="M49.54,13.5a12,12,0,0,1-12,12H12a12,12,0,0,1-12-12V12A12,12,0,0,1,12,0H37.54a12,12,0,0,1,12,12v1.5ZM1.43,12.75c0,6.19,5.4,11.25,12,11.25H36.12c6.6,0,12-5.06,12-11.25S42.72,1.5,36.12,1.5H13.43C6.83,1.5,1.43,6.56,1.43,12.75Z" fill="#666"/>
        </g>
      </g>
      <g>
        <path d="M16.74,16.25l-0.84-3q-0.15-.48-0.55-2.23H15.3q-0.34,1.58-.54,2.24l-0.86,3H12.37L10.56,9.77H12L12.79,13q0.28,1.18.4,2h0q0.06-.43.18-1t0.21-.83l1-3.41h1.51l1,3.41q0.09,0.29.22,0.88a6.76,6.76,0,0,1,.16.92h0a18,18,0,0,1,.41-2l0.84-3.19h1.38l-1.83,6.48H16.74Z" fill="#666"/>
        <path d="M24.51,9.65a3.31,3.31,0,0,1,.69.06L25.06,11a2.6,2.6,0,0,0-.61-0.07,1.76,1.76,0,0,0-1.34.54,2,2,0,0,0-.51,1.4v3.39H21.23V9.77H22.3l0.18,1.14h0.07A2.57,2.57,0,0,1,23.4,10,2,2,0,0,1,24.51,9.65Z" fill="#666"/>
        <path d="M26.32,8.05a0.76,0.76,0,0,1,.2-0.57,0.79,0.79,0,0,1,.58-0.2,0.77,0.77,0,0,1,.57.2,0.76,0.76,0,0,1,.2.57,0.75,0.75,0,0,1-.2.55,0.76,0.76,0,0,1-.57.2,0.78,0.78,0,0,1-.58-0.2A0.75,0.75,0,0,1,26.32,8.05Zm1.46,8.2H26.4V9.77h1.38v6.48Z" fill="#666"/>
        <path d="M32.16,15.25a3.35,3.35,0,0,0,1-.16v1a2.78,2.78,0,0,1-.59.17,4.06,4.06,0,0,1-.75.07,1.78,1.78,0,0,1-2-2.06V10.81H29V10.2l0.95-.5,0.47-1.37h0.85V9.77H33.1v1H31.26v3.47a1,1,0,0,0,.25.74A0.91,0.91,0,0,0,32.16,15.25Z" fill="#666"/>
        <path d="M37.29,16.37a3.13,3.13,0,0,1-2.36-.88,3.35,3.35,0,0,1-.85-2.43,3.67,3.67,0,0,1,.79-2.5A2.73,2.73,0,0,1,37,9.65a2.67,2.67,0,0,1,2,.78,3,3,0,0,1,.74,2.14v0.74H35.49A2.13,2.13,0,0,0,36,14.77a1.78,1.78,0,0,0,1.35.51,5,5,0,0,0,1.07-.11,5.61,5.61,0,0,0,1.06-.36v1.12a4.23,4.23,0,0,1-1,.34A6.25,6.25,0,0,1,37.29,16.37ZM37,10.7a1.38,1.38,0,0,0-1.05.42,2,2,0,0,0-.47,1.21h2.94a1.79,1.79,0,0,0-.39-1.22A1.32,1.32,0,0,0,37,10.7Z" fill="#666"/>
      </g>
    </symbol>
    <symbol id="array-vector" data-name="array-vector" viewBox="0 0 36 36">
      <rect width="36" height="36" fill="#0080f7" opacity="0"/>
      <g opacity="0.5">
        <g>
          <line x1="18" y1="24" x2="18" y2="13.08" fill="none" stroke="#000" stroke-miterlimit="10"/>
          <polygon points="22.09 16.4 21.36 17.08 18 13.47 14.64 17.08 13.91 16.4 18 12 22.09 16.4"/>
        </g>
      </g>
    </symbol>
  </defs>
  <title>rnn</title>
  <g id="_Group_" data-name="&lt;Group&gt;">
    <rect x="168" y="204" width="648" height="72" rx="10" ry="10" fill="#f0f0f5"/>
    <g opacity="0.1">
      <rect x="168" y="204" width="648" height="72" rx="10" ry="10" fill="none" stroke="#667780"/>
    </g>
  </g>
  <use id="array-small-3" data-name="array-small" width="182.08" height="31.66" transform="translate(112.67 48.44)" xlink:href="#array-small"/>
  <use width="182.08" height="31.66" transform="translate(305.75 48.44)" xlink:href="#array-small"/>
  <use width="182.08" height="31.66" transform="translate(497.75 48.44)" xlink:href="#array-small"/>
  <use width="182.08" height="31.66" transform="translate(689.75 48.44)" xlink:href="#array-small"/>
  <g id="_Group_2" data-name="&lt;Group&gt;">
    <g opacity="0.1">
      <rect x="757.64" y="218" width="48" height="48" rx="6" ry="6" opacity="0.8"/>
      <rect x="757.64" y="218" width="48" height="48" rx="6" ry="6" fill="none" stroke="#000" stroke-width="1.5"/>
      <path d="M786.66,249l-1.93-4.94h-6.23L776.58,249h-1.83l6.14-15.61h1.52L788.53,249h-1.87Zm-2.5-6.57-1.81-4.82q-0.35-.91-0.72-2.24a20.34,20.34,0,0,1-.67,2.24l-1.83,4.82h5Z"/>
    </g>
    <use width="49.5" height="49.5" transform="translate(755.89 215.25)" xlink:href="#rnn-a"/>
  </g>
  <g>
    <path d="M222,84l29.83,29c3.94,3.84,11.67,7,17.17,7h40.89c5.5,0,13.1-3.27,16.88-7.26l23.5-24.8" fill="none" stroke="#666" stroke-miterlimit="10" stroke-width="1.5"/>
    <path d="M354,84a27.2,27.2,0,0,0-2.18,8.53l-2-4.07-4.17-1.82A27.18,27.18,0,0,0,354,84Z" fill="#666"/>
  </g>
  <g>
    <path d="M372,84l-34.93,34.93C333.18,122.82,330,130.5,330,136v46c0,5.5,3.18,13.18,7.07,17.07l25.09,25.09" fill="none" stroke="#666" stroke-miterlimit="10" stroke-width="1.5"/>
    <path d="M366,228a27.2,27.2,0,0,0-8.47-2.41l4.12-1.93,1.93-4.12A27.18,27.18,0,0,0,366,228Z" fill="#666"/>
  </g>
  <g id="_Group_3" data-name="&lt;Group&gt;">
    <g opacity="0.1">
      <path d="M361.83,157.5a12,12,0,0,1-12,12H325.71a12,12,0,0,1,0-24h24.12a12,12,0,0,1,12,12h0Z"/>
      <path d="M362.55,158.25a12,12,0,0,1-12,12H325a12,12,0,0,1-12-12v-1.5a12,12,0,0,1,12-12h25.54a12,12,0,0,1,12,12v1.5Zm-48.12-.75c0,6.19,5.4,11.25,12,11.25h22.69c6.6,0,12-5.06,12-11.25s-5.4-11.25-12-11.25H326.43C319.83,146.25,314.43,151.31,314.43,157.5Z"/>
      <path d="M329.25,154.42a3.31,3.31,0,0,1,.69.06l-0.13,1.28a2.6,2.6,0,0,0-.61-0.07,1.76,1.76,0,0,0-1.34.54,2,2,0,0,0-.51,1.4V161H326v-6.48H327l0.18,1.14h0.07a2.57,2.57,0,0,1,.84-0.92A2,2,0,0,1,329.25,154.42Z"/>
      <path d="M334,161.13a3.13,3.13,0,0,1-2.36-.88,3.35,3.35,0,0,1-.85-2.43,3.67,3.67,0,0,1,.79-2.5,2.73,2.73,0,0,1,2.17-.91,2.67,2.67,0,0,1,2,.78,3,3,0,0,1,.74,2.14v0.74h-4.32a2.13,2.13,0,0,0,.51,1.45A1.78,1.78,0,0,0,334,160a5,5,0,0,0,1.07-.11,5.61,5.61,0,0,0,1.06-.36v1.12a4.23,4.23,0,0,1-1,.34A6.25,6.25,0,0,1,334,161.13Zm-0.25-5.67a1.38,1.38,0,0,0-1.05.42,2,2,0,0,0-.47,1.21h2.94a1.79,1.79,0,0,0-.39-1.22A1.32,1.32,0,0,0,333.71,155.46Z"/>
      <path d="M342.1,161l-0.28-.9h0a2.65,2.65,0,0,1-.94.81,3,3,0,0,1-1.22.21,2.06,2.06,0,0,1-1.49-.52,1.93,1.93,0,0,1-.54-1.46,1.71,1.71,0,0,1,.74-1.51,4.29,4.29,0,0,1,2.27-.56l1.12,0v-0.35a1.31,1.31,0,0,0-.29-0.93,1.18,1.18,0,0,0-.9-0.31,3.11,3.11,0,0,0-1,.15,7.21,7.21,0,0,0-.88.35l-0.45-1a4.79,4.79,0,0,1,1.15-.42,5.31,5.31,0,0,1,1.18-.14,2.8,2.8,0,0,1,1.87.54,2.11,2.11,0,0,1,.63,1.69V161h-1Zm-2.05-.94a1.71,1.71,0,0,0,1.2-.42,1.52,1.52,0,0,0,.45-1.17v-0.56l-0.83,0a2.85,2.85,0,0,0-1.42.33,1,1,0,0,0-.44.89,0.87,0.87,0,0,0,.26.67A1.11,1.11,0,0,0,340.05,160.08Z"/>
      <path d="M347.19,161.13a2.26,2.26,0,0,1-1.89-.88,4.82,4.82,0,0,1,0-4.95,2.28,2.28,0,0,1,1.91-.89,2.23,2.23,0,0,1,1.95.94h0.07a8.25,8.25,0,0,1-.1-1.1V151.9h1.38V161h-1.08l-0.24-.85h-0.06A2.2,2.2,0,0,1,347.19,161.13Zm0.37-1.11a1.5,1.5,0,0,0,1.24-.48,2.51,2.51,0,0,0,.4-1.55V157.8a2.9,2.9,0,0,0-.4-1.74,1.48,1.48,0,0,0-1.25-.52,1.27,1.27,0,0,0-1.12.59,3,3,0,0,0-.39,1.68,2.94,2.94,0,0,0,.38,1.64A1.29,1.29,0,0,0,347.56,160Z"/>
    </g>
    <use width="49.54" height="25.5" transform="translate(312 142.75)" xlink:href="#op-read"/>
  </g>
  <g id="_Group_5" data-name="&lt;Group&gt;">
    <g opacity="0.1">
      <path d="M318.29,122.5a12,12,0,0,1-12,12H282.17a12,12,0,0,1,0-24h24.12a12,12,0,0,1,12,12h0Z"/>
      <path d="M319,123.25a12,12,0,0,1-12,12H281.46a12,12,0,0,1-12-12v-1.5a12,12,0,0,1,12-12H307a12,12,0,0,1,12,12v1.5Zm-48.12-.75c0,6.19,5.4,11.25,12,11.25h22.69c6.6,0,12-5.06,12-11.25s-5.4-11.25-12-11.25H282.88C276.28,111.25,270.88,116.31,270.88,122.5Z"/>
      <path d="M286.2,126l-0.84-3q-0.15-.48-0.55-2.23h-0.05q-0.34,1.58-.54,2.24l-0.86,3h-1.52L280,119.52h1.41l0.83,3.19q0.28,1.18.4,2h0q0.06-.43.18-1t0.21-.83l1-3.41h1.51l1,3.41q0.09,0.29.22,0.88a6.76,6.76,0,0,1,.16.92h0a18,18,0,0,1,.41-2l0.84-3.19h1.38L287.74,126H286.2Z"/>
      <path d="M294,119.4a3.31,3.31,0,0,1,.69.06l-0.13,1.28a2.6,2.6,0,0,0-.61-0.07,1.76,1.76,0,0,0-1.34.54,2,2,0,0,0-.51,1.4V126h-1.38v-6.48h1.08l0.18,1.14H292a2.57,2.57,0,0,1,.84-0.92A2,2,0,0,1,294,119.4Z"/>
      <path d="M295.78,117.8a0.76,0.76,0,0,1,.2-0.57,0.79,0.79,0,0,1,.58-0.2,0.77,0.77,0,0,1,.57.2,0.76,0.76,0,0,1,.2.57,0.75,0.75,0,0,1-.2.55,0.76,0.76,0,0,1-.57.2,0.78,0.78,0,0,1-.58-0.2A0.75,0.75,0,0,1,295.78,117.8Zm1.46,8.2h-1.38v-6.48h1.38V126Z"/>
      <path d="M301.62,125a3.35,3.35,0,0,0,1-.16v1a2.78,2.78,0,0,1-.59.17,4.06,4.06,0,0,1-.75.07,1.78,1.78,0,0,1-2-2.06v-3.49h-0.88V120l0.95-.5,0.47-1.37h0.85v1.44h1.85v1h-1.85V124a1,1,0,0,0,.25.74A0.91,0.91,0,0,0,301.62,125Z"/>
      <path d="M306.75,126.12a3.13,3.13,0,0,1-2.36-.88,3.35,3.35,0,0,1-.85-2.43,3.67,3.67,0,0,1,.79-2.5,2.73,2.73,0,0,1,2.17-.91,2.67,2.67,0,0,1,2,.78,3,3,0,0,1,.74,2.14v0.74H305a2.13,2.13,0,0,0,.51,1.45,1.78,1.78,0,0,0,1.35.51,5,5,0,0,0,1.07-.11,5.61,5.61,0,0,0,1.06-.36v1.12a4.23,4.23,0,0,1-1,.34A6.25,6.25,0,0,1,306.75,126.12Zm-0.25-5.67a1.38,1.38,0,0,0-1.05.42,2,2,0,0,0-.47,1.21h2.94a1.79,1.79,0,0,0-.39-1.22A1.32,1.32,0,0,0,306.5,120.45Z"/>
    </g>
    <use width="49.54" height="25.5" transform="translate(268.46 107.75)" xlink:href="#op-write"/>
  </g>
  <g opacity="0.4">
    <g>
      <path d="M222,216l64.93-64.93c3.45-3.45,6.35-7.94,7-10.64" fill="none" stroke="#666" stroke-miterlimit="10" stroke-width="1.5"/>
      <path d="M294,135a27.2,27.2,0,0,0,3.93,7.88l-4.21-1.74-4.34,1.36A27.17,27.17,0,0,0,294,135Z" fill="#666"/>
    </g>
  </g>
  <g>
    <path d="M414,84l29.83,29c3.94,3.84,11.67,7,17.17,7h40.89c5.5,0,13.1-3.27,16.88-7.26l23.5-24.8" fill="none" stroke="#666" stroke-miterlimit="10" stroke-width="1.5"/>
    <path d="M546,84a27.2,27.2,0,0,0-2.18,8.53l-2-4.07-4.17-1.82A27.18,27.18,0,0,0,546,84Z" fill="#666"/>
  </g>
  <g>
    <path d="M564,84l-34,34.84c-3.84,3.94-7,11.66-7,17.16v46c0,5.5,3.14,13.23,7,17.17l24.24,24.94" fill="none" stroke="#666" stroke-miterlimit="10" stroke-width="1.5"/>
    <path d="M558,228a27.2,27.2,0,0,0-8.43-2.53l4.15-1.87,2-4.09A27.17,27.17,0,0,0,558,228Z" fill="#666"/>
  </g>
  <g id="_Group_7" data-name="&lt;Group&gt;">
    <g opacity="0.1">
      <path d="M553.83,157.5a12,12,0,0,1-12,12H517.71a12,12,0,0,1,0-24h24.12a12,12,0,0,1,12,12h0Z"/>
      <path d="M554.55,158.25a12,12,0,0,1-12,12H517a12,12,0,0,1-12-12v-1.5a12,12,0,0,1,12-12h25.54a12,12,0,0,1,12,12v1.5Zm-48.12-.75c0,6.19,5.4,11.25,12,11.25h22.69c6.6,0,12-5.06,12-11.25s-5.4-11.25-12-11.25H518.43C511.83,146.25,506.43,151.31,506.43,157.5Z"/>
      <path d="M521.25,154.42a3.31,3.31,0,0,1,.69.06l-0.13,1.28a2.6,2.6,0,0,0-.61-0.07,1.76,1.76,0,0,0-1.34.54,2,2,0,0,0-.51,1.4V161H518v-6.48H519l0.18,1.14h0.07a2.57,2.57,0,0,1,.84-0.92A2,2,0,0,1,521.25,154.42Z"/>
      <path d="M526,161.13a3.13,3.13,0,0,1-2.36-.88,3.35,3.35,0,0,1-.85-2.43,3.67,3.67,0,0,1,.79-2.5,2.73,2.73,0,0,1,2.17-.91,2.67,2.67,0,0,1,2,.78,3,3,0,0,1,.74,2.14v0.74h-4.32a2.13,2.13,0,0,0,.51,1.45A1.78,1.78,0,0,0,526,160a5,5,0,0,0,1.07-.11,5.61,5.61,0,0,0,1.06-.36v1.12a4.23,4.23,0,0,1-1,.34A6.25,6.25,0,0,1,526,161.13Zm-0.25-5.67a1.38,1.38,0,0,0-1.05.42,2,2,0,0,0-.47,1.21h2.94a1.79,1.79,0,0,0-.39-1.22A1.32,1.32,0,0,0,525.71,155.46Z"/>
      <path d="M534.1,161l-0.28-.9h0a2.65,2.65,0,0,1-.94.81,3,3,0,0,1-1.22.21,2.06,2.06,0,0,1-1.49-.52,1.93,1.93,0,0,1-.54-1.46,1.71,1.71,0,0,1,.74-1.51,4.29,4.29,0,0,1,2.27-.56l1.12,0v-0.35a1.31,1.31,0,0,0-.29-0.93,1.18,1.18,0,0,0-.9-0.31,3.11,3.11,0,0,0-1,.15,7.21,7.21,0,0,0-.88.35l-0.45-1a4.79,4.79,0,0,1,1.15-.42,5.31,5.31,0,0,1,1.18-.14,2.8,2.8,0,0,1,1.87.54,2.11,2.11,0,0,1,.63,1.69V161h-1Zm-2.05-.94a1.71,1.71,0,0,0,1.2-.42,1.52,1.52,0,0,0,.45-1.17v-0.56l-0.83,0a2.85,2.85,0,0,0-1.42.33,1,1,0,0,0-.44.89,0.87,0.87,0,0,0,.26.67A1.11,1.11,0,0,0,532.05,160.08Z"/>
      <path d="M539.19,161.13a2.26,2.26,0,0,1-1.89-.88,4.82,4.82,0,0,1,0-4.95,2.28,2.28,0,0,1,1.91-.89,2.23,2.23,0,0,1,1.95.94h0.07a8.25,8.25,0,0,1-.1-1.1V151.9h1.38V161h-1.08l-0.24-.85h-0.06A2.2,2.2,0,0,1,539.19,161.13Zm0.37-1.11a1.5,1.5,0,0,0,1.24-.48,2.51,2.51,0,0,0,.4-1.55V157.8a2.9,2.9,0,0,0-.4-1.74,1.48,1.48,0,0,0-1.25-.52,1.27,1.27,0,0,0-1.12.59,3,3,0,0,0-.39,1.68,2.94,2.94,0,0,0,.38,1.64A1.29,1.29,0,0,0,539.56,160Z"/>
    </g>
    <use width="49.54" height="25.5" transform="translate(504 142.75)" xlink:href="#op-read"/>
  </g>
  <g id="_Group_9" data-name="&lt;Group&gt;">
    <g opacity="0.1">
      <path d="M510.29,122.5a12,12,0,0,1-12,12H474.17a12,12,0,0,1,0-24h24.12a12,12,0,0,1,12,12h0Z"/>
      <path d="M511,123.25a12,12,0,0,1-12,12H473.46a12,12,0,0,1-12-12v-1.5a12,12,0,0,1,12-12H499a12,12,0,0,1,12,12v1.5Zm-48.12-.75c0,6.19,5.4,11.25,12,11.25h22.69c6.6,0,12-5.06,12-11.25s-5.4-11.25-12-11.25H474.88C468.28,111.25,462.88,116.31,462.88,122.5Z"/>
      <path d="M478.2,126l-0.84-3q-0.15-.48-0.55-2.23h-0.05q-0.34,1.58-.54,2.24l-0.86,3h-1.52L472,119.52h1.41l0.83,3.19q0.28,1.18.4,2h0q0.06-.43.18-1t0.21-.83l1-3.41h1.51l1,3.41q0.09,0.29.22,0.88a6.76,6.76,0,0,1,.16.92h0a18,18,0,0,1,.41-2l0.84-3.19h1.38L479.74,126H478.2Z"/>
      <path d="M486,119.4a3.31,3.31,0,0,1,.69.06l-0.13,1.28a2.6,2.6,0,0,0-.61-0.07,1.76,1.76,0,0,0-1.34.54,2,2,0,0,0-.51,1.4V126h-1.38v-6.48h1.08l0.18,1.14H484a2.57,2.57,0,0,1,.84-0.92A2,2,0,0,1,486,119.4Z"/>
      <path d="M487.78,117.8a0.76,0.76,0,0,1,.2-0.57,0.79,0.79,0,0,1,.58-0.2,0.77,0.77,0,0,1,.57.2,0.76,0.76,0,0,1,.2.57,0.75,0.75,0,0,1-.2.55,0.76,0.76,0,0,1-.57.2,0.78,0.78,0,0,1-.58-0.2A0.75,0.75,0,0,1,487.78,117.8Zm1.46,8.2h-1.38v-6.48h1.38V126Z"/>
      <path d="M493.62,125a3.35,3.35,0,0,0,1-.16v1a2.78,2.78,0,0,1-.59.17,4.06,4.06,0,0,1-.75.07,1.78,1.78,0,0,1-2-2.06v-3.49h-0.88V120l0.95-.5,0.47-1.37h0.85v1.44h1.85v1h-1.85V124a1,1,0,0,0,.25.74A0.91,0.91,0,0,0,493.62,125Z"/>
      <path d="M498.75,126.12a3.13,3.13,0,0,1-2.36-.88,3.35,3.35,0,0,1-.85-2.43,3.67,3.67,0,0,1,.79-2.5,2.73,2.73,0,0,1,2.17-.91,2.67,2.67,0,0,1,2,.78,3,3,0,0,1,.74,2.14v0.74H497a2.13,2.13,0,0,0,.51,1.45,1.78,1.78,0,0,0,1.35.51,5,5,0,0,0,1.07-.11,5.61,5.61,0,0,0,1.06-.36v1.12a4.23,4.23,0,0,1-1,.34A6.25,6.25,0,0,1,498.75,126.12Zm-0.25-5.67a1.38,1.38,0,0,0-1.05.42,2,2,0,0,0-.47,1.21h2.94a1.79,1.79,0,0,0-.39-1.22A1.32,1.32,0,0,0,498.5,120.45Z"/>
    </g>
    <use width="49.54" height="25.5" transform="translate(460.46 107.75)" xlink:href="#op-write"/>
  </g>
  <g opacity="0.4">
    <g>
      <path d="M414,216l64.93-64.93c3.7-3.7,6.75-8.78,7-11.64" fill="none" stroke="#666" stroke-miterlimit="10" stroke-width="1.5"/>
      <path d="M486,134a27.2,27.2,0,0,0,4.13,7.77l-4.25-1.63-4.31,1.46A27.18,27.18,0,0,0,486,134Z" fill="#666"/>
    </g>
  </g>
  <g>
    <path d="M606,84l29.83,29c3.94,3.84,11.67,7,17.17,7h40.89c5.5,0,13.1-3.27,16.88-7.26l23.5-24.8" fill="none" stroke="#666" stroke-miterlimit="10" stroke-width="1.5"/>
    <path d="M738,84a27.2,27.2,0,0,0-2.18,8.53l-2-4.07-4.17-1.82A27.18,27.18,0,0,0,738,84Z" fill="#666"/>
  </g>
  <g>
    <path d="M756,84l-34.93,34.93C717.18,122.82,714,130.5,714,136v46c0,5.5,3.18,13.18,7.07,17.07l25.09,25.09" fill="none" stroke="#666" stroke-miterlimit="10" stroke-width="1.5"/>
    <path d="M750,228a27.2,27.2,0,0,0-8.47-2.41l4.12-1.93,1.93-4.12A27.18,27.18,0,0,0,750,228Z" fill="#666"/>
  </g>
  <g id="_Group_11" data-name="&lt;Group&gt;">
    <g opacity="0.1">
      <path d="M745.83,157.5a12,12,0,0,1-12,12H709.71a12,12,0,0,1,0-24h24.12a12,12,0,0,1,12,12h0Z"/>
      <path d="M746.55,158.25a12,12,0,0,1-12,12H709a12,12,0,0,1-12-12v-1.5a12,12,0,0,1,12-12h25.54a12,12,0,0,1,12,12v1.5Zm-48.12-.75c0,6.19,5.4,11.25,12,11.25h22.69c6.6,0,12-5.06,12-11.25s-5.4-11.25-12-11.25H710.43C703.83,146.25,698.43,151.31,698.43,157.5Z"/>
      <path d="M713.25,154.42a3.31,3.31,0,0,1,.69.06l-0.13,1.28a2.6,2.6,0,0,0-.61-0.07,1.76,1.76,0,0,0-1.34.54,2,2,0,0,0-.51,1.4V161H710v-6.48H711l0.18,1.14h0.07a2.57,2.57,0,0,1,.84-0.92A2,2,0,0,1,713.25,154.42Z"/>
      <path d="M718,161.13a3.13,3.13,0,0,1-2.36-.88,3.35,3.35,0,0,1-.85-2.43,3.67,3.67,0,0,1,.79-2.5,2.73,2.73,0,0,1,2.17-.91,2.67,2.67,0,0,1,2,.78,3,3,0,0,1,.74,2.14v0.74h-4.32a2.13,2.13,0,0,0,.51,1.45A1.78,1.78,0,0,0,718,160a5,5,0,0,0,1.07-.11,5.61,5.61,0,0,0,1.06-.36v1.12a4.23,4.23,0,0,1-1,.34A6.25,6.25,0,0,1,718,161.13Zm-0.25-5.67a1.38,1.38,0,0,0-1.05.42,2,2,0,0,0-.47,1.21h2.94a1.79,1.79,0,0,0-.39-1.22A1.32,1.32,0,0,0,717.71,155.46Z"/>
      <path d="M726.1,161l-0.28-.9h0a2.65,2.65,0,0,1-.94.81,3,3,0,0,1-1.22.21,2.06,2.06,0,0,1-1.49-.52,1.93,1.93,0,0,1-.54-1.46,1.71,1.71,0,0,1,.74-1.51,4.29,4.29,0,0,1,2.27-.56l1.12,0v-0.35a1.31,1.31,0,0,0-.29-0.93,1.18,1.18,0,0,0-.9-0.31,3.11,3.11,0,0,0-1,.15,7.21,7.21,0,0,0-.88.35l-0.45-1a4.79,4.79,0,0,1,1.15-.42,5.31,5.31,0,0,1,1.18-.14,2.8,2.8,0,0,1,1.87.54,2.11,2.11,0,0,1,.63,1.69V161h-1Zm-2.05-.94a1.71,1.71,0,0,0,1.2-.42,1.52,1.52,0,0,0,.45-1.17v-0.56l-0.83,0a2.85,2.85,0,0,0-1.42.33,1,1,0,0,0-.44.89,0.87,0.87,0,0,0,.26.67A1.11,1.11,0,0,0,724.05,160.08Z"/>
      <path d="M731.19,161.13a2.26,2.26,0,0,1-1.89-.88,4.82,4.82,0,0,1,0-4.95,2.28,2.28,0,0,1,1.91-.89,2.23,2.23,0,0,1,1.95.94h0.07a8.25,8.25,0,0,1-.1-1.1V151.9h1.38V161h-1.08l-0.24-.85h-0.06A2.2,2.2,0,0,1,731.19,161.13Zm0.37-1.11a1.5,1.5,0,0,0,1.24-.48,2.51,2.51,0,0,0,.4-1.55V157.8a2.9,2.9,0,0,0-.4-1.74,1.48,1.48,0,0,0-1.25-.52,1.27,1.27,0,0,0-1.12.59,3,3,0,0,0-.39,1.68,2.94,2.94,0,0,0,.38,1.64A1.29,1.29,0,0,0,731.56,160Z"/>
    </g>
    <use width="49.54" height="25.5" transform="translate(696 142.75)" xlink:href="#op-read"/>
  </g>
  <g id="_Group_13" data-name="&lt;Group&gt;">
    <g opacity="0.1">
      <path d="M702.29,122.5a12,12,0,0,1-12,12H666.17a12,12,0,0,1,0-24h24.12a12,12,0,0,1,12,12h0Z"/>
      <path d="M703,123.25a12,12,0,0,1-12,12H665.46a12,12,0,0,1-12-12v-1.5a12,12,0,0,1,12-12H691a12,12,0,0,1,12,12v1.5Zm-48.12-.75c0,6.19,5.4,11.25,12,11.25h22.69c6.6,0,12-5.06,12-11.25s-5.4-11.25-12-11.25H666.88C660.28,111.25,654.88,116.31,654.88,122.5Z"/>
      <path d="M670.2,126l-0.84-3q-0.15-.48-0.55-2.23h-0.05q-0.34,1.58-.54,2.24l-0.86,3h-1.52L664,119.52h1.41l0.83,3.19q0.28,1.18.4,2h0q0.06-.43.18-1t0.21-.83l1-3.41h1.51l1,3.41q0.09,0.29.22,0.88a6.76,6.76,0,0,1,.16.92h0a18,18,0,0,1,.41-2l0.84-3.19h1.38L671.74,126H670.2Z"/>
      <path d="M678,119.4a3.31,3.31,0,0,1,.69.06l-0.13,1.28a2.6,2.6,0,0,0-.61-0.07,1.76,1.76,0,0,0-1.34.54,2,2,0,0,0-.51,1.4V126h-1.38v-6.48h1.08l0.18,1.14H676a2.57,2.57,0,0,1,.84-0.92A2,2,0,0,1,678,119.4Z"/>
      <path d="M679.78,117.8a0.76,0.76,0,0,1,.2-0.57,0.79,0.79,0,0,1,.58-0.2,0.77,0.77,0,0,1,.57.2,0.76,0.76,0,0,1,.2.57,0.75,0.75,0,0,1-.2.55,0.76,0.76,0,0,1-.57.2,0.78,0.78,0,0,1-.58-0.2A0.75,0.75,0,0,1,679.78,117.8Zm1.46,8.2h-1.38v-6.48h1.38V126Z"/>
      <path d="M685.62,125a3.35,3.35,0,0,0,1-.16v1a2.78,2.78,0,0,1-.59.17,4.06,4.06,0,0,1-.75.07,1.78,1.78,0,0,1-2-2.06v-3.49h-0.88V120l0.95-.5,0.47-1.37h0.85v1.44h1.85v1h-1.85V124a1,1,0,0,0,.25.74A0.91,0.91,0,0,0,685.62,125Z"/>
      <path d="M690.75,126.12a3.13,3.13,0,0,1-2.36-.88,3.35,3.35,0,0,1-.85-2.43,3.67,3.67,0,0,1,.79-2.5,2.73,2.73,0,0,1,2.17-.91,2.67,2.67,0,0,1,2,.78,3,3,0,0,1,.74,2.14v0.74H689a2.13,2.13,0,0,0,.51,1.45,1.78,1.78,0,0,0,1.35.51,5,5,0,0,0,1.07-.11,5.61,5.61,0,0,0,1.06-.36v1.12a4.23,4.23,0,0,1-1,.34A6.25,6.25,0,0,1,690.75,126.12Zm-0.25-5.67a1.38,1.38,0,0,0-1.05.42,2,2,0,0,0-.47,1.21h2.94a1.79,1.79,0,0,0-.39-1.22A1.32,1.32,0,0,0,690.5,120.45Z"/>
    </g>
    <use width="49.54" height="25.5" transform="translate(652.46 107.75)" xlink:href="#op-write"/>
  </g>
  <g opacity="0.4">
    <g>
      <path d="M606,216l64.93-64.93c3.7-3.7,6.75-8.78,7-11.64" fill="none" stroke="#666" stroke-miterlimit="10" stroke-width="1.5"/>
      <path d="M678,134a27.2,27.2,0,0,0,4.13,7.77l-4.25-1.63-4.31,1.46A27.18,27.18,0,0,0,678,134Z" fill="#666"/>
    </g>
  </g>
  <g opacity="0.4">
    <g>
      <path d="M222,234l70.93-70.93c3.7-3.7,8.78-6.75,11.64-7" fill="none" stroke="#666" stroke-miterlimit="10" stroke-width="1.5"/>
      <path d="M310,156a27.2,27.2,0,0,0-7.61,4.43l1.46-4.31-1.63-4.25A27.18,27.18,0,0,0,310,156Z" fill="#666"/>
    </g>
  </g>
  <g opacity="0.4">
    <g>
      <path d="M414,234l70.93-70.93c3.7-3.7,8.78-6.75,11.64-7" fill="none" stroke="#666" stroke-miterlimit="10" stroke-width="1.5"/>
      <path d="M502,156a27.2,27.2,0,0,0-7.61,4.43l1.46-4.31-1.63-4.25A27.18,27.18,0,0,0,502,156Z" fill="#666"/>
    </g>
  </g>
  <g opacity="0.4">
    <g>
      <path d="M606,234l70.93-70.93c3.7-3.7,8.78-6.75,11.64-7" fill="none" stroke="#666" stroke-miterlimit="10" stroke-width="1.5"/>
      <path d="M694,156a27.2,27.2,0,0,0-7.61,4.43l1.46-4.31-1.63-4.25A27.18,27.18,0,0,0,694,156Z" fill="#666"/>
    </g>
  </g>
  <g>
    <g opacity="0.1">
      <rect x="372.14" y="218" width="48" height="48" rx="6" ry="6" opacity="0.8"/>
      <rect x="372.14" y="218" width="48" height="48" rx="6" ry="6" fill="none" stroke="#000" stroke-width="1.5"/>
      <path d="M401.16,249l-1.93-4.94H393L391.08,249h-1.83l6.14-15.61h1.52L403,249h-1.87Zm-2.5-6.57-1.81-4.82q-0.35-.91-0.72-2.24a20.34,20.34,0,0,1-.67,2.24l-1.83,4.82h5Z"/>
    </g>
    <use width="49.5" height="49.5" transform="translate(370.39 215.25)" xlink:href="#rnn-a"/>
  </g>
  <g>
    <g opacity="0.1">
      <rect x="565.64" y="218" width="48" height="48" rx="6" ry="6" opacity="0.8"/>
      <rect x="565.64" y="218" width="48" height="48" rx="6" ry="6" fill="none" stroke="#000" stroke-width="1.5"/>
      <path d="M594.66,249l-1.93-4.94h-6.23L584.58,249h-1.83l6.14-15.61h1.52L596.53,249h-1.87Zm-2.5-6.57-1.81-4.82q-0.35-.91-0.72-2.24a20.34,20.34,0,0,1-.67,2.24l-1.83,4.82h5Z"/>
    </g>
    <use width="49.5" height="49.5" transform="translate(563.89 215.25)" xlink:href="#rnn-a"/>
  </g>
  <g>
    <g opacity="0.1">
      <rect x="181.64" y="218" width="48" height="48" rx="6" ry="6" opacity="0.8"/>
      <rect x="181.64" y="218" width="48" height="48" rx="6" ry="6" fill="none" stroke="#000" stroke-width="1.5"/>
      <path d="M210.66,249l-1.93-4.94h-6.23L200.58,249h-1.83l6.14-15.61h1.52L212.53,249h-1.87Zm-2.5-6.57-1.81-4.82q-0.35-.91-0.72-2.24a20.34,20.34,0,0,1-.67,2.24l-1.83,4.82h5Z"/>
    </g>
    <use width="49.5" height="49.5" transform="translate(179.89 215.25)" xlink:href="#rnn-a"/>
  </g>
  <g opacity="0.6">
    <text transform="translate(115 33)" font-size="12" font-family="Open Sans">Memory is an array of vectors</text>
  </g>
  <g opacity="0.6">
    <text transform="translate(114 118.28)" font-size="12" font-family="Open Sans">Network A <tspan x="0" y="18">writes and reads </tspan><tspan x="0" y="36">from this memory </tspan><tspan x="0" y="54">each step</tspan></text>
  </g>
  <g>
    <line x1="228.89" y1="240" x2="362.21" y2="240" fill="none" stroke="#666" stroke-miterlimit="10" stroke-width="1.5"/>
    <path d="M367.64,240a27.2,27.2,0,0,0-7.69,4.28L361.5,240l-1.55-4.28A27.18,27.18,0,0,0,367.64,240Z" fill="#666"/>
  </g>
  <g>
    <line x1="420.89" y1="240" x2="554.21" y2="240" fill="none" stroke="#666" stroke-miterlimit="10" stroke-width="1.5"/>
    <path d="M559.64,240a27.2,27.2,0,0,0-7.69,4.28L553.5,240l-1.55-4.28A27.18,27.18,0,0,0,559.64,240Z" fill="#666"/>
  </g>
  <g>
    <line x1="612.89" y1="240" x2="746.21" y2="240" fill="none" stroke="#666" stroke-miterlimit="10" stroke-width="1.5"/>
    <path d="M751.64,240a27.2,27.2,0,0,0-7.69,4.28L745.5,240l-1.55-4.28A27.18,27.18,0,0,0,751.64,240Z" fill="#666"/>
  </g>
  <text transform="translate(187.82 306)" font-size="12" fill="#666" font-family="Open Sans">x0</text>
  <text transform="translate(211.94 306)" font-size="12" fill="#666" font-family="Open Sans">y0</text>
  <g>
    <line x1="193.39" y1="291.08" x2="193.39" y2="274.01" fill="none" stroke="#666" stroke-miterlimit="10" stroke-width="1.5"/>
    <path d="M193.39,268.58a27.2,27.2,0,0,0,4.28,7.69l-4.28-1.55-4.28,1.55A27.18,27.18,0,0,0,193.39,268.58Z" fill="#666"/>
  </g>
  <g>
    <line x1="217.39" y1="264.58" x2="217.39" y2="285.65" fill="none" stroke="#666" stroke-miterlimit="10" stroke-width="1.5"/>
    <path d="M217.39,291.08a27.2,27.2,0,0,0-4.28-7.69l4.28,1.55,4.28-1.55A27.18,27.18,0,0,0,217.39,291.08Z" fill="#666"/>
  </g>
  <g>
    <line x1="382.39" y1="292.41" x2="382.39" y2="274.01" fill="none" stroke="#666" stroke-miterlimit="10" stroke-width="1.5"/>
    <path d="M382.39,268.58a27.2,27.2,0,0,0,4.28,7.69l-4.28-1.55-4.28,1.55A27.18,27.18,0,0,0,382.39,268.58Z" fill="#666"/>
  </g>
  <g>
    <line x1="407.39" y1="264.58" x2="407.39" y2="286.98" fill="none" stroke="#666" stroke-miterlimit="10" stroke-width="1.5"/>
    <path d="M407.39,292.41a27.2,27.2,0,0,0-4.28-7.69l4.28,1.55,4.28-1.55A27.18,27.18,0,0,0,407.39,292.41Z" fill="#666"/>
  </g>
  <g>
    <line x1="575.22" y1="292.41" x2="575.22" y2="274.01" fill="none" stroke="#666" stroke-miterlimit="10" stroke-width="1.5"/>
    <path d="M575.22,268.58a27.2,27.2,0,0,0,4.28,7.69l-4.28-1.55-4.28,1.55A27.18,27.18,0,0,0,575.22,268.58Z" fill="#666"/>
  </g>
  <g>
    <line x1="600.22" y1="264.58" x2="600.22" y2="286.98" fill="none" stroke="#666" stroke-miterlimit="10" stroke-width="1.5"/>
    <path d="M600.22,292.41a27.2,27.2,0,0,0-4.28-7.69l4.28,1.55,4.28-1.55A27.18,27.18,0,0,0,600.22,292.41Z" fill="#666"/>
  </g>
  <text transform="translate(375.48 306)" font-size="12" fill="#666" font-family="Open Sans">x1</text>
  <text transform="translate(399.6 306)" font-size="12" fill="#666" font-family="Open Sans">y1</text>
  <text transform="translate(568.32 306)" font-size="12" fill="#666" font-family="Open Sans">x2</text>
  <text transform="translate(592.44 306)" font-size="12" fill="#666" font-family="Open Sans">y2</text>
  <g>
    <line x1="767.22" y1="292.41" x2="767.22" y2="274.01" fill="none" stroke="#666" stroke-miterlimit="10" stroke-width="1.5"/>
    <path d="M767.22,268.58a27.2,27.2,0,0,0,4.28,7.69l-4.28-1.55-4.28,1.55A27.18,27.18,0,0,0,767.22,268.58Z" fill="#666"/>
  </g>
  <g>
    <line x1="792.22" y1="264.58" x2="792.22" y2="286.98" fill="none" stroke="#666" stroke-miterlimit="10" stroke-width="1.5"/>
    <path d="M792.22,292.41a27.2,27.2,0,0,0-4.28-7.69l4.28,1.55,4.28-1.55A27.18,27.18,0,0,0,792.22,292.41Z" fill="#666"/>
  </g>
  <text transform="translate(760.32 306)" font-size="12" fill="#666" font-family="Open Sans">x2</text>
  <text transform="translate(784.44 306)" font-size="12" fill="#666" font-family="Open Sans">y2</text>
  <use width="36" height="36" transform="translate(114 47.96) scale(0.83)" xlink:href="#array-vector"/>
  <use id="array-vector-5" data-name="array-vector" width="36" height="36" transform="translate(144.04 49.22) scale(0.83)" xlink:href="#array-vector"/>
  <use width="36" height="36" transform="translate(174.08 49.22) scale(0.83)" xlink:href="#array-vector"/>
  <use id="array-vector-10" data-name="array-vector" width="36" height="36" transform="translate(204.13 48.22) scale(0.83)" xlink:href="#array-vector"/>
  <use width="36" height="36" transform="matrix(0.59, 0.59, -0.59, 0.59, 321.02, 43)" xlink:href="#array-vector"/>
  <use width="36" height="36" transform="translate(336.04 49.22) scale(0.83)" xlink:href="#array-vector"/>
  <use width="36" height="36" transform="translate(366.08 49.22) scale(0.83)" xlink:href="#array-vector"/>
  <use width="36" height="36" transform="translate(396.13 49.22) scale(0.83)" xlink:href="#array-vector"/>
  <use width="36" height="36" transform="matrix(0.59, 0.59, -0.59, 0.59, 513.02, 43)" xlink:href="#array-vector"/>
  <use width="36" height="36" transform="matrix(0.59, 0.59, -0.59, 0.59, 543.06, 43)" xlink:href="#array-vector"/>
  <use width="36" height="36" transform="translate(558.08 49.22) scale(0.83)" xlink:href="#array-vector"/>
  <use width="36" height="36" transform="translate(588.13 49.22) scale(0.83)" xlink:href="#array-vector"/>
  <use width="36" height="36" transform="matrix(0.59, 0.59, -0.59, 0.59, 705.02, 43)" xlink:href="#array-vector"/>
  <use width="36" height="36" transform="matrix(0.59, 0.59, -0.59, 0.59, 735.06, 43)" xlink:href="#array-vector"/>
  <use width="36" height="36" transform="matrix(0.59, 0.59, -0.59, 0.59, 765.1, 43)" xlink:href="#array-vector"/>
  <use width="36" height="36" transform="translate(780.13 49.22) scale(0.83)" xlink:href="#array-vector"/>
  <use width="36" height="36" transform="translate(234 49.22) scale(0.83)" xlink:href="#array-vector"/>
  <use width="36" height="36" transform="translate(426 49.22) scale(0.83)" xlink:href="#array-vector"/>
  <use width="36" height="36" transform="translate(456 49.22) scale(0.83)" xlink:href="#array-vector"/>
  <use id="array-vector-43" data-name="array-vector" width="36" height="36" transform="translate(264 48.22) scale(0.83)" xlink:href="#array-vector"/>
  <use width="36" height="36" transform="translate(618 49.22) scale(0.83)" xlink:href="#array-vector"/>
  <use width="36" height="36" transform="translate(648 49.22) scale(0.83)" xlink:href="#array-vector"/>
  <use width="36" height="36" transform="translate(810 49.22) scale(0.83)" xlink:href="#array-vector"/>
  <use width="36" height="36" transform="translate(840 49.22) scale(0.83)" xlink:href="#array-vector"/>
</svg>
