<svg id="text" xmlns="http://www.w3.org/2000/svg" xmlns:xlink="http://www.w3.org/1999/xlink" width="984" height="66" viewBox="0 0 984 66">
  <defs>
    <symbol id="op-1" data-name="op-1" viewBox="0 0 50.5 27.5">
      <g>
        <g opacity="0.1">
          <rect x="1.75" y="2.75" width="48" height="24" rx="12" ry="12"/>
          <rect x="1.75" y="2.75" width="48" height="24" rx="12" ry="12" fill="none" stroke="#000" stroke-miterlimit="10" stroke-width="1.5"/>
        </g>
        <g>
          <rect x="0.75" y="0.75" width="48" height="24" rx="12" ry="12" fill="#fff"/>
          <rect x="0.75" y="0.75" width="48" height="24" rx="12" ry="12" fill="none" stroke="#666" stroke-miterlimit="10" stroke-width="1.5"/>
        </g>
      </g>
      <text transform="translate(11.36 16.27)" font-size="12" fill="#666" font-family="Open Sans">Op 1</text>
    </symbol>
    <symbol id="op-3" data-name="op-3" viewBox="0 0 50.5 27.5">
      <g>
        <g opacity="0.1">
          <rect x="1.75" y="2.75" width="48" height="24" rx="12" ry="12"/>
          <rect x="1.75" y="2.75" width="48" height="24" rx="12" ry="12" fill="none" stroke="#000" stroke-miterlimit="10" stroke-width="1.5"/>
        </g>
        <g>
          <rect x="0.75" y="0.75" width="48" height="24" rx="12" ry="12" fill="#fff"/>
          <rect x="0.75" y="0.75" width="48" height="24" rx="12" ry="12" fill="none" stroke="#666" stroke-miterlimit="10" stroke-width="1.5"/>
        </g>
      </g>
      <text transform="translate(11.41 16.27)" font-size="12" fill="#666" font-family="Open Sans">Op 3</text>
    </symbol>
    <symbol id="op-2" data-name="op-2" viewBox="0 0 50.5 27.5">
      <g>
        <g opacity="0.1">
          <rect x="1.75" y="2.75" width="48" height="24" rx="12" ry="12"/>
          <rect x="1.75" y="2.75" width="48" height="24" rx="12" ry="12" fill="none" stroke="#000" stroke-miterlimit="10" stroke-width="1.5"/>
        </g>
        <g>
          <rect x="0.75" y="0.75" width="48" height="24" rx="12" ry="12" fill="#fff"/>
          <rect x="0.75" y="0.75" width="48" height="24" rx="12" ry="12" fill="none" stroke="#666" stroke-miterlimit="10" stroke-width="1.5"/>
        </g>
      </g>
      <text transform="translate(11.36 16.27)" font-size="12" fill="#666" font-family="Open Sans">Op 2</text>
    </symbol>
  </defs>
  <title>rnn</title>
  <g>
    <g>
      <line x1="228" y1="42" x2="300.57" y2="42" fill="none" stroke="#8c8c8c" stroke-miterlimit="10" stroke-width="1.5"/>
      <path d="M306,42a27.2,27.2,0,0,0-7.69,4.28L299.86,42l-1.55-4.28A27.18,27.18,0,0,0,306,42Z" fill="#8c8c8c"/>
    </g>
    <g>
      <line x1="360" y1="42" x2="432.57" y2="42" fill="none" stroke="#8c8c8c" stroke-miterlimit="10" stroke-width="1.5"/>
      <path d="M438,42a27.2,27.2,0,0,0-7.69,4.28L431.86,42l-1.55-4.28A27.18,27.18,0,0,0,438,42Z" fill="#8c8c8c"/>
    </g>
    <g>
      <line x1="492" y1="42" x2="564.57" y2="42" fill="none" stroke="#8c8c8c" stroke-miterlimit="10" stroke-width="1.5"/>
      <path d="M570,42a27.2,27.2,0,0,0-7.69,4.28L563.86,42l-1.55-4.28A27.18,27.18,0,0,0,570,42Z" fill="#8c8c8c"/>
    </g>
    <g>
      <line x1="624" y1="42" x2="696.57" y2="42" fill="none" stroke="#8c8c8c" stroke-miterlimit="10" stroke-width="1.5"/>
      <path d="M702,42a27.2,27.2,0,0,0-7.69,4.28L695.86,42l-1.55-4.28A27.18,27.18,0,0,0,702,42Z" fill="#8c8c8c"/>
    </g>
    <g>
      <path d="M336,42s52-30,117-30c52.7,0,97.43,16,112,21.89" fill="none" stroke="#8c8c8c" stroke-miterlimit="10" stroke-width="1.5"/>
      <path d="M570,36a27.2,27.2,0,0,0-8.74,1l3.06-3.37,0.2-4.55A27.17,27.17,0,0,0,570,36Z" fill="#8c8c8c"/>
    </g>
  </g>
  <g>
    <path d="M384.48,18.38A298.3,298.3,0,0,0,321,11.25c-64.46,0-116.85,29.8-117.37,30.1l0.75,1.3c0.52-.3,52.59-29.9,116.63-29.9a295.48,295.48,0,0,1,60.43,6.5Z" fill="#8c8c8c"/>
    <path d="M432.52,29.11l-0.17,3.72a306,306,0,0,0-33.49-11l-2.81.81A306,306,0,0,1,431.8,34.23L429.26,37A27.2,27.2,0,0,1,438,36,27.17,27.17,0,0,1,432.52,29.11Z" fill="#8c8c8c"/>
  </g>
  <use width="50.5" height="27.5" transform="translate(180 30)" xlink:href="#op-1"/>
  <use width="50.5" height="27.5" transform="translate(312 30)" xlink:href="#op-3"/>
  <use width="50.5" height="27.5" transform="translate(444 30)" xlink:href="#op-2"/>
  <use width="50.5" height="27.5" transform="translate(576 30)" xlink:href="#op-3"/>
</svg>
