<svg id="background" xmlns="http://www.w3.org/2000/svg" xmlns:xlink="http://www.w3.org/1999/xlink" width="984" height="438" viewBox="0 0 984 438">
  <defs>
    <symbol id="rnn-bg" data-name="rnn-bg" viewBox="0 0 49.5 49.5">
      <rect x="0.75" y="0.75" width="48" height="48" rx="6" ry="6" fill="#fff" fill-opacity="0.8" stroke="#666" stroke-width="1.5"/>
    </symbol>
    <symbol id="rnn-a" data-name="rnn-a" viewBox="0 0 49.5 49.5">
      <use id="rnn-bg-3" data-name="rnn-bg" width="49.5" height="49.5" xlink:href="#rnn-bg"/>
      <path d="M29.77,31.75l-1.93-4.94H21.6l-1.91,4.94H17.86L24,16.14h1.52l6.11,15.61H29.77Zm-2.5-6.57-1.81-4.82q-0.35-.91-0.72-2.24a20.34,20.34,0,0,1-.67,2.24l-1.83,4.82h5Z" fill="#666"/>
    </symbol>
    <symbol id="rnn-b" data-name="rnn-b" viewBox="0 0 49.5 49.5">
      <use id="rnn-bg-15" data-name="rnn-bg" width="49.5" height="49.5" xlink:href="#rnn-bg"/>
      <path d="M19.83,16.21h4.39a8.29,8.29,0,0,1,4.48.92,3.27,3.27,0,0,1,1.38,2.92,3.38,3.38,0,0,1-.77,2.28,3.72,3.72,0,0,1-2.25,1.16v0.11q3.54,0.6,3.54,3.72a4,4,0,0,1-1.41,3.25,6,6,0,0,1-3.94,1.17H19.83V16.21Zm1.81,6.66h3a4.85,4.85,0,0,0,2.75-.6,2.32,2.32,0,0,0,.84-2,2,2,0,0,0-.94-1.89,5.84,5.84,0,0,0-3-.58H21.64v5.09Zm0,1.53v5.82h3.24a4.62,4.62,0,0,0,2.83-.73,2.69,2.69,0,0,0,1-2.28,2.42,2.42,0,0,0-1-2.13,5.2,5.2,0,0,0-3-.68H21.64Z" fill="#666"/>
    </symbol>
    <symbol id="op-bg" data-name="op-bg" viewBox="0 0 24 24">
      <circle cx="12" cy="12" r="11.25" fill="#e0cef5" stroke="#000" stroke-miterlimit="10" stroke-opacity="0.5" stroke-width="1.5"/>
    </symbol>
    <symbol id="op-sum" data-name="op-sum" viewBox="0 0 24 24">
      <use id="op-bg-3" data-name="op-bg" width="24" height="24" xlink:href="#op-bg"/>
      <path d="M7.88,12.5V11.18h3.41V7.75h1.34v3.43H16V12.5H12.62v3.42H11.29V12.5H7.88Z" fill="#666"/>
    </symbol>
    <symbol id="op-dot" data-name="op-dot" viewBox="0 0 24 24">
      <use width="24" height="24" xlink:href="#op-bg"/>
      <path d="M14.46,12.51a2.33,2.33,0,0,1-.67,1.71,2.3,2.3,0,0,1-1.7.68,2.3,2.3,0,0,1-1.7-.68,2.32,2.32,0,0,1-.67-1.71,2.29,2.29,0,0,1,.67-1.7,2.31,2.31,0,0,1,1.7-.67,2.32,2.32,0,0,1,1.7.67A2.29,2.29,0,0,1,14.46,12.51Z" fill="#666"/>
    </symbol>
    <symbol id="op-x" data-name="op-x" viewBox="0 0 24 24">
      <use id="op-bg-14" data-name="op-bg" width="24" height="24" xlink:href="#op-bg"/>
      <path d="M9.16,15.28l-1-1,2.56-2.56L8.16,9.16l1-1,2.58,2.58L14.3,8.17l1,1-2.56,2.56,2.57,2.57-1,1-2.57-2.57Z" fill="#666"/>
    </symbol>
  </defs>
  <title>rnn</title>
  <g id="_Group_" data-name="&lt;Group&gt;">
    <rect x="453.56" y="12" width="360.44" height="72" rx="10" ry="10" fill="#f0f0f5"/>
    <g opacity="0.1">
      <rect x="453.56" y="12" width="360.44" height="72" rx="10" ry="10" fill="none" stroke="#231f20"/>
    </g>
  </g>
  <line x1="205" y1="366" x2="205" y2="226" fill="none" stroke="#666" stroke-miterlimit="10" stroke-width="1.5"/>
  <line x1="205" y1="230" x2="205" y2="204" fill="none" stroke="#666" stroke-miterlimit="10" stroke-width="1.5"/>
  <path d="M212,330h9.63a9.85,9.85,0,0,0,9.63-10V290" fill="none" stroke="#666" stroke-miterlimit="10" stroke-width="1.5"/>
  <path d="M492,330l0.58-14c0.23-5.5,4.44-12,9.36-14.46L517,294" fill="none" stroke="#666" stroke-miterlimit="10" stroke-width="1.5"/>
  <path d="M397,330l0.58-14c0.23-5.5,4.44-12,9.36-14.46L422,294" fill="none" stroke="#666" stroke-miterlimit="10" stroke-width="1.5"/>
  <path d="M301,330l0.58-14c0.23-5.5,4.44-12,9.36-14.46L326,294" fill="none" stroke="#666" stroke-miterlimit="10" stroke-width="1.5"/>
  <path d="M205,330l0.58-14c0.23-5.5,4.44-12,9.36-14.46L230,294" fill="none" stroke="#666" stroke-miterlimit="10" stroke-width="1.5"/>
  <line x1="301" y1="366" x2="301" y2="263" fill="none" stroke="#666" stroke-miterlimit="10" stroke-width="1.5"/>
  <line x1="301" y1="230" x2="301" y2="204" fill="none" stroke="#666" stroke-miterlimit="10" stroke-width="1.5"/>
  <path d="M310,330h9.13c5,0,9.13-4.5,9.13-10V290" fill="none" stroke="#666" stroke-miterlimit="10" stroke-width="1.5"/>
  <line x1="397" y1="366" x2="397" y2="263" fill="none" stroke="#666" stroke-miterlimit="10" stroke-width="1.5"/>
  <line x1="397" y1="230" x2="397" y2="204" fill="none" stroke="#666" stroke-miterlimit="10" stroke-width="1.5"/>
  <line x1="492" y1="230" x2="492" y2="204" fill="none" stroke="#666" stroke-miterlimit="10" stroke-width="1.5"/>
  <path d="M406,330h9.13c5,0,9.13-4.5,9.13-10V290" fill="none" stroke="#666" stroke-miterlimit="10" stroke-width="1.5"/>
  <line x1="492" y1="366" x2="492" y2="261" fill="none" stroke="#666" stroke-miterlimit="10" stroke-width="1.5"/>
  <path d="M496,330h13.25a10,10,0,0,0,10-10V290" fill="none" stroke="#666" stroke-miterlimit="10" stroke-width="1.5"/>
  <line x1="209" y1="330" x2="297" y2="330" fill="none" stroke="#666" stroke-miterlimit="10" stroke-width="1.5"/>
  <line x1="305" y1="330" x2="393" y2="330" fill="none" stroke="#666" stroke-miterlimit="10" stroke-width="1.5"/>
  <line x1="400.67" y1="330" x2="487.67" y2="330" fill="none" stroke="#666" stroke-miterlimit="10" stroke-width="1.5"/>
  <g>
    <g opacity="0.2">
      <path d="M205,206V170.5a11.11,11.11,0,0,1,10-10.85l358.7-30.53c5.48-.47,10-3.83,10-7.48V115" fill="none" stroke="#8359b2" stroke-miterlimit="10" stroke-width="1.5"/>
    </g>
    <g opacity="0.4">
      <path d="M300.5,206V174.29a11.49,11.49,0,0,1,9.94-11.12l266.25-30c5.47-.62,9.94-5,9.94-9.65V115" fill="none" stroke="#8359b2" stroke-miterlimit="10" stroke-width="1.5"/>
    </g>
    <path d="M396.5,206V178.08a12.25,12.25,0,0,1,9.86-11.65l173.4-28.94a12.25,12.25,0,0,0,9.86-11.65V115" fill="none" stroke="#8359b2" stroke-miterlimit="10" stroke-width="1.5"/>
    <g opacity="0.2">
      <path d="M492,206V178.08a14,14,0,0,1,9.63-12.71l81.75-23A14,14,0,0,0,593,129.65V115" fill="none" stroke="#8359b2" stroke-miterlimit="10" stroke-width="1.5"/>
    </g>
  </g>
  <g id="_Group_2" data-name="&lt;Group&gt;">
    <rect x="168" y="354" width="360.44" height="72" rx="10" ry="10" fill="#f0f0f5"/>
    <g opacity="0.1">
      <rect x="168" y="354" width="360.44" height="72" rx="10" ry="10" fill="none" stroke="#231f20"/>
    </g>
  </g>
  <g id="_Group_3" data-name="&lt;Group&gt;">
    <g opacity="0.1">
      <rect x="182" y="368" width="48" height="48" rx="6" ry="6" opacity="0.8"/>
      <rect x="182" y="368" width="48" height="48" rx="6" ry="6" fill="none" stroke="#000" stroke-width="1.5"/>
      <path d="M211,399l-1.93-4.94h-6.23L200.94,399h-1.83l6.14-15.61h1.52L212.89,399H211Zm-2.5-6.57-1.81-4.82q-0.35-.91-0.72-2.24a20.34,20.34,0,0,1-.67,2.24l-1.83,4.82h5Z"/>
    </g>
    <use width="49.5" height="49.5" transform="translate(180.25 365.25)" xlink:href="#rnn-a"/>
  </g>
  <g>
    <g opacity="0.1">
      <rect x="278" y="368" width="48" height="48" rx="6" ry="6" opacity="0.8"/>
      <rect x="278" y="368" width="48" height="48" rx="6" ry="6" fill="none" stroke="#000" stroke-width="1.5"/>
      <path d="M307,399l-1.93-4.94h-6.23L296.94,399h-1.83l6.14-15.61h1.52L308.89,399H307Zm-2.5-6.57-1.81-4.82q-0.35-.91-0.72-2.24a20.34,20.34,0,0,1-.67,2.24l-1.83,4.82h5Z"/>
    </g>
    <use width="49.5" height="49.5" transform="translate(276.25 365.25)" xlink:href="#rnn-a"/>
  </g>
  <g>
    <g opacity="0.1">
      <rect x="374" y="368" width="48" height="48" rx="6" ry="6" opacity="0.8"/>
      <rect x="374" y="368" width="48" height="48" rx="6" ry="6" fill="none" stroke="#000" stroke-width="1.5"/>
      <path d="M403,399l-1.93-4.94h-6.23L392.94,399h-1.83l6.14-15.61h1.52L404.89,399H403Zm-2.5-6.57-1.81-4.82q-0.35-.91-0.72-2.24a20.34,20.34,0,0,1-.67,2.24l-1.83,4.82h5Z"/>
    </g>
    <use width="49.5" height="49.5" transform="translate(372.25 365.25)" xlink:href="#rnn-a"/>
  </g>
  <g id="_Group_4" data-name="&lt;Group&gt;">
    <g opacity="0.1">
      <rect x="470" y="368" width="48" height="48" rx="6" ry="6" opacity="0.8"/>
      <rect x="470" y="368" width="48" height="48" rx="6" ry="6" fill="none" stroke="#000" stroke-width="1.5"/>
      <path d="M499,399l-1.93-4.94h-6.23L488.94,399h-1.83l6.14-15.61h1.52L500.89,399H499Zm-2.5-6.57-1.81-4.82q-0.35-.91-0.72-2.24a20.34,20.34,0,0,1-.67,2.24l-1.83,4.82h5Z"/>
    </g>
    <use width="49.5" height="49.5" transform="translate(468.25 365.25)" xlink:href="#rnn-a"/>
  </g>
  <g opacity="0.6">
    <text transform="translate(168.25 25.88)" font-size="13" font-family="Open Sans">The attending RNN generates a <tspan x="-0.53" y="20">query describing what it wants </tspan><tspan x="-1.06" y="40">to focus on</tspan></text>
  </g>
  <g opacity="0.6">
    <text transform="translate(562 223.88)" font-size="13" font-family="Open Sans">Each item is dot producted with the <tspan x="0" y="20">query to produce a score, describing </tspan><tspan x="0" y="40">how well it matches the query. The </tspan><tspan x="0" y="60">scores are fed into a softmax to </tspan><tspan x="0" y="80">create the attention distribution.</tspan></text>
  </g>
  <path d="M201,330H177a10,10,0,0,1-10-10V118a10,10,0,0,1,10-10H529a10,10,0,0,0,10-10V58a10,10,0,0,0-10-10H516.37" fill="none" stroke="#666" stroke-miterlimit="10" stroke-width="1.5"/>
  <g>
    <line x1="227.92" y1="389.73" x2="265.57" y2="389.73" fill="none" stroke="#666" stroke-miterlimit="10" stroke-width="1.5"/>
    <path d="M271,389.73a27.2,27.2,0,0,0-7.69,4.28l1.55-4.28-1.55-4.28A27.18,27.18,0,0,0,271,389.73Z" fill="#666"/>
  </g>
  <g>
    <line x1="323.92" y1="389.73" x2="361.57" y2="389.73" fill="none" stroke="#666" stroke-miterlimit="10" stroke-width="1.5"/>
    <path d="M367,389.73a27.2,27.2,0,0,0-7.69,4.28l1.55-4.28-1.55-4.28A27.18,27.18,0,0,0,367,389.73Z" fill="#666"/>
  </g>
  <g>
    <line x1="419.92" y1="389.73" x2="457.57" y2="389.73" fill="none" stroke="#666" stroke-miterlimit="10" stroke-width="1.5"/>
    <path d="M463,389.73a27.2,27.2,0,0,0-7.69,4.28l1.55-4.28-1.55-4.28A27.18,27.18,0,0,0,463,389.73Z" fill="#666"/>
  </g>
  <g>
    <path d="M519,237v-6c0-3.3-3.49-8.84-7.76-12.31l-4-3.27" fill="none" stroke="#666" stroke-miterlimit="10" stroke-width="1.5"/>
    <path d="M503,212a27.2,27.2,0,0,0,8.67,1.53l-3.9,2.35-1.5,4.3A27.18,27.18,0,0,0,503,212Z" fill="#666"/>
  </g>
  <g>
    <line x1="231.25" y1="282" x2="231.25" y2="267.43" fill="none" stroke="#666" stroke-miterlimit="10" stroke-width="1.5"/>
    <path d="M231.25,262a27.2,27.2,0,0,0,4.28,7.69l-4.28-1.55L227,269.69A27.17,27.17,0,0,0,231.25,262Z" fill="#666"/>
  </g>
  <g>
    <path d="M423,237v-6c0-3.3-3.49-8.84-7.76-12.31l-4-3.27" fill="none" stroke="#666" stroke-miterlimit="10" stroke-width="1.5"/>
    <path d="M407,212a27.2,27.2,0,0,0,8.67,1.53l-3.9,2.35-1.5,4.3A27.18,27.18,0,0,0,407,212Z" fill="#666"/>
  </g>
  <g>
    <line x1="327.25" y1="282" x2="327.25" y2="267.43" fill="none" stroke="#666" stroke-miterlimit="10" stroke-width="1.5"/>
    <path d="M327.25,262a27.2,27.2,0,0,0,4.28,7.69l-4.28-1.55L323,269.69A27.17,27.17,0,0,0,327.25,262Z" fill="#666"/>
  </g>
  <g>
    <path d="M327,237v-6c0-3.3-3.49-8.84-7.76-12.31l-4-3.27" fill="none" stroke="#666" stroke-miterlimit="10" stroke-width="1.5"/>
    <path d="M311,212a27.2,27.2,0,0,0,8.67,1.53l-3.9,2.35-1.5,4.3A27.18,27.18,0,0,0,311,212Z" fill="#666"/>
  </g>
  <g>
    <line x1="423.25" y1="282" x2="423.25" y2="267.43" fill="none" stroke="#666" stroke-miterlimit="10" stroke-width="1.5"/>
    <path d="M423.25,262a27.2,27.2,0,0,0,4.28,7.69l-4.28-1.55L419,269.69A27.17,27.17,0,0,0,423.25,262Z" fill="#666"/>
  </g>
  <g>
    <path d="M231,237v-6c0-3.3-3.49-8.84-7.76-12.31l-4-3.27" fill="none" stroke="#666" stroke-miterlimit="10" stroke-width="1.5"/>
    <path d="M215,212a27.2,27.2,0,0,0,8.67,1.53l-3.9,2.35-1.5,4.3A27.18,27.18,0,0,0,215,212Z" fill="#666"/>
  </g>
  <g>
    <line x1="519.25" y1="282" x2="519.25" y2="267.43" fill="none" stroke="#666" stroke-miterlimit="10" stroke-width="1.5"/>
    <path d="M519.25,262a27.2,27.2,0,0,0,4.28,7.69l-4.28-1.55L515,269.69A27.17,27.17,0,0,0,519.25,262Z" fill="#666"/>
  </g>
  <g>
    <line x1="513.92" y1="48" x2="551.57" y2="48" fill="none" stroke="#666" stroke-miterlimit="10" stroke-width="1.5"/>
    <path d="M557,48a27.2,27.2,0,0,0-7.69,4.28L550.86,48l-1.55-4.28A27.18,27.18,0,0,0,557,48Z" fill="#666"/>
  </g>
  <g>
    <line x1="610.92" y1="48" x2="648.57" y2="48" fill="none" stroke="#666" stroke-miterlimit="10" stroke-width="1.5"/>
    <path d="M654,48a27.2,27.2,0,0,0-7.69,4.28L647.86,48l-1.55-4.28A27.18,27.18,0,0,0,654,48Z" fill="#666"/>
  </g>
  <g>
    <line x1="705.92" y1="48" x2="743.57" y2="48" fill="none" stroke="#666" stroke-miterlimit="10" stroke-width="1.5"/>
    <path d="M749,48a27.2,27.2,0,0,0-7.69,4.28L742.86,48l-1.55-4.28A27.18,27.18,0,0,0,749,48Z" fill="#666"/>
  </g>
  <g>
    <line x1="587" y1="108.81" x2="587" y2="82.08" fill="none" stroke="#666" stroke-miterlimit="10" stroke-width="1.5"/>
    <path d="M587,76.65a27.2,27.2,0,0,0,4.28,7.69L587,82.79l-4.28,1.55A27.18,27.18,0,0,0,587,76.65Z" fill="#666"/>
  </g>
  <g id="_Group_5" data-name="&lt;Group&gt;">
    <g opacity="0.1">
      <rect x="467" y="26" width="48" height="48" rx="6" ry="6" opacity="0.8"/>
      <rect x="467" y="26" width="48" height="48" rx="6" ry="6" fill="none" stroke="#000" stroke-width="1.5"/>
      <rect x="467" y="26" width="48" height="48" rx="6" ry="6" fill="none" stroke="#000" stroke-width="1.5"/>
      <rect x="467" y="26" width="48" height="48" rx="6" ry="6" fill="none" stroke="#000" stroke-width="1.5"/>
      <path d="M486.08,41.46h4.39a8.29,8.29,0,0,1,4.48.92,3.27,3.27,0,0,1,1.38,2.92,3.38,3.38,0,0,1-.77,2.28,3.72,3.72,0,0,1-2.25,1.16v0.11q3.54,0.6,3.54,3.72a4,4,0,0,1-1.41,3.25A6,6,0,0,1,491.5,57h-5.42V41.46Zm1.81,6.66h3a4.85,4.85,0,0,0,2.75-.6,2.32,2.32,0,0,0,.84-2,2,2,0,0,0-.94-1.89,5.84,5.84,0,0,0-3-.58h-2.66v5.09Zm0,1.53v5.82h3.24a4.62,4.62,0,0,0,2.83-.73,2.69,2.69,0,0,0,1-2.28,2.42,2.42,0,0,0-1-2.13,5.2,5.2,0,0,0-3-.68h-3.09Z"/>
    </g>
    <use width="49.5" height="49.5" transform="translate(465.25 23.25)" xlink:href="#rnn-b"/>
  </g>
  <g id="_Group_6" data-name="&lt;Group&gt;">
    <g opacity="0.1">
      <rect x="563" y="26" width="48" height="48" rx="6" ry="6" opacity="0.8"/>
      <rect x="563" y="26" width="48" height="48" rx="6" ry="6" fill="none" stroke="#000" stroke-width="1.5"/>
      <rect x="563" y="26" width="48" height="48" rx="6" ry="6" fill="none" stroke="#000" stroke-width="1.5"/>
      <rect x="563" y="26" width="48" height="48" rx="6" ry="6" fill="none" stroke="#000" stroke-width="1.5"/>
      <path d="M582.08,41.46h4.39a8.29,8.29,0,0,1,4.48.92,3.27,3.27,0,0,1,1.38,2.92,3.38,3.38,0,0,1-.77,2.28,3.72,3.72,0,0,1-2.25,1.16v0.11q3.54,0.6,3.54,3.72a4,4,0,0,1-1.41,3.25A6,6,0,0,1,587.5,57h-5.42V41.46Zm1.81,6.66h3a4.85,4.85,0,0,0,2.75-.6,2.32,2.32,0,0,0,.84-2,2,2,0,0,0-.94-1.89,5.84,5.84,0,0,0-3-.58h-2.66v5.09Zm0,1.53v5.82h3.24a4.62,4.62,0,0,0,2.83-.73,2.69,2.69,0,0,0,1-2.28,2.42,2.42,0,0,0-1-2.13,5.2,5.2,0,0,0-3-.68h-3.09Z"/>
    </g>
    <use width="49.5" height="49.5" transform="translate(561.25 23.25)" xlink:href="#rnn-b"/>
  </g>
  <g>
    <g opacity="0.1">
      <rect x="659" y="26" width="48" height="48" rx="6" ry="6" opacity="0.8"/>
      <rect x="659" y="26" width="48" height="48" rx="6" ry="6" fill="none" stroke="#000" stroke-width="1.5"/>
      <rect x="659" y="26" width="48" height="48" rx="6" ry="6" fill="none" stroke="#000" stroke-width="1.5"/>
      <rect x="659" y="26" width="48" height="48" rx="6" ry="6" fill="none" stroke="#000" stroke-width="1.5"/>
      <path d="M678.08,41.46h4.39a8.29,8.29,0,0,1,4.48.92,3.27,3.27,0,0,1,1.38,2.92,3.38,3.38,0,0,1-.77,2.28,3.72,3.72,0,0,1-2.25,1.16v0.11q3.54,0.6,3.54,3.72a4,4,0,0,1-1.41,3.25A6,6,0,0,1,683.5,57h-5.42V41.46Zm1.81,6.66h3a4.85,4.85,0,0,0,2.75-.6,2.32,2.32,0,0,0,.84-2,2,2,0,0,0-.94-1.89,5.84,5.84,0,0,0-3-.58h-2.66v5.09Zm0,1.53v5.82h3.24a4.62,4.62,0,0,0,2.83-.73,2.69,2.69,0,0,0,1-2.28,2.42,2.42,0,0,0-1-2.13,5.2,5.2,0,0,0-3-.68h-3.09Z"/>
    </g>
    <use width="49.5" height="49.5" transform="translate(657.25 23.25)" xlink:href="#rnn-b"/>
  </g>
  <g id="_Group_7" data-name="&lt;Group&gt;">
    <g opacity="0.1">
      <rect x="755" y="26" width="48" height="48" rx="6" ry="6" opacity="0.8"/>
      <rect x="755" y="26" width="48" height="48" rx="6" ry="6" fill="none" stroke="#000" stroke-width="1.5"/>
      <rect x="755" y="26" width="48" height="48" rx="6" ry="6" fill="none" stroke="#000" stroke-width="1.5"/>
      <rect x="755" y="26" width="48" height="48" rx="6" ry="6" fill="none" stroke="#000" stroke-width="1.5"/>
      <path d="M774.08,41.46h4.39a8.29,8.29,0,0,1,4.48.92,3.27,3.27,0,0,1,1.38,2.92,3.38,3.38,0,0,1-.77,2.28,3.72,3.72,0,0,1-2.25,1.16v0.11q3.54,0.6,3.54,3.72a4,4,0,0,1-1.41,3.25A6,6,0,0,1,779.5,57h-5.42V41.46Zm1.81,6.66h3a4.85,4.85,0,0,0,2.75-.6,2.32,2.32,0,0,0,.84-2,2,2,0,0,0-.94-1.89,5.84,5.84,0,0,0-3-.58h-2.66v5.09Zm0,1.53v5.82h3.24a4.62,4.62,0,0,0,2.83-.73,2.69,2.69,0,0,0,1-2.28,2.42,2.42,0,0,0-1-2.13,5.2,5.2,0,0,0-3-.68h-3.09Z"/>
    </g>
    <use width="49.5" height="49.5" transform="translate(753.25 23.25)" xlink:href="#rnn-b"/>
  </g>
  <g id="_Group_8" data-name="&lt;Group&gt;">
    <g opacity="0.1">
      <circle cx="588.75" cy="109.25" r="11.25"/>
      <circle cx="588.75" cy="109.25" r="11.25" fill="none" stroke="#000" stroke-miterlimit="10" stroke-width="1.5" opacity="0.5"/>
      <path d="M584.63,109.75v-1.31H588V105h1.34v3.43h3.41v1.31h-3.41v3.42H588v-3.42h-3.41Z"/>
    </g>
    <use width="24" height="24" transform="translate(575.75 95.25)" xlink:href="#op-sum"/>
  </g>
  <g>
    <g opacity="0.1">
      <rect x="216" y="236" width="322.72" height="24" rx="12" ry="12"/>
      <rect x="216" y="236" width="322.72" height="24" rx="12" ry="12" fill="none" stroke="#000" stroke-miterlimit="10" stroke-width="1.5" opacity="0.4"/>
    </g>
    <g>
      <rect x="215" y="234" width="322.72" height="24" rx="12" ry="12" fill="#e0cef5"/>
      <rect x="215" y="234" width="322.72" height="24" rx="12" ry="12" fill="none" stroke="#000" stroke-miterlimit="10" stroke-width="1.5" opacity="0.4"/>
    </g>
  </g>
  <g>
    <path d="M339.86,248.3a1.55,1.55,0,0,1-.63,1.33,3,3,0,0,1-1.82.46,4.28,4.28,0,0,1-1.91-.36v-1.09a4.68,4.68,0,0,0,1.95.48q1.17,0,1.17-.7a0.56,0.56,0,0,0-.13-0.38,1.54,1.54,0,0,0-.42-0.31,7.4,7.4,0,0,0-.82-0.37,3.79,3.79,0,0,1-1.39-.79,1.47,1.47,0,0,1-.36-1,1.35,1.35,0,0,1,.62-1.18,2.92,2.92,0,0,1,1.67-.42,4.75,4.75,0,0,1,2,.42l-0.41,1a4.39,4.39,0,0,0-1.62-.4q-1,0-1,.57a0.57,0.57,0,0,0,.26.47,5.73,5.73,0,0,0,1.14.53,5.19,5.19,0,0,1,1.07.52,1.55,1.55,0,0,1,.49.54A1.58,1.58,0,0,1,339.86,248.3Z" fill="#666"/>
    <path d="M346.49,247a3.24,3.24,0,0,1-.75,2.27,2.68,2.68,0,0,1-2.08.82,2.85,2.85,0,0,1-1.47-.38,2.48,2.48,0,0,1-1-1.08,3.68,3.68,0,0,1-.34-1.63,3.22,3.22,0,0,1,.74-2.26,2.69,2.69,0,0,1,2.09-.81,2.62,2.62,0,0,1,2,.83A3.2,3.2,0,0,1,346.49,247Zm-4.32,0q0,2.06,1.52,2.06t1.5-2.06q0-2-1.51-2a1.29,1.29,0,0,0-1.15.53A2.67,2.67,0,0,0,342.17,247Z" fill="#666"/>
    <path d="M350.92,245h-1.45v5H348.2v-5h-1v-0.59l1-.39v-0.39a2.16,2.16,0,0,1,.49-1.56,2,2,0,0,1,1.51-.51,4,4,0,0,1,1.31.22l-0.33,1a2.9,2.9,0,0,0-.89-0.15,0.73,0.73,0,0,0-.63.27,1.34,1.34,0,0,0-.2.8v0.39h1.45v1Z" fill="#666"/>
    <path d="M354.14,249.08a3.07,3.07,0,0,0,.92-0.15v1a2.61,2.61,0,0,1-.54.15,3.73,3.73,0,0,1-.68.06,1.63,1.63,0,0,1-1.79-1.89V245h-0.81v-0.56l0.87-.46,0.43-1.26h0.78v1.32H355v1h-1.69v3.18a0.89,0.89,0,0,0,.23.67A0.83,0.83,0,0,0,354.14,249.08Z" fill="#666"/>
    <path d="M361.26,250H360v-3.66a1.66,1.66,0,0,0-.26-1,1,1,0,0,0-.81-0.34,1.23,1.23,0,0,0-1.07.48,2.78,2.78,0,0,0-.34,1.58v3h-1.26v-5.94h1l0.18,0.78h0.06a1.65,1.65,0,0,1,.72-0.66,2.32,2.32,0,0,1,1-.23,1.81,1.81,0,0,1,1.82.93h0.09a1.8,1.8,0,0,1,.74-0.69,2.35,2.35,0,0,1,1.1-.25,2,2,0,0,1,1.55.54,2.38,2.38,0,0,1,.49,1.64V250h-1.26v-3.66a1.65,1.65,0,0,0-.26-1,1,1,0,0,0-.81-0.34,1.25,1.25,0,0,0-1.08.46,2.37,2.37,0,0,0-.34,1.41V250Z" fill="#666"/>
    <path d="M370.49,250l-0.25-.83h0a2.44,2.44,0,0,1-.86.74,2.73,2.73,0,0,1-1.12.2,1.9,1.9,0,0,1-1.37-.47,1.77,1.77,0,0,1-.49-1.34,1.57,1.57,0,0,1,.68-1.39,3.93,3.93,0,0,1,2.08-.51l1,0V246a1.2,1.2,0,0,0-.27-0.85,1.08,1.08,0,0,0-.82-0.28,2.87,2.87,0,0,0-.88.13,6.61,6.61,0,0,0-.81.32l-0.41-.9a4.33,4.33,0,0,1,1.06-.38,4.86,4.86,0,0,1,1.08-.13,2.57,2.57,0,0,1,1.71.49,1.93,1.93,0,0,1,.58,1.55v4h-0.9Zm-1.88-.86a1.56,1.56,0,0,0,1.1-.38,1.39,1.39,0,0,0,.42-1.08v-0.52l-0.76,0a2.62,2.62,0,0,0-1.3.3,0.91,0.91,0,0,0-.41.81,0.79,0.79,0,0,0,.24.62A1,1,0,0,0,368.61,249.13Z" fill="#666"/>
    <path d="M374.47,247l-2-2.91h1.44l1.35,2.08,1.36-2.08h1.43l-2,2.91,2.1,3h-1.43l-1.47-2.22L373.81,250h-1.43Z" fill="#666"/>
  </g>
  <g id="_Group_9" data-name="&lt;Group&gt;">
    <g opacity="0.1">
      <circle cx="233" cy="296" r="11.25"/>
      <circle cx="233" cy="296" r="11.25" fill="none" stroke="#000" stroke-miterlimit="10" stroke-width="1.5" opacity="0.5"/>
      <path d="M235.46,296.51a2.33,2.33,0,0,1-.67,1.71,2.48,2.48,0,0,1-3.41,0,2.32,2.32,0,0,1-.67-1.71,2.29,2.29,0,0,1,.67-1.7A2.37,2.37,0,0,1,235.46,296.51Z"/>
    </g>
    <use width="24" height="24" transform="translate(220 282)" xlink:href="#op-dot"/>
  </g>
  <g id="_Group_10" data-name="&lt;Group&gt;">
    <g opacity="0.1">
      <circle cx="425" cy="296" r="11.25"/>
      <circle cx="425" cy="296" r="11.25" fill="none" stroke="#000" stroke-miterlimit="10" stroke-width="1.5" opacity="0.5"/>
      <path d="M427.46,296.51a2.33,2.33,0,0,1-.67,1.71,2.48,2.48,0,0,1-3.41,0,2.32,2.32,0,0,1-.67-1.71,2.29,2.29,0,0,1,.67-1.7A2.37,2.37,0,0,1,427.46,296.51Z"/>
    </g>
    <use width="24" height="24" transform="translate(412 282)" xlink:href="#op-dot"/>
  </g>
  <g id="_Group_11" data-name="&lt;Group&gt;">
    <g opacity="0.1">
      <circle cx="521" cy="296" r="11.25"/>
      <circle cx="521" cy="296" r="11.25" fill="none" stroke="#000" stroke-miterlimit="10" stroke-width="1.5" opacity="0.5"/>
      <path d="M523.46,296.51a2.33,2.33,0,0,1-.67,1.71,2.48,2.48,0,0,1-3.41,0,2.32,2.32,0,0,1-.67-1.71,2.29,2.29,0,0,1,.67-1.7A2.37,2.37,0,0,1,523.46,296.51Z"/>
    </g>
    <use width="24" height="24" transform="translate(508 282)" xlink:href="#op-dot"/>
  </g>
  <g id="_Group_12" data-name="&lt;Group&gt;">
    <g opacity="0.1">
      <circle cx="329" cy="296" r="11.25"/>
      <circle cx="329" cy="296" r="11.25" fill="none" stroke="#000" stroke-miterlimit="10" stroke-width="1.5" opacity="0.5"/>
      <path d="M331.46,296.51a2.33,2.33,0,0,1-.67,1.71,2.48,2.48,0,0,1-3.41,0,2.32,2.32,0,0,1-.67-1.71,2.29,2.29,0,0,1,.67-1.7A2.37,2.37,0,0,1,331.46,296.51Z"/>
    </g>
    <use width="24" height="24" transform="translate(316 282)" xlink:href="#op-dot"/>
  </g>
  <g>
    <g opacity="0.1">
      <circle cx="205" cy="205.25" r="11.25"/>
      <circle cx="205" cy="205.25" r="11.25" fill="none" stroke="#000" stroke-miterlimit="10" stroke-width="1.5" opacity="0.5"/>
      <path d="M202.16,208.53l-1-1,2.56-2.56-2.58-2.58,1-1,2.58,2.58,2.56-2.56,1,1L205.72,205l2.57,2.57-1,1L204.72,206Z"/>
    </g>
    <use width="24" height="24" transform="translate(192 191.25)" xlink:href="#op-x"/>
  </g>
  <g>
    <g opacity="0.1">
      <circle cx="301" cy="205.25" r="11.25"/>
      <circle cx="301" cy="205.25" r="11.25" fill="none" stroke="#000" stroke-miterlimit="10" stroke-width="1.5" opacity="0.5"/>
      <path d="M298.16,208.53l-1-1,2.56-2.56-2.58-2.58,1-1,2.58,2.58,2.56-2.56,1,1L301.72,205l2.57,2.57-1,1L300.72,206Z"/>
    </g>
    <use width="24" height="24" transform="translate(288 191.25)" xlink:href="#op-x"/>
  </g>
  <g id="_Group_13" data-name="&lt;Group&gt;">
    <g opacity="0.1">
      <circle cx="397" cy="205.25" r="11.25"/>
      <circle cx="397" cy="205.25" r="11.25" fill="none" stroke="#000" stroke-miterlimit="10" stroke-width="1.5" opacity="0.5"/>
      <path d="M394.16,208.53l-1-1,2.56-2.56-2.58-2.58,1-1,2.58,2.58,2.56-2.56,1,1L397.72,205l2.57,2.57-1,1L396.72,206Z"/>
    </g>
    <use width="24" height="24" transform="translate(384 191.25)" xlink:href="#op-x"/>
  </g>
  <g>
    <g opacity="0.1">
      <circle cx="493" cy="205.25" r="11.25"/>
      <circle cx="493" cy="205.25" r="11.25" fill="none" stroke="#000" stroke-miterlimit="10" stroke-width="1.5" opacity="0.5"/>
      <path d="M490.16,208.53l-1-1,2.56-2.56-2.58-2.58,1-1,2.58,2.58,2.56-2.56,1,1L493.72,205l2.57,2.57-1,1L492.72,206Z"/>
    </g>
    <use width="24" height="24" transform="translate(480 191.25)" xlink:href="#op-x"/>
  </g>
  <g opacity="0.6">
    <g>
      <line x1="222" y1="72" x2="222" y2="73" fill="none" stroke="#000" stroke-miterlimit="10" stroke-width="0.5"/>
      <line x1="222" y1="75" x2="222" y2="106" fill="none" stroke="#000" stroke-miterlimit="10" stroke-width="0.5" stroke-dasharray="2 2"/>
      <line x1="222" y1="107" x2="222" y2="108" fill="none" stroke="#000" stroke-miterlimit="10" stroke-width="0.5"/>
    </g>
  </g>
</svg>
