<svg id="background" xmlns="http://www.w3.org/2000/svg" xmlns:xlink="http://www.w3.org/1999/xlink" width="984" height="330" viewBox="0 0 984 330">
  <defs>
    <symbol id="array-4" data-name="array-4" viewBox="0 0 145 37">
      <rect x="0.5" y="0.5" width="144" height="36" rx="6" ry="6" fill="#fff" stroke="#8c8c8c" stroke-miterlimit="10"/>
      <line x1="36" y1="36.5" x2="36" y2="0.5" fill="none" stroke="#8c8c8c" stroke-miterlimit="10"/>
      <line x1="72" y1="36.5" x2="72" y2="0.5" fill="none" stroke="#8c8c8c" stroke-miterlimit="10"/>
      <line x1="108.5" y1="36.5" x2="108.5" y2="0.5" fill="none" stroke="#8c8c8c" stroke-miterlimit="10"/>
    </symbol>
    <symbol id="rnn-bg" data-name="rnn-bg" viewBox="0 0 49.5 49.5">
      <rect x="0.75" y="0.75" width="48" height="48" rx="6" ry="6" fill="#fff" stroke="#666" stroke-width="1.5"/>
    </symbol>
    <symbol id="rnn-a" data-name="rnn-a" viewBox="0 0 49.5 49.5">
      <use id="rnn-bg-3" data-name="rnn-bg" width="49.5" height="49.5" xlink:href="#rnn-bg"/>
      <text transform="translate(17.86 31.75)" font-size="21.77" fill="#666" font-family="Open Sans">A</text>
    </symbol>
    <symbol id="op-read" data-name="op-read" viewBox="0 0 49.07 25">
      <g id="_Group_7" data-name="&lt;Group&gt;">
        <g>
          <path d="M48.59,12.5a12,12,0,0,1-12,12H12.48a12,12,0,1,1,0-24H36.59a12,12,0,0,1,12,12h0Z" fill="#fff"/>
          <path d="M49.07,13a12,12,0,0,1-12,12H12A12,12,0,0,1,0,13V12A12,12,0,0,1,12,0H37.07a12,12,0,0,1,12,12v1ZM1,12.5A11.79,11.79,0,0,0,13,24H36.12a11.79,11.79,0,0,0,12-11.5A11.79,11.79,0,0,0,36.12,1H13A11.79,11.79,0,0,0,1,12.5Z" fill="#666"/>
        </g>
      </g>
      <text transform="translate(10.74 16.02)" font-size="12" fill="#666" font-family="Open Sans" font-weight="700">read</text>
    </symbol>
    <symbol id="op-write" data-name="op-write" viewBox="0 0 49.07 25">
      <g id="_Group_9" data-name="&lt;Group&gt;">
        <g>
          <path d="M48.59,12.5a12,12,0,0,1-12,12H12.48a12,12,0,1,1,0-24H36.59a12,12,0,0,1,12,12h0Z" fill="#fff"/>
          <path d="M49.07,13a12,12,0,0,1-12,12H12A12,12,0,0,1,0,13V12A12,12,0,0,1,12,0H37.07a12,12,0,0,1,12,12v1ZM1,12.5A11.79,11.79,0,0,0,13,24H36.12a11.79,11.79,0,0,0,12-11.5A11.79,11.79,0,0,0,36.12,1H13A11.79,11.79,0,0,0,1,12.5Z" fill="#666"/>
        </g>
      </g>
      <text transform="translate(9.02 16.02)" font-size="12" fill="#666" font-family="Open Sans" font-weight="700">write</text>
    </symbol>
    <symbol id="array-vector" data-name="array-vector" viewBox="0 0 36 36">
      <rect width="36" height="36" fill="#0080f7" opacity="0"/>
      <g>
        <line x1="18" y1="24" x2="18" y2="13.08" fill="none" stroke="#8c8c8c" stroke-miterlimit="10"/>
        <polygon points="22.09 16.4 21.36 17.08 18 13.47 14.64 17.08 13.91 16.4 18 12 22.09 16.4" fill="#8c8c8c"/>
      </g>
    </symbol>
  </defs>
  <title>rnn</title>
  <g id="_Group_" data-name="&lt;Group&gt;">
    <rect x="204.11" y="204" width="648" height="72" rx="10" ry="10" opacity="0.04"/>
    <g opacity="0.1">
      <rect x="204.11" y="204" width="648" height="72" rx="10" ry="10" fill="none" stroke="#231f20"/>
    </g>
  </g>
  <g id="_Group_2" data-name="&lt;Group&gt;">
    <rect x="169" y="30" width="143" height="54" rx="10" ry="10" opacity="0.04"/>
    <g opacity="0.1">
      <rect x="169" y="30" width="143" height="54" rx="10" ry="10" fill="none" stroke="#231f20"/>
    </g>
  </g>
  <use width="145" height="37" transform="translate(180 41) scale(0.83)" xlink:href="#array-4"/>
  <g id="_Group_3" data-name="&lt;Group&gt;">
    <rect x="361" y="30" width="143" height="54" rx="10" ry="10" opacity="0.04"/>
    <g opacity="0.1">
      <rect x="361" y="30" width="143" height="54" rx="10" ry="10" fill="none" stroke="#231f20"/>
    </g>
  </g>
  <use width="145" height="37" transform="translate(372 41) scale(0.83)" xlink:href="#array-4"/>
  <g id="_Group_4" data-name="&lt;Group&gt;">
    <rect x="553" y="30" width="143" height="54" rx="10" ry="10" opacity="0.04"/>
    <g opacity="0.1">
      <rect x="553" y="30" width="143" height="54" rx="10" ry="10" fill="none" stroke="#231f20"/>
    </g>
  </g>
  <use width="145" height="37" transform="translate(564 41) scale(0.83)" xlink:href="#array-4"/>
  <g id="_Group_5" data-name="&lt;Group&gt;">
    <rect x="745" y="30" width="143" height="54" rx="10" ry="10" opacity="0.04"/>
    <g opacity="0.1">
      <rect x="745" y="30" width="143" height="54" rx="10" ry="10" fill="none" stroke="#231f20"/>
    </g>
  </g>
  <use width="145" height="37" transform="translate(756 41) scale(0.83)" xlink:href="#array-4"/>
  <g>
    <g opacity="0.1">
      <rect x="408.25" y="218" width="48" height="48" rx="6" ry="6" stroke="#000" stroke-width="1.5"/>
      <path d="M437.27,249l-1.94-4.94H429.1L427.19,249h-1.83l6.15-15.61H433L439.14,249h-1.87Zm-2.5-6.57L433,237.61q-0.35-.91-0.72-2.24a20.24,20.24,0,0,1-.67,2.24l-1.83,4.82h5Z"/>
    </g>
    <use width="49.5" height="49.5" transform="translate(406.5 215.25)" xlink:href="#rnn-a"/>
  </g>
  <g>
    <g opacity="0.1">
      <rect x="601.75" y="218" width="48" height="48" rx="6" ry="6" stroke="#000" stroke-width="1.5"/>
      <path d="M630.77,249l-1.93-4.94H622.6L620.69,249h-1.83L625,233.39h1.52L632.64,249h-1.87Zm-2.5-6.57-1.81-4.82q-0.35-.91-0.72-2.24a20.34,20.34,0,0,1-.67,2.24l-1.83,4.82h5Z"/>
    </g>
    <use width="49.5" height="49.5" transform="translate(600 215.25)" xlink:href="#rnn-a"/>
  </g>
  <g>
    <g opacity="0.1">
      <rect x="793.75" y="218" width="48" height="48" rx="6" ry="6" stroke="#000" stroke-width="1.5"/>
      <path d="M822.77,249l-1.93-4.94H814.6L812.69,249h-1.83L817,233.39h1.52L824.64,249h-1.87Zm-2.5-6.57-1.81-4.82q-0.35-.91-0.72-2.24a20.34,20.34,0,0,1-.67,2.24l-1.83,4.82h5Z"/>
    </g>
    <use width="49.5" height="49.5" transform="translate(792 215.25)" xlink:href="#rnn-a"/>
  </g>
  <g>
    <path d="M271,84l29.83,29c3.94,3.84,11.67,7,17.17,7h34c5.5,0,13.14-3.23,17-7.17l24.24-24.94" fill="none" stroke="#666" stroke-miterlimit="10" stroke-width="1.5"/>
    <path d="M397,84a27.2,27.2,0,0,0-2.29,8.5l-2-4.09-4.15-1.87A27.17,27.17,0,0,0,397,84Z" fill="#666"/>
  </g>
  <g>
    <path d="M415,84l-34,34.84c-3.84,3.94-7,11.66-7,17.16v40c0,5.5,3.13,13.24,7,17.19l18.27,18.9" fill="none" stroke="#666" stroke-miterlimit="10" stroke-width="1.5"/>
    <path d="M403,216a27.2,27.2,0,0,0-8.42-2.56l4.15-1.86,2-4.09A27.18,27.18,0,0,0,403,216Z" fill="#666"/>
  </g>
  <g id="_Group_6" data-name="&lt;Group&gt;">
    <g opacity="0.1">
      <path d="M398.52,157.5a12,12,0,0,1-12,12H362.41a12,12,0,1,1,0-24h24.12a12,12,0,0,1,12,12h0Z"/>
      <path d="M399,158a12,12,0,0,1-12,12H361.93a12,12,0,0,1-12-12v-1a12,12,0,0,1,12-12H387a12,12,0,0,1,12,12v1Zm-48.12-.5a11.79,11.79,0,0,0,12,11.5H386a11.51,11.51,0,1,0,0-23H362.88A11.79,11.79,0,0,0,350.88,157.5Z"/>
      <path d="M364.94,154.42a3.31,3.31,0,0,1,.69.06l-0.13,1.28a2.6,2.6,0,0,0-.61-0.07,1.76,1.76,0,0,0-1.34.54,2,2,0,0,0-.51,1.4V161h-1.38v-6.48h1.08l0.18,1.14H363a2.57,2.57,0,0,1,.84-0.92A2,2,0,0,1,364.94,154.42Z"/>
      <path d="M369.66,161.13a3.13,3.13,0,0,1-2.36-.88,3.35,3.35,0,0,1-.85-2.43,3.67,3.67,0,0,1,.79-2.5,2.73,2.73,0,0,1,2.17-.91,2.67,2.67,0,0,1,2,.78,3,3,0,0,1,.74,2.14v0.74h-4.32a2.13,2.13,0,0,0,.51,1.45,1.78,1.78,0,0,0,1.35.51,5,5,0,0,0,1.07-.11,5.61,5.61,0,0,0,1.06-.36v1.12a4.23,4.23,0,0,1-1,.34A6.25,6.25,0,0,1,369.66,161.13Zm-0.25-5.67a1.38,1.38,0,0,0-1.05.42,2,2,0,0,0-.47,1.21h2.94a1.79,1.79,0,0,0-.39-1.22A1.32,1.32,0,0,0,369.41,155.46Z"/>
      <path d="M377.8,161l-0.28-.9h0a2.65,2.65,0,0,1-.94.81,3,3,0,0,1-1.22.21,2.06,2.06,0,0,1-1.49-.52,1.93,1.93,0,0,1-.54-1.46,1.71,1.71,0,0,1,.74-1.51,4.29,4.29,0,0,1,2.27-.56l1.12,0v-0.35a1.31,1.31,0,0,0-.29-0.93,1.18,1.18,0,0,0-.9-0.31,3.11,3.11,0,0,0-1,.15,7.21,7.21,0,0,0-.88.35l-0.45-1a4.79,4.79,0,0,1,1.15-.42,5.31,5.31,0,0,1,1.18-.14,2.8,2.8,0,0,1,1.87.54,2.11,2.11,0,0,1,.63,1.69V161h-1Zm-2.05-.94a1.71,1.71,0,0,0,1.2-.42,1.52,1.52,0,0,0,.45-1.17v-0.56l-0.83,0a2.85,2.85,0,0,0-1.42.33,1,1,0,0,0-.44.89,0.87,0.87,0,0,0,.26.67A1.11,1.11,0,0,0,375.75,160.08Z"/>
      <path d="M382.89,161.13a2.26,2.26,0,0,1-1.89-.88,4.82,4.82,0,0,1,0-4.95,2.28,2.28,0,0,1,1.91-.89,2.23,2.23,0,0,1,1.95.94h0.07a8.25,8.25,0,0,1-.1-1.1V151.9h1.38V161h-1.08l-0.24-.85h-0.06A2.2,2.2,0,0,1,382.89,161.13Zm0.37-1.11a1.5,1.5,0,0,0,1.24-.48,2.51,2.51,0,0,0,.4-1.55V157.8a2.9,2.9,0,0,0-.4-1.74,1.48,1.48,0,0,0-1.25-.52,1.27,1.27,0,0,0-1.12.59,3,3,0,0,0-.39,1.68,2.94,2.94,0,0,0,.38,1.64A1.29,1.29,0,0,0,383.26,160Z"/>
    </g>
    <use width="49.07" height="25" transform="translate(348.93 143)" xlink:href="#op-read"/>
  </g>
  <g id="_Group_8" data-name="&lt;Group&gt;">
    <g opacity="0.1">
      <path d="M362.52,122.5a12,12,0,0,1-12,12H326.41a12,12,0,0,1,0-24h24.12a12,12,0,0,1,12,12h0Z"/>
      <path d="M363,123a12,12,0,0,1-12,12H325.93a12,12,0,0,1-12-12v-1a12,12,0,0,1,12-12H351a12,12,0,0,1,12,12v1Zm-48.12-.5a11.79,11.79,0,0,0,12,11.5H350a11.51,11.51,0,1,0,0-23H326.88A11.79,11.79,0,0,0,314.88,122.5Z"/>
      <path d="M329.25,126l-0.84-3q-0.15-.48-0.55-2.23h-0.05q-0.34,1.58-.54,2.24l-0.86,3h-1.52l-1.82-6.48h1.41l0.83,3.19q0.28,1.18.4,2h0q0.06-.43.18-1t0.21-.83l1-3.41h1.51l1,3.41q0.09,0.29.22,0.88a6.76,6.76,0,0,1,.16.92h0a18,18,0,0,1,.41-2l0.84-3.19h1.38L330.8,126h-1.55Z"/>
      <path d="M337,119.42a3.31,3.31,0,0,1,.69.06l-0.13,1.28a2.6,2.6,0,0,0-.61-0.07,1.76,1.76,0,0,0-1.34.54,2,2,0,0,0-.51,1.4V126h-1.38v-6.48h1.08l0.18,1.14h0.07a2.57,2.57,0,0,1,.84-0.92A2,2,0,0,1,337,119.42Z"/>
      <path d="M338.83,117.82a0.76,0.76,0,0,1,.2-0.57,0.79,0.79,0,0,1,.58-0.2,0.77,0.77,0,0,1,.57.2,0.76,0.76,0,0,1,.2.57,0.75,0.75,0,0,1-.2.55,0.76,0.76,0,0,1-.57.2,0.78,0.78,0,0,1-.58-0.2A0.75,0.75,0,0,1,338.83,117.82Zm1.46,8.2h-1.38v-6.48h1.38V126Z"/>
      <path d="M344.68,125a3.35,3.35,0,0,0,1-.16v1a2.78,2.78,0,0,1-.59.17,4.06,4.06,0,0,1-.75.07,1.78,1.78,0,0,1-2-2.06v-3.49h-0.88V120l0.95-.5,0.47-1.37h0.85v1.44h1.85v1h-1.85V124a1,1,0,0,0,.25.74A0.91,0.91,0,0,0,344.68,125Z"/>
      <path d="M349.81,126.13a3.13,3.13,0,0,1-2.36-.88,3.35,3.35,0,0,1-.85-2.43,3.67,3.67,0,0,1,.79-2.5,2.73,2.73,0,0,1,2.17-.91,2.67,2.67,0,0,1,2,.78,3,3,0,0,1,.74,2.14v0.74H348a2.13,2.13,0,0,0,.51,1.45,1.78,1.78,0,0,0,1.35.51,5,5,0,0,0,1.07-.11,5.61,5.61,0,0,0,1.06-.36v1.12a4.23,4.23,0,0,1-1,.34A6.25,6.25,0,0,1,349.81,126.13Zm-0.25-5.67a1.38,1.38,0,0,0-1.05.42,2,2,0,0,0-.47,1.21H351a1.79,1.79,0,0,0-.39-1.22A1.32,1.32,0,0,0,349.56,120.46Z"/>
    </g>
    <use width="49.07" height="25" transform="translate(312.93 108)" xlink:href="#op-write"/>
  </g>
  <g>
    <g opacity="0.1">
      <rect x="217.75" y="218" width="48" height="48" rx="6" ry="6" stroke="#000" stroke-width="1.5"/>
      <path d="M246.77,249l-1.94-4.94H238.6L236.69,249h-1.83L241,233.39h1.52L248.64,249h-1.87Zm-2.5-6.57-1.81-4.82q-0.35-.91-0.72-2.24a20.24,20.24,0,0,1-.67,2.24l-1.83,4.82h5Z"/>
    </g>
    <use width="49.5" height="49.5" transform="translate(216 215.25)" xlink:href="#rnn-a"/>
  </g>
  <g opacity="0.4">
    <g>
      <line x1="253" y1="216" x2="327.16" y2="141.84" fill="none" stroke="#666" stroke-miterlimit="10" stroke-width="1.5"/>
      <path d="M331,138a27.2,27.2,0,0,0-2.41,8.47l-1.93-4.12-4.12-1.93A27.18,27.18,0,0,0,331,138Z" fill="#666"/>
    </g>
  </g>
  <g opacity="0.4">
    <g>
      <path d="M265,222l58.93-58.93c3.89-3.89,9.77-7.07,13.07-7.07h0.57" fill="none" stroke="#666" stroke-miterlimit="10" stroke-width="1.5"/>
      <path d="M343,156a27.2,27.2,0,0,0-7.69,4.28l1.55-4.28-1.55-4.28A27.18,27.18,0,0,0,343,156Z" fill="#666"/>
    </g>
  </g>
  <g>
    <path d="M463,84l29.83,29c3.94,3.84,11.67,7,17.17,7h34c5.5,0,13.14-3.23,17-7.17l24.24-24.94" fill="none" stroke="#666" stroke-miterlimit="10" stroke-width="1.5"/>
    <path d="M589,84a27.2,27.2,0,0,0-2.29,8.5l-2-4.09-4.15-1.87A27.17,27.17,0,0,0,589,84Z" fill="#666"/>
  </g>
  <g>
    <path d="M607,84l-34,34.84c-3.84,3.94-7,11.66-7,17.16v40c0,5.5,3.13,13.24,7,17.19l18.27,18.9" fill="none" stroke="#666" stroke-miterlimit="10" stroke-width="1.5"/>
    <path d="M595,216a27.2,27.2,0,0,0-8.42-2.56l4.15-1.86,2-4.09A27.18,27.18,0,0,0,595,216Z" fill="#666"/>
  </g>
  <g id="_Group_10" data-name="&lt;Group&gt;">
    <g opacity="0.1">
      <path d="M590.52,157.5a12,12,0,0,1-12,12H554.41a12,12,0,0,1,0-24h24.12a12,12,0,0,1,12,12h0Z"/>
      <path d="M591,158a12,12,0,0,1-12,12H553.93a12,12,0,0,1-12-12v-1a12,12,0,0,1,12-12H579a12,12,0,0,1,12,12v1Zm-48.12-.5a11.79,11.79,0,0,0,12,11.5H578a11.51,11.51,0,1,0,0-23H554.88A11.79,11.79,0,0,0,542.88,157.5Z"/>
      <path d="M556.94,154.42a3.31,3.31,0,0,1,.69.06l-0.13,1.28a2.6,2.6,0,0,0-.61-0.07,1.76,1.76,0,0,0-1.34.54,2,2,0,0,0-.51,1.4V161h-1.38v-6.48h1.08l0.18,1.14H555a2.57,2.57,0,0,1,.84-0.92A2,2,0,0,1,556.94,154.42Z"/>
      <path d="M561.66,161.13a3.13,3.13,0,0,1-2.36-.88,3.35,3.35,0,0,1-.85-2.43,3.67,3.67,0,0,1,.79-2.5,2.73,2.73,0,0,1,2.17-.91,2.67,2.67,0,0,1,2,.78,3,3,0,0,1,.74,2.14v0.74h-4.32a2.13,2.13,0,0,0,.51,1.45,1.78,1.78,0,0,0,1.35.51,5,5,0,0,0,1.07-.11,5.61,5.61,0,0,0,1.06-.36v1.12a4.23,4.23,0,0,1-1,.34A6.25,6.25,0,0,1,561.66,161.13Zm-0.25-5.67a1.38,1.38,0,0,0-1.05.42,2,2,0,0,0-.47,1.21h2.94a1.79,1.79,0,0,0-.39-1.22A1.32,1.32,0,0,0,561.41,155.46Z"/>
      <path d="M569.8,161l-0.28-.9h0a2.65,2.65,0,0,1-.94.81,3,3,0,0,1-1.22.21,2.06,2.06,0,0,1-1.49-.52,1.93,1.93,0,0,1-.54-1.46,1.71,1.71,0,0,1,.74-1.51,4.29,4.29,0,0,1,2.27-.56l1.12,0v-0.35a1.31,1.31,0,0,0-.29-0.93,1.18,1.18,0,0,0-.9-0.31,3.11,3.11,0,0,0-1,.15,7.21,7.21,0,0,0-.88.35l-0.45-1a4.79,4.79,0,0,1,1.15-.42,5.31,5.31,0,0,1,1.18-.14,2.8,2.8,0,0,1,1.87.54,2.11,2.11,0,0,1,.63,1.69V161h-1Zm-2.05-.94a1.71,1.71,0,0,0,1.2-.42,1.52,1.52,0,0,0,.45-1.17v-0.56l-0.83,0a2.85,2.85,0,0,0-1.42.33,1,1,0,0,0-.44.89,0.87,0.87,0,0,0,.26.67A1.11,1.11,0,0,0,567.75,160.08Z"/>
      <path d="M574.89,161.13a2.26,2.26,0,0,1-1.89-.88,4.82,4.82,0,0,1,0-4.95,2.28,2.28,0,0,1,1.91-.89,2.23,2.23,0,0,1,1.95.94h0.07a8.25,8.25,0,0,1-.1-1.1V151.9h1.38V161h-1.08l-0.24-.85h-0.06A2.2,2.2,0,0,1,574.89,161.13Zm0.37-1.11a1.5,1.5,0,0,0,1.24-.48,2.51,2.51,0,0,0,.4-1.55V157.8a2.9,2.9,0,0,0-.4-1.74,1.48,1.48,0,0,0-1.25-.52,1.27,1.27,0,0,0-1.12.59,3,3,0,0,0-.39,1.68,2.94,2.94,0,0,0,.38,1.64A1.29,1.29,0,0,0,575.26,160Z"/>
    </g>
    <use width="49.07" height="25" transform="translate(540.93 143)" xlink:href="#op-read"/>
  </g>
  <g id="_Group_12" data-name="&lt;Group&gt;">
    <g opacity="0.1">
      <path d="M554.52,122.5a12,12,0,0,1-12,12H518.41a12,12,0,0,1,0-24h24.12a12,12,0,0,1,12,12h0Z"/>
      <path d="M555,123a12,12,0,0,1-12,12H517.93a12,12,0,0,1-12-12v-1a12,12,0,0,1,12-12H543a12,12,0,0,1,12,12v1Zm-48.12-.5a11.79,11.79,0,0,0,12,11.5H542a11.51,11.51,0,1,0,0-23H518.88A11.79,11.79,0,0,0,506.88,122.5Z"/>
      <path d="M521.25,126l-0.84-3q-0.15-.48-0.55-2.23h-0.05q-0.34,1.58-.54,2.24l-0.86,3h-1.52l-1.82-6.48h1.41l0.83,3.19q0.28,1.18.4,2h0q0.06-.43.18-1t0.21-.83l1-3.41h1.51l1,3.41q0.09,0.29.22,0.88a6.76,6.76,0,0,1,.16.92h0a18,18,0,0,1,.41-2l0.84-3.19h1.38L522.8,126h-1.55Z"/>
      <path d="M529,119.42a3.31,3.31,0,0,1,.69.06l-0.13,1.28a2.6,2.6,0,0,0-.61-0.07,1.76,1.76,0,0,0-1.34.54,2,2,0,0,0-.51,1.4V126h-1.38v-6.48h1.08l0.18,1.14h0.07a2.57,2.57,0,0,1,.84-0.92A2,2,0,0,1,529,119.42Z"/>
      <path d="M530.83,117.82a0.76,0.76,0,0,1,.2-0.57,0.79,0.79,0,0,1,.58-0.2,0.77,0.77,0,0,1,.57.2,0.76,0.76,0,0,1,.2.57,0.75,0.75,0,0,1-.2.55,0.76,0.76,0,0,1-.57.2,0.78,0.78,0,0,1-.58-0.2A0.75,0.75,0,0,1,530.83,117.82Zm1.46,8.2h-1.38v-6.48h1.38V126Z"/>
      <path d="M536.68,125a3.35,3.35,0,0,0,1-.16v1a2.78,2.78,0,0,1-.59.17,4.06,4.06,0,0,1-.75.07,1.78,1.78,0,0,1-2-2.06v-3.49h-0.88V120l0.95-.5,0.47-1.37h0.85v1.44h1.85v1h-1.85V124a1,1,0,0,0,.25.74A0.91,0.91,0,0,0,536.68,125Z"/>
      <path d="M541.81,126.13a3.13,3.13,0,0,1-2.36-.88,3.35,3.35,0,0,1-.85-2.43,3.67,3.67,0,0,1,.79-2.5,2.73,2.73,0,0,1,2.17-.91,2.67,2.67,0,0,1,2,.78,3,3,0,0,1,.74,2.14v0.74H540a2.13,2.13,0,0,0,.51,1.45,1.78,1.78,0,0,0,1.35.51,5,5,0,0,0,1.07-.11,5.61,5.61,0,0,0,1.06-.36v1.12a4.23,4.23,0,0,1-1,.34A6.25,6.25,0,0,1,541.81,126.13Zm-0.25-5.67a1.38,1.38,0,0,0-1.05.42,2,2,0,0,0-.47,1.21H543a1.79,1.79,0,0,0-.39-1.22A1.32,1.32,0,0,0,541.56,120.46Z"/>
    </g>
    <use width="49.07" height="25" transform="translate(504.93 108)" xlink:href="#op-write"/>
  </g>
  <g opacity="0.4">
    <g>
      <line x1="445" y1="216" x2="519.16" y2="141.84" fill="none" stroke="#666" stroke-miterlimit="10" stroke-width="1.5"/>
      <path d="M523,138a27.2,27.2,0,0,0-2.41,8.47l-1.93-4.12-4.12-1.93A27.18,27.18,0,0,0,523,138Z" fill="#666"/>
    </g>
  </g>
  <g opacity="0.4">
    <g>
      <path d="M457,222l58.93-58.93c3.89-3.89,9.77-7.07,13.07-7.07h0.57" fill="none" stroke="#666" stroke-miterlimit="10" stroke-width="1.5"/>
      <path d="M535,156a27.2,27.2,0,0,0-7.69,4.28l1.55-4.28-1.55-4.28A27.18,27.18,0,0,0,535,156Z" fill="#666"/>
    </g>
  </g>
  <g>
    <path d="M655,84l29.83,29c3.94,3.84,11.67,7,17.17,7h34c5.5,0,13.14-3.23,17-7.17l24.24-24.94" fill="none" stroke="#666" stroke-miterlimit="10" stroke-width="1.5"/>
    <path d="M781,84a27.2,27.2,0,0,0-2.29,8.5l-2-4.09-4.15-1.87A27.17,27.17,0,0,0,781,84Z" fill="#666"/>
  </g>
  <g>
    <path d="M799,84l-34,34.84c-3.84,3.94-7,11.66-7,17.16v40c0,5.5,3.13,13.24,7,17.19l18.27,18.9" fill="none" stroke="#666" stroke-miterlimit="10" stroke-width="1.5"/>
    <path d="M787,216a27.2,27.2,0,0,0-8.42-2.56l4.15-1.86,2-4.09A27.18,27.18,0,0,0,787,216Z" fill="#666"/>
  </g>
  <g id="_Group_14" data-name="&lt;Group&gt;">
    <g opacity="0.1">
      <path d="M782.52,157.5a12,12,0,0,1-12,12H746.41a12,12,0,0,1,0-24h24.12a12,12,0,0,1,12,12h0Z"/>
      <path d="M783,158a12,12,0,0,1-12,12H745.93a12,12,0,0,1-12-12v-1a12,12,0,0,1,12-12H771a12,12,0,0,1,12,12v1Zm-48.12-.5a11.79,11.79,0,0,0,12,11.5H770a11.51,11.51,0,1,0,0-23H746.88A11.79,11.79,0,0,0,734.88,157.5Z"/>
      <path d="M748.94,154.42a3.31,3.31,0,0,1,.69.06l-0.13,1.28a2.6,2.6,0,0,0-.61-0.07,1.76,1.76,0,0,0-1.34.54,2,2,0,0,0-.51,1.4V161h-1.38v-6.48h1.08l0.18,1.14H747a2.57,2.57,0,0,1,.84-0.92A2,2,0,0,1,748.94,154.42Z"/>
      <path d="M753.66,161.13a3.13,3.13,0,0,1-2.36-.88,3.35,3.35,0,0,1-.85-2.43,3.67,3.67,0,0,1,.79-2.5,2.73,2.73,0,0,1,2.17-.91,2.67,2.67,0,0,1,2,.78,3,3,0,0,1,.74,2.14v0.74h-4.32a2.13,2.13,0,0,0,.51,1.45,1.78,1.78,0,0,0,1.35.51,5,5,0,0,0,1.07-.11,5.61,5.61,0,0,0,1.06-.36v1.12a4.23,4.23,0,0,1-1,.34A6.25,6.25,0,0,1,753.66,161.13Zm-0.25-5.67a1.38,1.38,0,0,0-1.05.42,2,2,0,0,0-.47,1.21h2.94a1.79,1.79,0,0,0-.39-1.22A1.32,1.32,0,0,0,753.41,155.46Z"/>
      <path d="M761.8,161l-0.28-.9h0a2.65,2.65,0,0,1-.94.81,3,3,0,0,1-1.22.21,2.06,2.06,0,0,1-1.49-.52,1.93,1.93,0,0,1-.54-1.46,1.71,1.71,0,0,1,.74-1.51,4.29,4.29,0,0,1,2.27-.56l1.12,0v-0.35a1.31,1.31,0,0,0-.29-0.93,1.18,1.18,0,0,0-.9-0.31,3.11,3.11,0,0,0-1,.15,7.21,7.21,0,0,0-.88.35l-0.45-1a4.79,4.79,0,0,1,1.15-.42,5.31,5.31,0,0,1,1.18-.14,2.8,2.8,0,0,1,1.87.54,2.11,2.11,0,0,1,.63,1.69V161h-1Zm-2.05-.94a1.71,1.71,0,0,0,1.2-.42,1.52,1.52,0,0,0,.45-1.17v-0.56l-0.83,0a2.85,2.85,0,0,0-1.42.33,1,1,0,0,0-.44.89,0.87,0.87,0,0,0,.26.67A1.11,1.11,0,0,0,759.75,160.08Z"/>
      <path d="M766.89,161.13a2.26,2.26,0,0,1-1.89-.88,4.82,4.82,0,0,1,0-4.95,2.28,2.28,0,0,1,1.91-.89,2.23,2.23,0,0,1,1.95.94h0.07a8.25,8.25,0,0,1-.1-1.1V151.9h1.38V161h-1.08l-0.24-.85h-0.06A2.2,2.2,0,0,1,766.89,161.13Zm0.37-1.11a1.5,1.5,0,0,0,1.24-.48,2.51,2.51,0,0,0,.4-1.55V157.8a2.9,2.9,0,0,0-.4-1.74,1.48,1.48,0,0,0-1.25-.52,1.27,1.27,0,0,0-1.12.59,3,3,0,0,0-.39,1.68,2.94,2.94,0,0,0,.38,1.64A1.29,1.29,0,0,0,767.26,160Z"/>
    </g>
    <use width="49.07" height="25" transform="translate(732.93 143)" xlink:href="#op-read"/>
  </g>
  <g id="_Group_16" data-name="&lt;Group&gt;">
    <g opacity="0.1">
      <path d="M746.52,122.5a12,12,0,0,1-12,12H710.41a12,12,0,0,1,0-24h24.12a12,12,0,0,1,12,12h0Z"/>
      <path d="M747,123a12,12,0,0,1-12,12H709.93a12,12,0,0,1-12-12v-1a12,12,0,0,1,12-12H735a12,12,0,0,1,12,12v1Zm-48.12-.5a11.79,11.79,0,0,0,12,11.5H734a11.51,11.51,0,1,0,0-23H710.88A11.79,11.79,0,0,0,698.88,122.5Z"/>
      <path d="M713.25,126l-0.84-3q-0.15-.48-0.55-2.23h-0.05q-0.34,1.58-.54,2.24l-0.86,3h-1.52l-1.82-6.48h1.41l0.83,3.19q0.28,1.18.4,2h0q0.06-.43.18-1t0.21-.83l1-3.41h1.51l1,3.41q0.09,0.29.22,0.88a6.76,6.76,0,0,1,.16.92h0a18,18,0,0,1,.41-2l0.84-3.19h1.38L714.8,126h-1.55Z"/>
      <path d="M721,119.42a3.31,3.31,0,0,1,.69.06l-0.13,1.28a2.6,2.6,0,0,0-.61-0.07,1.76,1.76,0,0,0-1.34.54,2,2,0,0,0-.51,1.4V126h-1.38v-6.48h1.08l0.18,1.14h0.07a2.57,2.57,0,0,1,.84-0.92A2,2,0,0,1,721,119.42Z"/>
      <path d="M722.83,117.82a0.76,0.76,0,0,1,.2-0.57,0.79,0.79,0,0,1,.58-0.2,0.77,0.77,0,0,1,.57.2,0.76,0.76,0,0,1,.2.57,0.75,0.75,0,0,1-.2.55,0.76,0.76,0,0,1-.57.2,0.78,0.78,0,0,1-.58-0.2A0.75,0.75,0,0,1,722.83,117.82Zm1.46,8.2h-1.38v-6.48h1.38V126Z"/>
      <path d="M728.68,125a3.35,3.35,0,0,0,1-.16v1a2.78,2.78,0,0,1-.59.17,4.06,4.06,0,0,1-.75.07,1.78,1.78,0,0,1-2-2.06v-3.49h-0.88V120l0.95-.5,0.47-1.37h0.85v1.44h1.85v1h-1.85V124a1,1,0,0,0,.25.74A0.91,0.91,0,0,0,728.68,125Z"/>
      <path d="M733.81,126.13a3.13,3.13,0,0,1-2.36-.88,3.35,3.35,0,0,1-.85-2.43,3.67,3.67,0,0,1,.79-2.5,2.73,2.73,0,0,1,2.17-.91,2.67,2.67,0,0,1,2,.78,3,3,0,0,1,.74,2.14v0.74H732a2.13,2.13,0,0,0,.51,1.45,1.78,1.78,0,0,0,1.35.51,5,5,0,0,0,1.07-.11,5.61,5.61,0,0,0,1.06-.36v1.12a4.23,4.23,0,0,1-1,.34A6.25,6.25,0,0,1,733.81,126.13Zm-0.25-5.67a1.38,1.38,0,0,0-1.05.42,2,2,0,0,0-.47,1.21H735a1.79,1.79,0,0,0-.39-1.22A1.32,1.32,0,0,0,733.56,120.46Z"/>
    </g>
    <use width="49.07" height="25" transform="translate(696.93 108)" xlink:href="#op-write"/>
  </g>
  <g opacity="0.4">
    <g>
      <line x1="637" y1="216" x2="711.16" y2="141.84" fill="none" stroke="#666" stroke-miterlimit="10" stroke-width="1.5"/>
      <path d="M715,138a27.2,27.2,0,0,0-2.41,8.47l-1.93-4.12-4.12-1.93A27.18,27.18,0,0,0,715,138Z" fill="#666"/>
    </g>
  </g>
  <g opacity="0.4">
    <g>
      <path d="M649,222l58.93-58.93c3.89-3.89,9.77-7.07,13.07-7.07h0.57" fill="none" stroke="#666" stroke-miterlimit="10" stroke-width="1.5"/>
      <path d="M727,156a27.2,27.2,0,0,0-7.69,4.28l1.55-4.28-1.55-4.28A27.18,27.18,0,0,0,727,156Z" fill="#666"/>
    </g>
  </g>
  <text transform="translate(169 12)" font-size="12" fill="#666" font-family="Open Sans">Memory is an array of vectors</text>
  <text transform="translate(168 118.28)" font-size="12" fill="#666" font-family="Open Sans">Network A <tspan x="0" y="18">writes to and reads </tspan><tspan x="0" y="36">from the memory </tspan><tspan x="0" y="54">each step</tspan></text>
  <g>
    <line x1="265" y1="240" x2="398.32" y2="240" fill="none" stroke="#666" stroke-miterlimit="10" stroke-width="1.5"/>
    <path d="M403.75,240a27.2,27.2,0,0,0-7.69,4.28l1.55-4.28-1.55-4.28A27.18,27.18,0,0,0,403.75,240Z" fill="#666"/>
  </g>
  <g>
    <line x1="457" y1="240" x2="590.32" y2="240" fill="none" stroke="#666" stroke-miterlimit="10" stroke-width="1.5"/>
    <path d="M595.75,240a27.2,27.2,0,0,0-7.69,4.28l1.55-4.28-1.55-4.28A27.18,27.18,0,0,0,595.75,240Z" fill="#666"/>
  </g>
  <g>
    <line x1="649" y1="240" x2="782.32" y2="240" fill="none" stroke="#666" stroke-miterlimit="10" stroke-width="1.5"/>
    <path d="M787.75,240a27.2,27.2,0,0,0-7.69,4.28l1.55-4.28-1.55-4.28A27.18,27.18,0,0,0,787.75,240Z" fill="#666"/>
  </g>
  <text transform="translate(223.93 306)" font-size="12" fill="#666" font-family="Open Sans">x0</text>
  <text transform="translate(248.05 306)" font-size="12" fill="#666" font-family="Open Sans">y0</text>
  <g>
    <line x1="229.5" y1="291.08" x2="229.5" y2="274.01" fill="none" stroke="#666" stroke-miterlimit="10" stroke-width="1.5"/>
    <path d="M229.5,268.58a27.2,27.2,0,0,0,4.28,7.69l-4.28-1.55-4.28,1.55A27.17,27.17,0,0,0,229.5,268.58Z" fill="#666"/>
  </g>
  <g>
    <line x1="253.5" y1="264.58" x2="253.5" y2="285.65" fill="none" stroke="#666" stroke-miterlimit="10" stroke-width="1.5"/>
    <path d="M253.5,291.08a27.2,27.2,0,0,0-4.28-7.69l4.28,1.55,4.28-1.55A27.18,27.18,0,0,0,253.5,291.08Z" fill="#666"/>
  </g>
  <g>
    <line x1="418.5" y1="292.41" x2="418.5" y2="274.01" fill="none" stroke="#666" stroke-miterlimit="10" stroke-width="1.5"/>
    <path d="M418.5,268.58a27.2,27.2,0,0,0,4.28,7.69l-4.28-1.55-4.28,1.55A27.17,27.17,0,0,0,418.5,268.58Z" fill="#666"/>
  </g>
  <g>
    <line x1="443.5" y1="264.58" x2="443.5" y2="286.98" fill="none" stroke="#666" stroke-miterlimit="10" stroke-width="1.5"/>
    <path d="M443.5,292.41a27.2,27.2,0,0,0-4.28-7.69l4.28,1.55,4.28-1.55A27.18,27.18,0,0,0,443.5,292.41Z" fill="#666"/>
  </g>
  <g>
    <line x1="611.33" y1="292.41" x2="611.33" y2="274.01" fill="none" stroke="#666" stroke-miterlimit="10" stroke-width="1.5"/>
    <path d="M611.33,268.58a27.2,27.2,0,0,0,4.28,7.69l-4.28-1.55-4.28,1.55A27.17,27.17,0,0,0,611.33,268.58Z" fill="#666"/>
  </g>
  <g>
    <line x1="636.33" y1="264.58" x2="636.33" y2="286.98" fill="none" stroke="#666" stroke-miterlimit="10" stroke-width="1.5"/>
    <path d="M636.33,292.41a27.2,27.2,0,0,0-4.28-7.69l4.28,1.55,4.28-1.55A27.18,27.18,0,0,0,636.33,292.41Z" fill="#666"/>
  </g>
  <text transform="translate(411.59 306)" font-size="12" fill="#666" font-family="Open Sans">x1</text>
  <text transform="translate(435.71 306)" font-size="12" fill="#666" font-family="Open Sans">y1</text>
  <text transform="translate(604.43 306)" font-size="12" fill="#666" font-family="Open Sans">x2</text>
  <text transform="translate(628.55 306)" font-size="12" fill="#666" font-family="Open Sans">y2</text>
  <g>
    <line x1="803.33" y1="292.41" x2="803.33" y2="274.01" fill="none" stroke="#666" stroke-miterlimit="10" stroke-width="1.5"/>
    <path d="M803.33,268.58a27.2,27.2,0,0,0,4.28,7.69l-4.28-1.55-4.28,1.55A27.17,27.17,0,0,0,803.33,268.58Z" fill="#666"/>
  </g>
  <g>
    <line x1="828.33" y1="264.58" x2="828.33" y2="286.98" fill="none" stroke="#666" stroke-miterlimit="10" stroke-width="1.5"/>
    <path d="M828.33,292.41a27.2,27.2,0,0,0-4.28-7.69l4.28,1.55,4.28-1.55A27.18,27.18,0,0,0,828.33,292.41Z" fill="#666"/>
  </g>
  <text transform="translate(796.43 306)" font-size="12" fill="#666" font-family="Open Sans">x2</text>
  <text transform="translate(820.55 306)" font-size="12" fill="#666" font-family="Open Sans">y2</text>
  <use width="36" height="36" transform="translate(180 41.45) scale(0.83)" xlink:href="#array-vector"/>
  <use width="36" height="36" transform="translate(210.04 41.45) scale(0.83)" xlink:href="#array-vector"/>
  <use width="36" height="36" transform="translate(240.08 41.45) scale(0.83)" xlink:href="#array-vector"/>
  <use width="36" height="36" transform="translate(270.12 41.45) scale(0.83)" xlink:href="#array-vector"/>
  <use width="36" height="36" transform="matrix(0.59, 0.59, -0.59, 0.59, 387.02, 35.23)" xlink:href="#array-vector"/>
  <use width="36" height="36" transform="translate(402.04 41.45) scale(0.83)" xlink:href="#array-vector"/>
  <use width="36" height="36" transform="translate(432.08 41.45) scale(0.83)" xlink:href="#array-vector"/>
  <use width="36" height="36" transform="translate(462.12 41.45) scale(0.83)" xlink:href="#array-vector"/>
  <use width="36" height="36" transform="matrix(0.59, 0.59, -0.59, 0.59, 579.02, 35.23)" xlink:href="#array-vector"/>
  <use width="36" height="36" transform="matrix(0.59, 0.59, -0.59, 0.59, 609.06, 35.23)" xlink:href="#array-vector"/>
  <use width="36" height="36" transform="translate(624.08 41.45) scale(0.83)" xlink:href="#array-vector"/>
  <use width="36" height="36" transform="translate(654.12 41.45) scale(0.83)" xlink:href="#array-vector"/>
  <use width="36" height="36" transform="matrix(0.59, 0.59, -0.59, 0.59, 771.02, 35.23)" xlink:href="#array-vector"/>
  <use width="36" height="36" transform="matrix(0.59, 0.59, -0.59, 0.59, 801.06, 35.23)" xlink:href="#array-vector"/>
  <use width="36" height="36" transform="matrix(0.59, 0.59, -0.59, 0.59, 831.1, 35.23)" xlink:href="#array-vector"/>
  <use width="36" height="36" transform="translate(846.12 41.45) scale(0.83)" xlink:href="#array-vector"/>
</svg>
