<svg id="background" xmlns="http://www.w3.org/2000/svg" xmlns:xlink="http://www.w3.org/1999/xlink" width="984" height="492" viewBox="0 0 984 492">
  <defs>
    <symbol id="rnn-bg" data-name="rnn-bg" viewBox="0 0 48 48">
      <rect width="48" height="48" rx="6" ry="6" fill="#798294"/>
    </symbol>
    <symbol id="rnn-b" data-name="rnn-b" viewBox="0 0 48 48">
      <use id="rnn-bg-3" data-name="rnn-bg" width="48" height="48" xlink:href="#rnn-bg"/>
      <text transform="translate(16.74 31)" font-size="21.77" fill="#fff" font-family="Helvetica">B</text>
    </symbol>
    <symbol id="rnn-a" data-name="rnn-a" viewBox="0 0 48 48">
      <use id="rnn-bg-15" data-name="rnn-bg" width="48" height="48" xlink:href="#rnn-bg"/>
      <text transform="translate(17.33 31)" font-size="21.77" fill="#fff" font-family="Helvetica" letter-spacing="-1">A</text>
    </symbol>
    <symbol id="op-bg" data-name="op-bg" viewBox="0 0 22.5 22.5">
      <circle cx="11.25" cy="11.25" r="11.25" fill="#798294"/>
    </symbol>
    <symbol id="op-dot" data-name="op-dot" viewBox="0 0 22.5 24.7">
      <use width="22.5" height="22.5" xlink:href="#op-bg"/>
      <text transform="translate(8.95 17)" font-size="16" fill="#fff" font-family="Helvetica">•</text>
    </symbol>
    <symbol id="op-x" data-name="op-x" viewBox="0 0 22.5 22.5">
      <use width="22.5" height="22.5" xlink:href="#op-bg"/>
      <path d="M8.41,14.53l-1-1L10,11,7.41,8.41l1-1L11,10l2.56-2.56,1,1L12,11l2.57,2.57-1,1L11,12Z" fill="#fff"/>
    </symbol>
  </defs>
  <title>rnn</title>
  <g id="_Group_" data-name="&lt;Group&gt;">
    <path d="M695,66.48c0,3-3,5.52-6.69,5.52H176.67c-4.77,0-8.67-2.48-8.67-5.52V10c0-5.49,3.9-10,8.67-10H688.31C692,0,695,4.49,695,10V66.48Z" fill="#e6eaf2"/>
  </g>
  <g id="_Group_2" data-name="&lt;Group&gt;">
    <path d="M527,426.48c0,3-3,5.52-6.69,5.52H176.67c-4.77,0-8.67-2.48-8.67-5.52V370c0-5.49,3.9-10,8.67-10H520.31c3.68,0,6.69,4.49,6.69,10v56.51Z" fill="#e6eaf2"/>
  </g>
  <g>
    <line x1="491" y1="35.73" x2="537.92" y2="35.73" fill="none" stroke="#8c8c8c" stroke-miterlimit="10"/>
    <polygon points="534.6 39.82 533.92 39.09 537.53 35.73 533.92 32.37 534.6 31.64 539 35.73 534.6 39.82" fill="#8c8c8c"/>
  </g>
  <g>
    <line x1="227" y1="35.73" x2="441.92" y2="35.73" fill="none" stroke="#8c8c8c" stroke-miterlimit="10"/>
    <polygon points="438.6 39.82 437.92 39.09 441.53 35.73 437.92 32.37 438.6 31.64 443 35.73 438.6 39.82" fill="#8c8c8c"/>
  </g>
  <g>
    <line x1="587" y1="35.73" x2="633.92" y2="35.73" fill="none" stroke="#8c8c8c" stroke-miterlimit="10"/>
    <polygon points="630.6 39.82 629.92 39.09 633.53 35.73 629.92 32.37 630.6 31.64 635 35.73 630.6 39.82" fill="#8c8c8c"/>
  </g>
  <g>
    <line x1="226.92" y1="395.73" x2="273.92" y2="395.73" fill="none" stroke="#8c8c8c" stroke-miterlimit="10"/>
    <polygon points="270.6 399.82 269.92 399.09 273.53 395.73 269.92 392.37 270.6 391.64 275 395.73 270.6 399.82" fill="#8c8c8c"/>
  </g>
  <g>
    <line x1="322.92" y1="395.73" x2="369.92" y2="395.73" fill="none" stroke="#8c8c8c" stroke-miterlimit="10"/>
    <polygon points="366.6 399.82 365.92 399.09 369.53 395.73 365.92 392.37 366.6 391.64 371 395.73 366.6 399.82" fill="#8c8c8c"/>
  </g>
  <g>
    <line x1="418.92" y1="395.73" x2="465.92" y2="395.73" fill="none" stroke="#8c8c8c" stroke-miterlimit="10"/>
    <polygon points="462.6 399.82 461.92 399.09 465.53 395.73 461.92 392.37 462.6 391.64 467 395.73 462.6 399.82" fill="#8c8c8c"/>
  </g>
  <line x1="253" y1="326.5" x2="544" y2="326.5" fill="none" stroke="#8c8c8c" stroke-miterlimit="10"/>
  <line x1="252.5" y1="325" x2="252.5" y2="22" fill="none" stroke="#8c8c8c" stroke-miterlimit="10"/>
  <polyline points="298.5 285 298.5 298 316.5 315.5 316.5 334" fill="none" stroke="#8c8c8c" stroke-miterlimit="10"/>
  <polyline points="289.5 266 289.5 299 262 326.5 239 326" fill="none" stroke="#8c8c8c" stroke-miterlimit="10"/>
  <polyline points="395.5 285 395.5 298 413.5 315.5 413.5 334" fill="none" stroke="#8c8c8c" stroke-miterlimit="10"/>
  <polyline points="386.5 266 386.5 299 359 326.5 336 326" fill="none" stroke="#8c8c8c" stroke-miterlimit="10"/>
  <polyline points="492.5 285 492.5 298 510.5 315.5 510.5 334" fill="none" stroke="#8c8c8c" stroke-miterlimit="10"/>
  <polyline points="483.5 266 483.5 299 456 326.5 433 326" fill="none" stroke="#8c8c8c" stroke-miterlimit="10"/>
  <polyline points="589.5 285 589.5 298 607.5 315.5 607.5 334" fill="none" stroke="#8c8c8c" stroke-miterlimit="10"/>
  <polyline points="580.5 266 580.5 299 553 326.5 530 326" fill="none" stroke="#8c8c8c" stroke-miterlimit="10"/>
  <line x1="315.5" y1="360" x2="315.5" y2="194" fill="none" stroke="#8c8c8c" stroke-miterlimit="10"/>
  <line x1="413.5" y1="360" x2="413.5" y2="194" fill="none" stroke="#8c8c8c" stroke-miterlimit="10"/>
  <line x1="511.5" y1="360" x2="511.5" y2="194" fill="none" stroke="#8c8c8c" stroke-miterlimit="10"/>
  <line x1="608.5" y1="360" x2="608.5" y2="194" fill="none" stroke="#8c8c8c" stroke-miterlimit="10"/>
  <polyline points="293.5 219 293.5 201 308.5 186" fill="none" stroke="#8c8c8c" stroke-miterlimit="10"/>
  <line x1="293.5" y1="248" x2="293.5" y2="270" fill="none" stroke="#8c8c8c" stroke-miterlimit="10"/>
  <polyline points="390.5 219 390.5 201 405.5 186" fill="none" stroke="#8c8c8c" stroke-miterlimit="10"/>
  <line x1="390.5" y1="248" x2="390.5" y2="270" fill="none" stroke="#8c8c8c" stroke-miterlimit="10"/>
  <polyline points="487.5 219 487.5 201 502.5 186" fill="none" stroke="#8c8c8c" stroke-miterlimit="10"/>
  <line x1="487.5" y1="248" x2="487.5" y2="270" fill="none" stroke="#8c8c8c" stroke-miterlimit="10"/>
  <polyline points="584.5 219 584.5 201 599.5 186" fill="none" stroke="#8c8c8c" stroke-miterlimit="10"/>
  <line x1="584.5" y1="248" x2="584.5" y2="270" fill="none" stroke="#8c8c8c" stroke-miterlimit="10"/>
  <use width="48" height="48" transform="translate(179 12)" xlink:href="#rnn-b"/>
  <use width="48" height="48" transform="translate(443 12)" xlink:href="#rnn-b"/>
  <use width="48" height="48" transform="translate(539 12)" xlink:href="#rnn-b"/>
  <use width="48" height="48" transform="translate(635 12)" xlink:href="#rnn-b"/>
  <use width="48" height="48" transform="translate(179 372)" xlink:href="#rnn-a"/>
  <use width="48" height="48" transform="translate(275 372)" xlink:href="#rnn-a"/>
  <use width="48" height="48" transform="translate(371 372)" xlink:href="#rnn-a"/>
  <use width="48" height="48" transform="translate(467 372)" xlink:href="#rnn-a"/>
  <use id="op-dot-3" data-name="op-dot" width="22.5" height="24.7" transform="translate(282.75 262.75)" xlink:href="#op-dot"/>
  <use id="op-dot-6" data-name="op-dot" width="22.5" height="24.7" transform="translate(476.75 262.75)" xlink:href="#op-dot"/>
  <use id="op-dot-9" data-name="op-dot" width="22.5" height="24.7" transform="translate(573.75 262.75)" xlink:href="#op-dot"/>
  <use id="op-dot-12" data-name="op-dot" width="22.5" height="24.7" transform="translate(380.75 262.75)" xlink:href="#op-dot"/>
  <g id="_Group_3" data-name="&lt;Group&gt;">
    <path d="M604,235a12,12,0,0,1-12,12H290.73a12,12,0,1,1,0-24H592a12,12,0,0,1,12,12h0Z" fill="#596673"/>
  </g>
  <text transform="translate(289.86 237.99)" font-size="11" fill="#fff" font-family="Open Sans">softmax</text>
  <use width="22.5" height="22.5" transform="translate(302.75 177.75)" xlink:href="#op-x"/>
  <use width="22.5" height="22.5" transform="translate(407 177.75)" xlink:href="#op-x"/>
  <use width="22.5" height="22.5" transform="translate(511.25 177.75)" xlink:href="#op-x"/>
  <use width="22.5" height="22.5" transform="translate(615.5 177.75)" xlink:href="#op-x"/>
</svg>
