<svg id="background" xmlns="http://www.w3.org/2000/svg" xmlns:xlink="http://www.w3.org/1999/xlink" width="984" height="246" viewBox="0 0 984 246">
  <defs>
    <clipPath id="clip-path">
      <rect id="first-clip" x="228" y="6" width="84" height="144" fill="none"/>
    </clipPath>
    <clipPath id="clip-path-2">
      <polygon points="500 6 306 6 306 36 360 36 360 138 444 138 444 36 500 36 500 6" fill="none"/>
    </clipPath>
    <clipPath id="clip-path-3">
      <polygon points="612 6 438 6 438 36 492 36 492 138 576 138 576 36 612 36 612 6" fill="none"/>
    </clipPath>
    <clipPath id="clip-path-4">
      <rect x="624" y="6" width="60" height="120" fill="none"/>
    </clipPath>
    <symbol id="rnn-bg" data-name="rnn-bg" viewBox="0 0 49.5 49.5">
      <rect x="0.75" y="0.75" width="48" height="48" rx="6" ry="6" fill="#fff" stroke="#666" stroke-width="1.5"/>
    </symbol>
    <symbol id="rnn-a" data-name="rnn-a" viewBox="0 0 49.5 49.5">
      <use id="rnn-bg-3" data-name="rnn-bg" width="49.5" height="49.5" xlink:href="#rnn-bg"/>
      <text transform="translate(18.08 31.75)" font-size="21.77" fill="#515151" font-family="Helvetica" letter-spacing="-1">A</text>
    </symbol>
    <symbol id="op-1" data-name="op-1" viewBox="0 0 50.5 27.5">
      <g>
        <g opacity="0.1">
          <rect x="1.75" y="2.75" width="48" height="24" rx="12" ry="12"/>
          <rect x="1.75" y="2.75" width="48" height="24" rx="12" ry="12" fill="none" stroke="#000" stroke-miterlimit="10" stroke-width="1.5"/>
        </g>
        <g>
          <rect x="0.75" y="0.75" width="48" height="24" rx="12" ry="12" fill="#fff"/>
          <rect x="0.75" y="0.75" width="48" height="24" rx="12" ry="12" fill="none" stroke="#666" stroke-miterlimit="10" stroke-width="1.5"/>
        </g>
      </g>
      <text transform="translate(11.36 16.27)" font-size="12" fill="#666" font-family="Open Sans">Op 1</text>
    </symbol>
    <symbol id="op-2" data-name="op-2" viewBox="0 0 50.5 27.5">
      <g>
        <g opacity="0.1">
          <rect x="1.75" y="2.75" width="48" height="24" rx="12" ry="12"/>
          <rect x="1.75" y="2.75" width="48" height="24" rx="12" ry="12" fill="none" stroke="#000" stroke-miterlimit="10" stroke-width="1.5"/>
        </g>
        <g>
          <rect x="0.75" y="0.75" width="48" height="24" rx="12" ry="12" fill="#fff"/>
          <rect x="0.75" y="0.75" width="48" height="24" rx="12" ry="12" fill="none" stroke="#666" stroke-miterlimit="10" stroke-width="1.5"/>
        </g>
      </g>
      <text transform="translate(11.36 16.27)" font-size="12" fill="#666" font-family="Open Sans">Op 2</text>
    </symbol>
    <symbol id="op-3" data-name="op-3" viewBox="0 0 50.5 27.5">
      <g>
        <g opacity="0.1">
          <rect x="1.75" y="2.75" width="48" height="24" rx="12" ry="12"/>
          <rect x="1.75" y="2.75" width="48" height="24" rx="12" ry="12" fill="none" stroke="#000" stroke-miterlimit="10" stroke-width="1.5"/>
        </g>
        <g>
          <rect x="0.75" y="0.75" width="48" height="24" rx="12" ry="12" fill="#fff"/>
          <rect x="0.75" y="0.75" width="48" height="24" rx="12" ry="12" fill="none" stroke="#666" stroke-miterlimit="10" stroke-width="1.5"/>
        </g>
      </g>
      <text transform="translate(11.41 16.27)" font-size="12" fill="#666" font-family="Open Sans">Op 3</text>
    </symbol>
  </defs>
  <title>rnn</title>
  <g id="_Group_" data-name="&lt;Group&gt;">
    <rect x="168" y="162" width="468" height="72" rx="10" ry="10" opacity="0.04"/>
    <g opacity="0.1">
      <rect x="168" y="162" width="468" height="72" rx="10" ry="10" fill="none" stroke="#231f20"/>
    </g>
  </g>
  <path d="M367.26,24h-103" fill="none" stroke="#8c8c8c" stroke-miterlimit="10" stroke-width="1.5"/>
  <g clip-path="url(#clip-path)">
    <g opacity="0.9">
      <path d="M222,120h9c4.95,0,9-4.5,9-10V34a10,10,0,0,1,10-10h31.75" fill="none" stroke="#8c8c8c" stroke-miterlimit="10" stroke-width="1.5"/>
    </g>
    <g opacity="0.2">
      <path d="M222,84h9c4.95,0,9-4.5,9-10V34a10,10,0,0,1,10-10h31.75" fill="none" stroke="#8c8c8c" stroke-miterlimit="10" stroke-width="1.5"/>
    </g>
    <g opacity="0.4">
      <path d="M222,48h9c5,0,9-4.5,9-10V34a10,10,0,0,1,10-10h31.7" fill="none" stroke="#8c8c8c" stroke-miterlimit="10" stroke-width="1.5"/>
    </g>
    <g opacity="0.2">
      <path d="M318,120h-9c-4.95,0-9-4.5-9-10V34a10,10,0,0,0-10-10H262.25" fill="none" stroke="#8c8c8c" stroke-miterlimit="10" stroke-width="1.5"/>
    </g>
    <g opacity="0.9">
      <path d="M318,84h-9c-4.95,0-9-4.5-9-10V34a10,10,0,0,0-10-10H262.25" fill="none" stroke="#8c8c8c" stroke-miterlimit="10" stroke-width="1.5"/>
    </g>
    <g opacity="0.2">
      <path d="M318,48h-9c-4.95,0-9-4.5-9-10V34a10,10,0,0,0-10-10H258.25" fill="none" stroke="#8c8c8c" stroke-miterlimit="10" stroke-width="1.5"/>
    </g>
  </g>
  <g clip-path="url(#clip-path-2)">
    <g opacity="0.2">
      <path d="M354,120h9c5,0,9-4.5,9-10V22a10,10,0,0,1,10-10h31.7" fill="none" stroke="#8c8c8c" stroke-miterlimit="10" stroke-width="1.5"/>
    </g>
    <g opacity="0.9">
      <path d="M354,84h9c5,0,9-4.5,9-10V22a10,10,0,0,1,10-10h31.7" fill="none" stroke="#8c8c8c" stroke-miterlimit="10" stroke-width="1.5"/>
    </g>
    <g opacity="0.2">
      <path d="M354,48h9c5,0,9-4.5,9-10V22a10,10,0,0,1,10-10h31.7" fill="none" stroke="#8c8c8c" stroke-miterlimit="10" stroke-width="1.5"/>
    </g>
    <g opacity="0.9">
      <path d="M451.05,122H430a10,10,0,0,1-10-10V34a10,10,0,0,0-10-10H376.65" fill="none" stroke="#8c8c8c" stroke-miterlimit="10" stroke-width="1.5"/>
    </g>
    <g opacity="0.2">
      <path d="M451.05,86H430a10,10,0,0,1-10-10V34a10,10,0,0,0-10-10H376.65" fill="none" stroke="#8c8c8c" stroke-miterlimit="10" stroke-width="1.5"/>
    </g>
    <g opacity="0.2">
      <path d="M451.05,49H430a10,10,0,0,1-10-10V34a10,10,0,0,0-10-10H376.65" fill="none" stroke="#8c8c8c" stroke-miterlimit="10" stroke-width="1.5"/>
    </g>
    <g opacity="0.9">
      <path d="M450.25,119h-9.12c-5,0-9.12-4.5-9.12-10V22a10,10,0,0,0-10-10H390.5" fill="none" stroke="#8c8c8c" stroke-miterlimit="10" stroke-width="1.5"/>
    </g>
    <g opacity="0.2">
      <path d="M450.25,83h-9.12c-5,0-9.12-4.5-9.12-10V22a10,10,0,0,0-10-10H390.5" fill="none" stroke="#8c8c8c" stroke-miterlimit="10" stroke-width="1.5"/>
    </g>
    <g opacity="0.2">
      <path d="M450.25,46h-9.12c-5,0-9.12-4.5-9.12-10V22a10,10,0,0,0-10-10H390.5" fill="none" stroke="#8c8c8c" stroke-miterlimit="10" stroke-width="1.5"/>
    </g>
    <path d="M500.17,24H459.75a38.44,38.44,0,0,1-18.28-5.6l-1.18-.8A38.44,38.44,0,0,0,422,12H396.5" fill="none" stroke="#8c8c8c" stroke-miterlimit="10" stroke-width="1.5"/>
  </g>
  <g clip-path="url(#clip-path-3)">
    <g opacity="0.9">
      <path d="M486,120h9c5,0,9-4.5,9-10V22a10,10,0,0,1,10-10h31.7" fill="none" stroke="#8c8c8c" stroke-miterlimit="10" stroke-width="1.5"/>
    </g>
    <g opacity="0.2">
      <path d="M486,84h9c5,0,9-4.5,9-10V22a10,10,0,0,1,10-10h31.7" fill="none" stroke="#8c8c8c" stroke-miterlimit="10" stroke-width="1.5"/>
    </g>
    <g opacity="0.2">
      <path d="M486,48h9c5,0,9-4.5,9-10V22a10,10,0,0,1,10-10h31.7" fill="none" stroke="#8c8c8c" stroke-miterlimit="10" stroke-width="1.5"/>
    </g>
    <g opacity="0.2">
      <path d="M583.05,122H562a10,10,0,0,1-10-10V34a10,10,0,0,0-10-10H507.83" fill="none" stroke="#8c8c8c" stroke-miterlimit="10" stroke-width="1.5"/>
    </g>
    <g opacity="0.2">
      <path d="M583.05,86H562a10,10,0,0,1-10-10V34a10,10,0,0,0-10-10H507.83" fill="none" stroke="#8c8c8c" stroke-miterlimit="10" stroke-width="1.5"/>
    </g>
    <g opacity="0.9">
      <path d="M583.05,50H562a10,10,0,0,1-10-10V34a10,10,0,0,0-10-10H507.83" fill="none" stroke="#8c8c8c" stroke-miterlimit="10" stroke-width="1.5"/>
    </g>
    <g opacity="0.2">
      <path d="M582.25,119h-9.12c-5,0-9.12-4.5-9.12-10V22a10,10,0,0,0-10-10H522.5" fill="none" stroke="#8c8c8c" stroke-miterlimit="10" stroke-width="1.5"/>
    </g>
    <g opacity="0.2">
      <path d="M582.25,83h-9.12c-5,0-9.12-4.5-9.12-10V22a10,10,0,0,0-10-10H522.5" fill="none" stroke="#8c8c8c" stroke-miterlimit="10" stroke-width="1.5"/>
    </g>
    <g opacity="0.9">
      <path d="M582.25,47h-9.12c-5,0-9.12-4.5-9.12-10V22a10,10,0,0,0-10-10H522.5" fill="none" stroke="#8c8c8c" stroke-miterlimit="10" stroke-width="1.5"/>
    </g>
  </g>
  <g clip-path="url(#clip-path-4)">
    <g opacity="0.9">
      <g>
        <path d="M618,48h9c5,0,9-4.5,9-10V22a10,10,0,0,1,10-10h26.27" fill="none" stroke="#8c8c8c" stroke-miterlimit="10" stroke-width="1.5"/>
        <path d="M677.75,12a27.2,27.2,0,0,0-7.69,4.28L671.61,12l-1.55-4.28A27.18,27.18,0,0,0,677.75,12Z" fill="#8c8c8c"/>
      </g>
    </g>
    <g opacity="0.2">
      <path d="M618,120h9c5,0,9-4.5,9-10V22a10,10,0,0,1,10-10H666" fill="none" stroke="#8c8c8c" stroke-miterlimit="10" stroke-width="1.5"/>
    </g>
    <g opacity="0.2">
      <path d="M618,84h9c5,0,9-4.5,9-10V22a10,10,0,0,1,10-10H666" fill="none" stroke="#8c8c8c" stroke-miterlimit="10" stroke-width="1.5"/>
    </g>
  </g>
  <g>
    <g opacity="0.1">
      <rect x="181" y="176" width="48" height="48" rx="6" ry="6" stroke="#000" stroke-width="1.5"/>
      <path d="M204.55,191.38h2.39L212.61,207h-2.32l-1.63-4.68h-6.13L200.84,207h-2.17Zm3.51,9.22-2.4-6.9-2.5,6.9h4.9Z"/>
    </g>
    <use width="49.5" height="49.5" transform="translate(179.25 173.25)" xlink:href="#rnn-a"/>
  </g>
  <g>
    <g opacity="0.1">
      <rect x="313" y="176" width="48" height="48" rx="6" ry="6" stroke="#000" stroke-width="1.5"/>
      <path d="M336.55,191.38h2.39L344.61,207h-2.32l-1.63-4.68h-6.13L332.84,207h-2.17Zm3.51,9.22-2.4-6.9-2.5,6.9h4.9Z"/>
    </g>
    <use width="49.5" height="49.5" transform="translate(311.25 173.25)" xlink:href="#rnn-a"/>
  </g>
  <g>
    <g opacity="0.1">
      <rect x="445" y="176" width="48" height="48" rx="6" ry="6" stroke="#000" stroke-width="1.5"/>
      <path d="M468.55,191.38h2.39L476.61,207h-2.32l-1.63-4.68h-6.13L464.84,207h-2.17Zm3.51,9.22-2.4-6.9-2.5,6.9h4.9Z"/>
    </g>
    <use width="49.5" height="49.5" transform="translate(443.25 173.25)" xlink:href="#rnn-a"/>
  </g>
  <g id="_Group_2" data-name="&lt;Group&gt;">
    <g opacity="0.1">
      <rect x="577" y="176" width="48" height="48" rx="6" ry="6" stroke="#000" stroke-width="1.5"/>
      <path d="M600.55,191.38h2.39L608.61,207h-2.32l-1.63-4.68h-6.13L596.84,207h-2.17Zm3.51,9.22-2.41-6.9-2.5,6.9h4.9Z"/>
    </g>
    <use width="49.5" height="49.5" transform="translate(575.25 173.25)" xlink:href="#rnn-a"/>
  </g>
  <g opacity="0.9">
    <use width="50.5" height="27.5" transform="translate(180 108)" xlink:href="#op-1"/>
  </g>
  <g opacity="0.2">
    <use width="50.5" height="27.5" transform="translate(180 72)" xlink:href="#op-2"/>
  </g>
  <g opacity="0.4">
    <use width="50.5" height="27.5" transform="translate(180 36)" xlink:href="#op-3"/>
  </g>
  <g opacity="0.2">
    <use width="50.5" height="27.5" transform="translate(312 108)" xlink:href="#op-1"/>
  </g>
  <g opacity="0.9">
    <use width="50.5" height="27.5" transform="translate(312 72)" xlink:href="#op-2"/>
  </g>
  <g opacity="0.2">
    <use width="50.5" height="27.5" transform="translate(312 36)" xlink:href="#op-3"/>
  </g>
  <g opacity="0.9">
    <use width="50.5" height="27.5" transform="translate(444 108)" xlink:href="#op-1"/>
  </g>
  <g opacity="0.2">
    <use width="50.5" height="27.5" transform="translate(444 72)" xlink:href="#op-2"/>
  </g>
  <g opacity="0.2">
    <use width="50.5" height="27.5" transform="translate(444 36)" xlink:href="#op-3"/>
  </g>
  <g opacity="0.2">
    <use width="50.5" height="27.5" transform="translate(576 108)" xlink:href="#op-1"/>
  </g>
  <g opacity="0.2">
    <use width="50.5" height="27.5" transform="translate(576 72)" xlink:href="#op-2"/>
  </g>
  <g opacity="0.9">
    <use width="50.5" height="27.5" transform="translate(576 36)" xlink:href="#op-3"/>
  </g>
  <g>
    <g>
      <line x1="228" y1="196.5" x2="300.57" y2="196.5" fill="none" stroke="#8c8c8c" stroke-miterlimit="10" stroke-width="1.5"/>
      <path d="M306,196.5a27.2,27.2,0,0,0-7.69,4.28l1.55-4.28-1.55-4.28A27.18,27.18,0,0,0,306,196.5Z" fill="#8c8c8c"/>
    </g>
    <g>
      <line x1="204" y1="172" x2="204" y2="143.43" fill="none" stroke="#8c8c8c" stroke-miterlimit="10" stroke-width="1.5"/>
      <path d="M204,138a27.2,27.2,0,0,0,4.28,7.69L204,144.14l-4.28,1.55A27.17,27.17,0,0,0,204,138Z" fill="#8c8c8c"/>
    </g>
    <g>
      <line x1="336" y1="172" x2="336" y2="143.43" fill="none" stroke="#8c8c8c" stroke-miterlimit="10" stroke-width="1.5"/>
      <path d="M336,138a27.2,27.2,0,0,0,4.28,7.69L336,144.14l-4.28,1.55A27.17,27.17,0,0,0,336,138Z" fill="#8c8c8c"/>
    </g>
    <g>
      <line x1="468" y1="172" x2="468" y2="143.43" fill="none" stroke="#8c8c8c" stroke-miterlimit="10" stroke-width="1.5"/>
      <path d="M468,138a27.2,27.2,0,0,0,4.28,7.69L468,144.14l-4.28,1.55A27.17,27.17,0,0,0,468,138Z" fill="#8c8c8c"/>
    </g>
    <g>
      <line x1="600" y1="172" x2="600" y2="143.43" fill="none" stroke="#8c8c8c" stroke-miterlimit="10" stroke-width="1.5"/>
      <path d="M600,138a27.2,27.2,0,0,0,4.28,7.69L600,144.14l-4.28,1.55A27.17,27.17,0,0,0,600,138Z" fill="#8c8c8c"/>
    </g>
    <g>
      <line x1="360" y1="196.5" x2="432.57" y2="196.5" fill="none" stroke="#8c8c8c" stroke-miterlimit="10" stroke-width="1.5"/>
      <path d="M438,196.5a27.2,27.2,0,0,0-7.69,4.28l1.55-4.28-1.55-4.28A27.18,27.18,0,0,0,438,196.5Z" fill="#8c8c8c"/>
    </g>
    <g>
      <line x1="492" y1="196.5" x2="564.57" y2="196.5" fill="none" stroke="#8c8c8c" stroke-miterlimit="10" stroke-width="1.5"/>
      <path d="M570,196.5a27.2,27.2,0,0,0-7.69,4.28l1.55-4.28-1.55-4.28A27.18,27.18,0,0,0,570,196.5Z" fill="#8c8c8c"/>
    </g>
  </g>
</svg>
