<svg id="background" xmlns="http://www.w3.org/2000/svg" xmlns:xlink="http://www.w3.org/1999/xlink" width="984" height="264" viewBox="0 0 984 264">
  <defs>
    <symbol id="op-bg" data-name="op-bg" viewBox="0 0 24 24">
      <circle cx="12" cy="12" r="11.25" fill="#d8c2f2" stroke="#666" stroke-miterlimit="10" stroke-width="1.5"/>
    </symbol>
    <symbol id="op-x" data-name="op-x" viewBox="0 0 24 24">
      <use id="op-bg-3" data-name="op-bg" width="24" height="24" xlink:href="#op-bg"/>
      <path d="M9.16,15.28l-1-1,2.56-2.56L8.16,9.16l1-1,2.58,2.58L14.3,8.17l1,1-2.56,2.56,2.57,2.57-1,1-2.57-2.57Z" fill="#666"/>
    </symbol>
    <symbol id="rnn-bg" data-name="rnn-bg" viewBox="0 0 49.5 49.5">
      <rect x="0.75" y="0.75" width="48" height="48" rx="6" ry="6" fill="#fff" fill-opacity="0.8" stroke="#666" stroke-width="1.5"/>
    </symbol>
    <symbol id="rnn-s" data-name="rnn-s" viewBox="0 0 49.5 49.5">
      <use id="rnn-bg-3" data-name="rnn-bg" width="49.5" height="49.5" xlink:href="#rnn-bg"/>
      <path d="M29.68,27.61a3.81,3.81,0,0,1-1.49,3.2,6.46,6.46,0,0,1-4,1.15,10.1,10.1,0,0,1-4.25-.71V29.51a11.16,11.16,0,0,0,2.08.64,10.92,10.92,0,0,0,2.23.23,4.49,4.49,0,0,0,2.72-.69,2.25,2.25,0,0,0,.92-1.91,2.45,2.45,0,0,0-.32-1.32,3,3,0,0,0-1.08-1,15.14,15.14,0,0,0-2.31-1A7.38,7.38,0,0,1,21,22.68a4.06,4.06,0,0,1-.93-2.77A3.45,3.45,0,0,1,21.45,17,5.61,5.61,0,0,1,25,16a10.54,10.54,0,0,1,4.26.85l-0.56,1.57A9.63,9.63,0,0,0,25,17.6a3.62,3.62,0,0,0-2.24.62,2,2,0,0,0-.81,1.71,2.62,2.62,0,0,0,.3,1.32,2.8,2.8,0,0,0,1,.95,12.47,12.47,0,0,0,2.16,1A8.56,8.56,0,0,1,28.76,25,3.68,3.68,0,0,1,29.68,27.61Z" fill="#5b5b5b"/>
    </symbol>
    <symbol id="op-sum_2" data-name="op-sum 2" viewBox="0 0 24 24">
      <use width="24" height="24" xlink:href="#op-bg"/>
      <path d="M9.88,9.08a1.77,1.77,0,0,1,.69-1.47,3,3,0,0,1,1.89-.54,4.84,4.84,0,0,1,1.87.38v1.1a5.22,5.22,0,0,0-1.88-.4,1.57,1.57,0,0,0-.93.25,0.78,0.78,0,0,0-.35.67q0,0.74,1.51,1.26a4.6,4.6,0,0,1,2.22,1.44A3.75,3.75,0,0,1,15.64,14v0.27a4.23,4.23,0,0,1-.4,1.87,3,3,0,0,1-1.15,1.28,3.29,3.29,0,0,1-1.74.45,3.08,3.08,0,0,1-2.42-1A3.86,3.86,0,0,1,9,14.22V14.13a3.42,3.42,0,0,1,.64-2A2.76,2.76,0,0,1,11.29,11v0a2.36,2.36,0,0,1-1-.75A1.76,1.76,0,0,1,9.88,9.08Zm0.42,5.2a3,3,0,0,0,.55,1.89,1.8,1.8,0,0,0,1.49.69,1.79,1.79,0,0,0,1.48-.69,3.23,3.23,0,0,0,.55-2,2.67,2.67,0,0,0-.58-1.67,2.35,2.35,0,0,0-1.43-.92,1.81,1.81,0,0,0-1.49.7A3.19,3.19,0,0,0,10.3,14.28Z" fill="#666"/>
    </symbol>
    <symbol id="op-sum" data-name="op-sum" viewBox="0 0 24 24">
      <use id="op-bg-14" data-name="op-bg" width="24" height="24" xlink:href="#op-bg"/>
      <path d="M7.88,12.5V11.18h3.41V7.75h1.34v3.43H16V12.5H12.62v3.42H11.29V12.5H7.88Z" fill="#666"/>
    </symbol>
    <symbol id="op-halo" data-name="op-halo" viewBox="0 0 31.45 31.45">
      <circle cx="15.73" cy="15.73" r="14.73" fill="#e6eaf2" stroke="#fff" stroke-miterlimit="10" stroke-width="2"/>
    </symbol>
    <symbol id="op-sum_5" data-name="op-sum 5" viewBox="0 0 24 24">
      <use id="op-bg-17" data-name="op-bg" width="24" height="24" xlink:href="#op-bg"/>
      <g>
        <path d="M11,12.65L4.21,15.32V14.26l5.51-2.12L4.21,10V9L11,11.66v1Z" fill="#666"/>
        <path d="M16.34,11.45H15.48q-0.37,0-.73,0a1.84,1.84,0,0,0-.66.17,1,1,0,0,0-.46.42,1.19,1.19,0,0,0-.21.73,1.13,1.13,0,0,0,.2.67,1.4,1.4,0,0,0,.46.43,2.73,2.73,0,0,0,1.33.3,3,3,0,0,0,1.54-.37,1.66,1.66,0,0,0,.73-1.28H19a2.55,2.55,0,0,1-1.09,2.09,4,4,0,0,1-2.32.7,7.39,7.39,0,0,1-1.28-.11,4.23,4.23,0,0,1-1.17-.38A2.21,2.21,0,0,1,12,12.79a1.72,1.72,0,0,1,.55-1.3,2.33,2.33,0,0,1,1.2-.66v0a2.71,2.71,0,0,1-1.07-.69A1.56,1.56,0,0,1,12.24,9a1.8,1.8,0,0,1,.3-1,2,2,0,0,1,.74-0.69,4.19,4.19,0,0,1,2-.52,4.65,4.65,0,0,1,2.34.55,2.37,2.37,0,0,1,1.05,2H17.36a1.21,1.21,0,0,0-.64-1.15,3.21,3.21,0,0,0-1.36-.29,2.53,2.53,0,0,0-1.1.24,1,1,0,0,0-.58,1,1,1,0,0,0,.58,1,2.79,2.79,0,0,0,1.2.22h0.88v1.16Z" fill="#666"/>
      </g>
    </symbol>
    <symbol id="op-sum_4" data-name="op-sum 4" viewBox="0 0 24 24">
      <use id="op-bg-20" data-name="op-bg" width="24" height="24" xlink:href="#op-bg"/>
      <path d="M7.51,11.21h9v1.15h-9V11.21Z" fill="#666"/>
    </symbol>
    <symbol id="op-sum_3" data-name="op-sum 3" viewBox="0 0 24 24">
      <use id="op-bg-23" data-name="op-bg" width="24" height="24" xlink:href="#op-bg"/>
      <path d="M9.65,10V9.21a4.3,4.3,0,0,0,1.59-.37,1.83,1.83,0,0,0,.67-1.23h0.83V16H11.62V10h-2Z" fill="#666"/>
    </symbol>
    <symbol id="rnn-sigma" data-name="rnn-sigma" viewBox="0 0 25.17 25.17">
      <rect x="0.75" y="0.75" width="23.67" height="23.67" rx="6" ry="6" fill="#f0f0f5" stroke="#666" stroke-width="1.5"/>
      <path d="M19,8.67H16.48a5.39,5.39,0,0,1,1.41,3.87,6.62,6.62,0,0,1-1.37,4.36,5.13,5.13,0,0,1-4.11,1.73,5,5,0,0,1-4.09-1.78,6.66,6.66,0,0,1-1.37-4.32,5.73,5.73,0,0,1,1.5-4.07,5.22,5.22,0,0,1,4-1.58,6.18,6.18,0,0,1,1.67.21H19V8.67ZM15.8,12.78a5.89,5.89,0,0,0-.74-2.92,2.87,2.87,0,0,0-2.65-1.41A2.86,2.86,0,0,0,9.8,9.79a5.53,5.53,0,0,0-.77,3,4.82,4.82,0,0,0,.91,3,2.89,2.89,0,0,0,2.47,1.26A2.88,2.88,0,0,0,15,15.74,5.37,5.37,0,0,0,15.8,12.78Z" fill="#666"/>
    </symbol>
  </defs>
  <title>rnn</title>
  <rect x="168" y="13.25" width="612" height="238.75" rx="10" ry="10" fill="#f0f0f5"/>
  <line x1="348" y1="39" x2="348" y2="264" stroke="#fff" stroke-miterlimit="10" stroke-width="1.5"/>
  <line x1="540" y1="39" x2="540" y2="264" stroke="#fff" stroke-miterlimit="10" stroke-width="1.5"/>
  <line x1="732" y1="39" x2="732" y2="264" stroke="#fff" stroke-miterlimit="10" stroke-width="1.5"/>
  <path d="M240,180h54a6,6,0,0,0,6-6V108" fill="none" stroke="#666" stroke-miterlimit="10" stroke-width="1.5"/>
  <path d="M432,180h54a6,6,0,0,0,6-6V108" fill="none" stroke="#666" stroke-miterlimit="10" stroke-width="1.5"/>
  <path d="M624,180h54a6,6,0,0,0,6-6V108" fill="none" stroke="#666" stroke-miterlimit="10" stroke-width="1.5"/>
  <path d="M300,84V75.5a6,6,0,0,1,6-6H756" fill="none" stroke="#666" stroke-miterlimit="10" stroke-width="1.5"/>
  <path d="M492,96V79.5a6,6,0,0,1,6-6H756" fill="none" stroke="#666" stroke-miterlimit="10" stroke-width="1.5"/>
  <path d="M684,96V83.5a6,6,0,0,1,6-6h66" fill="none" stroke="#666" stroke-miterlimit="10" stroke-width="1.5"/>
  <g>
    <g opacity="0.1">
      <circle cx="301.01" cy="97.25" r="11.25" stroke="#000" stroke-miterlimit="10" stroke-width="1.5"/>
      <path d="M298.17,100.53l-1-1L299.75,97l-2.58-2.58,1-1L300.75,96l2.56-2.56,1,1L301.74,97l2.57,2.57-1,1L300.73,98Z"/>
    </g>
    <use width="24" height="24" transform="translate(288.01 83.25)" xlink:href="#op-x"/>
  </g>
  <g>
    <g opacity="0.1">
      <rect x="193" y="158" width="48" height="48" rx="6" ry="6" opacity="0.8"/>
      <rect x="193" y="158" width="48" height="48" rx="6" ry="6" fill="none" stroke="#000" stroke-width="1.5"/>
      <rect x="193" y="158" width="48" height="48" rx="6" ry="6" fill="none" stroke="#000" stroke-width="1.5"/>
      <rect x="193" y="158" width="48" height="48" rx="6" ry="6" fill="none" stroke="#000" stroke-width="1.5"/>
      <path d="M221.93,184.86a3.81,3.81,0,0,1-1.49,3.2,6.46,6.46,0,0,1-4,1.15,10.1,10.1,0,0,1-4.25-.71v-1.74a11.16,11.16,0,0,0,2.08.64,10.92,10.92,0,0,0,2.23.23,4.49,4.49,0,0,0,2.72-.69,2.25,2.25,0,0,0,.92-1.91,2.45,2.45,0,0,0-.32-1.32,3,3,0,0,0-1.08-1,15.14,15.14,0,0,0-2.31-1,7.38,7.38,0,0,1-3.1-1.84,4.06,4.06,0,0,1-.93-2.77,3.45,3.45,0,0,1,1.35-2.86,5.61,5.61,0,0,1,3.57-1.06,10.54,10.54,0,0,1,4.26.85L221,175.66a9.63,9.63,0,0,0-3.74-.81,3.62,3.62,0,0,0-2.24.62,2,2,0,0,0-.81,1.71,2.62,2.62,0,0,0,.3,1.32,2.8,2.8,0,0,0,1,.95,12.47,12.47,0,0,0,2.16,1,8.56,8.56,0,0,1,3.37,1.87A3.68,3.68,0,0,1,221.93,184.86Z"/>
    </g>
    <use width="49.5" height="49.5" transform="translate(191.25 155.25)" xlink:href="#rnn-s"/>
  </g>
  <g>
    <g opacity="0.1">
      <circle cx="493.01" cy="97.25" r="11.25" stroke="#000" stroke-miterlimit="10" stroke-width="1.5"/>
      <path d="M490.17,100.53l-1-1L491.74,97l-2.58-2.58,1-1L492.74,96l2.56-2.56,1,1L493.73,97l2.57,2.57-1,1L492.73,98Z"/>
    </g>
    <use width="24" height="24" transform="translate(480.01 83.25)" xlink:href="#op-x"/>
  </g>
  <g>
    <g opacity="0.1">
      <rect x="384.99" y="158" width="48" height="48" rx="6" ry="6" opacity="0.8"/>
      <rect x="384.99" y="158" width="48" height="48" rx="6" ry="6" fill="none" stroke="#000" stroke-width="1.5"/>
      <rect x="384.99" y="158" width="48" height="48" rx="6" ry="6" fill="none" stroke="#000" stroke-width="1.5"/>
      <rect x="384.99" y="158" width="48" height="48" rx="6" ry="6" fill="none" stroke="#000" stroke-width="1.5"/>
      <path d="M413.93,184.86a3.81,3.81,0,0,1-1.49,3.2,6.46,6.46,0,0,1-4,1.15,10.1,10.1,0,0,1-4.25-.71v-1.74a11.16,11.16,0,0,0,2.08.64,10.92,10.92,0,0,0,2.23.23,4.49,4.49,0,0,0,2.72-.69,2.25,2.25,0,0,0,.92-1.91,2.45,2.45,0,0,0-.32-1.32,3,3,0,0,0-1.08-1,15.14,15.14,0,0,0-2.31-1,7.38,7.38,0,0,1-3.1-1.84,4.06,4.06,0,0,1-.93-2.77,3.45,3.45,0,0,1,1.35-2.86,5.61,5.61,0,0,1,3.57-1.06,10.54,10.54,0,0,1,4.26.85L413,175.66a9.63,9.63,0,0,0-3.74-.81,3.62,3.62,0,0,0-2.24.62,2,2,0,0,0-.81,1.71,2.62,2.62,0,0,0,.3,1.32,2.8,2.8,0,0,0,1,.95,12.47,12.47,0,0,0,2.16,1,8.56,8.56,0,0,1,3.37,1.87A3.68,3.68,0,0,1,413.93,184.86Z"/>
    </g>
    <use width="49.5" height="49.5" transform="translate(383.24 155.25)" xlink:href="#rnn-s"/>
  </g>
  <g id="_Group_" data-name="&lt;Group&gt;">
    <g opacity="0.1">
      <circle cx="685" cy="97.25" r="11.25" stroke="#000" stroke-miterlimit="10" stroke-width="1.5"/>
      <path d="M682.16,100.53l-1-1L683.73,97l-2.58-2.58,1-1L684.74,96l2.56-2.56,1,1L685.72,97l2.57,2.57-1,1L684.72,98Z"/>
    </g>
    <use width="24" height="24" transform="translate(672 83.25)" xlink:href="#op-x"/>
  </g>
  <g>
    <g opacity="0.1">
      <rect x="576.99" y="158" width="48" height="48" rx="6" ry="6" opacity="0.8"/>
      <rect x="576.99" y="158" width="48" height="48" rx="6" ry="6" fill="none" stroke="#000" stroke-width="1.5"/>
      <rect x="576.99" y="158" width="48" height="48" rx="6" ry="6" fill="none" stroke="#000" stroke-width="1.5"/>
      <rect x="576.99" y="158" width="48" height="48" rx="6" ry="6" fill="none" stroke="#000" stroke-width="1.5"/>
      <path d="M605.92,184.86a3.81,3.81,0,0,1-1.49,3.2,6.46,6.46,0,0,1-4,1.15,10.1,10.1,0,0,1-4.25-.71v-1.74a11.16,11.16,0,0,0,2.08.64,10.92,10.92,0,0,0,2.23.23,4.49,4.49,0,0,0,2.72-.69,2.25,2.25,0,0,0,.92-1.91,2.45,2.45,0,0,0-.32-1.32,3,3,0,0,0-1.08-1,15.14,15.14,0,0,0-2.31-1,7.38,7.38,0,0,1-3.1-1.84,4.06,4.06,0,0,1-.93-2.77,3.45,3.45,0,0,1,1.35-2.86,5.61,5.61,0,0,1,3.57-1.06,10.54,10.54,0,0,1,4.26.85L605,175.66a9.63,9.63,0,0,0-3.74-.81,3.62,3.62,0,0,0-2.24.62,2,2,0,0,0-.81,1.71,2.62,2.62,0,0,0,.3,1.32,2.8,2.8,0,0,0,1,.95,12.47,12.47,0,0,0,2.16,1,8.56,8.56,0,0,1,3.37,1.87A3.68,3.68,0,0,1,605.92,184.86Z"/>
    </g>
    <use width="49.5" height="49.5" transform="translate(575.24 155.25)" xlink:href="#rnn-s"/>
  </g>
  <g>
    <g>
      <line x1="156" y1="180" x2="186.57" y2="180" fill="none" stroke="#666" stroke-miterlimit="10" stroke-width="1.5"/>
      <path d="M192,180a27.2,27.2,0,0,0-7.69,4.28l1.55-4.28-1.55-4.28A27.18,27.18,0,0,0,192,180Z" fill="#666"/>
    </g>
    <g>
      <line x1="762" y1="73" x2="786.57" y2="73" fill="none" stroke="#666" stroke-miterlimit="10" stroke-width="1.5"/>
      <path d="M792,73a27.2,27.2,0,0,0-7.69,4.28L785.86,73l-1.55-4.28A27.17,27.17,0,0,0,792,73Z" fill="#666"/>
    </g>
    <g>
      <line x1="240" y1="180" x2="378.57" y2="180" fill="none" stroke="#666" stroke-miterlimit="10" stroke-width="1.5"/>
      <path d="M384,180a27.2,27.2,0,0,0-7.69,4.28l1.55-4.28-1.55-4.28A27.18,27.18,0,0,0,384,180Z" fill="#666"/>
    </g>
    <g>
      <line x1="432" y1="180" x2="570.57" y2="180" fill="none" stroke="#666" stroke-miterlimit="10" stroke-width="1.5"/>
      <path d="M576,180a27.2,27.2,0,0,0-7.69,4.28l1.55-4.28-1.55-4.28A27.18,27.18,0,0,0,576,180Z" fill="#666"/>
    </g>
    <g>
      <path d="M396,240H589.5a10,10,0,0,0,10-10V210.43" fill="none" stroke="#666" stroke-miterlimit="10" stroke-width="1.5"/>
      <path d="M599.5,205a27.2,27.2,0,0,0,4.28,7.69l-4.28-1.55-4.28,1.55A27.18,27.18,0,0,0,599.5,205Z" fill="#666"/>
    </g>
    <g>
      <path d="M216,270V250a10,10,0,0,1,10-10H397.5a10,10,0,0,0,10-10V210.43" fill="none" stroke="#666" stroke-miterlimit="10" stroke-width="1.5"/>
      <path d="M407.5,205a27.2,27.2,0,0,0,4.28,7.69l-4.28-1.55-4.28,1.55A27.18,27.18,0,0,0,407.5,205Z" fill="#666"/>
    </g>
    <g>
      <line x1="216" y1="258" x2="216" y2="209.43" fill="none" stroke="#666" stroke-miterlimit="10" stroke-width="1.5"/>
      <path d="M216,204a27.2,27.2,0,0,0,4.28,7.69L216,210.14l-4.28,1.55A27.18,27.18,0,0,0,216,204Z" fill="#666"/>
    </g>
  </g>
  <g>
    <g opacity="0.1">
      <circle cx="216.75" cy="226.25" r="11.25" stroke="#000" stroke-miterlimit="10" stroke-width="1.5"/>
      <path d="M214.63,223.33a1.77,1.77,0,0,1,.69-1.47,3,3,0,0,1,1.89-.54,4.84,4.84,0,0,1,1.87.38v1.1a5.22,5.22,0,0,0-1.88-.4,1.57,1.57,0,0,0-.93.25,0.78,0.78,0,0,0-.35.67q0,0.74,1.51,1.26a4.6,4.6,0,0,1,2.22,1.44,3.75,3.75,0,0,1,.74,2.26v0.27a4.23,4.23,0,0,1-.4,1.87,3,3,0,0,1-1.15,1.28,3.29,3.29,0,0,1-1.74.45,3.08,3.08,0,0,1-2.42-1,3.86,3.86,0,0,1-.9-2.66v-0.09a3.42,3.42,0,0,1,.64-2,2.76,2.76,0,0,1,1.63-1.14v0a2.36,2.36,0,0,1-1-.75A1.76,1.76,0,0,1,214.63,223.33Zm0.42,5.2a3,3,0,0,0,.55,1.89,1.94,1.94,0,0,0,3,0,3.23,3.23,0,0,0,.55-2,2.67,2.67,0,0,0-.58-1.67,2.35,2.35,0,0,0-1.43-.92,1.81,1.81,0,0,0-1.49.7A3.19,3.19,0,0,0,215.05,228.53Z"/>
    </g>
    <use width="24" height="24" transform="translate(203.75 212.25)" xlink:href="#op-sum_2"/>
  </g>
  <g id="_Group_2" data-name="&lt;Group&gt;">
    <g opacity="0.1">
      <circle cx="757.75" cy="75" r="11.25" stroke="#000" stroke-miterlimit="10" stroke-width="1.5"/>
      <path d="M753.63,75.49V74.18H757V70.75h1.34v3.43h3.41v1.31h-3.41v3.42H757V75.49h-3.41Z"/>
    </g>
    <use width="24" height="24" transform="translate(744.75 61)" xlink:href="#op-sum"/>
  </g>
  <g opacity="0.2">
    <g>
      <path d="M240,180h18a6,6,0,0,0,6-6V145" fill="none" stroke="#666" stroke-miterlimit="10" stroke-width="1.5"/>
      <polygon points="267.68 147.96 267.02 148.57 264 145.32 260.98 148.57 260.32 147.96 264 144 267.68 147.96" fill="#666"/>
    </g>
    <g>
      <path d="M432,180h18a6,6,0,0,0,6-6V145" fill="none" stroke="#666" stroke-miterlimit="10" stroke-width="1.5"/>
      <polygon points="459.68 147.96 459.02 148.57 456 145.32 452.98 148.57 452.32 147.96 456 144 459.68 147.96" fill="#666"/>
    </g>
    <g>
      <path d="M624,180h18a6,6,0,0,0,6-6V145" fill="none" stroke="#666" stroke-miterlimit="10" stroke-width="1.5"/>
      <polygon points="651.68 147.96 651.02 148.57 648 145.32 644.98 148.57 644.32 147.96 648 144 651.68 147.96" fill="#666"/>
    </g>
    <g>
      <line x1="264" y1="132" x2="264" y2="60.97" fill="none" stroke="#666" stroke-miterlimit="10" stroke-width="1.5"/>
      <polygon points="267.68 63.96 267.02 64.57 264 61.32 260.98 64.57 260.32 63.96 264 60 267.68 63.96" fill="#666"/>
    </g>
    <g>
      <line x1="456" y1="66.25" x2="456" y2="60.97" fill="none" stroke="#666" stroke-miterlimit="10" stroke-width="1.5"/>
      <polygon points="459.68 63.96 459.02 64.57 456 61.32 452.98 64.57 452.32 63.96 456 60 459.68 63.96" fill="#666"/>
    </g>
    <line x1="456" y1="132" x2="456" y2="73.25" fill="none" stroke="#666" stroke-miterlimit="10" stroke-width="1.5"/>
    <g>
      <line x1="648" y1="66" x2="648" y2="60.97" fill="none" stroke="#666" stroke-miterlimit="10" stroke-width="1.5"/>
      <polygon points="651.68 63.96 651.02 64.57 648 61.32 644.98 64.57 644.32 63.96 648 60 651.68 63.96" fill="#666"/>
    </g>
    <line x1="648" y1="132" x2="648" y2="77" fill="none" stroke="#666" stroke-miterlimit="10" stroke-width="1.5"/>
    <g>
      <path d="M264,132V102a6,6,0,0,1,6-6h17" fill="none" stroke="#666" stroke-miterlimit="10" stroke-width="1.5"/>
      <polygon points="284.05 99.68 283.43 99.02 286.68 96 283.43 92.98 284.05 92.32 288.01 96 284.05 99.68" fill="#666"/>
    </g>
    <g>
      <path d="M456,132V102a6,6,0,0,1,6-6h17" fill="none" stroke="#666" stroke-miterlimit="10" stroke-width="1.5"/>
      <polygon points="476.05 99.68 475.43 99.02 478.68 96 475.43 92.98 476.05 92.32 480.01 96 476.05 99.68" fill="#666"/>
    </g>
    <line x1="228" y1="48" x2="648" y2="48" fill="none" stroke="#666" stroke-miterlimit="10" stroke-width="1.5"/>
    <g>
      <path d="M264,48.5h18a16.83,16.83,0,0,0,10.26-4.22L308,28.72a16.83,16.83,0,0,1,10.26-4.22H332" fill="none" stroke="#666" stroke-miterlimit="10" stroke-width="1.5"/>
      <polygon points="329.04 28.18 328.43 27.52 331.68 24.5 328.43 21.48 329.04 20.82 333 24.5 329.04 28.18" fill="#666"/>
    </g>
    <g>
      <path d="M456,48h18a17.11,17.11,0,0,0,10.31-4.18l15.63-15.15a17.11,17.11,0,0,1,10.31-4.18H524" fill="none" stroke="#666" stroke-miterlimit="10" stroke-width="1.5"/>
      <polygon points="521.04 28.18 520.43 27.52 523.68 24.5 520.43 21.48 521.04 20.82 525 24.5 521.04 28.18" fill="#666"/>
    </g>
    <g>
      <path d="M648,48.5h18a16.83,16.83,0,0,0,10.26-4.22L692,28.72a16.83,16.83,0,0,1,10.26-4.22H716" fill="none" stroke="#666" stroke-miterlimit="10" stroke-width="1.5"/>
      <polygon points="713.04 28.18 712.43 27.52 715.68 24.5 712.43 21.48 713.04 20.82 717 24.5 713.04 28.18" fill="#666"/>
    </g>
    <g>
      <line x1="652" y1="96" x2="671.03" y2="96.16" fill="none" stroke="#666" stroke-miterlimit="10" stroke-width="1.5"/>
      <polygon points="668.02 99.81 667.41 99.15 670.68 96.15 667.46 93.11 668.08 92.45 672.01 96.17 668.02 99.81" fill="#666"/>
    </g>
    <path d="M612,76.5V90a6,6,0,0,0,6,6h26" fill="none" stroke="#666" stroke-miterlimit="10" stroke-width="1.5"/>
    <path d="M576,48h30a6,6,0,0,1,6,6V65" fill="none" stroke="#666" stroke-miterlimit="10" stroke-width="1.5"/>
    <use id="op-halo-3" data-name="op-halo" width="31.45" height="31.45" transform="translate(332.94 9.11)" xlink:href="#op-halo"/>
    <use id="op-halo-6" data-name="op-halo" width="31.45" height="31.45" transform="translate(524.94 9.11)" xlink:href="#op-halo"/>
    <use id="op-halo-9" data-name="op-halo" width="31.45" height="31.45" transform="translate(716.94 9.11)" xlink:href="#op-halo"/>
    <use width="24" height="24" transform="translate(336.75 12.75)" xlink:href="#op-sum_5"/>
    <use width="24" height="24" transform="translate(252.75 36.09)" xlink:href="#op-sum_4"/>
    <use width="24" height="24" transform="translate(203.25 36.75)" xlink:href="#op-sum_3"/>
    <use width="24" height="24" transform="translate(528.74 12.75)" xlink:href="#op-sum_5"/>
    <use width="24" height="24" transform="translate(444.74 36.09)" xlink:href="#op-sum_4"/>
    <use width="24" height="24" transform="translate(720.74 12.75)" xlink:href="#op-sum_5"/>
    <use width="24" height="24" transform="translate(635.74 36.09)" xlink:href="#op-sum_4"/>
    <use id="rnn-sigma-3" data-name="rnn-sigma" width="25.17" height="25.17" transform="translate(251.58 118.58)" xlink:href="#rnn-sigma"/>
    <use id="rnn-sigma-6" data-name="rnn-sigma" width="25.17" height="25.17" transform="translate(443.58 118.58)" xlink:href="#rnn-sigma"/>
    <use id="rnn-sigma-9" data-name="rnn-sigma" width="25.17" height="25.17" transform="translate(635.58 118.58)" xlink:href="#rnn-sigma"/>
  </g>
</svg>
