<svg id="background" xmlns="http://www.w3.org/2000/svg" xmlns:xlink="http://www.w3.org/1999/xlink" width="984" height="270" viewBox="0 0 984 270">
  <defs>
    <symbol id="array-5" data-name="array-5" viewBox="0 0 181 37">
      <rect x="0.5" y="0.5" width="180" height="36" rx="6" ry="6" fill="#fff" stroke="#8c8c8c" stroke-miterlimit="10"/>
      <line x1="36.25" y1="36.5" x2="36.25" y2="0.5" fill="none" stroke="#8c8c8c" stroke-miterlimit="10"/>
      <line x1="72.25" y1="36.5" x2="72.25" y2="0.5" fill="none" stroke="#8c8c8c" stroke-miterlimit="10"/>
      <line x1="108.25" y1="36.5" x2="108.25" y2="0.5" fill="none" stroke="#8c8c8c" stroke-miterlimit="10"/>
      <line x1="144.25" y1="36.5" x2="144.25" y2="0.5" fill="none" stroke="#8c8c8c" stroke-miterlimit="10"/>
    </symbol>
    <symbol id="rnn-bg" data-name="rnn-bg" viewBox="0 0 48 48">
      <rect width="48" height="48" rx="6" ry="6" fill="#798294"/>
    </symbol>
    <symbol id="rnn-a" data-name="rnn-a" viewBox="0 0 48 48">
      <use id="rnn-bg-3" data-name="rnn-bg" width="48" height="48" xlink:href="#rnn-bg"/>
      <text transform="translate(17.33 31)" font-size="21.77" fill="#fff" font-family="Helvetica" letter-spacing="-1">A</text>
    </symbol>
    <symbol id="array-vector" data-name="array-vector" viewBox="0 0 36 36">
      <rect width="36" height="36" fill="#0080f7" opacity="0"/>
      <g>
        <line x1="18" y1="24" x2="18" y2="13.08" fill="none" stroke="#8c8c8c" stroke-miterlimit="10"/>
        <polygon points="22.09 16.4 21.36 17.08 18 13.47 14.64 17.08 13.91 16.4 18 12 22.09 16.4" fill="#8c8c8c"/>
      </g>
    </symbol>
  </defs>
  <title>rnn</title>
  <g id="_Group_" data-name="&lt;Group&gt;">
    <path d="M779,198.48c0,3-3,5.52-6.69,5.52H176.67c-4.77,0-8.67-2.48-8.67-5.52V142c0-5.49,3.9-10,8.67-10H772.31c3.68,0,6.69,4.49,6.69,10v56.51Z" fill="#e6eaf2"/>
  </g>
  <use width="181" height="37" transform="translate(371.75 24)" xlink:href="#array-5"/>
  <use width="181" height="37" transform="translate(575.75 24)" xlink:href="#array-5"/>
  <use width="48" height="48" transform="translate(179 144)" xlink:href="#rnn-a"/>
  <use width="48" height="48" transform="translate(372 144)" xlink:href="#rnn-a"/>
  <use width="48" height="48" transform="translate(576 144)" xlink:href="#rnn-a"/>
  <text transform="translate(367.67 102)" font-size="12" fill="#666" font-family="Open Sans">read</text>
  <text transform="translate(254.38 102)" font-size="12" fill="#666" font-family="Open Sans">write</text>
  <g>
    <line x1="264.04" y1="142.46" x2="358.93" y2="59.46" fill="none" stroke="#8c8c8c" stroke-miterlimit="10"/>
    <polygon points="359.13 64.72 358.14 64.62 358.65 59.72 353.72 59.57 353.75 58.57 359.75 58.75 359.13 64.72" fill="#8c8c8c"/>
  </g>
  <g>
    <line x1="386.21" y1="58.14" x2="357.23" y2="122.87" fill="none" stroke="#8c8c8c" stroke-miterlimit="10"/>
    <polygon points="354.85 118.17 355.8 117.85 357.39 122.52 361.93 120.59 362.32 121.51 356.79 123.86 354.85 118.17" fill="#8c8c8c"/>
  </g>
  <g>
    <line x1="517.5" y1="57" x2="517.5" y2="127.92" fill="none" stroke="#b3b3b3" stroke-miterlimit="10"/>
    <polygon points="513.41 124.6 514.14 123.92 517.5 127.53 520.86 123.92 521.59 124.6 517.5 129 513.41 124.6" fill="#b3b3b3"/>
  </g>
  <path d="M279,57s30,49,71,10" fill="none" stroke="#8c8c8c" stroke-miterlimit="10"/>
  <g>
    <line x1="406.04" y1="142.46" x2="500.93" y2="59.46" fill="none" stroke="#b3b3b3" stroke-miterlimit="10"/>
    <polygon points="501.13 64.72 500.14 64.62 500.65 59.72 495.72 59.57 495.75 58.57 501.75 58.75 501.13 64.72" fill="#b3b3b3"/>
  </g>
  <path d="M421,57s30,49,71,10" fill="none" stroke="#b3b3b3" stroke-miterlimit="10"/>
  <use width="181" height="37" transform="translate(167.75 24)" xlink:href="#array-5"/>
  <use width="36" height="36" transform="translate(168 24)" xlink:href="#array-vector"/>
  <use width="36" height="36" transform="translate(204 24)" xlink:href="#array-vector"/>
  <use width="36" height="36" transform="translate(240 24)" xlink:href="#array-vector"/>
  <use width="36" height="36" transform="translate(276 24)" xlink:href="#array-vector"/>
  <use id="array-vector-11" data-name="array-vector" width="36" height="36" transform="translate(312 24)" xlink:href="#array-vector"/>
  <text transform="translate(197.85 12)" font-size="12" fill="#666" font-family="Open Sans">time step 0</text>
  <text transform="translate(391.99 12)" font-size="12" fill="#666" font-family="Open Sans">step 1</text>
  <text transform="translate(595.99 12)" font-size="12" fill="#666" font-family="Open Sans">step 2</text>
  <text transform="translate(186.43 257)" font-size="12" fill="#666" font-family="Open Sans">x0</text>
  <text transform="translate(210.55 257)" font-size="12" fill="#666" font-family="Open Sans">y0</text>
  <g>
    <line x1="193" y1="218" x2="193" y2="194.58" fill="none" stroke="#8c8c8c" stroke-miterlimit="10"/>
    <polygon points="197.09 197.9 196.36 198.58 193 194.97 189.64 198.58 188.91 197.9 193 193.5 197.09 197.9" fill="#8c8c8c"/>
  </g>
  <g>
    <line x1="218" y1="193.5" x2="218" y2="216.92" fill="none" stroke="#8c8c8c" stroke-miterlimit="10"/>
    <polygon points="213.91 213.6 214.64 212.92 218 216.53 221.36 212.92 222.09 213.6 218 218 213.91 213.6" fill="#8c8c8c"/>
  </g>
  <text transform="translate(378.43 257)" font-size="12" fill="#666" font-family="Open Sans">x1</text>
  <text transform="translate(402.55 257)" font-size="12" fill="#666" font-family="Open Sans">y1</text>
  <g>
    <line x1="385" y1="218" x2="385" y2="194.58" fill="none" stroke="#8c8c8c" stroke-miterlimit="10"/>
    <polygon points="389.09 197.9 388.36 198.58 385 194.97 381.64 198.58 380.91 197.9 385 193.5 389.09 197.9" fill="#8c8c8c"/>
  </g>
  <g>
    <line x1="410" y1="193.5" x2="410" y2="216.92" fill="none" stroke="#8c8c8c" stroke-miterlimit="10"/>
    <polygon points="405.91 213.6 406.64 212.92 410 216.53 413.36 212.92 414.09 213.6 410 218 405.91 213.6" fill="#8c8c8c"/>
  </g>
  <text transform="translate(582.43 257)" font-size="12" fill="#666" font-family="Open Sans">x2</text>
  <text transform="translate(606.55 257)" font-size="12" fill="#666" font-family="Open Sans">y2</text>
  <g>
    <line x1="589" y1="218" x2="589" y2="194.58" fill="none" stroke="#8c8c8c" stroke-miterlimit="10"/>
    <polygon points="593.09 197.9 592.36 198.58 589 194.97 585.64 198.58 584.91 197.9 589 193.5 593.09 197.9" fill="#8c8c8c"/>
  </g>
  <g>
    <line x1="614" y1="193.5" x2="614" y2="216.92" fill="none" stroke="#8c8c8c" stroke-miterlimit="10"/>
    <polygon points="609.91 213.6 610.64 212.92 614 216.53 617.36 212.92 618.09 213.6 614 218 609.91 213.6" fill="#8c8c8c"/>
  </g>
</svg>
