<svg id="text" xmlns="http://www.w3.org/2000/svg" xmlns:xlink="http://www.w3.org/1999/xlink" width="984" height="66" viewBox="0 0 984 66">
  <defs>
    <symbol id="op-1" data-name="op-1" viewBox="0 0 50.5 27.5">
      <g>
        <g opacity="0.1">
          <rect x="1.75" y="2.75" width="48" height="24" rx="12" ry="12"/>
          <rect x="1.75" y="2.75" width="48" height="24" rx="12" ry="12" fill="none" stroke="#000" stroke-miterlimit="10" stroke-width="1.5"/>
        </g>
        <g>
          <rect x="0.75" y="0.75" width="48" height="24" rx="12" ry="12" fill="#d8c2f2"/>
          <rect x="0.75" y="0.75" width="48" height="24" rx="12" ry="12" fill="none" stroke="#666" stroke-miterlimit="10" stroke-width="1.5"/>
        </g>
      </g>
      <g>
        <path d="M20,12a4.69,4.69,0,0,1-1,3.25,3.78,3.78,0,0,1-3,1.16,3.81,3.81,0,0,1-3-1.15A4.72,4.72,0,0,1,12,12a4.64,4.64,0,0,1,1-3.26,3.85,3.85,0,0,1,3-1.14,3.78,3.78,0,0,1,3,1.15A4.68,4.68,0,0,1,20,12Zm-6.54,0a3.84,3.84,0,0,0,.64,2.4,2.25,2.25,0,0,0,1.89.82,2.25,2.25,0,0,0,1.88-.81A3.85,3.85,0,0,0,18.5,12a3.86,3.86,0,0,0-.63-2.39A2.23,2.23,0,0,0,16,8.77a2.27,2.27,0,0,0-1.9.81A3.8,3.8,0,0,0,13.45,12Z" fill="#666"/>
        <path d="M25,16.39a2.27,2.27,0,0,1-1.91-.88H23q0.08,0.82.08,1v2.65H21.68V9.79H22.8q0,0.18.19,0.87h0.07a2.16,2.16,0,0,1,1.93-1,2.25,2.25,0,0,1,1.89.88A4,4,0,0,1,27.56,13a4,4,0,0,1-.69,2.48A2.27,2.27,0,0,1,25,16.39ZM24.64,10.8a1.43,1.43,0,0,0-1.2.48,2.49,2.49,0,0,0-.38,1.54V13a3,3,0,0,0,.38,1.71,1.39,1.39,0,0,0,1.22.53,1.24,1.24,0,0,0,1.1-.59A3,3,0,0,0,26.15,13a2.92,2.92,0,0,0-.38-1.65A1.28,1.28,0,0,0,24.64,10.8Z" fill="#666"/>
        <path d="M35.86,16.27H34.49V10.74q0-1,0-1.57l-0.33.31-1.32,1.08L32.2,9.69l2.52-2h1.15v8.57Z" fill="#666"/>
      </g>
    </symbol>
    <symbol id="op-3" data-name="op-3" viewBox="0 0 50.5 27.5">
      <g>
        <g opacity="0.1">
          <rect x="1.75" y="2.75" width="48" height="24" rx="12" ry="12"/>
          <rect x="1.75" y="2.75" width="48" height="24" rx="12" ry="12" fill="none" stroke="#000" stroke-miterlimit="10" stroke-width="1.5"/>
        </g>
        <g>
          <rect x="0.75" y="0.75" width="48" height="24" rx="12" ry="12" fill="#d8c2f2"/>
          <rect x="0.75" y="0.75" width="48" height="24" rx="12" ry="12" fill="none" stroke="#666" stroke-miterlimit="10" stroke-width="1.5"/>
        </g>
      </g>
      <g>
        <path d="M20,12a4.69,4.69,0,0,1-1,3.25,3.78,3.78,0,0,1-3,1.16,3.81,3.81,0,0,1-3-1.15A4.72,4.72,0,0,1,12,12a4.64,4.64,0,0,1,1-3.26,3.85,3.85,0,0,1,3-1.14,3.78,3.78,0,0,1,3,1.15A4.68,4.68,0,0,1,20,12ZM13.5,12a3.84,3.84,0,0,0,.64,2.4,2.25,2.25,0,0,0,1.89.82,2.25,2.25,0,0,0,1.88-.81A3.85,3.85,0,0,0,18.55,12a3.86,3.86,0,0,0-.63-2.39A2.23,2.23,0,0,0,16,8.77a2.27,2.27,0,0,0-1.9.81A3.8,3.8,0,0,0,13.5,12Z" fill="#666"/>
        <path d="M25,16.39a2.27,2.27,0,0,1-1.91-.88H23q0.08,0.82.08,1v2.65H21.74V9.79h1.11q0,0.18.19,0.87h0.07a2.16,2.16,0,0,1,1.93-1,2.25,2.25,0,0,1,1.89.88A4,4,0,0,1,27.61,13a4,4,0,0,1-.69,2.48A2.27,2.27,0,0,1,25,16.39ZM24.69,10.8a1.43,1.43,0,0,0-1.2.48,2.49,2.49,0,0,0-.38,1.54V13a3,3,0,0,0,.38,1.71,1.39,1.39,0,0,0,1.22.53,1.24,1.24,0,0,0,1.1-.59A3,3,0,0,0,26.2,13a2.92,2.92,0,0,0-.38-1.65A1.28,1.28,0,0,0,24.69,10.8Z" fill="#666"/>
        <path d="M37.36,9.67A2,2,0,0,1,36.88,11a2.39,2.39,0,0,1-1.34.73v0a2.59,2.59,0,0,1,1.55.64,1.84,1.84,0,0,1,.52,1.36,2.26,2.26,0,0,1-.87,1.91,4,4,0,0,1-2.48.67,5.59,5.59,0,0,1-2.4-.46V14.7a5.49,5.49,0,0,0,1.15.42,5,5,0,0,0,1.17.15,2.47,2.47,0,0,0,1.49-.37,1.34,1.34,0,0,0,.49-1.14,1.09,1.09,0,0,0-.54-1,3.48,3.48,0,0,0-1.71-.32H33.16V11.3h0.76Q36,11.3,36,9.88A1,1,0,0,0,35.6,9a1.61,1.61,0,0,0-1.05-.3,3.19,3.19,0,0,0-.94.14,4.44,4.44,0,0,0-1.07.54l-0.67-1a4.49,4.49,0,0,1,2.74-.87,3.26,3.26,0,0,1,2,.56A1.83,1.83,0,0,1,37.36,9.67Z" fill="#666"/>
      </g>
    </symbol>
    <symbol id="op-2" data-name="op-2" viewBox="0 0 50.5 27.5">
      <g>
        <g opacity="0.1">
          <rect x="1.75" y="2.75" width="48" height="24" rx="12" ry="12"/>
          <rect x="1.75" y="2.75" width="48" height="24" rx="12" ry="12" fill="none" stroke="#000" stroke-miterlimit="10" stroke-width="1.5"/>
        </g>
        <g>
          <rect x="0.75" y="0.75" width="48" height="24" rx="12" ry="12" fill="#d8c2f2"/>
          <rect x="0.75" y="0.75" width="48" height="24" rx="12" ry="12" fill="none" stroke="#666" stroke-miterlimit="10" stroke-width="1.5"/>
        </g>
      </g>
      <g>
        <path d="M20,12a4.69,4.69,0,0,1-1,3.25,3.78,3.78,0,0,1-3,1.16,3.81,3.81,0,0,1-3-1.15A4.72,4.72,0,0,1,12,12a4.64,4.64,0,0,1,1-3.26,3.85,3.85,0,0,1,3-1.14,3.78,3.78,0,0,1,3,1.15A4.68,4.68,0,0,1,20,12Zm-6.54,0a3.84,3.84,0,0,0,.64,2.4,2.25,2.25,0,0,0,1.89.82,2.25,2.25,0,0,0,1.88-.81A3.85,3.85,0,0,0,18.5,12a3.86,3.86,0,0,0-.63-2.39A2.23,2.23,0,0,0,16,8.77a2.27,2.27,0,0,0-1.9.81A3.8,3.8,0,0,0,13.45,12Z" fill="#666"/>
        <path d="M25,16.39a2.27,2.27,0,0,1-1.91-.88H23q0.08,0.82.08,1v2.65H21.68V9.79H22.8q0,0.18.19,0.87h0.07a2.16,2.16,0,0,1,1.93-1,2.25,2.25,0,0,1,1.89.88A4,4,0,0,1,27.56,13a4,4,0,0,1-.69,2.48A2.27,2.27,0,0,1,25,16.39ZM24.64,10.8a1.43,1.43,0,0,0-1.2.48,2.49,2.49,0,0,0-.38,1.54V13a3,3,0,0,0,.38,1.71,1.39,1.39,0,0,0,1.22.53,1.24,1.24,0,0,0,1.1-.59A3,3,0,0,0,26.15,13a2.92,2.92,0,0,0-.38-1.65A1.28,1.28,0,0,0,24.64,10.8Z" fill="#666"/>
        <path d="M37.63,16.27H31.82v-1L34,13a18.79,18.79,0,0,0,1.3-1.42,3.39,3.39,0,0,0,.47-0.79A2.12,2.12,0,0,0,35.94,10a1.21,1.21,0,0,0-.35-0.91,1.34,1.34,0,0,0-1-.33,2.57,2.57,0,0,0-1,.18,4.46,4.46,0,0,0-1.06.66l-0.74-.91a4.8,4.8,0,0,1,1.39-.86,4.07,4.07,0,0,1,1.44-.25,2.82,2.82,0,0,1,1.92.62,2.11,2.11,0,0,1,.72,1.68,3,3,0,0,1-.21,1.1,4.48,4.48,0,0,1-.64,1.08A14.6,14.6,0,0,1,35,13.56L33.56,15v0.06h4.07v1.21Z" fill="#666"/>
      </g>
    </symbol>
  </defs>
  <title>rnn</title>
  <g>
    <line x1="228" y1="42" x2="300.57" y2="42" fill="none" stroke="#666" stroke-miterlimit="10" stroke-width="1.5"/>
    <path d="M306,42a27.2,27.2,0,0,0-7.69,4.28L299.86,42l-1.55-4.28A27.18,27.18,0,0,0,306,42Z" fill="#666"/>
  </g>
  <g>
    <line x1="360" y1="42" x2="432.57" y2="42" fill="none" stroke="#666" stroke-miterlimit="10" stroke-width="1.5"/>
    <path d="M438,42a27.2,27.2,0,0,0-7.69,4.28L431.86,42l-1.55-4.28A27.18,27.18,0,0,0,438,42Z" fill="#666"/>
  </g>
  <g>
    <line x1="492" y1="42" x2="564.57" y2="42" fill="none" stroke="#666" stroke-miterlimit="10" stroke-width="1.5"/>
    <path d="M570,42a27.2,27.2,0,0,0-7.69,4.28L563.86,42l-1.55-4.28A27.18,27.18,0,0,0,570,42Z" fill="#666"/>
  </g>
  <g>
    <line x1="624" y1="42" x2="696.57" y2="42" fill="none" stroke="#666" stroke-miterlimit="10" stroke-width="1.5"/>
    <path d="M702,42a27.2,27.2,0,0,0-7.69,4.28L695.86,42l-1.55-4.28A27.18,27.18,0,0,0,702,42Z" fill="#666"/>
  </g>
  <g>
    <path d="M336,42s52-30,117-30c52.7,0,97.43,16,112,21.89" fill="none" stroke="#666" stroke-miterlimit="10" stroke-width="1.5"/>
    <path d="M570,36a27.2,27.2,0,0,0-8.74,1l3.06-3.37,0.2-4.55A27.17,27.17,0,0,0,570,36Z" fill="#666"/>
  </g>
  <g>
    <path d="M384.48,18.38A298.3,298.3,0,0,0,321,11.25c-64.46,0-116.85,29.8-117.37,30.1l0.75,1.3c0.52-.3,52.59-29.9,116.63-29.9a295.48,295.48,0,0,1,60.43,6.5Z" fill="#666"/>
    <path d="M432.52,29.11l-0.17,3.72a306,306,0,0,0-33.49-11l-2.81.81A306,306,0,0,1,431.8,34.23L429.26,37A27.2,27.2,0,0,1,438,36,27.17,27.17,0,0,1,432.52,29.11Z" fill="#666"/>
  </g>
  <use id="op-1-3" data-name="op-1" width="50.5" height="27.5" transform="translate(180 30)" xlink:href="#op-1"/>
  <use id="op-3-3" data-name="op-3" width="50.5" height="27.5" transform="translate(312 30)" xlink:href="#op-3"/>
  <use id="op-2-3" data-name="op-2" width="50.5" height="27.5" transform="translate(444 30)" xlink:href="#op-2"/>
  <use id="op-3-6" data-name="op-3" width="50.5" height="27.5" transform="translate(576 30)" xlink:href="#op-3"/>
</svg>
