<svg id="background" xmlns="http://www.w3.org/2000/svg" xmlns:xlink="http://www.w3.org/1999/xlink" width="984" height="330" viewBox="0 0 984 330">
  <defs>
    <symbol id="array-4" data-name="array-4" viewBox="0 0 145 37">
      <rect x="0.5" y="0.5" width="144" height="36" rx="6" ry="6" fill="#fff" stroke="#8c8c8c" stroke-miterlimit="10"/>
      <line x1="36" y1="36.5" x2="36" y2="0.5" fill="none" stroke="#8c8c8c" stroke-miterlimit="10"/>
      <line x1="72" y1="36.5" x2="72" y2="0.5" fill="none" stroke="#8c8c8c" stroke-miterlimit="10"/>
      <line x1="108.5" y1="36.5" x2="108.5" y2="0.5" fill="none" stroke="#8c8c8c" stroke-miterlimit="10"/>
    </symbol>
    <symbol id="rnn-bg" data-name="rnn-bg" viewBox="0 0 49.5 49.5">
      <rect x="0.75" y="0.75" width="48" height="48" rx="6" ry="6" fill="#fff" stroke="#666" stroke-width="1.5"/>
    </symbol>
    <symbol id="rnn-a" data-name="rnn-a" viewBox="0 0 49.5 49.5">
      <use id="rnn-bg-3" data-name="rnn-bg" width="49.5" height="49.5" xlink:href="#rnn-bg"/>
      <text transform="translate(18.08 31.75)" font-size="21.77" fill="#515151" font-family="Helvetica" letter-spacing="-1">A</text>
    </symbol>
    <symbol id="op-read" data-name="op-read" viewBox="0 0 49.07 25">
      <g id="_Group_7" data-name="&lt;Group&gt;">
        <g>
          <path d="M48.59,12.5a12,12,0,0,1-12,12H12.48a12,12,0,1,1,0-24H36.59a12,12,0,0,1,12,12h0Z" fill="#fff"/>
          <path d="M49.07,13a12,12,0,0,1-12,12H12A12,12,0,0,1,0,13V12A12,12,0,0,1,12,0H37.07a12,12,0,0,1,12,12v1ZM1,12.5A11.79,11.79,0,0,0,13,24H36.12a11.79,11.79,0,0,0,12-11.5A11.79,11.79,0,0,0,36.12,1H13A11.79,11.79,0,0,0,1,12.5Z" fill="#666"/>
        </g>
      </g>
      <text transform="translate(11.17 16.02)" font-size="12" fill="#666" font-family="Open Sans">read</text>
    </symbol>
    <symbol id="op-write" data-name="op-write" viewBox="0 0 49.07 25">
      <g id="_Group_9" data-name="&lt;Group&gt;">
        <g>
          <path d="M48.59,12.5a12,12,0,0,1-12,12H12.48a12,12,0,1,1,0-24H36.59a12,12,0,0,1,12,12h0Z" fill="#fff"/>
          <path d="M49.07,13a12,12,0,0,1-12,12H12A12,12,0,0,1,0,13V12A12,12,0,0,1,12,0H37.07a12,12,0,0,1,12,12v1ZM1,12.5A11.79,11.79,0,0,0,13,24H36.12a11.79,11.79,0,0,0,12-11.5A11.79,11.79,0,0,0,36.12,1H13A11.79,11.79,0,0,0,1,12.5Z" fill="#666"/>
        </g>
      </g>
      <text transform="translate(9.88 16.02)" font-size="12" fill="#666" font-family="Open Sans">write</text>
    </symbol>
    <symbol id="array-vector" data-name="array-vector" viewBox="0 0 36 36">
      <rect width="36" height="36" fill="#0080f7" opacity="0"/>
      <g>
        <line x1="18" y1="24" x2="18" y2="13.08" fill="none" stroke="#8c8c8c" stroke-miterlimit="10"/>
        <polygon points="22.09 16.4 21.36 17.08 18 13.47 14.64 17.08 13.91 16.4 18 12 22.09 16.4" fill="#8c8c8c"/>
      </g>
    </symbol>
  </defs>
  <title>rnn</title>
  <g id="_Group_" data-name="&lt;Group&gt;">
    <rect x="204.11" y="204" width="648" height="72" rx="10" ry="10" opacity="0.04"/>
    <g opacity="0.1">
      <rect x="204.11" y="204" width="648" height="72" rx="10" ry="10" fill="none" stroke="#231f20"/>
    </g>
  </g>
  <g id="_Group_2" data-name="&lt;Group&gt;">
    <rect x="169" y="30" width="143" height="54" rx="10" ry="10" opacity="0.04"/>
    <g opacity="0.1">
      <rect x="169" y="30" width="143" height="54" rx="10" ry="10" fill="none" stroke="#231f20"/>
    </g>
  </g>
  <use width="145" height="37" transform="translate(180 41) scale(0.83)" xlink:href="#array-4"/>
  <g id="_Group_3" data-name="&lt;Group&gt;">
    <rect x="361" y="30" width="143" height="54" rx="10" ry="10" opacity="0.04"/>
    <g opacity="0.1">
      <rect x="361" y="30" width="143" height="54" rx="10" ry="10" fill="none" stroke="#231f20"/>
    </g>
  </g>
  <use width="145" height="37" transform="translate(372 41) scale(0.83)" xlink:href="#array-4"/>
  <g id="_Group_4" data-name="&lt;Group&gt;">
    <rect x="553" y="30" width="143" height="54" rx="10" ry="10" opacity="0.04"/>
    <g opacity="0.1">
      <rect x="553" y="30" width="143" height="54" rx="10" ry="10" fill="none" stroke="#231f20"/>
    </g>
  </g>
  <use width="145" height="37" transform="translate(564 41) scale(0.83)" xlink:href="#array-4"/>
  <g id="_Group_5" data-name="&lt;Group&gt;">
    <rect x="745" y="30" width="143" height="54" rx="10" ry="10" opacity="0.04"/>
    <g opacity="0.1">
      <rect x="745" y="30" width="143" height="54" rx="10" ry="10" fill="none" stroke="#231f20"/>
    </g>
  </g>
  <use width="145" height="37" transform="translate(756 41) scale(0.83)" xlink:href="#array-4"/>
  <g>
    <g opacity="0.1">
      <rect x="408.25" y="218" width="48" height="48" rx="6" ry="6" stroke="#000" stroke-width="1.5"/>
      <path d="M431.8,233.38h2.39L439.86,249h-2.32l-1.63-4.68h-6.13L428.09,249h-2.17Zm3.51,9.22-2.4-6.9-2.5,6.9h4.9Z"/>
    </g>
    <use width="49.5" height="49.5" transform="translate(406.5 215.25)" xlink:href="#rnn-a"/>
  </g>
  <g>
    <g opacity="0.1">
      <rect x="601.75" y="218" width="48" height="48" rx="6" ry="6" stroke="#000" stroke-width="1.5"/>
      <path d="M625.3,233.38h2.39L633.36,249H631l-1.63-4.68h-6.13L621.59,249h-2.17Zm3.51,9.22-2.4-6.9-2.5,6.9h4.9Z"/>
    </g>
    <use width="49.5" height="49.5" transform="translate(600 215.25)" xlink:href="#rnn-a"/>
  </g>
  <g>
    <g opacity="0.1">
      <rect x="793.75" y="218" width="48" height="48" rx="6" ry="6" stroke="#000" stroke-width="1.5"/>
      <path d="M817.3,233.38h2.39L825.36,249H823l-1.63-4.68h-6.13L813.59,249h-2.17Zm3.51,9.22-2.4-6.9-2.5,6.9h4.9Z"/>
    </g>
    <use width="49.5" height="49.5" transform="translate(792 215.25)" xlink:href="#rnn-a"/>
  </g>
  <g>
    <path d="M271,84l29.83,29c3.94,3.84,11.67,7,17.17,7h34c5.5,0,13.14-3.23,17-7.17l24.24-24.94" fill="none" stroke="#8c8c8c" stroke-miterlimit="10" stroke-width="1.5"/>
    <path d="M397,84a27.2,27.2,0,0,0-2.29,8.5l-2-4.09-4.15-1.87A27.17,27.17,0,0,0,397,84Z" fill="#8c8c8c"/>
  </g>
  <g>
    <path d="M415,84l-34,34.84c-3.84,3.94-7,11.66-7,17.16v40c0,5.5,3.13,13.24,7,17.19l18.27,18.9" fill="none" stroke="#8c8c8c" stroke-miterlimit="10" stroke-width="1.5"/>
    <path d="M403,216a27.2,27.2,0,0,0-8.42-2.56l4.15-1.86,2-4.09A27.18,27.18,0,0,0,403,216Z" fill="#8c8c8c"/>
  </g>
  <g id="_Group_6" data-name="&lt;Group&gt;">
    <g opacity="0.1">
      <path d="M398.52,157.5a12,12,0,0,1-12,12H362.41a12,12,0,1,1,0-24h24.12a12,12,0,0,1,12,12h0Z"/>
      <path d="M399,158a12,12,0,0,1-12,12H361.93a12,12,0,0,1-12-12v-1a12,12,0,0,1,12-12H387a12,12,0,0,1,12,12v1Zm-48.12-.5a11.79,11.79,0,0,0,12,11.5H386a11.51,11.51,0,1,0,0-23H362.88A11.79,11.79,0,0,0,350.88,157.5Z"/>
      <path d="M365.06,154.48a3.81,3.81,0,0,1,.77.07l-0.13.9a3.31,3.31,0,0,0-.7-0.09,1.71,1.71,0,0,0-1.33.63,2.31,2.31,0,0,0-.55,1.58V161h-1v-6.42h0.8l0.11,1.19h0a2.82,2.82,0,0,1,.86-1A1.94,1.94,0,0,1,365.06,154.48Z"/>
      <path d="M369.75,161.13a3,3,0,0,1-2.25-.87,3.36,3.36,0,0,1-.82-2.41,3.72,3.72,0,0,1,.76-2.47,2.54,2.54,0,0,1,2.05-.91,2.42,2.42,0,0,1,1.91.79,3,3,0,0,1,.7,2.09V158h-4.42a2.55,2.55,0,0,0,.57,1.72,2,2,0,0,0,1.53.59,5.17,5.17,0,0,0,2.05-.43v0.87a5.15,5.15,0,0,1-1,.32A5.48,5.48,0,0,1,369.75,161.13Zm-0.26-5.84a1.59,1.59,0,0,0-1.23.5,2.32,2.32,0,0,0-.54,1.39h3.36a2.14,2.14,0,0,0-.41-1.41A1.44,1.44,0,0,0,369.48,155.29Z"/>
      <path d="M377.71,161l-0.19-.91h0a2.7,2.7,0,0,1-1,.82,2.92,2.92,0,0,1-1.19.21,2.14,2.14,0,0,1-1.5-.49,1.8,1.8,0,0,1-.54-1.4q0-1.95,3.11-2l1.09,0v-0.4a1.63,1.63,0,0,0-.33-1.12,1.34,1.34,0,0,0-1-.36,4.24,4.24,0,0,0-1.82.49L374,155a4.57,4.57,0,0,1,1-.4,4.5,4.5,0,0,1,1.13-.15,2.45,2.45,0,0,1,1.7.51,2.13,2.13,0,0,1,.55,1.63V161h-0.72Zm-2.2-.69a2,2,0,0,0,1.43-.5,1.84,1.84,0,0,0,.52-1.39v-0.58l-1,0a3.54,3.54,0,0,0-1.67.36,1.09,1.09,0,0,0-.51,1,1,1,0,0,0,.32.8A1.33,1.33,0,0,0,375.52,160.33Z"/>
      <path d="M384.81,160.15h-0.05a2.29,2.29,0,0,1-2,1,2.38,2.38,0,0,1-2-.86,3.79,3.79,0,0,1-.7-2.45,3.86,3.86,0,0,1,.7-2.47,2.37,2.37,0,0,1,2-.88,2.34,2.34,0,0,1,2,.95h0.08l0-.46,0-.45V151.9h1V161h-0.79Zm-1.95.16a1.77,1.77,0,0,0,1.44-.54,2.74,2.74,0,0,0,.45-1.75v-0.21a3.22,3.22,0,0,0-.45-1.95,1.72,1.72,0,0,0-1.45-.58,1.49,1.49,0,0,0-1.31.67,3.31,3.31,0,0,0-.45,1.88,3.17,3.17,0,0,0,.45,1.86A1.53,1.53,0,0,0,382.86,160.32Z"/>
    </g>
    <use width="49.07" height="25" transform="translate(348.93 143)" xlink:href="#op-read"/>
  </g>
  <g id="_Group_8" data-name="&lt;Group&gt;">
    <g opacity="0.1">
      <path d="M362.52,122.5a12,12,0,0,1-12,12H326.41a12,12,0,0,1,0-24h24.12a12,12,0,0,1,12,12h0Z"/>
      <path d="M363,123a12,12,0,0,1-12,12H325.93a12,12,0,0,1-12-12v-1a12,12,0,0,1,12-12H351a12,12,0,0,1,12,12v1Zm-48.12-.5a11.79,11.79,0,0,0,12,11.5H350a11.51,11.51,0,1,0,0-23H326.88A11.79,11.79,0,0,0,314.88,122.5Z"/>
      <path d="M330.09,126l-1.18-3.77q-0.11-.35-0.42-1.57h0q-0.23,1-.41,1.58L326.83,126H325.7l-1.75-6.42h1l0.95,3.69a14.93,14.93,0,0,1,.37,1.71h0q0.06-.33.21-0.86t0.25-.84l1.18-3.69H329l1.15,3.69a12.44,12.44,0,0,1,.45,1.69h0a6.21,6.21,0,0,1,.13-0.65q0.1-.44,1.22-4.73h1L331.24,126h-1.15Z"/>
      <path d="M337.11,119.48a3.81,3.81,0,0,1,.77.07l-0.13.9a3.31,3.31,0,0,0-.7-0.09,1.71,1.71,0,0,0-1.33.63,2.31,2.31,0,0,0-.55,1.58V126h-1v-6.42H335l0.11,1.19h0a2.82,2.82,0,0,1,.86-1A1.94,1.94,0,0,1,337.11,119.48Z"/>
      <path d="M339,117.85a0.65,0.65,0,0,1,.16-0.49,0.61,0.61,0,0,1,.81,0,0.63,0.63,0,0,1,.17.49,0.64,0.64,0,0,1-.17.49,0.6,0.6,0,0,1-.81,0A0.66,0.66,0,0,1,339,117.85ZM340,126h-1v-6.42h1V126Z"/>
      <path d="M344.19,125.33a3.18,3.18,0,0,0,.5,0l0.38-.08V126a1.78,1.78,0,0,1-.47.13,3.5,3.5,0,0,1-.55,0,1.69,1.69,0,0,1-1.86-2v-3.82h-0.92v-0.47l0.92-.4,0.41-1.37h0.56v1.49H345v0.76h-1.86v3.78a1.3,1.3,0,0,0,.28.89A1,1,0,0,0,344.19,125.33Z"/>
      <path d="M349.06,126.13a3,3,0,0,1-2.25-.87,3.36,3.36,0,0,1-.82-2.41,3.72,3.72,0,0,1,.76-2.47,2.54,2.54,0,0,1,2.05-.91,2.42,2.42,0,0,1,1.91.79,3,3,0,0,1,.7,2.09V123H347a2.55,2.55,0,0,0,.57,1.72,2,2,0,0,0,1.53.59,5.17,5.17,0,0,0,2.05-.43v0.87a5.15,5.15,0,0,1-1,.32A5.48,5.48,0,0,1,349.06,126.13Zm-0.26-5.84a1.59,1.59,0,0,0-1.23.5,2.32,2.32,0,0,0-.54,1.39h3.36a2.14,2.14,0,0,0-.41-1.41A1.44,1.44,0,0,0,348.8,120.29Z"/>
    </g>
    <use width="49.07" height="25" transform="translate(312.93 108)" xlink:href="#op-write"/>
  </g>
  <g>
    <g opacity="0.1">
      <rect x="217.75" y="218" width="48" height="48" rx="6" ry="6" stroke="#000" stroke-width="1.5"/>
      <path d="M241.3,233.38h2.39L249.36,249H247l-1.63-4.68h-6.13L237.59,249h-2.17Zm3.51,9.22-2.4-6.9-2.5,6.9h4.9Z"/>
    </g>
    <use width="49.5" height="49.5" transform="translate(216 215.25)" xlink:href="#rnn-a"/>
  </g>
  <g opacity="0.4">
    <g>
      <line x1="253" y1="216" x2="327.16" y2="141.84" fill="none" stroke="#8c8c8c" stroke-miterlimit="10" stroke-width="1.5"/>
      <path d="M331,138a27.2,27.2,0,0,0-2.41,8.47l-1.93-4.12-4.12-1.93A27.18,27.18,0,0,0,331,138Z" fill="#8c8c8c"/>
    </g>
  </g>
  <g opacity="0.4">
    <g>
      <path d="M265,222l58.93-58.93c3.89-3.89,9.77-7.07,13.07-7.07h0.57" fill="none" stroke="#8c8c8c" stroke-miterlimit="10" stroke-width="1.5"/>
      <path d="M343,156a27.2,27.2,0,0,0-7.69,4.28l1.55-4.28-1.55-4.28A27.18,27.18,0,0,0,343,156Z" fill="#8c8c8c"/>
    </g>
  </g>
  <g>
    <path d="M463,84l29.83,29c3.94,3.84,11.67,7,17.17,7h34c5.5,0,13.14-3.23,17-7.17l24.24-24.94" fill="none" stroke="#8c8c8c" stroke-miterlimit="10" stroke-width="1.5"/>
    <path d="M589,84a27.2,27.2,0,0,0-2.29,8.5l-2-4.09-4.15-1.87A27.17,27.17,0,0,0,589,84Z" fill="#8c8c8c"/>
  </g>
  <g>
    <path d="M607,84l-34,34.84c-3.84,3.94-7,11.66-7,17.16v40c0,5.5,3.13,13.24,7,17.19l18.27,18.9" fill="none" stroke="#8c8c8c" stroke-miterlimit="10" stroke-width="1.5"/>
    <path d="M595,216a27.2,27.2,0,0,0-8.42-2.56l4.15-1.86,2-4.09A27.18,27.18,0,0,0,595,216Z" fill="#8c8c8c"/>
  </g>
  <g id="_Group_10" data-name="&lt;Group&gt;">
    <g opacity="0.1">
      <path d="M590.52,157.5a12,12,0,0,1-12,12H554.41a12,12,0,0,1,0-24h24.12a12,12,0,0,1,12,12h0Z"/>
      <path d="M591,158a12,12,0,0,1-12,12H553.93a12,12,0,0,1-12-12v-1a12,12,0,0,1,12-12H579a12,12,0,0,1,12,12v1Zm-48.12-.5a11.79,11.79,0,0,0,12,11.5H578a11.51,11.51,0,1,0,0-23H554.88A11.79,11.79,0,0,0,542.88,157.5Z"/>
      <path d="M557.06,154.48a3.81,3.81,0,0,1,.77.07l-0.13.9a3.31,3.31,0,0,0-.7-0.09,1.71,1.71,0,0,0-1.33.63,2.31,2.31,0,0,0-.55,1.58V161h-1v-6.42h0.8l0.11,1.19h0a2.82,2.82,0,0,1,.86-1A1.94,1.94,0,0,1,557.06,154.48Z"/>
      <path d="M561.75,161.13a3,3,0,0,1-2.25-.87,3.36,3.36,0,0,1-.82-2.41,3.72,3.72,0,0,1,.76-2.47,2.54,2.54,0,0,1,2.05-.91,2.42,2.42,0,0,1,1.91.79,3,3,0,0,1,.7,2.09V158h-4.42a2.55,2.55,0,0,0,.57,1.72,2,2,0,0,0,1.53.59,5.17,5.17,0,0,0,2.05-.43v0.87a5.15,5.15,0,0,1-1,.32A5.48,5.48,0,0,1,561.75,161.13Zm-0.26-5.84a1.59,1.59,0,0,0-1.23.5,2.32,2.32,0,0,0-.54,1.39h3.36a2.14,2.14,0,0,0-.41-1.41A1.44,1.44,0,0,0,561.48,155.29Z"/>
      <path d="M569.71,161l-0.19-.91h0a2.7,2.7,0,0,1-1,.82,2.92,2.92,0,0,1-1.19.21,2.14,2.14,0,0,1-1.5-.49,1.8,1.8,0,0,1-.54-1.4q0-1.95,3.11-2l1.09,0v-0.4a1.63,1.63,0,0,0-.33-1.12,1.34,1.34,0,0,0-1-.36,4.24,4.24,0,0,0-1.82.49L566,155a4.57,4.57,0,0,1,1-.4,4.5,4.5,0,0,1,1.13-.15,2.45,2.45,0,0,1,1.7.51,2.13,2.13,0,0,1,.55,1.63V161h-0.72Zm-2.2-.69a2,2,0,0,0,1.43-.5,1.84,1.84,0,0,0,.52-1.39v-0.58l-1,0a3.54,3.54,0,0,0-1.67.36,1.09,1.09,0,0,0-.51,1,1,1,0,0,0,.32.8A1.33,1.33,0,0,0,567.52,160.33Z"/>
      <path d="M576.81,160.15h-0.05a2.29,2.29,0,0,1-2,1,2.38,2.38,0,0,1-2-.86,3.79,3.79,0,0,1-.7-2.45,3.86,3.86,0,0,1,.7-2.47,2.37,2.37,0,0,1,2-.88,2.34,2.34,0,0,1,2,.95h0.08l0-.46,0-.45V151.9h1V161h-0.79Zm-1.95.16a1.77,1.77,0,0,0,1.44-.54,2.74,2.74,0,0,0,.45-1.75v-0.21a3.22,3.22,0,0,0-.45-1.95,1.72,1.72,0,0,0-1.45-.58,1.49,1.49,0,0,0-1.31.67,3.31,3.31,0,0,0-.45,1.88,3.17,3.17,0,0,0,.45,1.86A1.53,1.53,0,0,0,574.86,160.32Z"/>
    </g>
    <use width="49.07" height="25" transform="translate(540.93 143)" xlink:href="#op-read"/>
  </g>
  <g id="_Group_12" data-name="&lt;Group&gt;">
    <g opacity="0.1">
      <path d="M554.52,122.5a12,12,0,0,1-12,12H518.41a12,12,0,0,1,0-24h24.12a12,12,0,0,1,12,12h0Z"/>
      <path d="M555,123a12,12,0,0,1-12,12H517.93a12,12,0,0,1-12-12v-1a12,12,0,0,1,12-12H543a12,12,0,0,1,12,12v1Zm-48.12-.5a11.79,11.79,0,0,0,12,11.5H542a11.51,11.51,0,1,0,0-23H518.88A11.79,11.79,0,0,0,506.88,122.5Z"/>
      <path d="M522.09,126l-1.18-3.77q-0.11-.35-0.42-1.57h0q-0.23,1-.41,1.58L518.83,126H517.7l-1.75-6.42h1l0.95,3.69a14.93,14.93,0,0,1,.37,1.71h0q0.06-.33.21-0.86t0.25-.84l1.18-3.69H521l1.15,3.69a12.44,12.44,0,0,1,.45,1.69h0a6.21,6.21,0,0,1,.13-0.65q0.1-.44,1.22-4.73h1L523.24,126h-1.15Z"/>
      <path d="M529.11,119.48a3.81,3.81,0,0,1,.77.07l-0.13.9a3.31,3.31,0,0,0-.7-0.09,1.71,1.71,0,0,0-1.33.63,2.31,2.31,0,0,0-.55,1.58V126h-1v-6.42H527l0.11,1.19h0a2.82,2.82,0,0,1,.86-1A1.94,1.94,0,0,1,529.11,119.48Z"/>
      <path d="M531,117.85a0.65,0.65,0,0,1,.16-0.49,0.61,0.61,0,0,1,.81,0,0.63,0.63,0,0,1,.17.49,0.64,0.64,0,0,1-.17.49,0.6,0.6,0,0,1-.81,0A0.66,0.66,0,0,1,531,117.85ZM532,126h-1v-6.42h1V126Z"/>
      <path d="M536.19,125.33a3.18,3.18,0,0,0,.5,0l0.38-.08V126a1.78,1.78,0,0,1-.47.13,3.5,3.5,0,0,1-.55,0,1.69,1.69,0,0,1-1.86-2v-3.82h-0.92v-0.47l0.92-.4,0.41-1.37h0.56v1.49H537v0.76h-1.86v3.78a1.3,1.3,0,0,0,.28.89A1,1,0,0,0,536.19,125.33Z"/>
      <path d="M541.06,126.13a3,3,0,0,1-2.25-.87,3.36,3.36,0,0,1-.82-2.41,3.72,3.72,0,0,1,.76-2.47,2.54,2.54,0,0,1,2.05-.91,2.42,2.42,0,0,1,1.91.79,3,3,0,0,1,.7,2.09V123H539a2.55,2.55,0,0,0,.57,1.72,2,2,0,0,0,1.53.59,5.17,5.17,0,0,0,2.05-.43v0.87a5.15,5.15,0,0,1-1,.32A5.48,5.48,0,0,1,541.06,126.13Zm-0.26-5.84a1.59,1.59,0,0,0-1.23.5,2.32,2.32,0,0,0-.54,1.39h3.36a2.14,2.14,0,0,0-.41-1.41A1.44,1.44,0,0,0,540.8,120.29Z"/>
    </g>
    <use width="49.07" height="25" transform="translate(504.93 108)" xlink:href="#op-write"/>
  </g>
  <g opacity="0.4">
    <g>
      <line x1="445" y1="216" x2="519.16" y2="141.84" fill="none" stroke="#8c8c8c" stroke-miterlimit="10" stroke-width="1.5"/>
      <path d="M523,138a27.2,27.2,0,0,0-2.41,8.47l-1.93-4.12-4.12-1.93A27.18,27.18,0,0,0,523,138Z" fill="#8c8c8c"/>
    </g>
  </g>
  <g opacity="0.4">
    <g>
      <path d="M457,222l58.93-58.93c3.89-3.89,9.77-7.07,13.07-7.07h0.57" fill="none" stroke="#8c8c8c" stroke-miterlimit="10" stroke-width="1.5"/>
      <path d="M535,156a27.2,27.2,0,0,0-7.69,4.28l1.55-4.28-1.55-4.28A27.18,27.18,0,0,0,535,156Z" fill="#8c8c8c"/>
    </g>
  </g>
  <g>
    <path d="M655,84l29.83,29c3.94,3.84,11.67,7,17.17,7h34c5.5,0,13.14-3.23,17-7.17l24.24-24.94" fill="none" stroke="#8c8c8c" stroke-miterlimit="10" stroke-width="1.5"/>
    <path d="M781,84a27.2,27.2,0,0,0-2.29,8.5l-2-4.09-4.15-1.87A27.17,27.17,0,0,0,781,84Z" fill="#8c8c8c"/>
  </g>
  <g>
    <path d="M799,84l-34,34.84c-3.84,3.94-7,11.66-7,17.16v40c0,5.5,3.13,13.24,7,17.19l18.27,18.9" fill="none" stroke="#8c8c8c" stroke-miterlimit="10" stroke-width="1.5"/>
    <path d="M787,216a27.2,27.2,0,0,0-8.42-2.56l4.15-1.86,2-4.09A27.18,27.18,0,0,0,787,216Z" fill="#8c8c8c"/>
  </g>
  <g id="_Group_14" data-name="&lt;Group&gt;">
    <g opacity="0.1">
      <path d="M782.52,157.5a12,12,0,0,1-12,12H746.41a12,12,0,0,1,0-24h24.12a12,12,0,0,1,12,12h0Z"/>
      <path d="M783,158a12,12,0,0,1-12,12H745.93a12,12,0,0,1-12-12v-1a12,12,0,0,1,12-12H771a12,12,0,0,1,12,12v1Zm-48.12-.5a11.79,11.79,0,0,0,12,11.5H770a11.51,11.51,0,1,0,0-23H746.88A11.79,11.79,0,0,0,734.88,157.5Z"/>
      <path d="M749.06,154.48a3.81,3.81,0,0,1,.77.07l-0.13.9a3.31,3.31,0,0,0-.7-0.09,1.71,1.71,0,0,0-1.33.63,2.31,2.31,0,0,0-.55,1.58V161h-1v-6.42h0.8l0.11,1.19h0a2.82,2.82,0,0,1,.86-1A1.94,1.94,0,0,1,749.06,154.48Z"/>
      <path d="M753.75,161.13a3,3,0,0,1-2.25-.87,3.36,3.36,0,0,1-.82-2.41,3.72,3.72,0,0,1,.76-2.47,2.54,2.54,0,0,1,2.05-.91,2.42,2.42,0,0,1,1.91.79,3,3,0,0,1,.7,2.09V158h-4.42a2.55,2.55,0,0,0,.57,1.72,2,2,0,0,0,1.53.59,5.17,5.17,0,0,0,2.05-.43v0.87a5.15,5.15,0,0,1-1,.32A5.48,5.48,0,0,1,753.75,161.13Zm-0.26-5.84a1.59,1.59,0,0,0-1.23.5,2.32,2.32,0,0,0-.54,1.39h3.36a2.14,2.14,0,0,0-.41-1.41A1.44,1.44,0,0,0,753.48,155.29Z"/>
      <path d="M761.71,161l-0.19-.91h0a2.7,2.7,0,0,1-1,.82,2.92,2.92,0,0,1-1.19.21,2.14,2.14,0,0,1-1.5-.49,1.8,1.8,0,0,1-.54-1.4q0-1.95,3.11-2l1.09,0v-0.4a1.63,1.63,0,0,0-.33-1.12,1.34,1.34,0,0,0-1-.36,4.24,4.24,0,0,0-1.82.49L758,155a4.57,4.57,0,0,1,1-.4,4.5,4.5,0,0,1,1.13-.15,2.45,2.45,0,0,1,1.7.51,2.13,2.13,0,0,1,.55,1.63V161h-0.72Zm-2.2-.69a2,2,0,0,0,1.43-.5,1.84,1.84,0,0,0,.52-1.39v-0.58l-1,0a3.54,3.54,0,0,0-1.67.36,1.09,1.09,0,0,0-.51,1,1,1,0,0,0,.32.8A1.33,1.33,0,0,0,759.52,160.33Z"/>
      <path d="M768.81,160.15h-0.05a2.29,2.29,0,0,1-2,1,2.38,2.38,0,0,1-2-.86,3.79,3.79,0,0,1-.7-2.45,3.86,3.86,0,0,1,.7-2.47,2.37,2.37,0,0,1,2-.88,2.34,2.34,0,0,1,2,.95h0.08l0-.46,0-.45V151.9h1V161h-0.79Zm-1.95.16a1.77,1.77,0,0,0,1.44-.54,2.74,2.74,0,0,0,.45-1.75v-0.21a3.22,3.22,0,0,0-.45-1.95,1.72,1.72,0,0,0-1.45-.58,1.49,1.49,0,0,0-1.31.67,3.31,3.31,0,0,0-.45,1.88,3.17,3.17,0,0,0,.45,1.86A1.53,1.53,0,0,0,766.86,160.32Z"/>
    </g>
    <use width="49.07" height="25" transform="translate(732.93 143)" xlink:href="#op-read"/>
  </g>
  <g id="_Group_16" data-name="&lt;Group&gt;">
    <g opacity="0.1">
      <path d="M746.52,122.5a12,12,0,0,1-12,12H710.41a12,12,0,0,1,0-24h24.12a12,12,0,0,1,12,12h0Z"/>
      <path d="M747,123a12,12,0,0,1-12,12H709.93a12,12,0,0,1-12-12v-1a12,12,0,0,1,12-12H735a12,12,0,0,1,12,12v1Zm-48.12-.5a11.79,11.79,0,0,0,12,11.5H734a11.51,11.51,0,1,0,0-23H710.88A11.79,11.79,0,0,0,698.88,122.5Z"/>
      <path d="M714.09,126l-1.18-3.77q-0.11-.35-0.42-1.57h0q-0.23,1-.41,1.58L710.83,126H709.7l-1.75-6.42h1l0.95,3.69a14.93,14.93,0,0,1,.37,1.71h0q0.06-.33.21-0.86t0.25-.84l1.18-3.69H713l1.15,3.69a12.44,12.44,0,0,1,.45,1.69h0a6.21,6.21,0,0,1,.13-0.65q0.1-.44,1.22-4.73h1L715.24,126h-1.15Z"/>
      <path d="M721.11,119.48a3.81,3.81,0,0,1,.77.07l-0.13.9a3.31,3.31,0,0,0-.7-0.09,1.71,1.71,0,0,0-1.33.63,2.31,2.31,0,0,0-.55,1.58V126h-1v-6.42H719l0.11,1.19h0a2.82,2.82,0,0,1,.86-1A1.94,1.94,0,0,1,721.11,119.48Z"/>
      <path d="M723,117.85a0.65,0.65,0,0,1,.16-0.49,0.61,0.61,0,0,1,.81,0,0.63,0.63,0,0,1,.17.49,0.64,0.64,0,0,1-.17.49,0.6,0.6,0,0,1-.81,0A0.66,0.66,0,0,1,723,117.85ZM724,126h-1v-6.42h1V126Z"/>
      <path d="M728.19,125.33a3.18,3.18,0,0,0,.5,0l0.38-.08V126a1.78,1.78,0,0,1-.47.13,3.5,3.5,0,0,1-.55,0,1.69,1.69,0,0,1-1.86-2v-3.82h-0.92v-0.47l0.92-.4,0.41-1.37h0.56v1.49H729v0.76h-1.86v3.78a1.3,1.3,0,0,0,.28.89A1,1,0,0,0,728.19,125.33Z"/>
      <path d="M733.06,126.13a3,3,0,0,1-2.25-.87,3.36,3.36,0,0,1-.82-2.41,3.72,3.72,0,0,1,.76-2.47,2.54,2.54,0,0,1,2.05-.91,2.42,2.42,0,0,1,1.91.79,3,3,0,0,1,.7,2.09V123H731a2.55,2.55,0,0,0,.57,1.72,2,2,0,0,0,1.53.59,5.17,5.17,0,0,0,2.05-.43v0.87a5.15,5.15,0,0,1-1,.32A5.48,5.48,0,0,1,733.06,126.13Zm-0.26-5.84a1.59,1.59,0,0,0-1.23.5,2.32,2.32,0,0,0-.54,1.39h3.36a2.14,2.14,0,0,0-.41-1.41A1.44,1.44,0,0,0,732.8,120.29Z"/>
    </g>
    <use width="49.07" height="25" transform="translate(696.93 108)" xlink:href="#op-write"/>
  </g>
  <g opacity="0.4">
    <g>
      <line x1="637" y1="216" x2="711.16" y2="141.84" fill="none" stroke="#8c8c8c" stroke-miterlimit="10" stroke-width="1.5"/>
      <path d="M715,138a27.2,27.2,0,0,0-2.41,8.47l-1.93-4.12-4.12-1.93A27.18,27.18,0,0,0,715,138Z" fill="#8c8c8c"/>
    </g>
  </g>
  <g opacity="0.4">
    <g>
      <path d="M649,222l58.93-58.93c3.89-3.89,9.77-7.07,13.07-7.07h0.57" fill="none" stroke="#8c8c8c" stroke-miterlimit="10" stroke-width="1.5"/>
      <path d="M727,156a27.2,27.2,0,0,0-7.69,4.28l1.55-4.28-1.55-4.28A27.18,27.18,0,0,0,727,156Z" fill="#8c8c8c"/>
    </g>
  </g>
  <text transform="translate(169 12)" font-size="12" fill="#666" font-family="Open Sans">Memory is an array of vectors</text>
  <text transform="translate(168 118.28)" font-size="12" fill="#666" font-family="Open Sans">Network A <tspan x="0" y="18">writes to and reads </tspan><tspan x="0" y="36">from the memory </tspan><tspan x="0" y="54">each step</tspan></text>
  <g>
    <line x1="265" y1="240" x2="398.32" y2="240" fill="none" stroke="#8c8c8c" stroke-miterlimit="10" stroke-width="1.5"/>
    <path d="M403.75,240a27.2,27.2,0,0,0-7.69,4.28l1.55-4.28-1.55-4.28A27.18,27.18,0,0,0,403.75,240Z" fill="#8c8c8c"/>
  </g>
  <g>
    <line x1="457" y1="240" x2="590.32" y2="240" fill="none" stroke="#8c8c8c" stroke-miterlimit="10" stroke-width="1.5"/>
    <path d="M595.75,240a27.2,27.2,0,0,0-7.69,4.28l1.55-4.28-1.55-4.28A27.18,27.18,0,0,0,595.75,240Z" fill="#8c8c8c"/>
  </g>
  <g>
    <line x1="649" y1="240" x2="782.32" y2="240" fill="none" stroke="#8c8c8c" stroke-miterlimit="10" stroke-width="1.5"/>
    <path d="M787.75,240a27.2,27.2,0,0,0-7.69,4.28l1.55-4.28-1.55-4.28A27.18,27.18,0,0,0,787.75,240Z" fill="#8c8c8c"/>
  </g>
  <text transform="translate(223.93 306)" font-size="12" fill="#666" font-family="Open Sans">x0</text>
  <text transform="translate(248.05 306)" font-size="12" fill="#666" font-family="Open Sans">y0</text>
  <g>
    <line x1="229.5" y1="291.08" x2="229.5" y2="272.01" fill="none" stroke="#8c8c8c" stroke-miterlimit="10" stroke-width="1.5"/>
    <path d="M229.5,266.58a27.2,27.2,0,0,0,4.28,7.69l-4.28-1.55-4.28,1.55A27.17,27.17,0,0,0,229.5,266.58Z" fill="#8c8c8c"/>
  </g>
  <g>
    <line x1="253.5" y1="266.58" x2="253.5" y2="285.65" fill="none" stroke="#8c8c8c" stroke-miterlimit="10" stroke-width="1.5"/>
    <path d="M253.5,291.08a27.2,27.2,0,0,0-4.28-7.69l4.28,1.55,4.28-1.55A27.18,27.18,0,0,0,253.5,291.08Z" fill="#8c8c8c"/>
  </g>
  <g>
    <line x1="418.5" y1="292.41" x2="418.5" y2="273.34" fill="none" stroke="#8c8c8c" stroke-miterlimit="10" stroke-width="1.5"/>
    <path d="M418.5,267.91a27.2,27.2,0,0,0,4.28,7.69l-4.28-1.55-4.28,1.55A27.18,27.18,0,0,0,418.5,267.91Z" fill="#8c8c8c"/>
  </g>
  <g>
    <line x1="443.5" y1="267.91" x2="443.5" y2="286.98" fill="none" stroke="#8c8c8c" stroke-miterlimit="10" stroke-width="1.5"/>
    <path d="M443.5,292.41a27.2,27.2,0,0,0-4.28-7.69l4.28,1.55,4.28-1.55A27.18,27.18,0,0,0,443.5,292.41Z" fill="#8c8c8c"/>
  </g>
  <g>
    <line x1="611.33" y1="292.41" x2="611.33" y2="273.34" fill="none" stroke="#8c8c8c" stroke-miterlimit="10" stroke-width="1.5"/>
    <path d="M611.33,267.91a27.2,27.2,0,0,0,4.28,7.69l-4.28-1.55-4.28,1.55A27.18,27.18,0,0,0,611.33,267.91Z" fill="#8c8c8c"/>
  </g>
  <g>
    <line x1="636.33" y1="267.91" x2="636.33" y2="286.98" fill="none" stroke="#8c8c8c" stroke-miterlimit="10" stroke-width="1.5"/>
    <path d="M636.33,292.41a27.2,27.2,0,0,0-4.28-7.69l4.28,1.55,4.28-1.55A27.18,27.18,0,0,0,636.33,292.41Z" fill="#8c8c8c"/>
  </g>
  <text transform="translate(411.59 306)" font-size="12" fill="#666" font-family="Open Sans">x1</text>
  <text transform="translate(435.71 306)" font-size="12" fill="#666" font-family="Open Sans">y1</text>
  <text transform="translate(604.43 306)" font-size="12" fill="#666" font-family="Open Sans">x2</text>
  <text transform="translate(628.55 306)" font-size="12" fill="#666" font-family="Open Sans">y2</text>
  <g>
    <line x1="803.33" y1="292.41" x2="803.33" y2="273.34" fill="none" stroke="#8c8c8c" stroke-miterlimit="10" stroke-width="1.5"/>
    <path d="M803.33,267.91a27.2,27.2,0,0,0,4.28,7.69l-4.28-1.55-4.28,1.55A27.18,27.18,0,0,0,803.33,267.91Z" fill="#8c8c8c"/>
  </g>
  <g>
    <line x1="828.33" y1="267.91" x2="828.33" y2="286.98" fill="none" stroke="#8c8c8c" stroke-miterlimit="10" stroke-width="1.5"/>
    <path d="M828.33,292.41a27.2,27.2,0,0,0-4.28-7.69l4.28,1.55,4.28-1.55A27.18,27.18,0,0,0,828.33,292.41Z" fill="#8c8c8c"/>
  </g>
  <text transform="translate(796.43 306)" font-size="12" fill="#666" font-family="Open Sans">x2</text>
  <text transform="translate(820.55 306)" font-size="12" fill="#666" font-family="Open Sans">y2</text>
  <use width="36" height="36" transform="translate(180 41.45) scale(0.83)" xlink:href="#array-vector"/>
  <use width="36" height="36" transform="translate(210.04 41.45) scale(0.83)" xlink:href="#array-vector"/>
  <use width="36" height="36" transform="translate(240.08 41.45) scale(0.83)" xlink:href="#array-vector"/>
  <use width="36" height="36" transform="translate(270.12 41.45) scale(0.83)" xlink:href="#array-vector"/>
  <use width="36" height="36" transform="matrix(0.59, 0.59, -0.59, 0.59, 387.02, 35.23)" xlink:href="#array-vector"/>
  <use width="36" height="36" transform="translate(402.04 41.45) scale(0.83)" xlink:href="#array-vector"/>
  <use width="36" height="36" transform="translate(432.08 41.45) scale(0.83)" xlink:href="#array-vector"/>
  <use width="36" height="36" transform="translate(462.12 41.45) scale(0.83)" xlink:href="#array-vector"/>
  <use width="36" height="36" transform="matrix(0.59, 0.59, -0.59, 0.59, 579.02, 35.23)" xlink:href="#array-vector"/>
  <use width="36" height="36" transform="matrix(0.59, 0.59, -0.59, 0.59, 609.06, 35.23)" xlink:href="#array-vector"/>
  <use width="36" height="36" transform="translate(624.08 41.45) scale(0.83)" xlink:href="#array-vector"/>
  <use width="36" height="36" transform="translate(654.12 41.45) scale(0.83)" xlink:href="#array-vector"/>
  <use width="36" height="36" transform="matrix(0.59, 0.59, -0.59, 0.59, 771.02, 35.23)" xlink:href="#array-vector"/>
  <use width="36" height="36" transform="matrix(0.59, 0.59, -0.59, 0.59, 801.06, 35.23)" xlink:href="#array-vector"/>
  <use width="36" height="36" transform="matrix(0.59, 0.59, -0.59, 0.59, 831.1, 35.23)" xlink:href="#array-vector"/>
  <use width="36" height="36" transform="translate(846.12 41.45) scale(0.83)" xlink:href="#array-vector"/>
</svg>
