<?xml version="1.0" encoding="utf-8"?>
<!-- Generator: Adobe Illustrator 19.1.0, SVG Export Plug-In . SVG Version: 6.00 Build 0)  -->
<svg version="1.1" xmlns="http://www.w3.org/2000/svg" xmlns:xlink="http://www.w3.org/1999/xlink" x="0px" y="0px" width="984px"
	 height="144px" viewBox="0 0 984 144" enable-background="new 0 0 984 144" xml:space="preserve">
<symbol  id="op-bg" viewBox="-11.2 -11.2 22.5 22.5">
	<path fill="#798294" d="M11.2,0c0-6.2-5-11.2-11.2-11.2S-11.2-6.2-11.2,0s5,11.2,11.2,11.2S11.2,6.2,11.2,0z"/>
</symbol>
<symbol  id="rnn-a" viewBox="-21.5 -26.5 48 48">
	<use xlink:href="#rnn-bg"  width="48" height="48" id="XMLID_33_" x="-21.5" y="-26.5" overflow="visible"/>
	<text transform="matrix(1 0 0 -1 -4.7627 -9.5)" fill="#FFFFFF" font-family="'Helvetica'" font-size="21.7741px">A</text>
</symbol>
<symbol  id="rnn-bg" viewBox="-21.5 -26.5 48 48">
	<path fill="#798294" d="M20.5-26.5h-36c-3.3,0-6,2.7-6,6v36c0,3.3,2.7,6,6,6h36c3.3,0,6-2.7,6-6v-36C26.5-23.8,23.8-26.5,20.5-26.5
		z"/>
</symbol>
<g id="background">
	<g id="XMLID_7_">
		<g>
			<path fill="#E6EAF2" d="M768,98.5c0,3-3,5.5-6.7,5.5c0,0,0,0-9.3,0c-166.4,0-386.1,0-564,0c-11.3,0-11.3,0-11.3,0
				c-4.8,0-8.7-2.5-8.7-5.5c0,0,0,0,0-8c0-10.1,0-24.2,0-36c0-12.5,0-12.5,0-12.5c0-5.5,3.9-10,8.7-10c0,0,0,0,11.3,0
				c177.9,0,397.6,0,564,0c9.3,0,9.3,0,9.3,0c3.7,0,6.7,4.5,6.7,10c0,0,0,0,0,12.5c0,11.8,0,25.9,0,36C768,98.5,768,98.5,768,98.5z"
				/>
		</g>
	</g>
</g>
<g id="edges">
</g>
<g id="nodes">
	
		<use xlink:href="#rnn-a"  width="48" height="48" x="-21.5" y="-26.5" transform="matrix(1 0 0 -1 201.5009 65.5)" overflow="visible"/>
	
		<use xlink:href="#rnn-a"  width="48" height="48" x="-21.5" y="-26.5" transform="matrix(1 0 0 -1 333.5009 65.5)" overflow="visible"/>
	
		<use xlink:href="#rnn-a"  width="48" height="48" x="-21.5" y="-26.5" transform="matrix(1 0 0 -1 465.5009 65.5)" overflow="visible"/>
	
		<use xlink:href="#rnn-a"  width="48" height="48" id="XMLID_30_" x="-21.5" y="-26.5" transform="matrix(1 0 0 -1 597.5009 65.5)" overflow="visible"/>
	
		<use xlink:href="#rnn-a"  width="48" height="48" id="XMLID_29_" x="-21.5" y="-26.5" transform="matrix(1 0 0 -1 729.5009 65.5)" overflow="visible"/>
</g>
<g id="text">
	<text transform="matrix(1 0 0 1 185.663 131.9998)" fill="#717171" font-family="'Helvetica'" font-size="12px">x0</text>
	<text transform="matrix(1 0 0 1 209.663 131.9998)" fill="#717171" font-family="'Helvetica'" font-size="12px">y0</text>
	<text transform="matrix(1 0 0 1 317.663 131.9998)" fill="#717171" font-family="'Helvetica'" font-size="12px">x1</text>
	<text transform="matrix(1 0 0 1 341.663 131.9998)" fill="#717171" font-family="'Helvetica'" font-size="12px">y1</text>
	<text transform="matrix(1 0 0 1 449.663 131.9998)" fill="#717171" font-family="'Helvetica'" font-size="12px">x2</text>
	<text transform="matrix(1 0 0 1 473.663 131.9998)" fill="#717171" font-family="'Helvetica'" font-size="12px">y2</text>
	<text transform="matrix(1 0 0 1 581.663 131.9998)" fill="#717171" font-family="'Helvetica'" font-size="12px">x3</text>
	<text transform="matrix(1 0 0 1 605.663 131.9998)" fill="#717171" font-family="'Helvetica'" font-size="12px">y3</text>
	<g>
		<text transform="matrix(1 0 0 1 176.9882 12.9998)" fill="#666666" font-family="'Helvetica'" font-size="12px">One cell...</text>
	</g>
	<line fill="none" stroke="#B4B4B4" stroke-miterlimit="10" stroke-dasharray="2" x1="203.5" y1="43" x2="203.5" y2="20"/>
	<line fill="none" stroke="#B4B4B4" stroke-miterlimit="10" stroke-dasharray="2" x1="336.5" y1="43" x2="336.5" y2="20"/>
	<line fill="none" stroke="#B4B4B4" stroke-miterlimit="10" stroke-dasharray="2" x1="468.5" y1="43" x2="468.5" y2="20"/>
	<g>
		<text transform="matrix(1 0 0 1 284.9677 12.9998)" fill="#666666" font-family="'Helvetica'" font-size="12px">can be used over...</text>
	</g>
	<g>
		<text transform="matrix(1 0 0 1 439.6493 12.9998)" fill="#666666" font-family="'Helvetica'" font-size="12px">and over...</text>
	</g>
	<line fill="none" stroke="#B4B4B4" stroke-miterlimit="10" stroke-dasharray="2" x1="600.5" y1="43" x2="600.5" y2="20"/>
	<g>
		<text transform="matrix(1 0 0 1 571.6493 12.9998)" fill="#666666" font-family="'Helvetica'" font-size="12px">and over...</text>
	</g>
	<g>
		<text transform="matrix(1 0 0 1 715.6522 12.9998)" fill="#666666" font-family="'Helvetica'" font-size="12px">again.</text>
	</g>
	<g>
		<g>
			<line fill="none" stroke="#8C8C8C" stroke-miterlimit="10" x1="228" y1="68.5" x2="310.9" y2="68.5"/>
			<g>
				<polygon fill="#8C8C8C" points="307.6,72.6 306.9,71.9 310.5,68.5 306.9,65.1 307.6,64.4 312,68.5 				"/>
			</g>
		</g>
	</g>
	<g>
		<g>
			<line fill="none" stroke="#8C8C8C" stroke-miterlimit="10" x1="192" y1="116" x2="192" y2="92.6"/>
			<g>
				<polygon fill="#8C8C8C" points="196.1,95.9 195.4,96.6 192,93 188.6,96.6 187.9,95.9 192,91.5 				"/>
			</g>
		</g>
	</g>
	<g>
		<g>
			<line fill="none" stroke="#8C8C8C" stroke-miterlimit="10" x1="217" y1="91.5" x2="217" y2="114.9"/>
			<g>
				<polygon fill="#8C8C8C" points="212.9,111.6 213.6,110.9 217,114.5 220.4,110.9 221.1,111.6 217,116 				"/>
			</g>
		</g>
	</g>
	<g>
		<g>
			<line fill="none" stroke="#8C8C8C" stroke-miterlimit="10" x1="324" y1="116" x2="324" y2="92.6"/>
			<g>
				<polygon fill="#8C8C8C" points="328.1,95.9 327.4,96.6 324,93 320.6,96.6 319.9,95.9 324,91.5 				"/>
			</g>
		</g>
	</g>
	<g>
		<g>
			<line fill="none" stroke="#8C8C8C" stroke-miterlimit="10" x1="349" y1="91.5" x2="349" y2="114.9"/>
			<g>
				<polygon fill="#8C8C8C" points="344.9,111.6 345.6,110.9 349,114.5 352.4,110.9 353.1,111.6 349,116 				"/>
			</g>
		</g>
	</g>
	<g>
		<g>
			<line fill="none" stroke="#8C8C8C" stroke-miterlimit="10" x1="457" y1="116" x2="457" y2="92.6"/>
			<g>
				<polygon fill="#8C8C8C" points="461.1,95.9 460.4,96.6 457,93 453.6,96.6 452.9,95.9 457,91.5 				"/>
			</g>
		</g>
	</g>
	<g>
		<g>
			<line fill="none" stroke="#8C8C8C" stroke-miterlimit="10" x1="480" y1="91.5" x2="480" y2="114.9"/>
			<g>
				<polygon fill="#8C8C8C" points="475.9,111.6 476.6,110.9 480,114.5 483.4,110.9 484.1,111.6 480,116 				"/>
			</g>
		</g>
	</g>
	<g>
		<g>
			<line fill="none" stroke="#8C8C8C" stroke-miterlimit="10" x1="588" y1="116" x2="588" y2="92.6"/>
			<g>
				<polygon fill="#8C8C8C" points="592.1,95.9 591.4,96.6 588,93 584.6,96.6 583.9,95.9 588,91.5 				"/>
			</g>
		</g>
	</g>
	<g>
		<g>
			<line fill="none" stroke="#8C8C8C" stroke-miterlimit="10" x1="612" y1="91.5" x2="612" y2="114.9"/>
			<g>
				<polygon fill="#8C8C8C" points="607.9,111.6 608.6,110.9 612,114.5 615.4,110.9 616.1,111.6 612,116 				"/>
			</g>
		</g>
	</g>
	<text transform="matrix(1 0 0 1 713.663 131.9998)" fill="#717171" font-family="'Helvetica'" font-size="12px">x4</text>
	<text transform="matrix(1 0 0 1 737.663 131.9998)" fill="#717171" font-family="'Helvetica'" font-size="12px">y4</text>
	<g>
		<g>
			<line fill="none" stroke="#8C8C8C" stroke-miterlimit="10" x1="720" y1="116" x2="720" y2="92.6"/>
			<g>
				<polygon fill="#8C8C8C" points="724.1,95.9 723.4,96.6 720,93 716.6,96.6 715.9,95.9 720,91.5 				"/>
			</g>
		</g>
	</g>
	<g>
		<g>
			<line fill="none" stroke="#8C8C8C" stroke-miterlimit="10" x1="744" y1="91.5" x2="744" y2="114.9"/>
			<g>
				<polygon fill="#8C8C8C" points="739.9,111.6 740.6,110.9 744,114.5 747.4,110.9 748.1,111.6 744,116 				"/>
			</g>
		</g>
	</g>
	<g>
		<g>
			<line fill="none" stroke="#8C8C8C" stroke-miterlimit="10" x1="360" y1="68.5" x2="442.9" y2="68.5"/>
			<g>
				<polygon fill="#8C8C8C" points="439.6,72.6 438.9,71.9 442.5,68.5 438.9,65.1 439.6,64.4 444,68.5 				"/>
			</g>
		</g>
	</g>
	<g>
		<g>
			<line fill="none" stroke="#8C8C8C" stroke-miterlimit="10" x1="492" y1="68.5" x2="574.9" y2="68.5"/>
			<g>
				<polygon fill="#8C8C8C" points="571.6,72.6 570.9,71.9 574.5,68.5 570.9,65.1 571.6,64.4 576,68.5 				"/>
			</g>
		</g>
	</g>
	<g>
		<g>
			<line fill="none" stroke="#8C8C8C" stroke-miterlimit="10" x1="624" y1="68.5" x2="706.9" y2="68.5"/>
			<g>
				<polygon fill="#8C8C8C" points="703.6,72.6 702.9,71.9 706.5,68.5 702.9,65.1 703.6,64.4 708,68.5 				"/>
			</g>
		</g>
	</g>
</g>
<g id="images">
</g>
</svg>
