<svg id="background" xmlns="http://www.w3.org/2000/svg" xmlns:xlink="http://www.w3.org/1999/xlink" width="984" height="246" viewBox="0 0 984 246">
  <defs>
    <symbol id="rnn-bg" data-name="rnn-bg" viewBox="0 0 48 48">
      <rect width="48" height="48" rx="6" ry="6" fill="#798294"/>
    </symbol>
    <symbol id="rnn-a" data-name="rnn-a" viewBox="0 0 48 48">
      <use id="rnn-bg-3" data-name="rnn-bg" width="48" height="48" xlink:href="#rnn-bg"/>
      <text transform="translate(17.33 31)" font-size="21.77" fill="#fff" font-family="Helvetica" letter-spacing="-1">A</text>
    </symbol>
  </defs>
  <title>rnn</title>
  <g id="_Group_" data-name="&lt;Group&gt;">
    <rect x="168" y="162" width="468" height="72" rx="10" ry="10" fill="#e6eaf2"/>
  </g>
  <g>
    <path d="M222,120h11c6.05,0,11-5.4,11-12V24a12,12,0,0,1,12-12h25.75" fill="none" stroke="#8c8c8c" stroke-miterlimit="10" stroke-width="2"/>
    <path d="M222,84h10c5.51,0,10-5.4,10-12V24a12,12,0,0,1,12-12h27.7" fill="none" stroke="#8c8c8c" stroke-miterlimit="10" stroke-width="2"/>
    <path d="M222,48h9c5,0,9-5.4,9-12V23a12,12,0,0,1,12-12h29.7" fill="none" stroke="#8c8c8c" stroke-miterlimit="10" stroke-width="2"/>
  </g>
  <g>
    <path d="M318,120H307c-6.05,0-11-5.4-11-12V24a12,12,0,0,0-12-12H258.25" fill="none" stroke="#8c8c8c" stroke-miterlimit="10" stroke-width="2"/>
    <path d="M318,84H308c-5.51,0-10-5.4-10-12V24a12,12,0,0,0-12-12h-27.7" fill="none" stroke="#8c8c8c" stroke-miterlimit="10" stroke-width="2"/>
    <path d="M318,48h-9c-5,0-9-5.4-9-12V24a12,12,0,0,0-12-12h-29.7" fill="none" stroke="#8c8c8c" stroke-miterlimit="10" stroke-width="2"/>
  </g>
  <g>
    <path d="M354,120h11c6.05,0,11-5.4,11-12V24a12,12,0,0,1,12-12h25.75" fill="none" stroke="#8c8c8c" stroke-miterlimit="10" stroke-width="2"/>
    <path d="M354,84h10c5.51,0,10-5.4,10-12V24a12,12,0,0,1,12-12h27.7" fill="none" stroke="#8c8c8c" stroke-miterlimit="10" stroke-width="2"/>
    <path d="M354,48h9c5,0,9-5.4,9-12V24a12,12,0,0,1,12-12h29.7" fill="none" stroke="#8c8c8c" stroke-miterlimit="10" stroke-width="2"/>
  </g>
  <g>
    <path d="M583,122H560a12,12,0,0,1-12-12V42a12,12,0,0,0-12-12H444" fill="none" stroke="#8c8c8c" stroke-miterlimit="10" stroke-width="2"/>
    <path d="M583,86H561.95a12,12,0,0,1-12-12V42a12,12,0,0,0-12-12H444" fill="none" stroke="#8c8c8c" stroke-miterlimit="10" stroke-width="2"/>
    <path d="M583,50H563.95c-6.6,0-12-4.5-12-10s-5.4-10-12-10H444" fill="none" stroke="#8c8c8c" stroke-miterlimit="10" stroke-width="2"/>
  </g>
  <g>
    <path d="M451.05,122h-23a12,12,0,0,1-12-12V42a12,12,0,0,0-12-12h-92" fill="none" stroke="#8c8c8c" stroke-miterlimit="10" stroke-width="2"/>
    <path d="M451.05,86H430a12,12,0,0,1-12-12V42a12,12,0,0,0-12-12H312.05" fill="none" stroke="#8c8c8c" stroke-miterlimit="10" stroke-width="2"/>
    <path d="M451.05,50H432c-6.6,0-12-4.5-12-10s-5.4-10-12-10H312.05" fill="none" stroke="#8c8c8c" stroke-miterlimit="10" stroke-width="2"/>
  </g>
  <g>
    <path d="M486,120h11c6.05,0,11-5.4,11-12V24a12,12,0,0,1,12-12h25.75" fill="none" stroke="#8c8c8c" stroke-miterlimit="10" stroke-width="2"/>
    <path d="M486,84h10c5.51,0,10-5.4,10-12V24a12,12,0,0,1,12-12h27.7" fill="none" stroke="#8c8c8c" stroke-miterlimit="10" stroke-width="2"/>
    <path d="M486,48h9c5,0,9-5.4,9-12V24a12,12,0,0,1,12-12h29.7" fill="none" stroke="#8c8c8c" stroke-miterlimit="10" stroke-width="2"/>
  </g>
  <g>
    <path d="M582,120H571c-6,0-11-5.4-11-12V24a12,12,0,0,0-12-12H522.25" fill="none" stroke="#8c8c8c" stroke-miterlimit="10" stroke-width="2"/>
    <path d="M582,84H572c-5.51,0-10-5.4-10-12V24a12,12,0,0,0-12-12h-27.7" fill="none" stroke="#8c8c8c" stroke-miterlimit="10" stroke-width="2"/>
    <path d="M582,48h-9c-5,0-9-5.4-9-12V24a12,12,0,0,0-12-12h-29.7" fill="none" stroke="#8c8c8c" stroke-miterlimit="10" stroke-width="2"/>
  </g>
  <path d="M450.25,120h-11c-6.05,0-11-5.4-11-12V24a12,12,0,0,0-12-12H390.5" fill="none" stroke="#8c8c8c" stroke-miterlimit="10" stroke-width="2"/>
  <path d="M450.25,84h-10c-5.51,0-10-5.4-10-12V24a12,12,0,0,0-12-12H390.5" fill="none" stroke="#8c8c8c" stroke-miterlimit="10" stroke-width="2"/>
  <path d="M450.25,48h-9c-5,0-9-5.4-9-12V24a12,12,0,0,0-12-12H390.5" fill="none" stroke="#8c8c8c" stroke-miterlimit="10" stroke-width="2"/>
  <path d="M450.25,30h-8.12C437.67,30,434,26,434,21s-5.4-9-12-9H396.5" fill="none" stroke="#8c8c8c" stroke-miterlimit="10" stroke-width="2"/>
  <path d="M318,30h-8.12c-4.47,0-8.12-4.28-8.12-9.5s-5.4-9.5-12-9.5H264.25" fill="none" stroke="#8c8c8c" stroke-miterlimit="10" stroke-width="2"/>
  <g>
    <path d="M618,120h11c6,0,11-5.4,11-12V24a12,12,0,0,1,12-12h25.75" fill="none" stroke="#8c8c8c" stroke-miterlimit="10" stroke-width="2"/>
    <path d="M618,84h10c5.51,0,10-5.4,10-12V24a12,12,0,0,1,12-12h27.7" fill="none" stroke="#8c8c8c" stroke-miterlimit="10" stroke-width="2"/>
    <path d="M618,48h9c5,0,9-5.4,9-12V24a12,12,0,0,1,12-12h29.7" fill="none" stroke="#8c8c8c" stroke-miterlimit="10" stroke-width="2"/>
  </g>
  <use width="48" height="48" transform="translate(180 174)" xlink:href="#rnn-a"/>
  <use width="48" height="48" transform="translate(312 174)" xlink:href="#rnn-a"/>
  <use width="48" height="48" transform="translate(444 174)" xlink:href="#rnn-a"/>
  <use id="rnn-a-9" data-name="rnn-a" width="48" height="48" transform="translate(576 174)" xlink:href="#rnn-a"/>
  <g>
    <ellipse cx="203.95" cy="120" rx="24" ry="12" fill="#7a8297"/>
    <text transform="translate(192.05 123.52)" font-size="12" fill="#fff" font-family="Myriad Pro">Op 1</text>
  </g>
  <g>
    <ellipse cx="203.95" cy="84" rx="24" ry="12" fill="#7a8297"/>
    <text transform="translate(192.05 87.52)" font-size="12" fill="#fff" font-family="Myriad Pro">Op 2</text>
  </g>
  <g>
    <ellipse cx="204" cy="48" rx="24" ry="12" fill="#7a8297"/>
    <text transform="translate(192.1 51.52)" font-size="12" fill="#fff" font-family="Myriad Pro">Op 3</text>
  </g>
  <g>
    <ellipse cx="336" cy="120" rx="24" ry="12" fill="#7a8297"/>
    <text transform="translate(324.1 123.52)" font-size="12" fill="#fff" font-family="Myriad Pro">Op 1</text>
  </g>
  <g>
    <ellipse cx="336" cy="84" rx="24" ry="12" fill="#7a8297"/>
    <text transform="translate(324.1 87.52)" font-size="12" fill="#fff" font-family="Myriad Pro">Op 2</text>
  </g>
  <g>
    <ellipse cx="336.05" cy="48" rx="24" ry="12" fill="#7a8297"/>
    <text transform="translate(324.15 51.52)" font-size="12" fill="#fff" font-family="Myriad Pro">Op 3</text>
  </g>
  <g>
    <ellipse cx="467.95" cy="120" rx="24" ry="12" fill="#7a8297"/>
    <text transform="translate(456.05 123.52)" font-size="12" fill="#fff" font-family="Myriad Pro">Op 1</text>
  </g>
  <g>
    <ellipse cx="467.95" cy="84" rx="24" ry="12" fill="#7a8297"/>
    <text transform="translate(456.05 87.52)" font-size="12" fill="#fff" font-family="Myriad Pro">Op 2</text>
  </g>
  <g>
    <ellipse cx="468" cy="48" rx="24" ry="12" fill="#7a8297"/>
    <text transform="translate(456.1 51.52)" font-size="12" fill="#fff" font-family="Myriad Pro">Op 3</text>
  </g>
  <g>
    <ellipse cx="599.95" cy="120" rx="24" ry="12" fill="#7a8297"/>
    <text transform="translate(588.05 123.52)" font-size="12" fill="#fff" font-family="Myriad Pro">Op 1</text>
  </g>
  <g>
    <ellipse cx="599.95" cy="84" rx="24" ry="12" fill="#7a8297"/>
    <text transform="translate(588.05 87.52)" font-size="12" fill="#fff" font-family="Myriad Pro">Op 2</text>
  </g>
  <g>
    <ellipse cx="600" cy="48" rx="24" ry="12" fill="#7a8297"/>
    <text transform="translate(588.1 51.52)" font-size="12" fill="#fff" font-family="Myriad Pro">Op 3</text>
  </g>
  <g>
    <line x1="228" y1="196.5" x2="304.76" y2="196.5" fill="none" stroke="#8c8c8c" stroke-miterlimit="10" stroke-width="2"/>
    <path d="M312,196.5a36.27,36.27,0,0,0-10.26,5.71l2.06-5.71-2.06-5.71A36.23,36.23,0,0,0,312,196.5Z" fill="#8c8c8c"/>
  </g>
  <g>
    <line x1="204" y1="172" x2="204" y2="143.24" fill="none" stroke="#8c8c8c" stroke-miterlimit="10" stroke-width="2"/>
    <path d="M204,136a36.27,36.27,0,0,0,5.71,10.26L204,144.19l-5.71,2.06A36.23,36.23,0,0,0,204,136Z" fill="#8c8c8c"/>
  </g>
  <g>
    <line x1="336" y1="172" x2="336" y2="143.24" fill="none" stroke="#8c8c8c" stroke-miterlimit="10" stroke-width="2"/>
    <path d="M336,136a36.27,36.27,0,0,0,5.71,10.26L336,144.19l-5.71,2.06A36.23,36.23,0,0,0,336,136Z" fill="#8c8c8c"/>
  </g>
  <g>
    <line x1="468" y1="172" x2="468" y2="143.24" fill="none" stroke="#8c8c8c" stroke-miterlimit="10" stroke-width="2"/>
    <path d="M468,136a36.27,36.27,0,0,0,5.71,10.26L468,144.19l-5.71,2.06A36.23,36.23,0,0,0,468,136Z" fill="#8c8c8c"/>
  </g>
  <g>
    <line x1="600" y1="172" x2="600" y2="143.24" fill="none" stroke="#8c8c8c" stroke-miterlimit="10" stroke-width="2"/>
    <path d="M600,136a36.27,36.27,0,0,0,5.71,10.26L600,144.19l-5.71,2.06A36.23,36.23,0,0,0,600,136Z" fill="#8c8c8c"/>
  </g>
  <g>
    <line x1="360" y1="196.5" x2="436.76" y2="196.5" fill="none" stroke="#8c8c8c" stroke-miterlimit="10" stroke-width="2"/>
    <path d="M444,196.5a36.27,36.27,0,0,0-10.26,5.71l2.06-5.71-2.06-5.71A36.23,36.23,0,0,0,444,196.5Z" fill="#8c8c8c"/>
  </g>
  <g>
    <line x1="492" y1="196.5" x2="568.76" y2="196.5" fill="none" stroke="#8c8c8c" stroke-miterlimit="10" stroke-width="2"/>
    <path d="M576,196.5a36.27,36.27,0,0,0-10.26,5.71l2.06-5.71-2.06-5.71A36.23,36.23,0,0,0,576,196.5Z" fill="#8c8c8c"/>
  </g>
</svg>
