<svg id="edges" xmlns="http://www.w3.org/2000/svg" xmlns:xlink="http://www.w3.org/1999/xlink" width="984" height="276" viewBox="0 0 984 276">
  <defs>
    <symbol id="array-7" data-name="array-7" viewBox="0 0 253.5 37.5">
      <rect x="0.75" y="0.75" width="252" height="36" rx="6" ry="6" fill="#fff" stroke="#8c8c8c" stroke-miterlimit="10" stroke-width="1.5"/>
      <line x1="36.25" y1="36.75" x2="36.25" y2="0.75" fill="none" stroke="#8c8c8c" stroke-miterlimit="10"/>
      <line x1="72.25" y1="36.75" x2="72.25" y2="0.75" fill="none" stroke="#8c8c8c" stroke-miterlimit="10"/>
      <line x1="108.25" y1="36.75" x2="108.25" y2="0.75" fill="none" stroke="#8c8c8c" stroke-miterlimit="10"/>
      <line x1="144.25" y1="36.75" x2="144.25" y2="0.75" fill="none" stroke="#8c8c8c" stroke-miterlimit="10"/>
      <line x1="180.25" y1="36.75" x2="180.25" y2="0.75" fill="none" stroke="#8c8c8c" stroke-miterlimit="10"/>
      <line x1="216.25" y1="36.75" x2="216.25" y2="0.75" fill="none" stroke="#8c8c8c" stroke-miterlimit="10"/>
    </symbol>
    <symbol id="array-1" data-name="array-1" viewBox="0 0 37.5 37.5">
      <rect x="0.75" y="0.75" width="36" height="36" rx="6" ry="6" fill="#fff" stroke="#8c8c8c" stroke-miterlimit="10" stroke-width="1.5"/>
    </symbol>
    <symbol id="array-vector" data-name="array-vector" viewBox="0 0 36 36">
      <rect width="36" height="36" fill="#d8c2f2" opacity="0"/>
      <g opacity="0.5">
        <g>
          <line x1="18" y1="24" x2="18" y2="13.08" fill="none" stroke="#000" stroke-miterlimit="10"/>
          <polygon points="22.09 16.4 21.36 17.08 18 13.47 14.64 17.08 13.91 16.4 18 12 22.09 16.4"/>
        </g>
      </g>
    </symbol>
    <symbol id="array-positive-value" data-name="array-positive-value" viewBox="0 0 36 36">
      <rect width="36" height="36" fill="#0080f7" opacity="0"/>
      <rect x="4.42" y="4.42" width="27.17" height="27.17" rx="6" ry="6" fill="#3a5edd" opacity="0.8"/>
    </symbol>
    <symbol id="pointer" data-name="pointer" viewBox="0 0 13.62 17.63">
      <g id="LwC7Nw" opacity="0.3">
        <g>
          <path d="M2.41,8c0-.12,0-0.25,0-0.37s0-.27,0-0.41H0V9.59H0.8V8H2L2.41,8V8.81H3.21V9.59H4V9.51Q4,6.36,4,3.2,4,2,4,.78H5.6V0H4V0.78H3.2V8H2.41ZM8,4.78a0.59,0.59,0,0,1,0-.1c0-.2,0-0.39,0-0.59C8,4.06,8,4,8,4H6.41V0.81H5.61V8h0.8V4.8H8S8,4.86,8,4.9q0,1.48,0,3S8,7.94,8,8h0.8V5.6h1.61v3.2h0.79V6.38l0.75,0s0,0,0,.07c0,0.19,0,.38,0,0.57s0,0.09,0,.14h0.72a0.07,0.07,0,0,1,.08.08c0,0.31,0,.63,0,0.94q0,2.24,0,4.48s0,0.07,0,.11H12s0,0,0,.06q0,1.13,0,2.26s0,0.06,0,.08H11.21v1.58H4.81v-1.6H4V13.61H3.22a15,15,0,0,0,0,1.6H4v2.4c2.69,0,5.35,0,8,0,0-.13,0-0.25,0-0.36,0-.61,0-1.22,0-1.83a2,2,0,0,0,0-.21h0.71c0.07,0,.09,0,0.09-0.09,0-.59,0-1.17,0-1.76,0-.17,0-0.34,0-0.53l0.39,0h0.4V7.19h-0.8V6.41H12V5.59H10.42V4.8H8.36ZM2.4,12v1.6H3.09a0.09,0.09,0,0,0,.11-0.1c0-.43,0-0.85,0-1.28,0-.07,0-0.15,0-0.23H2.41v-1.6H1.6V9.6H0.83a3.55,3.55,0,0,0,0,.81H1.56s0,0.06,0,.09c0,0.18,0,.36,0,0.54s0,0.59,0,.89a0.06,0.06,0,0,0,.07.07H2.4Z" fill="#fff"/>
          <path d="M12,15.21s0-.06,0-0.08q0-1.13,0-2.26s0,0,0-.06h0.79s0-.07,0-0.11q0-2.24,0-4.48c0-.31,0-0.63,0-0.94a0.07,0.07,0,0,0-.08-0.08H12c0-.05,0-0.1,0-0.14s0-.38,0-0.57c0,0,0-.07,0-0.07l-0.75,0V8.79H10.42V5.6H8.81V8H8S8,7.9,8,7.85q0-1.48,0-3s0-.08,0-0.12H8l0.33,0h2.06V5.59H12V6.41h0.8V7.19h0.8v5.61h-0.4l-0.39,0c0,0.19,0,.36,0,0.53,0,0.59,0,1.17,0,1.76,0,0.07,0,.09-0.09.09H12Z"/>
          <path d="M12,15.2a2,2,0,0,1,0,.21c0,0.61,0,1.22,0,1.83,0,0.11,0,.23,0,0.36-2.67,0-5.33,0-8,0V15.2H3.21a15,15,0,0,1,0-1.6H4v1.59h0.8v1.6h6.4V15.21H12Z"/>
          <path d="M4,0.78Q4,2,4,3.2q0,3.15,0,6.3V9.59H3.21V8.81H2.41V8H3.2V0.8H4Z"/>
          <path d="M8,4.78H6.41V8H5.61V0.81h0.8V4H8s0,0.07,0,.1c0,0.2,0,.39,0,0.59a0.58,0.58,0,0,0,0,.1H8Z"/>
          <path d="M2.4,12H1.67a0.06,0.06,0,0,1-.07-0.07c0-.3,0-0.59,0-0.89s0-.36,0-0.54c0,0,0-.05,0-0.09H0.8a3.55,3.55,0,0,1,0-.81H1.6v0.8H2.41V12H3.2c0,0.08,0,.16,0,0.23,0,0.43,0,.85,0,1.28a0.09,0.09,0,0,1-.11.1H2.4V12Z"/>
          <path d="M2.41,8L2,8H0.8V9.59H0V7.2H2.41c0,0.14,0,.28,0,0.41s0,0.25,0,.37h0Z"/>
          <path d="M4,0.78V0H5.6V0.78H4Z"/>
        </g>
      </g>
    </symbol>
  </defs>
  <title>rnn</title>
  <g id="paths">
    <path id="edge0" d="M186,84v66.12c0.56,24,102,24.22,102,76.88" fill="none" stroke="#2a71d8" stroke-miterlimit="10" stroke-width="1.5"/>
    <path id="edge1" d="M222,84v66.12c0.56,24,68,24.22,68,76.88" fill="none" stroke="#2a71d8" stroke-miterlimit="10" stroke-width="1.5"/>
    <path id="edge2" d="M258.07,84v66.12c0.56,24,33.93,24.22,33.93,76.88" fill="none" stroke="#2a71d8" stroke-miterlimit="10" stroke-width="1.5"/>
    <path id="edge3" d="M294,84V228" fill="none" stroke="#2a71d8" stroke-miterlimit="10" stroke-width="1.5"/>
    <path id="edge4" d="M330,84v66.12c-0.56,24-34,24.22-34,76.88" fill="none" stroke="#2a71d8" stroke-miterlimit="10" stroke-width="1.5"/>
    <path id="edge5" d="M366,84v66.12c-0.56,24-68,24.22-68,76.88" fill="none" stroke="#2a71d8" stroke-miterlimit="10" stroke-width="1.5"/>
    <path id="edge6" d="M402,84v66.12c-0.56,24-102,24.22-102,76.88" fill="none" stroke="#2a71d8" stroke-miterlimit="10" stroke-width="1.5"/>
  </g>
  <use id="array-7-3" data-name="array-7" width="253.5" height="37.5" transform="translate(167.75 47.75)" xlink:href="#array-7"/>
  <use id="array-7-6" data-name="array-7" width="253.5" height="37.5" transform="translate(167.75 106.75)" xlink:href="#array-7"/>
  <use id="array-1-3" data-name="array-1" width="37.5" height="37.5" transform="translate(275.75 226.75)" xlink:href="#array-1"/>
  <g opacity="0.6">
    <text transform="translate(432 72)" font-size="13" font-family="Open Sans">attention</text>
  </g>
  <text transform="translate(190.42 31.28)" font-size="12" fill="#aaa" font-family="Open Sans" font-style="italic">Hover to change values</text>
  <g opacity="0.6">
    <text transform="translate(432 132)" font-size="13" font-family="Open Sans">memory</text>
  </g>
  <g opacity="0.6">
    <text transform="translate(324 252)" font-size="13" font-family="Open Sans">read result</text>
  </g>
  <use id="read-result" width="36" height="36" transform="translate(277 228)" xlink:href="#array-vector"/>
  <g id="attention">
    <use id="array-positive-value-3" data-name="array-positive-value" width="36" height="36" transform="translate(168 48)" xlink:href="#array-positive-value"/>
    <use width="36" height="36" transform="translate(204 48)" xlink:href="#array-positive-value"/>
    <use width="36" height="36" transform="translate(240 48)" xlink:href="#array-positive-value"/>
    <use width="36" height="36" transform="translate(276 48)" xlink:href="#array-positive-value"/>
    <use width="36" height="36" transform="translate(312 48)" xlink:href="#array-positive-value"/>
    <use width="36" height="36" transform="translate(348 48)" xlink:href="#array-positive-value"/>
    <use width="36" height="36" transform="translate(384 48)" xlink:href="#array-positive-value"/>
  </g>
  <g id="memory">
    <use width="36" height="36" transform="translate(168 108)" xlink:href="#array-vector"/>
    <use width="36" height="36" transform="translate(204 108)" xlink:href="#array-vector"/>
    <use width="36" height="36" transform="translate(240 108)" xlink:href="#array-vector"/>
    <use width="36" height="36" transform="translate(276 108)" xlink:href="#array-vector"/>
    <use width="36" height="36" transform="translate(312 108)" xlink:href="#array-vector"/>
    <use width="36" height="36" transform="translate(348 108)" xlink:href="#array-vector"/>
    <use id="array-vector-17" data-name="array-vector" width="36" height="36" transform="translate(384 108)" xlink:href="#array-vector"/>
  </g>
  <use width="13.62" height="17.63" transform="translate(166.98 17.8)" xlink:href="#pointer"/>
  <g opacity="0.6">
    <text transform="translate(560 81.88)" font-size="13" font-family="Open Sans">Instead of reading from one location, we <tspan x="0" y="20">read from everywhere, just to different </tspan><tspan x="0" y="40">extents. The result is a weighted </tspan><tspan x="0" y="60">combination of memory.</tspan></text>
  </g>
  <path d="M639.88,190a1.5,1.5,0,0,0,0-.17l0.11-.48a4.07,4.07,0,0,1,.22-0.67q0.13-.3.33-0.71a2.31,2.31,0,0,1,.43-0.65,4.86,4.86,0,0,1,.56-0.48,1,1,0,0,1,.72-0.2,2.27,2.27,0,0,1,1.11.26,2.61,2.61,0,0,1,.67.48,0.93,0.93,0,0,1,.24.43,0.23,0.23,0,0,0,.07.13,0.76,0.76,0,0,0,.17-0.15,3.19,3.19,0,0,1,2.41-1.13H647a1.69,1.69,0,0,1,1.56.89,2.06,2.06,0,0,1,.17.8,1.74,1.74,0,0,1-.28,1,1.35,1.35,0,0,1-.56.5,1.22,1.22,0,0,1-.54.09,1,1,0,0,1-.69-0.24,0.81,0.81,0,0,1-.26-0.63,1.41,1.41,0,0,1,1.21-1.39,1.66,1.66,0,0,0-.78-0.28,2.8,2.8,0,0,0-2.23,1.6,2.88,2.88,0,0,0-.33.72q-0.11.37-.74,2.88-0.74,3-.85,3.23a1,1,0,0,1-.93.59,0.74,0.74,0,0,1-.46-0.13,0.78,0.78,0,0,1-.24-0.26,0.32,0.32,0,0,1,0-.22q0-.28.87-3.73a37.67,37.67,0,0,0,.87-3.84q0-.85-0.56-0.85a0.93,0.93,0,0,0-.78.61,6.3,6.3,0,0,0-.52,1.32,6.18,6.18,0,0,1-.24.78,0.72,0.72,0,0,1-.35,0H640A0.36,0.36,0,0,1,639.88,190Z" fill="#666"/>
  <path d="M675.65,190.53v0.24a0.54,0.54,0,0,1-.33.43H658.77l0.37,0.3a5.92,5.92,0,0,1,.63.59q0.3,0.33.71,0.8a4.41,4.41,0,0,1,.72,1.21q0.3,0.74.56,1.54a2.44,2.44,0,0,1,.11.54q0,0.24-.43.24h-0.22a0.17,0.17,0,0,1-.13-0.09,0.85,0.85,0,0,1-.11-0.19,2.1,2.1,0,0,1-.09-0.41,6.62,6.62,0,0,0-1.47-2.82,6.68,6.68,0,0,0-2.64-1.84,0.85,0.85,0,0,1-.39-0.24,0.25,0.25,0,0,1,.09-0.22,1.44,1.44,0,0,1,.3-0.15,6.66,6.66,0,0,0,1.84-1.08,6.43,6.43,0,0,0,1.24-1.32,7.45,7.45,0,0,0,.69-1.28,10.62,10.62,0,0,0,.37-1l0.06-.37,0.07-.17a0.23,0.23,0,0,1,.11-0.09,0.67,0.67,0,0,1,.28,0q0.43,0,.43.24a2.44,2.44,0,0,1-.11.54,9.12,9.12,0,0,1-.54,1.5,6.26,6.26,0,0,1-.69,1.17q-0.37.48-.67,0.8a6.46,6.46,0,0,1-.65.61l-0.43.37h16.55a0.54,0.54,0,0,1,.33.43v-0.24Z" fill="#666"/>
  <path d="M684.19,175.65s4.41,0,13.11,0h13l1.26,2.93q1.28,3,1.37,3.16H712.1l-0.15-.3a7.32,7.32,0,0,0-1.21-1.69,9.09,9.09,0,0,0-2.41-1.67,11.86,11.86,0,0,0-3.06-.93,25.21,25.21,0,0,0-3.27-.37q-1.54-.06-4-0.09h-9.71l0.17,0.24q10,13.72,10.08,13.85a0.19,0.19,0,0,1,0,.13l-5.72,6.54-5.72,6.5s1.52,0,4.57,0h3.06q1.93,0,2.77,0,2.95,0,4.77-.11a27.83,27.83,0,0,0,3.62-.46,10,10,0,0,0,3.06-1.06,8.13,8.13,0,0,0,2.23-1.89,6.87,6.87,0,0,0,.89-1.56H713s-0.05.17-.15,0.46-0.28.76-.54,1.41-0.48,1.26-.67,1.82l-1.26,3.36-13,0q-13,0-13.11,0a0.18,0.18,0,0,1-.13-0.2,0.33,0.33,0,0,1,0-.13l11.55-13.22s-0.24-.34-0.71-1-1.24-1.68-2.28-3.12-2-2.73-2.82-3.86l-5.76-7.91,0-.33A0.7,0.7,0,0,1,684.19,175.65Z" fill="#666"/>
  <path d="M696.21,215.3a1.68,1.68,0,0,1,.14-0.47,7.35,7.35,0,0,1,.37-0.78,2.53,2.53,0,0,1,.67-0.78,1.39,1.39,0,0,1,.92-0.34,1.45,1.45,0,0,1,1,.35,1.25,1.25,0,0,1,.41.95,3,3,0,0,1-.21.86q-0.21.6-.61,1.61t-0.64,1.73a2.51,2.51,0,0,0-.08.49q0,0.38.26,0.38a1,1,0,0,0,.29,0,1,1,0,0,0,.35-0.21,2.08,2.08,0,0,0,.41-0.54,4.45,4.45,0,0,0,.38-0.9,0.63,0.63,0,0,1,.08-0.21,0.56,0.56,0,0,1,.26,0q0.31,0,.31.15a1.68,1.68,0,0,1-.14.47,6,6,0,0,1-.38.78,2.56,2.56,0,0,1-.69.77,1.54,1.54,0,0,1-.95.34,1.44,1.44,0,0,1-.9-0.32,1.2,1.2,0,0,1-.43-1,1.54,1.54,0,0,1,.08-0.49q0.08-.23.66-1.75t0.67-1.85a2.54,2.54,0,0,0,.11-0.6q0-.37-0.26-0.37h0a1.07,1.07,0,0,0-.84.51,3.57,3.57,0,0,0-.58,1.29l0,0a0.12,0.12,0,0,0,0,0,0,0,0,0,1,0,0l0,0h-0.4A0.26,0.26,0,0,1,696.21,215.3Zm2.5-4.8a0.86,0.86,0,0,1,.29-0.64,1,1,0,0,1,.67-0.29,0.62,0.62,0,0,1,.46.18,0.68,0.68,0,0,1,.2.46,0.87,0.87,0,0,1-.31.64,1,1,0,0,1-.67.31,0.69,0.69,0,0,1-.43-0.15A0.64,0.64,0,0,1,698.71,210.5Z" fill="#666"/>
  <path d="M725.4,189.08a2,2,0,0,0-.11-0.48,2.06,2.06,0,0,0-.5-0.76,1.39,1.39,0,0,0-1-.43,2.08,2.08,0,0,0-1.45.67,4.53,4.53,0,0,0-1.08,1.76,17.3,17.3,0,0,0-.89,3.55v0.24a1.16,1.16,0,0,1,0,.26,1.82,1.82,0,0,0,.39,1.34,1.4,1.4,0,0,0,.93.39,2.45,2.45,0,0,0,1.63-.72,3.64,3.64,0,0,0,1-1.11q0-.09.59-2.32T725.4,189.08Zm-6.89,3.71a6.4,6.4,0,0,1,1.65-4.16,4.85,4.85,0,0,1,3.71-2,2.46,2.46,0,0,1,2,1.06,1.08,1.08,0,0,1,1-.65,0.78,0.78,0,0,1,.5.17,0.53,0.53,0,0,1,.22.43q0,0.28-.8,3.47t-0.82,3.6a1.16,1.16,0,0,0,.15.71,0.64,0.64,0,0,0,.45.2,0.94,0.94,0,0,0,.43-0.2,4.91,4.91,0,0,0,.89-2.08,0.81,0.81,0,0,1,.22-0.45,0.63,0.63,0,0,1,.22,0h0.09q0.41,0,.41.19a3.44,3.44,0,0,1-.11.59,6.8,6.8,0,0,1-.43,1.17,3.69,3.69,0,0,1-.69,1.08,2.14,2.14,0,0,1-.69.45,2.31,2.31,0,0,1-.52,0,2.21,2.21,0,0,1-1.24-.32,1.66,1.66,0,0,1-.65-0.67l-0.13-.33s0,0-.09,0l-0.09.09a3.8,3.8,0,0,1-2.6,1.21,3,3,0,0,1-2.1-.87A3.65,3.65,0,0,1,718.51,192.78Z" fill="#666"/>
  <path d="M729.58,195a1.68,1.68,0,0,1,.14-0.47,7.35,7.35,0,0,1,.37-0.78,2.53,2.53,0,0,1,.67-0.78,1.39,1.39,0,0,1,.92-0.34,1.45,1.45,0,0,1,1,.35,1.25,1.25,0,0,1,.41.95,3,3,0,0,1-.21.86q-0.21.6-.61,1.61t-0.64,1.73a2.51,2.51,0,0,0-.08.49q0,0.38.26,0.38a1,1,0,0,0,.29,0,1,1,0,0,0,.35-0.21,2.08,2.08,0,0,0,.41-0.54,4.45,4.45,0,0,0,.38-0.9,0.63,0.63,0,0,1,.08-0.21,0.56,0.56,0,0,1,.26,0q0.31,0,.31.15a1.68,1.68,0,0,1-.14.47,6,6,0,0,1-.38.78,2.56,2.56,0,0,1-.69.77,1.54,1.54,0,0,1-.95.34,1.44,1.44,0,0,1-.9-0.32,1.2,1.2,0,0,1-.43-1,1.54,1.54,0,0,1,.08-0.49q0.08-.23.66-1.75t0.67-1.85a2.54,2.54,0,0,0,.11-0.6q0-.37-0.26-0.37h0a1.07,1.07,0,0,0-.84.51,3.57,3.57,0,0,0-.58,1.29l0,0a0.12,0.12,0,0,0,0,0,0,0,0,0,1,0,0l0,0h-0.4A0.26,0.26,0,0,1,729.58,195Zm2.5-4.8a0.86,0.86,0,0,1,.29-0.64,1,1,0,0,1,.67-0.29,0.62,0.62,0,0,1,.46.18,0.68,0.68,0,0,1,.2.46,0.87,0.87,0,0,1-.31.64,1,1,0,0,1-.67.31,0.69,0.69,0,0,1-.43-0.15A0.64,0.64,0,0,1,732.07,190.24Z" fill="#666"/>
  <path d="M743,182.56a2.36,2.36,0,0,0-1.24-.17,6.23,6.23,0,0,1-.67,0,0.18,0.18,0,0,1-.15-0.22s0-.09,0-0.24l0-.15a0.65,0.65,0,0,0,0-.11,0.38,0.38,0,0,1,0-.11q0-.09,0-0.06s0,0,.09,0a0.11,0.11,0,0,1,.11,0,0.3,0.3,0,0,0,.17,0l0.26,0h0.65l1,0h2a0.43,0.43,0,0,1,.35.11q0,0.09.8,6.11l0.78,6,0.5-.8q0.52-.78,1.39-2.17l1.91-3q3.79-6,3.84-6.09l0.07-.07,0.09-.06,0.13,0h2.95a5.27,5.27,0,0,0,.63,0q0.74,0,.74.24a1.78,1.78,0,0,1-.07.37q-0.07.26-.07,0.28a1.28,1.28,0,0,1-.8.13,9.64,9.64,0,0,0-1.11.07,0.62,0.62,0,0,0-.39.24q-0.06.11-1.56,6.13T754,194.91a0.17,0.17,0,0,0,0,.11l0.15,0.09a0.7,0.7,0,0,0,.37,0,3.47,3.47,0,0,1,.71,0h0.67a0.78,0.78,0,0,1,.13.24,1.43,1.43,0,0,1-.15.65,0.48,0.48,0,0,1-.35.11l-0.89,0-2,0h-2a6.4,6.4,0,0,0-.76,0q-0.37,0-.37-0.22s0-.13,0-0.3a0.68,0.68,0,0,1,.17-0.39,1.8,1.8,0,0,1,.5-0.07q0.59,0,1.3-.07a0.58,0.58,0,0,0,.41-0.26q0-.09.82-3.16t1.54-6.13l0.76-3.06-4.2,6.7q-4.25,6.76-4.35,6.87l-0.09,0a0.7,0.7,0,0,1-.35.07,0.39,0.39,0,0,1-.39-0.15q0-.09-0.89-6.72L744,182.67l-1.47,5.85q-1.45,5.76-1.45,6,0.13,0.72,1.56.72h0.22a0.42,0.42,0,0,1,.15.2,1,1,0,0,1-.07.39,0.68,0.68,0,0,1-.17.39l-0.24,0h-0.26l-0.74,0-1.39,0-1.34,0-0.8,0a1.17,1.17,0,0,1-.41,0,0.2,0.2,0,0,1-.09-0.2,2.3,2.3,0,0,1,.07-0.3,1.32,1.32,0,0,1,.11-0.33,0.51,0.51,0,0,1,.48-0.13,1.92,1.92,0,0,0,1.93-.87q0.09-.13,1.49-5.81T743,182.56Z" fill="#666"/>
  <path d="M758,195a1.68,1.68,0,0,1,.14-0.47,7.37,7.37,0,0,1,.37-0.78,2.53,2.53,0,0,1,.67-0.78,1.39,1.39,0,0,1,.92-0.34,1.45,1.45,0,0,1,1,.35,1.25,1.25,0,0,1,.41.95,3,3,0,0,1-.21.86q-0.21.6-.61,1.61t-0.64,1.73a2.51,2.51,0,0,0-.08.49q0,0.38.26,0.38a1,1,0,0,0,.29,0,1,1,0,0,0,.35-0.21,2.08,2.08,0,0,0,.41-0.54,4.45,4.45,0,0,0,.38-0.9,0.63,0.63,0,0,1,.08-0.21,0.56,0.56,0,0,1,.26,0q0.31,0,.31.15a1.68,1.68,0,0,1-.14.47,6,6,0,0,1-.38.78,2.56,2.56,0,0,1-.69.77,1.54,1.54,0,0,1-.95.34,1.44,1.44,0,0,1-.9-0.32,1.2,1.2,0,0,1-.43-1,1.54,1.54,0,0,1,.08-0.49q0.08-.23.66-1.75t0.67-1.85a2.54,2.54,0,0,0,.11-0.6q0-.37-0.26-0.37h0a1.07,1.07,0,0,0-.84.51,3.57,3.57,0,0,0-.58,1.29l0,0a0.12,0.12,0,0,0,0,0,0,0,0,0,1,0,0l0,0h-0.4A0.26,0.26,0,0,1,758,195Zm2.5-4.8a0.86,0.86,0,0,1,.29-0.64,1,1,0,0,1,.67-0.29,0.62,0.62,0,0,1,.46.18,0.68,0.68,0,0,1,.2.46,0.87,0.87,0,0,1-.31.64,1,1,0,0,1-.67.31,0.69,0.69,0,0,1-.43-0.15A0.64,0.64,0,0,1,760.54,190.24Z" fill="#666"/>
</svg>
