<svg id="background" xmlns="http://www.w3.org/2000/svg" xmlns:xlink="http://www.w3.org/1999/xlink" width="984" height="192" viewBox="0 0 984 192">
  <defs>
    <symbol id="op-bg" data-name="op-bg" viewBox="0 0 22.5 22.5">
      <circle cx="11.25" cy="11.25" r="11.25" fill="#798294"/>
    </symbol>
    <symbol id="op-sum_2" data-name="op-sum 2" viewBox="0 0 22.5 22.5">
      <use width="22.5" height="22.5" xlink:href="#op-bg"/>
      <path d="M9.13,8.33a1.77,1.77,0,0,1,.69-1.47,3,3,0,0,1,1.89-.54,4.84,4.84,0,0,1,1.87.38v1.1a5.22,5.22,0,0,0-1.88-.4,1.57,1.57,0,0,0-.93.25,0.78,0.78,0,0,0-.35.67q0,0.74,1.51,1.26A4.6,4.6,0,0,1,14.14,11a3.75,3.75,0,0,1,.74,2.26v0.27a4.23,4.23,0,0,1-.4,1.87,3,3,0,0,1-1.15,1.28,3.29,3.29,0,0,1-1.74.45,3.08,3.08,0,0,1-2.42-1,3.86,3.86,0,0,1-.9-2.66V13.38a3.42,3.42,0,0,1,.64-2,2.76,2.76,0,0,1,1.63-1.14v0a2.36,2.36,0,0,1-1-.75A1.76,1.76,0,0,1,9.13,8.33Zm0.42,5.2a3,3,0,0,0,.55,1.89,1.8,1.8,0,0,0,1.49.69,1.79,1.79,0,0,0,1.48-.69,3.23,3.23,0,0,0,.55-2A2.67,2.67,0,0,0,13,11.71a2.35,2.35,0,0,0-1.43-.92,1.81,1.81,0,0,0-1.49.7A3.19,3.19,0,0,0,9.55,13.53Z" fill="#fff"/>
    </symbol>
    <symbol id="rnn-bg" data-name="rnn-bg" viewBox="0 0 48 48">
      <rect width="48" height="48" rx="6" ry="6" fill="#798294"/>
    </symbol>
    <symbol id="rnn-s" data-name="rnn-s" viewBox="0 0 48 48">
      <use id="rnn-bg-3" data-name="rnn-bg" width="48" height="48" xlink:href="#rnn-bg"/>
      <text transform="translate(16.74 31)" font-size="21.77" fill="#fff" font-family="Helvetica">S</text>
    </symbol>
    <symbol id="op-sum" data-name="op-sum" viewBox="0 0 22.5 22.5">
      <use id="op-bg-9" data-name="op-bg" width="22.5" height="22.5" xlink:href="#op-bg"/>
      <path d="M7.13,11.75V10.43h3.41V7h1.34v3.43h3.41v1.31H11.87v3.42H10.54V11.75H7.13Z" fill="#fff"/>
    </symbol>
  </defs>
  <title>rnn</title>
  <g id="_Group_" data-name="&lt;Group&gt;">
    <rect x="168.67" y="24" width="275.67" height="156" rx="10" ry="10" fill="#f0f4f5"/>
  </g>
  <g id="_Group_2" data-name="&lt;Group&gt;">
    <rect x="456" y="24" width="348" height="156" rx="10" ry="10" fill="#f0f4f5"/>
  </g>
  <rect x="816" y="24" width="132" height="156" rx="10" ry="10" fill="#f0f4f5"/>
  <path d="M396,48H317.5a6,6,0,0,0-6,6V90.5a5.9,5.9,0,0,1-5.75,6H300" fill="none" stroke="#8c8c8c" stroke-miterlimit="10" stroke-width="2"/>
  <g opacity="0.4">
    <path d="M408,51H389.5a6,6,0,0,0-6,6V90.5a5.9,5.9,0,0,1-5.75,6H372" fill="none" stroke="#8c8c8c" stroke-miterlimit="10" stroke-width="2"/>
  </g>
  <g opacity="0.2">
    <path d="M516,96.5h5.75a5.9,5.9,0,0,0,5.75-6v-40a6,6,0,0,1,6-6H767" fill="none" stroke="#8c8c8c" stroke-miterlimit="10" stroke-width="2"/>
  </g>
  <g opacity="0.5">
    <path d="M588,96.5h5.75a5.9,5.9,0,0,0,5.75-6v-37a6,6,0,0,1,6-6H767" fill="none" stroke="#8c8c8c" stroke-miterlimit="10" stroke-width="2"/>
  </g>
  <path d="M767,50.5H677.5a6,6,0,0,0-6,6v34a5.9,5.9,0,0,1-5.75,6H660" fill="none" stroke="#8c8c8c" stroke-miterlimit="10" stroke-width="2"/>
  <g opacity="0.2">
    <path d="M767,53.5H749.5a6,6,0,0,0-6,6v31a5.9,5.9,0,0,1-5.75,6H732" fill="none" stroke="#8c8c8c" stroke-miterlimit="10" stroke-width="2"/>
  </g>
  <g opacity="0.4">
    <path d="M228,96.5l6-.25A6.33,6.33,0,0,0,240,90V51.5a6,6,0,0,1,6-6L396,45" fill="none" stroke="#8c8c8c" stroke-miterlimit="10" stroke-width="2"/>
  </g>
  <path d="M900,48.5h-6.5a6,6,0,0,0-6,6v36a5.9,5.9,0,0,1-5.75,6H876" fill="none" stroke="#8c8c8c" stroke-miterlimit="10" stroke-width="2"/>
  <g>
    <g>
      <line x1="204" y1="192" x2="204" y2="124.98" fill="none" stroke="#8c8c8c" stroke-miterlimit="10" stroke-width="2"/>
      <path d="M204,125.55c-1.46,1.46-4.36,2.16-6.36,2.22A19.08,19.08,0,0,0,204,120c1.26,3.15,3.75,5.65,6.36,7.77C208.21,127.59,205.61,127.07,204,125.55Z" fill="#8c8c8c"/>
    </g>
    <g>
      <path d="M204,192V174a6,6,0,0,1,6-6h59.5a6,6,0,0,0,6-6V125" fill="none" stroke="#8c8c8c" stroke-miterlimit="10" stroke-width="2"/>
      <path d="M275.5,125.55c-1.46,1.46-4.36,2.16-6.36,2.22A19.08,19.08,0,0,0,275.5,120c1.26,3.15,3.75,5.65,6.36,7.77C279.71,127.59,277.11,127.07,275.5,125.55Z" fill="#8c8c8c"/>
    </g>
    <g>
      <line x1="492" y1="192" x2="492" y2="124.98" fill="none" stroke="#8c8c8c" stroke-miterlimit="10" stroke-width="2"/>
      <path d="M492,125.55c-1.46,1.46-4.36,2.16-6.36,2.22A19.08,19.08,0,0,0,492,120c1.26,3.15,3.75,5.65,6.36,7.77C496.21,127.59,493.61,127.07,492,125.55Z" fill="#8c8c8c"/>
    </g>
    <g>
      <line x1="852" y1="192" x2="852" y2="124.98" fill="none" stroke="#8c8c8c" stroke-miterlimit="10" stroke-width="2"/>
      <path d="M852,125.55c-1.46,1.46-4.36,2.16-6.36,2.22A19.08,19.08,0,0,0,852,120c1.26,3.15,3.75,5.65,6.36,7.77C856.21,127.59,853.61,127.07,852,125.55Z" fill="#8c8c8c"/>
    </g>
    <g>
      <path d="M516,168H630.5a6,6,0,0,0,6-6V125" fill="none" stroke="#8c8c8c" stroke-miterlimit="10" stroke-width="2"/>
      <path d="M636.5,125.55c-1.46,1.46-4.36,2.16-6.36,2.22A19.08,19.08,0,0,0,636.5,120c1.26,3.15,3.75,5.65,6.36,7.77C640.71,127.59,638.11,127.07,636.5,125.55Z" fill="#8c8c8c"/>
    </g>
    <g>
      <path d="M227.5,168H342a6,6,0,0,0,6-6V125" fill="none" stroke="#8c8c8c" stroke-miterlimit="10" stroke-width="2"/>
      <path d="M348,125.55c-1.46,1.46-4.36,2.16-6.36,2.22A19.08,19.08,0,0,0,348,120c1.26,3.15,3.75,5.65,6.36,7.77C352.21,127.59,349.61,127.07,348,125.55Z" fill="#8c8c8c"/>
    </g>
    <g>
      <path d="M492,192V174a6,6,0,0,1,6-6H702.5a6,6,0,0,0,6-6V125" fill="none" stroke="#8c8c8c" stroke-miterlimit="10" stroke-width="2"/>
      <path d="M708.5,125.55c-1.46,1.46-4.36,2.16-6.36,2.22A19.08,19.08,0,0,0,708.5,120c1.26,3.15,3.75,5.65,6.36,7.77C712.71,127.59,710.11,127.07,708.5,125.55Z" fill="#8c8c8c"/>
    </g>
    <g>
      <line x1="228" y1="96.5" x2="247.02" y2="96.5" fill="none" stroke="#8c8c8c" stroke-miterlimit="10" stroke-width="2"/>
      <path d="M246.45,96.5c-1.46-1.46-2.16-4.36-2.22-6.36A19.08,19.08,0,0,0,252,96.5c-3.15,1.26-5.65,3.75-7.77,6.36C244.41,100.71,244.93,98.11,246.45,96.5Z" fill="#8c8c8c"/>
    </g>
    <g>
      <line x1="300" y1="96.5" x2="319.02" y2="96.5" fill="none" stroke="#8c8c8c" stroke-miterlimit="10" stroke-width="2"/>
      <path d="M318.45,96.5c-1.46-1.46-2.16-4.36-2.22-6.36A19.08,19.08,0,0,0,324,96.5c-3.15,1.26-5.65,3.75-7.77,6.36C316.41,100.71,316.93,98.11,318.45,96.5Z" fill="#8c8c8c"/>
    </g>
    <g>
      <line x1="516" y1="96.5" x2="535.02" y2="96.5" fill="none" stroke="#8c8c8c" stroke-miterlimit="10" stroke-width="2"/>
      <path d="M534.45,96.5c-1.46-1.46-2.16-4.36-2.22-6.36A19.08,19.08,0,0,0,540,96.5c-3.15,1.26-5.65,3.75-7.77,6.36C532.41,100.71,532.93,98.11,534.45,96.5Z" fill="#8c8c8c"/>
    </g>
    <g>
      <line x1="588" y1="96.5" x2="607.02" y2="96.5" fill="none" stroke="#8c8c8c" stroke-miterlimit="10" stroke-width="2"/>
      <path d="M606.45,96.5c-1.46-1.46-2.16-4.36-2.22-6.36A19.08,19.08,0,0,0,612,96.5c-3.15,1.26-5.65,3.75-7.77,6.36C604.41,100.71,604.93,98.11,606.45,96.5Z" fill="#8c8c8c"/>
    </g>
    <g>
      <line x1="660" y1="96.5" x2="679.02" y2="96.5" fill="none" stroke="#8c8c8c" stroke-miterlimit="10" stroke-width="2"/>
      <path d="M678.45,96.5c-1.46-1.46-2.16-4.36-2.22-6.36A19.08,19.08,0,0,0,684,96.5c-3.15,1.26-5.65,3.75-7.77,6.36C676.41,100.71,676.93,98.11,678.45,96.5Z" fill="#8c8c8c"/>
    </g>
    <g>
      <path d="M418,48.5h7.5a5.94,5.94,0,0,1,5.94,6l-0.37,36a5.94,5.94,0,0,0,5.94,6h26" fill="none" stroke="#8c8c8c" stroke-miterlimit="10" stroke-width="2"/>
      <path d="M462.45,96.5c-1.46-1.46-2.16-4.36-2.22-6.36A19.08,19.08,0,0,0,468,96.5c-3.15,1.26-5.65,3.75-7.77,6.36C460.41,100.71,460.93,98.11,462.45,96.5Z" fill="#8c8c8c"/>
    </g>
    <g>
      <path d="M418,48.5h7.5a6,6,0,0,0,6-6V17" fill="none" stroke="#8c8c8c" stroke-miterlimit="10" stroke-width="2"/>
      <path d="M431.5,17.55c-1.46,1.46-4.36,2.16-6.36,2.22A19.08,19.08,0,0,0,431.5,12c1.26,3.15,3.75,5.65,6.36,7.77C435.71,19.59,433.11,19.07,431.5,17.55Z" fill="#8c8c8c"/>
    </g>
    <g>
      <path d="M778,48.5h7.5a5.94,5.94,0,0,1,5.94,6l-0.37,36a5.94,5.94,0,0,0,5.94,6h26" fill="none" stroke="#8c8c8c" stroke-miterlimit="10" stroke-width="2"/>
      <path d="M822.45,96.5c-1.46-1.46-2.16-4.36-2.22-6.36A19.08,19.08,0,0,0,828,96.5c-3.15,1.26-5.65,3.75-7.77,6.36C820.41,100.71,820.93,98.11,822.45,96.5Z" fill="#8c8c8c"/>
    </g>
    <g>
      <path d="M778,48.5h7.5a6,6,0,0,0,6-6V17" fill="none" stroke="#8c8c8c" stroke-miterlimit="10" stroke-width="2"/>
      <path d="M791.5,17.55c-1.46,1.46-4.36,2.16-6.36,2.22A19.08,19.08,0,0,0,791.5,12c1.26,3.15,3.75,5.65,6.36,7.77C795.71,19.59,793.11,19.07,791.5,17.55Z" fill="#8c8c8c"/>
    </g>
    <g>
      <path d="M922,48.5h7.5a6.09,6.09,0,0,1,6.06,6L935.94,90A6.25,6.25,0,0,0,942,96.13l13,0.27" fill="none" stroke="#8c8c8c" stroke-miterlimit="10" stroke-width="2"/>
      <path d="M954.45,96.38C953,94.89,952.38,92,952.37,90A19.08,19.08,0,0,0,960,96.5c-3.18,1.2-5.72,3.64-7.9,6.2C952.32,100.55,952.9,98,954.45,96.38Z" fill="#8c8c8c"/>
    </g>
    <g>
      <path d="M922,48.5h7.5a6,6,0,0,0,6-6V17" fill="none" stroke="#8c8c8c" stroke-miterlimit="10" stroke-width="2"/>
      <path d="M935.5,17.55c-1.46,1.46-4.36,2.16-6.36,2.22A19.08,19.08,0,0,0,935.5,12c1.26,3.15,3.75,5.65,6.36,7.77C939.71,19.59,937.11,19.07,935.5,17.55Z" fill="#8c8c8c"/>
    </g>
    <g>
      <path d="M516,168h42.5a6,6,0,0,0,6-6V125" fill="none" stroke="#8c8c8c" stroke-miterlimit="10" stroke-width="2"/>
      <path d="M564.5,125.55c-1.46,1.46-4.36,2.16-6.36,2.22A19.08,19.08,0,0,0,564.5,120c1.26,3.15,3.75,5.65,6.36,7.77C568.71,127.59,566.11,127.07,564.5,125.55Z" fill="#8c8c8c"/>
    </g>
  </g>
  <use width="22.5" height="22.5" transform="translate(193.5 132)" xlink:href="#op-sum_2"/>
  <use id="rnn-s-3" data-name="rnn-s" width="48" height="48" transform="translate(180 72)" xlink:href="#rnn-s"/>
  <use id="rnn-s-6" data-name="rnn-s" width="48" height="48" transform="translate(252 72)" xlink:href="#rnn-s"/>
  <use id="rnn-s-9" data-name="rnn-s" width="48" height="48" transform="translate(324 72)" xlink:href="#rnn-s"/>
  <use id="rnn-s-12" data-name="rnn-s" width="48" height="48" transform="translate(468 72)" xlink:href="#rnn-s"/>
  <use id="rnn-s-15" data-name="rnn-s" width="48" height="48" transform="translate(540 72)" xlink:href="#rnn-s"/>
  <use id="rnn-s-18" data-name="rnn-s" width="48" height="48" transform="translate(612 72)" xlink:href="#rnn-s"/>
  <use id="rnn-s-21" data-name="rnn-s" width="48" height="48" transform="translate(684 72)" xlink:href="#rnn-s"/>
  <use id="rnn-s-24" data-name="rnn-s" width="48" height="48" transform="translate(828 72)" xlink:href="#rnn-s"/>
  <use width="22.5" height="22.5" transform="translate(481.5 132)" xlink:href="#op-sum_2"/>
  <use width="22.5" height="22.5" transform="translate(841.5 132)" xlink:href="#op-sum_2"/>
  <use id="op-sum-3" data-name="op-sum" width="22.5" height="22.5" transform="translate(899.5 37.14)" xlink:href="#op-sum"/>
  <use id="op-sum-6" data-name="op-sum" width="22.5" height="22.5" transform="translate(396 37.14)" xlink:href="#op-sum"/>
  <use id="op-sum-9" data-name="op-sum" width="22.5" height="22.5" transform="translate(755.5 37.14)" xlink:href="#op-sum"/>
  <text transform="translate(168 12)" font-size="12" fill="#666" font-family="Open Sans">time step 0</text>
  <text transform="translate(456 12)" font-size="12" fill="#666" font-family="Open Sans">time step 1</text>
  <text transform="translate(816 12)" font-size="12" fill="#666" font-family="Open Sans">time step 2</text>
</svg>
