<svg id="edges" xmlns="http://www.w3.org/2000/svg" xmlns:xlink="http://www.w3.org/1999/xlink" width="984" height="216" viewBox="0 0 984 216">
  <defs>
    <symbol id="array-7" data-name="array-7" viewBox="0 0 253 37">
      <rect x="0.5" y="0.5" width="252" height="36" rx="6" ry="6" fill="#fff" stroke="#8c8c8c" stroke-miterlimit="10"/>
      <line x1="36" y1="36.5" x2="36" y2="0.5" fill="none" stroke="#8c8c8c" stroke-miterlimit="10"/>
      <line x1="72" y1="36.5" x2="72" y2="0.5" fill="none" stroke="#8c8c8c" stroke-miterlimit="10"/>
      <line x1="108" y1="36.5" x2="108" y2="0.5" fill="none" stroke="#8c8c8c" stroke-miterlimit="10"/>
      <line x1="144" y1="36.5" x2="144" y2="0.5" fill="none" stroke="#8c8c8c" stroke-miterlimit="10"/>
      <line x1="180" y1="36.5" x2="180" y2="0.5" fill="none" stroke="#8c8c8c" stroke-miterlimit="10"/>
      <line x1="216" y1="36.5" x2="216" y2="0.5" fill="none" stroke="#8c8c8c" stroke-miterlimit="10"/>
    </symbol>
    <symbol id="array-1" data-name="array-1" viewBox="0 0 37 37">
      <rect x="0.5" y="0.5" width="36" height="36" rx="6" ry="6" fill="#fff" stroke="#8c8c8c" stroke-miterlimit="10"/>
    </symbol>
    <symbol id="array-vector" data-name="array-vector" viewBox="0 0 36 36">
      <rect width="36" height="36" fill="#0080f7" opacity="0"/>
      <g>
        <line x1="18" y1="24" x2="18" y2="13.08" fill="none" stroke="#8c8c8c" stroke-miterlimit="10"/>
        <polygon points="22.09 16.4 21.36 17.08 18 13.47 14.64 17.08 13.91 16.4 18 12 22.09 16.4" fill="#8c8c8c"/>
      </g>
    </symbol>
    <symbol id="array-positive-value" data-name="array-positive-value" viewBox="0 0 36 36">
      <rect width="36" height="36" fill="#0080f7" opacity="0"/>
      <rect x="4.42" y="4.42" width="27.17" height="27.17" rx="6" ry="6" fill="#0080f7" opacity="0.8"/>
    </symbol>
  </defs>
  <title>rnn</title>
  <g id="paths">
    <path id="edge0" d="M186,36v66.12c0.56,24,102,24.22,102,76.88" fill="none" stroke="#8c8c8c" stroke-miterlimit="10"/>
    <path id="edge1" d="M222,36v66.12c0.56,24,68,24.22,68,76.88" fill="none" stroke="#8c8c8c" stroke-miterlimit="10"/>
    <path id="edge2" d="M258.07,36v66.12c0.56,24,33.93,24.22,33.93,76.88" fill="none" stroke="#8c8c8c" stroke-miterlimit="10"/>
    <path id="edge3" d="M294,36V180" fill="none" stroke="#8c8c8c" stroke-miterlimit="10"/>
    <path id="edge4" d="M330,36v66.12c-0.56,24-34,24.22-34,76.88" fill="none" stroke="#8c8c8c" stroke-miterlimit="10"/>
    <path id="edge5" d="M366,36v66.12c-0.56,24-68,24.22-68,76.88" fill="none" stroke="#8c8c8c" stroke-miterlimit="10"/>
    <path id="edge6" d="M402,36v66.12c-0.56,24-102,24.22-102,76.88" fill="none" stroke="#8c8c8c" stroke-miterlimit="10"/>
  </g>
  <use id="array-7-3" data-name="array-7" width="253" height="37" transform="translate(168)" xlink:href="#array-7"/>
  <use width="253" height="37" transform="translate(168 59)" xlink:href="#array-7"/>
  <use width="37" height="37" transform="translate(276 179)" xlink:href="#array-1"/>
  <text transform="translate(432 24)" font-size="12" fill="#666" font-family="Open Sans">attention</text>
  <text transform="translate(432 84)" font-size="12" fill="#666" font-family="Open Sans">memory</text>
  <text transform="translate(324 204)" font-size="12" fill="#666" font-family="Open Sans">read result</text>
  <use id="read-result" width="36" height="36" transform="translate(276 180)" xlink:href="#array-vector"/>
  <g id="attention">
    <use width="36" height="36" transform="translate(168)" xlink:href="#array-positive-value"/>
    <use width="36" height="36" transform="translate(204)" xlink:href="#array-positive-value"/>
    <use width="36" height="36" transform="translate(240)" xlink:href="#array-positive-value"/>
    <use width="36" height="36" transform="translate(276)" xlink:href="#array-positive-value"/>
    <use width="36" height="36" transform="translate(312)" xlink:href="#array-positive-value"/>
    <use width="36" height="36" transform="translate(348)" xlink:href="#array-positive-value"/>
    <use width="36" height="36" transform="translate(384)" xlink:href="#array-positive-value"/>
  </g>
  <g id="memory">
    <use width="36" height="36" transform="translate(168 60)" xlink:href="#array-vector"/>
    <use width="36" height="36" transform="translate(204 60)" xlink:href="#array-vector"/>
    <use width="36" height="36" transform="translate(240 60)" xlink:href="#array-vector"/>
    <use width="36" height="36" transform="translate(276 60)" xlink:href="#array-vector"/>
    <use width="36" height="36" transform="translate(312 60)" xlink:href="#array-vector"/>
    <use width="36" height="36" transform="translate(348 60)" xlink:href="#array-vector"/>
    <use id="array-vector-17" data-name="array-vector" width="36" height="36" transform="translate(384 60)" xlink:href="#array-vector"/>
  </g>
</svg>
