<svg id="background" xmlns="http://www.w3.org/2000/svg" xmlns:xlink="http://www.w3.org/1999/xlink" width="984" height="312" viewBox="0 0 984 312">
  <defs>
    <symbol id="array-small" data-name="array-small" viewBox="0 0 182.08 31.66">
      <rect x="0.75" y="0.75" width="180.58" height="30.16" rx="6" ry="6" fill="#e5daf2" stroke="#666" stroke-miterlimit="10" stroke-width="1.5"/>
      <line x1="30.7" y1="30.91" x2="30.7" y2="0.75" fill="none" stroke="#8c8c8c" stroke-miterlimit="10"/>
      <line x1="60.86" y1="30.91" x2="60.86" y2="0.75" fill="none" stroke="#8c8c8c" stroke-miterlimit="10"/>
      <line x1="91.03" y1="30.91" x2="91.03" y2="0.75" fill="none" stroke="#8c8c8c" stroke-miterlimit="10"/>
      <line x1="121.19" y1="30.91" x2="121.19" y2="0.75" fill="none" stroke="#8c8c8c" stroke-miterlimit="10"/>
      <line x1="151.33" y1="30.91" x2="151.33" y2="0.75" fill="none" stroke="#8c8c8c" stroke-miterlimit="10"/>
    </symbol>
    <symbol id="rnn-bg" data-name="rnn-bg" viewBox="0 0 49.5 49.5">
      <rect x="0.75" y="0.75" width="48" height="48" rx="6" ry="6" fill="#fff" fill-opacity="0.8" stroke="#666" stroke-width="1.5"/>
    </symbol>
    <symbol id="rnn-a" data-name="rnn-a" viewBox="0 0 49.5 49.5">
      <use id="rnn-bg-3" data-name="rnn-bg" width="49.5" height="49.5" xlink:href="#rnn-bg"/>
      <path d="M29.77,31.75l-1.93-4.94H21.6l-1.91,4.94H17.86L24,16.14h1.52l6.11,15.61H29.77Zm-2.5-6.57-1.81-4.82q-0.35-.91-0.72-2.24a20.34,20.34,0,0,1-.67,2.24l-1.83,4.82h5Z" fill="#666"/>
    </symbol>
    <symbol id="op-read" data-name="op-read" viewBox="0 0 49.54 25.5">
      <g id="_Group_4" data-name="&lt;Group&gt;">
        <g>
          <path d="M48.83,12.75a12,12,0,0,1-12,12H12.71a12,12,0,1,1,0-24H36.83a12,12,0,0,1,12,12h0Z" fill="#e5daf2"/>
          <path d="M49.54,13.5a12,12,0,0,1-12,12H12a12,12,0,0,1-12-12V12A12,12,0,0,1,12,0H37.54a12,12,0,0,1,12,12v1.5ZM1.43,12.75c0,6.19,5.4,11.25,12,11.25H36.12c6.6,0,12-5.06,12-11.25S42.72,1.5,36.12,1.5H13.43C6.83,1.5,1.43,6.56,1.43,12.75Z" fill="#666"/>
        </g>
      </g>
      <g>
        <path d="M16.25,9.67a3.31,3.31,0,0,1,.69.06L16.8,11a2.6,2.6,0,0,0-.61-0.07,1.76,1.76,0,0,0-1.34.54,2,2,0,0,0-.51,1.4v3.39H13V9.79H14l0.18,1.14h0.07A2.57,2.57,0,0,1,15.13,10,2,2,0,0,1,16.25,9.67Z" fill="#666"/>
        <path d="M21,16.38a3.13,3.13,0,0,1-2.36-.88,3.35,3.35,0,0,1-.85-2.43,3.67,3.67,0,0,1,.79-2.5,2.73,2.73,0,0,1,2.17-.91,2.67,2.67,0,0,1,2,.78,3,3,0,0,1,.74,2.14v0.74H19.16a2.13,2.13,0,0,0,.51,1.45,1.78,1.78,0,0,0,1.35.51,5,5,0,0,0,1.07-.11,5.61,5.61,0,0,0,1.06-.36v1.12a4.23,4.23,0,0,1-1,.34A6.25,6.25,0,0,1,21,16.38Zm-0.25-5.67a1.38,1.38,0,0,0-1.05.42,2,2,0,0,0-.47,1.21h2.94a1.79,1.79,0,0,0-.39-1.22A1.32,1.32,0,0,0,20.71,10.71Z" fill="#666"/>
        <path d="M29.1,16.27l-0.28-.9h0a2.65,2.65,0,0,1-.94.81,3,3,0,0,1-1.22.21,2.06,2.06,0,0,1-1.49-.52,1.93,1.93,0,0,1-.54-1.46,1.71,1.71,0,0,1,.74-1.51,4.29,4.29,0,0,1,2.27-.56l1.12,0V12A1.31,1.31,0,0,0,28.43,11a1.18,1.18,0,0,0-.9-0.31,3.11,3.11,0,0,0-1,.15,7.21,7.21,0,0,0-.88.35l-0.45-1a4.79,4.79,0,0,1,1.15-.42,5.31,5.31,0,0,1,1.18-.14,2.8,2.8,0,0,1,1.87.54,2.11,2.11,0,0,1,.63,1.69v4.37h-1Zm-2.05-.94a1.71,1.71,0,0,0,1.2-.42,1.52,1.52,0,0,0,.45-1.17V13.17l-0.83,0a2.85,2.85,0,0,0-1.42.33,1,1,0,0,0-.44.89,0.87,0.87,0,0,0,.26.67A1.11,1.11,0,0,0,27.05,15.33Z" fill="#666"/>
        <path d="M34.19,16.38a2.26,2.26,0,0,1-1.89-.88A4,4,0,0,1,31.62,13a4,4,0,0,1,.69-2.48,2.28,2.28,0,0,1,1.91-.89,2.23,2.23,0,0,1,1.95.94h0.07a8.25,8.25,0,0,1-.1-1.1V7.15h1.38v9.12H36.44l-0.24-.85H36.13A2.2,2.2,0,0,1,34.19,16.38Zm0.37-1.11a1.5,1.5,0,0,0,1.24-.48,2.51,2.51,0,0,0,.4-1.55V13a2.9,2.9,0,0,0-.4-1.74,1.48,1.48,0,0,0-1.25-.52,1.27,1.27,0,0,0-1.12.59A3,3,0,0,0,33,13.06a2.94,2.94,0,0,0,.38,1.64A1.29,1.29,0,0,0,34.56,15.27Z" fill="#666"/>
      </g>
    </symbol>
    <symbol id="op-write" data-name="op-write" viewBox="0 0 49.54 25.5">
      <g id="_Group_6" data-name="&lt;Group&gt;">
        <g>
          <path d="M48.83,12.75a12,12,0,0,1-12,12H12.71a12,12,0,1,1,0-24H36.83a12,12,0,0,1,12,12h0Z" fill="#e5daf2"/>
          <path d="M49.54,13.5a12,12,0,0,1-12,12H12a12,12,0,0,1-12-12V12A12,12,0,0,1,12,0H37.54a12,12,0,0,1,12,12v1.5ZM1.43,12.75c0,6.19,5.4,11.25,12,11.25H36.12c6.6,0,12-5.06,12-11.25S42.72,1.5,36.12,1.5H13.43C6.83,1.5,1.43,6.56,1.43,12.75Z" fill="#666"/>
        </g>
      </g>
      <g>
        <path d="M16.74,16.25l-0.84-3q-0.15-.48-0.55-2.23H15.3q-0.34,1.58-.54,2.24l-0.86,3H12.37L10.56,9.77H12L12.79,13q0.28,1.18.4,2h0q0.06-.43.18-1t0.21-.83l1-3.41h1.51l1,3.41q0.09,0.29.22,0.88a6.76,6.76,0,0,1,.16.92h0a18,18,0,0,1,.41-2l0.84-3.19h1.38l-1.83,6.48H16.74Z" fill="#666"/>
        <path d="M24.51,9.65a3.31,3.31,0,0,1,.69.06L25.06,11a2.6,2.6,0,0,0-.61-0.07,1.76,1.76,0,0,0-1.34.54,2,2,0,0,0-.51,1.4v3.39H21.23V9.77H22.3l0.18,1.14h0.07A2.57,2.57,0,0,1,23.4,10,2,2,0,0,1,24.51,9.65Z" fill="#666"/>
        <path d="M26.32,8.05a0.76,0.76,0,0,1,.2-0.57,0.79,0.79,0,0,1,.58-0.2,0.77,0.77,0,0,1,.57.2,0.76,0.76,0,0,1,.2.57,0.75,0.75,0,0,1-.2.55,0.76,0.76,0,0,1-.57.2,0.78,0.78,0,0,1-.58-0.2A0.75,0.75,0,0,1,26.32,8.05Zm1.46,8.2H26.4V9.77h1.38v6.48Z" fill="#666"/>
        <path d="M32.16,15.25a3.35,3.35,0,0,0,1-.16v1a2.78,2.78,0,0,1-.59.17,4.06,4.06,0,0,1-.75.07,1.78,1.78,0,0,1-2-2.06V10.81H29V10.2l0.95-.5,0.47-1.37h0.85V9.77H33.1v1H31.26v3.47a1,1,0,0,0,.25.74A0.91,0.91,0,0,0,32.16,15.25Z" fill="#666"/>
        <path d="M37.29,16.37a3.13,3.13,0,0,1-2.36-.88,3.35,3.35,0,0,1-.85-2.43,3.67,3.67,0,0,1,.79-2.5A2.73,2.73,0,0,1,37,9.65a2.67,2.67,0,0,1,2,.78,3,3,0,0,1,.74,2.14v0.74H35.49A2.13,2.13,0,0,0,36,14.77a1.78,1.78,0,0,0,1.35.51,5,5,0,0,0,1.07-.11,5.61,5.61,0,0,0,1.06-.36v1.12a4.23,4.23,0,0,1-1,.34A6.25,6.25,0,0,1,37.29,16.37ZM37,10.7a1.38,1.38,0,0,0-1.05.42,2,2,0,0,0-.47,1.21h2.94a1.79,1.79,0,0,0-.39-1.22A1.32,1.32,0,0,0,37,10.7Z" fill="#666"/>
      </g>
    </symbol>
    <symbol id="array-vector" data-name="array-vector" viewBox="0 0 36 36">
      <rect width="36" height="36" fill="#d8c2f2" opacity="0"/>
      <g opacity="0.5">
        <g>
          <line x1="18" y1="24" x2="18" y2="13.08" fill="none" stroke="#000" stroke-miterlimit="10"/>
          <polygon points="22.09 16.4 21.36 17.08 18 13.47 14.64 17.08 13.91 16.4 18 12 22.09 16.4"/>
        </g>
      </g>
    </symbol>
  </defs>
  <title>rnn</title>
  <g id="_Group_" data-name="&lt;Group&gt;">
    <rect x="166" y="192" width="648" height="72" rx="10" ry="10" fill="#f0f0f5"/>
    <g opacity="0.1">
      <rect x="166" y="192" width="648" height="72" rx="10" ry="10" fill="none" stroke="#667780"/>
    </g>
  </g>
  <use id="array-small-3" data-name="array-small" width="182.08" height="31.66" transform="translate(112 35.44)" xlink:href="#array-small"/>
  <use width="182.08" height="31.66" transform="translate(305.08 35.44)" xlink:href="#array-small"/>
  <use width="182.08" height="31.66" transform="translate(497.08 35.44)" xlink:href="#array-small"/>
  <use id="array-small-10" data-name="array-small" width="182.08" height="31.66" transform="translate(689.08 35.44)" xlink:href="#array-small"/>
  <g id="_Group_2" data-name="&lt;Group&gt;">
    <g opacity="0.1">
      <rect x="755.64" y="206" width="48" height="48" rx="6" ry="6" opacity="0.8"/>
      <rect x="755.64" y="206" width="48" height="48" rx="6" ry="6" fill="none" stroke="#000" stroke-width="1.5"/>
      <path d="M784.66,237l-1.93-4.94h-6.23L774.58,237h-1.83l6.14-15.61h1.52L786.53,237h-1.87Zm-2.5-6.57-1.81-4.82q-0.35-.91-0.72-2.24a20.34,20.34,0,0,1-.67,2.24l-1.83,4.82h5Z"/>
    </g>
    <use width="49.5" height="49.5" transform="translate(753.89 203.25)" xlink:href="#rnn-a"/>
  </g>
  <g>
    <path d="M220,72l29.83,29c3.94,3.84,11.67,7,17.17,7h40.89c5.5,0,13.1-3.27,16.88-7.26l23.5-24.8" fill="none" stroke="#666" stroke-miterlimit="10" stroke-width="1.5"/>
    <path d="M352,72a27.2,27.2,0,0,0-2.18,8.53l-2-4.07-4.17-1.82A27.18,27.18,0,0,0,352,72Z" fill="#666"/>
  </g>
  <g>
    <path d="M370,72l-34.93,34.93C331.18,110.82,328,118.5,328,124v46c0,5.5,3.18,13.18,7.07,17.07l25.09,25.09" fill="none" stroke="#666" stroke-miterlimit="10" stroke-width="1.5"/>
    <path d="M364,216a27.2,27.2,0,0,0-8.47-2.41l4.12-1.93,1.93-4.12A27.18,27.18,0,0,0,364,216Z" fill="#666"/>
  </g>
  <g id="_Group_3" data-name="&lt;Group&gt;">
    <g opacity="0.1">
      <path d="M359.83,145.5a12,12,0,0,1-12,12H323.71a12,12,0,0,1,0-24h24.12a12,12,0,0,1,12,12h0Z"/>
      <path d="M360.54,146.25a12,12,0,0,1-12,12H323a12,12,0,0,1-12-12v-1.5a12,12,0,0,1,12-12h25.54a12,12,0,0,1,12,12v1.5Zm-48.12-.75c0,6.19,5.4,11.25,12,11.25h22.69c6.6,0,12-5.06,12-11.25s-5.4-11.25-12-11.25H324.43C317.83,134.25,312.43,139.31,312.43,145.5Z"/>
      <path d="M327.25,142.42a3.31,3.31,0,0,1,.69.06l-0.13,1.28a2.6,2.6,0,0,0-.61-0.07,1.76,1.76,0,0,0-1.34.54,2,2,0,0,0-.51,1.4V149H324v-6.48H325l0.18,1.14h0.07a2.57,2.57,0,0,1,.84-0.92A2,2,0,0,1,327.25,142.42Z"/>
      <path d="M332,149.13a3.13,3.13,0,0,1-2.36-.88,3.35,3.35,0,0,1-.85-2.43,3.67,3.67,0,0,1,.79-2.5,2.73,2.73,0,0,1,2.17-.91,2.67,2.67,0,0,1,2,.78,3,3,0,0,1,.74,2.14v0.74h-4.32a2.13,2.13,0,0,0,.51,1.45A1.78,1.78,0,0,0,332,148a5,5,0,0,0,1.07-.11,5.61,5.61,0,0,0,1.06-.36v1.12a4.23,4.23,0,0,1-1,.34A6.25,6.25,0,0,1,332,149.13Zm-0.25-5.67a1.38,1.38,0,0,0-1.05.42,2,2,0,0,0-.47,1.21h2.94a1.79,1.79,0,0,0-.39-1.22A1.32,1.32,0,0,0,331.71,143.46Z"/>
      <path d="M340.1,149l-0.28-.9h0a2.65,2.65,0,0,1-.94.81,3,3,0,0,1-1.22.21,2.06,2.06,0,0,1-1.49-.52,1.93,1.93,0,0,1-.54-1.46,1.71,1.71,0,0,1,.74-1.51,4.29,4.29,0,0,1,2.27-.56l1.12,0v-0.35a1.31,1.31,0,0,0-.29-0.93,1.18,1.18,0,0,0-.9-0.31,3.11,3.11,0,0,0-1,.15,7.21,7.21,0,0,0-.88.35l-0.45-1a4.79,4.79,0,0,1,1.15-.42,5.31,5.31,0,0,1,1.18-.14,2.8,2.8,0,0,1,1.87.54,2.11,2.11,0,0,1,.63,1.69V149h-1Zm-2.05-.94a1.71,1.71,0,0,0,1.2-.42,1.52,1.52,0,0,0,.45-1.17v-0.56l-0.83,0a2.85,2.85,0,0,0-1.42.33,1,1,0,0,0-.44.89,0.87,0.87,0,0,0,.26.67A1.11,1.11,0,0,0,338.05,148.08Z"/>
      <path d="M345.19,149.13a2.26,2.26,0,0,1-1.89-.88,4.82,4.82,0,0,1,0-4.95,2.28,2.28,0,0,1,1.91-.89,2.23,2.23,0,0,1,1.95.94h0.07a8.25,8.25,0,0,1-.1-1.1V139.9h1.38V149h-1.08l-0.24-.85h-0.06A2.2,2.2,0,0,1,345.19,149.13Zm0.37-1.11a1.5,1.5,0,0,0,1.24-.48,2.51,2.51,0,0,0,.4-1.55V145.8a2.9,2.9,0,0,0-.4-1.74,1.48,1.48,0,0,0-1.25-.52,1.27,1.27,0,0,0-1.12.59,3,3,0,0,0-.39,1.68,2.94,2.94,0,0,0,.38,1.64A1.29,1.29,0,0,0,345.56,148Z"/>
    </g>
    <use width="49.54" height="25.5" transform="translate(310 130.75)" xlink:href="#op-read"/>
  </g>
  <g id="_Group_5" data-name="&lt;Group&gt;">
    <g opacity="0.1">
      <path d="M316.29,110.5a12,12,0,0,1-12,12H280.17a12,12,0,1,1,0-24h24.12a12,12,0,0,1,12,12h0Z"/>
      <path d="M317,111.25a12,12,0,0,1-12,12H279.46a12,12,0,0,1-12-12v-1.5a12,12,0,0,1,12-12H305a12,12,0,0,1,12,12v1.5Zm-48.12-.75c0,6.19,5.4,11.25,12,11.25h22.69c6.6,0,12-5.06,12-11.25s-5.4-11.25-12-11.25H280.88C274.28,99.25,268.88,104.31,268.88,110.5Z"/>
      <path d="M284.19,114l-0.84-3q-0.15-.48-0.55-2.23h-0.05q-0.34,1.58-.54,2.24l-0.86,3h-1.52L278,107.52h1.41l0.83,3.19q0.28,1.18.4,2h0q0.06-.43.18-1t0.21-.83l1-3.41h1.51l1,3.41q0.09,0.29.22,0.88a6.76,6.76,0,0,1,.16.92h0a18,18,0,0,1,.41-2l0.84-3.19h1.38L285.74,114h-1.55Z"/>
      <path d="M292,107.4a3.31,3.31,0,0,1,.69.06l-0.13,1.28a2.6,2.6,0,0,0-.61-0.07,1.76,1.76,0,0,0-1.34.54,2,2,0,0,0-.51,1.4V114h-1.38v-6.48h1.08l0.18,1.14H290a2.57,2.57,0,0,1,.84-0.92A2,2,0,0,1,292,107.4Z"/>
      <path d="M293.77,105.8a0.76,0.76,0,0,1,.2-0.57,0.79,0.79,0,0,1,.58-0.2,0.77,0.77,0,0,1,.57.2,0.76,0.76,0,0,1,.2.57,0.75,0.75,0,0,1-.2.55,0.76,0.76,0,0,1-.57.2,0.78,0.78,0,0,1-.58-0.2A0.75,0.75,0,0,1,293.77,105.8Zm1.46,8.2h-1.38v-6.48h1.38V114Z"/>
      <path d="M299.62,113a3.35,3.35,0,0,0,1-.16v1a2.78,2.78,0,0,1-.59.17,4.06,4.06,0,0,1-.75.07,1.78,1.78,0,0,1-2-2.06v-3.49h-0.88V108l0.95-.5,0.47-1.37h0.85v1.44h1.85v1h-1.85V112a1,1,0,0,0,.25.74A0.91,0.91,0,0,0,299.62,113Z"/>
      <path d="M304.75,114.12a3.13,3.13,0,0,1-2.36-.88,3.35,3.35,0,0,1-.85-2.43,3.67,3.67,0,0,1,.79-2.5,2.73,2.73,0,0,1,2.17-.91,2.67,2.67,0,0,1,2,.78,3,3,0,0,1,.74,2.14v0.74h-4.32a2.13,2.13,0,0,0,.51,1.45,1.78,1.78,0,0,0,1.35.51,5,5,0,0,0,1.07-.11,5.61,5.61,0,0,0,1.06-.36v1.12a4.23,4.23,0,0,1-1,.34A6.25,6.25,0,0,1,304.75,114.12Zm-0.25-5.67a1.38,1.38,0,0,0-1.05.42,2,2,0,0,0-.47,1.21h2.94a1.79,1.79,0,0,0-.39-1.22A1.32,1.32,0,0,0,304.5,108.45Z"/>
    </g>
    <use width="49.54" height="25.5" transform="translate(266.46 95.75)" xlink:href="#op-write"/>
  </g>
  <g opacity="0.4">
    <g>
      <path d="M220,204l64.93-64.93c3.45-3.45,6.35-7.94,7-10.64" fill="none" stroke="#666" stroke-miterlimit="10" stroke-width="1.5"/>
      <path d="M292,123a27.2,27.2,0,0,0,3.93,7.88l-4.21-1.74-4.34,1.36A27.17,27.17,0,0,0,292,123Z" fill="#666"/>
    </g>
  </g>
  <g>
    <path d="M412,72l29.83,29c3.94,3.84,11.67,7,17.17,7h40.89c5.5,0,13.1-3.27,16.88-7.26l23.5-24.8" fill="none" stroke="#666" stroke-miterlimit="10" stroke-width="1.5"/>
    <path d="M544,72a27.2,27.2,0,0,0-2.18,8.53l-2-4.07-4.17-1.82A27.18,27.18,0,0,0,544,72Z" fill="#666"/>
  </g>
  <g>
    <path d="M562,72l-34,34.84c-3.84,3.94-7,11.66-7,17.16v46c0,5.5,3.14,13.23,7,17.17l24.24,24.94" fill="none" stroke="#666" stroke-miterlimit="10" stroke-width="1.5"/>
    <path d="M556,216a27.2,27.2,0,0,0-8.43-2.53l4.15-1.87,2-4.09A27.17,27.17,0,0,0,556,216Z" fill="#666"/>
  </g>
  <g id="_Group_7" data-name="&lt;Group&gt;">
    <g opacity="0.1">
      <path d="M551.83,145.5a12,12,0,0,1-12,12H515.71a12,12,0,1,1,0-24h24.12a12,12,0,0,1,12,12h0Z"/>
      <path d="M552.54,146.25a12,12,0,0,1-12,12H515a12,12,0,0,1-12-12v-1.5a12,12,0,0,1,12-12h25.54a12,12,0,0,1,12,12v1.5Zm-48.12-.75c0,6.19,5.4,11.25,12,11.25h22.69c6.6,0,12-5.06,12-11.25s-5.4-11.25-12-11.25H516.43C509.83,134.25,504.43,139.31,504.43,145.5Z"/>
      <path d="M519.25,142.42a3.31,3.31,0,0,1,.69.06l-0.13,1.28a2.6,2.6,0,0,0-.61-0.07,1.76,1.76,0,0,0-1.34.54,2,2,0,0,0-.51,1.4V149H516v-6.48H517l0.18,1.14h0.07a2.57,2.57,0,0,1,.84-0.92A2,2,0,0,1,519.25,142.42Z"/>
      <path d="M524,149.13a3.13,3.13,0,0,1-2.36-.88,3.35,3.35,0,0,1-.85-2.43,3.67,3.67,0,0,1,.79-2.5,2.73,2.73,0,0,1,2.17-.91,2.67,2.67,0,0,1,2,.78,3,3,0,0,1,.74,2.14v0.74h-4.32a2.13,2.13,0,0,0,.51,1.45A1.78,1.78,0,0,0,524,148a5,5,0,0,0,1.07-.11,5.61,5.61,0,0,0,1.06-.36v1.12a4.23,4.23,0,0,1-1,.34A6.25,6.25,0,0,1,524,149.13Zm-0.25-5.67a1.38,1.38,0,0,0-1.05.42,2,2,0,0,0-.47,1.21h2.94a1.79,1.79,0,0,0-.39-1.22A1.32,1.32,0,0,0,523.71,143.46Z"/>
      <path d="M532.1,149l-0.28-.9h0a2.65,2.65,0,0,1-.94.81,3,3,0,0,1-1.22.21,2.06,2.06,0,0,1-1.49-.52,1.93,1.93,0,0,1-.54-1.46,1.71,1.71,0,0,1,.74-1.51,4.29,4.29,0,0,1,2.27-.56l1.12,0v-0.35a1.31,1.31,0,0,0-.29-0.93,1.18,1.18,0,0,0-.9-0.31,3.11,3.11,0,0,0-1,.15,7.21,7.21,0,0,0-.88.35l-0.45-1a4.79,4.79,0,0,1,1.15-.42,5.31,5.31,0,0,1,1.18-.14,2.8,2.8,0,0,1,1.87.54,2.11,2.11,0,0,1,.63,1.69V149h-1Zm-2.05-.94a1.71,1.71,0,0,0,1.2-.42,1.52,1.52,0,0,0,.45-1.17v-0.56l-0.83,0a2.85,2.85,0,0,0-1.42.33,1,1,0,0,0-.44.89,0.87,0.87,0,0,0,.26.67A1.11,1.11,0,0,0,530.05,148.08Z"/>
      <path d="M537.19,149.13a2.26,2.26,0,0,1-1.89-.88,4.82,4.82,0,0,1,0-4.95,2.28,2.28,0,0,1,1.91-.89,2.23,2.23,0,0,1,1.95.94h0.07a8.25,8.25,0,0,1-.1-1.1V139.9h1.38V149h-1.08l-0.24-.85h-0.06A2.2,2.2,0,0,1,537.19,149.13Zm0.37-1.11a1.5,1.5,0,0,0,1.24-.48,2.51,2.51,0,0,0,.4-1.55V145.8a2.9,2.9,0,0,0-.4-1.74,1.48,1.48,0,0,0-1.25-.52,1.27,1.27,0,0,0-1.12.59,3,3,0,0,0-.39,1.68,2.94,2.94,0,0,0,.38,1.64A1.29,1.29,0,0,0,537.56,148Z"/>
    </g>
    <use width="49.54" height="25.5" transform="translate(502 130.75)" xlink:href="#op-read"/>
  </g>
  <g id="_Group_9" data-name="&lt;Group&gt;">
    <g opacity="0.1">
      <path d="M508.29,110.5a12,12,0,0,1-12,12H472.17a12,12,0,1,1,0-24h24.12a12,12,0,0,1,12,12h0Z"/>
      <path d="M509,111.25a12,12,0,0,1-12,12H471.46a12,12,0,0,1-12-12v-1.5a12,12,0,0,1,12-12H497a12,12,0,0,1,12,12v1.5Zm-48.12-.75c0,6.19,5.4,11.25,12,11.25h22.69c6.6,0,12-5.06,12-11.25s-5.4-11.25-12-11.25H472.88C466.28,99.25,460.88,104.31,460.88,110.5Z"/>
      <path d="M476.19,114l-0.84-3q-0.15-.48-0.55-2.23h-0.05q-0.34,1.58-.54,2.24l-0.86,3h-1.52L470,107.52h1.41l0.83,3.19q0.28,1.18.4,2h0q0.06-.43.18-1t0.21-.83l1-3.41h1.51l1,3.41q0.09,0.29.22,0.88a6.76,6.76,0,0,1,.16.92h0a18,18,0,0,1,.41-2l0.84-3.19h1.38L477.74,114h-1.55Z"/>
      <path d="M484,107.4a3.31,3.31,0,0,1,.69.06l-0.13,1.28a2.6,2.6,0,0,0-.61-0.07,1.76,1.76,0,0,0-1.34.54,2,2,0,0,0-.51,1.4V114h-1.38v-6.48h1.08l0.18,1.14H482a2.57,2.57,0,0,1,.84-0.92A2,2,0,0,1,484,107.4Z"/>
      <path d="M485.77,105.8a0.76,0.76,0,0,1,.2-0.57,0.79,0.79,0,0,1,.58-0.2,0.77,0.77,0,0,1,.57.2,0.76,0.76,0,0,1,.2.57,0.75,0.75,0,0,1-.2.55,0.76,0.76,0,0,1-.57.2,0.78,0.78,0,0,1-.58-0.2A0.75,0.75,0,0,1,485.77,105.8Zm1.46,8.2h-1.38v-6.48h1.38V114Z"/>
      <path d="M491.62,113a3.35,3.35,0,0,0,1-.16v1a2.78,2.78,0,0,1-.59.17,4.06,4.06,0,0,1-.75.07,1.78,1.78,0,0,1-2-2.06v-3.49h-0.88V108l0.95-.5,0.47-1.37h0.85v1.44h1.85v1h-1.85V112a1,1,0,0,0,.25.74A0.91,0.91,0,0,0,491.62,113Z"/>
      <path d="M496.75,114.12a3.13,3.13,0,0,1-2.36-.88,3.35,3.35,0,0,1-.85-2.43,3.67,3.67,0,0,1,.79-2.5,2.73,2.73,0,0,1,2.17-.91,2.67,2.67,0,0,1,2,.78,3,3,0,0,1,.74,2.14v0.74h-4.32a2.13,2.13,0,0,0,.51,1.45,1.78,1.78,0,0,0,1.35.51,5,5,0,0,0,1.07-.11,5.61,5.61,0,0,0,1.06-.36v1.12a4.23,4.23,0,0,1-1,.34A6.25,6.25,0,0,1,496.75,114.12Zm-0.25-5.67a1.38,1.38,0,0,0-1.05.42,2,2,0,0,0-.47,1.21h2.94a1.79,1.79,0,0,0-.39-1.22A1.32,1.32,0,0,0,496.5,108.45Z"/>
    </g>
    <use width="49.54" height="25.5" transform="translate(458.46 95.75)" xlink:href="#op-write"/>
  </g>
  <g opacity="0.4">
    <g>
      <path d="M412,204l64.93-64.93c3.7-3.7,6.75-8.78,7-11.64" fill="none" stroke="#666" stroke-miterlimit="10" stroke-width="1.5"/>
      <path d="M484,122a27.2,27.2,0,0,0,4.13,7.77l-4.25-1.63-4.31,1.46A27.18,27.18,0,0,0,484,122Z" fill="#666"/>
    </g>
  </g>
  <g>
    <path d="M604,72l29.83,29c3.94,3.84,11.67,7,17.17,7h40.89c5.5,0,13.1-3.27,16.88-7.26l23.5-24.8" fill="none" stroke="#666" stroke-miterlimit="10" stroke-width="1.5"/>
    <path d="M736,72a27.2,27.2,0,0,0-2.18,8.53l-2-4.07-4.17-1.82A27.18,27.18,0,0,0,736,72Z" fill="#666"/>
  </g>
  <g>
    <path d="M754,72l-34.93,34.93C715.18,110.82,712,118.5,712,124v46c0,5.5,3.18,13.18,7.07,17.07l25.09,25.09" fill="none" stroke="#666" stroke-miterlimit="10" stroke-width="1.5"/>
    <path d="M748,216a27.2,27.2,0,0,0-8.47-2.41l4.12-1.93,1.93-4.12A27.18,27.18,0,0,0,748,216Z" fill="#666"/>
  </g>
  <g id="_Group_11" data-name="&lt;Group&gt;">
    <g opacity="0.1">
      <path d="M743.83,145.5a12,12,0,0,1-12,12H707.71a12,12,0,0,1,0-24h24.12a12,12,0,0,1,12,12h0Z"/>
      <path d="M744.54,146.25a12,12,0,0,1-12,12H707a12,12,0,0,1-12-12v-1.5a12,12,0,0,1,12-12h25.54a12,12,0,0,1,12,12v1.5Zm-48.12-.75c0,6.19,5.4,11.25,12,11.25h22.69c6.6,0,12-5.06,12-11.25s-5.4-11.25-12-11.25H708.43C701.83,134.25,696.43,139.31,696.43,145.5Z"/>
      <path d="M711.25,142.42a3.31,3.31,0,0,1,.69.06l-0.13,1.28a2.6,2.6,0,0,0-.61-0.07,1.76,1.76,0,0,0-1.34.54,2,2,0,0,0-.51,1.4V149H708v-6.48H709l0.18,1.14h0.07a2.57,2.57,0,0,1,.84-0.92A2,2,0,0,1,711.25,142.42Z"/>
      <path d="M716,149.13a3.13,3.13,0,0,1-2.36-.88,3.35,3.35,0,0,1-.85-2.43,3.67,3.67,0,0,1,.79-2.5,2.73,2.73,0,0,1,2.17-.91,2.67,2.67,0,0,1,2,.78,3,3,0,0,1,.74,2.14v0.74h-4.32a2.13,2.13,0,0,0,.51,1.45A1.78,1.78,0,0,0,716,148a5,5,0,0,0,1.07-.11,5.61,5.61,0,0,0,1.06-.36v1.12a4.23,4.23,0,0,1-1,.34A6.25,6.25,0,0,1,716,149.13Zm-0.25-5.67a1.38,1.38,0,0,0-1.05.42,2,2,0,0,0-.47,1.21h2.94a1.79,1.79,0,0,0-.39-1.22A1.32,1.32,0,0,0,715.71,143.46Z"/>
      <path d="M724.1,149l-0.28-.9h0a2.65,2.65,0,0,1-.94.81,3,3,0,0,1-1.22.21,2.06,2.06,0,0,1-1.49-.52,1.93,1.93,0,0,1-.54-1.46,1.71,1.71,0,0,1,.74-1.51,4.29,4.29,0,0,1,2.27-.56l1.12,0v-0.35a1.31,1.31,0,0,0-.29-0.93,1.18,1.18,0,0,0-.9-0.31,3.11,3.11,0,0,0-1,.15,7.21,7.21,0,0,0-.88.35l-0.45-1a4.79,4.79,0,0,1,1.15-.42,5.31,5.31,0,0,1,1.18-.14,2.8,2.8,0,0,1,1.87.54,2.11,2.11,0,0,1,.63,1.69V149h-1Zm-2.05-.94a1.71,1.71,0,0,0,1.2-.42,1.52,1.52,0,0,0,.45-1.17v-0.56l-0.83,0a2.85,2.85,0,0,0-1.42.33,1,1,0,0,0-.44.89,0.87,0.87,0,0,0,.26.67A1.11,1.11,0,0,0,722.05,148.08Z"/>
      <path d="M729.19,149.13a2.26,2.26,0,0,1-1.89-.88,4.82,4.82,0,0,1,0-4.95,2.28,2.28,0,0,1,1.91-.89,2.23,2.23,0,0,1,1.95.94h0.07a8.25,8.25,0,0,1-.1-1.1V139.9h1.38V149h-1.08l-0.24-.85h-0.06A2.2,2.2,0,0,1,729.19,149.13Zm0.37-1.11a1.5,1.5,0,0,0,1.24-.48,2.51,2.51,0,0,0,.4-1.55V145.8a2.9,2.9,0,0,0-.4-1.74,1.48,1.48,0,0,0-1.25-.52,1.27,1.27,0,0,0-1.12.59,3,3,0,0,0-.39,1.68,2.94,2.94,0,0,0,.38,1.64A1.29,1.29,0,0,0,729.56,148Z"/>
    </g>
    <use width="49.54" height="25.5" transform="translate(694 130.75)" xlink:href="#op-read"/>
  </g>
  <g id="_Group_13" data-name="&lt;Group&gt;">
    <g opacity="0.1">
      <path d="M700.29,110.5a12,12,0,0,1-12,12H664.17a12,12,0,1,1,0-24h24.12a12,12,0,0,1,12,12h0Z"/>
      <path d="M701,111.25a12,12,0,0,1-12,12H663.46a12,12,0,0,1-12-12v-1.5a12,12,0,0,1,12-12H689a12,12,0,0,1,12,12v1.5Zm-48.12-.75c0,6.19,5.4,11.25,12,11.25h22.69c6.6,0,12-5.06,12-11.25s-5.4-11.25-12-11.25H664.88C658.28,99.25,652.88,104.31,652.88,110.5Z"/>
      <path d="M668.19,114l-0.84-3q-0.15-.48-0.55-2.23h-0.05q-0.34,1.58-.54,2.24l-0.86,3h-1.52L662,107.52h1.41l0.83,3.19q0.28,1.18.4,2h0q0.06-.43.18-1t0.21-.83l1-3.41h1.51l1,3.41q0.09,0.29.22,0.88a6.76,6.76,0,0,1,.16.92h0a18,18,0,0,1,.41-2l0.84-3.19h1.38L669.74,114h-1.55Z"/>
      <path d="M676,107.4a3.31,3.31,0,0,1,.69.06l-0.13,1.28a2.6,2.6,0,0,0-.61-0.07,1.76,1.76,0,0,0-1.34.54,2,2,0,0,0-.51,1.4V114h-1.38v-6.48h1.08l0.18,1.14H674a2.57,2.57,0,0,1,.84-0.92A2,2,0,0,1,676,107.4Z"/>
      <path d="M677.77,105.8a0.76,0.76,0,0,1,.2-0.57,0.79,0.79,0,0,1,.58-0.2,0.77,0.77,0,0,1,.57.2,0.76,0.76,0,0,1,.2.57,0.75,0.75,0,0,1-.2.55,0.76,0.76,0,0,1-.57.2,0.78,0.78,0,0,1-.58-0.2A0.75,0.75,0,0,1,677.77,105.8Zm1.46,8.2h-1.38v-6.48h1.38V114Z"/>
      <path d="M683.62,113a3.35,3.35,0,0,0,1-.16v1a2.78,2.78,0,0,1-.59.17,4.06,4.06,0,0,1-.75.07,1.78,1.78,0,0,1-2-2.06v-3.49h-0.88V108l0.95-.5,0.47-1.37h0.85v1.44h1.85v1h-1.85V112a1,1,0,0,0,.25.74A0.91,0.91,0,0,0,683.62,113Z"/>
      <path d="M688.75,114.12a3.13,3.13,0,0,1-2.36-.88,3.35,3.35,0,0,1-.85-2.43,3.67,3.67,0,0,1,.79-2.5,2.73,2.73,0,0,1,2.17-.91,2.67,2.67,0,0,1,2,.78,3,3,0,0,1,.74,2.14v0.74h-4.32a2.13,2.13,0,0,0,.51,1.45,1.78,1.78,0,0,0,1.35.51,5,5,0,0,0,1.07-.11,5.61,5.61,0,0,0,1.06-.36v1.12a4.23,4.23,0,0,1-1,.34A6.25,6.25,0,0,1,688.75,114.12Zm-0.25-5.67a1.38,1.38,0,0,0-1.05.42,2,2,0,0,0-.47,1.21h2.94a1.79,1.79,0,0,0-.39-1.22A1.32,1.32,0,0,0,688.5,108.45Z"/>
    </g>
    <use width="49.54" height="25.5" transform="translate(650.46 95.75)" xlink:href="#op-write"/>
  </g>
  <g opacity="0.4">
    <g>
      <path d="M604,204l64.93-64.93c3.7-3.7,6.75-8.78,7-11.64" fill="none" stroke="#666" stroke-miterlimit="10" stroke-width="1.5"/>
      <path d="M676,122a27.2,27.2,0,0,0,4.13,7.77l-4.25-1.63-4.31,1.46A27.18,27.18,0,0,0,676,122Z" fill="#666"/>
    </g>
  </g>
  <g opacity="0.4">
    <g>
      <path d="M226,217l65-65.88c3.67-3.72,8.74-6.8,11.59-7.1" fill="none" stroke="#666" stroke-miterlimit="10" stroke-width="1.5"/>
      <path d="M308,144a27.2,27.2,0,0,0-7.61,4.43l1.46-4.31-1.63-4.25A27.18,27.18,0,0,0,308,144Z" fill="#666"/>
    </g>
  </g>
  <g opacity="0.4">
    <g>
      <path d="M418,217l65-65.88c3.67-3.72,8.74-6.8,11.59-7.1" fill="none" stroke="#666" stroke-miterlimit="10" stroke-width="1.5"/>
      <path d="M500,144a27.2,27.2,0,0,0-7.61,4.43l1.46-4.31-1.63-4.25A27.18,27.18,0,0,0,500,144Z" fill="#666"/>
    </g>
  </g>
  <g opacity="0.4">
    <g>
      <path d="M610,217l65-65.88c3.67-3.72,8.74-6.8,11.59-7.1" fill="none" stroke="#666" stroke-miterlimit="10" stroke-width="1.5"/>
      <path d="M692,144a27.2,27.2,0,0,0-7.61,4.43l1.46-4.31-1.63-4.25A27.18,27.18,0,0,0,692,144Z" fill="#666"/>
    </g>
  </g>
  <g>
    <g opacity="0.1">
      <rect x="370.14" y="206" width="48" height="48" rx="6" ry="6" opacity="0.8"/>
      <rect x="370.14" y="206" width="48" height="48" rx="6" ry="6" fill="none" stroke="#000" stroke-width="1.5"/>
      <path d="M399.16,237l-1.93-4.94H391L389.08,237h-1.83l6.14-15.61h1.52L401,237h-1.87Zm-2.5-6.57-1.81-4.82q-0.35-.91-0.72-2.24a20.34,20.34,0,0,1-.67,2.24l-1.83,4.82h5Z"/>
    </g>
    <use width="49.5" height="49.5" transform="translate(368.39 203.25)" xlink:href="#rnn-a"/>
  </g>
  <g>
    <g opacity="0.1">
      <rect x="563.64" y="206" width="48" height="48" rx="6" ry="6" opacity="0.8"/>
      <rect x="563.64" y="206" width="48" height="48" rx="6" ry="6" fill="none" stroke="#000" stroke-width="1.5"/>
      <path d="M592.66,237l-1.93-4.94h-6.23L582.58,237h-1.83l6.14-15.61h1.52L594.53,237h-1.87Zm-2.5-6.57-1.81-4.82q-0.35-.91-0.72-2.24a20.34,20.34,0,0,1-.67,2.24l-1.83,4.82h5Z"/>
    </g>
    <use width="49.5" height="49.5" transform="translate(561.89 203.25)" xlink:href="#rnn-a"/>
  </g>
  <g>
    <g opacity="0.1">
      <rect x="179.64" y="206" width="48" height="48" rx="6" ry="6" opacity="0.8"/>
      <rect x="179.64" y="206" width="48" height="48" rx="6" ry="6" fill="none" stroke="#000" stroke-width="1.5"/>
      <path d="M208.66,237l-1.93-4.94h-6.23L198.58,237h-1.83l6.14-15.61h1.52L210.53,237h-1.87Zm-2.5-6.57-1.81-4.82q-0.35-.91-0.72-2.24a20.34,20.34,0,0,1-.67,2.24l-1.83,4.82h5Z"/>
    </g>
    <use width="49.5" height="49.5" transform="translate(177.89 203.25)" xlink:href="#rnn-a"/>
  </g>
  <g opacity="0.6">
    <text transform="translate(115 22)" font-size="13" font-family="Open Sans">Memory is an array of vectors</text>
  </g>
  <g opacity="0.6">
    <text transform="translate(112 104.14)" font-size="13" font-family="Open Sans">Network A <tspan x="0" y="20">writes and reads </tspan><tspan x="0" y="40">from this memory </tspan><tspan x="0" y="60">each step</tspan></text>
  </g>
  <g>
    <line x1="226.89" y1="228" x2="360.21" y2="228" fill="none" stroke="#666" stroke-miterlimit="10" stroke-width="1.5"/>
    <path d="M365.64,228a27.2,27.2,0,0,0-7.69,4.28L359.5,228l-1.55-4.28A27.18,27.18,0,0,0,365.64,228Z" fill="#666"/>
  </g>
  <g>
    <line x1="418.89" y1="228" x2="552.21" y2="228" fill="none" stroke="#666" stroke-miterlimit="10" stroke-width="1.5"/>
    <path d="M557.64,228a27.2,27.2,0,0,0-7.69,4.28L551.5,228l-1.55-4.28A27.18,27.18,0,0,0,557.64,228Z" fill="#666"/>
  </g>
  <g>
    <line x1="610.89" y1="228" x2="744.21" y2="228" fill="none" stroke="#666" stroke-miterlimit="10" stroke-width="1.5"/>
    <path d="M749.64,228a27.2,27.2,0,0,0-7.69,4.28L743.5,228l-1.55-4.28A27.18,27.18,0,0,0,749.64,228Z" fill="#666"/>
  </g>
  <g opacity="0.6">
    <text transform="translate(185.27 294)" font-size="13" font-family="Open Sans">x0</text>
  </g>
  <g opacity="0.6">
    <text transform="translate(209.4 294)" font-size="13" font-family="Open Sans">y0</text>
  </g>
  <g>
    <line x1="191.39" y1="279.08" x2="191.39" y2="262.01" fill="none" stroke="#666" stroke-miterlimit="10" stroke-width="1.5"/>
    <path d="M191.39,256.58a27.2,27.2,0,0,0,4.28,7.69l-4.28-1.55-4.28,1.55A27.18,27.18,0,0,0,191.39,256.58Z" fill="#666"/>
  </g>
  <g>
    <line x1="215.39" y1="252.58" x2="215.39" y2="273.65" fill="none" stroke="#666" stroke-miterlimit="10" stroke-width="1.5"/>
    <path d="M215.39,279.08a27.2,27.2,0,0,0-4.28-7.69l4.28,1.55,4.28-1.55A27.18,27.18,0,0,0,215.39,279.08Z" fill="#666"/>
  </g>
  <g>
    <line x1="380.39" y1="280.41" x2="380.39" y2="262.01" fill="none" stroke="#666" stroke-miterlimit="10" stroke-width="1.5"/>
    <path d="M380.39,256.58a27.2,27.2,0,0,0,4.28,7.69l-4.28-1.55-4.28,1.55A27.18,27.18,0,0,0,380.39,256.58Z" fill="#666"/>
  </g>
  <g>
    <line x1="405.39" y1="252.58" x2="405.39" y2="274.98" fill="none" stroke="#666" stroke-miterlimit="10" stroke-width="1.5"/>
    <path d="M405.39,280.41a27.2,27.2,0,0,0-4.28-7.69l4.28,1.55,4.28-1.55A27.18,27.18,0,0,0,405.39,280.41Z" fill="#666"/>
  </g>
  <g>
    <line x1="573.22" y1="280.41" x2="573.22" y2="262.01" fill="none" stroke="#666" stroke-miterlimit="10" stroke-width="1.5"/>
    <path d="M573.22,256.58a27.2,27.2,0,0,0,4.28,7.69l-4.28-1.55-4.28,1.55A27.18,27.18,0,0,0,573.22,256.58Z" fill="#666"/>
  </g>
  <g>
    <line x1="598.22" y1="252.58" x2="598.22" y2="274.98" fill="none" stroke="#666" stroke-miterlimit="10" stroke-width="1.5"/>
    <path d="M598.22,280.41a27.2,27.2,0,0,0-4.28-7.69l4.28,1.55,4.28-1.55A27.18,27.18,0,0,0,598.22,280.41Z" fill="#666"/>
  </g>
  <g opacity="0.6">
    <text transform="translate(372.93 294)" font-size="13" font-family="Open Sans">x1</text>
  </g>
  <g opacity="0.6">
    <text transform="translate(397.06 294)" font-size="13" font-family="Open Sans">y1</text>
  </g>
  <g opacity="0.6">
    <text transform="translate(565.77 294)" font-size="13" font-family="Open Sans">x2</text>
  </g>
  <g opacity="0.6">
    <text transform="translate(589.9 294)" font-size="13" font-family="Open Sans">y2</text>
  </g>
  <g>
    <line x1="765.22" y1="280.41" x2="765.22" y2="262.01" fill="none" stroke="#666" stroke-miterlimit="10" stroke-width="1.5"/>
    <path d="M765.22,256.58a27.2,27.2,0,0,0,4.28,7.69l-4.28-1.55-4.28,1.55A27.18,27.18,0,0,0,765.22,256.58Z" fill="#666"/>
  </g>
  <g>
    <line x1="790.22" y1="252.58" x2="790.22" y2="274.98" fill="none" stroke="#666" stroke-miterlimit="10" stroke-width="1.5"/>
    <path d="M790.22,280.41a27.2,27.2,0,0,0-4.28-7.69l4.28,1.55,4.28-1.55A27.18,27.18,0,0,0,790.22,280.41Z" fill="#666"/>
  </g>
  <g opacity="0.6">
    <text transform="translate(757.77 294)" font-size="13" font-family="Open Sans">x2</text>
  </g>
  <g opacity="0.6">
    <text transform="translate(781.9 294)" font-size="13" font-family="Open Sans">y2</text>
  </g>
  <use width="36" height="36" transform="translate(113.33 34.96) scale(0.83)" xlink:href="#array-vector"/>
  <use id="array-vector-5" data-name="array-vector" width="36" height="36" transform="translate(143.37 36.22) scale(0.83)" xlink:href="#array-vector"/>
  <use width="36" height="36" transform="translate(173.41 36.22) scale(0.83)" xlink:href="#array-vector"/>
  <use id="array-vector-10" data-name="array-vector" width="36" height="36" transform="translate(203.46 35.22) scale(0.83)" xlink:href="#array-vector"/>
  <use width="36" height="36" transform="matrix(0.59, 0.59, -0.59, 0.59, 320.35, 30)" xlink:href="#array-vector"/>
  <use width="36" height="36" transform="translate(335.37 36.22) scale(0.83)" xlink:href="#array-vector"/>
  <use width="36" height="36" transform="translate(365.41 36.22) scale(0.83)" xlink:href="#array-vector"/>
  <use width="36" height="36" transform="translate(395.46 36.22) scale(0.83)" xlink:href="#array-vector"/>
  <use width="36" height="36" transform="matrix(0.59, 0.59, -0.59, 0.59, 512.35, 30)" xlink:href="#array-vector"/>
  <use width="36" height="36" transform="matrix(0.59, 0.59, -0.59, 0.59, 542.39, 30)" xlink:href="#array-vector"/>
  <use width="36" height="36" transform="translate(557.41 36.22) scale(0.83)" xlink:href="#array-vector"/>
  <use width="36" height="36" transform="translate(587.46 36.22) scale(0.83)" xlink:href="#array-vector"/>
  <use width="36" height="36" transform="matrix(0.59, 0.59, -0.59, 0.59, 704.35, 30)" xlink:href="#array-vector"/>
  <use width="36" height="36" transform="matrix(0.59, 0.59, -0.59, 0.59, 734.39, 30)" xlink:href="#array-vector"/>
  <use width="36" height="36" transform="matrix(0.59, 0.59, -0.59, 0.59, 764.43, 30)" xlink:href="#array-vector"/>
  <use width="36" height="36" transform="translate(779.46 36.22) scale(0.83)" xlink:href="#array-vector"/>
  <use width="36" height="36" transform="translate(233.33 36.22) scale(0.83)" xlink:href="#array-vector"/>
  <use width="36" height="36" transform="translate(425.33 36.22) scale(0.83)" xlink:href="#array-vector"/>
  <use width="36" height="36" transform="translate(455.33 36.22) scale(0.83)" xlink:href="#array-vector"/>
  <use id="array-vector-43" data-name="array-vector" width="36" height="36" transform="translate(263.33 36.99) scale(0.83)" xlink:href="#array-vector"/>
  <use width="36" height="36" transform="translate(617.33 36.22) scale(0.83)" xlink:href="#array-vector"/>
  <use width="36" height="36" transform="translate(647.33 36.22) scale(0.83)" xlink:href="#array-vector"/>
  <use width="36" height="36" transform="translate(809.33 36.22) scale(0.83)" xlink:href="#array-vector"/>
  <use width="36" height="36" transform="translate(841 37.99) scale(0.83)" xlink:href="#array-vector"/>
</svg>
