<svg id="background" xmlns="http://www.w3.org/2000/svg" xmlns:xlink="http://www.w3.org/1999/xlink" width="984" height="222" viewBox="0 0 984 222">
  <defs>
    <symbol id="rnn-bg" data-name="rnn-bg" viewBox="0 0 49.5 49.5">
      <rect x="0.75" y="0.75" width="48" height="48" rx="6" ry="6" fill="#fff" stroke="#666" stroke-width="1.5"/>
    </symbol>
    <symbol id="rnn-a" data-name="rnn-a" viewBox="0 0 49.5 49.5">
      <use id="rnn-bg-3" data-name="rnn-bg" width="49.5" height="49.5" xlink:href="#rnn-bg"/>
      <text transform="translate(17.86 31.75)" font-size="21.77" fill="#666" font-family="Open Sans">A</text>
    </symbol>
    <symbol id="op-1" data-name="op-1" viewBox="0 0 50.5 27.5">
      <g>
        <g opacity="0.1">
          <rect x="1.75" y="2.75" width="48" height="24" rx="12" ry="12"/>
          <rect x="1.75" y="2.75" width="48" height="24" rx="12" ry="12" fill="none" stroke="#000" stroke-miterlimit="10" stroke-width="1.5"/>
        </g>
        <g>
          <rect x="0.75" y="0.75" width="48" height="24" rx="12" ry="12" fill="#fff"/>
          <rect x="0.75" y="0.75" width="48" height="24" rx="12" ry="12" fill="none" stroke="#666" stroke-miterlimit="10" stroke-width="1.5"/>
        </g>
      </g>
      <text transform="translate(11.25 16.27)" font-size="12" fill="#666" font-family="Open Sans" font-weight="700">Op 1</text>
    </symbol>
    <symbol id="op-2" data-name="op-2" viewBox="0 0 50.5 27.5">
      <g>
        <g opacity="0.1">
          <rect x="1.75" y="2.75" width="48" height="24" rx="12" ry="12"/>
          <rect x="1.75" y="2.75" width="48" height="24" rx="12" ry="12" fill="none" stroke="#000" stroke-miterlimit="10" stroke-width="1.5"/>
        </g>
        <g>
          <rect x="0.75" y="0.75" width="48" height="24" rx="12" ry="12" fill="#fff"/>
          <rect x="0.75" y="0.75" width="48" height="24" rx="12" ry="12" fill="none" stroke="#666" stroke-miterlimit="10" stroke-width="1.5"/>
        </g>
      </g>
      <text transform="translate(11.25 16.27)" font-size="12" fill="#666" font-family="Open Sans" font-weight="700">Op 2</text>
    </symbol>
    <symbol id="op-3" data-name="op-3" viewBox="0 0 50.5 27.5">
      <g>
        <g opacity="0.1">
          <rect x="1.75" y="2.75" width="48" height="24" rx="12" ry="12"/>
          <rect x="1.75" y="2.75" width="48" height="24" rx="12" ry="12" fill="none" stroke="#000" stroke-miterlimit="10" stroke-width="1.5"/>
        </g>
        <g>
          <rect x="0.75" y="0.75" width="48" height="24" rx="12" ry="12" fill="#fff"/>
          <rect x="0.75" y="0.75" width="48" height="24" rx="12" ry="12" fill="none" stroke="#666" stroke-miterlimit="10" stroke-width="1.5"/>
        </g>
      </g>
      <text transform="translate(11.31 16.27)" font-size="12" fill="#666" font-family="Open Sans" font-weight="700">Op 3</text>
    </symbol>
  </defs>
  <title>rnn</title>
  <g id="_Group_" data-name="&lt;Group&gt;">
    <rect x="168" y="138" width="468" height="72" rx="10" ry="10" opacity="0.04"/>
    <g opacity="0.1">
      <rect x="168" y="138" width="468" height="72" rx="10" ry="10" fill="none" stroke="#231f20"/>
    </g>
  </g>
  <g>
    <g opacity="0.1">
      <rect x="181" y="152" width="48" height="48" rx="6" ry="6" stroke="#000" stroke-width="1.5"/>
      <path d="M210,183l-1.94-4.94h-6.23L199.94,183h-1.83l6.15-15.61h1.52L211.89,183H210Zm-2.5-6.57-1.81-4.82q-0.35-.91-0.72-2.24a20.24,20.24,0,0,1-.67,2.24l-1.83,4.82h5Z"/>
    </g>
    <use width="49.5" height="49.5" transform="translate(179.25 149.25)" xlink:href="#rnn-a"/>
  </g>
  <g>
    <g opacity="0.1">
      <rect x="313" y="152" width="48" height="48" rx="6" ry="6" stroke="#000" stroke-width="1.5"/>
      <path d="M342,183l-1.94-4.94h-6.23L331.94,183h-1.83l6.15-15.61h1.52L343.89,183H342Zm-2.5-6.57-1.81-4.82q-0.35-.91-0.72-2.24a20.24,20.24,0,0,1-.67,2.24l-1.83,4.82h5Z"/>
    </g>
    <use width="49.5" height="49.5" transform="translate(311.25 149.25)" xlink:href="#rnn-a"/>
  </g>
  <g>
    <g opacity="0.1">
      <rect x="445" y="152" width="48" height="48" rx="6" ry="6" stroke="#000" stroke-width="1.5"/>
      <path d="M474,183l-1.94-4.94h-6.23L463.94,183h-1.83l6.15-15.61h1.52L475.89,183H474Zm-2.5-6.57-1.81-4.82q-0.35-.91-0.72-2.24a20.24,20.24,0,0,1-.67,2.24l-1.83,4.82h5Z"/>
    </g>
    <use width="49.5" height="49.5" transform="translate(443.25 149.25)" xlink:href="#rnn-a"/>
  </g>
  <g id="_Group_2" data-name="&lt;Group&gt;">
    <g opacity="0.1">
      <rect x="577" y="152" width="48" height="48" rx="6" ry="6" stroke="#000" stroke-width="1.5"/>
      <path d="M606,183l-1.93-4.94h-6.23L595.94,183h-1.83l6.14-15.61h1.52L607.89,183H606Zm-2.5-6.57-1.81-4.82q-0.35-.91-0.72-2.24a20.34,20.34,0,0,1-.67,2.24l-1.83,4.82h5Z"/>
    </g>
    <use width="49.5" height="49.5" transform="translate(575.25 149.25)" xlink:href="#rnn-a"/>
  </g>
  <g opacity="0.9">
    <use width="50.5" height="27.5" transform="translate(180 90)" xlink:href="#op-1"/>
  </g>
  <g opacity="0.2">
    <use width="50.5" height="27.5" transform="translate(180 54)" xlink:href="#op-2"/>
  </g>
  <g opacity="0.4">
    <use width="50.5" height="27.5" transform="translate(180 18)" xlink:href="#op-3"/>
  </g>
  <g opacity="0.2">
    <use width="50.5" height="27.5" transform="translate(312 90)" xlink:href="#op-1"/>
  </g>
  <g opacity="0.9">
    <use id="op-2-5" data-name="op-2" width="50.5" height="27.5" transform="translate(312 54)" xlink:href="#op-2"/>
  </g>
  <g opacity="0.2">
    <use width="50.5" height="27.5" transform="translate(312 18)" xlink:href="#op-3"/>
  </g>
  <g opacity="0.9">
    <use id="op-1-7" data-name="op-1" width="50.5" height="27.5" transform="translate(444 90)" xlink:href="#op-1"/>
  </g>
  <g opacity="0.2">
    <use width="50.5" height="27.5" transform="translate(444 54)" xlink:href="#op-2"/>
  </g>
  <g opacity="0.2">
    <use width="50.5" height="27.5" transform="translate(444 18)" xlink:href="#op-3"/>
  </g>
  <g opacity="0.2">
    <use width="50.5" height="27.5" transform="translate(576 90)" xlink:href="#op-1"/>
  </g>
  <g opacity="0.2">
    <use width="50.5" height="27.5" transform="translate(576 54)" xlink:href="#op-2"/>
  </g>
  <g opacity="0.9">
    <use id="op-3-9" data-name="op-3" width="50.5" height="27.5" transform="translate(576 18)" xlink:href="#op-3"/>
  </g>
  <g>
    <g>
      <line x1="204" y1="150" x2="204" y2="125.43" fill="none" stroke="#666" stroke-miterlimit="10" stroke-width="1.5"/>
      <path d="M204,120a27.2,27.2,0,0,0,4.28,7.69L204,126.14l-4.28,1.55A27.17,27.17,0,0,0,204,120Z" fill="#666"/>
    </g>
    <g>
      <line x1="336" y1="150" x2="336" y2="125.43" fill="none" stroke="#666" stroke-miterlimit="10" stroke-width="1.5"/>
      <path d="M336,120a27.2,27.2,0,0,0,4.28,7.69L336,126.14l-4.28,1.55A27.17,27.17,0,0,0,336,120Z" fill="#666"/>
    </g>
    <g>
      <line x1="468" y1="150" x2="468" y2="125.43" fill="none" stroke="#666" stroke-miterlimit="10" stroke-width="1.5"/>
      <path d="M468,120a27.2,27.2,0,0,0,4.28,7.69L468,126.14l-4.28,1.55A27.17,27.17,0,0,0,468,120Z" fill="#666"/>
    </g>
    <g>
      <line x1="600" y1="150" x2="600" y2="125.43" fill="none" stroke="#666" stroke-miterlimit="10" stroke-width="1.5"/>
      <path d="M600,120a27.2,27.2,0,0,0,4.28,7.69L600,126.14l-4.28,1.55A27.17,27.17,0,0,0,600,120Z" fill="#666"/>
    </g>
    <g>
      <line x1="228" y1="174.5" x2="300.57" y2="174.5" fill="none" stroke="#666" stroke-miterlimit="10" stroke-width="1.5"/>
      <path d="M306,174.5a27.2,27.2,0,0,0-7.69,4.28l1.55-4.28-1.55-4.28A27.18,27.18,0,0,0,306,174.5Z" fill="#666"/>
    </g>
    <g>
      <line x1="360" y1="174.5" x2="432.57" y2="174.5" fill="none" stroke="#666" stroke-miterlimit="10" stroke-width="1.5"/>
      <path d="M438,174.5a27.2,27.2,0,0,0-7.69,4.28l1.55-4.28-1.55-4.28A27.18,27.18,0,0,0,438,174.5Z" fill="#666"/>
    </g>
    <g>
      <line x1="492" y1="174.5" x2="564.57" y2="174.5" fill="none" stroke="#666" stroke-miterlimit="10" stroke-width="1.5"/>
      <path d="M570,174.5a27.2,27.2,0,0,0-7.69,4.28l1.55-4.28-1.55-4.28A27.18,27.18,0,0,0,570,174.5Z" fill="#666"/>
    </g>
  </g>
</svg>
