<svg id="background" xmlns="http://www.w3.org/2000/svg" xmlns:xlink="http://www.w3.org/1999/xlink" width="984" height="330" viewBox="0 0 984 330">
  <defs>
    <symbol id="array-5" data-name="array-5" viewBox="0 0 181 37">
      <rect x="0.5" y="0.5" width="180" height="36" rx="6" ry="6" fill="#fff" stroke="#8c8c8c" stroke-miterlimit="10"/>
      <line x1="36.25" y1="36.5" x2="36.25" y2="0.5" fill="none" stroke="#8c8c8c" stroke-miterlimit="10"/>
      <line x1="72.25" y1="36.5" x2="72.25" y2="0.5" fill="none" stroke="#8c8c8c" stroke-miterlimit="10"/>
      <line x1="108.25" y1="36.5" x2="108.25" y2="0.5" fill="none" stroke="#8c8c8c" stroke-miterlimit="10"/>
      <line x1="144.25" y1="36.5" x2="144.25" y2="0.5" fill="none" stroke="#8c8c8c" stroke-miterlimit="10"/>
    </symbol>
    <symbol id="rnn-bg" data-name="rnn-bg" viewBox="0 0 49.5 49.5">
      <rect x="0.75" y="0.75" width="48" height="48" rx="6" ry="6" fill="#fff" stroke="#666" stroke-width="1.5"/>
    </symbol>
    <symbol id="rnn-a" data-name="rnn-a" viewBox="0 0 49.5 49.5">
      <use id="rnn-bg-3" data-name="rnn-bg" width="49.5" height="49.5" xlink:href="#rnn-bg"/>
      <text transform="translate(17.86 31.75)" font-size="21.77" fill="#666" font-family="Open Sans">A</text>
    </symbol>
    <symbol id="op-read" data-name="op-read" viewBox="0 0 49.54 25.5">
      <g id="_Group_7" data-name="&lt;Group&gt;">
        <g>
          <path d="M48.83,12.75a12,12,0,0,1-12,12H12.71a12,12,0,1,1,0-24H36.83a12,12,0,0,1,12,12h0Z" fill="#fff"/>
          <path d="M49.54,13.5a12,12,0,0,1-12,12H12a12,12,0,0,1-12-12V12A12,12,0,0,1,12,0H37.54a12,12,0,0,1,12,12v1.5ZM1.43,12.75c0,6.19,5.4,11.25,12,11.25H36.12c6.6,0,12-5.06,12-11.25S42.72,1.5,36.12,1.5H13.43C6.83,1.5,1.43,6.56,1.43,12.75Z" fill="#666"/>
        </g>
      </g>
      <text transform="translate(10.55 16.27)" font-size="12" fill="#666" font-family="Open Sans" font-weight="700">read</text>
    </symbol>
    <symbol id="op-write" data-name="op-write" viewBox="0 0 49.54 25.5">
      <g id="_Group_9" data-name="&lt;Group&gt;">
        <g>
          <path d="M48.83,12.75a12,12,0,0,1-12,12H12.71a12,12,0,1,1,0-24H36.83a12,12,0,0,1,12,12h0Z" fill="#fff"/>
          <path d="M49.54,13.5a12,12,0,0,1-12,12H12a12,12,0,0,1-12-12V12A12,12,0,0,1,12,0H37.54a12,12,0,0,1,12,12v1.5ZM1.43,12.75c0,6.19,5.4,11.25,12,11.25H36.12c6.6,0,12-5.06,12-11.25S42.72,1.5,36.12,1.5H13.43C6.83,1.5,1.43,6.56,1.43,12.75Z" fill="#666"/>
        </g>
      </g>
      <text transform="translate(8.4 16.27)" font-size="12" fill="#666" font-family="Open Sans" font-weight="700">write</text>
    </symbol>
    <symbol id="array-vector" data-name="array-vector" viewBox="0 0 36 36">
      <rect width="36" height="36" fill="#0080f7" opacity="0"/>
      <g>
        <line x1="18" y1="24" x2="18" y2="13.08" fill="none" stroke="#8c8c8c" stroke-miterlimit="10"/>
        <polygon points="22.09 16.4 21.36 17.08 18 13.47 14.64 17.08 13.91 16.4 18 12 22.09 16.4" fill="#8c8c8c"/>
      </g>
    </symbol>
  </defs>
  <title>rnn</title>
  <g id="_Group_" data-name="&lt;Group&gt;">
    <rect x="360" y="30" width="174" height="54" rx="10" ry="10" opacity="0.04"/>
    <g opacity="0.1">
      <rect x="360" y="30" width="174" height="54" rx="10" ry="10" fill="none" stroke="#231f20"/>
    </g>
  </g>
  <use width="181" height="37" transform="translate(371 41) scale(0.84)" xlink:href="#array-5"/>
  <g id="_Group_2" data-name="&lt;Group&gt;">
    <rect x="552" y="30" width="174" height="54" rx="10" ry="10" opacity="0.04"/>
    <g opacity="0.1">
      <rect x="552" y="30" width="174" height="54" rx="10" ry="10" fill="none" stroke="#231f20"/>
    </g>
  </g>
  <use width="181" height="37" transform="translate(563 41) scale(0.84)" xlink:href="#array-5"/>
  <g id="_Group_3" data-name="&lt;Group&gt;">
    <rect x="744" y="30" width="174" height="54" rx="10" ry="10" opacity="0.04"/>
    <g opacity="0.1">
      <rect x="744" y="30" width="174" height="54" rx="10" ry="10" fill="none" stroke="#231f20"/>
    </g>
  </g>
  <use width="181" height="37" transform="translate(755 41) scale(0.84)" xlink:href="#array-5"/>
  <g id="_Group_4" data-name="&lt;Group&gt;">
    <rect x="216" y="204" width="648" height="72" rx="10" ry="10" opacity="0.04"/>
    <g opacity="0.1">
      <rect x="216" y="204" width="648" height="72" rx="10" ry="10" fill="none" stroke="#231f20"/>
    </g>
  </g>
  <g id="_Group_5" data-name="&lt;Group&gt;">
    <rect x="168" y="30" width="174" height="54" rx="10" ry="10" opacity="0.04"/>
    <g opacity="0.1">
      <rect x="168" y="30" width="174" height="54" rx="10" ry="10" fill="none" stroke="#231f20"/>
    </g>
  </g>
  <use width="181" height="37" transform="translate(179 41) scale(0.84)" xlink:href="#array-5"/>
  <g>
    <g opacity="0.1">
      <rect x="420.14" y="218" width="48" height="48" rx="6" ry="6" stroke="#000" stroke-width="1.5"/>
      <path d="M449.16,249l-1.94-4.94H441L439.08,249h-1.83l6.15-15.61h1.52L451,249h-1.87Zm-2.5-6.57-1.81-4.82q-0.35-.91-0.72-2.24a20.24,20.24,0,0,1-.67,2.24l-1.83,4.82h5Z"/>
    </g>
    <use width="49.5" height="49.5" transform="translate(418.39 215.25)" xlink:href="#rnn-a"/>
  </g>
  <g>
    <g opacity="0.1">
      <rect x="613.64" y="218" width="48" height="48" rx="6" ry="6" stroke="#000" stroke-width="1.5"/>
      <path d="M642.66,249l-1.93-4.94h-6.23L632.58,249h-1.83l6.15-15.61h1.52L644.53,249h-1.87Zm-2.5-6.57-1.81-4.82q-0.35-.91-0.72-2.24a20.34,20.34,0,0,1-.67,2.24l-1.83,4.82h5Z"/>
    </g>
    <use width="49.5" height="49.5" transform="translate(611.89 215.25)" xlink:href="#rnn-a"/>
  </g>
  <g>
    <g opacity="0.1">
      <rect x="805.64" y="218" width="48" height="48" rx="6" ry="6" stroke="#000" stroke-width="1.5"/>
      <path d="M834.66,249l-1.93-4.94h-6.23L824.58,249h-1.83l6.15-15.61h1.52L836.53,249h-1.87Zm-2.5-6.57-1.81-4.82q-0.35-.91-0.72-2.24a20.34,20.34,0,0,1-.67,2.24l-1.83,4.82h5Z"/>
    </g>
    <use width="49.5" height="49.5" transform="translate(803.89 215.25)" xlink:href="#rnn-a"/>
  </g>
  <g>
    <path d="M282.89,84l29.83,29c3.94,3.84,11.67,7,17.17,7h34c5.5,0,13.14-3.23,17-7.17L405.1,87.89" fill="none" stroke="#666" stroke-miterlimit="10" stroke-width="1.5"/>
    <path d="M408.89,84a27.2,27.2,0,0,0-2.29,8.5l-2-4.09-4.15-1.87A27.17,27.17,0,0,0,408.89,84Z" fill="#666"/>
  </g>
  <g>
    <path d="M426.89,84l-34,34.84c-3.84,3.94-7,11.66-7,17.16v40c0,5.5,3.13,13.24,7,17.19l18.27,18.9" fill="none" stroke="#666" stroke-miterlimit="10" stroke-width="1.5"/>
    <path d="M414.89,216a27.2,27.2,0,0,0-8.42-2.56l4.15-1.86,2-4.09A27.18,27.18,0,0,0,414.89,216Z" fill="#666"/>
  </g>
  <g id="_Group_6" data-name="&lt;Group&gt;">
    <g opacity="0.1">
      <path d="M410.41,157.5a12,12,0,0,1-12,12H374.3a12,12,0,0,1,0-24h24.12a12,12,0,0,1,12,12h0Z"/>
      <path d="M411.13,158.25a12,12,0,0,1-12,12H373.58a12,12,0,0,1-12-12v-1.5a12,12,0,0,1,12-12h25.54a12,12,0,0,1,12,12v1.5ZM363,157.5c0,6.19,5.4,11.25,12,11.25H397.7c6.6,0,12-5.06,12-11.25s-5.4-11.25-12-11.25H375C368.41,146.25,363,151.31,363,157.5Z"/>
      <path d="M376.73,154.34a2.88,2.88,0,0,1,.6.05l-0.13,1.68a2,2,0,0,0-.53-0.06,1.9,1.9,0,0,0-1.33.44,1.59,1.59,0,0,0-.48,1.23V161h-1.79v-6.55h1.35l0.26,1.1h0.09a2.46,2.46,0,0,1,.82-0.89A2,2,0,0,1,376.73,154.34Z"/>
      <path d="M381.48,161.13a3.38,3.38,0,0,1-2.47-.87,3.31,3.31,0,0,1-.89-2.47,3.64,3.64,0,0,1,.82-2.55,2.93,2.93,0,0,1,2.28-.9,2.89,2.89,0,0,1,2.16.79,3,3,0,0,1,.77,2.19v0.87h-4.22a1.72,1.72,0,0,0,.45,1.19,1.59,1.59,0,0,0,1.18.43,4.91,4.91,0,0,0,1.12-.12,5.6,5.6,0,0,0,1.1-.39v1.38a4.2,4.2,0,0,1-1,.35A6.32,6.32,0,0,1,381.48,161.13Zm-0.25-5.52a1.13,1.13,0,0,0-.89.36,1.67,1.67,0,0,0-.37,1h2.51a1.49,1.49,0,0,0-.35-1A1.17,1.17,0,0,0,381.23,155.61Z"/>
      <path d="M389.77,161l-0.35-.89h0a2.64,2.64,0,0,1-.93.79,3,3,0,0,1-1.25.22,2,2,0,0,1-1.49-.54,2.07,2.07,0,0,1-.54-1.54,1.73,1.73,0,0,1,.73-1.54,4.23,4.23,0,0,1,2.2-.55l1.14,0v-0.29a0.89,0.89,0,0,0-1-1,4.65,4.65,0,0,0-1.85.47l-0.59-1.21a5.33,5.33,0,0,1,2.51-.59,3.12,3.12,0,0,1,2,.57,2.12,2.12,0,0,1,.7,1.75V161h-1.25Zm-0.53-3-0.69,0a2.21,2.21,0,0,0-1.16.28,0.88,0.88,0,0,0-.38.79,0.72,0.72,0,0,0,.87.76,1.37,1.37,0,0,0,1-.36,1.26,1.26,0,0,0,.37-0.95V158Z"/>
      <path d="M394.93,161.13a2.13,2.13,0,0,1-1.81-.9,5,5,0,0,1,0-5,2.18,2.18,0,0,1,1.85-.9,2.14,2.14,0,0,1,1.89,1h0.06a7.31,7.31,0,0,1-.13-1.31v-2.1h1.79V161h-1.37l-0.35-.85h-0.08A2,2,0,0,1,394.93,161.13Zm0.63-1.42a1.21,1.21,0,0,0,1-.4,2.32,2.32,0,0,0,.35-1.35v-0.19a2.68,2.68,0,0,0-.33-1.51,1.21,1.21,0,0,0-1.06-.46,1,1,0,0,0-.93.51,2.7,2.7,0,0,0-.33,1.47,2.56,2.56,0,0,0,.33,1.45A1.09,1.09,0,0,0,395.56,159.71Z"/>
    </g>
    <use width="49.54" height="25.5" transform="translate(360.58 142.75)" xlink:href="#op-read"/>
  </g>
  <g id="_Group_8" data-name="&lt;Group&gt;">
    <g opacity="0.1">
      <path d="M374.41,122.5a12,12,0,0,1-12,12H338.3a12,12,0,0,1,0-24h24.12a12,12,0,0,1,12,12h0Z"/>
      <path d="M375.13,123.25a12,12,0,0,1-12,12H337.58a12,12,0,0,1-12-12v-1.5a12,12,0,0,1,12-12h25.54a12,12,0,0,1,12,12v1.5ZM327,122.5c0,6.19,5.4,11.25,12,11.25H361.7c6.6,0,12-5.06,12-11.25s-5.4-11.25-12-11.25H339C332.41,111.25,327,116.31,327,122.5Z"/>
      <path d="M340.3,126l-0.5-2.29-0.68-2.89h0l-1.2,5.19H336l-1.86-6.55h1.78l0.76,2.9q0.18,0.78.37,2.15h0a12,12,0,0,1,.21-1.41l0.09-.5,0.81-3.14h2l0.77,3.14L341,123q0,0.25.1,0.54t0.08,0.56q0,0.27,0,.44h0q0.05-.42.19-1.16t0.19-1l0.79-2.9h1.75L342.25,126H340.3Z"/>
      <path d="M348.85,119.34a2.88,2.88,0,0,1,.6.05l-0.13,1.68a2,2,0,0,0-.53-0.06,1.9,1.9,0,0,0-1.33.44,1.59,1.59,0,0,0-.48,1.23V126h-1.79v-6.55h1.35l0.26,1.1h0.09a2.46,2.46,0,0,1,.82-0.89A2,2,0,0,1,348.85,119.34Z"/>
      <path d="M350.56,117.77a1,1,0,0,1,1.95,0,0.85,0.85,0,0,1-.24.65,1,1,0,0,1-.73.23A0.82,0.82,0,0,1,350.56,117.77Zm1.86,8.24h-1.79v-6.55h1.79V126Z"/>
      <path d="M357.06,124.71a3.87,3.87,0,0,0,1.13-.21v1.33a4,4,0,0,1-1.64.3,2,2,0,0,1-1.56-.54,2.36,2.36,0,0,1-.49-1.63v-3.16h-0.86v-0.76l1-.6,0.52-1.38h1.14v1.39h1.83v1.34h-1.83V124a0.7,0.7,0,0,0,.21.56A0.84,0.84,0,0,0,357.06,124.71Z"/>
      <path d="M362.48,126.13a3.38,3.38,0,0,1-2.47-.87,3.31,3.31,0,0,1-.89-2.47,3.64,3.64,0,0,1,.82-2.55,2.93,2.93,0,0,1,2.28-.9,2.89,2.89,0,0,1,2.16.79,3,3,0,0,1,.77,2.19v0.87h-4.22a1.72,1.72,0,0,0,.45,1.19,1.59,1.59,0,0,0,1.18.43,4.91,4.91,0,0,0,1.12-.12,5.6,5.6,0,0,0,1.1-.39v1.38a4.2,4.2,0,0,1-1,.35A6.32,6.32,0,0,1,362.48,126.13Zm-0.25-5.52a1.13,1.13,0,0,0-.89.36,1.67,1.67,0,0,0-.37,1h2.51a1.49,1.49,0,0,0-.35-1A1.17,1.17,0,0,0,362.22,120.61Z"/>
    </g>
    <use width="49.54" height="25.5" transform="translate(324.58 107.75)" xlink:href="#op-write"/>
  </g>
  <g>
    <g opacity="0.1">
      <rect x="229.64" y="218" width="48" height="48" rx="6" ry="6" stroke="#000" stroke-width="1.5"/>
      <path d="M258.66,249l-1.94-4.94h-6.23L248.58,249h-1.83l6.15-15.61h1.52L260.53,249h-1.87Zm-2.5-6.57-1.81-4.82q-0.35-.91-0.72-2.24a20.24,20.24,0,0,1-.67,2.24l-1.83,4.82h5Z"/>
    </g>
    <use width="49.5" height="49.5" transform="translate(227.89 215.25)" xlink:href="#rnn-a"/>
  </g>
  <g opacity="0.4">
    <g>
      <line x1="264.89" y1="216" x2="339.05" y2="141.84" fill="none" stroke="#666" stroke-miterlimit="10" stroke-width="1.5"/>
      <path d="M342.89,138a27.2,27.2,0,0,0-2.41,8.47l-1.93-4.12-4.12-1.93A27.18,27.18,0,0,0,342.89,138Z" fill="#666"/>
    </g>
  </g>
  <g opacity="0.4">
    <g>
      <path d="M276.89,222l58.93-58.93c3.89-3.89,9.77-7.07,13.07-7.07h0.57" fill="none" stroke="#666" stroke-miterlimit="10" stroke-width="1.5"/>
      <path d="M354.89,156a27.2,27.2,0,0,0-7.69,4.28l1.55-4.28-1.55-4.28A27.18,27.18,0,0,0,354.89,156Z" fill="#666"/>
    </g>
  </g>
  <g>
    <path d="M474.89,84l29.83,29c3.94,3.84,11.67,7,17.17,7h34c5.5,0,13.14-3.23,17-7.17L597.1,87.89" fill="none" stroke="#666" stroke-miterlimit="10" stroke-width="1.5"/>
    <path d="M600.89,84a27.2,27.2,0,0,0-2.29,8.5l-2-4.09-4.15-1.87A27.17,27.17,0,0,0,600.89,84Z" fill="#666"/>
  </g>
  <g>
    <path d="M618.89,84l-34,34.84c-3.84,3.94-7,11.66-7,17.16v40c0,5.5,3.13,13.24,7,17.19l18.27,18.9" fill="none" stroke="#666" stroke-miterlimit="10" stroke-width="1.5"/>
    <path d="M606.89,216a27.2,27.2,0,0,0-8.42-2.56l4.15-1.86,2-4.09A27.18,27.18,0,0,0,606.89,216Z" fill="#666"/>
  </g>
  <g id="_Group_10" data-name="&lt;Group&gt;">
    <g opacity="0.1">
      <path d="M602.41,157.5a12,12,0,0,1-12,12H566.3a12,12,0,0,1,0-24h24.12a12,12,0,0,1,12,12h0Z"/>
      <path d="M603.13,158.25a12,12,0,0,1-12,12H565.58a12,12,0,0,1-12-12v-1.5a12,12,0,0,1,12-12h25.54a12,12,0,0,1,12,12v1.5ZM555,157.5c0,6.19,5.4,11.25,12,11.25H589.7c6.6,0,12-5.06,12-11.25s-5.4-11.25-12-11.25H567C560.41,146.25,555,151.31,555,157.5Z"/>
      <path d="M568.73,154.34a2.88,2.88,0,0,1,.6.05l-0.13,1.68a2,2,0,0,0-.53-0.06,1.9,1.9,0,0,0-1.33.44,1.59,1.59,0,0,0-.48,1.23V161h-1.79v-6.55h1.35l0.26,1.1h0.09a2.46,2.46,0,0,1,.82-0.89A2,2,0,0,1,568.73,154.34Z"/>
      <path d="M573.48,161.13a3.38,3.38,0,0,1-2.47-.87,3.31,3.31,0,0,1-.89-2.47,3.64,3.64,0,0,1,.82-2.55,2.93,2.93,0,0,1,2.28-.9,2.89,2.89,0,0,1,2.16.79,3,3,0,0,1,.77,2.19v0.87h-4.22a1.72,1.72,0,0,0,.45,1.19,1.59,1.59,0,0,0,1.18.43,4.91,4.91,0,0,0,1.12-.12,5.6,5.6,0,0,0,1.1-.39v1.38a4.2,4.2,0,0,1-1,.35A6.32,6.32,0,0,1,573.48,161.13Zm-0.25-5.52a1.13,1.13,0,0,0-.89.36,1.67,1.67,0,0,0-.37,1h2.51a1.49,1.49,0,0,0-.35-1A1.17,1.17,0,0,0,573.23,155.61Z"/>
      <path d="M581.77,161l-0.35-.89h0a2.64,2.64,0,0,1-.93.79,3,3,0,0,1-1.25.22,2,2,0,0,1-1.49-.54,2.07,2.07,0,0,1-.54-1.54,1.73,1.73,0,0,1,.73-1.54,4.23,4.23,0,0,1,2.2-.55l1.14,0v-0.29a0.89,0.89,0,0,0-1-1,4.65,4.65,0,0,0-1.85.47l-0.59-1.21a5.33,5.33,0,0,1,2.51-.59,3.12,3.12,0,0,1,2,.57,2.12,2.12,0,0,1,.7,1.75V161h-1.25Zm-0.53-3-0.69,0a2.21,2.21,0,0,0-1.16.28,0.88,0.88,0,0,0-.38.79,0.72,0.72,0,0,0,.87.76,1.37,1.37,0,0,0,1-.36,1.26,1.26,0,0,0,.37-0.95V158Z"/>
      <path d="M586.93,161.13a2.13,2.13,0,0,1-1.81-.9,5,5,0,0,1,0-5,2.18,2.18,0,0,1,1.85-.9,2.14,2.14,0,0,1,1.89,1h0.06a7.31,7.31,0,0,1-.13-1.31v-2.1h1.79V161h-1.37l-0.35-.85h-0.08A2,2,0,0,1,586.93,161.13Zm0.63-1.42a1.21,1.21,0,0,0,1-.4,2.32,2.32,0,0,0,.35-1.35v-0.19a2.68,2.68,0,0,0-.33-1.51,1.21,1.21,0,0,0-1.06-.46,1,1,0,0,0-.93.51,2.7,2.7,0,0,0-.33,1.47,2.56,2.56,0,0,0,.33,1.45A1.09,1.09,0,0,0,587.56,159.71Z"/>
    </g>
    <use width="49.54" height="25.5" transform="translate(552.58 142.75)" xlink:href="#op-read"/>
  </g>
  <g id="_Group_12" data-name="&lt;Group&gt;">
    <g opacity="0.1">
      <path d="M566.41,122.5a12,12,0,0,1-12,12H530.3a12,12,0,0,1,0-24h24.12a12,12,0,0,1,12,12h0Z"/>
      <path d="M567.13,123.25a12,12,0,0,1-12,12H529.58a12,12,0,0,1-12-12v-1.5a12,12,0,0,1,12-12h25.54a12,12,0,0,1,12,12v1.5ZM519,122.5c0,6.19,5.4,11.25,12,11.25H553.7c6.6,0,12-5.06,12-11.25s-5.4-11.25-12-11.25H531C524.41,111.25,519,116.31,519,122.5Z"/>
      <path d="M532.3,126l-0.5-2.29-0.68-2.89h0l-1.2,5.19H528l-1.86-6.55h1.78l0.76,2.9q0.18,0.78.37,2.15h0a12,12,0,0,1,.21-1.41l0.09-.5,0.81-3.14h2l0.77,3.14L533,123q0,0.25.1,0.54t0.08,0.56q0,0.27,0,.44h0q0.05-.42.19-1.16t0.19-1l0.79-2.9h1.75L534.25,126H532.3Z"/>
      <path d="M540.85,119.34a2.88,2.88,0,0,1,.6.05l-0.13,1.68a2,2,0,0,0-.53-0.06,1.9,1.9,0,0,0-1.33.44,1.59,1.59,0,0,0-.48,1.23V126h-1.79v-6.55h1.35l0.26,1.1h0.09a2.46,2.46,0,0,1,.82-0.89A2,2,0,0,1,540.85,119.34Z"/>
      <path d="M542.56,117.77a1,1,0,0,1,1.95,0,0.85,0.85,0,0,1-.24.65,1,1,0,0,1-.73.23A0.82,0.82,0,0,1,542.56,117.77Zm1.86,8.24h-1.79v-6.55h1.79V126Z"/>
      <path d="M549.06,124.71a3.87,3.87,0,0,0,1.13-.21v1.33a4,4,0,0,1-1.64.3,2,2,0,0,1-1.56-.54,2.36,2.36,0,0,1-.49-1.63v-3.16h-0.86v-0.76l1-.6,0.52-1.38h1.14v1.39h1.83v1.34h-1.83V124a0.7,0.7,0,0,0,.21.56A0.84,0.84,0,0,0,549.06,124.71Z"/>
      <path d="M554.48,126.13a3.38,3.38,0,0,1-2.47-.87,3.31,3.31,0,0,1-.89-2.47,3.64,3.64,0,0,1,.82-2.55,2.93,2.93,0,0,1,2.28-.9,2.89,2.89,0,0,1,2.16.79,3,3,0,0,1,.77,2.19v0.87h-4.22a1.72,1.72,0,0,0,.45,1.19,1.59,1.59,0,0,0,1.18.43,4.91,4.91,0,0,0,1.12-.12,5.6,5.6,0,0,0,1.1-.39v1.38a4.2,4.2,0,0,1-1,.35A6.32,6.32,0,0,1,554.48,126.13Zm-0.25-5.52a1.13,1.13,0,0,0-.89.36,1.67,1.67,0,0,0-.37,1h2.51a1.49,1.49,0,0,0-.35-1A1.17,1.17,0,0,0,554.22,120.61Z"/>
    </g>
    <use width="49.54" height="25.5" transform="translate(516.58 107.75)" xlink:href="#op-write"/>
  </g>
  <g opacity="0.4">
    <g>
      <line x1="456.89" y1="216" x2="531.05" y2="141.84" fill="none" stroke="#666" stroke-miterlimit="10" stroke-width="1.5"/>
      <path d="M534.89,138a27.2,27.2,0,0,0-2.41,8.47l-1.93-4.12-4.12-1.93A27.18,27.18,0,0,0,534.89,138Z" fill="#666"/>
    </g>
  </g>
  <g opacity="0.4">
    <g>
      <path d="M468.89,222l58.93-58.93c3.89-3.89,9.77-7.07,13.07-7.07h0.57" fill="none" stroke="#666" stroke-miterlimit="10" stroke-width="1.5"/>
      <path d="M546.89,156a27.2,27.2,0,0,0-7.69,4.28l1.55-4.28-1.55-4.28A27.18,27.18,0,0,0,546.89,156Z" fill="#666"/>
    </g>
  </g>
  <g>
    <path d="M666.89,84l29.83,29c3.94,3.84,11.67,7,17.17,7h34c5.5,0,13.14-3.23,17-7.17L789.1,87.89" fill="none" stroke="#666" stroke-miterlimit="10" stroke-width="1.5"/>
    <path d="M792.89,84a27.2,27.2,0,0,0-2.29,8.5l-2-4.09-4.15-1.87A27.17,27.17,0,0,0,792.89,84Z" fill="#666"/>
  </g>
  <g>
    <path d="M810.89,84l-34,34.84c-3.84,3.94-7,11.66-7,17.16v40c0,5.5,3.13,13.24,7,17.19l18.27,18.9" fill="none" stroke="#666" stroke-miterlimit="10" stroke-width="1.5"/>
    <path d="M798.89,216a27.2,27.2,0,0,0-8.42-2.56l4.15-1.86,2-4.09A27.18,27.18,0,0,0,798.89,216Z" fill="#666"/>
  </g>
  <g id="_Group_14" data-name="&lt;Group&gt;">
    <g opacity="0.1">
      <path d="M794.41,157.5a12,12,0,0,1-12,12H758.3a12,12,0,0,1,0-24h24.12a12,12,0,0,1,12,12h0Z"/>
      <path d="M795.13,158.25a12,12,0,0,1-12,12H757.58a12,12,0,0,1-12-12v-1.5a12,12,0,0,1,12-12h25.54a12,12,0,0,1,12,12v1.5ZM747,157.5c0,6.19,5.4,11.25,12,11.25H781.7c6.6,0,12-5.06,12-11.25s-5.4-11.25-12-11.25H759C752.41,146.25,747,151.31,747,157.5Z"/>
      <path d="M760.73,154.34a2.88,2.88,0,0,1,.6.05l-0.13,1.68a2,2,0,0,0-.53-0.06,1.9,1.9,0,0,0-1.33.44,1.59,1.59,0,0,0-.48,1.23V161h-1.79v-6.55h1.35l0.26,1.1h0.09a2.46,2.46,0,0,1,.82-0.89A2,2,0,0,1,760.73,154.34Z"/>
      <path d="M765.48,161.13a3.38,3.38,0,0,1-2.47-.87,3.31,3.31,0,0,1-.89-2.47,3.64,3.64,0,0,1,.82-2.55,2.93,2.93,0,0,1,2.28-.9,2.89,2.89,0,0,1,2.16.79,3,3,0,0,1,.77,2.19v0.87h-4.22a1.72,1.72,0,0,0,.45,1.19,1.59,1.59,0,0,0,1.18.43,4.91,4.91,0,0,0,1.12-.12,5.6,5.6,0,0,0,1.1-.39v1.38a4.2,4.2,0,0,1-1,.35A6.32,6.32,0,0,1,765.48,161.13Zm-0.25-5.52a1.13,1.13,0,0,0-.89.36,1.67,1.67,0,0,0-.37,1h2.51a1.49,1.49,0,0,0-.35-1A1.17,1.17,0,0,0,765.23,155.61Z"/>
      <path d="M773.77,161l-0.35-.89h0a2.64,2.64,0,0,1-.93.79,3,3,0,0,1-1.25.22,2,2,0,0,1-1.49-.54,2.07,2.07,0,0,1-.54-1.54,1.73,1.73,0,0,1,.73-1.54,4.23,4.23,0,0,1,2.2-.55l1.14,0v-0.29a0.89,0.89,0,0,0-1-1,4.65,4.65,0,0,0-1.85.47l-0.59-1.21a5.33,5.33,0,0,1,2.51-.59,3.12,3.12,0,0,1,2,.57,2.12,2.12,0,0,1,.7,1.75V161h-1.25Zm-0.53-3-0.69,0a2.21,2.21,0,0,0-1.16.28,0.88,0.88,0,0,0-.38.79,0.72,0.72,0,0,0,.87.76,1.37,1.37,0,0,0,1-.36,1.26,1.26,0,0,0,.37-0.95V158Z"/>
      <path d="M778.93,161.13a2.13,2.13,0,0,1-1.81-.9,5,5,0,0,1,0-5,2.18,2.18,0,0,1,1.85-.9,2.14,2.14,0,0,1,1.89,1h0.06a7.31,7.31,0,0,1-.13-1.31v-2.1h1.79V161h-1.37l-0.35-.85h-0.08A2,2,0,0,1,778.93,161.13Zm0.63-1.42a1.21,1.21,0,0,0,1-.4,2.32,2.32,0,0,0,.35-1.35v-0.19a2.68,2.68,0,0,0-.33-1.51,1.21,1.21,0,0,0-1.06-.46,1,1,0,0,0-.93.51,2.7,2.7,0,0,0-.33,1.47,2.56,2.56,0,0,0,.33,1.45A1.09,1.09,0,0,0,779.56,159.71Z"/>
    </g>
    <use width="49.54" height="25.5" transform="translate(744.58 142.75)" xlink:href="#op-read"/>
  </g>
  <g id="_Group_16" data-name="&lt;Group&gt;">
    <g opacity="0.1">
      <path d="M758.41,122.5a12,12,0,0,1-12,12H722.3a12,12,0,0,1,0-24h24.12a12,12,0,0,1,12,12h0Z"/>
      <path d="M759.13,123.25a12,12,0,0,1-12,12H721.58a12,12,0,0,1-12-12v-1.5a12,12,0,0,1,12-12h25.54a12,12,0,0,1,12,12v1.5ZM711,122.5c0,6.19,5.4,11.25,12,11.25H745.7c6.6,0,12-5.06,12-11.25s-5.4-11.25-12-11.25H723C716.41,111.25,711,116.31,711,122.5Z"/>
      <path d="M724.3,126l-0.5-2.29-0.68-2.89h0l-1.2,5.19H720l-1.86-6.55h1.78l0.76,2.9q0.18,0.78.37,2.15h0a12,12,0,0,1,.21-1.41l0.09-.5,0.81-3.14h2l0.77,3.14L725,123q0,0.25.1,0.54t0.08,0.56q0,0.27,0,.44h0q0.05-.42.19-1.16t0.19-1l0.79-2.9h1.75L726.25,126H724.3Z"/>
      <path d="M732.85,119.34a2.88,2.88,0,0,1,.6.05l-0.13,1.68a2,2,0,0,0-.53-0.06,1.9,1.9,0,0,0-1.33.44,1.59,1.59,0,0,0-.48,1.23V126h-1.79v-6.55h1.35l0.26,1.1h0.09a2.46,2.46,0,0,1,.82-0.89A2,2,0,0,1,732.85,119.34Z"/>
      <path d="M734.56,117.77a1,1,0,0,1,1.95,0,0.85,0.85,0,0,1-.24.65,1,1,0,0,1-.73.23A0.82,0.82,0,0,1,734.56,117.77Zm1.86,8.24h-1.79v-6.55h1.79V126Z"/>
      <path d="M741.06,124.71a3.87,3.87,0,0,0,1.13-.21v1.33a4,4,0,0,1-1.64.3,2,2,0,0,1-1.56-.54,2.36,2.36,0,0,1-.49-1.63v-3.16h-0.86v-0.76l1-.6,0.52-1.38h1.14v1.39h1.83v1.34h-1.83V124a0.7,0.7,0,0,0,.21.56A0.84,0.84,0,0,0,741.06,124.71Z"/>
      <path d="M746.48,126.13a3.38,3.38,0,0,1-2.47-.87,3.31,3.31,0,0,1-.89-2.47,3.64,3.64,0,0,1,.82-2.55,2.93,2.93,0,0,1,2.28-.9,2.89,2.89,0,0,1,2.16.79,3,3,0,0,1,.77,2.19v0.87h-4.22a1.72,1.72,0,0,0,.45,1.19,1.59,1.59,0,0,0,1.18.43,4.91,4.91,0,0,0,1.12-.12,5.6,5.6,0,0,0,1.1-.39v1.38a4.2,4.2,0,0,1-1,.35A6.32,6.32,0,0,1,746.48,126.13Zm-0.25-5.52a1.13,1.13,0,0,0-.89.36,1.67,1.67,0,0,0-.37,1h2.51a1.49,1.49,0,0,0-.35-1A1.17,1.17,0,0,0,746.22,120.61Z"/>
    </g>
    <use width="49.54" height="25.5" transform="translate(708.58 107.75)" xlink:href="#op-write"/>
  </g>
  <g opacity="0.4">
    <g>
      <line x1="648.89" y1="216" x2="723.05" y2="141.84" fill="none" stroke="#666" stroke-miterlimit="10" stroke-width="1.5"/>
      <path d="M726.89,138a27.2,27.2,0,0,0-2.41,8.47l-1.93-4.12-4.12-1.93A27.18,27.18,0,0,0,726.89,138Z" fill="#666"/>
    </g>
  </g>
  <g opacity="0.4">
    <g>
      <path d="M660.89,222l58.93-58.93c3.89-3.89,9.77-7.07,13.07-7.07h0.57" fill="none" stroke="#666" stroke-miterlimit="10" stroke-width="1.5"/>
      <path d="M738.89,156a27.2,27.2,0,0,0-7.69,4.28l1.55-4.28-1.55-4.28A27.18,27.18,0,0,0,738.89,156Z" fill="#666"/>
    </g>
  </g>
  <text transform="translate(169 12)" font-size="12" fill="#666" font-family="Open Sans">Memory is an array of vectors</text>
  <text transform="translate(168 118.28)" font-size="12" fill="#666" font-family="Open Sans">Network A <tspan x="0" y="18">writes and reads </tspan><tspan x="0" y="36">from memory </tspan><tspan x="0" y="54">each step</tspan></text>
  <g>
    <line x1="276.89" y1="240" x2="410.21" y2="240" fill="none" stroke="#666" stroke-miterlimit="10" stroke-width="1.5"/>
    <path d="M415.64,240a27.2,27.2,0,0,0-7.69,4.28L409.5,240l-1.55-4.28A27.18,27.18,0,0,0,415.64,240Z" fill="#666"/>
  </g>
  <g>
    <line x1="468.89" y1="240" x2="602.21" y2="240" fill="none" stroke="#666" stroke-miterlimit="10" stroke-width="1.5"/>
    <path d="M607.64,240a27.2,27.2,0,0,0-7.69,4.28L601.5,240l-1.55-4.28A27.18,27.18,0,0,0,607.64,240Z" fill="#666"/>
  </g>
  <g>
    <line x1="660.89" y1="240" x2="794.21" y2="240" fill="none" stroke="#666" stroke-miterlimit="10" stroke-width="1.5"/>
    <path d="M799.64,240a27.2,27.2,0,0,0-7.69,4.28L793.5,240l-1.55-4.28A27.18,27.18,0,0,0,799.64,240Z" fill="#666"/>
  </g>
  <text transform="translate(235.82 306)" font-size="12" fill="#666" font-family="Open Sans">x0</text>
  <text transform="translate(259.94 306)" font-size="12" fill="#666" font-family="Open Sans">y0</text>
  <g>
    <line x1="241.39" y1="291.08" x2="241.39" y2="274.01" fill="none" stroke="#666" stroke-miterlimit="10" stroke-width="1.5"/>
    <path d="M241.39,268.58a27.2,27.2,0,0,0,4.28,7.69l-4.28-1.55-4.28,1.55A27.17,27.17,0,0,0,241.39,268.58Z" fill="#666"/>
  </g>
  <g>
    <line x1="265.39" y1="264.58" x2="265.39" y2="285.65" fill="none" stroke="#666" stroke-miterlimit="10" stroke-width="1.5"/>
    <path d="M265.39,291.08a27.2,27.2,0,0,0-4.28-7.69l4.28,1.55,4.28-1.55A27.18,27.18,0,0,0,265.39,291.08Z" fill="#666"/>
  </g>
  <g>
    <line x1="430.39" y1="292.41" x2="430.39" y2="274.01" fill="none" stroke="#666" stroke-miterlimit="10" stroke-width="1.5"/>
    <path d="M430.39,268.58a27.2,27.2,0,0,0,4.28,7.69l-4.28-1.55-4.28,1.55A27.17,27.17,0,0,0,430.39,268.58Z" fill="#666"/>
  </g>
  <g>
    <line x1="455.39" y1="264.58" x2="455.39" y2="286.98" fill="none" stroke="#666" stroke-miterlimit="10" stroke-width="1.5"/>
    <path d="M455.39,292.41a27.2,27.2,0,0,0-4.28-7.69l4.28,1.55,4.28-1.55A27.18,27.18,0,0,0,455.39,292.41Z" fill="#666"/>
  </g>
  <g>
    <line x1="623.22" y1="292.41" x2="623.22" y2="274.01" fill="none" stroke="#666" stroke-miterlimit="10" stroke-width="1.5"/>
    <path d="M623.22,268.58a27.2,27.2,0,0,0,4.28,7.69l-4.28-1.55-4.28,1.55A27.17,27.17,0,0,0,623.22,268.58Z" fill="#666"/>
  </g>
  <g>
    <line x1="648.22" y1="264.58" x2="648.22" y2="286.98" fill="none" stroke="#666" stroke-miterlimit="10" stroke-width="1.5"/>
    <path d="M648.22,292.41a27.2,27.2,0,0,0-4.28-7.69l4.28,1.55,4.28-1.55A27.18,27.18,0,0,0,648.22,292.41Z" fill="#666"/>
  </g>
  <text transform="translate(423.48 306)" font-size="12" fill="#666" font-family="Open Sans">x1</text>
  <text transform="translate(447.6 306)" font-size="12" fill="#666" font-family="Open Sans">y1</text>
  <text transform="translate(616.32 306)" font-size="12" fill="#666" font-family="Open Sans">x2</text>
  <text transform="translate(640.44 306)" font-size="12" fill="#666" font-family="Open Sans">y2</text>
  <g>
    <line x1="815.22" y1="292.41" x2="815.22" y2="274.01" fill="none" stroke="#666" stroke-miterlimit="10" stroke-width="1.5"/>
    <path d="M815.22,268.58a27.2,27.2,0,0,0,4.28,7.69l-4.28-1.55-4.28,1.55A27.17,27.17,0,0,0,815.22,268.58Z" fill="#666"/>
  </g>
  <g>
    <line x1="840.22" y1="264.58" x2="840.22" y2="286.98" fill="none" stroke="#666" stroke-miterlimit="10" stroke-width="1.5"/>
    <path d="M840.22,292.41a27.2,27.2,0,0,0-4.28-7.69l4.28,1.55,4.28-1.55A27.18,27.18,0,0,0,840.22,292.41Z" fill="#666"/>
  </g>
  <text transform="translate(808.32 306)" font-size="12" fill="#666" font-family="Open Sans">x2</text>
  <text transform="translate(832.44 306)" font-size="12" fill="#666" font-family="Open Sans">y2</text>
  <use width="36" height="36" transform="translate(180 41.45) scale(0.83)" xlink:href="#array-vector"/>
  <use width="36" height="36" transform="translate(210.04 41.45) scale(0.83)" xlink:href="#array-vector"/>
  <use width="36" height="36" transform="translate(240.08 41.45) scale(0.83)" xlink:href="#array-vector"/>
  <use width="36" height="36" transform="translate(270.12 41.45) scale(0.83)" xlink:href="#array-vector"/>
  <use width="36" height="36" transform="matrix(0.59, 0.59, -0.59, 0.59, 387.02, 35.23)" xlink:href="#array-vector"/>
  <use width="36" height="36" transform="translate(402.04 41.45) scale(0.83)" xlink:href="#array-vector"/>
  <use width="36" height="36" transform="translate(432.08 41.45) scale(0.83)" xlink:href="#array-vector"/>
  <use width="36" height="36" transform="translate(462.12 41.45) scale(0.83)" xlink:href="#array-vector"/>
  <use width="36" height="36" transform="matrix(0.59, 0.59, -0.59, 0.59, 579.02, 35.23)" xlink:href="#array-vector"/>
  <use width="36" height="36" transform="matrix(0.59, 0.59, -0.59, 0.59, 609.06, 35.23)" xlink:href="#array-vector"/>
  <use width="36" height="36" transform="translate(624.08 41.45) scale(0.83)" xlink:href="#array-vector"/>
  <use width="36" height="36" transform="translate(654.12 41.45) scale(0.83)" xlink:href="#array-vector"/>
  <use width="36" height="36" transform="matrix(0.59, 0.59, -0.59, 0.59, 771.02, 35.23)" xlink:href="#array-vector"/>
  <use width="36" height="36" transform="matrix(0.59, 0.59, -0.59, 0.59, 801.06, 35.23)" xlink:href="#array-vector"/>
  <use width="36" height="36" transform="matrix(0.59, 0.59, -0.59, 0.59, 831.1, 35.23)" xlink:href="#array-vector"/>
  <use width="36" height="36" transform="translate(846.12 41.45) scale(0.83)" xlink:href="#array-vector"/>
  <use width="36" height="36" transform="translate(300 41.45) scale(0.83)" xlink:href="#array-vector"/>
  <use width="36" height="36" transform="translate(492 41.45) scale(0.83)" xlink:href="#array-vector"/>
  <use width="36" height="36" transform="translate(684 41.45) scale(0.83)" xlink:href="#array-vector"/>
  <use width="36" height="36" transform="translate(876 41.45) scale(0.83)" xlink:href="#array-vector"/>
</svg>
