<svg id="background" xmlns="http://www.w3.org/2000/svg" xmlns:xlink="http://www.w3.org/1999/xlink" width="984" height="180" viewBox="0 0 984 180">
  <defs>
    <symbol id="op-bg" data-name="op-bg" viewBox="0 0 22.5 22.5">
      <circle cx="11.25" cy="11.25" r="11.25" fill="#798294"/>
    </symbol>
    <symbol id="op-sum_2" data-name="op-sum 2" viewBox="0 0 22.5 22.5">
      <use width="22.5" height="22.5" xlink:href="#op-bg"/>
      <path d="M9.13,8.33a1.77,1.77,0,0,1,.69-1.47,3,3,0,0,1,1.89-.54,4.84,4.84,0,0,1,1.87.38v1.1a5.22,5.22,0,0,0-1.88-.4,1.57,1.57,0,0,0-.93.25,0.78,0.78,0,0,0-.35.67q0,0.74,1.51,1.26A4.6,4.6,0,0,1,14.14,11a3.75,3.75,0,0,1,.74,2.26v0.27a4.23,4.23,0,0,1-.4,1.87,3,3,0,0,1-1.15,1.28,3.29,3.29,0,0,1-1.74.45,3.08,3.08,0,0,1-2.42-1,3.86,3.86,0,0,1-.9-2.66V13.38a3.42,3.42,0,0,1,.64-2,2.76,2.76,0,0,1,1.63-1.14v0a2.36,2.36,0,0,1-1-.75A1.76,1.76,0,0,1,9.13,8.33Zm0.42,5.2a3,3,0,0,0,.55,1.89,1.8,1.8,0,0,0,1.49.69,1.79,1.79,0,0,0,1.48-.69,3.23,3.23,0,0,0,.55-2A2.67,2.67,0,0,0,13,11.71a2.35,2.35,0,0,0-1.43-.92,1.81,1.81,0,0,0-1.49.7A3.19,3.19,0,0,0,9.55,13.53Z" fill="#fff"/>
    </symbol>
    <symbol id="rnn-bg" data-name="rnn-bg" viewBox="0 0 48 48">
      <rect width="48" height="48" rx="6" ry="6" fill="#798294"/>
    </symbol>
    <symbol id="rnn-s" data-name="rnn-s" viewBox="0 0 48 48">
      <use id="rnn-bg-3" data-name="rnn-bg" width="48" height="48" xlink:href="#rnn-bg"/>
      <text transform="translate(16.74 31)" font-size="21.77" fill="#fff" font-family="Helvetica">S</text>
    </symbol>
    <symbol id="op-sum" data-name="op-sum" viewBox="0 0 22.5 22.5">
      <use id="op-bg-9" data-name="op-bg" width="22.5" height="22.5" xlink:href="#op-bg"/>
      <path d="M7.13,11.75V10.43h3.41V7h1.34v3.43h3.41v1.31H11.87v3.42H10.54V11.75H7.13Z" fill="#fff"/>
    </symbol>
  </defs>
  <title>rnn</title>
  <g id="_Group_" data-name="&lt;Group&gt;">
    <path d="M372,162.48c0,3-3,5.52-6.69,5.52H176.67c-4.77,0-8.67-2.48-8.67-5.52V22c0-5.49,3.9-10,8.67-10H365.31C369,12,372,16.49,372,22V162.48Z" fill="#e6eaf2"/>
  </g>
  <g id="_Group_2" data-name="&lt;Group&gt;">
    <path d="M732,162.48c0,3-3,5.52-6.69,5.52H392.67c-4.77,0-8.67-2.48-8.67-5.52V22c0-5.49,3.9-10,8.67-10H725.31C729,12,732,16.49,732,22V162.48Z" fill="#e6eaf2"/>
  </g>
  <path d="M876,162.48c0,3-3,5.52-6.69,5.52H752.67c-4.77,0-8.67-2.48-8.67-5.52V22c0-5.49,3.9-10,8.67-10H869.31C873,12,876,16.49,876,22V162.48Z" fill="#e6eaf2"/>
  <g>
    <line x1="204" y1="180" x2="204" y2="109.08" fill="none" stroke="#8c8c8c" stroke-miterlimit="10"/>
    <polygon points="208.09 112.4 207.36 113.08 204 109.47 200.64 113.08 199.91 112.4 204 108 208.09 112.4" fill="#8c8c8c"/>
  </g>
  <g>
    <path d="M204,180V162a6,6,0,0,1,6-6l59.5,0.42a6,6,0,0,0,6-6V109.08" fill="none" stroke="#8c8c8c" stroke-miterlimit="10"/>
    <polygon points="279.59 112.4 278.86 113.08 275.5 109.47 272.14 113.08 271.41 112.4 275.5 108 279.59 112.4" fill="#8c8c8c"/>
  </g>
  <g>
    <line x1="420" y1="180" x2="420" y2="109.08" fill="none" stroke="#8c8c8c" stroke-miterlimit="10"/>
    <polygon points="424.09 112.4 423.36 113.08 420 109.47 416.64 113.08 415.91 112.4 420 108 424.09 112.4" fill="#8c8c8c"/>
  </g>
  <g>
    <line x1="780" y1="180" x2="780" y2="109.08" fill="none" stroke="#8c8c8c" stroke-miterlimit="10"/>
    <polygon points="784.09 112.4 783.36 113.08 780 109.47 776.64 113.08 775.91 112.4 780 108 784.09 112.4" fill="#8c8c8c"/>
  </g>
  <g>
    <path d="M444,156l42.5,0.44a5.94,5.94,0,0,0,6-5.94V109.08" fill="none" stroke="#8c8c8c" stroke-miterlimit="10"/>
    <polygon points="496.59 112.4 495.86 113.08 492.5 109.47 489.14 113.08 488.41 112.4 492.5 108 496.59 112.4" fill="#8c8c8c"/>
  </g>
  <g>
    <path d="M444,156l114.5,0.48a6,6,0,0,0,6-6V109.08" fill="none" stroke="#8c8c8c" stroke-miterlimit="10"/>
    <polygon points="568.59 112.4 567.86 113.08 564.5 109.47 561.14 113.08 560.41 112.4 564.5 108 568.59 112.4" fill="#8c8c8c"/>
  </g>
  <g>
    <path d="M420,180V162a6,6,0,0,1,6-6l204.5,0.47a6,6,0,0,0,6-6V109.08" fill="none" stroke="#8c8c8c" stroke-miterlimit="10"/>
    <polygon points="640.59 112.4 639.86 113.08 636.5 109.47 633.14 113.08 632.41 112.4 636.5 108 640.59 112.4" fill="#8c8c8c"/>
  </g>
  <g>
    <line x1="228" y1="84.5" x2="250.92" y2="84.5" fill="none" stroke="#8c8c8c" stroke-miterlimit="10"/>
    <polygon points="247.6 88.59 246.92 87.86 250.53 84.5 246.92 81.14 247.6 80.41 252 84.5 247.6 88.59" fill="#8c8c8c"/>
  </g>
  <g>
    <line x1="444" y1="84.5" x2="466.92" y2="84.5" fill="none" stroke="#8c8c8c" stroke-miterlimit="10"/>
    <polygon points="463.6 88.59 462.92 87.86 466.53 84.5 462.92 81.14 463.6 80.41 468 84.5 463.6 88.59" fill="#8c8c8c"/>
  </g>
  <g>
    <line x1="516" y1="84.5" x2="538.92" y2="84.5" fill="none" stroke="#8c8c8c" stroke-miterlimit="10"/>
    <polygon points="535.6 88.59 534.92 87.86 538.53 84.5 534.92 81.14 535.6 80.41 540 84.5 535.6 88.59" fill="#8c8c8c"/>
  </g>
  <g>
    <line x1="588" y1="84.5" x2="610.92" y2="84.5" fill="none" stroke="#8c8c8c" stroke-miterlimit="10"/>
    <polygon points="607.6 88.59 606.92 87.86 610.53 84.5 606.92 81.14 607.6 80.41 612 84.5 607.6 88.59" fill="#8c8c8c"/>
  </g>
  <path d="M324,38.5h-6.5a6,6,0,0,0-6,6v34a5.9,5.9,0,0,1-5.75,6H300" fill="none" stroke="#8c8c8c" stroke-miterlimit="10"/>
  <path d="M444,84.5h5.75a5.9,5.9,0,0,0,5.75-6v-40a6,6,0,0,1,6-6H695" fill="none" stroke="#8c8c8c" stroke-miterlimit="10"/>
  <path d="M516,84.5h5.75a5.9,5.9,0,0,0,5.75-6v-37a6,6,0,0,1,6-6H695" fill="none" stroke="#8c8c8c" stroke-miterlimit="10"/>
  <path d="M695,38.5H605.5a6,6,0,0,0-6,6v34a5.9,5.9,0,0,1-5.75,6H588" fill="none" stroke="#8c8c8c" stroke-miterlimit="10"/>
  <path d="M695,41.5H677.5a6,6,0,0,0-6,6v31a5.9,5.9,0,0,1-5.75,6H660" fill="none" stroke="#8c8c8c" stroke-miterlimit="10"/>
  <g>
    <path d="M346,36.5h7.5a5.94,5.94,0,0,1,5.94,6l-0.37,36a5.94,5.94,0,0,0,5.94,6h29.92" fill="none" stroke="#8c8c8c" stroke-miterlimit="10"/>
    <polygon points="391.6 88.59 390.92 87.86 394.53 84.5 390.92 81.14 391.6 80.41 396 84.5 391.6 88.59" fill="#8c8c8c"/>
  </g>
  <path d="M228,84.5l6-.25A6.33,6.33,0,0,0,240,78V42a6.06,6.06,0,0,1,6-6l78-.46" fill="none" stroke="#8c8c8c" stroke-miterlimit="10"/>
  <g>
    <path d="M346,36.5h7.5a6,6,0,0,0,6-6V1.08" fill="none" stroke="#8c8c8c" stroke-miterlimit="10"/>
    <polygon points="363.59 4.4 362.86 5.08 359.5 1.47 356.14 5.08 355.41 4.4 359.5 0 363.59 4.4" fill="#8c8c8c"/>
  </g>
  <g>
    <path d="M706,36.5h7.5a5.94,5.94,0,0,1,5.94,6l-0.37,36a5.94,5.94,0,0,0,5.94,6h29.92" fill="none" stroke="#8c8c8c" stroke-miterlimit="10"/>
    <polygon points="751.6 88.59 750.92 87.86 754.53 84.5 750.92 81.14 751.6 80.41 756 84.5 751.6 88.59" fill="#8c8c8c"/>
  </g>
  <g>
    <path d="M706,36.5h7.5a6,6,0,0,0,6-6V1.08" fill="none" stroke="#8c8c8c" stroke-miterlimit="10"/>
    <polygon points="723.59 4.4 722.86 5.08 719.5 1.47 716.14 5.08 715.41 4.4 719.5 0 723.59 4.4" fill="#8c8c8c"/>
  </g>
  <path d="M828,36.5h-6.5a6,6,0,0,0-6,6v36a5.9,5.9,0,0,1-5.75,6H804" fill="none" stroke="#8c8c8c" stroke-miterlimit="10"/>
  <g>
    <path d="M850,36.5h7.5a6.09,6.09,0,0,1,6.06,6L863.94,78A6.25,6.25,0,0,0,870,84.13l16.92,0.35" fill="none" stroke="#8c8c8c" stroke-miterlimit="10"/>
    <polygon points="883.52 88.5 882.85 87.75 886.53 84.47 882.99 81.04 883.69 80.32 888 84.5 883.52 88.5" fill="#8c8c8c"/>
  </g>
  <g>
    <path d="M850,36.5h7.5a6,6,0,0,0,6-6V1.08" fill="none" stroke="#8c8c8c" stroke-miterlimit="10"/>
    <polygon points="867.59 4.4 866.86 5.08 863.5 1.47 860.14 5.08 859.41 4.4 863.5 0 867.59 4.4" fill="#8c8c8c"/>
  </g>
  <use width="22.5" height="22.5" transform="translate(193.5 120)" xlink:href="#op-sum_2"/>
  <use id="rnn-s-3" data-name="rnn-s" width="48" height="48" transform="translate(180 60)" xlink:href="#rnn-s"/>
  <use id="rnn-s-6" data-name="rnn-s" width="48" height="48" transform="translate(252 60)" xlink:href="#rnn-s"/>
  <use id="rnn-s-9" data-name="rnn-s" width="48" height="48" transform="translate(396 60)" xlink:href="#rnn-s"/>
  <use id="rnn-s-12" data-name="rnn-s" width="48" height="48" transform="translate(468 60)" xlink:href="#rnn-s"/>
  <use id="rnn-s-15" data-name="rnn-s" width="48" height="48" transform="translate(540 60)" xlink:href="#rnn-s"/>
  <use id="rnn-s-18" data-name="rnn-s" width="48" height="48" transform="translate(612 60)" xlink:href="#rnn-s"/>
  <use id="rnn-s-21" data-name="rnn-s" width="48" height="48" transform="translate(756 60)" xlink:href="#rnn-s"/>
  <use width="22.5" height="22.5" transform="translate(409.5 120)" xlink:href="#op-sum_2"/>
  <use width="22.5" height="22.5" transform="translate(769.5 120)" xlink:href="#op-sum_2"/>
  <use id="op-sum-3" data-name="op-sum" width="22.5" height="22.5" transform="translate(827.5 25.14)" xlink:href="#op-sum"/>
  <use id="op-sum-6" data-name="op-sum" width="22.5" height="22.5" transform="translate(324 25.14)" xlink:href="#op-sum"/>
  <use id="op-sum-9" data-name="op-sum" width="22.5" height="22.5" transform="translate(683.5 25.14)" xlink:href="#op-sum"/>
</svg>
