<svg id="edges" xmlns="http://www.w3.org/2000/svg" xmlns:xlink="http://www.w3.org/1999/xlink" viewBox="0 0 744 252">
  <defs>
    <symbol id="array-7" data-name="array-7" viewBox="0 0 253.5 37.5">
      <rect x="0.75" y="0.75" width="252" height="36" rx="6" ry="6" fill="#fff" stroke="#8c8c8c" stroke-miterlimit="10" stroke-width="1.5"/>
      <line x1="36.25" y1="36.75" x2="36.25" y2="0.75" fill="none" stroke="#8c8c8c" stroke-miterlimit="10"/>
      <line x1="72.25" y1="36.75" x2="72.25" y2="0.75" fill="none" stroke="#8c8c8c" stroke-miterlimit="10"/>
      <line x1="108.25" y1="36.75" x2="108.25" y2="0.75" fill="none" stroke="#8c8c8c" stroke-miterlimit="10"/>
      <line x1="144.25" y1="36.75" x2="144.25" y2="0.75" fill="none" stroke="#8c8c8c" stroke-miterlimit="10"/>
      <line x1="180.25" y1="36.75" x2="180.25" y2="0.75" fill="none" stroke="#8c8c8c" stroke-miterlimit="10"/>
      <line x1="216.25" y1="36.75" x2="216.25" y2="0.75" fill="none" stroke="#8c8c8c" stroke-miterlimit="10"/>
    </symbol>
    <symbol id="array-1" data-name="array-1" viewBox="0 0 37.5 37.5">
      <rect x="0.75" y="0.75" width="36" height="36" rx="6" ry="6" fill="#fff" stroke="#8c8c8c" stroke-miterlimit="10" stroke-width="1.5"/>
    </symbol>
    <symbol id="array-vector" data-name="array-vector" viewBox="0 0 36 36">
      <rect width="36" height="36" fill="#d8c2f2" opacity="0"/>
      <g opacity="0.5">
        <g>
          <line x1="18" y1="24" x2="18" y2="13.08" fill="none" stroke="#000" stroke-miterlimit="10"/>
          <polygon points="22.09 16.4 21.36 17.08 18 13.47 14.64 17.08 13.91 16.4 18 12 22.09 16.4"/>
        </g>
      </g>
    </symbol>
    <symbol id="array-positive-value" data-name="array-positive-value" viewBox="0 0 36 36">
      <rect width="36" height="36" fill="#0080f7" opacity="0"/>
      <rect x="4.42" y="4.42" width="27.17" height="27.17" rx="6" ry="6" fill="#3a5edd" opacity="0.8"/>
    </symbol>
    <symbol id="pointer" data-name="pointer" viewBox="0 0 26.87 26.87">
      <circle cx="13.43" cy="13.43" r="12.93" fill="none" stroke="#ffdc8c" stroke-miterlimit="10"/>
      <circle cx="13.43" cy="13.43" r="10.38" fill="#ffb200"/>
      <polygon points="11.32 19.26 11.32 17.43 10.72 17.43 10.71 16.14 10.1 16.21 10.1 15 9.54 14.99 9.46 13.78 8.88 13.78 8.89 13.16 8.28 13.16 8.28 11.34 10.11 11.34 10.11 11.94 10.71 11.94 10.71 6.46 11.33 6.45 11.33 5.86 12.54 5.86 12.54 6.45 13.16 6.47 13.16 8.89 14.37 8.89 14.39 9.49 16.21 9.51 16.21 10.12 17.43 10.12 17.43 10.79 18.04 10.73 18.05 11.39 18.65 11.33 18.65 15.61 18.04 15.52 17.98 17.43 17.43 17.43 17.43 19.26 11.32 19.26" fill="#fff" opacity="0.2"/>
      <g>
        <path d="M10.11,11.94c0-.09,0-0.19,0-0.28s0-.21,0-0.32H8.28v1.82H8.89V11.95h1.23v0.63h0.6v0.6h0.61V13.09q0-2.4,0-4.8,0-.92,0-1.85h1.21V5.85H11.33v0.6H10.71v5.47h-0.6Zm4.28-2.44a0.45,0.45,0,0,1,0-.07c0-.15,0-0.3,0-0.45s0,0,0-.08H13.16V6.47H12.55v5.47h0.61V9.51h1.24s0,0.06,0,.09q0,1.12,0,2.25s0,0.07,0,.1H15V10.12h1.23v2.43h0.6V10.71l0.57,0s0,0,0,.05,0,0.29,0,.44,0,0.07,0,.11H18a0,0,0,0,1,.06.06c0,0.24,0,.48,0,0.72q0,1.71,0,3.41s0,0,0,.08h-0.6s0,0,0,0q0,0.86,0,1.72s0,0,0,.06H16.81v1.21H11.94V17.42H11.33V16.21h-0.6a11.4,11.4,0,0,0,0,1.22h0.6v1.83c2,0,4.07,0,6.11,0,0-.1,0-0.19,0-0.28,0-.46,0-0.93,0-1.39a1.53,1.53,0,0,0,0-.16H18c0.05,0,.07,0,0.07-0.07,0-.45,0-0.89,0-1.34,0-.13,0-0.26,0-0.4l0.3,0h0.3V11.33H18v-0.6H17.43V10.11H16.21V9.51H14.39ZM10.1,15v1.21h0.52a0.07,0.07,0,0,0,.08-0.08c0-.32,0-0.65,0-1,0-.06,0-0.11,0-0.17H10.11V13.77H9.49V13.16H8.91a2.7,2.7,0,0,0,0,.62H9.47s0,0,0,.07,0,0.27,0,.41,0,0.45,0,.68a0,0,0,0,0,.05.06H10.1Z" fill="#fff"/>
        <path d="M17.43,17.43s0,0,0-.06q0-.86,0-1.72s0,0,0,0H18s0-.06,0-0.08q0-1.71,0-3.41c0-.24,0-0.48,0-0.72A0,0,0,0,0,18,11.33H17.44s0-.07,0-0.11,0-.29,0-0.44,0-.05,0-0.05l-0.57,0v1.84h-0.6V10.12H15v1.82H14.38s0-.07,0-0.1q0-1.12,0-2.25s0-.06,0-0.09h1.81v0.6h1.22v0.62H18v0.6h0.61v4.28h-0.3l-0.3,0c0,0.14,0,.27,0,0.4,0,0.45,0,.89,0,1.34,0,0.05,0,.07-0.07.07H17.43Z" fill="#fff"/>
        <path d="M17.43,17.43a1.53,1.53,0,0,1,0,.16c0,0.46,0,.93,0,1.39,0,0.09,0,.17,0,0.28-2,0-4.06,0-6.11,0V17.43h-0.6a11.4,11.4,0,0,1,0-1.22h0.6v1.21h0.61v1.22h4.88V17.43h0.62Z" fill="#fff"/>
        <path d="M11.33,6.45q0,0.92,0,1.85,0,2.4,0,4.8v0.07H10.72v-0.6h-0.6V11.93h0.6V6.46h0.61Z" fill="#fff"/>
        <path d="M14.39,9.49H13.16v2.43H12.55V6.47h0.61V8.89h1.21s0,0.06,0,.08,0,0.3,0,.45a0.44,0.44,0,0,0,0,.07h0Z" fill="#fff"/>
        <path d="M10.1,15H9.54a0,0,0,0,1-.05-0.06c0-.23,0-0.45,0-0.68s0-.27,0-0.41,0,0,0-.07H8.88a2.7,2.7,0,0,1,0-.62H9.49v0.61h0.62V15h0.61c0,0.06,0,.12,0,0.17,0,0.32,0,.65,0,1a0.07,0.07,0,0,1-.08.08H10.1V15Z" fill="#fff"/>
        <path d="M10.11,11.93H8.89v1.21H8.28V11.34h1.83c0,0.11,0,.21,0,0.32s0,0.19,0,.28h0Z" fill="#fff"/>
        <path d="M11.33,6.45V5.85h1.21v0.6H11.33Z" fill="#fff"/>
      </g>
    </symbol>
  </defs>
  <title>rnn</title>
  <g id="paths">
    <path id="edge0" d="M66,47v66.12c0.56,24,102,24.22,102,76.88" fill="none" stroke="#2a71d8" stroke-miterlimit="10" stroke-width="1.5"/>
    <path id="edge1" d="M102,47v66.12c0.56,24,68,24.22,68,76.88" fill="none" stroke="#2a71d8" stroke-miterlimit="10" stroke-width="1.5"/>
    <path id="edge2" d="M138.07,47v66.12c0.56,24,33.93,24.22,33.93,76.88" fill="none" stroke="#2a71d8" stroke-miterlimit="10" stroke-width="1.5"/>
    <path id="edge3" d="M174,47V191" fill="none" stroke="#2a71d8" stroke-miterlimit="10" stroke-width="1.5"/>
    <path id="edge4" d="M210,47v66.12c-0.56,24-34,24.22-34,76.88" fill="none" stroke="#2a71d8" stroke-miterlimit="10" stroke-width="1.5"/>
    <path id="edge5" d="M246,47v66.12c-0.56,24-68,24.22-68,76.88" fill="none" stroke="#2a71d8" stroke-miterlimit="10" stroke-width="1.5"/>
    <path id="edge6" d="M282,47v66.12c-0.56,24-102,24.22-102,76.88" fill="none" stroke="#2a71d8" stroke-miterlimit="10" stroke-width="1.5"/>
  </g>
  <use id="array-7-3" data-name="array-7" width="253.5" height="37.5" transform="translate(47.75 10.75)" xlink:href="#array-7"/>
  <use id="array-7-6" data-name="array-7" width="253.5" height="37.5" transform="translate(47.75 69.75)" xlink:href="#array-7"/>
  <use id="array-1-3" data-name="array-1" width="37.5" height="37.5" transform="translate(155.75 189.75)" xlink:href="#array-1"/>
  <g opacity="0.6">
    <text transform="translate(316 34)" font-size="13" font-family="Open Sans">attention</text>
  </g>
  <g opacity="0.6">
    <text transform="translate(316 92)" font-size="13" font-family="Open Sans">memory</text>
  </g>
  <g id="read-result">
    <use width="36" height="36" transform="translate(157 191)" xlink:href="#array-vector"/>
  </g>
  <g id="attention">
    <use id="array-positive-value-3" data-name="array-positive-value" width="36" height="36" transform="translate(48 11)" xlink:href="#array-positive-value"/>
    <use width="36" height="36" transform="translate(84 11)" xlink:href="#array-positive-value"/>
    <use width="36" height="36" transform="translate(120 11)" xlink:href="#array-positive-value"/>
    <use width="36" height="36" transform="translate(156 11)" xlink:href="#array-positive-value"/>
    <use width="36" height="36" transform="translate(192 11)" xlink:href="#array-positive-value"/>
    <use width="36" height="36" transform="translate(228 11)" xlink:href="#array-positive-value"/>
    <use width="36" height="36" transform="translate(264 11)" xlink:href="#array-positive-value"/>
  </g>
  <g id="memory">
    <use width="36" height="36" transform="translate(48 71)" xlink:href="#array-vector"/>
    <use width="36" height="36" transform="translate(84 71)" xlink:href="#array-vector"/>
    <use width="36" height="36" transform="translate(120 71)" xlink:href="#array-vector"/>
    <use width="36" height="36" transform="translate(156 71)" xlink:href="#array-vector"/>
    <use width="36" height="36" transform="translate(192 71)" xlink:href="#array-vector"/>
    <use width="36" height="36" transform="translate(228 71)" xlink:href="#array-vector"/>
    <use id="array-vector-17" data-name="array-vector" width="36" height="36" transform="translate(264 71)" xlink:href="#array-vector"/>
  </g>
  <use id="pointer-3" data-name="pointer" width="26.87" height="26.87" transform="translate(9.84 15.06)" xlink:href="#pointer"/>
  <g opacity="0.6">
    <text transform="translate(440 33.88)" font-size="13" font-family="Open Sans">The RNN gives an attention distribution <tspan x="0" y="20">which describe how we spread out the </tspan><tspan x="0" y="40">amount we care about different memory </tspan><tspan x="0" y="60">positions</tspan></text>
  </g>
  <g opacity="0.6">
    <text transform="translate(440 172.81)" font-size="13" font-family="Open Sans">The read result is a weighted sum.</text>
  </g>
  <g opacity="0.6">
    <g>
      <line x1="202" y1="207" x2="203" y2="207" fill="none" stroke="#000" stroke-miterlimit="10" stroke-width="0.5"/>
      <line x1="205.01" y1="207" x2="413" y2="207" fill="none" stroke="#000" stroke-miterlimit="10" stroke-width="0.5" stroke-dasharray="2.01 2.01"/>
      <line x1="414" y1="207" x2="415" y2="207" fill="none" stroke="#000" stroke-miterlimit="10" stroke-width="0.5"/>
    </g>
  </g>
  <g>
    <path d="M443,205.59a1.5,1.5,0,0,0,0-.17l0.11-.48a4.07,4.07,0,0,1,.22-0.67q0.13-.3.33-0.71a2.31,2.31,0,0,1,.43-0.65,4.86,4.86,0,0,1,.56-0.48,1,1,0,0,1,.72-0.2,2.27,2.27,0,0,1,1.11.26,2.61,2.61,0,0,1,.67.48,0.93,0.93,0,0,1,.24.43,0.23,0.23,0,0,0,.07.13,0.76,0.76,0,0,0,.17-0.15,3.19,3.19,0,0,1,2.41-1.13h0.06a1.69,1.69,0,0,1,1.56.89,2.06,2.06,0,0,1,.17.8,1.74,1.74,0,0,1-.28,1,1.35,1.35,0,0,1-.56.5,1.22,1.22,0,0,1-.54.09,1,1,0,0,1-.69-0.24,0.81,0.81,0,0,1-.26-0.63,1.41,1.41,0,0,1,1.21-1.39A1.66,1.66,0,0,0,450,203a2.8,2.8,0,0,0-2.23,1.6,2.88,2.88,0,0,0-.33.72q-0.11.37-.74,2.88-0.74,3-.85,3.23a1,1,0,0,1-.93.59,0.74,0.74,0,0,1-.46-0.13,0.78,0.78,0,0,1-.24-0.26,0.32,0.32,0,0,1,0-.22q0-.28.87-3.73a37.67,37.67,0,0,0,.87-3.84q0-.85-0.56-0.85a0.93,0.93,0,0,0-.78.61A6.3,6.3,0,0,0,444,205a6.18,6.18,0,0,1-.24.78,0.72,0.72,0,0,1-.35,0h-0.3A0.36,0.36,0,0,1,443,205.59Z" fill="#666"/>
    <path d="M478.79,206.15v0.24a0.54,0.54,0,0,1-.33.43H461.91l0.37,0.3a5.92,5.92,0,0,1,.63.59q0.3,0.33.71,0.8a4.41,4.41,0,0,1,.72,1.21q0.3,0.74.56,1.54a2.44,2.44,0,0,1,.11.54q0,0.24-.43.24h-0.22a0.17,0.17,0,0,1-.13-0.09,0.85,0.85,0,0,1-.11-0.19,2.1,2.1,0,0,1-.09-0.41,6.62,6.62,0,0,0-1.47-2.82,6.68,6.68,0,0,0-2.64-1.84,0.85,0.85,0,0,1-.39-0.24,0.25,0.25,0,0,1,.09-0.22,1.44,1.44,0,0,1,.3-0.15,6.66,6.66,0,0,0,1.84-1.08,6.43,6.43,0,0,0,1.24-1.32,7.45,7.45,0,0,0,.69-1.28,10.62,10.62,0,0,0,.37-1l0.06-.37,0.07-.17a0.23,0.23,0,0,1,.11-0.09,0.67,0.67,0,0,1,.28,0q0.43,0,.43.24a2.44,2.44,0,0,1-.11.54,9.12,9.12,0,0,1-.54,1.5,6.26,6.26,0,0,1-.69,1.17q-0.37.48-.67,0.8a6.46,6.46,0,0,1-.65.61l-0.43.37h16.55a0.54,0.54,0,0,1,.33.43v-0.24Z" fill="#666"/>
    <path d="M487.32,191.27s4.41,0,13.11,0h13l1.26,2.93q1.28,3,1.37,3.16h-0.87l-0.15-.3a7.32,7.32,0,0,0-1.21-1.69,9.09,9.09,0,0,0-2.41-1.67,11.86,11.86,0,0,0-3.06-.93,25.21,25.21,0,0,0-3.27-.37q-1.54-.06-4-0.09h-9.71l0.17,0.24q10,13.72,10.08,13.85a0.19,0.19,0,0,1,0,.13L496,213l-5.72,6.5s1.52,0,4.57,0h3.06q1.93,0,2.77,0,2.95,0,4.77-.11a27.83,27.83,0,0,0,3.62-.46,10,10,0,0,0,3.06-1.06,8.13,8.13,0,0,0,2.23-1.89,6.87,6.87,0,0,0,.89-1.56h0.87s-0.05.17-.15,0.46-0.28.76-.54,1.41-0.48,1.26-.67,1.82l-1.26,3.36-13,0q-13,0-13.11,0a0.18,0.18,0,0,1-.13-0.2,0.33,0.33,0,0,1,0-.13L498.81,208s-0.24-.34-0.71-1-1.24-1.68-2.28-3.12-2-2.73-2.82-3.86l-5.76-7.91,0-.33A0.7,0.7,0,0,1,487.32,191.27Z" fill="#666"/>
    <path d="M499.35,230.92a1.68,1.68,0,0,1,.14-0.47,7.35,7.35,0,0,1,.37-0.78,2.53,2.53,0,0,1,.67-0.78,1.39,1.39,0,0,1,.92-0.34,1.45,1.45,0,0,1,1,.35,1.25,1.25,0,0,1,.41.95,3,3,0,0,1-.21.86q-0.21.6-.61,1.61T501.38,234a2.51,2.51,0,0,0-.08.49q0,0.38.26,0.38a1,1,0,0,0,.29,0,1,1,0,0,0,.35-0.21,2.08,2.08,0,0,0,.41-0.54,4.45,4.45,0,0,0,.38-0.9,0.63,0.63,0,0,1,.08-0.21,0.56,0.56,0,0,1,.26,0q0.31,0,.31.15a1.68,1.68,0,0,1-.14.47,6,6,0,0,1-.38.78,2.56,2.56,0,0,1-.69.77,1.54,1.54,0,0,1-.95.34,1.44,1.44,0,0,1-.9-0.32,1.2,1.2,0,0,1-.43-1,1.54,1.54,0,0,1,.08-0.49q0.08-.23.66-1.75t0.67-1.85a2.54,2.54,0,0,0,.11-0.6q0-.37-0.26-0.37h0a1.07,1.07,0,0,0-.84.51,3.57,3.57,0,0,0-.58,1.29l0,0a0.12,0.12,0,0,0,0,0,0,0,0,0,1,0,0l0,0h-0.4A0.26,0.26,0,0,1,499.35,230.92Zm2.5-4.8a0.86,0.86,0,0,1,.29-0.64,1,1,0,0,1,.67-0.29,0.62,0.62,0,0,1,.46.18,0.68,0.68,0,0,1,.2.46,0.87,0.87,0,0,1-.31.64,1,1,0,0,1-.67.31,0.69,0.69,0,0,1-.43-0.15A0.64,0.64,0,0,1,501.84,226.13Z" fill="#666"/>
    <path d="M528.53,204.7a2,2,0,0,0-.11-0.48,2.06,2.06,0,0,0-.5-0.76,1.39,1.39,0,0,0-1-.43,2.08,2.08,0,0,0-1.45.67,4.53,4.53,0,0,0-1.08,1.76,17.3,17.3,0,0,0-.89,3.55v0.24a1.16,1.16,0,0,1,0,.26,1.82,1.82,0,0,0,.39,1.34,1.4,1.4,0,0,0,.93.39,2.45,2.45,0,0,0,1.63-.72,3.64,3.64,0,0,0,1-1.11q0-.09.59-2.32T528.53,204.7Zm-6.89,3.71a6.4,6.4,0,0,1,1.65-4.16,4.85,4.85,0,0,1,3.71-2,2.46,2.46,0,0,1,2,1.06,1.08,1.08,0,0,1,1-.65,0.78,0.78,0,0,1,.5.17,0.53,0.53,0,0,1,.22.43q0,0.28-.8,3.47t-0.82,3.6a1.16,1.16,0,0,0,.15.71,0.64,0.64,0,0,0,.45.2,0.94,0.94,0,0,0,.43-0.2A4.91,4.91,0,0,0,531,209a0.81,0.81,0,0,1,.22-0.45,0.63,0.63,0,0,1,.22,0h0.09q0.41,0,.41.19a3.44,3.44,0,0,1-.11.59,6.8,6.8,0,0,1-.43,1.17,3.69,3.69,0,0,1-.69,1.08,2.14,2.14,0,0,1-.69.45,2.31,2.31,0,0,1-.52,0,2.21,2.21,0,0,1-1.24-.32,1.66,1.66,0,0,1-.65-0.67l-0.13-.33s0,0-.09,0l-0.09.09a3.8,3.8,0,0,1-2.6,1.21,3,3,0,0,1-2.1-.87A3.65,3.65,0,0,1,521.64,208.41Z" fill="#666"/>
    <path d="M532.71,210.66a1.68,1.68,0,0,1,.14-0.47,7.35,7.35,0,0,1,.37-0.78,2.53,2.53,0,0,1,.67-0.78,1.39,1.39,0,0,1,.92-0.34,1.45,1.45,0,0,1,1,.35,1.25,1.25,0,0,1,.41.95,3,3,0,0,1-.21.86q-0.21.6-.61,1.61t-0.64,1.73a2.51,2.51,0,0,0-.08.49q0,0.38.26,0.38a1,1,0,0,0,.29,0,1,1,0,0,0,.35-0.21,2.08,2.08,0,0,0,.41-0.54,4.45,4.45,0,0,0,.38-0.9,0.63,0.63,0,0,1,.08-0.21,0.56,0.56,0,0,1,.26,0q0.31,0,.31.15a1.68,1.68,0,0,1-.14.47,6,6,0,0,1-.38.78,2.56,2.56,0,0,1-.69.77,1.54,1.54,0,0,1-.95.34,1.44,1.44,0,0,1-.9-0.32,1.2,1.2,0,0,1-.43-1,1.54,1.54,0,0,1,.08-0.49q0.08-.23.66-1.75t0.67-1.85a2.54,2.54,0,0,0,.11-0.6q0-.37-0.26-0.37h0a1.07,1.07,0,0,0-.84.51,3.57,3.57,0,0,0-.58,1.29l0,0a0.12,0.12,0,0,0,0,0,0,0,0,0,1,0,0l0,0h-0.4A0.26,0.26,0,0,1,532.71,210.66Zm2.5-4.8a0.86,0.86,0,0,1,.29-0.64,1,1,0,0,1,.67-0.29,0.62,0.62,0,0,1,.46.18,0.68,0.68,0,0,1,.2.46,0.87,0.87,0,0,1-.31.64,1,1,0,0,1-.67.31,0.69,0.69,0,0,1-.43-0.15A0.64,0.64,0,0,1,535.21,205.87Z" fill="#666"/>
    <path d="M546.11,198.18a2.36,2.36,0,0,0-1.24-.17,6.23,6.23,0,0,1-.67,0,0.18,0.18,0,0,1-.15-0.22s0-.09,0-0.24l0-.15a0.65,0.65,0,0,0,0-.11,0.38,0.38,0,0,1,0-.11q0-.09,0-0.06s0,0,.09,0a0.11,0.11,0,0,1,.11,0,0.3,0.3,0,0,0,.17,0l0.26,0h0.65l1,0h2a0.43,0.43,0,0,1,.35.11q0,0.09.8,6.11l0.78,6,0.5-.8q0.52-.78,1.39-2.17l1.91-3q3.79-6,3.84-6.09l0.07-.07,0.09-.06,0.13,0h2.95a5.27,5.27,0,0,0,.63,0q0.74,0,.74.24a1.78,1.78,0,0,1-.07.37q-0.07.26-.07,0.28a1.28,1.28,0,0,1-.8.13,9.64,9.64,0,0,0-1.11.07,0.62,0.62,0,0,0-.39.24q-0.06.11-1.56,6.13t-1.52,6.09a0.17,0.17,0,0,0,0,.11l0.15,0.09a0.7,0.7,0,0,0,.37,0,3.47,3.47,0,0,1,.71,0H559a0.78,0.78,0,0,1,.13.24,1.43,1.43,0,0,1-.15.65,0.48,0.48,0,0,1-.35.11l-0.89,0-2,0h-2a6.4,6.4,0,0,0-.76,0q-0.37,0-.37-0.22s0-.13,0-0.3a0.68,0.68,0,0,1,.17-0.39,1.8,1.8,0,0,1,.5-0.07q0.59,0,1.3-.07a0.58,0.58,0,0,0,.41-0.26q0-.09.82-3.16t1.54-6.13l0.76-3.06-4.2,6.7q-4.25,6.76-4.35,6.87l-0.09,0a0.7,0.7,0,0,1-.35.07,0.39,0.39,0,0,1-.39-0.15q0-.09-0.89-6.72l-0.85-6.65-1.47,5.85q-1.45,5.76-1.45,6,0.13,0.72,1.56.72H546a0.42,0.42,0,0,1,.15.2,1,1,0,0,1-.07.39,0.68,0.68,0,0,1-.17.39l-0.24,0h-0.26l-0.74,0-1.39,0-1.34,0-0.8,0a1.17,1.17,0,0,1-.41,0,0.2,0.2,0,0,1-.09-0.2,2.3,2.3,0,0,1,.07-0.3,1.32,1.32,0,0,1,.11-0.33,0.51,0.51,0,0,1,.48-0.13,1.92,1.92,0,0,0,1.93-.87q0.09-.13,1.49-5.81T546.11,198.18Z" fill="#666"/>
    <path d="M561.18,210.66a1.68,1.68,0,0,1,.14-0.47,7.37,7.37,0,0,1,.37-0.78,2.53,2.53,0,0,1,.67-0.78,1.39,1.39,0,0,1,.92-0.34,1.45,1.45,0,0,1,1,.35,1.25,1.25,0,0,1,.41.95,3,3,0,0,1-.21.86q-0.21.6-.61,1.61t-0.64,1.73a2.51,2.51,0,0,0-.08.49q0,0.38.26,0.38a1,1,0,0,0,.29,0,1,1,0,0,0,.35-0.21,2.08,2.08,0,0,0,.41-0.54,4.45,4.45,0,0,0,.38-0.9,0.63,0.63,0,0,1,.08-0.21,0.56,0.56,0,0,1,.26,0q0.31,0,.31.15a1.68,1.68,0,0,1-.14.47,6,6,0,0,1-.38.78,2.56,2.56,0,0,1-.69.77,1.54,1.54,0,0,1-.95.34,1.44,1.44,0,0,1-.9-0.32,1.2,1.2,0,0,1-.43-1,1.54,1.54,0,0,1,.08-0.49q0.08-.23.66-1.75t0.67-1.85a2.54,2.54,0,0,0,.11-0.6q0-.37-0.26-0.37h0a1.07,1.07,0,0,0-.84.51,3.57,3.57,0,0,0-.58,1.29l0,0a0.12,0.12,0,0,0,0,0,0,0,0,0,1,0,0l0,0h-0.4A0.26,0.26,0,0,1,561.18,210.66Zm2.5-4.8a0.86,0.86,0,0,1,.29-0.64,1,1,0,0,1,.67-0.29,0.62,0.62,0,0,1,.46.18,0.68,0.68,0,0,1,.2.46,0.87,0.87,0,0,1-.31.64,1,1,0,0,1-.67.31,0.69,0.69,0,0,1-.43-0.15A0.64,0.64,0,0,1,563.68,205.87Z" fill="#666"/>
  </g>
</svg>
