<?xml version="1.0" encoding="utf-8"?>
<!-- Generator: Adobe Illustrator 19.1.0, SVG Export Plug-In . SVG Version: 6.00 Build 0)  -->
<svg version="1.1" id="Layer_1" xmlns="http://www.w3.org/2000/svg" xmlns:xlink="http://www.w3.org/1999/xlink" x="0px" y="0px"
	 viewBox="-324 377 550 317" style="enable-background:new -324 377 550 317;" xml:space="preserve">
<style type="text/css">
	.st0{opacity:0.1;}
	.st1{fill:none;stroke:#0080F7;stroke-width:2;stroke-miterlimit:10;}
	.st2{fill:#0080F7;}
	.st3{opacity:0.8;}
	.st4{opacity:0.4;}
	.st5{fill:#717171;}
	.st6{font-family:'Helvetica';}
	.st7{font-size:12px;}
	.st8{fill:#FFFFFF;stroke:#808080;stroke-miterlimit:10;}
	.st9{opacity:0.5;fill:#FFFFFF;stroke:#808080;stroke-miterlimit:10;}
	.st10{opacity:0.8;fill:#0080F7;}
	.st11{opacity:0.4;fill:#0080F7;}
	.st12{opacity:0.1;fill:#0080F7;}
	.st13{fill:none;stroke:#000000;stroke-miterlimit:10;}
</style>
<g id="g31779_2_" transform="matrix(0.68670848,0,0,0.68670848,-1154.4151,1835.3332)">
	<g id="path24182_2_" class="st0">
		<g>
			<path class="st1" d="M1408.1-2045.8c0,76.7,144,66.2,144.8,101.1v193.7"/>
			<g>
				<polygon class="st2" points="1547,-1755.8 1548,-1756.8 1552.9,-1751.5 1557.8,-1756.8 1558.9,-1755.8 1552.9,-1749.4 				"/>
			</g>
		</g>
	</g>
	<g id="path24184_2_" class="st0">
		<g>
			<path class="st1" d="M1408.1-2045.8c0,76.7,98.6,66.2,99.4,101.1v193.7"/>
			<g>
				<polygon class="st2" points="1501.5,-1755.8 1502.6,-1756.8 1507.5,-1751.5 1512.4,-1756.8 1513.4,-1755.8 1507.5,-1749.4 				
					"/>
			</g>
		</g>
	</g>
	<g id="path24186_2_" class="st0">
		<g>
			<path class="st1" d="M1408.1-2045.8c0,76.7,48.9,66.2,49.7,101.1v193.7"/>
			<g>
				<polygon class="st2" points="1451.8,-1755.8 1452.9,-1756.8 1457.8,-1751.5 1462.7,-1756.8 1463.7,-1755.8 1457.8,-1749.4 				
					"/>
			</g>
		</g>
	</g>
	<g id="path24249_2_" class="st0">
		<g>
			<line class="st1" x1="1408.1" y1="-2045.8" x2="1408.2" y2="-1752"/>
			<g>
				<polygon class="st2" points="1402.2,-1756.8 1403.3,-1757.8 1408.2,-1752.6 1413.1,-1757.8 1414.1,-1756.8 1408.2,-1750.4 				
					"/>
			</g>
		</g>
	</g>
	<g id="path24260_2_" class="st3">
		<g>
			<path class="st1" d="M1408.7-2045.8c0,76.7-143,66.2-143.8,101.1v193.7"/>
			<g>
				<polygon class="st2" points="1259,-1755.8 1260,-1756.8 1264.9,-1751.5 1269.8,-1756.8 1270.9,-1755.8 1264.9,-1749.4 				"/>
			</g>
		</g>
	</g>
	<g id="path24262_2_" class="st4">
		<g>
			<path class="st1" d="M1408.7-2045.8c0,76.7-95.4,66.2-96.2,101.1v193.7"/>
			<g>
				<polygon class="st2" points="1306.5,-1755.8 1307.6,-1756.8 1312.5,-1751.5 1317.4,-1756.8 1318.4,-1755.8 1312.5,-1749.4 				
					"/>
			</g>
		</g>
	</g>
	<g id="path24264_2_" class="st0">
		<g>
			<path class="st1" d="M1408.7-2045.8c0,76.7-46.8,66.2-47.6,101.1v193.7"/>
			<g>
				<polygon class="st2" points="1355.2,-1755.8 1356.2,-1756.8 1361.1,-1751.5 1366,-1756.8 1367.1,-1755.8 1361.1,-1749.4 				"/>
			</g>
		</g>
	</g>
	<g>
	</g>
</g>
<text transform="matrix(1 0 0 1 -54 587.5437)" class="st5 st6 st7">memory</text>
<text transform="matrix(1 0 0 1 -54 658.5437)" class="st5 st6 st7">new memory</text>
<text transform="matrix(1 0 0 1 -158 415.9996)" class="st5 st6 st7">write value</text>
<text transform="matrix(1 0 0 1 -54 517.9996)" class="st5 st6 st7">attention</text>
<path class="st8" d="M-177.5,430.5h-21c-3.3,0-6-2.7-6-6v-21c0-3.3,2.7-6,6-6h21c3.3,0,6,2.7,6,6v21
	C-171.5,427.8-174.2,430.5-177.5,430.5z"/>
<g>
	<path class="st8" d="M-79.1,602.7H-297c-3.3,0-6-2.7-6-6v-22c0-3.3,2.7-6,6-6h217.9c3.3,0,6,2.7,6,6v22
		C-73.1,600-75.8,602.7-79.1,602.7z"/>
	<g>
		<line class="st9" x1="-270.1" y1="568.7" x2="-270.1" y2="602.7"/>
		<line class="st9" x1="-237.1" y1="568.7" x2="-237.1" y2="602.7"/>
		<line class="st9" x1="-204.2" y1="568.7" x2="-204.2" y2="602.7"/>
		<line class="st9" x1="-171.3" y1="568.7" x2="-171.3" y2="602.7"/>
		<line class="st9" x1="-138.4" y1="568.7" x2="-138.4" y2="602.7"/>
		<line class="st9" x1="-105.4" y1="568.7" x2="-105.4" y2="602.7"/>
	</g>
</g>
<g>
	<g>
		<path class="st8" d="M-79.1,532H-297c-3.3,0-6-2.7-6-6v-22c0-3.3,2.7-6,6-6h217.9c3.3,0,6,2.7,6,6v22
			C-73.1,529.3-75.8,532-79.1,532z"/>
		<g>
			<line class="st9" x1="-270.1" y1="498" x2="-270.1" y2="532"/>
			<line class="st9" x1="-237.1" y1="498" x2="-237.1" y2="532"/>
			<line class="st9" x1="-204.2" y1="498" x2="-204.2" y2="532"/>
			<line class="st9" x1="-171.3" y1="498" x2="-171.3" y2="532"/>
			<line class="st9" x1="-138.4" y1="498" x2="-138.4" y2="532"/>
			<line class="st9" x1="-105.4" y1="498" x2="-105.4" y2="532"/>
		</g>
	</g>
	<path class="st10" d="M-279.4,527.9h-13.7c-3.3,0-6-2.7-6-6v-13.7c0-3.3,2.7-6,6-6h13.7c3.3,0,6,2.7,6,6v13.7
		C-273.4,525.2-276.1,527.9-279.4,527.9z"/>
	<path class="st11" d="M-246.6,527.9h-13.7c-3.3,0-6-2.7-6-6v-13.7c0-3.3,2.7-6,6-6h13.7c3.3,0,6,2.7,6,6v13.7
		C-240.6,525.2-243.3,527.9-246.6,527.9z"/>
	<path class="st12" d="M-213.7,527.9h-13.7c-3.3,0-6-2.7-6-6v-13.7c0-3.3,2.7-6,6-6h13.7c3.3,0,6,2.7,6,6v13.7
		C-207.7,525.2-210.4,527.9-213.7,527.9z"/>
	<path class="st12" d="M-180.9,527.9h-13.7c-3.3,0-6-2.7-6-6v-13.7c0-3.3,2.7-6,6-6h13.7c3.3,0,6,2.7,6,6v13.7
		C-174.9,525.2-177.6,527.9-180.9,527.9z"/>
	<path class="st12" d="M-148.1,527.9h-13.7c-3.3,0-6-2.7-6-6v-13.7c0-3.3,2.7-6,6-6h13.7c3.3,0,6,2.7,6,6v13.7
		C-142.1,525.2-144.8,527.9-148.1,527.9z"/>
	<path class="st12" d="M-115.2,527.9h-13.7c-3.3,0-6-2.7-6-6v-13.7c0-3.3,2.7-6,6-6h13.7c3.3,0,6,2.7,6,6v13.7
		C-109.2,525.2-111.9,527.9-115.2,527.9z"/>
	<path class="st12" d="M-82.4,527.9h-13.7c-3.3,0-6-2.7-6-6v-13.7c0-3.3,2.7-6,6-6h13.7c3.3,0,6,2.7,6,6v13.7
		C-76.4,525.2-79.1,527.9-82.4,527.9z"/>
</g>
<g>
	<g>
		<line class="st13" x1="-284.1" y1="589.7" x2="-287.7" y2="582.3"/>
		<g>
			<polygon points="-282.6,583.5 -282.9,584.4 -287.5,582.7 -288.9,587.4 -289.9,587.1 -288.2,581.3 			"/>
		</g>
	</g>
</g>
<g>
	<g>
		<line class="st13" x1="-249.7" y1="582.3" x2="-256.2" y2="588"/>
		<g>
			<polygon points="-256.5,582.8 -255.5,582.9 -255.9,587.8 -251,587.9 -251,588.9 -257,588.7 			"/>
		</g>
	</g>
</g>
<g>
	<g>
		<line class="st13" x1="-215.9" y1="593.3" x2="-224.8" y2="578.7"/>
		<g>
			<polygon points="-219.6,579.3 -219.9,580.3 -224.6,579 -225.6,583.8 -226.6,583.6 -225.4,577.7 			"/>
		</g>
	</g>
</g>
<g>
	<g>
		<line class="st13" x1="-199" y1="585.5" x2="-178" y2="585.5"/>
		<g>
			<polygon points="-181.4,589.6 -182.1,588.9 -178.5,585.5 -182.1,582.1 -181.4,581.4 -177,585.5 			"/>
		</g>
	</g>
</g>
<g>
	<g>
		<line class="st13" x1="-180.9" y1="405.1" x2="-194.1" y2="421"/>
		<g>
			<polygon points="-195.2,415.9 -194.2,415.8 -193.9,420.7 -189,420.1 -188.9,421.1 -194.8,421.9 			"/>
		</g>
	</g>
</g>
<g>
	<g>
		<line class="st13" x1="-159.4" y1="580.5" x2="-151.5" y2="589.7"/>
		<g>
			<polygon points="-156.8,589.8 -156.7,588.9 -151.8,589.4 -151.6,584.5 -150.6,584.5 -150.8,590.5 			"/>
		</g>
	</g>
</g>
<g>
	<g>
		<line class="st13" x1="-117.9" y1="580" x2="-126.2" y2="590.2"/>
		<g>
			<polygon points="-127.3,585 -126.3,584.9 -126,589.9 -121.1,589.2 -120.9,590.2 -126.9,591 			"/>
		</g>
	</g>
</g>
<g>
	<g>
		<line class="st13" x1="-94.3" y1="590.5" x2="-85.7" y2="581.3"/>
		<g>
			<polygon points="-85,586.5 -86,586.5 -86,581.6 -90.9,581.9 -91,580.9 -85,580.5 			"/>
		</g>
	</g>
</g>
<g>
	<g>
		<path class="st8" d="M-79.1,672.7H-297c-3.3,0-6-2.7-6-6v-22c0-3.3,2.7-6,6-6h217.9c3.3,0,6,2.7,6,6v22
			C-73.1,670-75.8,672.7-79.1,672.7z"/>
		<g>
			<line class="st9" x1="-270.1" y1="638.7" x2="-270.1" y2="672.7"/>
			<line class="st9" x1="-237.1" y1="638.7" x2="-237.1" y2="672.7"/>
			<line class="st9" x1="-204.2" y1="638.7" x2="-204.2" y2="672.7"/>
			<line class="st9" x1="-171.3" y1="638.7" x2="-171.3" y2="672.7"/>
			<line class="st9" x1="-138.4" y1="638.7" x2="-138.4" y2="672.7"/>
			<line class="st9" x1="-105.4" y1="638.7" x2="-105.4" y2="672.7"/>
		</g>
	</g>
	<g>
		<g>
			<line class="st13" x1="-284.1" y1="659.7" x2="-287.7" y2="652.3"/>
			<g>
				<polygon points="-282.6,653.5 -282.9,654.4 -287.5,652.7 -288.9,657.4 -289.9,657.1 -288.2,651.3 				"/>
			</g>
		</g>
	</g>
	<g>
		<g>
			<line class="st13" x1="-249.7" y1="652.3" x2="-256.2" y2="658"/>
			<g>
				<polygon points="-256.5,652.8 -255.5,652.9 -255.9,657.8 -251,657.9 -251,658.9 -257,658.7 				"/>
			</g>
		</g>
	</g>
	<g>
		<g>
			<line class="st13" x1="-215.9" y1="663.3" x2="-224.8" y2="648.7"/>
			<g>
				<polygon points="-219.6,649.3 -219.9,650.3 -224.6,649 -225.6,653.8 -226.6,653.6 -225.4,647.7 				"/>
			</g>
		</g>
	</g>
	<g>
		<g>
			<line class="st13" x1="-199" y1="655.5" x2="-178" y2="655.5"/>
			<g>
				<polygon points="-181.4,659.6 -182.1,658.9 -178.5,655.5 -182.1,652.1 -181.4,651.4 -177,655.5 				"/>
			</g>
		</g>
	</g>
	<g>
		<g>
			<line class="st13" x1="-159.4" y1="650.5" x2="-151.5" y2="659.7"/>
			<g>
				<polygon points="-156.8,659.8 -156.7,658.9 -151.8,659.4 -151.6,654.5 -150.6,654.5 -150.8,660.5 				"/>
			</g>
		</g>
	</g>
	<g>
		<g>
			<line class="st13" x1="-117.9" y1="650" x2="-126.2" y2="660.2"/>
			<g>
				<polygon points="-127.3,655 -126.3,654.9 -126,659.9 -121.1,659.2 -120.9,660.2 -126.9,661 				"/>
			</g>
		</g>
	</g>
	<g>
		<g>
			<line class="st13" x1="-94.3" y1="660.5" x2="-85.7" y2="651.3"/>
			<g>
				<polygon points="-85,656.5 -86,656.5 -86,651.6 -90.9,651.9 -91,650.9 -85,650.5 				"/>
			</g>
		</g>
	</g>
</g>
</svg>
