<?xml version="1.0" encoding="utf-8"?>
<!-- Generator: Adobe Illustrator 19.1.0, SVG Export Plug-In . SVG Version: 6.00 Build 0)  -->
<svg version="1.1" id="Layer_1" xmlns="http://www.w3.org/2000/svg" xmlns:xlink="http://www.w3.org/1999/xlink" x="0px" y="0px"
	 viewBox="0 0 550 377" style="enable-background:new 0 0 550 377;" xml:space="preserve">
<style type="text/css">
	.st0{fill:#050505;}
	.st1{fill:#E5DCF7;stroke:#000000;stroke-miterlimit:10;}
	.st2{fill:#E5DCF7;}
	.st3{fill:none;stroke:#B3B3B3;stroke-miterlimit:10;}
	.st4{fill:#B3B3B3;}
	.st5{fill:#717171;}
	.st6{font-family:'Helvetica';}
	.st7{font-size:12px;}
	.st8{fill:#E3F2FF;stroke:#7D7D7D;stroke-miterlimit:10;}
	.st9{opacity:0.5;fill:#FFFFFF;stroke:#808080;stroke-miterlimit:10;}
	.st10{opacity:0.2;fill:none;stroke:#000000;stroke-miterlimit:10;}
	.st11{opacity:0.2;}
	.st12{fill:none;stroke:#000000;stroke-miterlimit:10;}
	.st13{font-family:'Helvetica-Bold';}
</style>
<symbol  id="rnn-a" viewBox="-22 -22 44 44">
	<use xlink:href="#rnn-bg"  width="44" height="44" x="-22" y="-22" style="overflow:visible;"/>
	<text transform="matrix(1 0 0 -1 -7.1372 -6.6533)" class="st0 st6" style="font-size:21.7741px;">A</text>
</symbol>
<symbol  id="rnn-bg" viewBox="-22 -22 44 44">
	<path class="st1" d="M15.5-21.5h-31c-3.3,0-6,2.7-6,6v31c0,3.3,2.7,6,6,6h31c3.3,0,6-2.7,6-6v-31C21.5-18.8,18.8-21.5,15.5-21.5z"
		/>
</symbol>
<symbol  id="rnn-module-bg" viewBox="-162 -34.1 324.1 68.2">
	<path class="st2" d="M152-34.1H-152c-5.5,0-10,4.5-10,10v48.2c0,5.5,4.5,10,10,10H152c5.5,0,10-4.5,10-10v-48.2
		C162-29.6,157.5-34.1,152-34.1z"/>
</symbol>
<use xlink:href="#rnn-module-bg"  width="324.1" height="68.2" id="XMLID_15_" x="-162" y="-34.1" transform="matrix(1.1203 0 0 -1 201.4531 273.3415)" style="overflow:visible;"/>
<g>
	<g>
		<line class="st3" x1="76" y1="271.5" x2="168" y2="271.5"/>
		<g>
			<polygon class="st4" points="164.9,275.6 164.3,274.9 167.9,271.5 164.3,268.1 164.9,267.4 169.3,271.5 			"/>
		</g>
	</g>
</g>
<g>
	<g>
		<line class="st3" x1="218" y1="271.5" x2="315" y2="271.5"/>
		<g>
			<polygon class="st4" points="311.6,275.6 310.9,274.9 314.5,271.5 310.9,268.1 311.6,267.4 316,271.5 			"/>
		</g>
	</g>
</g>
<g>
	<g>
		<line class="st3" x1="39.5" y1="333" x2="39.5" y2="302"/>
		<g>
			<polygon class="st4" points="43.6,305.4 42.9,306.1 39.5,302.5 36.1,306.1 35.4,305.4 39.5,301 			"/>
		</g>
	</g>
</g>
<g>
	<g>
		<line class="st3" x1="184.5" y1="333" x2="184.5" y2="302"/>
		<g>
			<polygon class="st4" points="188.6,305.4 187.9,306.1 184.5,302.5 181.1,306.1 180.4,305.4 184.5,301 			"/>
		</g>
	</g>
</g>
<g>
	<g>
		<line class="st3" x1="69.5" y1="294" x2="69.5" y2="325"/>
		<g>
			<polygon class="st4" points="65.4,321.6 66.1,320.9 69.5,324.5 72.9,320.9 73.6,321.6 69.5,326 			"/>
		</g>
	</g>
</g>
<g>
	<g>
		<line class="st3" x1="212.5" y1="294" x2="212.5" y2="325"/>
		<g>
			<polygon class="st4" points="208.4,321.6 209.1,320.9 212.5,324.5 215.9,320.9 216.6,321.6 212.5,326 			"/>
		</g>
	</g>
</g>
<g>
	<g>
		<line class="st3" x1="330.5" y1="333" x2="330.5" y2="302"/>
		<g>
			<polygon class="st4" points="334.6,305.4 333.9,306.1 330.5,302.5 327.1,306.1 326.4,305.4 330.5,301 			"/>
		</g>
	</g>
</g>
<g>
	<g>
		<line class="st3" x1="360.5" y1="294" x2="360.5" y2="325"/>
		<g>
			<polygon class="st4" points="356.4,321.6 357.1,320.9 360.5,324.5 363.9,320.9 364.6,321.6 360.5,326 			"/>
		</g>
	</g>
</g>
<text transform="matrix(1 0 0 1 29 352.9997)" class="st5 st6 st7">x0</text>
<text transform="matrix(1 0 0 1 60 351.9997)" class="st5 st6 st7">y0</text>
<text transform="matrix(1 0 0 1 180 352.9997)" class="st5 st6 st7">x1</text>
<text transform="matrix(1 0 0 1 209 351.9997)" class="st5 st6 st7">y1</text>
<text transform="matrix(1 0 0 1 326 352.9997)" class="st5 st6 st7">x2</text>
<text transform="matrix(1 0 0 1 357 351.9997)" class="st5 st6 st7">y2</text>
<text transform="matrix(1 0 0 1 21 117.9997)" class="st5 st6 st7">Time step 0</text>
<text transform="matrix(1 0 0 1 175 117.9997)" class="st5 st6 st7">step 1</text>
<text transform="matrix(1 0 0 1 323 117.9997)" class="st5 st6 st7">step 2</text>
<g>
	<path class="st8" d="M145.8,163.5H36c-1.7,0-3-1.4-3-3v-11.1c0-1.7,1.3-3,3-3h109.8c1.7,0,3,1.3,3,3v11.1
		C148.8,162.2,147.5,163.5,145.8,163.5z"/>
	<line class="st9" x1="49.5" y1="146" x2="49.5" y2="162"/>
	<line class="st9" x1="66.5" y1="146" x2="66.5" y2="162"/>
	<line class="st9" x1="83.5" y1="146" x2="83.5" y2="162"/>
	<line class="st9" x1="99.5" y1="146" x2="99.5" y2="162"/>
	<line class="st9" x1="116.5" y1="146" x2="116.5" y2="162"/>
	<line class="st9" x1="133.5" y1="146" x2="133.5" y2="162"/>
</g>
<g>
	<path class="st8" d="M289.8,163.5H180c-1.6,0-3-1.4-3-3v-11.1c0-1.7,1.4-3,3-3h109.8c1.6,0,3,1.3,3,3v11.1
		C292.8,162.2,291.5,163.5,289.8,163.5z"/>
	<line class="st9" x1="193.5" y1="146" x2="193.5" y2="162"/>
	<line class="st9" x1="210.5" y1="146" x2="210.5" y2="162"/>
	<line class="st9" x1="227.5" y1="146" x2="227.5" y2="162"/>
	<line class="st9" x1="243.5" y1="146" x2="243.5" y2="162"/>
	<line class="st9" x1="260.5" y1="146" x2="260.5" y2="162"/>
	<line class="st9" x1="277.5" y1="146" x2="277.5" y2="162"/>
</g>
<g>
	<path class="st8" d="M433.8,163.5H324c-1.6,0-3-1.4-3-3v-11.1c0-1.7,1.4-3,3-3h109.8c1.6,0,3,1.3,3,3v11.1
		C436.8,162.2,435.5,163.5,433.8,163.5z"/>
	<line class="st9" x1="337.5" y1="146" x2="337.5" y2="162"/>
	<line class="st9" x1="354.5" y1="146" x2="354.5" y2="162"/>
	<line class="st9" x1="371.5" y1="146" x2="371.5" y2="162"/>
	<line class="st9" x1="387.5" y1="146" x2="387.5" y2="162"/>
	<line class="st9" x1="404.5" y1="146" x2="404.5" y2="162"/>
	<line class="st9" x1="421.5" y1="146" x2="421.5" y2="162"/>
</g>
<path class="st10" d="M21.5,137v-5.4c0-0.4,1.7-1.1,2.9-1.1h132.4c1.2,0,1.7,0.6,1.7,1.1v5.4"/>
<path class="st10" d="M168.5,137v-5.4c0-0.4,1.9-1.1,3.1-1.1H304c1.2,0,1.5,0.6,1.5,1.1v5.4"/>
<g class="st11">
	<g>
		<path class="st12" d="M315.5,137v-5.4c0-0.4,2.1-1.1,3.3-1.1H438"/>
		<g>
			<polygon points="434.6,134.6 433.9,133.9 437.5,130.5 433.9,127.1 434.6,126.4 439,130.5 			"/>
		</g>
	</g>
</g>
<g>
	<text transform="matrix(1 0 0 1 191.5 214.9997)" class="st13 st7">read</text>
</g>
<g>
	<text transform="matrix(1 0 0 1 79.5 214.9997)" class="st13 st7">write</text>
</g>
<g>
	<g>
		<line class="st12" x1="75" y1="255.5" x2="169.9" y2="172.5"/>
		<g>
			<polygon points="170.1,177.7 169.1,177.6 169.6,172.7 164.7,172.6 164.7,171.6 170.8,171.8 			"/>
		</g>
	</g>
</g>
<g>
	<g>
		<line class="st12" x1="197.2" y1="171.1" x2="168.2" y2="235.9"/>
		<g>
			<polygon points="165.9,231.2 166.8,230.8 168.4,235.5 172.9,233.6 173.3,234.5 167.8,236.9 			"/>
		</g>
	</g>
</g>
<g>
	<g>
		<line class="st3" x1="328.5" y1="170" x2="328.5" y2="241"/>
		<g>
			<polygon class="st4" points="324.4,237.6 325.1,236.9 328.5,240.5 331.9,236.9 332.6,237.6 328.5,242 			"/>
		</g>
	</g>
</g>
<path class="st12" d="M90,170c0,0,30,49,71,10"/>
<g>
	<g>
		<line class="st3" x1="217" y1="255.5" x2="311.9" y2="172.5"/>
		<g>
			<polygon class="st4" points="312.1,177.7 311.1,177.6 311.6,172.7 306.7,172.6 306.7,171.6 312.8,171.8 			"/>
		</g>
	</g>
</g>
<path class="st3" d="M232,170c0,0,30,49,71,10"/>
<g>
	<g>
		<path class="st8" d="M244.9,56.7H27c-3.3,0-6-2.7-6-6v-22c0-3.3,2.7-6,6-6h217.9c3.3,0,6,2.7,6,6v22
			C250.9,54,248.2,56.7,244.9,56.7z"/>
		<g>
			<line class="st9" x1="53.9" y1="22.7" x2="53.9" y2="56.7"/>
			<line class="st9" x1="86.9" y1="22.7" x2="86.9" y2="56.7"/>
			<line class="st9" x1="119.8" y1="22.7" x2="119.8" y2="56.7"/>
			<line class="st9" x1="152.7" y1="22.7" x2="152.7" y2="56.7"/>
			<line class="st9" x1="185.6" y1="22.7" x2="185.6" y2="56.7"/>
			<line class="st9" x1="218.6" y1="22.7" x2="218.6" y2="56.7"/>
		</g>
	</g>
	<g>
		<g>
			<line class="st12" x1="39.9" y1="43.7" x2="36.3" y2="36.3"/>
			<g>
				<polygon points="41.4,37.5 41.1,38.4 36.5,36.7 35.1,41.4 34.1,41.1 35.8,35.3 				"/>
			</g>
		</g>
	</g>
	<g>
		<g>
			<line class="st12" x1="74.3" y1="36.3" x2="67.8" y2="42"/>
			<g>
				<polygon points="67.5,36.8 68.5,36.9 68.1,41.8 73,41.9 73,42.9 67,42.7 				"/>
			</g>
		</g>
	</g>
	<g>
		<g>
			<line class="st12" x1="108.1" y1="47.3" x2="99.2" y2="32.7"/>
			<g>
				<polygon points="104.4,33.3 104.1,34.3 99.4,33 98.4,37.8 97.4,37.6 98.6,31.7 				"/>
			</g>
		</g>
	</g>
	<g>
		<g>
			<line class="st12" x1="125" y1="39.5" x2="146" y2="39.5"/>
			<g>
				<polygon points="142.6,43.6 141.9,42.9 145.5,39.5 141.9,36.1 142.6,35.4 147,39.5 				"/>
			</g>
		</g>
	</g>
	<g>
		<g>
			<line class="st12" x1="164.6" y1="34.5" x2="172.5" y2="43.7"/>
			<g>
				<polygon points="167.2,43.8 167.3,42.9 172.2,43.4 172.4,38.5 173.4,38.5 173.2,44.5 				"/>
			</g>
		</g>
	</g>
	<g>
		<g>
			<line class="st12" x1="206.1" y1="34" x2="197.8" y2="44.2"/>
			<g>
				<polygon points="196.7,39 197.7,38.9 198,43.9 202.9,43.2 203.1,44.2 197.1,45 				"/>
			</g>
		</g>
	</g>
	<g>
		<g>
			<line class="st12" x1="229.7" y1="44.5" x2="238.3" y2="35.3"/>
			<g>
				<polygon points="239,40.5 238,40.5 238,35.6 233.1,35.9 233,34.9 239,34.5 				"/>
			</g>
		</g>
	</g>
</g>
<use xlink:href="#rnn-a"  width="44" height="44" x="-22" y="-22" transform="matrix(1 0 0 -1 54 273.9997)" style="overflow:visible;"/>
<use xlink:href="#rnn-a"  width="44" height="44" x="-22" y="-22" transform="matrix(1 0 0 -1 194 273.9997)" style="overflow:visible;"/>
<use xlink:href="#rnn-a"  width="44" height="44" x="-22" y="-22" transform="matrix(1 0 0 -1 344 273.9997)" style="overflow:visible;"/>
</svg>
