<?xml version="1.0" encoding="utf-8"?>
<!-- Generator: Adobe Illustrator 19.1.0, SVG Export Plug-In . SVG Version: 6.00 Build 0)  -->
<svg version="1.1" id="Layer_1" xmlns="http://www.w3.org/2000/svg" xmlns:xlink="http://www.w3.org/1999/xlink" x="0px" y="0px"
	 viewBox="-99 75 550 172" style="enable-background:new -99 75 550 172;" xml:space="preserve">
<style type="text/css">
	.st0{enable-background:new    ;}
	.st1{fill:#050505;}
	.st2{fill:#E5DCF7;stroke:#000000;stroke-miterlimit:10;}
	.st3{fill:#E5DCF7;}
	.st4{font-family:'Helvetica';}
	.st5{font-size:21.7741px;}
	.st6{fill:none;stroke:#B3B3B3;stroke-miterlimit:10;}
	.st7{fill:#B3B3B3;}
	.st8{fill:#717171;}
	.st9{font-size:12px;}
	.st10{opacity:0.2;fill:none;stroke:#000000;stroke-miterlimit:10;stroke-dasharray:2;enable-background:new    ;}
</style>
<symbol  id="rnn-a" viewBox="-22 -22 44 44">
	<use xlink:href="#rnn-bg"  width="44" height="44" x="-22" y="-22" style="overflow:visible;"/>
	<text transform="matrix(1 0 0 -1 -7.1372 -6.6533)" class="st1 st4 st5">A</text>
</symbol>
<symbol  id="rnn-bg" viewBox="-22 -22 44 44">
	<path class="st2" d="M15.5-21.5h-31c-3.3,0-6,2.7-6,6v31c0,3.3,2.7,6,6,6h31c3.3,0,6-2.7,6-6v-31C21.5-18.8,18.8-21.5,15.5-21.5z"
		/>
</symbol>
<symbol  id="rnn-module-bg" viewBox="-162 -34.1 324 68.2">
	<path class="st3" d="M152-34.1h-304c-5.5,0-10,4.5-10,10v48.2c0,5.5,4.5,10,10,10h304c5.5,0,10-4.5,10-10v-48.2
		C162-29.6,157.5-34.1,152-34.1z"/>
</symbol>
<use xlink:href="#rnn-module-bg"  width="324" height="68.2" id="XMLID_16_" x="-162" y="-34.1" transform="matrix(1.1203 0 0 -1 104.5091 144.3415)" style="overflow:visible;"/>
<g>
	
		<use xlink:href="#rnn-bg"  width="44" height="44" x="-22" y="-22" transform="matrix(1 0 0 -1 -44 146)" style="overflow:visible;"/>
	<text transform="matrix(1 0 0 1 -51.1372 152.6533)" class="st1 st4 st5">A</text>
</g>
<use xlink:href="#rnn-a"  width="44" height="44" x="-22" y="-22" transform="matrix(1 0 0 -1 -44 146)" style="overflow:visible;"/>
<use xlink:href="#rnn-a"  width="44" height="44" x="-22" y="-22" transform="matrix(1 0 0 -1 97 144.9997)" style="overflow:visible;enable-background:new    ;"/>
<use xlink:href="#rnn-a"  width="44" height="44" x="-22" y="-22" transform="matrix(1 0 0 -1 247 144.9997)" style="overflow:visible;enable-background:new    ;"/>
<g>
	<g>
		<line class="st6" x1="-23" y1="143.5" x2="69" y2="143.5"/>
		<g>
			<polygon class="st7" points="65.9,147.6 65.3,146.9 68.9,143.5 65.3,140.1 65.9,139.4 70.3,143.5 			"/>
		</g>
	</g>
</g>
<g>
	<g>
		<line class="st6" x1="119" y1="143.5" x2="216" y2="143.5"/>
		<g>
			<polygon class="st7" points="212.6,147.6 211.9,146.9 215.5,143.5 211.9,140.1 212.6,139.4 217,143.5 			"/>
		</g>
	</g>
</g>
<g>
	<g>
		<line class="st6" x1="-59.5" y1="205" x2="-59.5" y2="174"/>
		<g>
			<polygon class="st7" points="-55.4,177.4 -56.1,178.1 -59.5,174.5 -62.9,178.1 -63.6,177.4 -59.5,173 			"/>
		</g>
	</g>
</g>
<g>
	<g>
		<line class="st6" x1="85.5" y1="205" x2="85.5" y2="174"/>
		<g>
			<polygon class="st7" points="89.6,177.4 88.9,178.1 85.5,174.5 82.1,178.1 81.4,177.4 85.5,173 			"/>
		</g>
	</g>
</g>
<g>
	<g>
		<line class="st6" x1="-29.5" y1="166" x2="-29.5" y2="197"/>
		<g>
			<polygon class="st7" points="-33.6,193.6 -32.9,192.9 -29.5,196.5 -26.1,192.9 -25.4,193.6 -29.5,198 			"/>
		</g>
	</g>
</g>
<g>
	<g>
		<line class="st6" x1="113.5" y1="166" x2="113.5" y2="197"/>
		<g>
			<polygon class="st7" points="109.4,193.6 110.1,192.9 113.5,196.5 116.9,192.9 117.6,193.6 113.5,198 			"/>
		</g>
	</g>
</g>
<g>
	<g>
		<line class="st6" x1="231.5" y1="205" x2="231.5" y2="174"/>
		<g>
			<polygon class="st7" points="235.6,177.4 234.9,178.1 231.5,174.5 228.1,178.1 227.4,177.4 231.5,173 			"/>
		</g>
	</g>
</g>
<g>
	<g>
		<line class="st6" x1="261.5" y1="166" x2="261.5" y2="197"/>
		<g>
			<polygon class="st7" points="257.4,193.6 258.1,192.9 261.5,196.5 264.9,192.9 265.6,193.6 261.5,198 			"/>
		</g>
	</g>
</g>
<text transform="matrix(1 0 0 1 -70 224.9997)" class="st8 st4 st9">x0</text>
<text transform="matrix(1 0 0 1 -39 223.9997)" class="st8 st4 st9">y0</text>
<text transform="matrix(1 0 0 1 81 224.9997)" class="st8 st4 st9">x1</text>
<text transform="matrix(1 0 0 1 110 223.9997)" class="st8 st4 st9">y1</text>
<text transform="matrix(1 0 0 1 227 224.9997)" class="st8 st4 st9">x2</text>
<text transform="matrix(1 0 0 1 258 223.9997)" class="st8 st4 st9">y2</text>
<g>
	<text transform="matrix(1 0 0 1 -56.5 86.9997)" class="st4 st9">cell</text>
</g>
<g>
	<text transform="matrix(1 0 0 1 -1.5 86.9997)" class="st4 st9">message</text>
</g>
<line class="st10" x1="23.5" y1="139" x2="23.5" y2="95"/>
<line class="st10" x1="-45.5" y1="118" x2="-45.5" y2="95"/>
<g>
	<text transform="matrix(1 0 0 1 87.5 86.9997)" class="st4 st9">same cell is used again</text>
</g>
<line class="st10" x1="98.5" y1="118" x2="98.5" y2="95"/>
</svg>
